<svg xmlns="http://www.w3.org/2000/svg">
  <path d="m52 12.9c.1 4-3 7.4-7 7.6-4 .1-7.4-3-7.6-7 0-.2 0-.4 0-.5-.1-4 3-7.4 7-7.6s7.4 3 7.6 7zm-3.4 0c0-2.9-1.8-4.4-3.9-4.4s-3.9 1.5-3.9 4.4 1.9 4.5 3.9 4.5 3.9-1.5 3.9-4.5zm5.4 7.1v-20h3.3v7.6c1-1.4 2.7-2.2 4.4-2.1 4.2 0 6.5 3.2 6.5 7.3s-2.5 7.5-6.6 7.5c-1.7.1-3.4-.8-4.3-2.3l-1.9 2zm7-11.4c-2.1 0-3.8 1.6-3.8 4.4s1.7 4.5 3.8 4.5 3.8-1.7 3.8-4.5-1.5-4.4-3.8-4.4zm9.5-2.7v14.1h3.3v-14.1zm6 14.1v-20h3.4v20zm32.1-20v7.6c-.4-.9-1.7-2-4.1-2-4 0-6.7 3.3-6.7 7.4 0 4.2 2.7 7.5 6.7 7.5 1.7.1 3.3-.8 4.2-2.2l1.8 1.8h1.4v-2.5-17.6zm-3.7 17.4c-2.3 0-3.8-1.8-3.8-4.5s1.6-4.4 3.8-4.4 3.7 1.7 3.7 4.4-1.5 4.5-3.7 4.5zm-90.4-17.3h4.4l6.1 11 6-11.1h4.4v20h-3.5v-14.3l-6.2 11.5h-1.4l-6.3-11.5v14.3h-3.5zm59.3 0h-3.3v3.3h3.3zm52.3 5.8-1.6 1.6c-.4-.9-1.7-2-4.1-2-1.1 0-2.3.3-3.3.9-2.2 1.2-3.5 3.5-3.4 6v.6c0 4.2 2.7 7.5 6.8 7.5 1.5 0 2.9-.6 3.8-1.8v.2c0 2.8-1.3 4.2-3.9 4.2-1.4 0-2.8-.5-3.9-1.4-.2-.2-.3-.3-.4-.4l-2.1 2.1c.1.1.2.2.4.4 1.7 1.5 3.8 2.3 6.1 2.2 5.3 0 7.2-3.5 7.2-7.3v-12.8zm-5.3 11.5c-2.3 0-3.8-1.8-3.8-4.5 0-2.4 1.2-3.9 3-4.3h.7c.8 0 1.5.2 2.2.6 1.1.9 1.6 2.3 1.5 3.7 0 2.7-1.4 4.5-3.6 4.5zm-29.3-.3c-.6.3-1.3.4-2 .4-.9 0-1.9-.3-2.6-.9s-1.2-1.5-1.4-2.4h10.2c.1-.4.1-.7.1-1.1.1-2-.5-3.9-1.7-5.5-1.3-1.4-3.1-2.2-5.1-2.1-1.3 0-2.5.3-3.7.9-1.1.6-1.9 1.5-2.5 2.6-.5 1.3-.8 2.6-.8 4 0 1.3.3 2.7.9 3.9.6 1.1 1.4 2 2.5 2.6s2.4 1 3.8.9c1.1 0 2.3-.2 3.3-.6s1.9-1.1 2.6-1.9l-1.9-1.9c-.6.4-1.1.8-1.7 1.1zm-4.9-7.9c.7-.6 1.6-1 2.5-.9.9 0 1.8.3 2.5 1s1 1.6 1 2.5h-7.1c0-1 .4-1.9 1.1-2.6zm52.2 7.9c-.6.3-1.3.4-2 .4-.9 0-1.9-.3-2.6-.9s-1.2-1.5-1.4-2.4h10.2c.1-.4.1-.7.1-1.1.1-2-.5-3.9-1.7-5.5-1.3-1.4-3.1-2.2-5.1-2.1-1.3 0-2.5.3-3.7.9-1.1.6-1.9 1.5-2.5 2.6-.6 1.2-.9 2.5-.9 3.9 0 1.3.3 2.7.9 3.9.6 1.1 1.4 2 2.5 2.6s2.4 1 3.8.9c1.1 0 2.3-.2 3.3-.6s1.9-1.1 2.6-1.9l-1.9-1.9c-.4.5-.9.9-1.6 1.2zm-4.8-7.9c.7-.6 1.6-1 2.5-.9.9 0 1.8.3 2.5 1s1 1.6 1 2.5h-7.1c0-1 .4-1.9 1.1-2.6z" fill="#070c00" />
  <path d="m165.5 17.7v2.4h-2.4l-6-6 2.4-2.4zm-154.3-15.3v-2.3h-2.4l-8.8 8.8v2.4l8.8 8.8h2.4v-2.4l-7.7-7.6zm164.2 7.7-7.6 7.6v2.4h2.4l8.9-8.8v-2.4l-8.9-8.8h-2.4v2.3zm-27.6-10h-2.4v2.3l6 6 2.4-2.4zm17.7 2.3v-2.3h-2.4l-17.6 17.6v2.4h2.4z" fill="#93e019" />
  <path d="m179.1.7h-1.2v-.7h3.2v.7h-1.2v3.3h-.8zm2.9-.7h.8l1.2 1.9 1.2-1.9h.8v4h-.7v-2.8l-1.3 1.9-1.2-1.9v2.8h-.8z" fill="#93e019" />
  <path d="m19.1 22.2c.6 0 1.2.1 1.7.4.5.2.9.6 1.3 1s.6.9.8 1.4.3 1.1.3 1.7-.1 1.2-.3 1.7-.5 1-.8 1.4-.8.7-1.3 1c-.5.2-1.1.4-1.7.4s-1.2-.1-1.7-.4c-.5-.2-.9-.6-1.3-1s-.6-.9-.8-1.4-.3-1.1-.3-1.7.1-1.2.3-1.7.5-1 .8-1.4c.4-.4.8-.7 1.3-1s1-.4 1.7-.4zm0 1.3c-.5 0-.9.1-1.2.3s-.6.4-.8.7-.4.7-.5 1c-.1.4-.1.8-.1 1.2s0 .8.1 1.2.3.7.5 1 .5.6.8.7.7.3 1.2.3.9-.1 1.2-.3.6-.4.8-.7.4-.7.5-1c.1-.4.1-.8.1-1.2s-.1-.8-.1-1.2c-.1-.4-.3-.7-.5-1s-.5-.6-.8-.7c-.4-.3-.8-.3-1.2-.3z" />
  <path d="m24.4 24.8h1.3v.8c.2-.4.5-.6.8-.8s.7-.2 1.1-.2c.5 0 .9.1 1.3.3s.7.4.9.7.4.7.5 1c.1.4.2.8.2 1.3 0 .4-.1.8-.2 1.2s-.3.7-.5 1-.5.5-.8.7-.7.3-1.2.3c-.2 0-.4 0-.6-.1-.2 0-.4-.1-.6-.2s-.4-.2-.5-.3c-.2-.1-.3-.3-.4-.4v3.1h-1.4v-8.4zm4.8 3.1c0-.3 0-.6-.1-.8-.1-.3-.2-.5-.3-.7s-.3-.4-.5-.5-.5-.2-.7-.2c-.6 0-1 .2-1.3.6s-.4.9-.4 1.6c0 .3 0 .6.1.9s.2.5.3.7l.5.5c.2.1.5.2.7.2.3 0 .6-.1.8-.2s.4-.3.5-.5.2-.4.3-.7.1-.6.1-.9z" />
  <path d="m32.7 28.3c0 .2 0 .5.1.7s.2.4.3.6.3.3.5.4.5.1.7.1c.4 0 .7-.1 1-.3s.4-.4.5-.8h1.3c-.1.3-.2.6-.4.9s-.4.5-.6.7-.5.3-.8.4-.6.1-1 .1c-.5 0-.9-.1-1.3-.2-.4-.2-.7-.4-1-.7s-.5-.6-.6-1-.2-.8-.2-1.3c0-.4.1-.9.2-1.3s.3-.7.6-1 .6-.5.9-.7c.4-.2.8-.3 1.2-.3.5 0 .9.1 1.3.3s.7.5 1 .8.4.7.6 1.2c.1.4.1.9.1 1.3h-4.4zm3.2-.9c0-.2-.1-.4-.1-.6-.1-.2-.2-.4-.3-.5s-.3-.3-.5-.4-.4-.1-.6-.1-.5 0-.7.1-.4.2-.5.3-.3.3-.3.5-.1.4-.1.6h3.1z" />
  <path d="m38.3 24.8h1.3v1.2c0-.2.1-.3.2-.5s.3-.3.4-.4c.2-.1.3-.2.5-.3s.4-.1.6-.1h.3.2v1.3c-.1 0-.2 0-.3 0s-.2 0-.3 0c-.2 0-.5 0-.7.1s-.4.2-.5.4c-.2.2-.3.4-.4.7s-.1.6-.1.9v3h-1.4v-6.3z" />
  <path d="m47.8 29.6c0 .2 0 .3.1.4 0 .1.1.1.3.1h.1.2v.9s-.1 0-.2.1c-.1 0-.2 0-.2.1-.1 0-.2 0-.2 0-.1 0-.1 0-.2 0-.3 0-.5-.1-.7-.2s-.3-.3-.4-.6c-.3.3-.6.5-1 .6s-.8.2-1.1.2-.5 0-.8-.1-.5-.2-.7-.3-.4-.3-.5-.6c-.1-.2-.2-.5-.2-.8 0-.4.1-.7.2-.9s.3-.4.6-.6c.2-.1.5-.2.8-.3s.6-.1.9-.1c.2 0 .5-.1.7-.1s.4-.1.6-.1.3-.1.4-.2.1-.2.1-.5c0-.2 0-.3-.1-.4s-.2-.2-.3-.3-.3-.1-.4-.1c-.2 0-.3 0-.4 0-.4 0-.7.1-.9.2s-.4.4-.4.7h-1.4c0-.4.1-.7.3-1s.4-.5.6-.6c.3-.2.6-.3.9-.3.3-.1.7-.1 1-.1s.6 0 .9.1.6.2.8.3.4.3.6.6c.1.2.2.5.2.8v3.1zm-1.4-1.7c-.2.1-.5.2-.8.2s-.6.1-.9.1c-.1 0-.3.1-.4.1s-.3.1-.4.2-.2.2-.2.3c-.1.1-.1.3-.1.5s0 .3.1.4.2.2.3.2c.1.1.3.1.4.1h.4c.2 0 .3 0 .5-.1s.3-.1.5-.2.3-.2.4-.4c.1-.1.2-.3.2-.5z" />
  <path d="m48.6 24.8h1v-1.9h1.4v1.9h1.2v1h-1.2v3.3.4c0 .1 0 .2.1.3 0 .1.1.1.2.2s.2.1.4.1h.3.3v.9c-.2 0-.3 0-.4 0s-.3 0-.4 0c-.4 0-.7 0-.9-.1s-.4-.2-.5-.3-.2-.3-.3-.5-.1-.4-.1-.7v-3.7h-1v-.9z" />
  <path d="m56.1 31.2c-.5 0-.9-.1-1.3-.2-.4-.2-.7-.4-1-.7s-.5-.6-.6-1-.2-.8-.2-1.3.1-.9.2-1.3.3-.7.6-1 .6-.5 1-.7.8-.2 1.3-.2.9.1 1.3.2c.4.2.7.4 1 .7s.5.6.6 1 .2.8.2 1.3-.1.9-.2 1.3-.3.7-.6 1-.6.5-1 .7c-.4.1-.8.2-1.3.2zm0-1.1c.3 0 .6-.1.8-.2s.4-.3.6-.5c.1-.2.2-.4.3-.7s.1-.5.1-.8 0-.5-.1-.8-.2-.5-.3-.7-.3-.4-.6-.5-.5-.2-.8-.2-.6.1-.8.2-.4.3-.6.5c-.1.2-.3.4-.3.7-.1.3-.1.5-.1.8s0 .5.1.8.2.5.3.7.3.4.6.5.5.2.8.2z" />
  <path d="m60.4 24.8h1.3v1.2c0-.2.1-.3.2-.5s.3-.3.4-.4c.2-.1.3-.2.5-.3s.4-.1.6-.1h.3.2v1.3c-.1 0-.2 0-.3 0s-.2 0-.3 0c-.2 0-.5 0-.7.1s-.4.2-.5.4c-.2.2-.3.4-.4.7s-.1.6-.1.9v3h-1.4v-6.3z" />
  <path d="m65.6 29c0 .4.2.7.5.8.3.2.6.2.9.2h.4c.2 0 .3-.1.5-.1.1-.1.3-.1.4-.2s.1-.2.1-.4-.1-.3-.2-.4-.3-.2-.5-.3-.4-.1-.6-.2c-.2 0-.5-.1-.7-.2-.3-.1-.5-.1-.7-.2s-.4-.2-.6-.3-.3-.3-.4-.5-.2-.5-.2-.8.1-.6.2-.8c.2-.2.4-.4.6-.6.3-.1.5-.2.8-.3s.6-.1.9-.1.6 0 .9.1.6.2.8.3c.2.2.4.4.6.6s.3.5.3.9h-1.4c-.1-.3-.2-.5-.5-.7-.2-.1-.5-.2-.8-.2-.1 0-.2 0-.3 0s-.3 0-.4.1c-.1 0-.2.1-.3.2s-.1.2-.1.3c0 .2.1.3.2.4s.3.2.5.3.4.1.6.2c.2 0 .5.1.7.2s.5.1.7.2.5.2.6.3.3.3.5.5c.1.2.2.5.2.8 0 .4-.1.7-.3.9s-.4.5-.7.6-.5.4-.8.5-.7.1-1 .1c-.4 0-.8 0-1.1-.1s-.6-.2-.9-.4c-.2-.2-.4-.4-.6-.7-.1-.3-.2-.6-.2-1z" />
</svg>