<svg id="Layer_1" data-name="Layer 1" xmlns="http://www.w3.org/2000/svg" xmlns:xlink="http://www.w3.org/1999/xlink" width="411.28" height="209" viewBox="0 0 411.28 209"><defs><style>.cls-1{opacity:0.2;}.cls-2{fill:none;stroke:#33b1da;stroke-miterlimit:10;stroke-width:2px;}.cls-3{fill:url(#Gradient-Green);}</style><linearGradient id="Gradient-Green" x1="923.63" y1="29.13" x2="1043.79" y2="149.29" gradientUnits="userSpaceOnUse"><stop offset="0.13" stop-color="#b4e95e"/><stop offset="0.55" stop-color="#62c87a"/></linearGradient></defs><title>leadership-header</title><g class="cls-1"><path class="cls-2" d="M843.1,150.84,816.61,105,843.1,59.09h53L922.55,105l-26.48,45.88Zm45.23-13.4L907.08,105,888.33,72.49h-37.5L832.08,105l18.75,32.48ZM880.6,85.88h-22l-11,19.08,11,19.09h22l11-19.09Z" transform="translate(-749.27)"/><path class="cls-2" d="M933.77,96.83,907.29,51,933.77,5.09h53L1013.23,51,986.74,96.83ZM979,83.44,997.76,51,979,18.48h-37.5L922.76,51l18.75,32.48Zm-7.74-51.56h-22L938.23,51l11,19.08h22l11-19.08Z" transform="translate(-749.27)"/><path class="cls-2" d="M1062.81,138.36l-26.49-45.87,26.49-45.87h53l26.48,45.87-26.48,45.87ZM1108,125l18.75-32.48L1108,60h-37.5l-18.75,32.47L1070.54,125Zm-7.73-51.56h-22l-11,19.08,11,19.08h22l11-19.08Z" transform="translate(-749.27)"/><path class="cls-2" d="M776.91,136,750.43,90.16l26.48-45.87h53l26.48,45.87L829.88,136Zm45.23-13.4,18.75-32.48L822.14,57.69h-37.5L765.89,90.16l18.75,32.48Zm-7.73-51.56h-22l-11,19.08,11,19.08h22l11-19.08Z" transform="translate(-749.27)"/><path class="cls-2" d="M824,59.5,807.12,30.25,824,1h33.77l16.89,29.25L857.78,59.5ZM852.85,51l12-20.71-12-20.71H828.94L817,30.25l12,20.71Zm-4.93-32.88h-14l-7,12.17,7,12.17h14l7-12.17Z" transform="translate(-749.27)"/><path class="cls-2" d="M1108.73,182.3l-16.88-29.25,16.88-29.25h33.78l16.89,29.25-16.89,29.25Zm28.85-8.54,12-20.71-12-20.71h-23.92l-12,20.71,12,20.71Zm-4.93-32.88H1118.6l-7,12.17,7,12.17h14.05l7-12.17Z" transform="translate(-749.27)"/><path class="cls-2" d="M1011.87,208l-8.15-14.12,8.15-14.12h16.3l8.15,14.12L1028.17,208Zm13.92-4.12,5.77-10-5.77-10h-11.54l-5.77,10,5.77,10ZM1023.41,188h-6.78l-3.39,5.87,3.39,5.87h6.78l3.39-5.87Z" transform="translate(-749.27)"/><path class="cls-2" d="M1011.87,175.54l-8.15-14.12,8.15-14.12h16.3l8.15,14.12-8.15,14.12Zm13.92-4.12,5.77-10-5.77-10h-11.54l-5.77,10,5.77,10Zm-2.38-15.87h-6.78l-3.39,5.87,3.39,5.87h6.78l3.39-5.87Z" transform="translate(-749.27)"/><path class="cls-2" d="M889.42,70.49l-8.79-15.22L889.42,40H907l8.8,15.23L907,70.49Zm15-4.44,6.22-10.78-6.22-10.79H892l-6.23,10.79L892,66.05Zm-2.57-17.12h-7.31l-3.66,6.34,3.66,6.33h7.31l3.66-6.33Z" transform="translate(-749.27)"/><path class="cls-2" d="M867.67,111l-8.8-15.23,8.8-15.23h17.58L894,95.74,885.25,111Zm15-4.45,6.23-10.78L882.68,85H870.23L864,95.74l6.22,10.78ZM880.11,89.4H872.8l-3.66,6.34,3.66,6.33h7.31l3.66-6.33Z" transform="translate(-749.27)"/><path class="cls-2" d="M790.61,151.26,781.82,136l8.79-15.23H808.2L817,136l-8.79,15.22Zm15-4.44L811.85,136l-6.22-10.79H793.18L787,136l6.23,10.78Zm-2.57-17.12h-7.31L792.09,136l3.66,6.33h7.31l3.66-6.33Z" transform="translate(-749.27)"/><path class="cls-2" d="M910.76,170.69,902,155.46l8.79-15.23h17.59l8.79,15.23-8.79,15.23Zm15-4.45L932,155.46l-6.22-10.78H913.33l-6.22,10.78,6.22,10.78Zm-2.57-17.12H915.9l-3.66,6.34,3.66,6.33h7.31l3.66-6.33Z" transform="translate(-749.27)"/><path class="cls-2" d="M970.83,170.69,962,155.46l8.79-15.23h17.58l8.8,15.23-8.8,15.23Zm15-4.45,6.22-10.78-6.22-10.78H973.4l-6.23,10.78,6.23,10.78Zm-2.57-17.12H976l-3.65,6.34,3.65,6.33h7.32l3.66-6.33Z" transform="translate(-749.27)"/><path class="cls-2" d="M989.67,137l-8.79-15.23,8.79-15.23h17.58l8.8,15.23-8.8,15.23Zm15-4.45,6.22-10.78L1004.69,111H992.24L986,121.75l6.23,10.78Zm-2.57-17.12h-7.31l-3.66,6.34,3.66,6.33h7.31l3.66-6.33Z" transform="translate(-749.27)"/></g><path class="cls-3" d="M1033.78,125.7V137h-11.33l-28.76-28.76L1005,96.93Zm-111.07-73V41.47H911.28L869.21,83.55V94.87L911.29,137h11.42V125.73L886.19,89.21ZM1081.22,89.2l-36.52,36.52V137h11.43l42.08-42.08V83.54l-42.07-42.07H1044.7V52.68ZM949.51,41.47H938.08V52.68l28.78,28.79,11.33-11.33Zm84.27,11.21V41.47h-11.43l-84.27,84.25V137H949.5Z" transform="translate(-749.27)"/></svg>