<svg height="642.23" viewBox="0 0 1125.28 642.23" width="1125.28" xmlns="http://www.w3.org/2000/svg" xmlns:xlink="http://www.w3.org/1999/xlink"><linearGradient id="a" gradientTransform="matrix(.99987663 -.01570732 .01570732 .99987663 50.85 21.01)" gradientUnits="userSpaceOnUse" x1="181.68" x2="946.38" y1="-119.61" y2="645.09"><stop offset=".45" stop-color="#43809e"/><stop offset="1" stop-color="#b4e95e"/></linearGradient><path d="m569 188.92 2.22-.22c-.62-1.17-1.77-2.41-1.67-3.48.08-.85 1.69-1.49 2.61-2.24s1.8-1.5 2.29-1.91l-6.56-15.45c-2.8 2.37-5.19 4.66-7.8 6.51-2.34 1.66-6.24.59-7.71-2-.43-.76.12-2.27.23-3.68l-1.76.29c-.36-4.61-.77-9.19-1-13.77a3.42 3.42 0 0 1 .85-2.38c2.32-2 4.77-3.74 7.16-5.61 1.1-.86 2.17-1.78 3.79-3.11 3.78 1.23 4.1-5.58 8.09-6.29l-1.74-1.12c3.7-1.09 4.54-3.19 4.74-7.19.77-.49 1.49-.69 1.83-1.23.71-1.12 1.15-2.49 1.85-3.63 1.23-2 3.58-2.93 3.68-6.09 0-.76 1.61-1.47 2.5-2.15a8.51 8.51 0 0 0 2.13-2l-10.55 3.5-.22-.54 7.21-3.22-3-.9 5.41-4c-.16 1-.29 1.78-.44 2.69 1.9.15 4.16 3 5.14-1.6l-1.84.43-.5-.86 7.45-6.35 1.71 2.68 19.06-9.59.19.67-2.85 5.39.66.64 4.24-6 .07 4.65c1.21-2.19 1.72-4.21 2.79-4.82 1.43-.8 2.86 0 2.2 2.64 2.15-1.9 5.06-1.18 8.59 2.24l-4.12 1.85v1l10.24.4v.81l-1.5.71c4.59 1.23 9.32 2 13.73 3.84 4 1.65 7.7 4.33 11.42 6.8 3.26 2.15 3.59 5.53.59 7.88-2 1.54-4.57 3.08-6.76 2.83a53.73 53.73 0 0 1 -18.82-5.23 46.74 46.74 0 0 0 4.93 4.37c1.72 1.16 3 2 2 4.79-.68 1.93 1.6 5.69 3.29 6.47 1.34.63 2.51 1.79 3.87 2.29 1 .37 2.17 0 3.26 0l.31-.94-4.87-3.79c.88-2.59 1.92-2.83 3.79-1.79 2.5 1.39 5.11 3.72 8.07 1.07-2.48-4.08-2.44-5.07 1.56-6.73 2.1-.87 3.3-4.41 6.18-2.91 1.11.58 2.28 1 3.64 1.52.62-2 2.67-4.12-.43-6.22-.27-.18-.21-1.53 0-2.18.89-2.53 1.62-4.94-1.62-6.4 8 .45 8 .45 10.1 4l-5.71 2.78c2.63 2.26 4.33 5.19 7.44 3.39.56-.32 1.39-.85 1.45-1.38.26-2.35 1.51-3.15 3.2-3.92 2.9-1.32 5.65-3.09 8.53-4.47.88-.43 2-.2 2.64-.76l5.52-3.62c-.44 2.26-.72 3.73-1.15 6 1.65-.76 3.07-1.42 4.49-2.06.64-.29 1.32-.82 1.94-.74 3.06.37 5.76-.72 8.44-2.27 1.49-.87 2.47-.42 2.26 2 0 .4 1.36 1.47 1.49 1.34a49.15 49.15 0 0 0 3.3-3.69c-1.29-2.79-2.8-5.3-5.86-5.91-.5-.1-.79-1.75-1.19-2.69.86 0 2-.48 2.52 0 2.77 2.76 6 3.36 9.44 3.6 6 .42 11.09 3.89 16.2 7.14 2.21 1.41 3.57 1.88 4.23-1.24-1-1.25-1.9-2.41-2.82-3.56-.26-.32-.53-.91-.79-.9-4.2.16-2.76-2.74-2.23-5.36.22-1.05 1.34-2.89-.9-3.13.3-1.21.33-3.18 1-3.5 2.82-1.46 4.34-3.87 5-7.3.53-2.86 1.7-4.45 4.52-3.76a38 38 0 0 0 5.85.5c2 .18 2.54 1.61 1.93 3.63s-1.45 4-2.25 6.12c2.51 1.59 2.71 4.16 2 7.54a18.14 18.14 0 0 0 .16 7.26c.3 1.44 1.74 2.56 3 4.21-2.21 5.06-4.3 10.79-10.08 12.33.67.94 5.37 1.68 6.35.57 2.13-2.39 4.15-4.93 6.36-7.22a3.13 3.13 0 0 0 .54-4.24c-1.14-2-.47-3.19 1.33-3.91 4.83-1.93 6.85-.39 7.12 5.54a2.46 2.46 0 0 0 .41 1.19c.28-2.26 2.79-4.72.4-6.62-1.83-1.46-4.34-1.93-6.61-2.29-1.54-.24-3.18.47-4.66.74-1.1-3.35-1.57-6.12.39-8.85.33-.47-.4-2.24-.89-3.22a33.82 33.82 0 0 0 -2.56-3.76c1.15-1 2.22-2.4 3.54-3 2.62-1.21 3.59-2.83 1.42-6.31 3 .1 3.21 2.22 3.14 4.16a48.41 48.41 0 0 1 -1 6.18l9.26 1.76.21-.56a33.34 33.34 0 0 1 -3.75-1.57 44.11 44.11 0 0 1 -3.75-2.6l.42-1.56 6 .57.08-.58-3.64-2.26c1.24-2.14 2.57-3.09 4.57-1.09.44.45 1.31.26 1.94.52 1.93.79 4 1.27 5.68 2.6 1.89 1.55 3.63 2.24 5.79 1.34 3 1 .94 2 .07 3.06a18.31 18.31 0 0 0 -1.25 2.11c.54.16 1.23.13 1.59.52a3.11 3.11 0 0 1 .76 1.94 22.42 22.42 0 0 1 -.75 3.61l2.42-2.33c-.32-2.36-1.1-4.44-.72-6.14.66-2.94 0-3.47-2.18-2.71-1.37-1.26-2.61-3.18-4.15-3.65-3.39-1-1.53-4.87-3.08-6.73 1.11-.84 2.16-2.22 3.36-2.42 4.86-.83 9.76-1.3 14.65-1.88 1-.12 2.36-1 2.09 1.46l1.75-.64-4.2-4.33 1.21-1-1.92-1.1c0-.16 0-.39.14-.48 4.41-4.24 9.89-5.24 15.15-6.89 1.9-.6 4.75-.06 5.65-1.44 2.61-4 6.65-1.13 9.43-3.52.43-.37 1.29-.07 2.46-.09l-1.77 2.64 11.08-2.61-2.25-1 .45-.67 5.87-.44c1.07-7.79 8.26-11 16.21-7.11l-3.57 2.43 7.91.88-1.85 2.66 17.47-.27c.36 1.27.68 2.44 1 3.61 1.29-.54 3.51 1.31 3.24 2.78-.45 2.4-.84 4.78-3.14 6.16-4.68 2.8-9.17 6.05-13.78 9-1.77 1.13-3.71 1.91-5.5 3a26.8 26.8 0 0 0 -3 2.57l14.79-4.62-2.21-1.73c2-1.92 3.71-1.29 5.66-.49 1.54.63 3.28.53 4.92.75l.43-1 .92 3.1c5.31-3 10.93-1.27 16.68-1-2.08 3.23.52 3.06 1.56 3.27a54.87 54.87 0 0 0 7.57.78c1.34.09 2.93.41 4-.29.86-.58 1-2.5 1.89-4.79 2.4-2.49 5.35 1.38 8.46 1.33.47 0 1 .3 1.39.13 3.35-1.44 7 1.34 7.26 5.54 0 .2-.18.43-.14.61.24 1 .52 2.09.78 3.13l-3-.63-.24.39 3.3 2.49c0 .14-.46 1.12-.3 1.27a61 61 0 0 0 5.75 5c.31.22 1.57-.72 1.95-1.45 1-1.86 1.7-3.9 2.72-6.34 2.63 4.24 5.56 3.67 9.25 2.61s7.58 0 11.39.17h2.07l-1.49-5c-.62-3.76 4.65.43 4.54-4.3 4.79.66 10 .39 14.65 2.31s9.9-1.11 14.16 3.79l-3 1.18c2.26.87 4.09 1.56 5.92 2.28.74.29 1.8.39 2.15 1 2.13 3.74 4.92 2 7.68 1.79 4.59-.37 9.27-.82 13.8-.16 4.07.6 4.61 2.34 3.95 7.1 2.65 1.86 5.26 1.85 8.38 1.2 3.58-.75 7.42.32 11.15.33 1.49 0 3.44-.14 4.36-1.21 1.83-2.13 3.48-2.06 5.77 0l-3.81 1.33c1.67 2.11 3.64 4.07 6.19 4.34 2.31.25 3.13-1.79 1.52-3.73-1.48-1.78-.73-3-.31-4.1 5.67.22 11.22-.43 16.42.89 5.79 1.47 11.3 4.62 16.86 7.26 2.71 1.29 5.21 3.23 7.9 4.61s4.43 3.12 4.74 6.67a3.29 3.29 0 0 0 1.77 2.37l-.06-4c5-.6 9.47 2.06 13.78 6.41l-6.89 4.13-.33-.68q-.86 2.85-1.73 5.7c-1.24 1.74-3 1.54-4.85-.12-.82-.73-2-.8-3-1.36-.74-.44-1.81-1-2-1.77-.59-3-2.61-3-4.17-2.49-3.31 1.16-5-.21-5.65-4.12l-2.21 1c0 .45-.17.78-.09.89 1.84 2.4 1.14 4.25-1 5.39s-4.69 2-6.7 2.88l6.31 10.17c-.09.44-.17.89-.26 1.33-1.24.2-2.55.8-3.7.52a9.06 9.06 0 0 0 -6.54.7 82 82 0 0 0 -16.26 10.44c-.93.76-1.83 1.57-2.51 2.15-1.76-.64-4-2.16-6.1-2s-4.17 2-6.35 3.19v-2.47c-2.43 1.07-4.32 3.65-7.09 2.5a.8.8 0 0 0 -.81.3c-1.72 3.42-3.4 6.88-5.28 10.7l4.57.41c-1.76 2.58-2.31 4.66-.3 6.77.14.15-.73 2.4-1.14 2.4-2.78 0-4.11 2-2.81 5 .94 2.2 0 2.88-1.37 3.13-4.52.83-4.82 1.14-4.64 6.36-2.58.34-4.08 1.75-4.85 5.14-.54 2.36-2.83 4.15-4.82 6.85-.82-3.69-1.6-6.31-2-9-.82-5.93-3.35-11.7-1.59-17.89.41-1.46 1.57-2.63 2-4.09 1.19-4.4 5-4.9 7.43-7.36 3.13-3.13 5.94-6.7 9-10 1.12-1.22 2.59-2 3.71-3.22a13.56 13.56 0 0 0 2.49-3.85 63.84 63.84 0 0 0 1.88-6.23c-3.17-.78-4.4.67-4 4.53-2.12 1.56-4 3-5.9 4.31-1 .67-2.71 1.85-3 1.49-1-1.13-1.83-2.84-.38-4.53.18-.21.17-.66.3-1.24-3.75.58-7.77-1.35-10.91 2.37-2.65 3.13-5.2 6.36-8 9.75l3.35 1.52v.82l-12.21 2.12-.21-1 1.87-1.09c-2.07-2.26-6.62-2.65-8.77-.83a2.91 2.91 0 0 1 -1.82.58c-4.61 0-9.22.11-13.82-.13s-6.89 3.89-9.92 6.64c-1.35 1.23-2.37 2.94-3.65 4.29-4.21 4.44-8.47 8.81-13.13 13.64l4.88.92.06 4.14 2.19-3.65c.22 1.8.36 2.91.56 4.49a18.68 18.68 0 0 0 2.49-2.13c1.69-2 3.89-2.17 5.54-.15a12.07 12.07 0 0 0 .74 1.08c1.38 1.35 3.3 2 2.59 5.16-.42 1.89.6 4-1 6a6.85 6.85 0 0 0 -1.22 4.54c.75 6.24-1.54 10.89-4.73 15.41-3.69 5.23-7.1 10.76-10.65 16.13-2.47 3.73-5.91 4.72-10.2 3.15a2.12 2.12 0 0 0 -1.76.56 38.91 38.91 0 0 0 -3.52 3.4c-.71.77-1.87 1.76-1.82 2.58.25 4.44-2.65 5.51-5.06 7.05s-2.45 2.53-.39 4.74a17.87 17.87 0 0 1 5 12.81 4 4 0 0 1 -1.33 2.9c-2.84 1.46-5.82 2.56-8.87 3.83-.38-3.93 2.66-7.22-.45-10.5l2.68-2.37-7-3.05 1.8-5.35c-5.15-4.73-8.72.32-13.13 2.19 1-2.11 2-4.19 2.85-6.37.16-.38-.3-1.59-.58-1.65-.9-.17-2.13-.4-2.74.15-2 1.87-3.81 4.13-5.79 6.09-.63.61-1.64.64-2.42 1.06s-1.53 1-2.29 1.56c.63.75 1.23 2.07 1.91 2.13 2.15.21 3 1.38 2.58 4.1.86 0 1.91.27 2.1-.08 2.18-4.13 5.07-1.2 7.65-1.09.41 0 .81.75 1.21 1.16-.43.43-.81 1.11-1.3 1.25-3.11.88-7 4.58-8.68 8.39 4.46 4.1 6.46 9.9 8.46 15.73l-2.89 2.11c3.8 2.73 3.88 6.31.33 9.64-1.84 1.73-4.3 8.1-4 9.69-5.56 5.62-10.46 12.49-18.45 12.48a42.5 42.5 0 0 1 -4.3 2.74c-1.34.66-3 .58-4.16 1.47s-1.62 2.5-2.79 4.47l-1.8-4.75c-5-2.48-7.78 2.45-10.75 6.33a4.21 4.21 0 0 0 .18 5.62c2.39 2.69 4.69 5.5 6.91 8.4 3.44 4.5 4.29 9.87 3.18 15.63a4.65 4.65 0 0 1 -2 2.79c-4 2.22-7 5.94-10.34 9.13-.21.2-.53.23-1.06.44a10.65 10.65 0 0 1 -.17-2.37c.47-2.71 0-4.23-2.7-4.59-1-.13-2.3-1.62-2.78-2.86-1.27-3.31-3.34-4.83-6.48-5.16a6.57 6.57 0 0 0 -.36-1c-.36-.65-.78-1.25-1.18-1.87-.46.58-1.15 1.06-1.34 1.75-.81 3-1.54 6-2.18 9-.4 1.91-1.31 3.85 1.37 5.08 1 .47 1.21 3.22 2 4.74.71 1.3 1.61 2.86 2.73 3.38 3.39 1.57 6.58 7 7 11.28.29 2.85 1.62 5.56 2.58 8.66-.55.16-1.43.79-1.9.49-4.25-2.69-8.56-5.37-9.68-11.72-.78-4.37-2.08-8.46-5-11.54-.48-.51-1.26-.64-2.67-1.3 2.51-11.14.36-22.29-3.67-32.5-2.21 1.42-4.31 3.27-6.67 4.1-1.75.61-2.72-.71-2.19-3.38a18.86 18.86 0 0 0 -.32-6.37c-.12-.7-1.15-1.2-2.06-2.07v-2.59a10.83 10.83 0 0 1 -5.6-8.44c-.35-2.77-1.48-2-2.94-1.42a52 52 0 0 1 -8.2 2.61c-2.07.41-4.21-.05-4 3.74 0 .88-.93 2-1.65 2.7-3.05 3-6.13 6-9.3 8.8-2.88 2.56-4.84 6.59-8.79 7.61-.53.13-.89 2.35-1 3.63-.28 5.1-.11 10.27-.74 15.3-.25 1.95-2.13 3.62-3.31 5.38-.57.85-1.31 1.53-1.84 2.41-1.09 1.81-2.28 2.13-3.67.52a6.32 6.32 0 0 1 -1.32-1.89c-2.06-5.52-4-11.08-6.07-16.6-.83-2.23-1.82-4.38-2.62-6.62-2.3-6.46-4.1-13-3.58-20.22.13-1.82-.74-3.74-1.37-5.72-.12 3.38-2 5.7-4.22 5.14s-4.49-3.09-7.3-5.19l4.66-1.8c-4.46-.34-7.07-3.6-9.52-7.22-1.37-2-2.68-3.55-5.44-3.09a56.08 56.08 0 0 1 -21.9-.3c-2.18-.5-3.89-.91-4.4-4-.35-2.17-1.22-3.21-3-.78-1.63 2.17-7.1.82-10.18-1.53a21.18 21.18 0 0 1 -7.31-8.86c-1.64-3.86-4.28-3.55-8 .84 1.93 3 4 6 5.9 9.11a15.27 15.27 0 0 1 1.43 3.18c.38 1.1.58 2.28 1 4.13l1.94-4h1c.14 1.55.61 3.17.35 4.62-.55 3.1.84 3.43 2.75 3.14 6.32-1 6.47-1.14 12.24-9 0 1.73-.28 3.11.13 4 .86 1.94 1.92 5 3.21 5.21 3.48.7 5.45 3.3 7.76 6.27-1.78 2.48-2.3 6.06-5.44 7.59-.84.41-.9 3-1.18 4.11-2.69 2.78-5 5.64-7.76 7.87-1.5 1.21-3.64 1.32-5.47 2-1.66.59-3.62.76-3.72 3.66 0 .39-.62.89-1 1.09q-5.76 2.82-11.55 5.55c-3.07 1.44-6.23 2.62-9.19 4.3-3.44 1.94-5.19 1.22-6-3.19-.58-3.09-1-6.23-1.47-9.34a2.26 2.26 0 0 0 -.29-1c-3.45-4.37-4.58-10.7-9.13-14.27-1.43-1.12-2.29-4-2.57-6.28a13.07 13.07 0 0 0 -4.1-8.45c-1.58-1.52-2.39-4.14-3.6-6.23-1.84-3.19-3.09-7-6.26-9.16.08-.62.2-1.5.33-2.38l-.26-.07c-.39 1.34-.79 2.69-1.35 4.6l-4-3.82c2.84 6.19 5.3 11.51 7.7 16.86.34.75.3 1.72.61 2.49.51 1.29.92 2.89 1.81 3.66a10.6 10.6 0 0 1 3.53 8.34c0 3.57.7 6.36 3.47 8.6 1.42 1.15 2.45 3.78 2.74 5.9.43 3.2 2.2 4.53 4.07 6.19a116.74 116.74 0 0 1 8.59 8.37c.56.6.23 2.34.31 3.55l-.74.12a2.22 2.22 0 0 1 .37.38c3.64 6.17 8.16 3 12.51 1.73 1.23-.34 2.5-.52 3.73-.85 2.89-.78 5.76-1.6 8.72-2.43.83 6.32-1.67 11.37-4.24 16.27q-4.41 8.4-9.3 16.44c-1 1.62-2.81 2.5-4.09 3.93-3.56 4-7 8-10.54 12.1a20.28 20.28 0 0 1 -1.71 2.35c-3.87 3.3-5 8.57-6.9 13.28-.25.61-.56 1.72-.34 1.95 3.23 3.4.68 8.51 2.69 12.24.21.38.14 1.11.4 1.29 3.66 2.65 2 7.05 2.56 10.68.36 2.14.47 4.34.78 6.5.46 3.23-2.7 8.62-6.31 9.92-5.12 1.84-7.55 7.57-11.67 10.81-.37.29-.26 2.06.08 2.86a24.15 24.15 0 0 1 2 12.36 6.13 6.13 0 0 1 -2.19 3.36c-1 .85-2.38 1.08-3.53 1.73-1.7.94-2.75 1.7-2.34 4.84.45 3.54 0 7.72-3.15 10.3a8.64 8.64 0 0 0 -2.13 3.28 38.25 38.25 0 0 1 -10.67 13.83c-4.15 3.58-9.1 3.61-14 3.87-2.84.15-5.66 1.31-8.44 2.24-1.41.47-5.52-1.09-6.12-2.68-.51-1.35-1-2.72-1.56-4.37 1.73-1.72 1.27-3.72 0-6s-2-4.57-3-6.84c-.64-1.44-1.12-3.2-2.12-4.16-3.56-3.42-4.56-8.13-5-13a56 56 0 0 0 -8.79-25.35c-2-3.19-1.27-6.6-1.07-9.8s.68-7.28 2.38-9.54c3.73-4.93 4.29-9.52 1.26-14.93 1.13-4.57-1.61-7.94-2.51-11.89-1.17-5.18-4.25-8.26-7.08-11.78a17.79 17.79 0 0 1 -2.52-3.41c-.86-1.84-1.86-3.31-.65-6.13 1.44-3.36 1.53-7.64 1.86-11.56.25-3-3-6.09-5.56-5.77a15.54 15.54 0 0 0 -2.62.42c-2.9.92-5 .78-6.18-3.45-.71-2.65-2.83-3.77-5.5-3.72-5.62.11-10.31 3.5-15.43 5.35a5.7 5.7 0 0 1 -3.33.28c-4.18-1.18-8.4-1.32-12.15 1s-6.36.51-9.21-1.76c-3.16-2.54-6.4-5-9.49-7.61-1-.84-2.25-2.24-2.28-3.4-.08-4.58-3.38-6.25-5.39-9-1.26-1.73-3.19-2.77-4.52-4.45a11 11 0 0 1 -1.62-4.12c-.47-1.93-.68-3.94-1.1-6.49.82-2.94 2.06-6.76 2.89-10.7a10.8 10.8 0 0 0 -.58-4.75c-.76-2.76.38-6.36-2.58-8.24-.2-.13 0-1.61.29-2.33 1.09-2.81 1.85-6 3.56-8.21s2.16-5.26 3.58-7.28c2.39-3.4 3.52-8.11 7.9-9.81 2.54-1 4.43-4.33 6.56-6.68a2.25 2.25 0 0 0 .43-1.59c-1.2-7 1.71-10.91 6.6-14.08 1.81-1.17 2.94-4.09 4-6.43 1-2 1.41-3.82 3.4-1a4.29 4.29 0 0 0 2.89 1.24 33 33 0 0 0 5.45.18 4.71 4.71 0 0 0 2.77-.76c5-4.27 10.8-5.91 16.74-6.67 4.24-.53 8.56-.19 12.85-.34a5.68 5.68 0 0 0 2.56-.77c1.65-.94 3.18-2 4.65.47.21.34 1.34-.07 2.44-.17-.69 1.32-1.27 2.41-2 3.71 2.71 2.4 2.22 4.71-.17 7a3.05 3.05 0 0 0 -.57 2c0 .26.95.41 1.41.72 1.16.78 2.2 2 3.44 2.36 3.14 1 6.37 1.74 9.57 2.59.47.13 1.27.32 1.31.6.7 4.64 4.05 3.95 6.66 4.9 1.48.54 2.78 1.77 4.25 2.37a3 3 0 0 0 2.68-.13c.75-.65 1.65-2.34 1.4-3.06-1-2.94.09-4.51 2.06-5.64 2.47-1.42 5-2.13 7.42.3a4.49 4.49 0 0 0 1.57 1.26c5.51 1.69 11 3.36 16.58 4.88a3.44 3.44 0 0 0 2.4-.78 7.78 7.78 0 0 1 8.26-.73c4 1.77 6.52.25 7.56-4.27a35.23 35.23 0 0 1 1.33-4.63c1.15-3 2.47-5.91 1.58-9.52-.3-1.23.34-2.78.63-4.7a62.29 62.29 0 0 1 -7.87 3.11c-1.31.33-2.89-.42-4.28-1a36 36 0 0 1 -4-2c-1.94 3.74-2.63 3.85-5.79 1.42-.47-.36-1.23-.74-1.66-.53-1.94.92-3-1-3.38-2.18-.94-2.71-2.31-4.32-5.58-4.4 1.85-1.22 4.46-.1 3.56-3.34l-2.16.36c-1.07-2.7 2.51-5.86-1-7.73-2.29-1.21-5.06.3-6.8 3.54l-2.69-1.78-.65.56c1.26 2.16 2.48 4.34 3.8 6.45.63 1 1.42 1.88 2.14 2.82l-3.27 1.73c-.19 1.35-.45 3.23-.71 5.12l-1.43-.44c-2.52-.72-3.9-3.17-3.92-6.3 0-.81-1-1.61-2-3.25l.05 3.47-.74-.11c.2-1.22.41-2.45.64-3.84a10.28 10.28 0 0 1 -4-10.49 2.58 2.58 0 0 0 -.75-1.88 29.08 29.08 0 0 0 -4.7-3.54c-3.68-2-7.31-4-9.38-8.48a1.53 1.53 0 0 0 -1.18-.86c-2.41.33-2.7-1.42-2.51-4l-3.6 1.57c-.92 4 .42 6.57 3.5 8.12a3 3 0 0 1 1 1.69c1.14 4 3.46 5.83 6.34 5.55a18.59 18.59 0 0 0 2.41 2.84c1.34 1 2.9 1.53 4.2 2.57a12.2 12.2 0 0 1 2 2.79l-.58.63a25.9 25.9 0 0 0 -3.15-2 1.55 1.55 0 0 0 -1.62.51 3.87 3.87 0 0 0 -.2 2.39c.23 1 1.35 2.38 1.12 2.74-1.11 1.73-2.34 4-3.91 4.5-1.72.6-2 1.3-1.79 3 .3 2.42-.57 2.95-2.3 2-1.5-.86-3-1.77-4.42-2.74a17.24 17.24 0 0 1 -1.84-1.7 11 11 0 0 1 2.74-1.16c1.8-.24 3.7.14 5.43-.38 1.13-.33 2.83-1.76 2.84-2.74a7.1 7.1 0 0 0 -1.84-4.76c-4-3.51-8.45-6.48-12.53-10a15.09 15.09 0 0 1 -3.65-5.21c-1.56-3.46-3.93-3.85-6.82-2.07s-5.63 6.2-10 3.09c-1.08-.75-3.1.2-4.62.65a2.42 2.42 0 0 0 -.9 1.95c1.83 5.35-2 5.84-4.47 7-2.94 1.39-4.15 4.41-5.63 7.15-.37.68.56 2.35 1 3.83-1.9 2.23-3.89 4.82-6.13 7.07a5.53 5.53 0 0 1 -3.43 1.21c-2.64.21-5.31-.08-7.4 2.55-.28.35-2.16-.2-2.36-.78-1.14-3.35-3-4-5.67-2.85a3.5 3.5 0 0 1 -2-.09c-.95-2.53-1.86-4.63-2.51-6.84a4.69 4.69 0 0 1 .21-2.94c2.58-5.33 1.62-10.62 0-16.06 3.64-4.42 8.27-2.18 12.56-2.18 3.12 0 6.24.48 9.36.46a2.78 2.78 0 0 0 2-1.84 37.6 37.6 0 0 0 .83-8.24c-.17-4.05-4.14-8.47-7.76-9.61a18.42 18.42 0 0 1 -3.79-2.31l.27-1.48a22.34 22.34 0 0 1 4.73-1.1c1.59 0 3.2.53 5.34.94l-1.28-5.46c.91.41 1.53.67 2.14 1 1.51.73 3 1.88 4.26-.59.4-.75 1.54-.91 2.28-1.45s1.75-1.13 1.72-1.62c-.24-3.31 1.91-3.57 3.67-4.43 2.87-1.4 4.65-4 6-7.26a7 7 0 0 1 3.49-3.57c2.27-.88 4.81-.81 7.16-1.49.88-.26 2.27-1.62 2.2-2.27a23 23 0 0 0 -1.8-7.09c-1.54-3.14-.4-7.53 2.47-8.71 1.47-.6 2.75-1.84 4.67-3.18-.34 2.05-.83 3.41-.7 4.69.09 1 1 1.81 1.41 2.55l-2.94 4.35c-1.93 4.68 2.76 4.71 3.78 7.33.1.27 1.29.18 1.86-.08 1.92-.89 3.79-1.93 4.94-2.53 1.58 1.49 2.69 3.36 3.62 3.25 2-.23 3.88-1.44 5.78-2.35 2.65-1.27 5.15-4.74 8.12-.41.26.38 1.7-.05 2.41-.5 1.52-1 2.91-2.2 4.59-3.51-.11-1.78-.67-4.41-.28-6.81a10.75 10.75 0 0 1 2.77-5.58c1.84-1.82 2.79.82 4 2 .52.5 1.6.91 2.05.6a4.09 4.09 0 0 0 1.19-2.41 25.29 25.29 0 0 0 .16-3.71l-.7.57c-.77-1.33-2-2.6-2.16-4-.1-.82 1.39-2.57 2.34-2.76a54.45 54.45 0 0 1 8.08-.63c1.06-.06 2.26.4 3.16 0a57.27 57.27 0 0 0 5.57-3.42c-2.3.46-4-3.38-7.07-2a41.14 41.14 0 0 1 -8.89 2.36 12.89 12.89 0 0 1 -5.32 0 17.93 17.93 0 0 1 -4.17-2.1c-.47-3.87-1-7.33-1.25-10.82-.08-1.45.23-3.44 1-4.35 3-3.38 6.2-6.41 9.34-9.56.52-.52 1.07-1 2.21-2.05.72-2.27-1.2-3.14-3.21-3.6a16.48 16.48 0 0 0 -3.84 0c-2.86 0-5.46 3.56-5.1 6.86a3.1 3.1 0 0 1 -.44 2.05 31.75 31.75 0 0 1 -4.69 4.53c-3.54 2.48-6.6 5.21-7.18 10.53-.29 2.68-1 5.16 2.17 6.33 1.26.45 2.19 2.14 3.53 3.54-1.31 1.78-2.18 4-3.59 4.66-2.89 1.44-4.13 3.65-3.88 7.18.1 1.42.6 2.82.62 4.23a3.19 3.19 0 0 1 -.93 2.36c-1.32.72-2.9.77-4.21 1.5a21 21 0 0 0 -3.33 2.85c-1.2.43-3.79 3.15-3.87-1.5a17.07 17.07 0 0 0 -1.47 2 8.18 8.18 0 0 0 -.32 1.55c-.78 3.23-1.74 3.6-3.97 1.73zm68.56 43.52 2.24-1.87c-2-.6-4.29-.5-5.43-1.84-1.6-1.89-2.41-1.08-3.14.31-1.08 2.08-3.88 2.87-3.37 6.19 0 .18-.64.43-.86.76-.7 1.06-1.4 2.14-2 3.27a24.77 24.77 0 0 1 -1.58 3.27c-2.12 2.74-1.08 7.82 2.11 8.72s6.61 1.58 9.88-1c1.68-1.31 4-1.65 6.11-2 2.78-.46 5.12 1.55 7.65 2.39a34.43 34.43 0 0 0 12.03 1.36c1.49 0 3.73-2 4.17-3.63.61-2.24-1.15-4-3-5.27-3.81-2.54-7.47-5.4-11.18-8.16a5.49 5.49 0 0 1 -.93-.93l4.39-4.52-1.34-1.94 4-2.37-.34-1-13.1 5.17c1.35 3.2 1.35 3.2 5.59 3.78-.3.54-.46 1.22-.8 1.38-2.3 1.09-4.6 2.14-7 3-.45.16-1.3-.52-1.72-1.07a45.88 45.88 0 0 1 -2.42-4zm54.03 3.56c1.28-.26 2.43-.26 2.49-.55.56-3.07 2.44-3.26 4.6-3.71.82-.16 1.51-2.39 1.89-3.81.2-.76-.33-2.58-.65-2.63-2.06-.28-4.48-1-6.18-.09-4.73 2.59-9.7 5.09-12.37 10.73.84 1.52 2.15 2.81 2.24 4.2.47 6.86 5.53 9.6 8.07 14.4-1.53.87-3.47 5.46-3.49 8.35 0 3.29 2.44 2.92 3.7 4.3 3.89 4.25 7.76 2.81 11.72 1.36a48 48 0 0 0 -.18-6.74c-.31-1.9-.84-4.7-1.95-5.3-2.39-1.28-1.2-2.77-1.11-4.27l5.48-.09c.12-.37.25-.74.37-1.12a8.93 8.93 0 0 1 -2.1-1.81c-2.08-3.28-2.75-3.25-4.67.46l-.09-5.42-.73.65zm-71.19 19.73 6.49-1.29c-3.19-2.38-4.73-2.02-6.49 1.29zm-470.9-28.62a54.33 54.33 0 0 1 -13.31-10.73l.3-1 5.55 1.39c-1.69-1.62-3.75-2.64-4.34-4.37-1-3-3.49-4.44-4.55-7.22-.15-.38-.56-.63-.87-.91-1.21-1.08-2.43-2.15-4.15-3.66l2.84-1.28-6.76-7c.18 1.38.33 2.52.48 3.68-4.29.32-4.29.32-5.56-8.53l-1.19 2.74-1-4.38 3-1.6-.82-3.88-3.54 8.23c-1.6-3-3.38-6.26-5.16-9.54a1.63 1.63 0 0 0 -.54-.47c-2.8-1.9-5.63-3.74-8.39-5.74a5.47 5.47 0 0 1 -1.2-1.78c-1.87-.36-3.54-.67-5.2-1s-3.17-1.16-4.63-.87c-3.76.76-7-.78-9.88-3.1-2.34-1.9-4.54-1.59-6.95-.89.13 1 .82 2.84.34 3.57s-2.21.66-3.25 1.24c-1.58.88-3 2.11-4.57 3.05a41.78 41.78 0 0 1 -4 1.86c1.41-4.79.19-10.47 6-10.71-1.6-1.61-1.62-1.65-4.09.15a10.86 10.86 0 0 0 -2 2c-2.14 2.64-4.23 5.32-6.43 8.11l3.11 1.92-23.44 19.22c-1.24-1.4-2.38-1.26-4.2.21-2.43 2-5.46 2.89-8.23 4.26l-.58-1.08c1-.75 1.92-1.57 2.94-2.24a49.19 49.19 0 0 0 4.72-3c1.66-1.36 3.12-3 5.07-1.63 1.1-1.29 1.94-2.8 3.13-3.54 3.56-2.22 6.6-4.75 6.93-10.06 0-.5.52-.95.85-1.52l-4.78.07-.29 1.59c-1.56-.86-2.91-1.66-4.29-2.34a1.62 1.62 0 0 0 -1.38 0c-1.07.63-2.07 1.43-3.3 2.32l-1.56-8.93c-4.37 2.81-5.91 2.52-9-1.35-.14-.17-.39-.3-.42-.49-.19-1.12-.05-2.49-.56-3.32-.6-1-1.74-1.59-2.71-2.41 1.63-3 3.1-5.68 4.63-8.35.31-.55 1.06-1.38 1.28-1.26 2.71 1.52 4.66-.93 7-1.51 4.12-1 4.49-1.55 2.06-5.83l1.6-1.76c-.73-.23-1.21-.56-1.38-.4-3.46 3.1-7.66 1.45-11.46 2.37a5.36 5.36 0 0 1 -4-.77c-.75-.52-.79-2.38-1.28-3.56a2.08 2.08 0 0 0 -1.17-.83 8.63 8.63 0 0 1 -3.42-1.95l12.77-6.53c.46 4.2 4 5.17 7.5 2.79l-3.73-4 2.71.37.05-.76c-.77 0-1.55-.12-2.32-.11-1.85 0-3.06-.81-4.52-2.48-2.18-2.51-5.23-4-7.85-5.82l1.25-3.12c1.57-.19 3-.38 4.51-.54 2.28-.25 3.72-1.65 4.72-4.1s2.65-3.65 4.91-4.94c4.29-2.46 9.31-2.47 13.1-5.67 1.88-1.58 3.07-1.17 4.64-.38.23.11.23.91.23.91 1.24.32 2.38.68 3.54.88a12.7 12.7 0 0 0 2.31 0c1.85 0 3.51-.89 5.27 1.66 1 1.42 4.2.67 6.41.9 1.54.16 3.09.26 4.62.52 5.21.88 10.35 2.87 15.71 1.53a4.36 4.36 0 0 1 2 .21c3.71 1 7.42 2 11.11 3 .49.14.89.7 1.38.93a54.06 54.06 0 0 0 6.87 3c.73.22 1.78-.92 2.65-1.5 1.61-1.08 3.2-2.21 4.92-3.4 1.18 2 2.24 1.91 4.09.75 3.13-2 6.66-3.07 10-4.54l.45 1.05-1.18 1.61c1.42-.11 3 .3 3.92-.43s1.51-2.64 2.49-4.55l7.14 8.31 3-6.69 1.47 6c.55-.16 1.8-.08 2.25-.75 2.62-3.87 5.48-2 8.43-.86 4.88 2 9.56 5 15 3.84 2-.42 4.42 1.3 5.87 3.77l-3.71 2.23.27 1.49c3.64-.06 7.36.39 10.91-.32 3.27-.66 6.22-.92 9.1 1.26.39.29.89.36.5.21l8.32-6.4-8.31 2.79-.54-1.55a13.91 13.91 0 0 1 2.32-1.74c1.28-.59 2.68-.8 4-1.39 1.87-.87 3.06-.62 4.06 1.79.53 1.27 2.09 2.88 3.08 2.79 4-.35 7.42 3.65 11.67 1.69 1.66-.77 3.85.05 6 .15l.55-3.51 3.24-1.54-6.06-2.39a39.76 39.76 0 0 1 3.35-4.55c.62-.65 2-1.19 2.59-.79a57.71 57.71 0 0 1 5 4.66c.51.48 1.09.86 2.05 1.6l-5.79 2.6 3.35 1.38c.2 2.08-2.21 5.87 2.47 5.51a17.2 17.2 0 0 0 -.67-1.92c-.84-1.8-.46-2.68 1.27-3.17 2.1-.6 3.61-2.14 4.41-5.1l-2.87 1c1.26-4.51 1.21-4.36-2.48-6-2-.89-5.14-1.34-3.21-5.61.13-.28-.46-.93-.44-1.38 0-1.31 0-3.57.42-3.75 2.1-.81 1.68-4 3.79-4.42a47.65 47.65 0 0 0 -1.25-4.66c-1.84-4.82-.71-11.22 5.26-10.72a61.54 61.54 0 0 1 10.37 1.74c-3 3.37-3.67 10.54-9.28 8-1 2.31-1.89 4.24-2.81 6.28 2 1.28 4.46 2.39 5 6.37.21 1.67 2.22 3 3.2 4.26l-2 3.53 6.18 1.43.11 7 .84.13c.83-2.07 1.67-4.14 2.66-6.6a38.24 38.24 0 0 1 3.9 3.51 3.91 3.91 0 0 1 .68 2.6c-.53 4.34-.59 4.33 1.78 7.09.37-.24.79-.49 1.18-.8s.75-.71 1-.93c-.44-1.57-.82-3-1.21-4.35l.79-.54 1.71 2.24c.35-.8.64-1.62 1-2.35.56-1 1.28-1.93 1.75-3a3.94 3.94 0 0 0 .24-2.27 38.12 38.12 0 0 0 -1.56-4.08l4.24-.76h-.09c2.83 1.79 6.72.45 8.64 4.92.65 2 1.26 4.82-3.17 4 1.38 2.08 2.6 3.46 3.29 5.14.43 1.07.51 3.39 0 3.78a55.43 55.43 0 0 1 -8.13 5.09c-.73.38-1.86-.19-2.77-.45-1.5-.42-3-.94-4.46-1.42l-.26 1 1.84 1.32c-1.9 3.76-3.67 7.33-5.5 10.85a3.65 3.65 0 0 1 -1.45 1.65c-2.76 1.09-5.57 2-8.41 3 1.7 2.65 1.38 4.5-1 4.39-1.72-.08-2.42 1-3.13 2-3.79 4.83-7.44 9.78-7.1 17.12.11 2.39.44 3.7 2.87 3.5.87-.08 2.18 1.15 2.7 2.19a57 57 0 0 1 2.36 6.78c4.32-2.26 8.52-.61 12.3 2.28 4.75 3.65 9.59 6.55 15.42 6.45 2.46 0 3.87.69 3.49 4.57-.59 6.17 2.67 10.62 6.38 14.44.37.38 1.54 0 2.21-.38 1.75-1 3.56-2.24 3-4.94-.81-3.66-2-7.2-3-10.68 2.22-1.65 4.85-3.09 6.92-5.28 3.54-3.75 2.83-10.63-1.37-13.38-2.69-1.75-3.34-3.13-1-5.86a5.34 5.34 0 0 0 .66-6.42c-.79-1.4-1.21-2.65-.31-4.29.27-.5-.33-1.62-.46-2.46-.17-1.19-.75-2.93-.32-3.46a3.9 3.9 0 0 1 3.14-1.08 44.92 44.92 0 0 1 5.78 1.28c.48.11 1.07.38 1.45.17 4.82-2.59 6.86 1.68 9.7 4.9 1.49 1.68 4.29 1.73 6.54 2.53-.64 2.86-1.39 6.35.83 9 1.64 2 4.12 4.66 5.88 4.35 2.68-.47 5.56-2.5 6-6.93.15-1.63 1.44-3.1 2.08-4.38 3 4.68 6 9.17 8.84 13.77a17.28 17.28 0 0 1 1.95 4.72c.16.61-.58 1.54-1 2.49 1.74 1.87 3.49 4.39 5.71 5.94s5 2.24 7.91 3.43l-1.41 1.86c1.72 1.05 3.41 2 5 3.06 1.84 1.23 2.2 7 .61 8.56l-2 2 .23-.02c-3.27.11-5.83 1.74-8.43 4.14-1.82 1.68-4.62 2.32-7.05 2.52-3.5.29-7.05-.36-10.58-.38-2.64 0-5.41 0-6.64 3.78-.19.61-1.39.68-2 1.21a49.07 49.07 0 0 0 -6 6.31c3.26-1.92 6.45-4 9.8-5.66a9.72 9.72 0 0 1 4.93-.68c.91.07 1.78 1.13 2.67 1.75a12 12 0 0 1 -1.88 3.07c-.79.67-2 .7-3.87 1.29l4 .66c-.62 4.87.34 6.79 3.63 7.22l-.11-.11c.25.5.44 1.38.74 1.44 2 .35 4 .52 5.51.71l3.42-6.26c.85 1.94 1.48 3.38 2.44 5.6-3.11 1.71-6.43 3.71-9.88 5.34-1.95.92-4 1.29-5.38 3.56-.93 1.51-2.54 2.64-3.91.57s0-3.38 1.35-4.52c.89-.74 1.74-1.55 2.6-2.33l-.64-1.18c-2.4 1.41-4.77 2.89-7.2 4.22s-5.27 2.13-7.41 4c-1.58 1.38-2.55 4-3.3 6.27-.2.6 1.42 2.05 2.1 3l-11.07 5.26c-2.24 5-4.28 9.51-6.36 14.15-.27-1.77-.49-3.23-.72-4.7l-1.32.36c.64 2.21 1.35 4.4 1.88 6.64s1.84 4.55-1.2 5.75c-.33.13-.3 1.51-.77 1.65-2.64 2.28-5.29 4.54-7.92 6.84-1.1 1-2.09 2.11-3.2 3-3.41 2.86-4.41 6.27-3 11a68.81 68.81 0 0 0 2.65 7.72c1.54 3.51 1.46 6.92 0 11.25a17.51 17.51 0 0 1 -2.6-2.3 43.74 43.74 0 0 1 -3.57-5.42c-.66-1.22-1.55-2.94-1.28-4.06.67-2.67-.34-4-1.73-5.73s-2.55-2.74-4.46-1a1.83 1.83 0 0 1 -2-.18c-1.76-2.46-3.91-2.23-6.24-1.88a44.47 44.47 0 0 1 -5.56.13l-1.08 3 1.69 1.39c-.31.31-.46.6-.58.58-1.28-.19-2.55-.41-3.82-.66-2.49-.48-5-1-7.46-1.48-.19 0-.37-.16-.56-.22-3.65-1.05-12.5 5.46-13.3 9.78 0 .12-.11.25-.08.33 1.77 5-.88 9.53-1 14.34a20.26 20.26 0 0 0 3.52 12.58c1.5 2.16 2.29 4.58 5 6s4.66.39 6.95.07c1.39-.19 2.78-.47 4.16-.72l.71.79c.85-2.9 1.69-5.81 2.57-8.71.12-.42.37-1.06.63-1.12 3.32-.72 6.68-2 10-1.76 2 .15.27 2.68 0 4.09-.1.5-1 .78-1.11 1.29-.85 4-1.56 8-2.41 11.91a28.1 28.1 0 0 1 -1.45 3.85c2.63 0 5.3 0 8-.14s5.59-1 7.68 1.92a7.18 7.18 0 0 1 1.52 4 66.53 66.53 0 0 1 -1.21 9.21c-.95 5.15 2.76 7 5 9.71 1.56 1.86 3.73 1 5.68-.17 4-2.44 5.62-1.89 10.12 2.87 1.93-2.42 4.14-4.36 4.94-8.05.32-1.42 3.2-2.07 4.93-3 1.57-.86 3.15-1.69 4.75-2.46 1-.49 2.09-.84 3.13-1.26-.48 1.16-1 2.31-1.63 3.87.29.14 1.18 1 1.63.73a35.83 35.83 0 0 0 4.28-3.21c.41.22 2 .49 2.75 1.59 2.48 3.89 6.15 2.44 9.22 3.59 2 .74 3.63 1.78 5.4-.06a5.13 5.13 0 0 0 .86-1.5l5.83-.09-1.31 2.1a14.61 14.61 0 0 0 1.62 1c1.33.62 2.69 1.16 4.32 1.86-.64 1.34-1.06 2.21-1.51 3.13a3.55 3.55 0 0 0 .79.06c3-.45 6 1.53 7.7 4.53s4.51 5.62 7.76 4.87c6.07-1.41 10.37 2.23 14.66 6.18.59.54.57 1.94.95 2.87a22.94 22.94 0 0 0 2.35 5c1.27 1.68 1.87 3-.42 4.91l6.3 3.88-.91 3.49c1.84-3.86 4.41-3.36 7.07-1.62 2.31 1.51 5.93.8 6.57 5.3 0 .15.71.23 1.09.26 3.84.27 7.77.06 11.51.93 2.37.55 4.63 2.46 6.67 4.2s4 4 7.08 3.73c.74-.07 2 1.14 2.32 2.08 2.77 8.91 1.17 11.91-3.52 17.91-1.24 1.59-2.25 3.43-3.42 5.11-1 1.39-2.11 2.62-3 4.09a8.54 8.54 0 0 0 -1.25 3.55c-.26 4 .29 8.28-.55 12.11-1 4.73-1.3 9.92-4.24 13.95a28.17 28.17 0 0 0 -2.82 5.53c-1.5 3.54-4.52 2.21-6.83 3.16a41.08 41.08 0 0 0 -4.35 2.18 57.34 57.34 0 0 0 -6 3.5c-3.56 2.58-5.26 6.1-4.14 11.35.32 1.48-.63 3.52-1.36 5.06a51.83 51.83 0 0 1 -3.77 6.53c-1.29 2-2.8 3.7-4.17 5.57a37.65 37.65 0 0 0 -2.16 3.22c-1.57 2.64-2.95 5.44-4.65 8-2.18 3.25-5.35 2.12-8.13 1.74-2-.28-3.93-1.55-6.53-2.66.64 1.17.85 2 1.3 2.29 1.76 1.1 3.81 1.84 2.75 5a.85.85 0 0 0 .18.64c1 1 2.64 2 1.56 3.77-1.44 2.37-3 5.33-5.05 6.33-3.57 1.71-7.6 2.11-11.51 3.08-.16 2-.37 4.53-.59 7.26-2.57 3-5.4.91-9.07-.34a49.89 49.89 0 0 0 2 6.39c.21.45 1.71 0 3.08 0 0 .6 0 1.52-.05 2.43l-3.42-.71c.33.69.59 1.22.51 1.05a53.45 53.45 0 0 1 -2 6 18.71 18.71 0 0 1 -2.76 3.84c-.39.47-1.2.48-1.54 1-1 1.37-2.66 3.12-2.44 4.29.29 1.53 2 3.12 3.37 3.86 2.34 1.23 3.07 3.1 1.11 5.13-2.28 2.37-5.12 4.06-5.21 8.32 0 .32-.52.66-.84.91-3.85 3-4.14 4.82-1.46 9.44.16.28.28.6.58 1.23h-2.72c2 2.69 3.79 5.7 6.09 8 1.88 1.87 4.37 2.88 6.95 4.49-1.29.33-2.4.54-3.47.89-2 .64-4.39.27-5.69 2.87-.06.11-.45.15-.49.07-1.2-2.22-4.12.58-5.35-2.87-.46-1.3-3.6-1.28-5.76-1.93l.68-.92-1.7-2.8-4.28-4.11c-.79-1.2-1.59-2.4-2.5-3.79l1.77-.59c-.44-1.32-.82-2.45-1.35-4l-3.08 1.1a56.5 56.5 0 0 0 1.37-6.75c0-.4-1.59-1.05-2.53-1.64 0-3-1.87-6.61 1.13-9.41l1.26 1.36c.38-1.64.74-3.14 1.2-5.1l-4.31-.85c.42-.8 1.06-2.09 1.74-3.34 1-1.81 2.85-3.22 1.54-6-.17-.36 1-1.64 1.89-2.92.33 1.26.52 2 .7 2.69l.88.12 2.29-13.49c-3.53.32-2.78 3.15-2.84 4.91-.07 2.07-.33 3.06-2.78 2.56 1.07-5.52 2.26-10.87 3.07-16.31a17.92 17.92 0 0 0 -.59-6.14c-.41-1.87 0-3 .75-4.77a76.35 76.35 0 0 0 4.5-15c.61-3-.17-6.38.07-9.55.32-4.24 1.08-8.44 1.55-12.67.62-5.47 1.13-11 1.7-16.43a41.72 41.72 0 0 0 .58-4.95c-.06-4.51.31-9.21-.65-13.48-.93-4.07-4.51-6-7.59-8a75.8 75.8 0 0 1 -8.78-6.35c-1.09-1-1.35-3.21-2.08-4.81-.94-2-2-4-3-6-2.62-5.46-5.2-10.94-7.82-16.39-.44-.91-.91-2.34-1.53-2.49-3.46-.82-3.38-4.56-3.58-7.05-.15-2.06 1.72-4.32 3-6.35-.48-1.59-2.85-2.61-2.06-5.52 1-3.66 1.38-7.71 4.61-10 .46-.32.61-1.21 1-1.74a21.27 21.27 0 0 1 3-3.76c2.62-2.18 1.88-5.34 1.83-8.19-.07-3.45.18-7.16-2.65-9.65a2.63 2.63 0 0 1 -.6-1.19c-1.3-4.61-2.16-4.95-5.12-2a12.23 12.23 0 0 1 -1.16.85l1.4 2.94c-1.26 0-2.33.41-3 0-2-1.26-3.5-3.86-6.35-2.93-.57.18-1.5-1.06-2.25-1.68-1.41-1.19-2.69-2.73-4.24-3.53-1.36-.7-2.19-.88-2.64-3.13-.5-2.48-2.57-4.53-4-6.74-.58-.91-1.24-1.76-1.89-2.68-1.61-.36-3.56-.72-5.47-1.25-4.52-1.25-8.86-2.76-12.1-7.27-1.94-2.7-4.64-3.48-7.48-1.43-2.45 1.78-4.86.41-7.07-.62-4.19-1.95-8.24-4.33-12.35-6.54-2.83-1.51-5.68-2.95-8.46-4.58-2.24-1.32-3.44-3.08-2.83-6.56a9.65 9.65 0 0 0 -1.43-6.53c-3.06-4-6.7-7.45-10-11.23a4.89 4.89 0 0 1 -.81-3.38l-9.89-10.4c-.26-5.11-2.85-9-7.31-10.06-.32 4.89.47 6.33 3.9 8.55.79.52.92 2.35 1.5 3.47 2.3 4.41 4.65 8.78 7 13.16.87 1.62.87 3.83 3.13 4.49.86.25 2.9 2.85.56 4.05-2.42-2-4.57-3.68-6.61-5.52-.6-.55-1.37-1.75-1.22-2.36 1-4.25-1.84-5.07-3.93-6.57-1.62-1.17-3.27-2.26-5.35-3.69 3.59-1.12 4.1-2.53 1.75-4.63-4.68-4.15-6-10.68-9-15.94-1.56-2.72-4.87-4.2-7.58-5.8-1.34-.8-2.4-1-3.29-3-2.11-4.87-5-9.26-7.63-13.8-2.07-3.59-4.11-7.15-3.15-11.84a1.94 1.94 0 0 0 0-1c-2.37-5.52 0-11 .17-16.42.14-4.26-.06-8.41-1.9-12.14-1.07-2.15-.32-2.61 1.28-2.76.53.29 1.07.85 1.58.82a13.86 13.86 0 0 0 2.77-.69c-.39-1.08-.53-2.54-1.21-3.17-1.85-1.7-3.92-3-6.07-4.65.35 4.11 5.8 2.78 5.19 7.75zm114.5 3.89c3 5.3 7.51 0 11.26 2.65-.79-3-.09-6.51-3.87-6.55-.35 0-.85-.7-1-1.2-1.36-3.95-3.9-3-6.17-1.87a49.31 49.31 0 0 0 -6.32 4.18c-1.8 1.27-3.55 2.66-5.32 4 1.41.35 3.32-.48 3.48-.15 1.27 2.66 2.63.58 3.72.16 1.36-.52 2.53-1.71 3.82-2.54.3-.19.73-.11 1.36-.18zm13.34 16.07c4.1-5.05 4.11-.44 5 2l1-.09c.65-3.2 1.3-6.41 1.89-9.35l3.89 3.2c.53-3.78-.91-6-3.18-6.51-2.57-.54-5.3-2.68-8.05-.15-.52.49-1.62.1-2.75.12 5.02 4.71 5.05 4.78 2.19 10.82zm-10.53 8.37c3.19-1.44 4.05-3.57 3.06-7.07a7.48 7.48 0 0 1 2.34-8.28 17.05 17.05 0 0 0 2.17-3.5 6.6 6.6 0 0 0 -8.11 4l1.51-.89c-2.06 5.35-3.53 10.39-.98 15.78zm12.28-1.18c3.57 2.48 9.89.26 12.79-4.83zm11.37-6.26c2.83 0 5.33 0 7.81-.16 2.28-.16 2.91-1.56 1.85-3.68-2.83 2.17-7.06-.77-9.66 3.84zm33.45 388.11 1-4.59-2-.26-.05-3.08-.66-.15-1.89 6.56.85.67 1.19-2.35c.65 1.24 1.15 2.29 1.56 3.15zm-9.13-253.51 1.8-.12-.54-4.61-1.34.1zm54.13-249.46c3.9 2 2.51 7 5 9.88 2.25 2.57 3.52 6.3 5.39 9.38s3.78 5.7 4.87 7.33c3.72 1.15 6.43 1.79 9 2.86 1.45.61 2.6 2.29 4.06 2.82.89.32 2.71-.28 3-1.09a59.76 59.76 0 0 0 2.36-8c.67-2.49 1-5.18 2-7.46 1.14-2.59 4-4.13 3.24-7.92-.09-.45.79-1.16 1.36-1.94-.76-1-1.5-2-2-2.66 1-.48 3.07-.89 3.13-1.55.2-2.31 1.53-2.05 2.65-2.22 1.5-.23 3-1.46 4.56-.23.35.27 1.08.44 1.32.21 3.76-3.69 9.37-4.75 11.3-11.1.24-.79 1-1.33 1.56-2 .88-1.14 1.74-2.28 2.73-3.59 2.06 2.32 4.32.12 6.65 0 9.12-.46 15.68-7.26 23.65-12.22l-13.74-1.4 3.63-2.26-1.24-5 1-.77c1.39 1.75 2.73 3.57 4.21 5.22a5.56 5.56 0 0 0 2.66 1.88 36.72 36.72 0 0 0 6.06 0c-1-3-1.51-5.65-2.8-7.57s-3.17-2.94-5-4c-2.74-1.68-2.8-1.55-3-4.23l6.94 5.08c2.22-4.74 2.14-5.22-1.2-7.14-1.87-1.07-3.82-1.94-5.74-2.9.94-.54 2.05-.71 2.64-.14 3.27 3.22 6.57.93 9.83.24.43-.09.67-1.39 1-2.15-3.68-1.94-5.43-3.17-5.32-3.52 2.94 2.88 5.67 0 9.43-.24a50.58 50.58 0 0 0 -3.55-4.84c-.18-.21-1.28.75-2.12 1.29a12.55 12.55 0 0 1 0-2.55 22.55 22.55 0 0 1 3.83-.39c1-2.9-.41-7.52-2.84-7.58-2.69-.06-4.45-1.46-6.09-3.57 1.17-.1 2.31-.18 3.45-.29 2.07-.2 4.18-.82 6.21-.55 2.91.38 3.1.4 2.64-3l-6.85-2.13.27-1.33 4.19.55c-2.92-2.66-5.29-3.27-7.68-1.17.52-6 3.58-9.4 7.67-11.34l-1.08-4.7-2.55-1c1-2.74 2.2-3.6 4.51-3.11 2.86.61 5.86.92 8.59-1.52l-1.15-1.13 15.76-8.25a18.86 18.86 0 0 0 -12.48-3 8.48 8.48 0 0 0 -4.56 1.9c-1.49 1.22-2.75 2-4.58 1.19-3.15-1.44-6-1.38-8.64 1.79-1.31 1.56-3.49 2.09-5.27 3.08 1.89-3 5.85-4.28 4.35-9.72-1.54 0-3.75-.73-4.53.21-3 3.57-5.6 1.21-8.67.52-3.41-.78-7.07 0-10.62.09-.86 0-1.73.13-2.6.19l-.07-1a21.37 21.37 0 0 1 2.35-.5c5.52-.5 11.06-.83 16.56-1.53 2.27-.29 4.46-1.37 6.69-2.1-.08-.45-.15-.9-.22-1.36-7.33-2-14.49-5.35-22.38-3l.07-.92 8.51-1c-13.22-4.42-26.36-3.26-40.15-.77l2.83 2.7c-.45.28-.67.53-.78.47-3.14-1.62-6.22-3.94-9.62-.73-.17.16-.61.09-.86 0-3.79-2.15-7.34-.09-11 .76-1.3.31-2.62.48-3.93.71l.07 1.23 9.78-.15v.65l-12.86 1.7c1.85 3.63 5.2 3.15 7.46 4.93.54.42 1.06.88 1.59 1.33l-.61 1.07c-3.13-1.28-6.28-2.48-9.38-3.86s-6.5-2.48-10.82-1.56l4.33 4.49-.28.81-9.52-4.05c-.27 1.76-.51 3.29-.75 4.82-1.35-4.19-2.51-5.58-5.11-5.13-3.12.54-6.2 1.34-9.32 1.81-2.84.42-5.19 2.7-8.23 2.49-1.43-.11-2.43 1.1-2 3.38.17.91-.76 3-1.12 3-2.2-.14-4.2-.42-6.35 1-3.28 2.15-6.86 3.66-10.25 5.58-.42.24-.66 1.39-.61 2.07 0 .34.92.82 1.42.83 1.94.07 3.88 0 6 0a27.73 27.73 0 0 1 -1.69 5.08 5.79 5.79 0 0 1 -2.88 2.61c-4.31 1.38-8.7 2.44-13.06 3.64a41 41 0 0 0 -5.4 1.65 3.24 3.24 0 0 0 -1.45 2.21 2.59 2.59 0 0 0 1.23 2c5.33 2.07 10.48 5.78 16.41 2.68.48-.25 1.26.2 1.87.43a1.46 1.46 0 0 1 .06.9 4.25 4.25 0 0 1 -1.51.61c-4.05.58-8.11 1.11-12.16 1.7-.32.05-.6.5-1.56 1.33l7.74 2.93-2.52 2.43c3.35.86 5.95 2.2 8.45 2 4-.3 7.93-2.62 11.79-2.28 4.72.42 9.33 2.69 14 4.22.39.12 1 .8.94 1.1-.48 2.89 1.66 3.16 2.95 4.27 1.58 1.35 3.83 2.27 2.56 4.83a21.76 21.76 0 0 1 2.31 3.11 23.83 23.83 0 0 1 1.16 3.76l.78-.21c-.29.73-.59 1.45-.82 2l2.65 1.45-.91 2-.49-.3c.13-.62.25-1.24.42-2.1l-2.32.7c.46 2.07 1.26 3.9 1.16 5.66-.19 3.19.33 4.35 3 3.77 1.24-.27 2.3-1.71 3.37-2.56a15.08 15.08 0 0 1 .9 1.54c.3.64.52 1.34.83 2.17.58.1 1.35.23 2.11.38s1.4.3 2.45.53l-1.25.54 2.33 3-10.21-2.22-.26 1 1.15 2.2-.73-.28c-.63 1.54-1.26 3.07-1.8 4.37 3.31 3.66 6.36 3.89 10 .56l-5.75-4.16c2.4.64 5.27 1 6.71 2.87 1.3 1.7 1 5.08 1.54 8.4-2.16-.41-3.69-1.1-5.14-.91-3.07.4-4.27 10.21-1.47 11.55-1.43 2.29-1.64 6.49.27 7.43zm639.55 355.06-3.63-.92a14.73 14.73 0 0 0 -6.89-10.39c-1.1-.7-2.81-1.11-3.18-2.17a85.34 85.34 0 0 1 -3.54-12.49c-.65-3.41-2.17-4.58-4.63-4.32-1.41-4.54-2.76-8.91-4.12-13.28l-.85.14a40.39 40.39 0 0 0 -2.47 13.72 36.91 36.91 0 0 1 -1.49 9.4c-1 3.26-2.67 3.49-5 1.4-.91-.79-1.94-1.39-2.9-2.09l-9.41-6.85c1.39-2.83 2.64-5.14 3.65-7.6.31-.75.16-2.57-.18-2.74-.9-.45-2-.13-3.06-.34-2.79-.59-5.56-1.28-8.33-2-1-.24-1.93-.57-3.66-1.1l2.66 2.86c-.81.46-1.6 1.26-2.43 1.32-4 .31-7.58 5.26-6.9 11.09l-6.1-3.84c-.69-.43-1.39-1.18-2.09-1.21-2.74-.1-7.69 5.6-7.9 9l-2.4.59.06 3.79-2.38-3.49c-.82 1.71-1.91 3-2 4.41-.37 4.11-3 8-6.54 8.93-1.79.5-3.56 1.13-5.34 1.67-4.67 1.41-9.19 3.17-12.48 7.74l-.95-1.79c-.59 3.31-1.59 6.14-1.43 8.89.14 2.6 1.5 5.1 2.32 7.65l-.6.41c-.4-.8-.8-1.61-1.19-2.41l-.75.7c.82 2.55 1.65 5.1 2.46 7.66 1.54 4.86 3.21 9.67 4.53 14.61.82 3 2 6.38-1.05 8.95a2.55 2.55 0 0 0 -.21 2.12c1.48 3 7.79 5 10.2 2.89 3.88-3.35 8-5 12.85-4.16 2.1.37 3.79-.29 5.41-2.86 1.37-2.16 4.5-2.88 7-3.89 1.82-.75 4-.46 5.69-1.46 5.89-3.52 11.4-.7 17 1a2.73 2.73 0 0 1 1.25 1.37c1.45 2.87 2.81 5.81 4.28 8.67.19.37.8.43 1.21.64l-1.25-1.73 7.28-4.89c-.53 1.78-1.39 4.7-2.26 7.62l.27.55c1.08-1.24 2.15-2.48 3.52-4l.08 5.13c2.78 0 4.08 1.89 4.75 4.87.44 1.93 1.82 4.69 3.14 5 3.67.92 7.26 5.14 11.34 1.3.22-.21.89.17 1.33.37 1.61.73 3.21 1.51 4.67 2.2 2.57-2.15 4.48-5.51 8.26-5.12 2 .2 2.57-1.15 3.15-3.5 1.41-5.72 2.71-11.87 5.51-16.63 4-6.76 4.83-13.83 4.38-21.52-.21-3.37-.85-6.7-1.26-9.73l-1 1c-1.31-4.67-6.55-5.47-6.4-11.14zm-665.84-475.91c-3.66-1.17-6.75-1.74-9.6-3.54-2.11-1.34-5.35-.19-8.09-.14-3.14-1-6.47-2.13-9.77-2-4 .14-8.43-1.61-11.31 1.18l-11-.65-.12 1.1 3.67 2.6c-.13.37-.25.74-.38 1.12-3.81-4.21-8.23-3.78-12.93-3.28l1.59 2c-1.11-.28-2.08-.9-2.82-.63a37.28 37.28 0 0 0 -5.57 2.81 12.51 12.51 0 0 0 .47 2c-1 .08-2.37.69-3.12.16-3.51-2.49-6.79-2.24-10.26.46l1.28.63c-6.31-.19-11.87 1.42-17.35 3.8.92 2.85 4-1.79 4 2.63l3.33-.74-1.73 2.91c4.11 5.17 8.54 5.15 13.19 1.32l-3 2.65.36 1.35 9-1.46c.66-.1 1.41-.44 2-.21 4.31 1.74 7.92.41 11.21-3a2.37 2.37 0 0 1 2.21-.62 12.54 12.54 0 0 1 2.71 2l-16.33 5.06 5.74 4.42a2 2 0 0 1 -2-.19c-3.39-3.23-7.21-4.83-11.54-4.34a14.47 14.47 0 0 0 -3.22 1.2 22 22 0 0 0 2.46 3.76c1.07 1.07 2.68 1.42 3.65 2.56.76.89.89 2.52 1.33 3.92-6.76-.22-11 1.71-9.57 6.42l7.78-.73-1.94 2 .79 3.41c-2.84-1.94-5.34-4.68-9.61-.59l3.93 2.85c-7.49 2.13-7.67 2.27-7.35 5.73a7 7 0 0 0 1.13.16c3 0 6.33-1.1 8.93.09 4.27 2 7.94-.73 11.89-.74 2.34 0 4-.13 5.35 2.75 2.39-1.09 4.78-2.11 7.12-3.29a3.43 3.43 0 0 0 1.26-1.76 1.69 1.69 0 0 0 -.71-1.3c-2.26-.77-4.54-1.4-7-2.12 3-1.29 7.78 1.42 7.64-5.33 7.29-.11 8.86-2.24 7.52-4.69l3.23-1.3-.07-.89-4.85-1.9.12-.79 4.73-.11v-.91a18 18 0 0 1 -2.76-.25 23.81 23.81 0 0 1 -3.13-1.25c4.09-.51 7.56.34 11-2.77 2.64 1 5.42.17 7.09-4a3 3 0 0 1 1.13-1.42c4.64-2.63 9.32-5.19 14-7.81a28.35 28.35 0 0 0 2.26-1.59l-.24-.75-6 .83c5.65-3.27 12.57-2.73 18.27-8.79zm-71.09 95.71c4-.52 8-.82 11.6 1.55 2.7 1.77 3.49-1.32 5-2.34.26-.17-.4-2.27-.74-4l10.74 8.86-2.71 2.3.4 1.76c2.84-3.66 5-1.61 7.35.09a13.05 13.05 0 0 1 5.78 8.2l-6.95 7.33 3.25 1.88c-.13.42-.25.84-.38 1.26-2.62.35-5.3 1.31-7.83.88-2.27-.39-3.76 0-5.23 1.9-1.34 1.72-1.11 3.75.86 4.17a11.7 11.7 0 0 0 5.45-.23c3.67-1 7.2-2.46 10.07 2.19.67 1.07 2.13 1.46 4 2.65l-1.34.59a47 47 0 0 0 3.42 4.38c.29.3 1.29-.51 2-.57a3.92 3.92 0 0 1 1.95.36c3.47 1.56 6.93 3.19 10.91 5-.17-4-2.29-4.89-3.83-6.28s-3.21-2.75-4.82-4.12l.45-.77 11.12 5.96c.56-2.06 1.78-4.28 1.52-6.23s-2-3.89-3.07-5.8a1.07 1.07 0 0 0 -.75-.53c-3.88 0-4.68-4.84-7.45-6.65l1.7.21 1.46-3.64c2.1 1.48 4.81 2.29 5.17 3.85.94 4.1 3.5 4.38 6.19 5.42l.5-3.68c2-.48 3.66-1.39 3.17-4l2.94-2.48-.08-1.18c-1.35-.23-2.7-.45-4-.71a10.14 10.14 0 0 1 -1.74-.5c.53-3.64-2-1.18-2.63-2.37-3.66-4.44-9.46-4.4-13.05-7.82l1.65-3.06h2.83l.19-.67-4-2.05 2.18-1.16c-1.55-3.77-2.22-4-5-2 .37-1 .74-1.91 1.29-3.31l-9.16-2.72c-.21-1.06-.16-2.52-.62-2.79-2-1.16-4.14-2.14-6.18 0-.92-1.53-2.25-2.51-3.27-3.8-1.63-2.07-4.32-3.15-6.71-4.17-2.21-1-4.65-1.5-5.88 2.13-.18.54-.85.84-1.3 1.26-2.09-3.57-3.74.26-6 .79 1.23-3 1.81-5.69.06-8.24l.1.11c-2-3.44-4.67-4-7.81-2.62-1.55.68-3.3 1-4.58 2.17a9.29 9.29 0 0 0 -2.6 4.48c-.19.78 1.25 2.11 1.8 3l-2.82 2.18 4 3.09-.51 2.48a19.61 19.61 0 0 0 -2.1-2.99c-4.29-3.86-4.33-9.42 0-13.25.52-.46 1-1 1.62-1.53-.39-.36-.59-.69-.84-.74-6.65-1.6-12.42 2.43-14.26 9.93-1.33 5.4-.12 7.51 4.63 8.16a22.24 22.24 0 0 1 2.71.74l-.1.78-5.44-.42c.77 3.5 3.1 5.46 5.79 4.94 1.43-.28 2.78-.89 3.9 1 .31.52 1.46.3 2.2.48 1.33.32 2.64.69 3.95 1zm-103.28-19c-1.41 2.09-2.84 4.17-4.25 6.27-.86 1.27-.89 2.36.64 2.88 2.07.71 4.15 1.36 6 2l-5.27 2v1.19c1.43.58 2.85 1.58 4.29 1.65 2.75.13 5.51-.52 8.25-.4a59.24 59.24 0 0 1 7.53 1.2l-.11 1.18c-5.39.25-10.95-1.16-16.15 1.61 1.31 4.21 2.54 5 7.25 5.07 1.8 0 3.82-.63 4.22 2.82.09.79 1.78 1.91 2.7 1.87a41 41 0 0 0 9.69-1.19c3.23-.91 6.28-2.67 9.71-4.2 3 3.18 10.5 4 15.57-.36l-2.67-2.83c.52-.6 2.28-.23 3.49 2 1.59-2.9.55-4.47-1.92-5.41a27.49 27.49 0 0 1 -5.35-2.3c-1.56-1-3.81-1.79-2.89-5.08.18-.66-.49-1.69-.82-2.52-.92-2.3-1.87-4.58-2.81-6.86h1c.46-2 1.7-4.28 1.2-5.82-.64-2-4.93-1.21-6.63.87.5.46 1 .91 2.2 2l-5.81-.64c-1.12 3.94 1.26 7 2 10.38-2 2.06-2.4.06-2.78-1.46-.95-3.76-3-5.9-6.26-6.48-.24 0-.53.19-.94.36l1 1.8-2.51 1.73c-2.84-5-6-4.34-9.44-.89.77-5.27 0-6.07-3.83-4.56-1.68.66-3.35 1.37-5 2.07zm800.51 347.44c3.2-1.18 5.91-1.14 8.42 2.32 1.3 1.81 6.88.37 7.62-1.35 1.89-4.37 5.66-5.77 8.06-2.07 3.21 4.92 6.83 7.79 12 8.05.35 0 .74.69 1 .62a4.64 4.64 0 0 0 1.31-.68l-12.13-12.82 4.29-1.22a27.47 27.47 0 0 0 -2.91-2.36c-1.32-.76-3.55-.93-3.94-2.06-1.9-5.43-6.15-6-10-7.52s-7.48-2.62-11.17-4.35c-4.7-2.2-6.22-1.94-9.67 2.41-.79 1-2.65 2.44-2.82 2.24-1.21-1.39-2.9-3.17-2.91-4.82 0-3.05-.73-4.64-3.23-4.81a19.05 19.05 0 0 0 -4.38.35c-1.25.21-2.47.66-3.94 1.06 1.75 1.52 3.32 3.32 5.19 4.37 1.3.74 3 .46 4.88.68l-5.11 1.66c.83 1 2 1.72 2.11 2.62.58 5 1.88.88 2.45.61 2.81 1.16 5.29 2.17 7.76 3.2 1.49.62 3.27.86 4.4 2a20.79 20.79 0 0 1 3.87 5.87c1 2.23-1.53 2-2.07 3.26-.35.8-.64 1.63-1.05 2.66a5.83 5.83 0 0 0 1.97.08zm-65.58-54c-1.29-1.42-2.07-1.27-3 .33-1.77 3.09-3.55 6.13-6.86 7.28-.61.21-1 1.33-1.52 2-1.11 1.26-2.11 3.13-3.43 3.57-2.65.87-4.87 1.75-4.7 5.9l-5.1-1.52a5.88 5.88 0 0 0 -1.05 6.46c.94 2.15 2.09 4.19 2.86 6.41s.1 5.8 3.34 5.24c2.12-.37 3.47 2.29 5.9 1 2-1.09 4.64-.33 5.81 2.69l4.88-1.5c.31-3.4-.6-8.21 3.49-10.74.11-.07.17-.44.13-.65-.68-3.95.81-5.75 3.87-5.49-1.61-3.1-3.13-6.06-4.63-8.94l3.59-5.24-.45-.38 2.62-1c-2.15-1.98-4.07-3.53-5.75-5.4zm-214.92 78.56c-1.21 4.46-4.13 6.08-7.22 7.53-4.37 2-5.88 4.94-4.23 10.26 1.21 3.89.31 6.86-1.32 10.12a14 14 0 0 0 -.93 5.78c0 1.54.68 3.07.86 4.64.37 3.08 2.79 6.57 5.22 6 2.22-.53 5.3-.46 6.28-4.06.9-3.32 1.78-6.65 2.56-10q2-8.72 3.88-17.49c.45-2.09.75-4.23 1.09-6.21l1 .92.83-.37c-.83-4.71-.66-9.75-3.8-13.64-1.48 2.21-3.56 4.1-4.22 6.52zm18.65-371c-2-3-1.59-5.35.6-8.18a83.48 83.48 0 0 0 5.25-7.07 30.22 30.22 0 0 1 12.46-11.2c5.95-3 12.38-4.61 18.5-7.18 1.35-.57 2.25-2.63 3.35-4-1.61-.56-3.21-1.47-4.83-1.57-1.18-.07-2.42.87-3.58 1.5-1.41.77-2.68 2.07-4.15 2.47-4.34 1.16-8.83 1.64-13.1 3.07-3.12 1-6 3.18-8.95 4.77-1.77 1-3.58 1.79-5.36 2.67-.17 4.9-3.31 7.34-6.53 9.76l1.23 3c-2.88.72-4.64 2.19-4.55 5.87a3.15 3.15 0 0 1 -1.82 2.33c-1.64.31-2.58 1.16-1.94 2.91a3.25 3.25 0 0 0 2.69 1.52c3.41 0 4.07.58 4.21 5l12.51 1.07c-2.53-2.74-4.52-4.54-5.99-6.74zm-461.61-49.74-5.15 2.43c4.35 7.2 10.34 7.11 16.31 5.69 3.18-4.13 7.38-6.28 11.73-8.15l.16-1.2-5.61-2.17c-1.18-1.62-2-2.77-2.85-3.94-.51-.74-1-1.53-1.45-2.3l-2.44 2.2-1.32-3.07c-3.32.95-5.26-1.7-7.14-4-2.36-2.87-4.94-3.21-8.64-2.1l3 1.21-6.35 1.58.09.86 2.55 1.74-.13.34-4.08-1c-.3 1.65-.52 2.88-.74 4.12l2.25 1-.08.41h-3.36l-.43 1 4.18 3.09-.66 1.2c.78.34 1.57 1 2.33 1 2.56-.15 5.11-.55 7.66-.85zm287 150.63a6.75 6.75 0 0 1 -1.68-2.23c-1.22-1.93-2.39-3.9-4-6.52l2.8-6.86-7.14-.63 3.33-4.45c-5.06-.48-8.41 1.1-9 6.44l-2.51-.62-.17.8 2.6 2.05c-.45 1.31-.81 2.34-1.45 4.21l2.46-1.44-.44 5.36.73.39 1.46-3.09.54.11c-.18 1.86-.37 3.71-.59 6l4.4-.33c.69 1.85 2 3.66 1.87 5.35-.21 3.48-2.86 1.36-4.86 2 3.43 3.84 1.22 5.79-1.63 7.77l4.93 1.25-5.89 6.55a1.92 1.92 0 0 0 1.63.12c2.84-.82 5.66-1.72 8.52-2.45 3.62-.93 7.27-1.71 10.9-2.59.18-.05.28-.52.43-.82l-1.15-.9c.78-2.26 1.43-4.16 2.09-6.06l-4.33-1.84c-.99-2.46-.99-5.84-3.87-7.57zm335.94 227.11 2.67.43c-.91-1.67-1.63-2.78-2.15-4-1.22-2.82-2.2-1.95-3.21.14l1.75 1-.71 1q-3-3.42-6-6.86c0-1.93-.23-4-1.21-5.06-1.75-1.93-3.81-4.05-6-4.69-4.08-1.18-7.23-4.68-9.13-7.81-2.92-4.81-6.9-2.54-10.16-4.56a13.91 13.91 0 0 0 3.5 5.66c5.56 4.71 8.64 11.82 12.77 17.9 2.37 3.49 4 7.9 6.71 10.81s5.4 7.95 10.72 6c.21-3.37.31-6.65.45-9.96zm-693.4-333.17c-3.79-2.24-6.56-7.1-11.52-4-.28.17-.85-.27-1.27-.46a20.69 20.69 0 0 0 -16.58-.45l2.25 3.89-5.12 11.31c2.52 2.11 4.8 4.06 7.13 5.95.53.43 1.27 1.05 1.76.89 2.23-.72 4.42-1.64 6.59-2.59a2.18 2.18 0 0 0 .93-1.25c1.6-5.16 5-7.71 9.24-9.11l1.34-.09zm110.3-15.44c-4.74-3-9.63-3-14.78-1.71-2.68.7-5.14 3-8.38 1.2-1.69-.95-4.09-.11-5.16-.09l-5.16-4 3.91-.45c-4.08-2.95-8.24-2.55-12-3.7-3.93-1.21-7.46-3.11-12-1.71a18.11 18.11 0 0 0 1.33 2.28c2.54 3 5.66 3.33 9 2.73 2.45-.45 4.47 2.86 4.26 5.72-.13 1.85 1.29 5.56 1.65 5.5 2.79-.46 5.53 3.16 8.3.24.36-.38 1.23-.09 1.87-.11 0 3.08 2 1.75 3 1.66 4.41-.39 8.79-1.14 13.19-1.73a1 1 0 0 1 .68.29c2.59 2.15 5.32.8 7.92.28 1.16-.23 2.13-1.75 3.39-2.86l-1.91-.85 2.28-1.43a15.41 15.41 0 0 0 -1.39-1.26zm313.1-29.28c.34-1.4-1.5-3.76-2.87-4.07s-3.58-.61-4-1.72c-.9-2.14-1.75-2.12-3.21-1.2.41-5.26-3.75-2.4-5.06-4.57l-.77.31.13 7.83c-1.56-2.32-2.8-4.17-4.28-6.39l-2.62 3.84-2.26-1.66 2.37-1.28-.2-.61-9.41.72c.08 4.4.93 5.52 3 4.81.14 1.32-.11 3.1.53 4a10.68 10.68 0 0 0 4.06 3.38c2.2 1 3.94-.47 4.54-3.18l6.53 1.68-10.32 3.7 4.72 2.61-3.81 1.3 9.3 6.85c1.81-2.88 3.2-5.08 4.57-7.29a6 6 0 0 0 .74-1.44c1.6-5.75 3.41-7.42 8.41-7.67zm-125.24 104c3.15 1.32 5.5-.64 8-2a67.73 67.73 0 0 0 9.47-5.75c2.21-1.67 1.82-3.78-.48-5.36a4.06 4.06 0 0 1 -1.55-1.85c-.86-2.5-3.34-1.72-4.6-3.36-.1-.12-.89.17-1 .47-1 2.45-2.7 2.14-4.56 2.07a28.57 28.57 0 0 0 -5.37.8l.05.79-1.37-1c-1.29 1.5-2.31 2.68-3.91 4.56.54-4.14-1.15-6.27-3.25-6.52-2.86-.34-4.18 3.12-6.37 5.59l6.75-.11c-.09 4.44-3.91 1.85-5.23 4.15 5.05-.15 5.05-.15 6.41 3.61l-2.43 1.1c3.29 1.01 6.44 1.57 9.44 2.81zm-283.4-80 2.85 1.83-.72 1.7 2.44 1.94-.25.9c-2.28-.33-5 .12-6.74-1.16-2.56-1.85-5.23-3.16-7.79-4.67-3.54-2.09-5.51-1-7.8 1.13-1.07 1-1.64 2.72-2.51 4.25l3.14.27-4.84 1.45.19 1.22c3.81.36 7.74 4.09 11.35-1.22a9.71 9.71 0 0 0 .28 1.59h6.62v.31l-8.24 2.56c3.57 3.81 7.18 2.6 10.54.72a18.5 18.5 0 0 1 10.66-2.46c1.32.09 3.19 0 3.89-.91 1.14-1.53 2.35-4.07 2-5.79-.37-2-2.41-2.22-4.12-.62a2.05 2.05 0 0 1 -2.32-.19 75.73 75.73 0 0 1 -3.93-6.64zm652.85-30.91a17.69 17.69 0 0 1 .29-3.46c.91-3-.52-5.49-3.17-5-.75.13-1.43.89-2.19 1.39l-3.38-5.5 2.5-1.64c-1.63-1.21-3.06-2.42-4.61-3.34a5.38 5.38 0 0 0 -3.29-1 26.88 26.88 0 0 0 -5.87 2.08 11.38 11.38 0 0 0 -2.31 1.92c1.54 2.47-.59 2.07-1.47 2.62-.62.39-1.27.73-2.68 1.53l5.67 2.28a10.74 10.74 0 0 1 -3.21-.06 22 22 0 0 0 -3.36.44c2.95 3.08 6.26 3.56 8.1 1.59.93-1 1.95-1.89 2.93-2.83l.52.86-4.71 4.25c6.61 4.16 13.38 6.76 20.76 5zm113.21 241.74 1.38-.45c-.9 2.38-.56 4.79 1.52 4.33 1.39-.32 2.37-3.09 3.65-4.93 2 1.19 6.16.38 7.38-2.17 2.14 2 3.53.49 4.08-1.78.65-2.63.67-5.47 1.07-8.2a12.64 12.64 0 0 1 .92-3.25c1.43-3.23 3.25-4.8.65-9.14a8.49 8.49 0 0 1 -.57-1.56l-.82-2.4c-.85.42-2.06.56-2.46 1.31a10.89 10.89 0 0 0 -1.56 5c.15 6.8-2.69 11.55-8.56 13.38l.41-2.43a5.38 5.38 0 0 0 -1.55 2.2c-1.12 2-2 4.62-3.57 5.73-1.43 1-3.7.37-5.6.31-4.1-.13-6.14 3.58-8.7 6.33l-.08-.08c2.18 1.12 4.18-.25 6.26-.59zm120.6 286.8c-2.13 6.5-5.77 11.06-11.18 14.12-2.3 1.3-3.89 4.44-5.59 6.94-.34.5.08 2.61.48 2.76 2.24.87 4.59 1.89 6.9 1.86 3.81 0 5.57-3.63 6.26-7.37.78-4.2 2.91-5.3 6.69-5.28-2.32-1.62-1.54-2.53-.28-3.82a12.82 12.82 0 0 0 2.71-4.51c.45-1.26.18-2.87.24-4.32l-3.19.69c-.42-.69-1-1.62-1.84-3a11.18 11.18 0 0 0 -1.2 1.93zm-856.26-475.52a8.2 8.2 0 0 1 1.19 2.15 7.35 7.35 0 0 1 -2.41 1.23c-.51.05-1.05-1.13-1.66-1.26a10 10 0 0 0 -2.78.1c.34.9.46 2.23 1 2.65 3.39 2.45 7.36 3.81 9.94 7.81.29.44 1.87-.17 2.81-.47.34-.12.58-1.12.84-1.1 4.46.3 4.12-3.64 4.58-6.85l-4.86-3.42 3.14-4.06c-2.25-2.84-4.36-3.12-7.11-1.89-2.35 1.06-5.33.24-7 3.92a8.88 8.88 0 0 1 2.32 1.19zm139 122.78-6.58 14.33.58.3c-.84 1.18-1.53 2.13-2.6 3.61l13.6.66c-1.24 1.36-1.75 1.93-2.27 2.49l.47.8c1.74-1.39 3.48-2.77 5.84-4.63l-.86 3.92c4.19.47 4.19.47 3.16-5.46l-1.49 1.45-.37-.38c.63-1 1.26-2.09 2.1-3.46-4 1.16-1.83-1.91-1.81-3.75a31.69 31.69 0 0 1 -4 0c-.95-.11-2.24-.25-2.75-1-1.19-1.74-1.41-2.1-2.8-1.49 1.15-2.56 2.29-5.1 3.6-8l-3.9.69zm157.07-20.6c-1.19-1-5.94-.79-6.95.4-.4.48-1 1.3-.87 1.74.85 3.23-1.26 1.91-2.33 2.32-.77.29-2.09 1.09-2 1.41a30.14 30.14 0 0 0 1.39 4.58c.19 1.15-.45 2.4-1 3.69-.37.82-1.08 2.27-.9 2.45a5.17 5.17 0 0 0 2.72 1.67 5.53 5.53 0 0 0 2.81-.88c1.44-.69 2.79-1.95 4.27-2.19 3-.5 3.23-2.79 3.08-5.5a32.41 32.41 0 0 0 -.51-3.4c2.41-2.54 2.51-4.39.27-6.31zm465.37-132.31c-2-.52-4.09-.49-5.93-1.35-3.25-1.5-3.6-1.52-4.94 2.2-8.42-5.2-9.38-4.88-11.5 3.92 2.74 1.48 4.61 5.65 8.79 2.09 1.7-1.44 5.16.12 7.82 0 .88 0 1.74-.88 3.15-1.66 2.5 1.27 4.42-.39 5.63-3.93a21.11 21.11 0 0 0 -3.02-1.27zm-376.23-29-1.5-2.19-2.53 3c-1.68-.72-3.74-1.64-5.84-2.48-.49-.2-1.44-.36-1.55-.12-1.18 2.53-2.71 2.09-4.35.71-1.09 4.1-.27 4.71 7.37 5.29l-2.68.91a76.88 76.88 0 0 0 12.41 3.16c.36.07.76-.19 1.15-.24 3.33-.41 5.71-3.06 8.35-5.05.35-.27.11-2.61 0-2.63-3.59-.54-7.2-.92-10.8-1.32zm311.12 375.08c-2.6-.67-4.25.83-5 2.88a94.12 94.12 0 0 0 -3.33 11.95c-.16.69.34 2.26.73 2.37 2.55.68 1.77 2.67 1.48 4.49-.57 3.47-.31 3.73 2.77 2.71.18-9.53.18-9.53 1.27-9.85l2.78 7.52 3.97-2.24c-1.44-2.85-2.83-5.56-4.25-8.35l5.46-4.49c-.08-.27-.17-.53-.25-.8l-8.12 2.73a8.74 8.74 0 0 1 -1.71-2.21c-.78-1.84-.45-3.7 1.5-3.86a34 34 0 0 1 7.94.24c3.1.48 4.89-.75 5.76-5.22-3.21 4.74-7.25 3.09-11 2.13zm-693.93-328.48a18.74 18.74 0 0 0 5.27-.27 1.94 1.94 0 0 0 1.47-1 14.22 14.22 0 0 0 0-9c-.45-1.12-2.76-2.48-3.17-2.1-2 1.8-3.66-.25-5.44-.18-.93 0-1.85.16-2.34.2l4 4.53c-2.82.43-3.76-4.53-6.68-2.07.55 1.17 1 2.2 1.77 3.76-3.54-1.72-5.19-6.9-9.62-5.59 2.67 8.34 8.25 8.31 14.07 7.73l-2 1.59c1 .95 1.77 2.26 2.67 2.4zm864.45 469.48-1.24 1.82c-.48-.63-1.24-1.17-1.41-1.89-.83-3.58-1.84-6.82-6.07-7 1 1.85 1.95 3.44 2.77 5.1 1.15 2.31 2.94 4.62 3.09 7 .14 2.26-1.5 4.66-2.49 7.35.85.61 2.84 1.24 3.5 2.7.58 1.27-.33 3.49-.72 6.32 1.45-.58 3.12-.63 3.69-1.59a58.35 58.35 0 0 0 3.18-7.48c.2-.48.47-1.29.74-1.31 3.4-.28 3-3.66 4.32-7.63-4.73 3.04-8.21 3.29-9.36-3.39zm-811.44-399.5c2.81.74 5.32 5.87 9.53 1.3l-4.19-1.85a21.71 21.71 0 0 0 -3.75-3.79c-2.44-2.08-6.17-2.29-6.68-6.83-4.07 1.4-5 3.77-4.61 10.88l-2.64 2.79.32.62 4.07-.5 1.36 4zm702.87 41.93c-.14 1.26-.18 3.59-.42 3.61-2.4.25-1.42 2.43-1.89 3.86-1 3 .85 5.31 1.08 7.86.48 5.41 0 10.93-.06 16.41 0 2.56-.16 5.11-.25 7.67h.84c.36-.93.71-1.86 1.21-3.16l3.84 2.14c-1.29-2.37-2.12-4.1-3.11-5.68-1.78-2.84.14-5.16.87-7.47.24-.79 2.24-.8 3.67-1.25a26.55 26.55 0 0 1 -1.17-3.79c-.75-4.24-2.83-8-2.24-12.8.31-2.51-1.06-5.32-1.67-8zm-808.39-130.15a23.79 23.79 0 0 0 -5.42 1.41 17.87 17.87 0 0 0 -3.74 1.86q-4.18 2.74-8.23 5.72c-.49.35-1.13 1.4-1 1.7a2.84 2.84 0 0 0 1.58 1.41c1.88.66 4.15-1.92 5.9.94a10.75 10.75 0 0 0 2.23-1.49c.28-.23.35-.81.52-1.24 2.16 1.29 2.06-.81 2.45-2.25.27-1 .62-1.94.94-2.91l.75 1.28 1 3.07c.84-.46 1.67-.94 2.53-1.38.52-.27 1.24-.29 1.58-.73a7.84 7.84 0 0 0 1.28-2.57 33 33 0 0 0 .65-4 8.08 8.08 0 0 0 -3.02-.82zm701.86 379c2.83.7 5.75.84 8.61 1.38 2.51.47 5 1.3 7.5 1.72 3.1.53 6.24.84 9.36 1.16.36 0 1.09-.5 1.07-.65-.09-.58-.33-1.5-.66-1.6-2.07-.6-4.19-1-6.28-1.5a12.46 12.46 0 0 1 -1.92-1l4.2-1.55-7.48-1c-1.42-.19-2.63-1.07-4.24.43-1 .91-3.28.29-4.84-.23-2.86-1-5.61-2.37-8.29-3.54-1 1.86-1.5 2.83-2 3.82 1.74.97 3.29 2.11 4.97 2.56zm100.8-193.83 8.89 1.75c.41-4.61 4.75-3 6.61-4.8-.41-1.61-.73-2.9-1.06-4.16-4.93 2.33-7-3.89-10.51-6.18-.4 3.76-.74 7-1.07 10.1-4.08.13-4.89 2.12-3.73 8.19l2.81-2.06-2.17-2c.08-.26.15-.55.23-.84zm-698.08 95.38a46.1 46.1 0 0 1 4.64-2.58 5.51 5.51 0 0 1 3.26-.42c1.06.24 2 1.36 3 1.76 2.38.89 4.91 1.31 7.2 2.45 1.54.76 2.77 2.42 4.32 3.84-.1.19-.49.95-1 2l10.57-.9v-1c-2.11-1.17-4.15-2.7-6.37-3.41-3.49-1.11-5.92-4.32-9.73-5.35-4.09-1.11-7.88-2.31-11.9-1-1.69.55-3.15 2.08-4.72 3.17zm-68.29-287.89c1.12.33 2.28 1.06 3.36.94 3.9-.43 7.65-.9 10.82 2.94.64.78 2.43.34 3.67.21.31 0 .89-1.26.76-1.53-.92-1.86-1.68-4.31-3.1-5.24-2.16-1.4-4.82-1.72-7.27-2.49-.25-.08-.64 0-.73-.18-2-3.86-5.13-2-7.83-2-.59 0-1.19.86-1.85 1.37l3.18 2.4 1.5-1c.49 1.17.92 2.2 1.38 3.32l-3.65.05zm637.82-6.59c3.14-.73 6.26-1.57 9.4-2.3 1.72-.4 3.51-.5 5.21-1s2.3-2.68.88-3.55a60.92 60.92 0 0 0 -7-3.2s-.62-1.59-.78-1.52c-1.68.65-3.7 1.11-4.82 2.52-2 2.48-3.4 5.58-5.48 9.13a14.76 14.76 0 0 0 2.59-.08zm72.1 297.36c-4.12-.77-4.11-.78-4.3 4.29a11.22 11.22 0 0 1 -.34 2.73 10.43 10.43 0 0 1 -1.38 2.15 7.41 7.41 0 0 0 .66 2.87c1.29 2 1.36 5.21 4.35 5.52a22.13 22.13 0 0 1 5.8 1.66c.93.36 1.69 1.31 3 2.37-2.36-6-3.39-6.77-7.68-6-.19-1.75-1.12-4.34-.47-5.14 2.4-3 2.65-6.12 1.89-9.76a4.68 4.68 0 0 1 .08-1 4.94 4.94 0 0 1 -1.66.31zm77.43 233.22a4.84 4.84 0 0 0 3.43 2.63c1.33 0 3.53-1 3.88-2.14.91-3.06 1-6.46 1.4-9.47l-11.71.18a81.84 81.84 0 0 0 3 8.8zm-71.24-193.74c.4-.12 1.51.92 1.46 1.15-1.14 4.87 2 5.07 4.92 6.28-.11-1.77-.2-3.23-.24-3.91 1.25-.72 2.57-1 3-1.8.92-2-1.22-7.77-2.66-8.82l-4.56 4.65c-1.28-.38-2.46-1.15-2.85-.77-1.62 1.56-4.55 2.05-4.06 5.2a51.62 51.62 0 0 1 4.99-1.98zm-616.29-30.91-.05 1.26c1.52.14 3 .22 4.55.43s3.21.56 4.95.86a27.4 27.4 0 0 1 4.22-1.59 40.27 40.27 0 0 1 5.57-.46c-4.06-4.76-12.25-7-15.69-5l2.69 4.91zm292.33-307.45-2.64 1.49 3.71 4.62c-.51 1-1 2-1.75 3.4l5.07-.64c.39 2.36.39 2.36 6.91-2.18-2.38-1.25-5.09-2.05-7.06-3.94-1.39-1.33-2.43-2.76-4.33-2.66zm-316.33 45 2.25 1.8c.75.6 1.52 1.74 2.26 1.71 3.28-.13 6.54-.59 9.82-.93-2.19-5.07-6.86-6.88-14.51-5.54.1 1 .19 2 .28 3.06zm410.85-63.17c-4-3.16-5-2.94-8.19.77-1.43-.77-2.58-1.93-3.66-1.86a70.89 70.89 0 0 0 -8.39 1.45c3.24 3.86 6.39-.67 9.55.45l-4.94 2.6c6.47 3.99 10.38-3.38 15.63-3.41zm93.54 354.17a73.36 73.36 0 0 0 0 7.56c.14 1.92.7 3.84 3 3.1 2.09-.67 3.88-1.94 3.1-4.88a17.63 17.63 0 0 0 -5.53-9.37c-.28 1.47-.53 2.5-.57 3.59zm-71-354.8.33-1.65-3.61-2.19 1.45-2.43c-3.34-3.11-5.63 1.67-8.68 1.73a8.3 8.3 0 0 0 3.3.68c2 .05 2 0 1.76 2.05-7.32-1.94-7.43-1.93-9 2zm-488.91 24.17c1.37 2.06 2.41 5 4.2 6s4.39.16 7.21.12c-.6-2.07-.7-4-1.32-4.3-3-1.29-6.06-2.13-9.11-3.13zm716.86 231.81c-1.38 1.05-2.77 2.08-4 3 .91 2.81 1.76 5.45 2.79 8.61.67-.26 2.23-.33 2.52-1.09a34.32 34.32 0 0 0 1.72-7.21c.07-.46-1.08-1.17-1.66-1.78s-1-1.08-1.45-1.63zm-703.86-201.18c.9.21 2.71-.37 2.78-.87a7 7 0 0 0 -.64-4.16c-1.54-2.55-3.82-2.78-6-1.32-1.13.75-2 2.1-3.52 3.81a76.68 76.68 0 0 0 7.38 2.54zm-55.48-19.39a9.28 9.28 0 0 0 5.43-1.14c1-.66 1.32-2.9 2.21-5.09l-10.87 1.62c-.4 3.9 1.57 4.5 3.23 4.61zm805 4.39c1.79.63 3.49 1.74 5.3 2.12 2.67.55 5.44.76 8.13-2.39l-14.18-2.84c-.81 1.19-1.34 2.35.75 3.11zm101.41 24.9a10.22 10.22 0 0 0 -1.6 2.6l.68.59 11.31-1.71c-3.7-4.2-6.91-4.38-10.39-1.48zm-175.81 234.51a38.24 38.24 0 0 0 1.2-5.34 8.44 8.44 0 0 0 -.24-2.19c-.7.14-1.58 0-2.09.47-3.42 3-3.72 7.48-.83 11.65a47.92 47.92 0 0 0 1.96-4.59zm-620.32-200.77a6.64 6.64 0 0 0 -.3 3.66c1.46.56 3.39 1.37 4.51.65s1.77-3.12 2.84-5.23c-3.33-1.43-5.59-1.93-7.05.92zm717.07 305.36a6.89 6.89 0 0 0 1-3.71c0-.32-1.3-.77-2.26-1.31 0 3.42-1.6 4.71-3.72 5a63.45 63.45 0 0 1 -7.09.17c4.83 3.91 8.81 3.74 12.07-.15zm-134.78-90.62c-1.24 1.15-2.43 2.8-1 4.26a3.75 3.75 0 0 0 4 .24c1.28-.91 2-3 3.41-5.36-2.62-.66-4.58-.84-6.41.86zm-314.42-73.79c.1 2 .66 3 2.22 1.33.72-.79 1.68-1.84 1.73-2.83a36.58 36.58 0 0 0 -.65-5.94l-3.63 1.26c.18 2.34.23 4.26.33 6.18zm357.85 108.15-1.76 2.35 2.72 2.67 2.81-7.11-.58-.29-.69 1-5.24-5c-.09 2.3-.15 3.74-.21 5.16zm59.43-293.92c-.2-3.67-2.24-4.28-4-4.86-2.25-.74-4.25-.11-5.6 3.31zm-925.5 109.18c1.16 4 1.64 4 7.45-1.14l-1.54-2 2.38-1.52-1.69-1.34zm126.82-135 12.15-.19c-1.98-4.36-8.11-4.01-12.15.19zm742.53 395.69 11.26-7.52c-5.95-.65-10.72 2.36-11.26 7.52zm24.54-165c.17.46.34 1 .54 1.46s.44 1 .61 1.4c1.39-1.35 2.38-3.12 3.24-3 3.21.37 3-2.29 3.45-4.57l-6.15 1.56zm-227.72-255.88c1.59-.62 3.21-1.16 4.75-1.91.4-.19.56-1 .83-1.6-.49-.31-1-.89-1.47-.87a31.39 31.39 0 0 0 -5.8.63c-.64.15-1.1 1.32-1.65 2a15.6 15.6 0 0 0 2 1.31c.31.14.76-.14 1.14-.23zm7.12-2.59c2.35-.37 4.71-.64 7-1.19.55-.13.93-1.23 1.39-1.88-.81-.49-1.78-1.59-2.41-1.37a53.47 53.47 0 0 0 -6.18 3zm173.16 415.78a27.32 27.32 0 0 0 -1.22 2.64l10.72-.92c-3.42-4.25-6.67-.31-9.5-1.72zm-667.44-384c2.76 2.72 8.46 2.38 10.18-.16zm678.79 386.33 15.81-2.33v-.71l-15.93 1.09zm-221.67-333.76c-1.36-.49-2.77-1.45-4.07-1.3-.83.09-2.1 1.82-2.13 2.87-.06 2 1.4 2.36 2.78 1.67a33.46 33.46 0 0 0 3.45-2.26zm21.44-79.36a24.49 24.49 0 0 0 4.67-2.28c-4.71-1.72-8.26-.91-10 2.44 1.94-.03 3.7.24 5.33-.16zm-590.2 173.38-.58.86 4.77 7.61.6-.52c-.35-2.4-.71-4.8-1.1-7.49zm803.31 164.32q.78 2.89 1.55 5.78l.91-.26c-.11-1.22-.23-2.44-.34-3.66l1.63-.28c-.76-5.46-.76-5.46-4.2-4.59l2.23 3.67zm13.75 37.65-2.7-2.68c-1.73 3.18-1.15 8.45 1.19 9.61l-.84-3.71 1.91.15c.21-1.6.37-2.81.44-3.37zm-2.06 15.82.24 1.85 8.64-.13c-.79-2.23-7.33-4.05-8.88-1.72zm114.29 61.71c1 4 4.75 7.24 8.48 7.26zm-771.21-329.15c-1.39.22-2.89.13-4.12.78-.74.39-1.06 1.92-1.57 2.94.94.2 2.09.91 2.78.51a19.19 19.19 0 0 0 3.37-3.27zm-279.38 1.36a12.67 12.67 0 0 0 1.82.81c1 .29 2 .48 3.06.67 1.47.27 3 .5 4.42.75l.14-1.37-9-2.23zm310.89 478a28.25 28.25 0 0 0 2 3.4c1.27 1.59 2.6 3.79 4.6 1l-4.28-4.11zm32.62-409.7-7.82-3.21-.45 1.48 7.74 3.45c.18-.61.35-1.18.53-1.76zm221.31 32.89 1-7.16c-3.82 2.27-3.99 3.75-1 7.12zm338.18 123.51 7.23-8-.74-1.51-6.92 9c.14.15.28.34.43.51zm-602.65-26.9-6.11-1.23c-.08.64-.15 1.27-.22 1.91l6.14.82zm335.83-71.18c3.32 2.21 5.15 1.37 6.21-2.22zm-298.72-43.83c1.5-.54 3.76 2.9 4.59-.78l-6.57-1.86 2.09 2.76zm413.78-154.6 4.61-1.15c0-.41.07-.82.1-1.23-1.24-.29-2.5-.88-3.71-.74-.64.07-1.17 1.4-1.76 2.16zm129.09-10.8c1.93 1.21 3.84 2.19 5.69-1.85l-5.83.62c.05.41.09.82.14 1.23zm-866.13 101.99 5.18 1.12c-1-5.15-3.25-2.2-5-2.13zm152.8-104.52-5.47 3.62c3.67 2.44 4.62-.65 6-2.82zm82.58-12.55c0 .63-.18 1.67 0 1.82 1.34.87 2.78 2.37 4.3-1.16zm223.85-20.22 5-1.32c-.12-.62-.23-1.24-.35-1.85l-5 1.19c.12.66.23 1.32.35 1.98zm-421.07 311.06.47 5.9 3.6-2.47c-1.35-1.15-2.33-1.96-4.07-3.43zm565.36-67.05-7.94-1.34-.15 1.33 8 1.22c.01-.4.05-.81.09-1.21zm477.46 191.81c-.83-.53-1.68-1.52-2.47-1.46s-1.58 1.15-2.36 1.78c.1.36.21.71.31 1.07l4.18-.07c.16-.44.23-.88.34-1.32zm-886.91-412.42-4.53-3.72-.47.86c1.12 2 1.79 4.66 4.52 3.89zm269.18 11a5.66 5.66 0 0 0 -2.41-.69c-.21 0-.45 1-.68 1.61a9 9 0 0 0 2.15 1.07 9.42 9.42 0 0 0 2.61-.24c-.76-.82-1.12-1.47-1.67-1.76zm-251.73-31.42c-.54-.87-.95-2.21-1.65-2.49s-1.91.26-2.88.46l.17 1 3.64 1.66zm689.6 325.25c0-1.18.33-2.7-.16-3.46s-1.83-.85-3.52-1.51l2.77 5.18zm-6.22 80.43 5.22 2 .41-1.77-5.43-1.78zm110.26-16.73q1.65 2.55 3.28 5.1l1.12-1-3.52-4.88zm-732-267.85-.07-4.11c-.74.29-2.08.48-2.12.87a13.48 13.48 0 0 0 .49 3.5zm318.64 10.18a6.21 6.21 0 0 0 -1.28-.94q-1 2.52-1.94 5.06l.76.33 3.63-2.42a15.38 15.38 0 0 0 -1.17-2.03z" fill="url(#a)" opacity=".18"/></svg>