<svg height="439.36" viewBox="0 0 1421.55 439.36" width="1421.55" xmlns="http://www.w3.org/2000/svg" xmlns:xlink="http://www.w3.org/1999/xlink"><linearGradient id="a" gradientUnits="userSpaceOnUse" x2="1421.55" y1="219.68" y2="219.68"><stop offset=".08" stop-color="#028bbc" stop-opacity=".2"/><stop offset=".3" stop-color="#028bbc" stop-opacity=".8"/><stop offset=".7" stop-color="#93e019" stop-opacity=".8"/><stop offset="1" stop-color="#93e019" stop-opacity=".2"/></linearGradient><path d="m169 379.62q-16.59 0-32.18-1.43c-55.91-5.09-101.91-24.51-136.71-57.72a.35.35 0 0 1 0-.5.35.35 0 0 1 .5 0c34.68 33.1 80.53 52.45 136.3 57.53 49.11 4.47 105.29-1.6 171.75-18.55 121.15-30.95 251.7-92.7 356.6-142.34 109.07-51.61 195.22-92.37 221.74-75.61 5.75 3.65 8.67 10 8.67 18.93a.35.35 0 0 1 -.35.35.35.35 0 0 1 -.32-.28c0-8.78-2.73-14.77-8.35-18.33-26.22-16.6-112.21 24.1-221.08 75.61-104.94 49.62-235.52 111.41-356.75 142.34-52.47 13.38-98.55 20-139.82 20zm533.27-157.86c91-51.23 162.82-91.69 185.21-78.6 5 3 7.51 8.45 7.51 16.81a.35.35 0 0 0 .35.35.35.35 0 0 0 .35-.35c0-8.52-2.64-14.38-7.85-17.42-22.74-13.3-91.19 25.25-185.92 78.6-201.18 113.29-505.2 284.51-653.58 105a.36.36 0 0 0 -.5-.05.35.35 0 0 0 0 .5c46.55 56.4 108.41 78.28 177.59 78.28 151.67 0 338.57-105.23 476.84-183.12zm-444.27 117.63c58.56-1.52 120.22-11.26 183.26-28.93 115.74-32.46 219.21-86.78 294.74-126.46 73.15-38.4 126-66.15 147.69-53 7.6 4.6 11.3 14.07 11.3 29a.35.35 0 0 0 .35.35.35.35 0 0 0 .35-.35c0-15.17-3.8-24.85-11.63-29.58-22-13.32-75 14.51-148.39 53-75.5 39.58-178.91 93.91-294.67 126.36-63 17.66-124.59 27.38-183.09 28.9-67.92 1.77-134.3-7.41-197.29-27.29a.35.35 0 1 0 -.21.67 600 600 0 0 0 181.13 27.54q8.19 0 16.46-.21zm75.92 25.74c117-33.39 242.09-94.77 342.63-144.08 104.56-51.29 187.15-91.8 211.23-76.8 4.87 3 7.24 8.18 7.24 15.72a.35.35 0 0 0 .35.35.35.35 0 0 0 .35-.35c0-7.7-2.54-13.19-7.57-16.32-24.44-15.21-107.15 25.35-211.94 76.76-100.52 49.31-225.61 110.67-342.51 144-64.14 18.31-118.53 26.39-166.3 24.69-54.26-1.9-99.19-17.1-133.55-45.1a.34.34 0 0 0 -.49.05.33.33 0 0 0 0 .49c34.48 28.15 79.55 43.4 134 45.34q6.24.23 12.63.22c44.77-.04 95.28-8.23 153.9-24.97zm51.48-41.86c99.29-31.24 187.9-90.89 266.09-143.52 84.65-57 151.52-102 196.56-85.46 21.36 7.85 36.73 29.36 47 65.77a.35.35 0 0 0 .43.25.36.36 0 0 0 .25-.44c-10.32-36.65-25.83-58.31-47.42-66.24-45.42-16.63-112.42 28.44-197.24 85.53-78.15 52.61-166.72 112.23-265.91 143.43-115.47 36.32-220.16 25.41-320.03-33.46a.35.35 0 1 0 -.36.61c61.72 36.36 125.26 54.46 192 54.46 41.53 0 84.28-6.99 128.6-20.93zm237.25-58.09c140.09-28.28 240.32-73.34 266.75-96.31 4.31-3.74 6.43-6.74 6.32-8.92a.35.35 0 1 0 -.7 0c.07 1.35-.93 3.89-6.08 8.36-26.37 22.92-126.46 67.9-266.43 96.15-71.08 14.35-165.91 27.16-278 27.16a1492.94 1492.94 0 0 1 -283.89-27.33.35.35 0 0 0 -.41.28.35.35 0 0 0 .28.41 1491.92 1491.92 0 0 0 284 27.37c112.11 0 207.02-12.81 278.13-27.17zm82.67-57c93.17-45.56 160.48-78.48 182.28-64.87 5 3.11 7.42 8.55 7.42 16.63a.35.35 0 0 0 .35.35.35.35 0 0 0 .35-.35c0-8.34-2.53-14-7.74-17.23-22.13-13.82-89.6 19.17-183 64.83-175.98 86.07-441.83 216.08-647.38 147.66a.36.36 0 0 0 -.45.22.36.36 0 0 0 .23.45c40.34 13.42 83 19.22 126.8 19.22 179.82-.01 379.57-97.67 521.11-166.88zm-339.18 126.7c109-33.6 218.64-82.13 306.76-121.12 106.81-47.26 191.17-84.59 215.05-69 4.73 3.08 7 8.07 7 15.25a.35.35 0 0 0 .35.35.35.35 0 0 0 .35-.35c0-7.33-2.47-12.66-7.36-15.84-24.2-15.75-104.53 19.79-215.71 69-88.11 39-197.76 87.5-306.69 121.08-127.33 39.27-229.44 51-312.15 35.89a.37.37 0 0 0 -.41.29.36.36 0 0 0 .29.41 412 412 0 0 0 74.4 6.37c67.79-.05 146.43-14.06 238.12-42.33zm295.7-96.43c79.21-13.14 133.07-28.9 164.3-39.81 41.39-14.46 62.16-26.94 67.78-33.8 1.6-2 2.19-3.62 1.76-5a.36.36 0 0 0 -.68.21c.36 1.12-.19 2.57-1.62 4.32-5.57 6.79-26.22 19.17-67.47 33.58-31.21 10.9-85 26.65-164.18 39.78-122.1 20.27-327.46 37.71-612.44 5.84a.35.35 0 0 0 -.39.31.36.36 0 0 0 .31.39c113.39 12.73 214.15 17.56 302.11 17.56 133.17 0 236.97-11.19 310.52-23.38zm42.48 123.88c59.11-34.77 132.67-78.05 227-113.68a979.07 979.07 0 0 1 156.22-44.75 968.92 968.92 0 0 1 186.75-18 .35.35 0 0 0 .35-.35.35.35 0 0 0 -.35-.35 960.11 960.11 0 0 0 -343.22 62.8c-94.38 35.65-168 78.94-227.11 113.73-64.6 38-107.28 63.11-131.11 49.48-16.27-9.31-23.53-36.33-23.53-87.63a.36.36 0 0 0 -.71 0c0 51.58 7.37 78.8 23.89 88.24a31 31 0 0 0 15.75 3.84c25.42-.01 63.52-22.42 116.07-53.33zm-22.26 2.67c111-73.91 296.72-197.62 570.5-144a.36.36 0 0 0 .13-.7c-274.06-53.68-459.95 70.12-571 144.09-44.49 29.63-76.44 50.91-98 50.91a24.88 24.88 0 0 1 -12-2.81c-15.49-8.29-22.4-35.73-22.4-88.95a.36.36 0 0 0 -.71 0c0 53.52 7 81.14 22.78 89.57a25.43 25.43 0 0 0 12.3 2.89c21.79 0 53.83-21.31 98.4-51zm-18.26-4.34c57.74-43.66 136.82-103.39 242.51-137.23a536.85 536.85 0 0 1 178.35-25.43c70.72 1.87 144.62 17.66 219.63 46.91a.35.35 0 0 0 .46-.21.35.35 0 0 0 -.2-.45c-75.09-29.28-149.07-45.08-219.87-47a537.55 537.55 0 0 0 -178.59 25.5c-105.8 33.88-184.93 93.68-242.71 137.34-45.72 34.55-75.92 57.38-94 48.4-13.9-6.92-20.1-33.12-20.1-84.93a.36.36 0 0 0 -.71 0c0 52.12 6.32 78.5 20.5 85.56a20.17 20.17 0 0 0 9.11 2c18.82.04 46.59-20.95 85.62-50.45zm102.94-75.33c73.49-38.2 165-85.75 262.56-122.76 114-43.24 214.9-64.26 308.4-64.26a.36.36 0 0 0 0-.71c-93.58 0-194.54 21-308.65 64.31-97.64 37-189.13 84.58-262.64 122.8-101.08 52.54-174.12 90.51-203.29 72.8-9.29-5.64-13.8-16.74-13.8-33.95a.36.36 0 0 0 -.71 0c0 17.47 4.63 28.77 14.14 34.55 5 3.06 11.37 4.49 18.88 4.49 36.47.01 101.13-33.6 185.11-77.26zm-97.74 83.26c40.28-17.7 88.83-45.95 145-78.66 79.14-46.06 168.84-98.25 267.22-139.85 114.35-48.35 216.32-71.85 311.72-71.85a.36.36 0 0 0 0-.71c-95.5 0-197.55 23.52-312 71.91-98.41 41.57-188.13 93.82-267.28 139.89-56.2 32.7-104.73 60.94-145 78.63-43.93 19.31-73.2 23.65-92.13 13.68-16.08-8.48-25-27.48-27.24-58.08a.35.35 0 0 0 -.38-.33.34.34 0 0 0 -.32.38c2.27 30.86 11.3 50 27.61 58.65 6.64 3.5 14.52 5.26 23.83 5.26 17.54 0 40.11-6.25 68.97-18.92zm104.76-77.59c147-74.43 348.28-176.38 550.75-176.38a.35.35 0 0 0 .36-.35.36.36 0 0 0 -.36-.35c-202.64 0-404 102-551.07 176.45-103.33 52.33-178 90.14-208.85 71.18-10.27-6.31-15.27-18.74-15.27-38a.36.36 0 0 0 -.71 0c0 19.52 5.11 32.15 15.61 38.6 5.62 3.46 12.65 5.06 21 5.06 38.06.02 103.64-33.21 188.54-76.21zm-83.37 50.61c61.33-40.49 145.33-95.95 246.71-140.15 55.2-24.07 111-42.77 166-55.6a851.36 851.36 0 0 1 193.19-22.45.34.34 0 0 0 .35-.35.35.35 0 0 0 -.35-.35 851.72 851.72 0 0 0 -193.39 22.49c-55 12.83-110.84 31.55-166.08 55.63-101.44 44.23-185.46 99.7-246.82 140.17-55.34 36.53-94.9 62.65-118.2 62.65a21.55 21.55 0 0 1 -11.56-3c-12.72-7.84-16.19-32.34-10.92-77.12a.36.36 0 0 0 -.31-.39.35.35 0 0 0 -.39.31c-5.31 45.08-1.73 69.8 11.25 77.8a22.17 22.17 0 0 0 11.88 3.05c23.59.08 63.25-26.1 118.64-62.67zm32.61 48.29c51.42-36.2 121.84-85.78 228.37-131.75 58.27-25.15 121.66-46.58 188.4-63.69 78-20 163.17-34.81 253.26-44a.35.35 0 0 0 .32-.39.34.34 0 0 0 -.39-.31c-90.13 9.23-175.38 24.05-253.36 44-66.78 17.13-130.2 38.57-188.51 63.73-106.6 46-177 95.61-228.5 131.82-49.21 34.65-78.92 55.57-104 47.66-22.9-7.21-42.32-39.05-69.24-113.53a.35.35 0 0 0 -.45-.21.34.34 0 0 0 -.21.45c27 74.72 46.54 106.67 69.69 114a37.37 37.37 0 0 0 11.25 1.7c23.07-.02 51.01-19.7 93.37-49.48zm49.7-101.69c151.3-76.69 358.43-181.73 568.14-181.73a.35.35 0 0 0 .35-.35.35.35 0 0 0 -.35-.35c-209.88 0-417.13 105.08-568.46 181.8-85.32 43.26-151.11 76.62-188.54 76.62-8 0-14.68-1.52-20-4.79-9.78-6-14.53-17.72-14.53-35.84a.36.36 0 0 0 -.71 0c0 18.38 4.87 30.3 14.87 36.45 5.41 3.32 12.21 4.87 20.31 4.86 37.7 0 103.57-33.39 188.92-76.67zm-19-5.23c76.42-44.29 171.54-99.41 267.59-134 112.15-40.42 204.71-45.9 283-16.76a.34.34 0 0 0 .45-.21.35.35 0 0 0 -.2-.45c-78.43-29.2-171.16-23.72-283.47 16.75-96.07 34.62-191.25 89.75-267.7 134.06-90 52.15-161.07 93.34-189.8 76.78-9.59-5.53-14.25-17.16-14.25-35.58a.36.36 0 0 0 -.71 0c0 18.69 4.78 30.53 14.6 36.19 4.49 2.58 10 3.79 16.36 3.78 35.13 0 97.86-36.35 174.16-80.54zm-47.26 58.28c74.48-45.06 176.47-106.76 297-156 65.64-26.81 131.37-47.65 195.35-61.93a1022.65 1022.65 0 0 1 222.38-25 .36.36 0 0 0 0-.71 1023.42 1023.42 0 0 0 -222.53 25c-64 14.29-129.79 35.14-195.47 62-120.58 49.25-222.6 111-297.09 156-80.34 48.6-133.41 80.7-154.29 65.63-12.48-9-13.28-35.27-2.51-82.63a.34.34 0 0 0 -.26-.42.36.36 0 0 0 -.43.26c-10.84 47.68-10 74.17 2.79 83.37 3.63 2.62 8.2 3.85 13.67 3.85 26.61.03 74.62-29.01 141.42-69.42zm61.26-59.86c77.88-39.9 174.8-89.56 279.28-128.51 122.32-45.59 230.76-67.75 331.53-67.75a.36.36 0 0 0 0-.71c-100.85 0-209.38 22.18-331.78 67.8-104.52 39-201.46 88.63-279.35 128.55-85.64 43.88-151.48 77.61-187.47 77.61-7.2 0-13.21-1.35-17.94-4.24-8.51-5.21-12.65-15.21-12.65-30.58a.36.36 0 0 0 -.71 0c0 15.64 4.25 25.84 13 31.18 4.83 2.95 10.94 4.32 18.26 4.32 36.25 0 102.13-33.76 187.83-77.67zm-82.78 24.32c70.16-27.72 166.25-65.72 279.89-91.28a1150.15 1150.15 0 0 1 183.19-26.28 1001.74 1001.74 0 0 1 205.34 8.73.37.37 0 0 0 .4-.3.35.35 0 0 0 -.29-.4 1002.53 1002.53 0 0 0 -205.45-8.73 1150.65 1150.65 0 0 0 -183.31 26.29c-113.69 25.52-209.81 63.55-280 91.32-68 26.9-112.93 44.68-128.89 33.83-4.34-2.95-6.45-8-6.45-15.33a.36.36 0 0 0 -.71 0c0 7.62 2.22 12.82 6.76 15.91 3.35 2.28 7.92 3.33 13.67 3.33 22.11 0 61.69-15.65 115.85-37.09zm74.49 5.41c71-28.85 159.3-64.77 254.58-87.06 111.36-26.06 211-28.9 304.44-8.7a.35.35 0 0 0 .15-.69c-93.6-20.23-193.29-17.38-304.76 8.7-95.32 22.31-183.68 58.23-254.68 87.1-91 37-156.82 63.76-189.43 45.79-10.84-6-17.51-16.69-20.39-32.76a.37.37 0 0 0 -.41-.29.36.36 0 0 0 -.29.41c2.93 16.3 9.71 27.18 20.75 33.26 7.25 4 16.12 5.81 26.5 5.81 36.71 0 92.43-22.7 163.54-51.57zm-31.51-38.69c67.1-11.44 117.51-28.66 145.93-49.89 25-18.7 32.38-39.81 21.83-62.73a.35.35 0 0 0 -.47-.17.34.34 0 0 0 -.17.46c10.39 22.58 3.12 43.4-21.61 61.87-28.34 21.16-78.69 38.37-145.63 49.77-64.65 11-139.55 15.82-216.63 13.92-80.54-2-157.38-11.27-222.23-26.88-72.81-17.53-127.47-42-162.45-72.57a.35.35 0 1 0 -.47.53c35.07 30.7 89.83 55.17 162.76 72.72 64.89 15.62 141.79 24.93 222.38 26.91q16.43.4 32.68.4c65.5 0 128.57-4.89 184.08-14.34zm-164.71-21.19c189.28-35.79 326.24-72 333.08-88a3.05 3.05 0 0 0 -.68-3.55.35.35 0 0 0 -.49 0 .35.35 0 0 0 0 .5 2.37 2.37 0 0 1 .54 2.78c-6.64 15.56-146.5 52.38-332.56 87.56-207.74 39.29-395.24 62.74-501.58 62.74a.35.35 0 0 0 -.35.35.34.34 0 0 0 .35.35c106.38.02 293.93-23.45 501.69-62.73zm-157.73 49.12c106.89-11.52 209.59-67.17 292.11-111.9 74.83-40.55 133.94-72.59 169.66-59.29 12.61 4.7 21.7 14.81 27.78 30.91a.36.36 0 0 0 .45.21.35.35 0 0 0 .21-.46c-6.16-16.3-15.38-26.55-28.19-31.32-36-13.41-95.26 18.69-170.25 59.33-82.46 44.69-185.09 100.32-291.85 111.81-58.56 6.31-111.63-.93-162.22-22.13-57.51-24.1-111.33-67.06-160-127.67a.35.35 0 1 0 -.55.44c48.74 60.7 102.66 103.7 160.28 127.88a312.25 312.25 0 0 0 122.58 24.39 374.75 374.75 0 0 0 39.99-2.2zm116.21 10.68c64.94-7.27 131-21.29 191-40.55 52.45-16.84 99.9-37.62 133.59-58.51 31.86-19.77 49.41-38.24 49.41-52a.36.36 0 0 0 -.35-.36.35.35 0 0 0 -.35.36c0 13.52-17.44 31.79-49.09 51.42-33.64 20.86-81 41.61-133.43 58.43a997 997 0 0 1 -190.88 40.52c-114.75 12.84-285.4 11.34-446.71-68.69a.36.36 0 0 0 -.31.64c116.83 58 238.52 74.76 340.39 74.76a963.16 963.16 0 0 0 106.73-6.02zm74.22 6.43a745.39 745.39 0 0 0 146.67-45.37c43.1-18.42 82.65-40.51 111.36-62.22 26.55-20.06 41.77-38.26 41.77-49.92a.36.36 0 0 0 -.35-.36.35.35 0 0 0 -.35.36c0 22.23-58.39 71.18-152.71 111.49a744.42 744.42 0 0 1 -146.53 45.32c-58.42 11.66-116.4 15.84-172.34 12.41-64-3.91-125.29-17.84-182.17-41.38-64-26.49-123.22-65.54-176-116.06a.35.35 0 0 0 -.5 0 .36.36 0 0 0 0 .5c52.89 50.58 112.2 89.68 176.27 116.2 56.91 23.55 118.28 37.55 182.35 41.45q19 1.16 38.21 1.16a687.55 687.55 0 0 0 134.32-13.58zm347.37-97.08c148.84-86.84 302.74-176.65 389.24-176.65a.36.36 0 0 0 .36-.35.35.35 0 0 0 -.36-.35c-86.69 0-240.68 89.85-389.6 176.75-82.2 48-159.84 93.26-225.76 123.66-35.4 16.32-64 26.75-87.48 31.89-26.2 5.73-45.42 4.79-58.76-2.87-14.32-8.22-21.58-24.68-21.58-48.91a.36.36 0 0 0 -.71 0c0 24.5 7.38 41.17 21.94 49.52 7.91 4.55 17.77 6.65 29.35 6.65 70.29-.01 203.5-77.74 343.36-159.34zm-270 152.43c40.25-22.79 89.19-58.48 141-96.27 140.48-102.46 315.29-230 465.63-214.73a.35.35 0 0 0 .38-.31.35.35 0 0 0 -.31-.39c-150.63-15.26-325.57 112.33-466.14 214.87-51.82 37.76-100.71 73.44-140.92 96.21-44.39 25.14-74.27 32.41-94 22.88-18.27-8.82-27.93-32.22-29.56-71.53a.34.34 0 0 0 -.37-.34.35.35 0 0 0 -.33.37c1.63 39.6 11.43 63.19 30 72.13a44 44 0 0 0 19.45 4.1c18.62 0 43.15-8.82 75.15-26.99zm274.74-160.67c80.45-51.15 163.65-104 239.55-144.12 85.8-45.31 149.85-67.33 195.82-67.33a.36.36 0 0 0 .36-.36.36.36 0 0 0 -.36-.35c-46.08 0-110.25 22.05-196.15 67.41-75.92 40.1-159.13 93-239.6 144.16-141.27 89.81-275.72 175.29-346.43 175.28-10.65 0-19.86-1.94-27.42-6.09-16.45-9-24.45-27.74-24.45-57.19a.36.36 0 0 0 -.71 0c0 29.73 8.12 48.64 24.82 57.81 7.64 4.2 16.93 6.16 27.69 6.16 71.03-.01 205.55-85.54 346.88-175.38zm-249.2 54.92c64.79-9.63 112.11-22.47 144.68-39.26 35.13-18.12 52.21-40.31 52.21-67.85a.36.36 0 0 0 -.35-.36.35.35 0 0 0 -.35.36c0 27.25-17 49.24-51.83 67.22-32.5 16.81-79.76 29.58-144.46 39.19-134.29 19.95-326.98 22.62-497.77 22.62a.36.36 0 0 0 0 .71c170.81.02 363.54-2.71 497.87-22.63zm-329.64 65.38c110.74-25.25 218.72-76.4 305.48-117.46 54.55-25.84 101.67-48.16 139.47-59.82 41.17-12.71 66.9-11.1 81 5.06a.35.35 0 0 0 .5 0 .36.36 0 0 0 0-.5c-14.28-16.39-40.24-18.07-81.71-5.27-37.85 11.68-85 34-139.56 59.86-86.73 41.08-194.67 92.21-305.34 117.44-129.31 29.48-237.93 18.7-332.06-33a.35.35 0 0 0 -.34.62c50 27.44 105.4 43.55 164.69 47.9q17.21 1.26 34.83 1.26c41.8.04 85.65-5.29 133.04-16.09zm-33.56 18.74c93.95-27.05 182.54-74.51 260.7-116.38 60.29-32.3 117.24-62.8 167.39-79 55.55-17.82 97.31-16.45 131.46 4.45a.36.36 0 0 0 .49-.12.34.34 0 0 0 -.12-.48c-34.32-21-76.28-22.44-132-4.48-50.21 16.17-107.19 46.7-167.51 79-78.13 41.85-166.68 89.29-260.55 116.32-107.86 31.06-205.5 30.13-298.52-2.83a.35.35 0 0 0 -.45.21.36.36 0 0 0 .21.46 439.8 439.8 0 0 0 148.3 25.49c48.18 0 98.2-7.55 150.6-22.64z" fill="url(#a)"/></svg>