<svg height="74.49" viewBox="0 0 221.93 74.49" width="221.93" xmlns="http://www.w3.org/2000/svg"><g fill="#070c00"><path d="m64.78 44.43a25.36 25.36 0 0 0 9.61-1.88 37.39 37.39 0 0 0 -27.39-41.55 25.35 25.35 0 0 0 -6.5 10.7 25.37 25.37 0 0 1 21.25 32.55 25.16 25.16 0 0 0 3 .18"/><path d="m64.71 56.67a37.23 37.23 0 0 1 -9.85-1.32 25.37 25.37 0 1 1 -27.09-41.91 37.27 37.27 0 0 1 4.89-13.44 37.4 37.4 0 1 0 36.79 56.37 37 37 0 0 1 -4.74.3"/><path d="m43.71 52.13c-11.59-1.19-19.92-12.56-18.6-25.41 0-.35.08-.71.13-1.06a16.91 16.91 0 0 0 19.67 26.55c-.4 0-.8 0-1.2-.08"/><path d="m99 27.65v-14.21l-4.23 2.17-1.59-2.79 6.58-4.08h3.54v20l3.76.18v3.08h-12.59v-3l3.47-.22a1.2 1.2 0 0 0 .8-.29 1.31 1.31 0 0 0 .25-.9"/><path d="m114.3 27.05a3.25 3.25 0 0 0 3 1.86 3.29 3.29 0 0 0 3-1.91c.72-1.28 1.07-3.5 1.07-6.67s-.34-5.39-1-6.64a3.32 3.32 0 0 0 -6 .13c-.68 1.34-1 3.56-1 6.69s.35 5.3 1 6.54m3.17-18.78q8.2 0 8.2 11.89 0 6.33-2.13 9.28a7.31 7.31 0 0 1 -6.33 2.94 7.15 7.15 0 0 1 -6.28-2.91c-1.38-1.94-2.06-5-2.06-9s.76-7.15 2.27-9.15a7.47 7.47 0 0 1 6.3-3"/><path d="m133.29 27.05a3.24 3.24 0 0 0 3 1.86 3.3 3.3 0 0 0 3-1.91q1.07-1.92 1.06-6.67c0-3.17-.34-5.39-1-6.64a3.31 3.31 0 0 0 -6 .13c-.69 1.34-1 3.56-1 6.69s.35 5.3 1 6.54m3.16-18.78q8.2 0 8.21 11.89 0 6.33-2.14 9.28a7.31 7.31 0 0 1 -6.32 2.94 7.15 7.15 0 0 1 -6.26-2.91q-2.06-2.91-2.06-9t2.28-9.15a7.45 7.45 0 0 1 6.29-3"/><path d="m152.27 27.05a3.25 3.25 0 0 0 3 1.86 3.3 3.3 0 0 0 3-1.91q1.06-1.92 1.07-6.67c0-3.17-.35-5.39-1-6.64a3.32 3.32 0 0 0 -6 .13c-.69 1.34-1 3.56-1 6.69s.34 5.3 1 6.54m3.16-18.78q8.2 0 8.21 11.89 0 6.33-2.13 9.28a7.34 7.34 0 0 1 -6.33 2.94 7.16 7.16 0 0 1 -6.26-2.91q-2.05-2.91-2.06-9t2.28-9.15a7.47 7.47 0 0 1 6.29-3"/><path d="m95 59.13v-10a1.3 1.3 0 0 0 -.2-.81.93.93 0 0 0 -.7-.27l-1.52-.11v-2.94h6.12v2.7a5.64 5.64 0 0 1 5.19-3.25 7.72 7.72 0 0 1 3.42.79v5.39l-3.37.26v-1.67q0-.72-.36-.9a2.33 2.33 0 0 0 -1-.18 3 3 0 0 0 -2.37 1 3.75 3.75 0 0 0 -.93 2.62v8.39l3.15.14v2.86h-9.66v-2.72l1.23-.11a1.52 1.52 0 0 0 .8-.3 1.21 1.21 0 0 0 .25-.89"/><path d="m116.54 52.71a5.89 5.89 0 0 0 2.46-1.05 2.35 2.35 0 0 0 1.13-1.93 1.94 1.94 0 0 0 -2.17-2.21 3.53 3.53 0 0 0 -3.11 1.61 7.4 7.4 0 0 0 -1.2 3.85 18.24 18.24 0 0 0 2.91-.27m1.65-8.26a6.52 6.52 0 0 1 4.3 1.32 4.54 4.54 0 0 1 1.59 3.7 5.58 5.58 0 0 1 -2.38 4.71 9.33 9.33 0 0 1 -2.46 1.12 19.2 19.2 0 0 1 -5.46.72 4.78 4.78 0 0 0 1.2 3.09 4.33 4.33 0 0 0 3.33 1.18 7.71 7.71 0 0 0 4.48-1.59l1.38 2.92a8.53 8.53 0 0 1 -2.48 1.38 10.42 10.42 0 0 1 -3.92.69q-4.41 0-6.47-2.44a10 10 0 0 1 -2.06-6.71 11 11 0 0 1 2.35-7.16 8 8 0 0 1 6.58-2.89"/><path d="m138.29 57.43v-9.37a6.76 6.76 0 0 0 -2.78-.47 3.72 3.72 0 0 0 -3.51 2 10.65 10.65 0 0 0 -1.08 5.17c0 3.9 1.25 5.86 3.76 5.86a3.61 3.61 0 0 0 2.6-1 2.92 2.92 0 0 0 1-2.19m4.2-11.72v13.46a1.14 1.14 0 0 0 .2.79 1 1 0 0 0 .7.25l1.16.08v2.89h-5.74v-2.1h-.11a5.72 5.72 0 0 1 -4.95 2.6 6.38 6.38 0 0 1 -5.46-2.35 10.48 10.48 0 0 1 -1.77-6.44q0-4.92 2.38-7.66t7.16-2.75a18.34 18.34 0 0 1 6.44 1.26"/><path d="m152.86 37.4v22.78l2.07.11v2.89h-8.61v-2.75l1.19-.11a1 1 0 0 0 1.05-1.15v-17.83q0-.8-.9-.87l-1.27-.07v-3z"/><path d="m158.79 41.86a2.54 2.54 0 0 1 -.79-1.86 2.69 2.69 0 0 1 .76-1.94 2.66 2.66 0 0 1 2-.78 2.72 2.72 0 0 1 2 .78 2.62 2.62 0 0 1 .78 1.94 2.48 2.48 0 0 1 -.78 1.89 2.77 2.77 0 0 1 -2 .74 2.71 2.71 0 0 1 -2-.74m4.59 3.11v15.18l2.06.11v2.89h-8.6v-2.75l1.19-.11a1 1 0 0 0 1.05-1.15v-10.06a1.29 1.29 0 0 0 -.2-.83 1 1 0 0 0 -.71-.22l-1.26-.06v-3z"/><path d="m171.16 41.16h2.35v3.84h4.81l-.32 3h-4.45v9.51a3.27 3.27 0 0 0 .58 2.22 2.31 2.31 0 0 0 1.79.64 4.67 4.67 0 0 0 2.44-.76l1.08 2.78a7.82 7.82 0 0 1 -4.59 1.27 7.91 7.91 0 0 1 -2.75-.42 5 5 0 0 1 -1.66-.92 3.24 3.24 0 0 1 -.83-1.48 8.46 8.46 0 0 1 -.33-1.54c0-.38 0-.92 0-1.65v-9.65h-2.57l.36-2.64a3.56 3.56 0 0 0 2.57-1.21 10.64 10.64 0 0 0 1.59-3"/><path d="m182.41 41.86a2.5 2.5 0 0 1 -.76-1.89 2.63 2.63 0 0 1 2.74-2.72 2.72 2.72 0 0 1 2 .78 2.62 2.62 0 0 1 .78 1.94 2.48 2.48 0 0 1 -.78 1.89 2.77 2.77 0 0 1 -2 .74 2.67 2.67 0 0 1 -2-.74m4.61 3.14v15.18l2.06.11v2.89h-8.6v-2.75l1.19-.11a1 1 0 0 0 1-1.15v-10.06a1.29 1.29 0 0 0 -.2-.83 1 1 0 0 0 -.71-.22l-1.25-.06v-3z"/><path d="m198.19 52.71a6 6 0 0 0 2.44-1.05 2.33 2.33 0 0 0 1.12-1.93 1.94 1.94 0 0 0 -2.17-2.21 3.53 3.53 0 0 0 -3.11 1.61 7.39 7.39 0 0 0 -1.19 3.87 18.24 18.24 0 0 0 2.91-.27m1.64-8.26a6.55 6.55 0 0 1 4.31 1.32 4.54 4.54 0 0 1 1.59 3.7 5.62 5.62 0 0 1 -2.39 4.71 9 9 0 0 1 -2.46 1.12 19.1 19.1 0 0 1 -5.46.72 4.74 4.74 0 0 0 1.2 3.09 4.32 4.32 0 0 0 3.32 1.18 7.73 7.73 0 0 0 4.49-1.59l1.37 2.92a8.45 8.45 0 0 1 -2.44 1.36 10.46 10.46 0 0 1 -3.92.69c-2.95 0-5.1-.81-6.48-2.44a10.1 10.1 0 0 1 -2.06-6.71 11 11 0 0 1 2.35-7.16 8 8 0 0 1 6.58-2.89"/><path d="m217.37 47.74a5.93 5.93 0 0 0 -2.1-.33 3.22 3.22 0 0 0 -2 .56 1.7 1.7 0 0 0 -.74 1.38 2.46 2.46 0 0 0 .27 1.26 2.23 2.23 0 0 0 .85.78 10.06 10.06 0 0 0 2.17.81c.85.23 1.47.42 1.88.55a10.26 10.26 0 0 1 1.54.67 4.54 4.54 0 0 1 1.39 1 4.81 4.81 0 0 1 1.27 3.43 5.09 5.09 0 0 1 -2 4.25 7.9 7.9 0 0 1 -5 1.54 15.41 15.41 0 0 1 -6.66-1.12v-5l3.26-.25v1.73c0 1.07 1 1.6 3 1.6s3-.74 3-2.21a1.73 1.73 0 0 0 -.52-1.3 2.91 2.91 0 0 0 -1-.69c-.34-.12-.74-.24-1.21-.36l-1.38-.36a13 13 0 0 1 -1.44-.49 10.55 10.55 0 0 1 -1.72-.89 4.37 4.37 0 0 1 -1.84-4 5.12 5.12 0 0 1 2-4.32 8 8 0 0 1 5-1.52 13.5 13.5 0 0 1 6 1.45v4.33l-3.26.26v-1.5a1.22 1.22 0 0 0 -.83-1.23"/></g></svg>