<svg id="Layer_1" data-name="Layer 1" xmlns="http://www.w3.org/2000/svg" width="81.28" height="82.28" viewBox="0 0 81.28 82.28"><defs><style>.cls-1{fill:#33b1da}</style></defs><title>operators</title><path class="cls-1" d="M40,7.78a1.16,1.16,0,0,0-2.31,0c0,4.77.71,10-.72,14.61l-2.75-14a1.16,1.16,0,0,0-2.28.4c.84,4.74,2.46,9.71,1.83,14.51L28.6,10a1.15,1.15,0,0,0-2.17.79c1.65,4.52,4.1,9.13,4.32,14l-7.37-12.2a1.16,1.16,0,0,0-2,1.16c2.41,4.16,5.63,8.28,6.68,13L18.68,16a1.16,1.16,0,0,0-1.77,1.49c3.1,3.68,7,7.18,8.84,11.65l-11.1-8.94A1.15,1.15,0,0,0,13.17,22c3.69,3.09,8.12,5.86,10.72,9.94L11.41,25a1.15,1.15,0,0,0-1.15,2c4.17,2.4,9,4.36,12.29,7.93L9.06,30.36a1.15,1.15,0,0,0-.79,2.17c4.52,1.64,9.64,2.73,13.48,5.67L7.67,36a1.15,1.15,0,0,0-.4,2.27c4.74.83,10,1,14.26,3.25l-14.25.28a1.16,1.16,0,0,0,0,2.31c4.77,0,10-.72,14.6.72l-14,2.75a1.15,1.15,0,0,0,.4,2.27C13,49,18,47.41,22.81,48L9.52,53.18a1.15,1.15,0,0,0,.79,2.17c4.51-1.65,9.13-4.1,14-4.32L12.08,58.4a1.16,1.16,0,0,0,1.16,2c4.16-2.41,8.28-5.63,13-6.68L15.51,63.09A1.16,1.16,0,0,0,17,64.86c3.68-3.09,7.18-7,11.65-8.83L19.71,67.12a1.15,1.15,0,0,0,1.76,1.49c3.09-3.69,5.87-8.12,10-10.72L24.54,70.36a1.15,1.15,0,0,0,2,1.16c2.4-4.17,4.37-9,7.94-12.29L29.86,72.72a1.15,1.15,0,0,0,2.16.79C33.66,69,34.76,63.87,37.7,60L35.5,74.11a1.16,1.16,0,0,0,2.28.4c.82-4.74,1-10,3.25-14.25l.28,14.24a1.15,1.15,0,0,0,2.3,0c0-4.76-.7-10,.73-14.6l2.75,14a1.15,1.15,0,0,0,2.27-.4c-.84-4.73-2.45-9.71-1.82-14.51l5.14,13.29a1.15,1.15,0,0,0,2.16-.79c-1.64-4.47-4.1-9.2-4.31-14L57.9,69.7a1.15,1.15,0,0,0,2-1.16c-2.39-4.12-5.64-8.35-6.67-13l9.37,10.74a1.16,1.16,0,0,0,1.77-1.49c-3.07-3.64-7-7.24-8.83-11.65l11.09,8.94a1.16,1.16,0,0,0,1.49-1.77c-3.66-3-8.16-5.92-10.72-9.94l12.47,6.88a1.16,1.16,0,0,0,1.16-2c-4.14-2.37-9.06-4.41-12.29-7.93l13.49,4.61A1.15,1.15,0,0,0,73,49.76c-4.48-1.62-9.68-2.78-13.47-5.68l14.08,2.2A1.16,1.16,0,0,0,74,44c-4.69-.81-10-1-14.26-3.25L74,40.47a1.15,1.15,0,0,0,0-2.3c-4.76,0-10,.7-14.6-.73l14-2.75a1.15,1.15,0,0,0-.4-2.27c-4.69.84-9.78,2.44-14.51,1.82L71.76,29.1A1.15,1.15,0,0,0,71,26.94c-4.47,1.64-9.21,4.1-14,4.31l12.2-7.37a1.16,1.16,0,0,0-1.16-2c-4.12,2.4-8.35,5.64-13,6.68l10.74-9.37a1.16,1.16,0,0,0-1.49-1.77c-3.64,3.07-7.24,7-11.65,8.83l8.94-11.09a1.16,1.16,0,0,0-1.77-1.49c-3,3.66-5.92,8.16-9.94,10.72l6.88-12.47a1.16,1.16,0,0,0-2-1.16c-2.37,4.13-4.41,9.06-7.93,12.28L51.42,9.56a1.15,1.15,0,0,0-2.17-.78c-1.63,4.52-2.73,9.63-5.67,13.47l2.2-14.08a1.16,1.16,0,0,0-2.28-.4c-.82,4.74-1,10-3.25,14.26Z"/></svg>