<svg xmlns="http://www.w3.org/2000/svg" width="369.5" height="485" viewBox="0 0 369.5 485"><defs><style>.cls-1{fill:#193340}</style></defs><title>influence</title><g id="Layer_2" data-name="Layer 2"><g id="Layer_1-2" data-name="Layer 1"><path class="cls-1" d="M242.21,222.13a14,14,0,1,0,18.52,7.13A14,14,0,0,0,242.21,222.13Z"/><circle class="cls-1" cx="210.71" cy="125.82" r="30.59"/><path class="cls-1" d="M166,218.8a19.11,19.11,0,1,0,5.16,26.54A19.1,19.1,0,0,0,166,218.8Z"/><path class="cls-1" d="M367.64,129.27c-4.55-9.09-10.39-18.18-13-27.27s-14.28-24-17.52-27.91-18.83-29.21-21.42-35.7a31.48,31.48,0,0,0-17.53-18.18c-10.39-4.55-31.16-4.55-38.3-9.09S219,2.69,212.49,1.39s-31.15,0-40.24-1.3-31.81,12.33-36.36,12.33S89.8,19.56,80.72,24.76,47.61,40.34,47,48.13s-.65,18.17-2.6,25.31-2,16.88-.65,21.42,5.2,15.58,4.55,19.48S32,156.53,30.73,163s-1.95,20.76.65,25.31,7.14,16.88,1.3,24.67S-7.57,260.4,1.52,273.38c0,0,3.89,6.49,9.74,8.44s12.33,3.24,12.33,7.14c0,3.39-4.52,17.77-4.13,22.38S29.92,322,29.92,322s-9.5,8.54-9.69,14.31,3.2,7.85,5.31,9.11c3.24,1.95,9.73,7.79,6.49,20.13s3.24,35.7,25.32,33.75,33.1.65,53.87,5.2a14.77,14.77,0,0,1,10.39,11.68c2,9.74,2,24,12.34,37,0,0,3.24,9.09,3.89,13,0,0,3.25,13,7.79,18.82l51.75-22.46,18.86-8.18h0l34.51-15h0L303,416.73s-2.83-81,8.85-99.21l11.68-18.18s34.41-51.93,38.95-88.28L367,174.71S372.18,138.36,367.64,129.27ZM198.81,252.73a46.77,46.77,0,0,1-10.57,15.61l-9.75-8.81-4.73,3.12L169,265.77l4.26,12.44a47,47,0,0,1-18.51,3.57l-.68-13.13-5.55-1.14L143,266.37l-5.79,11.8a46.77,46.77,0,0,1-15.61-10.57l8.81-9.75-3.12-4.73-3.12-4.73-12.44,4.25a46.82,46.82,0,0,1-3.57-18.51l13.13-.68,1.14-5.55,1.14-5.55-11.8-5.79A46.9,46.9,0,0,1,122.32,201l9.76,8.81,4.73-3.12,4.73-3.12-4.25-12.44a46.82,46.82,0,0,1,18.51-3.57l.68,13.13,5.55,1.14,5.55,1.14,5.79-11.8A46.9,46.9,0,0,1,189,201.68l-8.81,9.76,3.12,4.73,3.12,4.73,12.44-4.25a47,47,0,0,1,3.57,18.51l-13.13.68-1.14,5.55L187,246.94Zm78.22.91-8.43-4.7-2.87,3-2.87,3,5.09,8.2a34.26,34.26,0,0,1-12.66,5.6l-2.64-9.28-4.16.1-4.16.1-2.2,9.39a34.39,34.39,0,0,1-12.91-5l4.7-8.43-3-2.87-3-2.87L219.7,255a34.33,34.33,0,0,1-5.6-12.66l9.28-2.64-.1-4.16-.09-4.16-9.4-2.2a34.33,34.33,0,0,1,5-12.91l8.43,4.69,2.87-3,2.87-3-5.08-8.2a34.36,34.36,0,0,1,12.65-5.59l2.65,9.28,4.16-.1,4.15-.1,2.2-9.39a34.33,34.33,0,0,1,12.91,5l-4.69,8.43,3,2.87,3,2.87,8.2-5.09a34.66,34.66,0,0,1,5.6,12.66l-9.29,2.64.1,4.16.1,4.16,9.4,2.2A34.41,34.41,0,0,1,277,253.64ZM284.58,141l-20.82-3-3.49,8.38-3.48,8.37,16.77,12.69a75.09,75.09,0,0,1-21.36,21.3L239.56,172l-8.38,3.46-8.39,3.45,2.88,20.84a74.91,74.91,0,0,1-30.16-.05l3-20.82-8.38-3.49-8.37-3.48L169,188.68a75.09,75.09,0,0,1-21.3-21.36l16.81-12.64-3.46-8.39-3.45-8.38-20.84,2.88a74.91,74.91,0,0,1,.05-30.16l20.82,3,3.49-8.38,3.48-8.37L147.85,84.14a75.09,75.09,0,0,1,21.36-21.3l12.64,16.81,8.39-3.46,8.38-3.45L195.74,51.9A74.91,74.91,0,0,1,225.9,52l-3,20.82,8.38,3.49,8.37,3.48L252.39,63a75.09,75.09,0,0,1,21.3,21.36L256.88,97l3.46,8.38,3.45,8.39,20.84-2.88A74.91,74.91,0,0,1,284.58,141Z"/></g></g></svg>