<svg xmlns="http://www.w3.org/2000/svg" width="474" height="247.68" viewBox="0 0 474 247.68"><defs><style>.cls-1{fill:#193340}</style></defs><title>networking</title><g id="Layer_2" data-name="Layer 2"><g id="Layer_1-2" data-name="Layer 1"><path class="cls-1" d="M372.29,12.25A15.67,15.67,0,0,0,357,0c-.33,0-.65,0-1,0L262,5.77a15.7,15.7,0,0,0-9.58,4l-3.84,3.5L244.4,9.57A15.63,15.63,0,0,0,233.88,5.5H115.74a15.67,15.67,0,0,0-15.3,12.25L72.7,142.06A15.66,15.66,0,0,0,88,161.14a16.4,16.4,0,0,0,2-.12l37.18-4.71,99.37,77.56,10.3,9.6a15.59,15.59,0,0,0,10.68,4.21,15.91,15.91,0,0,0,3-.29,15.65,15.65,0,0,0,9.47-4.16l71.27-66.47,35.23-32.17,12.32,3.64a15.66,15.66,0,0,0,19.73-18.43ZM164,164.86a8.14,8.14,0,0,0,1.67-1.5l3.51-4.37,8.26-10.29a7.84,7.84,0,0,0-1.2-11l-11.09-8.91a7.84,7.84,0,0,0-11,1.2l-6.86,8.56-4.91,6.09v0a7.64,7.64,0,0,0-1.36,2.58l-9.36-7.31-4.37.56-39.28,5,27.75-124.3H233.88l3,2.71L238.14,25,213.62,55.55,203.57,68.08s-4.73,5.15-4.29,11.06a10.51,10.51,0,0,0,2.87,6.36c9,9.86,29.52,2.25,29.52,2.25l25.55-30.49a22.69,22.69,0,0,1,9.2-6.56l89.72,81.42L337,150a7,7,0,0,0-.77-.87L269.06,87.19A7.83,7.83,0,1,0,258.44,98.7l67.11,61.94-4.92,4.6-11,10.29-.09-.14a8,8,0,0,0-1.28-1.53l-55.76-49.63a7.83,7.83,0,0,0-10.41,11.7l55.74,49.64c.1.08.22.14.32.22s.17.13.26.2l-16.21,15.12a3,3,0,0,0-.29-.49,7.75,7.75,0,0,0-1.52-1.93L234.68,158a7.83,7.83,0,1,0-10.41,11.7l45.65,40.66c.23.19.47.34.7.51s.4.29.61.41l-7.43,6.93c-.09-.28-.22-.54-.33-.81a7.9,7.9,0,0,0-2.22-2.92l-11.09-8.91a7.84,7.84,0,0,0-11,1.2l-8,10-.42.51-6.63-5.17L225,211l7.83-9.74a7.84,7.84,0,0,0-1.21-11l-11.08-8.9a7.83,7.83,0,0,0-11,1.19l-6.45,8-2.53,3.15-6.64-5.2,3-3.72,8.08-10a7.82,7.82,0,0,0-1.21-11l-11.09-8.92a7.83,7.83,0,0,0-11,1.2L175,164.36l-4.64,5.77-4-3.16L163.78,165Z"/><path class="cls-1" d="M84.74,10.76a7.84,7.84,0,0,0-6.11-2.93H7.83A7.83,7.83,0,0,0,0,15.66v159.9a7.83,7.83,0,0,0,7.83,7.84H43.39A7.83,7.83,0,0,0,51,177.25L86.28,17.35A7.85,7.85,0,0,0,84.74,10.76Z"/><path class="cls-1" d="M466.17,1.29h-70.8a7.83,7.83,0,0,0-7.65,9.52L423,170.71a7.83,7.83,0,0,0,7.65,6.15h35.56A7.83,7.83,0,0,0,474,169V9.13A7.83,7.83,0,0,0,466.17,1.29Z"/></g></g></svg>