<svg id="e6qwf60ztdpo1" xmlns="http://www.w3.org/2000/svg" xmlns:xlink="http://www.w3.org/1999/xlink" viewBox="0 0 350 350" shape-rendering="geometricPrecision" text-rendering="geometricPrecision"><style>@keyframes e6qwf60ztdpo2_ts__ts{0%,36.666667%{transform:translate(106.625008px,254.765007px) scale(0,0)}56.666667%,to{transform:translate(106.625008px,254.765007px) scale(1,1)}}@keyframes e6qwf60ztdpo8_ts__ts{0%,36.666667%{transform:translate(106.575008px,254.319267px) scale(0,0)}56.666667%,to{transform:translate(106.575008px,254.319267px) scale(1,1)}}@keyframes e6qwf60ztdpo14_ts__ts{0%,13.333333%{transform:translate(106.285004px,95.470009px) scale(0,0)}33.333333%,to{transform:translate(106.285004px,95.470009px) scale(1,1)}}@keyframes e6qwf60ztdpo21_ts__ts{0%,13.333333%{transform:translate(107.07px,95.545532px) scale(0,0)}33.333333%,to{transform:translate(107.07px,95.545532px) scale(1,1)}}@keyframes e6qwf60ztdpo29_ts__ts{0%,26.666667%{transform:translate(243.790005px,174.5px) scale(0,0)}43.333333%,to{transform:translate(243.790005px,174.5px) scale(1,1)}}@keyframes e6qwf60ztdpo34_ts__ts{0%,26.666667%{transform:translate(244px,174.490211px) scale(0,0)}43.333333%,to{transform:translate(244px,174.490211px) scale(1,1)}}#e6qwf60ztdpo2_ts{animation:e6qwf60ztdpo2_ts__ts 3000ms linear 1 normal forwards}#e6qwf60ztdpo8_ts{animation:e6qwf60ztdpo8_ts__ts 3000ms linear 1 normal forwards}#e6qwf60ztdpo14_ts{animation:e6qwf60ztdpo14_ts__ts 3000ms linear 1 normal forwards}#e6qwf60ztdpo21_ts{animation:e6qwf60ztdpo21_ts__ts 3000ms linear 1 normal forwards}#e6qwf60ztdpo29_ts{animation:e6qwf60ztdpo29_ts__ts 3000ms linear 1 normal forwards}#e6qwf60ztdpo34_ts{animation:e6qwf60ztdpo34_ts__ts 3000ms linear 1 normal forwards}</style><defs><linearGradient id="e6qwf60ztdpo3-fill" x1="130.23" y1="383.51" x2="255.4" y2="258.34" spreadMethod="pad" gradientUnits="userSpaceOnUse"><stop id="e6qwf60ztdpo3-fill-0" offset="0%" stop-color="#4E5F6D"/><stop id="e6qwf60ztdpo3-fill-1" offset="95%" stop-color="#273C4D"/></linearGradient><linearGradient id="e6qwf60ztdpo4-fill" x1="147" y1="241.57" x2="238.63" y2="400.28" spreadMethod="pad" gradientUnits="userSpaceOnUse"><stop id="e6qwf60ztdpo4-fill-0" offset="1%" stop-color="rgba(255,255,255,0.6)"/><stop id="e6qwf60ztdpo4-fill-1" offset="37%" stop-color="rgba(255,255,255,0)"/></linearGradient><linearGradient id="e6qwf60ztdpo15-fill" x1="130.23" y1="99.64" x2="255.4" y2="224.8" spreadMethod="pad" gradientUnits="userSpaceOnUse"><stop id="e6qwf60ztdpo15-fill-0" offset="11%" stop-color="#028BBC"/><stop id="e6qwf60ztdpo15-fill-1" offset="100%" stop-color="#1A546B"/></linearGradient><linearGradient id="e6qwf60ztdpo16-fill" x1="130.23" y1="99.64" x2="255.4" y2="224.8" spreadMethod="pad" gradientUnits="userSpaceOnUse"><stop id="e6qwf60ztdpo16-fill-0" offset="1%" stop-color="rgba(255,255,255,0.6)"/><stop id="e6qwf60ztdpo16-fill-1" offset="37%" stop-color="rgba(255,255,255,0)"/></linearGradient><linearGradient id="e6qwf60ztdpo30-fill" x1="267.72" y1="178.99" x2="392.89" y2="304.16" spreadMethod="pad" gradientUnits="userSpaceOnUse"><stop id="e6qwf60ztdpo30-fill-0" offset="11%" stop-color="#93E019"/><stop id="e6qwf60ztdpo30-fill-1" offset="72%" stop-color="#69AB00"/></linearGradient><linearGradient id="e6qwf60ztdpo31-fill" x1="267.72" y1="178.99" x2="392.89" y2="304.16" spreadMethod="pad" gradientUnits="userSpaceOnUse"><stop id="e6qwf60ztdpo31-fill-0" offset="1%" stop-color="rgba(255,255,255,0.6)"/><stop id="e6qwf60ztdpo31-fill-1" offset="37%" stop-color="rgba(255,255,255,0)"/></linearGradient></defs><g id="e6qwf60ztdpo2_ts" transform="translate(106.625008,254.765007) scale(0,0)"><g id="e6qwf60ztdpo2" transform="translate(-106.625008,-254.765007)"><polygon id="e6qwf60ztdpo3" points="238.630000,241.570000 147,241.570000 101.190000,320.920000 147,400.280000 238.630000,400.280000 284.440000,320.920000 238.630000,241.570000" transform="matrix(1 0 0 1 -86.22499999999991 -66.30000000000001)" fill="url(#e6qwf60ztdpo3-fill)" stroke="none" stroke-width="1"/><polygon id="e6qwf60ztdpo4" points="238.630000,241.570000 147,241.570000 101.190000,320.920000 147,400.280000 238.630000,400.280000 284.440000,320.920000 238.630000,241.570000" transform="matrix(1 0 0 1 -86.22499999999991 -66.30000000000001)" fill="url(#e6qwf60ztdpo4-fill)" stroke="none" stroke-width="1"/><polygon id="e6qwf60ztdpo5" points="238.660000,241.570000 192.850000,320.920000 238.670000,400.280000 238.690000,400.280000 284.510000,320.930000 238.690000,241.570000 238.660000,241.570000" transform="matrix(1 0 0 1 -86.22499999999991 -66.30000000000001)" opacity=".2" fill="#93E019" stroke="none" stroke-width="1"/><polygon id="e6qwf60ztdpo6" points="147.060000,400.630000 238.690000,400.630000 284.510000,321.280000 192.880000,321.280000 147.060000,400.630000" transform="matrix(1 0 0 1 -86.22499999999991 -66.30000000000001)" opacity=".3" fill="#1A546B" stroke="none" stroke-width="1"/><polygon id="e6qwf60ztdpo7" points="252.190000,263.260000 239.630000,241.500000 148,241.500000 112.790000,302.490000 252.190000,263.260000" transform="matrix(1 0 0 1 -86.22499999999991 -66.30000000000001)" opacity=".1" fill="#FFF" stroke="none" stroke-width="1"/></g></g><g id="e6qwf60ztdpo8_ts" transform="translate(106.575008,254.319267) scale(0,0)"><g id="e6qwf60ztdpo8" transform="translate(-106.575008,-254.319267)"><path id="e6qwf60ztdpo9" d="M150.100000,313.900000L143.600000,313.900000L143.600000,310.820000L160.230000,310.820000L160.230000,313.900000L153.740000,313.900000L153.740000,330.420000L150.100000,330.420000Z" transform="matrix(1 0 0 1 -86.22499999999991 -66.30000000000001)" fill="#FFF" stroke="none" stroke-width="1"/><path id="e6qwf60ztdpo10" d="M176.900000,330.420000L172.900000,324.680000C172.646882,324.694777,172.393118,324.694777,172.140000,324.680000L167.710000,324.680000L167.710000,330.390000L164.080000,330.390000L164.080000,310.790000L172.140000,310.790000C177.290000,310.790000,180.480000,313.420000,180.480000,317.790000C180.603161,320.546034,178.910423,323.058756,176.310000,323.980000L180.820000,330.420000ZM172,313.900000L167.740000,313.900000L167.740000,321.710000L172,321.710000C175.190000,321.710000,176.850000,320.260000,176.850000,317.790000C176.850000,315.320000,175.160000,313.900000,172,313.900000Z" transform="matrix(1 0 0 1 -87.74999999999991 -66.30000000000001)" fill="#FFF" stroke="none" stroke-width="1"/><path id="e6qwf60ztdpo11" d="M185.380000,321.880000L185.380000,310.820000L189,310.820000L189,321.740000C189,325.740000,190.820000,327.510000,194,327.510000C197.180000,327.510000,199,325.770000,199,321.740000L199,310.820000L202.580000,310.820000L202.580000,321.880000C202.580000,327.590000,199.360000,330.700000,194.010000,330.700000C188.660000,330.700000,185.380000,327.590000,185.380000,321.880000Z" transform="matrix(1 0 0 1 -86.22499999999991 -66.30000000000001)" fill="#FFF" stroke="none" stroke-width="1"/><path id="e6qwf60ztdpo12" d="M207.120000,328.350000L208.380000,325.520000C210.249050,326.915542,212.517440,327.672841,214.850000,327.680000C217.900000,327.680000,219.190000,326.580000,219.190000,325.130000C219.190000,320.900000,207.540000,323.670000,207.540000,316.390000C207.540000,313.230000,210.060000,310.540000,215.430000,310.540000C217.725782,310.504247,219.986407,311.106619,221.960000,312.280000L220.810000,315.100000C219.175014,314.124731,217.313466,313.593845,215.410000,313.560000C212.410000,313.560000,211.150000,314.740000,211.150000,316.220000C211.150000,320.400000,222.770000,317.680000,222.770000,324.880000C222.770000,328.010000,220.220000,330.700000,214.850000,330.700000C211.790000,330.700000,208.740000,329.750000,207.120000,328.350000Z" transform="matrix(1 0 0 1 -86.22499999999991 -66.30000000000001)" fill="#FFF" stroke="none" stroke-width="1"/><path id="e6qwf60ztdpo13" d="M231.890000,313.900000L225.390000,313.900000L225.390000,310.820000L242,310.820000L242,313.900000L235.510000,313.900000L235.510000,330.420000L231.870000,330.420000Z" transform="matrix(1 0 0 1 -86.22499999999991 -66.30000000000001)" fill="#FFF" stroke="none" stroke-width="1"/></g></g><g id="e6qwf60ztdpo14_ts" transform="translate(106.285004,95.470009) scale(0,0)"><g id="e6qwf60ztdpo14" transform="translate(-106.285004,-95.470009)"><polygon id="e6qwf60ztdpo15" points="238.630000,82.870000 147,82.870000 101.190000,162.220000 147,241.570000 238.630000,241.570000 284.440000,162.220000 238.630000,82.870000" transform="matrix(1 0 0 1 -86.22499999999991 -66.30000000000001)" fill="url(#e6qwf60ztdpo15-fill)" stroke="none" stroke-width="1"/><polygon id="e6qwf60ztdpo16" points="238.630000,82.870000 147,82.870000 101.190000,162.220000 147,241.570000 238.630000,241.570000 284.440000,162.220000 238.630000,82.870000" transform="matrix(1 0 0 1 -86.22499999999991 -66.30000000000001)" fill="url(#e6qwf60ztdpo16-fill)" stroke="none" stroke-width="1"/><g id="e6qwf60ztdpo17" opacity=".1"><polygon id="e6qwf60ztdpo18" points="258.080000,116.840000 237.950000,81.970000 146.320000,81.970000 100.510000,161.320000 100.820000,161.860000 258.080000,116.840000" transform="matrix(1 0 0 1 -86.22499999999991 -66.30000000000001)" fill="#FFF" stroke="none" stroke-width="1"/></g><polygon id="e6qwf60ztdpo19" points="238.660000,82.510000 192.850000,161.860000 238.670000,241.220000 238.690000,241.220000 284.510000,161.870000 238.690000,82.510000 238.660000,82.510000" transform="matrix(1 0 0 1 -86.22499999999991 -66.30000000000001)" opacity=".2" fill="#93E019" stroke="none" stroke-width="1"/><polygon id="e6qwf60ztdpo20" points="147.060000,241.570000 238.690000,241.570000 284.510000,162.220000 192.880000,162.220000 147.060000,241.570000" transform="matrix(1 0 0 1 -86.22499999999991 -66.30000000000001)" opacity=".4" fill="#1A546B" stroke="none" stroke-width="1"/></g></g><g id="e6qwf60ztdpo21_ts" transform="translate(107.070000,95.545532) scale(0,0)"><g id="e6qwf60ztdpo21" transform="translate(-107.070000,-95.545532)"><path id="e6qwf60ztdpo22" d="M118.710000,161.850000C118.710000,156,123.190000,151.770000,129.210000,151.770000C132.155867,151.645578,135.006496,152.827546,137,155L134.650000,157.220000C133.318573,155.731027,131.407238,154.892082,129.410000,154.920000C125.604758,154.920000,122.520000,158.004758,122.520000,161.810000C122.520000,165.615242,125.604758,168.700000,129.410000,168.700000C131.413919,168.729741,133.329777,167.877842,134.650000,166.370000L137,168.610000C135.015728,170.800932,132.163817,172.001737,129.210000,171.890000C123.190000,171.930000,118.710000,167.700000,118.710000,161.850000Z" transform="matrix(1 0 0 1 -86.22499999999991 -66.30000000000001)" fill="#FFF" stroke="none" stroke-width="1"/><path id="e6qwf60ztdpo23" d="M139.710000,161.850000C139.710000,156.050000,144.190000,151.770000,150.270000,151.770000C156.350000,151.770000,160.820000,156.020000,160.820000,161.850000C160.820000,167.680000,156.340000,171.930000,150.270000,171.930000C144.200000,171.930000,139.710000,167.650000,139.710000,161.850000ZM157.160000,161.850000C157.160000,159.063255,155.481305,156.550911,152.906689,155.484470C150.332072,154.418029,147.368561,155.007508,145.398034,156.978034C143.427508,158.948560,142.838029,161.912072,143.904470,164.486689C144.970911,167.061305,147.483255,168.740000,150.270000,168.740000C152.113940,168.796001,153.899164,168.088091,155.203627,166.783627C156.508091,165.479164,157.216001,163.693940,157.160000,161.850000Z" transform="matrix(1 0 0 1 -86.22499999999991 -66.30000000000001)" fill="#FFF" stroke="none" stroke-width="1"/><path id="e6qwf60ztdpo24" d="M183.300000,152.050000L183.300000,171.650000L180.300000,171.650000L169.500000,158.380000L169.500000,171.650000L165.890000,171.650000L165.890000,152.050000L168.890000,152.050000L179.700000,165.320000L179.700000,152.050000Z" transform="matrix(1 0 0 1 -86.22499999999991 -66.30000000000001)" fill="#FFF" stroke="none" stroke-width="1"/><path id="e6qwf60ztdpo25" d="M193.650000,155.130000L187.160000,155.130000L187.160000,152.050000L203.790000,152.050000L203.790000,155.130000L197.290000,155.130000L197.290000,171.650000L193.650000,171.650000Z" transform="matrix(1 0 0 1 -86.22499999999991 -66.30000000000001)" fill="#FFF" stroke="none" stroke-width="1"/><path id="e6qwf60ztdpo26" d="M220.460000,171.650000L216.460000,165.910000C216.206894,165.925174,215.953106,165.925174,215.700000,165.910000L211.280000,165.910000L211.280000,171.620000L207.640000,171.620000L207.640000,152.020000L215.700000,152.020000C220.860000,152.020000,224.050000,154.650000,224.050000,159.020000C224.173161,161.776034,222.480423,164.288756,219.880000,165.210000L224.390000,171.650000ZM215.530000,155.130000L211.270000,155.130000L211.270000,162.940000L215.530000,162.940000C218.720000,162.940000,220.370000,161.480000,220.370000,159.020000C220.370000,156.560000,218.720000,155.130000,215.530000,155.130000Z" transform="matrix(1 0 0 1 -86.22499999999991 -66.30000000000001)" fill="#FFF" stroke="none" stroke-width="1"/><path id="e6qwf60ztdpo27" d="M227.830000,161.850000C227.830000,156.050000,232.310000,151.770000,238.390000,151.770000C244.470000,151.770000,248.940000,156.020000,248.940000,161.850000C248.940000,167.680000,244.460000,171.930000,238.390000,171.930000C232.320000,171.930000,227.830000,167.650000,227.830000,161.850000ZM245.280000,161.850000C245.280000,159.063255,243.601305,156.550911,241.026689,155.484470C238.452072,154.418029,235.488561,155.007508,233.518034,156.978034C231.547508,158.948560,230.958029,161.912072,232.024470,164.486689C233.090911,167.061305,235.603255,168.740000,238.390000,168.740000C240.234787,168.798967,242.021755,168.092011,243.326883,166.786883C244.632011,165.481755,245.338967,163.694787,245.280000,161.850000Z" transform="matrix(1 0 0 1 -86.22499999999991 -66.30000000000001)" fill="#FFF" stroke="none" stroke-width="1"/><path id="e6qwf60ztdpo28" d="M254,152.050000L257.640000,152.050000L257.640000,168.570000L267.880000,168.570000L267.880000,171.650000L254,171.650000Z" transform="matrix(1 0 0 1 -86.22499999999991 -66.30000000000001)" fill="#FFF" stroke="none" stroke-width="1"/></g></g><g id="e6qwf60ztdpo29_ts" transform="translate(243.790005,174.500000) scale(0,0)"><g id="e6qwf60ztdpo29" transform="translate(-244.084991,-175.270004)"><polygon id="e6qwf60ztdpo30" points="376.120000,162.220000 284.490000,162.220000 238.680000,241.570000 284.490000,320.920000 376.120000,320.920000 421.940000,241.570000 376.120000,162.220000" transform="matrix(1 0 0 1 -86.22499999999991 -66.30000000000001)" fill="url(#e6qwf60ztdpo30-fill)" stroke="none" stroke-width="1"/><polygon id="e6qwf60ztdpo31" points="376.120000,162.220000 284.490000,162.220000 238.680000,241.570000 284.490000,320.920000 376.120000,320.920000 421.940000,241.570000 376.120000,162.220000" transform="matrix(1 0 0 1 -86.22499999999991 -66.30000000000001)" fill="url(#e6qwf60ztdpo31-fill)" stroke="none" stroke-width="1"/><polygon id="e6qwf60ztdpo32" points="284.490000,162.220000 238.680000,241.570000 284.500000,320.920000 284.520000,320.920000 330.330000,241.570000 284.520000,162.220000 284.490000,162.220000" transform="matrix(1 0 0 1 -86.22499999999991 -66.30000000000001)" opacity=".2" fill="#028BBC" stroke="none" stroke-width="1"/><polygon id="e6qwf60ztdpo33" points="376.120000,162.500000 284.490000,162.500000 238.680000,241.850000 250.410000,262.170000 408.060000,217.810000 376.120000,162.500000" transform="matrix(1 0 0 1 -86.22499999999991 -66.30000000000001)" opacity=".2" fill="#FFF" stroke="none" stroke-width="1"/></g></g><g id="e6qwf60ztdpo34_ts" transform="translate(244,174.490211) scale(0,0)"><g id="e6qwf60ztdpo34" transform="translate(-244,-174.490211)"><path id="e6qwf60ztdpo35" d="M271.450000,240.780000C271.450000,234.930000,275.930000,230.700000,281.950000,230.700000C284.895540,230.592738,287.735966,231.802210,289.700000,234L287.350000,236.210000C286.019367,234.719932,284.107506,233.880757,282.110000,233.910000C278.304758,233.910000,275.220000,236.994758,275.220000,240.800000C275.220000,244.605242,278.304758,247.690000,282.110000,247.690000C284.114198,247.721105,286.030603,246.868963,287.350000,245.360000L289.700000,247.600000C287.722936,249.795138,284.871897,250.997118,281.920000,250.880000C275.930000,250.860000,271.450000,246.630000,271.450000,240.780000Z" transform="matrix(1 0 0 1 -86.22499999999991 -66.30000000000001)" fill="#FFF" stroke="none" stroke-width="1"/><path id="e6qwf60ztdpo36" d="M311.580000,231L311.580000,250.600000L307.940000,250.600000L307.940000,242.200000L297.800000,242.200000L297.800000,250.600000L294.160000,250.600000L294.160000,231L297.800000,231L297.800000,239.090000L307.940000,239.090000L307.940000,231Z" transform="matrix(1 0 0 1 -86.22499999999991 -66.30000000000001)" fill="#FFF" stroke="none" stroke-width="1"/><path id="e6qwf60ztdpo37" d="M316.640000,240.780000C316.640000,234.980000,321.120000,230.700000,327.190000,230.700000C333.260000,230.700000,337.750000,234.960000,337.750000,240.780000C337.750000,246.600000,333.270000,250.860000,327.190000,250.860000C321.110000,250.860000,316.640000,246.580000,316.640000,240.780000ZM334.080000,240.780000C334.080000,237.993255,332.401305,235.480911,329.826689,234.414470C327.252072,233.348029,324.288561,233.937508,322.318034,235.908034C320.347508,237.878560,319.758029,240.842072,320.824470,243.416689C321.890911,245.991305,324.403255,247.670000,327.190000,247.670000C329.034787,247.728967,330.821755,247.022011,332.126883,245.716883C333.432011,244.411755,334.138967,242.624787,334.080000,240.780000Z" transform="matrix(1 0 0 1 -86.22499999999991 -66.30000000000001)" fill="#FFF" stroke="none" stroke-width="1"/><path id="e6qwf60ztdpo38" d="M342.860000,231L346.500000,231L346.500000,250.600000L342.860000,250.600000Z" transform="matrix(1 0 0 1 -86.22499999999991 -66.30000000000001)" fill="#FFF" stroke="none" stroke-width="1"/><path id="e6qwf60ztdpo39" d="M351.560000,240.780000C351.560000,234.930000,356.040000,230.700000,362.060000,230.700000C365.002586,230.586290,367.843059,231.788451,369.810000,233.980000L367.460000,236.190000C366.133259,234.700397,364.224573,233.861013,362.230000,233.890000C358.424758,233.890000,355.340000,236.974758,355.340000,240.780000C355.340000,244.585242,358.424758,247.670000,362.230000,247.670000C364.231283,247.700885,366.144533,246.848520,367.460000,245.340000L369.810000,247.580000C367.834596,249.777471,364.982408,250.979936,362.030000,250.860000C356,250.860000,351.560000,246.630000,351.560000,240.780000Z" transform="matrix(1 0 0 1 -86.22499999999991 -66.30000000000001)" fill="#FFF" stroke="none" stroke-width="1"/><path id="e6qwf60ztdpo40" d="M389,247.530000L389,250.580000L374.300000,250.580000L374.300000,231L388.610000,231L388.610000,234L377.910000,234L377.910000,239.100000L387.380000,239.100000L387.380000,242.100000L377.910000,242.100000L377.910000,247.510000Z" transform="matrix(1 0 0 1 -86.22499999999991 -66.30000000000001)" fill="#FFF" stroke="none" stroke-width="1"/></g></g></svg>