<svg height="438.05" viewBox="0 0 641.6 438.05" width="641.6" xmlns="http://www.w3.org/2000/svg"><path d="m481.44 97.3v48.88" fill="none" stroke="#78c400" stroke-miterlimit="10" stroke-width="3"/><path d="m481.44 187.61v18.64" fill="none" stroke="#78c400" stroke-miterlimit="10" stroke-width="3"/><path d="m481.65 240v81.14" fill="none" stroke="#78c400" stroke-miterlimit="10" stroke-width="3"/><g fill="#273c4d"><path d="m3 67c.13 1.06 1.16 1.73 2.66 1.73s2.34-.68 2.34-1.66-.63-1.32-2.18-1.67l-1.66-.4c-2.31-.45-3.44-1.63-3.44-3.56 0-2.36 1.92-3.93 4.85-3.93s4.77 1.56 4.85 3.8h-2.5a2.11 2.11 0 0 0 -2.33-1.72c-1.33 0-2.21.65-2.21 1.64 0 .8.61 1.26 2.09 1.59l1.53.33c2.55.54 3.65 1.64 3.65 3.6 0 2.53-2 4.09-5.14 4.09s-4.99-1.48-5.08-3.84z"/><path d="m21.72 67.79c-.38 1.8-2.06 2.93-4.43 2.93-3 0-4.7-1.86-4.7-5s1.78-5.1 4.66-5.1 4.55 1.83 4.55 4.89v.76h-6.66v.13a2.19 2.19 0 0 0 2.22 2.41 2 2 0 0 0 2-1zm-6.57-3.1h4.13a2 2 0 0 0 -2-2.15 2.1 2.1 0 0 0 -2.13 2.15z"/><path d="m23.49 67.76c0-1.75 1.34-2.77 3.75-2.91l2.35-.14v-.8c0-.84-.58-1.32-1.64-1.32s-1.54.33-1.75.93h-2.35c.16-1.77 1.81-2.89 4.24-2.89s4 1.21 4 3.28v6.61h-2.46v-1.28h-.16a3.11 3.11 0 0 1 -2.81 1.43 2.89 2.89 0 0 1 -3.17-2.91zm6.1-.77v-.72l-2 .14c-1.1.07-1.64.48-1.64 1.19s.63 1.2 1.51 1.2a1.93 1.93 0 0 0 2.13-1.8z"/><path d="m34.77 60.84h2.48v1.58h.15a2.73 2.73 0 0 1 2.69-1.79 2.64 2.64 0 0 1 2.68 1.79h.15a3.07 3.07 0 0 1 2.92-1.79 3 3 0 0 1 3.16 3.25v6.64h-2.58v-6c0-1.17-.53-1.75-1.61-1.75a1.67 1.67 0 0 0 -1.71 1.8v6h-2.46v-6.17a1.48 1.48 0 0 0 -1.64-1.63 1.76 1.76 0 0 0 -1.71 1.91v5.84h-2.52z"/><path d="m51.67 57.14h2.55v13.38h-2.55z"/><path d="m65.65 67.79c-.38 1.8-2.06 2.93-4.43 2.93-2.95 0-4.7-1.86-4.7-5s1.78-5.1 4.66-5.1 4.55 1.83 4.55 4.89v.76h-6.66v.13a2.19 2.19 0 0 0 2.22 2.41 2 2 0 0 0 2-1zm-6.57-3.1h4.13a2 2 0 0 0 -2-2.15 2.11 2.11 0 0 0 -2.13 2.15z"/><path d="m71.72 60.63c2.46 0 3.91 1 4 2.86h-2.31c-.13-.64-.72-1-1.67-1s-1.59.43-1.59 1.06.41.81 1.31 1l1.82.39c1.88.41 2.72 1.21 2.72 2.65 0 1.91-1.73 3.16-4.27 3.16s-4.1-1-4.28-2.87h2.55c.19.67.81 1.06 1.83 1.06s1.68-.44 1.68-1.08c0-.49-.37-.79-1.22-1l-1.76-.4c-1.88-.41-2.79-1.3-2.79-2.79-.05-1.82 1.56-3.04 3.98-3.04z"/><path d="m82 60.63c2.46 0 3.91 1 4 2.86h-2.28c-.13-.64-.72-1-1.67-1s-1.59.43-1.59 1.06.42.81 1.31 1l1.82.39c1.88.41 2.73 1.21 2.73 2.65 0 1.91-1.73 3.16-4.27 3.16s-4.11-1-4.28-2.87h2.49c.2.67.82 1.06 1.84 1.06s1.68-.44 1.68-1.08c0-.49-.37-.79-1.22-1l-1.76-.4c-1.88-.46-2.8-1.31-2.8-2.8 0-1.81 1.62-3.03 4-3.03z"/><path d="m7.09 91.29h-4.48l-1.13 3.23h-1.48l4.16-11.27h1.39l4.15 11.27h-1.47zm-4.09-1.19h3.68l-1.77-5h-.12z"/><path d="m13.11 93.18h-.11v1.34h-1.29v-11.77h1.34v4.68h.12a2.92 2.92 0 0 1 2.65-1.43c2.14 0 3.53 1.71 3.53 4.36s-1.4 4.36-3.53 4.36a3 3 0 0 1 -2.71-1.54zm-.11-2.87c0 1.94 1 3.15 2.48 3.15s2.52-1.18 2.52-3.15-1-3.15-2.5-3.15-2.5 1.2-2.5 3.15z"/><path d="m24.42 86c1.77 0 3 .87 3.17 2.26h-1.33a1.72 1.72 0 0 0 -1.85-1.12c-1 0-1.78.51-1.78 1.26 0 .58.47.94 1.46 1.18l1.3.31c1.59.38 2.35 1.07 2.35 2.28 0 1.51-1.46 2.55-3.37 2.55s-3.17-.9-3.32-2.3h1.39a1.84 1.84 0 0 0 2 1.17c1.14 0 1.95-.54 1.95-1.32 0-.57-.44-1-1.34-1.18l-1.44-.36c-1.58-.38-2.3-1.06-2.3-2.28-.03-1.45 1.32-2.45 3.11-2.45z"/><path d="m31.89 83.92v2.18h1.88v1.12h-1.88v4.78c0 1 .38 1.41 1.25 1.41a4.43 4.43 0 0 0 .63 0v1.09a4.23 4.23 0 0 1 -.79.08c-1.73 0-2.43-.64-2.43-2.25v-5.11h-1.36v-1.12h1.36v-2.18z"/><path d="m35.76 86.1h1.24v1.25h.12a2.36 2.36 0 0 1 2.38-1.35 6.53 6.53 0 0 1 .67 0v1.34a5.47 5.47 0 0 0 -.86-.08 2.06 2.06 0 0 0 -2.21 2v5.22h-1.34z"/><path d="m41.49 92.16c0-1.51 1.11-2.37 3.07-2.49l2.44-.15v-.77c0-1-.65-1.6-1.9-1.6-1 0-1.71.38-1.9 1h-1.37c.17-1.31 1.51-2.15 3.3-2.15 2.06 0 3.21 1 3.21 2.8v5.77h-1.28v-1.29h-.13a2.91 2.91 0 0 1 -2.59 1.39 2.56 2.56 0 0 1 -2.85-2.51zm5.5-.78v-.77l-2.26.14c-1.28.09-1.85.54-1.85 1.38s.73 1.36 1.71 1.36a2.21 2.21 0 0 0 2.41-2.11z"/><path d="m56.53 88.68a2.09 2.09 0 0 0 -2.17-1.52c-1.52 0-2.47 1.21-2.47 3.12s1 3.18 2.47 3.18a2 2 0 0 0 2.17-1.46h1.36a3.25 3.25 0 0 1 -3.52 2.69c-2.37-.02-3.87-1.69-3.87-4.41s1.5-4.28 3.86-4.28a3.31 3.31 0 0 1 3.53 2.73z"/><path d="m61.93 83.92v2.18h1.88v1.12h-1.88v4.78c0 1 .38 1.41 1.25 1.41a4.43 4.43 0 0 0 .63 0v1.09a4.23 4.23 0 0 1 -.79.08c-1.73 0-2.43-.64-2.43-2.25v-5.11h-1.36v-1.12h1.36v-2.18z"/><path d="m68.86 86c1.77 0 3 .87 3.17 2.26h-1.32a1.73 1.73 0 0 0 -1.86-1.12c-1 0-1.78.51-1.78 1.26 0 .58.47.94 1.46 1.18l1.3.31c1.59.38 2.35 1.07 2.35 2.28 0 1.51-1.46 2.55-3.37 2.55s-3.17-.9-3.32-2.3h1.39a1.85 1.85 0 0 0 2 1.17c1.14 0 2-.54 2-1.32 0-.57-.44-1-1.34-1.18l-1.54-.41c-1.58-.38-2.3-1.06-2.3-2.28.02-1.4 1.37-2.4 3.16-2.4z"/><path d="m78.71 90.31c0-2.64 1.39-4.36 3.53-4.36a2.85 2.85 0 0 1 2.64 1.48h.12v-4.68h1.35v11.77h-1.29v-1.34h-.12a3 3 0 0 1 -2.7 1.49c-2.15 0-3.53-1.67-3.53-4.36zm1.39 0c0 2 .92 3.15 2.46 3.15s2.44-1.21 2.44-3.15-1-3.15-2.47-3.15-2.43 1.19-2.43 3.15z"/><path d="m95.94 92.34a3.36 3.36 0 0 1 -3.54 2.33c-2.34 0-3.8-1.69-3.8-4.35s1.48-4.32 3.8-4.32 3.65 1.62 3.65 4.23v.52h-6.05v.06c.07 1.67 1 2.72 2.43 2.72a2.19 2.19 0 0 0 2.17-1.14zm-5.94-2.73h4.64a2.26 2.26 0 0 0 -2.26-2.47 2.39 2.39 0 0 0 -2.38 2.47z"/><path d="m101.71 94.52h-1.37l-3.12-8.42h1.44l2.34 6.9h.13l2.3-6.94h1.44z"/><path d="m113.32 92.34a3.38 3.38 0 0 1 -3.55 2.33c-2.34 0-3.8-1.69-3.8-4.35s1.49-4.37 3.8-4.37 3.65 1.62 3.65 4.23v.52h-6v.06c.07 1.67 1 2.72 2.43 2.72a2.18 2.18 0 0 0 2.15-1.14zm-5.95-2.73h4.63a2.26 2.26 0 0 0 -2.26-2.47 2.39 2.39 0 0 0 -2.37 2.47z"/><path d="m115.72 82.75h1.34v11.77h-1.34z"/><path d="m119.33 90.31c0-2.71 1.48-4.36 3.88-4.36s3.88 1.65 3.88 4.36-1.48 4.36-3.88 4.36-3.88-1.67-3.88-4.36zm6.37 0c0-2-.9-3.15-2.49-3.15s-2.49 1.15-2.49 3.15.9 3.15 2.49 3.15 2.49-1.16 2.49-3.15z"/><path d="m137 90.31c0 2.63-1.4 4.36-3.54 4.36a2.82 2.82 0 0 1 -2.64-1.42h-.12v4.08h-1.4v-11.23h1.29v1.4h.12a3.06 3.06 0 0 1 2.7-1.55c2.14.05 3.59 1.71 3.59 4.36zm-1.4 0c0-2-.92-3.15-2.46-3.15s-2.48 1.21-2.48 3.15 1 3.15 2.48 3.15 2.41-1.18 2.41-3.15z"/><path d="m146.11 92.34a3.37 3.37 0 0 1 -3.55 2.33c-2.33 0-3.8-1.69-3.8-4.35s1.49-4.37 3.8-4.37 3.66 1.62 3.66 4.23v.52h-6.06v.06c.07 1.67 1 2.72 2.43 2.72a2.18 2.18 0 0 0 2.17-1.14zm-6-2.73h4.64a2.26 2.26 0 0 0 -2.25-2.47 2.4 2.4 0 0 0 -2.34 2.47z"/><path d="m148.45 86.1h1.28v1.25h.13a2.34 2.34 0 0 1 2.33-1.4 6.53 6.53 0 0 1 .67 0v1.34a5.47 5.47 0 0 0 -.86-.08 2.06 2.06 0 0 0 -2.21 2v5.22h-1.34z"/><path d="m166.3 92.34a3.36 3.36 0 0 1 -3.55 2.33c-2.33 0-3.79-1.69-3.79-4.35s1.48-4.32 3.79-4.32 3.66 1.62 3.66 4.23v.52h-6v.06c.07 1.67 1 2.72 2.43 2.72a2.19 2.19 0 0 0 2.16-1.19zm-5.94-2.73h4.64a2.27 2.27 0 0 0 -2.26-2.47 2.39 2.39 0 0 0 -2.38 2.47z"/><path d="m171.1 91.36-2 3.18h-1.53l2.89-4.21-2.92-4.21h1.6l2 3.13h.13l2-3.13h1.52l-2.86 4.16 2.9 4.26h-1.6l-2-3.18z"/><path d="m184.33 90.31c0 2.63-1.39 4.36-3.53 4.36a2.82 2.82 0 0 1 -2.64-1.42h-.16v4.08h-1.35v-11.23h1.35v1.4h.12a3.06 3.06 0 0 1 2.68-1.5c2.14 0 3.53 1.66 3.53 4.31zm-1.39 0c0-2-.92-3.15-2.46-3.15s-2.48 1.21-2.48 3.15 1 3.15 2.48 3.15 2.46-1.18 2.46-3.15z"/><path d="m193.5 92.34a3.37 3.37 0 0 1 -3.5 2.33c-2.34 0-3.8-1.69-3.8-4.35s1.44-4.32 3.8-4.32 3.66 1.62 3.66 4.23v.52h-6.06v.06c.07 1.67 1 2.72 2.43 2.72a2.18 2.18 0 0 0 2.17-1.14zm-5.95-2.73h4.64a2.26 2.26 0 0 0 -2.25-2.47 2.4 2.4 0 0 0 -2.39 2.47z"/><path d="m195.84 86.1h1.28v1.25h.13a2.34 2.34 0 0 1 2.33-1.4 6.53 6.53 0 0 1 .67 0v1.34a5.47 5.47 0 0 0 -.86-.08 2.06 2.06 0 0 0 -2.21 2v5.22h-1.34z"/><path d="m201.81 83.54a.94.94 0 1 1 .94.93.94.94 0 0 1 -.94-.93zm.26 2.56h1.35v8.42h-1.35z"/><path d="m213 92.34a3.38 3.38 0 0 1 -3.55 2.33c-2.34 0-3.8-1.69-3.8-4.35s1.49-4.37 3.8-4.37 3.65 1.62 3.65 4.23v.52h-6.1v.06c.07 1.67 1 2.72 2.43 2.72a2.18 2.18 0 0 0 2.17-1.14zm-6-2.73h4.64a2.26 2.26 0 0 0 -2.26-2.47 2.39 2.39 0 0 0 -2.38 2.47z"/><path d="m215.32 86.1h1.28v1.33h.12a2.55 2.55 0 0 1 2.53-1.43c1.9 0 2.95 1.12 2.95 3.12v5.45h-1.34v-5.17c0-1.52-.64-2.24-2-2.24a2.14 2.14 0 0 0 -2.21 2.38v5h-1.34z"/><path d="m230.39 88.68a2.1 2.1 0 0 0 -2.18-1.52c-1.51 0-2.47 1.21-2.47 3.12s1 3.18 2.47 3.18a2 2 0 0 0 2.18-1.46h1.35a3.25 3.25 0 0 1 -3.52 2.69c-2.36 0-3.87-1.71-3.87-4.39s1.5-4.33 3.86-4.33a3.3 3.3 0 0 1 3.53 2.73z"/><path d="m240.76 92.34a3.36 3.36 0 0 1 -3.54 2.33c-2.34 0-3.8-1.69-3.8-4.35s1.49-4.37 3.8-4.37 3.65 1.62 3.65 4.23v.52h-6.05v.06c.07 1.67 1 2.72 2.43 2.72a2.19 2.19 0 0 0 2.17-1.14zm-5.94-2.73h4.64a2.26 2.26 0 0 0 -2.26-2.47 2.39 2.39 0 0 0 -2.38 2.47z"/><path d="m248.38 87.22h-1.38v-1.12h1.4v-.94a2.18 2.18 0 0 1 2.45-2.48 5.14 5.14 0 0 1 .9.07v1.1a3.77 3.77 0 0 0 -.63 0c-1 0-1.37.47-1.37 1.39v.9h1.92v1.12h-1.92v7.3h-1.35z"/><path d="m253.6 86.1h1.28v1.25h.12a2.36 2.36 0 0 1 2.34-1.4 6.53 6.53 0 0 1 .67 0v1.34a5.47 5.47 0 0 0 -.86-.08 2.06 2.06 0 0 0 -2.21 2v5.22h-1.34z"/><path d="m259.28 90.31c0-2.71 1.49-4.36 3.89-4.36s3.88 1.65 3.88 4.36-1.48 4.36-3.88 4.36-3.89-1.67-3.89-4.36zm6.38 0c0-2-.9-3.15-2.49-3.15s-2.49 1.15-2.49 3.15.89 3.15 2.49 3.15 2.49-1.16 2.49-3.15z"/><path d="m269.26 86.1h1.28v1.33h.13a2.38 2.38 0 0 1 2.33-1.43 2.43 2.43 0 0 1 2.33 1.48h.12a2.84 2.84 0 0 1 2.6-1.48 2.45 2.45 0 0 1 2.68 2.75v5.82h-1.34v-5.57c0-1.24-.59-1.85-1.78-1.85a1.9 1.9 0 0 0 -1.95 2v5.41h-1.34v-5.76a1.6 1.6 0 0 0 -1.76-1.64 2 2 0 0 0 -1.95 2.14v5.22h-1.35z"/><path d="m.3 114.31c0-2.71 1.49-4.31 3.89-4.31s3.88 1.65 3.88 4.36-1.48 4.36-3.88 4.36-3.89-1.72-3.89-4.41zm6.38 0c0-2-.9-3.15-2.49-3.15s-2.49 1.15-2.49 3.15.89 3.15 2.49 3.15 2.49-1.16 2.49-3.15z"/><path d="m17.92 114.31c0 2.63-1.4 4.36-3.54 4.36a2.81 2.81 0 0 1 -2.63-1.42h-.12v4.08h-1.35v-11.23h1.28v1.4h.13a3.05 3.05 0 0 1 2.69-1.5c2.15 0 3.54 1.66 3.54 4.31zm-1.39 0c0-2-.92-3.15-2.46-3.15s-2.48 1.21-2.48 3.15 1 3.15 2.47 3.15 2.47-1.18 2.47-3.15z"/><path d="m27.08 116.34a3.36 3.36 0 0 1 -3.54 2.33c-2.34 0-3.8-1.69-3.8-4.35s1.49-4.37 3.8-4.37 3.65 1.62 3.65 4.23v.52h-6.05v.06c.07 1.67 1 2.72 2.43 2.72a2.18 2.18 0 0 0 2.17-1.14zm-5.94-2.73h4.64a2.26 2.26 0 0 0 -2.26-2.47 2.39 2.39 0 0 0 -2.38 2.47z"/><path d="m29.43 110.1h1.28v1.25h.12a2.36 2.36 0 0 1 2.34-1.4 6.53 6.53 0 0 1 .67 0v1.34a5.47 5.47 0 0 0 -.86-.08 2.06 2.06 0 0 0 -2.21 2v5.22h-1.34z"/><path d="m35.17 116.16c0-1.51 1.1-2.37 3.07-2.49l2.43-.15v-.77c0-1-.65-1.6-1.91-1.6-1 0-1.71.38-1.9 1h-1.36c.18-1.35 1.51-2.24 3.31-2.24 2 0 3.2 1 3.2 2.8v5.77h-1.28v-1.24h-.13a2.9 2.9 0 0 1 -2.6 1.43 2.56 2.56 0 0 1 -2.83-2.51zm5.5-.78v-.77l-2.27.14c-1.28.09-1.84.54-1.84 1.38s.72 1.36 1.7 1.36a2.22 2.22 0 0 0 2.41-2.11z"/><path d="m46.4 107.92v2.18h1.87v1.12h-1.87v4.78c0 1 .37 1.41 1.25 1.41a4.36 4.36 0 0 0 .62 0v1.13a4.15 4.15 0 0 1 -.79.08c-1.73 0-2.43-.64-2.43-2.25v-5.11h-1.36v-1.16h1.36v-2.18z"/><path d="m49.69 114.31c0-2.71 1.49-4.36 3.89-4.36s3.88 1.65 3.88 4.36-1.49 4.36-3.88 4.36-3.89-1.67-3.89-4.36zm6.38 0c0-2-.9-3.15-2.49-3.15s-2.5 1.15-2.5 3.15.9 3.15 2.5 3.15 2.49-1.16 2.49-3.15z"/><path d="m59.67 110.1h1.33v1.25h.13a2.35 2.35 0 0 1 2.33-1.4 6.53 6.53 0 0 1 .67 0v1.34a5.32 5.32 0 0 0 -.85-.08 2.07 2.07 0 0 0 -2.22 2v5.22h-1.39z"/><path d="m68.87 110c1.77 0 3 .87 3.17 2.26h-1.33a1.72 1.72 0 0 0 -1.85-1.12c-1 0-1.78.51-1.78 1.26 0 .58.47.94 1.46 1.18l1.3.31c1.58.38 2.35 1.07 2.35 2.28 0 1.51-1.46 2.55-3.38 2.55s-3.16-.9-3.31-2.3h1.39a1.84 1.84 0 0 0 2 1.17c1.13 0 2-.54 2-1.32 0-.57-.44-1-1.34-1.18l-1.55-.41c-1.58-.38-2.3-1.06-2.3-2.28.03-1.4 1.38-2.4 3.17-2.4z"/><path d="m74.06 121.39.75-4.45h1.49l-1.23 4.45z"/><path d="m83.38 114.31c0-2.64 1.4-4.36 3.54-4.36a2.86 2.86 0 0 1 2.64 1.48h.12v-4.68h1.32v11.77h-1.26v-1.34h-.12a3 3 0 0 1 -2.7 1.49c-2.15 0-3.54-1.67-3.54-4.36zm1.39 0c0 2 .93 3.15 2.46 3.15s2.48-1.21 2.48-3.15-.95-3.15-2.48-3.15-2.46 1.19-2.46 3.15z"/><path d="m100.62 116.34a3.36 3.36 0 0 1 -3.54 2.33c-2.34 0-3.8-1.69-3.8-4.35s1.48-4.37 3.8-4.37 3.65 1.62 3.65 4.23v.52h-6v.06c.07 1.67 1 2.72 2.43 2.72a2.19 2.19 0 0 0 2.17-1.14zm-5.94-2.73h4.64a2.26 2.26 0 0 0 -2.26-2.47 2.39 2.39 0 0 0 -2.38 2.47z"/><path d="m106.39 118.52h-1.39l-3.12-8.42h1.44l2.3 6.94h.13l2.3-6.94h1.44z"/><path d="m111.12 107.54a.94.94 0 1 1 .94.93.95.95 0 0 1 -.94-.93zm.27 2.56h1.34v8.42h-1.34z"/><path d="m121 112.68a2.09 2.09 0 0 0 -2.17-1.52c-1.52 0-2.47 1.21-2.47 3.12s1 3.18 2.47 3.18a2 2 0 0 0 2.17-1.46h1.36a3.25 3.25 0 0 1 -3.53 2.69c-2.36 0-3.86-1.71-3.86-4.39s1.5-4.33 3.86-4.33a3.31 3.31 0 0 1 3.53 2.73z"/><path d="m131.36 116.34a3.37 3.37 0 0 1 -3.55 2.33c-2.34 0-3.8-1.69-3.8-4.35s1.49-4.37 3.8-4.37 3.66 1.62 3.66 4.23v.52h-6.06v.06c.07 1.67 1 2.72 2.43 2.72a2.18 2.18 0 0 0 2.17-1.14zm-6-2.73h4.64a2.26 2.26 0 0 0 -2.26-2.47 2.39 2.39 0 0 0 -2.33 2.47z"/><path d="m136.6 110c1.76 0 3 .87 3.17 2.26h-1.33a1.72 1.72 0 0 0 -1.85-1.12c-1 0-1.78.51-1.78 1.26 0 .58.47.94 1.46 1.18l1.3.31c1.58.38 2.35 1.07 2.35 2.28 0 1.51-1.46 2.55-3.38 2.55s-3.16-.9-3.31-2.3h1.38a1.87 1.87 0 0 0 2 1.17c1.13 0 1.95-.54 1.95-1.32 0-.57-.44-1-1.34-1.18l-1.45-.36c-1.57-.38-2.29-1.06-2.29-2.28-.02-1.45 1.33-2.45 3.12-2.45z"/><path d="m146.71 121.39.74-4.45h1.49l-1.23 4.45z"/><path d="m156 114.31c0-2.71 1.48-4.36 3.88-4.36s3.88 1.65 3.88 4.36-1.48 4.36-3.88 4.36-3.88-1.67-3.88-4.36zm6.37 0c0-2-.9-3.15-2.49-3.15s-2.49 1.15-2.49 3.15.9 3.15 2.49 3.15 2.52-1.16 2.52-3.15z"/><path d="m173.65 114.31c0 2.63-1.4 4.36-3.54 4.36a2.82 2.82 0 0 1 -2.64-1.42h-.12v4.08h-1.35v-11.23h1.29v1.4h.12a3.06 3.06 0 0 1 2.7-1.55c2.14.05 3.54 1.71 3.54 4.36zm-1.4 0c0-2-.92-3.15-2.46-3.15s-2.48 1.21-2.48 3.15 1 3.15 2.48 3.15 2.46-1.18 2.46-3.15z"/><path d="m182.81 116.34a3.37 3.37 0 0 1 -3.55 2.33c-2.34 0-3.8-1.69-3.8-4.35s1.54-4.32 3.8-4.32 3.66 1.62 3.66 4.23v.52h-6.06v.06c.07 1.67 1 2.72 2.43 2.72a2.18 2.18 0 0 0 2.17-1.14zm-5.95-2.73h4.64a2.26 2.26 0 0 0 -2.25-2.47 2.4 2.4 0 0 0 -2.39 2.47z"/><path d="m185.15 110.1h1.28v1.25h.13a2.34 2.34 0 0 1 2.33-1.4 6.53 6.53 0 0 1 .67 0v1.34a5.47 5.47 0 0 0 -.86-.08 2.06 2.06 0 0 0 -2.21 2v5.22h-1.34z"/><path d="m190.89 116.16c0-1.51 1.11-2.37 3.07-2.49l2.43-.15v-.77c0-1-.65-1.6-1.91-1.6-1 0-1.71.38-1.9 1h-1.36c.18-1.35 1.51-2.24 3.31-2.24 2.05 0 3.2 1 3.2 2.8v5.77h-1.28v-1.24h-.13a2.89 2.89 0 0 1 -2.59 1.39 2.56 2.56 0 0 1 -2.84-2.47zm5.5-.78v-.77l-2.27.14c-1.28.09-1.84.54-1.84 1.38s.72 1.36 1.7 1.36a2.22 2.22 0 0 0 2.41-2.11z"/><path d="m202.12 107.92v2.18h1.88v1.12h-1.88v4.78c0 1 .38 1.41 1.25 1.41a4.5 4.5 0 0 0 .63 0v1.13a4.32 4.32 0 0 1 -.79.08c-1.74 0-2.43-.64-2.43-2.25v-5.11h-1.36v-1.16h1.36v-2.18z"/><path d="m205.73 107.54a.94.94 0 1 1 .94.93.94.94 0 0 1 -.94-.93zm.27 2.56h1.34v8.42h-1.34z"/><path d="m210 110.1h1.29v1.33h.12a2.53 2.53 0 0 1 2.53-1.48c1.89 0 2.95 1.12 2.95 3.12v5.45h-1.35v-5.12c0-1.52-.64-2.24-2-2.24a2.14 2.14 0 0 0 -2.21 2.38v5h-1.33z"/><path d="m219.39 119.45h1.42c.15.69.9 1.13 2.11 1.13 1.51 0 2.4-.74 2.4-2v-1.66h-.12a2.93 2.93 0 0 1 -2.64 1.46c-2.18 0-3.53-1.69-3.53-4.22s1.36-4.23 3.53-4.23a3 3 0 0 1 2.7 1.48h.13v-1.31h1.28v8.57c0 1.88-1.46 3.08-3.75 3.08-2.03 0-3.33-.91-3.53-2.3zm6-5.27c0-1.83-.94-3-2.5-3s-2.43 1.19-2.43 3 .87 3 2.43 3 2.46-1.18 2.46-3z"/><path d="m237 110c1.77 0 3 .87 3.17 2.26h-1.33a1.72 1.72 0 0 0 -1.85-1.12c-1 0-1.78.51-1.78 1.26 0 .58.47.94 1.46 1.18l1.3.31c1.58.38 2.35 1.07 2.35 2.28 0 1.51-1.46 2.55-3.38 2.55s-3.16-.9-3.31-2.3h1.37a1.84 1.84 0 0 0 2 1.17c1.13 0 1.95-.54 1.95-1.32 0-.57-.44-1-1.34-1.18l-1.44-.36c-1.58-.38-2.3-1.06-2.3-2.28-.03-1.45 1.32-2.45 3.13-2.45z"/><path d="m242.44 121.52v-1.15a3.28 3.28 0 0 0 .56 0c.77 0 1.2-.37 1.55-1.38l.15-.5-3.11-8.43h1.41l2.31 6.93h.13l2.3-6.93h1.43l-3.25 8.94c-.72 1.95-1.39 2.53-2.88 2.53a4.16 4.16 0 0 1 -.6-.01z"/><path d="m253.83 110c1.77 0 3 .87 3.17 2.26h-1.33a1.71 1.71 0 0 0 -1.85-1.12c-1 0-1.78.51-1.78 1.26 0 .58.47.94 1.46 1.18l1.3.31c1.59.38 2.35 1.07 2.35 2.28 0 1.51-1.46 2.55-3.37 2.55s-3.17-.9-3.32-2.3h1.39a1.85 1.85 0 0 0 2 1.17c1.14 0 2-.54 2-1.32 0-.57-.44-1-1.34-1.18l-1.44-.36c-1.58-.38-2.3-1.06-2.3-2.28-.08-1.45 1.23-2.45 3.06-2.45z"/><path d="m261.3 107.92v2.18h1.88v1.12h-1.88v4.78c0 1 .38 1.41 1.25 1.41a4.43 4.43 0 0 0 .63 0v1.13a4.23 4.23 0 0 1 -.79.08c-1.73 0-2.43-.64-2.43-2.25v-5.11h-1.36v-1.16h1.4v-2.18z"/><path d="m271.94 116.34a3.36 3.36 0 0 1 -3.54 2.33c-2.34 0-3.8-1.69-3.8-4.35s1.48-4.37 3.8-4.37 3.65 1.62 3.65 4.23v.52h-6.05v.06c.07 1.67 1 2.72 2.43 2.72a2.19 2.19 0 0 0 2.17-1.14zm-5.94-2.73h4.64a2.26 2.26 0 0 0 -2.26-2.47 2.39 2.39 0 0 0 -2.38 2.47z"/><path d="m274.29 110.1h1.28v1.33h.12a2.38 2.38 0 0 1 2.31-1.43 2.43 2.43 0 0 1 2.33 1.48h.13a2.81 2.81 0 0 1 2.57-1.48 2.45 2.45 0 0 1 2.68 2.75v5.82h-1.34v-5.57c0-1.24-.59-1.85-1.77-1.85a1.91 1.91 0 0 0 -2 2v5.41h-1.34v-5.76a1.59 1.59 0 0 0 -1.76-1.64 2 2 0 0 0 -1.95 2.14v5.22h-1.34z"/><path d="m291.21 110c1.76 0 3 .87 3.17 2.26h-1.33a1.72 1.72 0 0 0 -1.85-1.12c-1 0-1.78.51-1.78 1.26 0 .58.47.94 1.46 1.18l1.3.31c1.58.38 2.35 1.07 2.35 2.28 0 1.51-1.46 2.55-3.38 2.55s-3.16-.9-3.31-2.3h1.38a1.87 1.87 0 0 0 2 1.17c1.13 0 1.95-.54 1.95-1.32 0-.57-.44-1-1.34-1.18l-1.45-.36c-1.57-.38-2.29-1.06-2.29-2.28-.02-1.45 1.33-2.45 3.12-2.45z"/><path d="m.44 151.17c0-4.12 2.26-6.66 5.95-6.66a5.2 5.2 0 0 1 5.5 4.7h-2.59a2.85 2.85 0 0 0 -2.91-2.44c-2 0-3.24 1.69-3.24 4.4s1.24 4.41 3.25 4.41a2.78 2.78 0 0 0 2.91-2.3h2.59c-.22 2.71-2.45 4.56-5.51 4.56-3.68 0-5.95-2.54-5.95-6.67z"/><path d="m14.31 144.14h2.51v5.28h.18a3 3 0 0 1 2.93-1.76c2.08 0 3.32 1.31 3.32 3.63v6.23h-2.58v-5.65c0-1.37-.62-2.08-1.78-2.08a1.94 1.94 0 0 0 -2 2.16v5.57h-2.58z"/><path d="m25.36 152.68c0-3.13 1.82-5.05 4.77-5.05s4.78 1.91 4.78 5.05-1.8 5-4.78 5-4.77-1.85-4.77-5zm6.92 0c0-1.9-.79-3-2.15-3s-2.14 1.12-2.14 3 .77 3 2.14 3 2.15-1.09 2.15-3z"/><path d="m36.94 144.93a1.45 1.45 0 1 1 1.45 1.43 1.44 1.44 0 0 1 -1.45-1.43zm.17 2.91h2.55v9.68h-2.55z"/><path d="m48.56 151.22a1.8 1.8 0 0 0 -1.92-1.55c-1.38 0-2.16 1.06-2.16 3s.79 3 2.16 3a1.77 1.77 0 0 0 1.92-1.48h2.44c-.21 2.12-1.79 3.51-4.31 3.51-3 0-4.74-1.83-4.74-5.06s1.7-5 4.74-5c2.56 0 4.1 1.43 4.31 3.59z"/><path d="m61.72 154.79c-.38 1.8-2.06 2.93-4.43 2.93-2.95 0-4.69-1.86-4.69-5s1.77-5.1 4.66-5.1 4.54 1.83 4.54 4.89v.76h-6.65v.13a2.18 2.18 0 0 0 2.21 2.41 1.94 1.94 0 0 0 2-1zm-6.56-3.1h4.13a2 2 0 0 0 -2-2.15 2.09 2.09 0 0 0 -2.13 2.15z"/><path d="m4.56 181.52h-1.33l-3.07-11.27h1.47l2.25 9.16h.12l2.52-9.16h1.39l2.53 9.16h.09l2.24-9.16h1.47l-3.07 11.27h-1.33l-2.59-8.9h-.09z"/><path d="m15.35 177.31c0-2.71 1.49-4.36 3.89-4.36s3.88 1.65 3.88 4.36-1.48 4.36-3.88 4.36-3.89-1.67-3.89-4.36zm6.38 0c0-2-.9-3.15-2.49-3.15s-2.5 1.15-2.5 3.15.9 3.15 2.5 3.15 2.49-1.16 2.49-3.15z"/><path d="m25.33 173.1h1.28v1.25h.13a2.35 2.35 0 0 1 2.33-1.4h.68v1.34a5.6 5.6 0 0 0 -.86-.08 2.07 2.07 0 0 0 -2.22 2.05v5.22h-1.34z"/><path d="m36.72 173.1h1.65l-3.62 3.61 3.86 4.81h-1.71l-3.15-4-.81.75v3.2h-1.34v-11.72h1.34v7h.13z"/><path d="m43 173c1.76 0 3 .87 3.17 2.26h-1.29a1.72 1.72 0 0 0 -1.88-1.17c-1 0-1.78.51-1.78 1.26 0 .58.47.94 1.46 1.18l1.3.31c1.58.38 2.35 1.07 2.35 2.28 0 1.51-1.46 2.55-3.38 2.55s-3.16-.9-3.31-2.3h1.38a1.87 1.87 0 0 0 2 1.17c1.13 0 1.94-.54 1.94-1.32 0-.57-.43-1-1.33-1.18l-1.45-.36c-1.57-.38-2.29-1.06-2.29-2.28.01-1.4 1.36-2.4 3.11-2.4z"/><path d="m61.54 181.52h-1.37l-1.88-6.52h-.13l-1.87 6.52h-1.36l-2.36-8.42h1.36l1.65 6.73h.13l1.88-6.73h1.29l1.88 6.73h.13l1.65-6.73h1.36z"/><path d="m65.52 170.54a.94.94 0 1 1 .93.93.94.94 0 0 1 -.93-.93zm.26 2.56h1.35v8.42h-1.35z"/><path d="m71.69 170.92v2.18h1.87v1.12h-1.87v4.78c0 1 .37 1.41 1.25 1.41a4.36 4.36 0 0 0 .62 0v1.13a4.15 4.15 0 0 1 -.79.08c-1.73 0-2.43-.64-2.43-2.25v-5.11h-1.34v-1.16h1.36v-2.18z"/><path d="m75.59 169.75h1.35v4.68h.12a2.64 2.64 0 0 1 2.6-1.48c1.78 0 2.9 1.14 2.9 3.12v5.45h-1.34v-5.12c0-1.5-.67-2.24-2-2.24a2.17 2.17 0 0 0 -2.33 2.38v5h-1.3z"/><path d="m89.43 177.31c0-2.71 1.48-4.36 3.88-4.36s3.89 1.65 3.89 4.36-1.49 4.36-3.89 4.36-3.88-1.67-3.88-4.36zm6.38 0c0-2-.9-3.15-2.5-3.15s-2.49 1.15-2.49 3.15.9 3.15 2.49 3.15 2.5-1.16 2.5-3.15z"/><path d="m107.05 177.31c0 2.63-1.4 4.36-3.54 4.36a2.81 2.81 0 0 1 -2.63-1.42h-.13v4.08h-1.34v-11.23h1.28v1.4h.12a3.06 3.06 0 0 1 2.7-1.55c2.15.05 3.54 1.71 3.54 4.36zm-1.39 0c0-2-.92-3.15-2.46-3.15s-2.49 1.21-2.49 3.15 1 3.15 2.48 3.15 2.47-1.18 2.47-3.15z"/><path d="m116.21 179.34a3.36 3.36 0 0 1 -3.55 2.33c-2.33 0-3.79-1.69-3.79-4.35s1.48-4.37 3.79-4.37 3.66 1.62 3.66 4.23v.52h-6v.06c.07 1.67 1 2.72 2.43 2.72a2.19 2.19 0 0 0 2.17-1.14zm-5.94-2.73h4.64a2.27 2.27 0 0 0 -2.26-2.47 2.39 2.39 0 0 0 -2.38 2.47z"/><path d="m118.55 173.1h1.28v1.25h.17a2.35 2.35 0 0 1 2.33-1.4h.68v1.34a5.6 5.6 0 0 0 -.86-.08 2.06 2.06 0 0 0 -2.21 2.05v5.22h-1.35z"/><path d="m124.29 179.16c0-1.51 1.11-2.37 3.07-2.49l2.43-.15v-.77c0-1-.65-1.6-1.91-1.6-1 0-1.71.38-1.89 1h-1.36c.18-1.35 1.5-2.24 3.3-2.24 2.06 0 3.2 1.05 3.2 2.8v5.77h-1.28v-1.24h-.12a2.91 2.91 0 0 1 -2.6 1.39 2.56 2.56 0 0 1 -2.84-2.47zm5.5-.78v-.77l-2.27.14c-1.28.09-1.84.54-1.84 1.38s.73 1.36 1.7 1.36a2.22 2.22 0 0 0 2.41-2.11z"/><path d="m135.52 170.92v2.18h1.88v1.12h-1.88v4.78c0 1 .38 1.41 1.25 1.41a4.43 4.43 0 0 0 .63 0v1.13a4.23 4.23 0 0 1 -.79.08c-1.73 0-2.43-.64-2.43-2.25v-5.11h-1.36v-1.16h1.36v-2.18z"/><path d="m138.82 177.31c0-2.71 1.48-4.36 3.88-4.36s3.88 1.65 3.88 4.36-1.48 4.36-3.88 4.36-3.88-1.67-3.88-4.36zm6.37 0c0-2-.89-3.15-2.49-3.15s-2.49 1.15-2.49 3.15.9 3.15 2.49 3.15 2.49-1.16 2.49-3.15z"/><path d="m148.8 173.1h1.28v1.25h.12a2.36 2.36 0 0 1 2.34-1.4 6.53 6.53 0 0 1 .67 0v1.34a5.47 5.47 0 0 0 -.86-.08 2.06 2.06 0 0 0 -2.21 2.05v5.22h-1.34z"/><path d="m158 173c1.76 0 3 .87 3.17 2.26h-1.33a1.72 1.72 0 0 0 -1.85-1.12c-1 0-1.78.51-1.78 1.26 0 .58.46.94 1.46 1.18l1.29.31c1.59.38 2.36 1.07 2.36 2.28 0 1.51-1.47 2.55-3.38 2.55s-3.16-.9-3.31-2.3h1.37a1.87 1.87 0 0 0 2 1.17c1.13 0 1.94-.54 1.94-1.32 0-.57-.43-1-1.33-1.18l-1.45-.36c-1.58-.38-2.3-1.06-2.3-2.28-.01-1.45 1.35-2.45 3.14-2.45z"/><path d="m175.35 180.4a5.58 5.58 0 0 1 -3.64 1.33c-2.25 0-3.82-1.33-3.82-3.22a3.51 3.51 0 0 1 2.24-3.15l.44-.21a3.87 3.87 0 0 1 -1.42-2.65 2.9 2.9 0 0 1 5.75 0c0 1.16-.69 2-2.44 2.91l2.82 3a6.6 6.6 0 0 0 .54-3v-.19h1.31v.2a7.14 7.14 0 0 1 -.93 4l2 2.1h-1.77zm-6-2c0 1.26 1 2.12 2.53 2.12a3.86 3.86 0 0 0 2.7-1l-3.24-3.52-.4.19a2.57 2.57 0 0 0 -1.64 2.23zm4.28-5.85a1.54 1.54 0 0 0 -3.08 0c0 .63.32 1.17 1.21 2.06 1.32-.68 1.82-1.24 1.82-2.04z"/><path d="m191.4 179.34a3.36 3.36 0 0 1 -3.55 2.33c-2.33 0-3.79-1.69-3.79-4.35s1.48-4.37 3.79-4.37 3.66 1.62 3.66 4.23v.52h-6v.06c.07 1.67 1 2.72 2.43 2.72a2.19 2.19 0 0 0 2.17-1.14zm-5.94-2.73h4.64a2.27 2.27 0 0 0 -2.26-2.47 2.39 2.39 0 0 0 -2.38 2.47z"/><path d="m193.74 173.1h1.26v1.33h.13a2.53 2.53 0 0 1 2.53-1.48c1.89 0 2.95 1.12 2.95 3.12v5.45h-1.35v-5.12c0-1.52-.64-2.24-2-2.24a2.13 2.13 0 0 0 -2.21 2.38v5h-1.35z"/><path d="m202.78 177.31c0-2.64 1.4-4.36 3.54-4.36a2.87 2.87 0 0 1 2.64 1.48h.12v-4.68h1.34v11.77h-1.28v-1.34h-.14a3 3 0 0 1 -2.69 1.49c-2.15 0-3.53-1.67-3.53-4.36zm1.39 0c0 2 .92 3.15 2.46 3.15s2.48-1.21 2.48-3.15-1-3.15-2.48-3.15-2.46 1.19-2.46 3.15z"/><path d="m225.51 177.31c0 2.63-1.4 4.36-3.54 4.36a2.83 2.83 0 0 1 -2.64-1.42h-.12v4.08h-1.34v-11.23h1.28v1.4h.12a3.06 3.06 0 0 1 2.73-1.5c2.12 0 3.51 1.66 3.51 4.31zm-1.39 0c0-2-.93-3.15-2.47-3.15s-2.48 1.21-2.48 3.15 1 3.15 2.48 3.15 2.47-1.18 2.47-3.15z"/><path d="m227.33 177.31c0-2.71 1.48-4.36 3.88-4.36s3.88 1.65 3.88 4.36-1.48 4.36-3.88 4.36-3.88-1.67-3.88-4.36zm6.37 0c0-2-.9-3.15-2.49-3.15s-2.49 1.15-2.49 3.15.89 3.15 2.49 3.15 2.49-1.16 2.49-3.15z"/><path d="m237 170.54a.94.94 0 1 1 .94.93.95.95 0 0 1 -.94-.93zm.27 2.56h1.34v8.42h-1.34z"/><path d="m241.27 173.1h1.28v1.33h.12a2.55 2.55 0 0 1 2.54-1.48c1.89 0 2.94 1.12 2.94 3.12v5.45h-1.34v-5.12c0-1.52-.64-2.24-2-2.24a2.14 2.14 0 0 0 -2.21 2.38v5h-1.34z"/><path d="m252.5 170.92v2.18h1.88v1.12h-1.88v4.78c0 1 .38 1.41 1.25 1.41a4.43 4.43 0 0 0 .63 0v1.13a4.23 4.23 0 0 1 -.79.08c-1.73 0-2.43-.64-2.43-2.25v-5.11h-1.36v-1.16h1.36v-2.18z"/><path d="m259.43 173c1.77 0 3 .87 3.17 2.26h-1.32a1.72 1.72 0 0 0 -1.85-1.12c-1 0-1.79.51-1.79 1.26 0 .58.47.94 1.46 1.18l1.3.31c1.59.38 2.35 1.07 2.35 2.28 0 1.51-1.46 2.55-3.37 2.55s-3.17-.9-3.31-2.3h1.38a1.87 1.87 0 0 0 2 1.17c1.13 0 1.94-.54 1.94-1.32 0-.57-.44-1-1.34-1.18l-1.44-.36c-1.58-.38-2.3-1.06-2.3-2.28-.02-1.45 1.33-2.45 3.12-2.45z"/><path d="m.23 203.16c0-1.51 1.11-2.37 3.07-2.49l2.43-.15v-.77c0-1-.65-1.6-1.91-1.6-1 0-1.71.38-1.9 1h-1.36c.18-1.31 1.51-2.15 3.31-2.15 2.05 0 3.2 1.05 3.2 2.8v5.77h-1.28v-1.24h-.13a2.89 2.89 0 0 1 -2.59 1.39 2.56 2.56 0 0 1 -2.84-2.56zm5.5-.78v-.77l-2.27.14c-1.28.09-1.84.54-1.84 1.38s.72 1.36 1.7 1.36a2.22 2.22 0 0 0 2.41-2.11z"/><path d="m9.66 197.1h1.28v1.25h.12a2.36 2.36 0 0 1 2.34-1.35 6.53 6.53 0 0 1 .67 0v1.34a5.47 5.47 0 0 0 -.86-.08 2.06 2.06 0 0 0 -2.21 2.04v5.22h-1.34z"/><path d="m15.34 201.31c0-2.71 1.49-4.36 3.89-4.36s3.88 1.65 3.88 4.36-1.49 4.36-3.88 4.36-3.89-1.67-3.89-4.36zm6.38 0c0-2-.9-3.15-2.49-3.15s-2.5 1.15-2.5 3.15.9 3.15 2.5 3.15 2.49-1.16 2.49-3.15z"/><path d="m32.15 205.52h-1.29v-1.32h-.12a2.62 2.62 0 0 1 -2.61 1.47c-1.89 0-2.87-1.13-2.87-3.12v-5.45h1.34v5.12c0 1.52.56 2.22 1.91 2.22a2.11 2.11 0 0 0 2.29-2.36v-5h1.35z"/><path d="m34.77 197.1h1.28v1.33h.12a2.55 2.55 0 0 1 2.53-1.43c1.9 0 2.95 1.12 2.95 3.12v5.45h-1.34v-5.17c0-1.52-.64-2.24-2-2.24a2.14 2.14 0 0 0 -2.21 2.38v5h-1.33z"/><path d="m43.8 201.31c0-2.64 1.4-4.36 3.54-4.36a2.87 2.87 0 0 1 2.66 1.48h.12v-4.68h1.34v11.77h-1.3v-1.34h-.16a3 3 0 0 1 -2.69 1.49c-2.13 0-3.51-1.67-3.51-4.36zm1.39 0c0 2 .92 3.15 2.46 3.15s2.48-1.21 2.48-3.15-1-3.15-2.48-3.15-2.46 1.19-2.46 3.15z"/><path d="m60.79 194.92v2.18h1.88v1.12h-1.88v4.78c0 1 .38 1.41 1.25 1.41a4.5 4.5 0 0 0 .63 0v1.13a4.32 4.32 0 0 1 -.79.08c-1.74 0-2.43-.64-2.43-2.25v-5.11h-1.36v-1.16h1.36v-2.18z"/><path d="m64.7 193.75h1.3v4.68h.13a2.62 2.62 0 0 1 2.63-1.43 2.78 2.78 0 0 1 2.91 3.12v5.45h-1.35v-5.17c0-1.5-.67-2.24-1.94-2.24a2.18 2.18 0 0 0 -2.38 2.38v5h-1.3z"/><path d="m81.16 203.34a3.37 3.37 0 0 1 -3.55 2.33c-2.34 0-3.8-1.69-3.8-4.35s1.49-4.32 3.8-4.32 3.66 1.62 3.66 4.23v.52h-6.06v.06c.07 1.67 1 2.72 2.43 2.72a2.18 2.18 0 0 0 2.17-1.14zm-6-2.73h4.64a2.26 2.26 0 0 0 -2.25-2.47 2.4 2.4 0 0 0 -2.34 2.47z"/><path d="m88.15 206.45h1.42c.15.69.9 1.13 2.11 1.13 1.51 0 2.41-.74 2.41-2v-1.66h-.09a2.92 2.92 0 0 1 -2.64 1.46c-2.18 0-3.53-1.69-3.53-4.22s1.33-4.16 3.49-4.16a3 3 0 0 1 2.7 1.48h.13v-1.38h1.28v8.57c0 1.88-1.45 3.08-3.75 3.08-2.03 0-3.33-.91-3.53-2.3zm6-5.27c0-1.83-1-3-2.5-3s-2.44 1.19-2.44 3 .88 3 2.44 3 2.47-1.18 2.47-3z"/><path d="m98.1 193.75h1.34v11.77h-1.34z"/><path d="m101.71 201.31c0-2.71 1.48-4.36 3.88-4.36s3.88 1.65 3.88 4.36-1.48 4.36-3.88 4.36-3.88-1.67-3.88-4.36zm6.37 0c0-2-.89-3.15-2.49-3.15s-2.49 1.15-2.49 3.15.9 3.15 2.49 3.15 2.49-1.16 2.49-3.15z"/><path d="m113.14 204.18h-.14v1.34h-1.28v-11.77h1.35v4.68h.12a2.91 2.91 0 0 1 2.64-1.48c2.14 0 3.53 1.71 3.53 4.36s-1.4 4.36-3.53 4.36a3 3 0 0 1 -2.69-1.49zm-.1-2.87c0 1.94 1 3.15 2.49 3.15s2.45-1.18 2.45-3.15-.91-3.15-2.45-3.15-2.53 1.2-2.53 3.15z"/><path d="m128.54 203.34a3.37 3.37 0 0 1 -3.55 2.33c-2.34 0-3.8-1.69-3.8-4.35s1.49-4.32 3.81-4.32 3.66 1.62 3.66 4.23v.52h-6.06v.06c.07 1.67 1 2.72 2.43 2.72a2.18 2.18 0 0 0 2.17-1.14zm-5.95-2.73h4.64a2.26 2.26 0 0 0 -2.26-2.47 2.39 2.39 0 0 0 -2.38 2.47z"/><path d="m4.08 244.52v-10.52h-3.81v-2.19h10.27v2.19h-3.81v10.49z"/><path d="m11.23 234.84h2.48v1.54h.16a2.49 2.49 0 0 1 2.49-1.7 4 4 0 0 1 1 .12v2.25a5.22 5.22 0 0 0 -1.21-.14 2.14 2.14 0 0 0 -2.36 2.2v5.41h-2.56z"/><path d="m28 244.52h-2.51v-1.52h-.16a2.74 2.74 0 0 1 -2.83 1.76c-2.09 0-3.39-1.32-3.39-3.57v-6.31h2.56v5.67c0 1.37.6 2.07 1.78 2.07s2-.82 2-2.15v-5.59h2.55z"/><path d="m34.43 234.63c2.46 0 3.91 1 4 2.86h-2.32c-.13-.64-.72-1-1.67-1s-1.59.43-1.59 1.06.42.81 1.31 1l1.82.39c1.88.41 2.73 1.21 2.73 2.65 0 1.91-1.74 3.16-4.28 3.16s-4.1-1-4.28-2.87h2.5c.19.67.82 1.06 1.84 1.06s1.68-.44 1.68-1.08-.37-.79-1.23-1l-1.75-.4c-1.88-.41-2.8-1.3-2.8-2.79 0-1.82 1.61-3.04 4.04-3.04z"/><path d="m44.24 232.53v2.4h2v1.94h-2v4.45c0 .87.39 1.27 1.26 1.27a5.38 5.38 0 0 0 .75 0v1.89a7.14 7.14 0 0 1 -1.28.12c-2.36 0-3.29-.77-3.29-2.65v-5h-1.51v-1.94h1.51v-2.4z"/><path d="m4.56 268.52h-1.33l-3.07-11.27h1.47l2.25 9.16h.12l2.52-9.16h1.39l2.53 9.16h.09l2.24-9.16h1.47l-3.07 11.27h-1.33l-2.59-8.9h-.09z"/><path d="m22.64 266.34a3.38 3.38 0 0 1 -3.55 2.33c-2.34 0-3.8-1.69-3.8-4.35s1.49-4.37 3.8-4.37 3.65 1.62 3.65 4.23v.52h-6v.06c.07 1.67 1 2.72 2.43 2.72a2.18 2.18 0 0 0 2.17-1.14zm-5.95-2.73h4.64a2.26 2.26 0 0 0 -2.26-2.47 2.39 2.39 0 0 0 -2.38 2.47z"/><path d="m37.33 264.31c0 2.63-1.4 4.36-3.54 4.36a2.81 2.81 0 0 1 -2.63-1.42h-.16v4.08h-1.31v-11.23h1.31v1.4h.13a3 3 0 0 1 2.66-1.5c2.15 0 3.54 1.66 3.54 4.31zm-1.39 0c0-2-.92-3.15-2.46-3.15s-2.48 1.21-2.48 3.15 1 3.15 2.48 3.15 2.46-1.18 2.46-3.15z"/><path d="m39.05 266.16c0-1.51 1.11-2.37 3.07-2.49l2.43-.15v-.77c0-1-.65-1.6-1.91-1.6-1 0-1.71.38-1.9 1h-1.36c.18-1.35 1.51-2.24 3.31-2.24 2.05 0 3.2 1.05 3.2 2.8v5.77h-1.28v-1.24h-.13a2.89 2.89 0 0 1 -2.59 1.39 2.56 2.56 0 0 1 -2.84-2.47zm5.5-.78v-.77l-2.27.14c-1.28.09-1.84.54-1.84 1.38s.72 1.36 1.7 1.36a2.22 2.22 0 0 0 2.41-2.11z"/><path d="m51.36 260c1.77 0 3 .87 3.17 2.26h-1.32a1.73 1.73 0 0 0 -1.86-1.12c-1 0-1.78.51-1.78 1.26 0 .58.47.94 1.46 1.18l1.3.31c1.59.38 2.35 1.07 2.35 2.28 0 1.51-1.46 2.55-3.37 2.55s-3.17-.9-3.32-2.3h1.39a1.85 1.85 0 0 0 2 1.17c1.14 0 1.95-.54 1.95-1.32 0-.57-.44-1-1.34-1.18l-1.44-.36c-1.58-.38-2.3-1.06-2.3-2.28-.03-1.45 1.32-2.45 3.11-2.45z"/><path d="m59.87 260c1.76 0 3 .87 3.17 2.26h-1.33a1.72 1.72 0 0 0 -1.85-1.12c-1 0-1.78.51-1.78 1.26 0 .58.47.94 1.46 1.18l1.3.31c1.58.38 2.35 1.07 2.35 2.28 0 1.51-1.46 2.55-3.38 2.55s-3.16-.9-3.31-2.3h1.38a1.87 1.87 0 0 0 2 1.17c1.13 0 2-.54 2-1.32 0-.57-.44-1-1.34-1.18l-1.54-.41c-1.57-.38-2.29-1.06-2.29-2.28.02-1.4 1.37-2.4 3.16-2.4z"/><path d="m77 268.52h-1.34v-1.32h-.12a2.62 2.62 0 0 1 -2.61 1.47c-1.89 0-2.87-1.13-2.87-3.12v-5.45h1.34v5.12c0 1.52.56 2.22 1.91 2.22a2.11 2.11 0 0 0 2.29-2.36v-5h1.4z"/><path d="m82.47 260c1.76 0 3 .87 3.17 2.26h-1.33a1.72 1.72 0 0 0 -1.85-1.12c-1 0-1.78.51-1.78 1.26 0 .58.47.94 1.46 1.18l1.3.31c1.58.38 2.35 1.07 2.35 2.28 0 1.51-1.46 2.55-3.38 2.55s-3.16-.9-3.31-2.3h1.38a1.87 1.87 0 0 0 2 1.17c1.13 0 2-.54 2-1.32 0-.57-.44-1-1.34-1.18l-1.45-.36c-1.57-.38-2.29-1.06-2.29-2.28-.07-1.45 1.28-2.45 3.07-2.45z"/><path d="m94.89 266.34a3.37 3.37 0 0 1 -3.55 2.33c-2.34 0-3.8-1.69-3.8-4.35s1.46-4.32 3.8-4.32 3.66 1.57 3.66 4.18v.52h-6.06v.06c.07 1.67 1 2.72 2.43 2.72a2.18 2.18 0 0 0 2.17-1.14zm-6-2.73h4.64a2.26 2.26 0 0 0 -2.25-2.47 2.4 2.4 0 0 0 -2.34 2.47z"/><path d="m97.23 260.1h1.28v1.25h.13a2.34 2.34 0 0 1 2.36-1.35 6.53 6.53 0 0 1 .67 0v1.34a5.47 5.47 0 0 0 -.86-.08 2.06 2.06 0 0 0 -2.21 2.05v5.22h-1.37z"/><path d="m108.33 268.52v-11.27h1.41v11.27z"/><path d="m116.68 257.25c3.34 0 5.32 2.08 5.32 5.63s-2 5.64-5.32 5.64h-3.87v-11.27zm-2.46 10h2.37c2.51 0 4-1.6 4-4.35s-1.47-4.39-4-4.39h-2.37z"/><path d="m130.58 267.18h-.12v1.34h-1.28v-11.77h1.34v4.68h.13a2.9 2.9 0 0 1 2.64-1.48c2.14 0 3.53 1.71 3.53 4.36s-1.4 4.36-3.53 4.36a3.06 3.06 0 0 1 -2.71-1.49zm-.09-2.87c0 1.94.95 3.15 2.49 3.15s2.45-1.18 2.45-3.15-.92-3.15-2.45-3.15-2.49 1.2-2.49 3.15z"/><path d="m146 266.34a3.36 3.36 0 0 1 -3.54 2.33c-2.34 0-3.8-1.69-3.8-4.35s1.48-4.37 3.8-4.37 3.65 1.62 3.65 4.23v.52h-6.11v.06c.07 1.67 1 2.72 2.43 2.72a2.19 2.19 0 0 0 2.17-1.14zm-6-2.73h4.64a2.26 2.26 0 0 0 -2.26-2.47 2.39 2.39 0 0 0 -2.38 2.47z"/><path d="m150.08 257.92v2.18h1.92v1.12h-1.87v4.78c0 1 .37 1.41 1.25 1.41a4.36 4.36 0 0 0 .62 0v1.13a4.13 4.13 0 0 1 -.78.08c-1.74 0-2.43-.64-2.43-2.25v-5.11h-1.36v-1.16h1.36v-2.18z"/><path d="m162.55 268.52h-1.37l-1.88-6.52h-.13l-1.87 6.52h-1.36l-2.36-8.42h1.36l1.65 6.73h.13l1.88-6.73h1.29l1.88 6.73h.13l1.65-6.73h1.35z"/><path d="m173.49 266.34a3.37 3.37 0 0 1 -3.55 2.33c-2.34 0-3.8-1.69-3.8-4.35s1.49-4.37 3.8-4.37 3.66 1.62 3.66 4.23v.52h-6.06v.06c.07 1.67 1 2.72 2.43 2.72a2.18 2.18 0 0 0 2.17-1.14zm-6-2.73h4.64a2.26 2.26 0 0 0 -2.26-2.47 2.39 2.39 0 0 0 -2.33 2.47z"/><path d="m182.76 266.34a3.36 3.36 0 0 1 -3.55 2.33c-2.33 0-3.79-1.69-3.79-4.35s1.48-4.37 3.79-4.37 3.66 1.62 3.66 4.23v.52h-6.05v.06c.07 1.67 1 2.72 2.43 2.72a2.19 2.19 0 0 0 2.17-1.14zm-5.94-2.73h4.64a2.27 2.27 0 0 0 -2.26-2.47 2.39 2.39 0 0 0 -2.38 2.47z"/><path d="m185.1 260.1h1.28v1.33h.13a2.53 2.53 0 0 1 2.49-1.43c1.89 0 3 1.12 3 3.12v5.45h-1.35v-5.17c0-1.52-.64-2.24-2-2.24a2.13 2.13 0 0 0 -2.21 2.38v5h-1.34z"/><path d="m198.77 266.16c0-1.51 1.11-2.37 3.07-2.49l2.43-.15v-.77c0-1-.64-1.6-1.9-1.6-1 0-1.71.38-1.9 1h-1.36c.18-1.35 1.51-2.24 3.31-2.24 2.05 0 3.2 1.05 3.2 2.8v5.77h-1.28v-1.24h-.13a2.9 2.9 0 0 1 -2.59 1.39 2.57 2.57 0 0 1 -2.85-2.47zm5.5-.78v-.77l-2.26.14c-1.28.09-1.84.54-1.84 1.38s.72 1.36 1.7 1.36a2.21 2.21 0 0 0 2.4-2.11z"/><path d="m215.85 264.31c0 2.63-1.4 4.36-3.54 4.36a2.82 2.82 0 0 1 -2.64-1.42h-.12v4.08h-1.35v-11.23h1.29v1.4h.12a3.06 3.06 0 0 1 2.7-1.55c2.14.05 3.54 1.71 3.54 4.36zm-1.4 0c0-2-.92-3.15-2.46-3.15s-2.48 1.21-2.48 3.15 1 3.15 2.48 3.15 2.46-1.18 2.46-3.15z"/><path d="m225.72 264.31c0 2.63-1.4 4.36-3.54 4.36a2.83 2.83 0 0 1 -2.64-1.42h-.12v4.08h-1.34v-11.23h1.28v1.4h.12a3.06 3.06 0 0 1 2.7-1.55c2.15.05 3.54 1.71 3.54 4.36zm-1.39 0c0-2-.93-3.15-2.46-3.15s-2.49 1.21-2.49 3.15 1 3.15 2.48 3.15 2.47-1.18 2.47-3.15z"/><path d="m232.16 266.16c0-1.51 1.11-2.37 3.07-2.49l2.43-.15v-.77c0-1-.65-1.6-1.9-1.6-1 0-1.72.38-1.9 1h-1.36c.18-1.35 1.51-2.24 3.3-2.24 2.06 0 3.21 1.05 3.21 2.8v5.77h-1.29v-1.24h-.12a2.91 2.91 0 0 1 -2.59 1.39 2.56 2.56 0 0 1 -2.85-2.47zm5.5-.78v-.77l-2.26.14c-1.28.09-1.85.54-1.85 1.38s.73 1.36 1.71 1.36a2.21 2.21 0 0 0 2.4-2.11z"/><path d="m241.59 260.1h1.28v1.33h.13a2.53 2.53 0 0 1 2.53-1.48c1.89 0 2.95 1.12 2.95 3.12v5.45h-1.35v-5.12c0-1.52-.64-2.24-2-2.24a2.13 2.13 0 0 0 -2.21 2.38v5h-1.35z"/><path d="m250.62 264.31c0-2.64 1.4-4.36 3.54-4.36a2.85 2.85 0 0 1 2.64 1.48h.12v-4.68h1.35v11.77h-1.27v-1.34h-.12a3 3 0 0 1 -2.7 1.49c-2.18 0-3.56-1.67-3.56-4.36zm1.4 0c0 2 .92 3.15 2.46 3.15s2.47-1.21 2.47-3.15-.95-3.15-2.47-3.15-2.48 1.19-2.48 3.15z"/><path d="m275.79 262.88c0 3.6-2 5.91-5.17 5.91s-5.18-2.3-5.18-5.91 2-5.9 5.18-5.9 5.17 2.28 5.17 5.9zm-8.9 0c0 2.8 1.38 4.61 3.73 4.61s3.72-1.81 3.72-4.61-1.42-4.6-3.72-4.6-3.73 1.78-3.73 4.6z"/><path d="m279.11 265.57c.17 1.18 1.3 1.93 2.9 1.93s2.63-.82 2.63-1.93c0-1-.7-1.57-2.25-2l-1.45-.38c-2-.51-2.92-1.44-2.92-3 0-1.91 1.6-3.21 4-3.21 2.18 0 3.81 1.3 3.92 3.12h-1.41a2.31 2.31 0 0 0 -2.55-1.85c-1.5 0-2.5.75-2.5 1.9 0 .88.62 1.39 2.18 1.78l1.18.32c2.33.58 3.27 1.49 3.27 3.15 0 2.07-1.63 3.39-4.21 3.39-2.39 0-4-1.27-4.19-3.22z"/><path d="m289.55 265.57c.17 1.18 1.29 1.93 2.89 1.93s2.64-.82 2.64-1.93c0-1-.71-1.57-2.26-2l-1.45-.38c-2-.51-2.92-1.44-2.92-3 0-1.91 1.6-3.21 4-3.21 2.18 0 3.8 1.3 3.92 3.12h-1.42a2.3 2.3 0 0 0 -2.55-1.85c-1.5 0-2.49.75-2.49 1.9 0 .88.61 1.39 2.17 1.78l1.18.32c2.33.58 3.27 1.49 3.27 3.15 0 2.07-1.63 3.39-4.21 3.39-2.39 0-4-1.27-4.19-3.22z"/><path d="m298.54 271.39.74-4.45h1.49l-1.23 4.45z"/><path d="m2.21 291.18h-.12v1.34h-1.29v-11.77h1.35v4.68h.12a2.91 2.91 0 0 1 2.64-1.43c2.14 0 3.54 1.71 3.54 4.36s-1.4 4.36-3.54 4.36a3 3 0 0 1 -2.7-1.54zm-.09-2.87c0 1.94.95 3.15 2.48 3.15s2.45-1.18 2.45-3.15-.91-3.15-2.45-3.15-2.48 1.2-2.48 3.15z"/><path d="m17.48 292.52h-1.28v-1.32h-.13a2.62 2.62 0 0 1 -2.61 1.47c-1.89 0-2.87-1.13-2.87-3.12v-5.45h1.34v5.12c0 1.52.56 2.22 1.91 2.22a2.12 2.12 0 0 0 2.3-2.36v-5h1.34z"/><path d="m22 281.92v2.18h1.87v1.12h-1.87v4.78c0 1 .37 1.41 1.25 1.41a4.36 4.36 0 0 0 .62 0v1.13a4.15 4.15 0 0 1 -.79.08c-1.73 0-2.42-.64-2.42-2.25v-5.11h-1.34v-1.16h1.36v-2.18z"/><path d="m30.34 288.31c0-2.64 1.4-4.36 3.54-4.36a2.87 2.87 0 0 1 2.64 1.48h.12v-4.68h1.36v11.77h-1.3v-1.34h-.13a3 3 0 0 1 -2.69 1.49c-2.16 0-3.54-1.67-3.54-4.36zm1.39 0c0 2 .92 3.15 2.46 3.15s2.48-1.21 2.48-3.15-1-3.15-2.48-3.15-2.46 1.19-2.46 3.15z"/><path d="m40.23 288.31c0-2.71 1.49-4.36 3.89-4.36s3.88 1.65 3.88 4.36-1.48 4.36-3.88 4.36-3.89-1.67-3.89-4.36zm6.38 0c0-2-.9-3.15-2.49-3.15s-2.5 1.15-2.5 3.15.9 3.15 2.5 3.15 2.49-1.16 2.49-3.15z"/><path d="m50.21 284.1h1.28v1.33h.13a2.53 2.53 0 0 1 2.53-1.43c1.89 0 2.94 1.12 2.94 3.12v5.45h-1.34v-5.17c0-1.52-.64-2.24-2-2.24a2.13 2.13 0 0 0 -2.21 2.38v5h-1.33z"/><path d="m59.34 285.46.87-4.21h1.52l-1.41 4.21z"/><path d="m66 281.92v2.18h1.87v1.12h-1.87v4.78c0 1 .37 1.41 1.25 1.41a4.36 4.36 0 0 0 .62 0v1.13a4.23 4.23 0 0 1 -.79.08c-1.73 0-2.43-.64-2.43-2.25v-5.11h-1.36v-1.16h1.36v-2.18z"/><path d="m74.82 280.75h1.34v4.68h.12a2.64 2.64 0 0 1 2.6-1.48c1.78 0 2.9 1.14 2.9 3.12v5.45h-1.34v-5.12c0-1.5-.67-2.24-1.94-2.24a2.18 2.18 0 0 0 -2.34 2.38v5h-1.34z"/><path d="m83.84 290.16c0-1.51 1.11-2.37 3.07-2.49l2.43-.15v-.77c0-1-.65-1.6-1.91-1.6-1 0-1.71.38-1.9 1h-1.36c.18-1.35 1.51-2.24 3.31-2.24 2 0 3.2 1.05 3.2 2.8v5.77h-1.28v-1.24h-.13a2.89 2.89 0 0 1 -2.59 1.39 2.56 2.56 0 0 1 -2.84-2.47zm5.5-.78v-.77l-2.27.14c-1.28.09-1.84.54-1.84 1.38s.72 1.36 1.7 1.36a2.22 2.22 0 0 0 2.41-2.11z"/><path d="m96.7 292.52h-1.38l-3.12-8.42h1.44l2.36 6.9h.12l2.31-6.94h1.43z"/><path d="m108.3 290.34a3.37 3.37 0 0 1 -3.55 2.33c-2.34 0-3.8-1.69-3.8-4.35s1.49-4.37 3.8-4.37 3.66 1.62 3.66 4.23v.52h-6.06v.06c.07 1.67 1 2.72 2.43 2.72a2.18 2.18 0 0 0 2.17-1.14zm-6-2.73h4.7a2.26 2.26 0 0 0 -2.26-2.47 2.39 2.39 0 0 0 -2.39 2.47z"/><path d="m114.85 290.16c0-1.51 1.11-2.37 3.07-2.49l2.43-.15v-.77c0-1-.65-1.6-1.9-1.6-1 0-1.72.38-1.9 1h-1.36c.18-1.35 1.51-2.24 3.3-2.24 2.06 0 3.21 1.05 3.21 2.8v5.77h-1.29v-1.24h-.12a2.91 2.91 0 0 1 -2.59 1.39 2.56 2.56 0 0 1 -2.85-2.47zm5.5-.78v-.77l-2.26.14c-1.28.09-1.85.54-1.85 1.38s.73 1.36 1.71 1.36a2.21 2.21 0 0 0 2.4-2.11z"/><path d="m129.89 286.68a2.09 2.09 0 0 0 -2.17-1.52c-1.52 0-2.47 1.21-2.47 3.12s1 3.18 2.47 3.18a2 2 0 0 0 2.17-1.48h1.36a3.25 3.25 0 0 1 -3.53 2.69c-2.35 0-3.86-1.71-3.86-4.39s1.5-4.33 3.86-4.33a3.31 3.31 0 0 1 3.53 2.73z"/><path d="m139 286.68a2.1 2.1 0 0 0 -2.18-1.52c-1.51 0-2.47 1.21-2.47 3.12s1 3.18 2.47 3.18a2 2 0 0 0 2.18-1.46h1.35a3.25 3.25 0 0 1 -3.52 2.69c-2.36 0-3.87-1.71-3.87-4.39s1.5-4.33 3.86-4.33a3.3 3.3 0 0 1 3.53 2.73z"/><path d="m149.33 290.34a3.36 3.36 0 0 1 -3.54 2.33c-2.34 0-3.8-1.69-3.8-4.35s1.49-4.37 3.8-4.37 3.65 1.62 3.65 4.23v.52h-6.05v.06c.07 1.67 1 2.72 2.43 2.72a2.19 2.19 0 0 0 2.17-1.14zm-5.94-2.73h4.61a2.26 2.26 0 0 0 -2.26-2.47 2.39 2.39 0 0 0 -2.35 2.47z"/><path d="m154.58 284c1.76 0 3 .87 3.17 2.26h-1.33a1.72 1.72 0 0 0 -1.85-1.12c-1 0-1.78.51-1.78 1.26 0 .58.47.94 1.46 1.18l1.29.31c1.59.38 2.36 1.07 2.36 2.28 0 1.51-1.46 2.55-3.38 2.55s-3.16-.9-3.31-2.3h1.38a1.87 1.87 0 0 0 2 1.17c1.13 0 1.94-.54 1.94-1.32 0-.57-.43-1-1.33-1.18l-1.45-.36c-1.58-.38-2.29-1.06-2.29-2.28-.02-1.45 1.33-2.45 3.12-2.45z"/><path d="m163.08 284c1.77 0 3 .87 3.17 2.26h-1.32a1.73 1.73 0 0 0 -1.86-1.12c-1 0-1.78.51-1.78 1.26 0 .58.47.94 1.46 1.18l1.3.31c1.59.38 2.35 1.07 2.35 2.28 0 1.51-1.46 2.55-3.37 2.55s-3.17-.9-3.32-2.3h1.39a1.85 1.85 0 0 0 2 1.17c1.14 0 2-.54 2-1.32 0-.57-.44-1-1.34-1.18l-1.44-.36c-1.58-.38-2.3-1.06-2.3-2.28-.08-1.45 1.27-2.45 3.06-2.45z"/><path d="m175.25 281.92v2.18h1.88v1.12h-1.88v4.78c0 1 .38 1.41 1.25 1.41a4.43 4.43 0 0 0 .63 0v1.13a4.32 4.32 0 0 1 -.79.08c-1.74 0-2.43-.64-2.43-2.25v-5.11h-1.36v-1.16h1.36v-2.18z"/><path d="m178.55 288.31c0-2.71 1.48-4.36 3.88-4.36s3.88 1.65 3.88 4.36-1.48 4.36-3.88 4.36-3.88-1.67-3.88-4.36zm6.37 0c0-2-.89-3.15-2.49-3.15s-2.49 1.15-2.49 3.15.9 3.15 2.49 3.15 2.49-1.16 2.49-3.15z"/><path d="m193 281.54a.94.94 0 1 1 .94.93.95.95 0 0 1 -.94-.93zm.27 2.56h1.34v8.42h-1.34z"/><path d="m199.2 281.92v2.18h1.87v1.12h-1.87v4.78c0 1 .37 1.41 1.25 1.41a4.36 4.36 0 0 0 .62 0v1.13a4.15 4.15 0 0 1 -.79.08c-1.73 0-2.43-.64-2.43-2.25v-5.11h-1.36v-1.16h1.36v-2.18z"/><path d="m210.78 280.75h1.14a13.73 13.73 0 0 0 0 14.17h-1.14a12.42 12.42 0 0 1 0-14.17z"/><path d="m216.43 284c1.76 0 3 .87 3.17 2.26h-1.33a1.72 1.72 0 0 0 -1.85-1.12c-1 0-1.78.51-1.78 1.26 0 .58.47.94 1.46 1.18l1.3.31c1.58.38 2.35 1.07 2.35 2.28 0 1.51-1.46 2.55-3.38 2.55s-3.16-.9-3.31-2.3h1.38a1.87 1.87 0 0 0 2 1.17c1.13 0 2-.54 2-1.32 0-.57-.44-1-1.34-1.18l-1.45-.36c-1.57-.38-2.29-1.06-2.29-2.28-.07-1.45 1.28-2.45 3.07-2.45z"/><path d="m223.9 281.92v2.18h1.88v1.12h-1.88v4.78c0 1 .38 1.41 1.25 1.41a4.5 4.5 0 0 0 .63 0v1.13a4.32 4.32 0 0 1 -.79.08c-1.74 0-2.43-.64-2.43-2.25v-5.11h-1.36v-1.16h1.36v-2.18z"/><path d="m227.43 290.16c0-1.51 1.11-2.37 3.07-2.49l2.43-.15v-.77c0-1-.65-1.6-1.9-1.6-1 0-1.72.38-1.9 1h-1.36c.18-1.35 1.51-2.24 3.3-2.24 2.06 0 3.21 1.05 3.21 2.8v5.77h-1.28v-1.24h-.12a2.91 2.91 0 0 1 -2.59 1.39 2.56 2.56 0 0 1 -2.86-2.47zm5.5-.78v-.77l-2.26.14c-1.28.09-1.85.54-1.85 1.38s.73 1.36 1.71 1.36a2.21 2.21 0 0 0 2.4-2.11z"/><path d="m236.65 295.52v-1.15a3.43 3.43 0 0 0 .56 0c.78 0 1.2-.37 1.55-1.38l.16-.5-3.12-8.43h1.45l2.32 6.93h.12l2.31-6.89h1.43l-3.29 8.9c-.72 1.95-1.39 2.53-2.89 2.53a4.16 4.16 0 0 1 -.6-.01z"/><path d="m248 284c1.77 0 3 .87 3.18 2.26h-1.33a1.72 1.72 0 0 0 -1.85-1.12c-1 0-1.78.51-1.78 1.26 0 .58.46.94 1.46 1.18l1.29.31c1.59.38 2.35 1.07 2.35 2.28 0 1.51-1.46 2.55-3.37 2.55s-3.16-.9-3.31-2.3h1.38a1.87 1.87 0 0 0 2 1.17c1.13 0 1.94-.54 1.94-1.32 0-.57-.44-1-1.33-1.18l-1.45-.36c-1.58-.38-2.3-1.06-2.3-2.28.02-1.45 1.38-2.45 3.12-2.45z"/><path d="m258.08 281.54a.94.94 0 1 1 .93.93.94.94 0 0 1 -.93-.93zm.26 2.56h1.34v8.42h-1.34z"/><path d="m262.34 284.1h1.28v1.33h.13a2.53 2.53 0 0 1 2.53-1.48c1.89 0 2.94 1.12 2.94 3.12v5.45h-1.34v-5.12c0-1.52-.64-2.24-2-2.24a2.14 2.14 0 0 0 -2.21 2.38v5h-1.34z"/><path d="m6.34 310.68a2.09 2.09 0 0 0 -2.18-1.52c-1.51 0-2.46 1.21-2.46 3.12s1 3.18 2.46 3.18a2 2 0 0 0 2.18-1.46h1.36a3.26 3.26 0 0 1 -3.53 2.69c-2.36-.02-3.87-1.69-3.87-4.41s1.5-4.28 3.86-4.28a3.32 3.32 0 0 1 3.54 2.73z"/><path d="m9.38 312.31c0-2.71 1.48-4.36 3.88-4.36s3.89 1.65 3.89 4.36-1.49 4.36-3.89 4.36-3.88-1.67-3.88-4.36zm6.37 0c0-2-.89-3.15-2.49-3.15s-2.49 1.15-2.49 3.15.9 3.15 2.49 3.15 2.49-1.16 2.49-3.15z"/><path d="m26.18 316.52h-1.28v-1.32h-.12a2.63 2.63 0 0 1 -2.61 1.47c-1.89 0-2.88-1.13-2.88-3.12v-5.45h1.35v5.12c0 1.52.56 2.22 1.9 2.22a2.12 2.12 0 0 0 2.3-2.36v-5h1.34z"/><path d="m28.8 308.1h1.28v1.33h.13a2.53 2.53 0 0 1 2.53-1.43c1.89 0 2.95 1.12 2.95 3.12v5.45h-1.35v-5.17c0-1.52-.64-2.24-2-2.24a2.13 2.13 0 0 0 -2.21 2.38v5h-1.33z"/><path d="m40 305.92v2.18h1.87v1.12h-1.87v4.78c0 1 .37 1.41 1.25 1.41a4.36 4.36 0 0 0 .62 0v1.13a4.15 4.15 0 0 1 -.79.08c-1.73 0-2.43-.64-2.43-2.25v-5.11h-1.31v-1.16h1.35v-2.18z"/><path d="m43.9 308.1h1.28v1.25h.13a2.35 2.35 0 0 1 2.33-1.4 6.53 6.53 0 0 1 .67 0v1.34a5.32 5.32 0 0 0 -.85-.08 2.07 2.07 0 0 0 -2.22 2.05v5.22h-1.34z"/><path d="m50.61 319.52v-1.15a3.28 3.28 0 0 0 .56 0c.77 0 1.2-.37 1.55-1.38l.15-.5-3.11-8.43h1.45l2.31 6.94h.13l2.35-6.9h1.43l-3.34 8.9c-.72 1.95-1.39 2.53-2.88 2.53a4.16 4.16 0 0 1 -.6-.01z"/><path d="m63.59 312.31c0-2.71 1.49-4.36 3.89-4.36s3.88 1.65 3.88 4.36-1.49 4.36-3.88 4.36-3.89-1.67-3.89-4.36zm6.38 0c0-2-.9-3.15-2.49-3.15s-2.5 1.15-2.5 3.15.9 3.15 2.5 3.15 2.52-1.16 2.52-3.15z"/><path d="m74 309.22h-1.4v-1.12h1.4v-.94a2.17 2.17 0 0 1 2.44-2.48 5.17 5.17 0 0 1 .91.07v1.1a3.85 3.85 0 0 0 -.63 0 1.21 1.21 0 0 0 -1.38 1.39v.9h1.93v1.12h-1.94v7.3h-1.33z"/><path d="m83.63 312.31c0-2.71 1.48-4.36 3.88-4.36s3.88 1.65 3.88 4.36-1.48 4.36-3.88 4.36-3.88-1.67-3.88-4.36zm6.37 0c0-2-.9-3.15-2.49-3.15s-2.51 1.15-2.51 3.15.9 3.15 2.49 3.15 2.51-1.16 2.51-3.15z"/><path d="m93.6 308.1h1.29v1.25h.11a2.36 2.36 0 0 1 2.34-1.4 6.53 6.53 0 0 1 .67 0v1.34a5.47 5.47 0 0 0 -.86-.08 2.06 2.06 0 0 0 -2.15 2.09v5.22h-1.4z"/><path d="m99.57 305.54a.94.94 0 1 1 .94.93.95.95 0 0 1 -.94-.93zm.27 2.56h1.34v8.42h-1.34z"/><path d="m103.76 317.45h1.42c.15.69.9 1.13 2.11 1.13 1.5 0 2.4-.74 2.4-2v-1.66h-.12a2.93 2.93 0 0 1 -2.64 1.46c-2.18 0-3.53-1.69-3.53-4.22s1.36-4.23 3.53-4.23a3 3 0 0 1 2.7 1.48h.13v-1.31h1.24v8.57c0 1.88-1.46 3.08-3.75 3.08-1.99 0-3.25-.91-3.49-2.3zm6-5.27c0-1.83-.94-3-2.5-3s-2.43 1.19-2.43 3 .87 3 2.43 3 2.46-1.18 2.46-3z"/><path d="m113.41 305.54a.94.94 0 1 1 .94.93.95.95 0 0 1 -.94-.93zm.27 2.56h1.32v8.42h-1.34z"/><path d="m117.68 308.1h1.32v1.33h.12a2.55 2.55 0 0 1 2.54-1.48c1.89 0 2.94 1.12 2.94 3.12v5.45h-1.34v-5.12c0-1.52-.64-2.24-2-2.24a2.14 2.14 0 0 0 -2.21 2.38v5h-1.34z"/><path d="m127.24 318.92h-1.14a13.67 13.67 0 0 0 0-14.17h1.14a12.42 12.42 0 0 1 0 14.17z"/><path d="m.44 349.17c0-4.12 2.26-6.66 5.95-6.66a5.2 5.2 0 0 1 5.5 4.7h-2.59a2.85 2.85 0 0 0 -2.91-2.44c-2 0-3.24 1.69-3.24 4.4s1.24 4.41 3.25 4.41a2.78 2.78 0 0 0 2.91-2.3h2.59c-.22 2.71-2.45 4.56-5.51 4.56-3.68 0-5.95-2.54-5.95-6.67z"/><path d="m13.77 350.68c0-3.13 1.82-5.05 4.78-5.05s4.77 1.91 4.77 5.05-1.79 5-4.77 5-4.78-1.85-4.78-5zm6.92 0c0-1.9-.79-3-2.14-3s-2.15 1.12-2.15 3 .78 3 2.15 3 2.14-1.09 2.14-3z"/><path d="m25.55 345.84h2.45v1.56h.16a2.88 2.88 0 0 1 2.86-1.77c2.16 0 3.32 1.32 3.32 3.63v6.26h-2.53v-5.68c0-1.36-.57-2.07-1.79-2.07a1.9 1.9 0 0 0 -1.91 2.15v5.6h-2.56z"/><path d="m40.18 343.53v2.4h2v1.94h-2v4.45c0 .87.39 1.27 1.26 1.27a5.38 5.38 0 0 0 .75 0v1.89a7.14 7.14 0 0 1 -1.28.12c-2.36 0-3.29-.77-3.29-2.65v-5h-1.51v-1.94h1.51v-2.4z"/><path d="m44.41 345.84h2.48v1.54h.16a2.47 2.47 0 0 1 2.48-1.7 4 4 0 0 1 1 .12v2.25a5.31 5.31 0 0 0 -1.22-.14 2.14 2.14 0 0 0 -2.35 2.2v5.41h-2.55z"/><path d="m51.88 350.68c0-3.13 1.82-5.05 4.77-5.05s4.78 1.91 4.78 5.05-1.8 5-4.78 5-4.77-1.85-4.77-5zm6.92 0c0-1.9-.79-3-2.15-3s-2.14 1.12-2.14 3 .77 3 2.14 3 2.15-1.09 2.15-3z"/><path d="m63.72 342.14h2.56v13.38h-2.56z"/><path d="m10.8 373.88c0 3.6-2 5.91-5.17 5.91s-5.17-2.3-5.17-5.91 2-5.9 5.17-5.9 5.17 2.28 5.17 5.9zm-8.89 0c0 2.8 1.38 4.61 3.72 4.61s3.73-1.81 3.73-4.61-1.42-4.6-3.73-4.6-3.72 1.78-3.72 4.6z"/><path d="m20.91 375.31c0 2.63-1.4 4.36-3.54 4.36a2.81 2.81 0 0 1 -2.63-1.42h-.12v4.08h-1.35v-11.23h1.28v1.4h.13a3.05 3.05 0 0 1 2.69-1.5c2.15 0 3.54 1.66 3.54 4.31zm-1.39 0c0-2-.92-3.15-2.46-3.15s-2.48 1.21-2.48 3.15 1 3.15 2.47 3.15 2.47-1.18 2.47-3.15z"/><path d="m30.08 377.34a3.38 3.38 0 0 1 -3.55 2.33c-2.34 0-3.8-1.69-3.8-4.35s1.49-4.37 3.8-4.37 3.65 1.62 3.65 4.23v.52h-6.05v.06c.07 1.67 1 2.72 2.43 2.72a2.18 2.18 0 0 0 2.17-1.14zm-5.95-2.73h4.64a2.26 2.26 0 0 0 -2.26-2.47 2.39 2.39 0 0 0 -2.38 2.47z"/><path d="m32.42 371.1h1.28v1.25h.12a2.36 2.36 0 0 1 2.34-1.4 6.53 6.53 0 0 1 .67 0v1.34a5.47 5.47 0 0 0 -.86-.08 2.06 2.06 0 0 0 -2.21 2.05v5.22h-1.34z"/><path d="m38.15 377.16c0-1.51 1.11-2.37 3.08-2.49l2.42-.15v-.77c0-1-.64-1.6-1.9-1.6-1 0-1.71.38-1.9 1h-1.36c.18-1.31 1.51-2.15 3.31-2.15 2.05 0 3.2 1.05 3.2 2.8v5.77h-1.28v-1.24h-.13a2.9 2.9 0 0 1 -2.59 1.34 2.57 2.57 0 0 1 -2.85-2.51zm5.5-.78v-.77l-2.26.14c-1.28.09-1.84.54-1.84 1.38s.72 1.36 1.7 1.36a2.21 2.21 0 0 0 2.4-2.11z"/><path d="m49.39 368.92v2.18h1.87v1.12h-1.87v4.78c0 1 .37 1.41 1.25 1.41a4.36 4.36 0 0 0 .62 0v1.13a4.15 4.15 0 0 1 -.79.08c-1.73 0-2.43-.64-2.43-2.25v-5.11h-1.36v-1.16h1.32v-2.18z"/><path d="m52.68 375.31c0-2.71 1.49-4.36 3.89-4.36s3.88 1.65 3.88 4.36-1.49 4.36-3.88 4.36-3.89-1.67-3.89-4.36zm6.38 0c0-2-.9-3.15-2.49-3.15s-2.5 1.15-2.5 3.15.9 3.15 2.5 3.15 2.49-1.16 2.49-3.15z"/><path d="m62.66 371.1h1.28v1.25h.13a2.35 2.35 0 0 1 2.33-1.35 6.53 6.53 0 0 1 .67 0v1.34a5.32 5.32 0 0 0 -.85-.08 2.07 2.07 0 0 0 -2.22 2.04v5.22h-1.34z"/><path d="m67.76 375.62v-1.27h5.13v1.27z"/><path d="m78.33 371c1.76 0 3 .87 3.17 2.26h-1.33a1.72 1.72 0 0 0 -1.85-1.12c-1 0-1.78.51-1.78 1.26 0 .58.47.94 1.46 1.18l1.3.31c1.58.38 2.35 1.07 2.35 2.28 0 1.51-1.46 2.55-3.38 2.55s-3.16-.9-3.31-2.3h1.38a1.87 1.87 0 0 0 2 1.17c1.13 0 2-.54 2-1.32 0-.57-.44-1-1.34-1.18l-1.45-.36c-1.57-.38-2.29-1.06-2.29-2.28-.07-1.45 1.28-2.45 3.07-2.45z"/><path d="m91.5 375.31c0 2.63-1.4 4.36-3.54 4.36a2.83 2.83 0 0 1 -2.64-1.42h-.12v4.08h-1.34v-11.23h1.28v1.4h.12a3.06 3.06 0 0 1 2.74-1.5c2.11 0 3.5 1.66 3.5 4.31zm-1.39 0c0-2-.93-3.15-2.47-3.15s-2.48 1.21-2.48 3.15 1 3.15 2.48 3.15 2.47-1.18 2.47-3.15z"/><path d="m100.66 377.34a3.36 3.36 0 0 1 -3.55 2.33c-2.33 0-3.8-1.69-3.8-4.35s1.49-4.32 3.8-4.32 3.66 1.62 3.66 4.23v.52h-6.06v.06c.07 1.67 1 2.72 2.43 2.72a2.18 2.18 0 0 0 2.17-1.14zm-6-2.73h4.64a2.26 2.26 0 0 0 -2.25-2.47 2.4 2.4 0 0 0 -2.34 2.47z"/><path d="m108.62 373.68a2.09 2.09 0 0 0 -2.17-1.52c-1.52 0-2.47 1.21-2.47 3.12s1 3.18 2.47 3.18a2 2 0 0 0 2.17-1.48h1.38a3.26 3.26 0 0 1 -3.53 2.69c-2.36 0-3.86-1.71-3.86-4.39s1.5-4.33 3.86-4.33a3.31 3.31 0 0 1 3.53 2.73z"/><path d="m111.79 368.54a.94.94 0 1 1 .94.93.94.94 0 0 1 -.94-.93zm.26 2.56h1.35v8.42h-1.35z"/><path d="m116.64 372.22h-1.4v-1.12h1.4v-.94a2.17 2.17 0 0 1 2.44-2.48 5.17 5.17 0 0 1 .91.07v1.1a3.77 3.77 0 0 0 -.63 0 1.21 1.21 0 0 0 -1.36 1.35v.9h1.93v1.12h-1.93v7.3h-1.34z"/><path d="m121.78 368.54a.94.94 0 1 1 .94.93.95.95 0 0 1 -.94-.93zm.27 2.56h1.34v8.42h-1.34z"/><path d="m131.64 373.68a2.09 2.09 0 0 0 -2.18-1.52c-1.51 0-2.46 1.21-2.46 3.12s1 3.18 2.46 3.18a2 2 0 0 0 2.18-1.48h1.36a3.26 3.26 0 0 1 -3.53 2.69c-2.36 0-3.87-1.71-3.87-4.39s1.5-4.33 3.86-4.33a3.32 3.32 0 0 1 3.54 2.73z"/><path d="m139.39 375.31c0-2.64 1.4-4.36 3.54-4.36a2.86 2.86 0 0 1 2.64 1.48h.12v-4.68h1.31v11.77h-1.28v-1.34h-.12a3 3 0 0 1 -2.7 1.49c-2.12 0-3.51-1.67-3.51-4.36zm1.39 0c0 2 .93 3.15 2.47 3.15s2.47-1.21 2.47-3.15-.95-3.15-2.47-3.15-2.47 1.19-2.47 3.15z"/><path d="m149.45 368.54a.94.94 0 1 1 .94.93.94.94 0 0 1 -.94-.93zm.27 2.56h1.34v8.42h-1.34z"/><path d="m154.3 372.22h-1.4v-1.12h1.4v-.94a2.18 2.18 0 0 1 2.45-2.48 5.14 5.14 0 0 1 .9.07v1.1a3.77 3.77 0 0 0 -.63 0 1.21 1.21 0 0 0 -1.38 1.39v.9h1.93v1.12h-1.93v7.3h-1.34z"/><path d="m160.51 372.22h-1.4v-1.12h1.4v-.94a2.17 2.17 0 0 1 2.44-2.48 5.17 5.17 0 0 1 .91.07v1.1a3.85 3.85 0 0 0 -.63 0 1.21 1.21 0 0 0 -1.38 1.39v.9h1.93v1.12h-1.93v7.3h-1.34z"/><path d="m172.48 377.34a3.37 3.37 0 0 1 -3.55 2.33c-2.34 0-3.8-1.69-3.8-4.35s1.49-4.37 3.8-4.37 3.66 1.62 3.66 4.23v.52h-6.06v.06c.07 1.67 1 2.72 2.43 2.72a2.18 2.18 0 0 0 2.17-1.14zm-5.95-2.73h4.64a2.26 2.26 0 0 0 -2.26-2.47 2.39 2.39 0 0 0 -2.38 2.47z"/><path d="m174.82 371.1h1.28v1.25h.12a2.36 2.36 0 0 1 2.34-1.4 6.53 6.53 0 0 1 .67 0v1.34a5.47 5.47 0 0 0 -.86-.08 2.06 2.06 0 0 0 -2.21 2.05v5.22h-1.34z"/><path d="m187.84 377.34a3.36 3.36 0 0 1 -3.55 2.33c-2.33 0-3.79-1.69-3.79-4.35s1.5-4.32 3.79-4.32 3.66 1.62 3.66 4.23v.52h-6v.06c.07 1.67 1 2.72 2.43 2.72a2.19 2.19 0 0 0 2.17-1.14zm-5.94-2.73h4.64a2.27 2.27 0 0 0 -2.26-2.47 2.39 2.39 0 0 0 -2.38 2.47z"/><path d="m190.18 371.1h1.28v1.33h.13a2.53 2.53 0 0 1 2.53-1.48c1.89 0 2.95 1.12 2.95 3.12v5.45h-1.35v-5.12c0-1.52-.64-2.24-2-2.24a2.13 2.13 0 0 0 -2.21 2.38v5h-1.35z"/><path d="m205.25 373.68a2.09 2.09 0 0 0 -2.17-1.52c-1.52 0-2.47 1.21-2.47 3.12s1 3.18 2.47 3.18a2 2 0 0 0 2.17-1.48h1.36a3.25 3.25 0 0 1 -3.52 2.69c-2.36 0-3.87-1.71-3.87-4.39s1.5-4.33 3.86-4.33a3.3 3.3 0 0 1 3.53 2.73z"/><path d="m215.63 377.34a3.36 3.36 0 0 1 -3.55 2.33c-2.33 0-3.79-1.69-3.79-4.35s1.48-4.37 3.79-4.37 3.66 1.62 3.66 4.23v.52h-6.05v.06c.07 1.67 1 2.72 2.42 2.72a2.19 2.19 0 0 0 2.18-1.14zm-5.94-2.73h4.64a2.27 2.27 0 0 0 -2.26-2.47 2.39 2.39 0 0 0 -2.38 2.47z"/><path d="m220.87 371c1.77 0 3 .87 3.17 2.26h-1.33a1.71 1.71 0 0 0 -1.85-1.12c-1 0-1.78.51-1.78 1.26 0 .58.47.94 1.46 1.18l1.3.31c1.59.38 2.35 1.07 2.35 2.28 0 1.51-1.46 2.55-3.37 2.55s-3.17-.9-3.32-2.3h1.39a1.85 1.85 0 0 0 2 1.17c1.14 0 1.95-.54 1.95-1.32 0-.57-.44-1-1.34-1.18l-1.44-.36c-1.58-.38-2.3-1.06-2.3-2.28-.03-1.45 1.32-2.45 3.11-2.45z"/><path d="m230.71 375.31c0-2.71 1.49-4.36 3.89-4.36s3.88 1.65 3.88 4.36-1.48 4.36-3.88 4.36-3.89-1.67-3.89-4.36zm6.38 0c0-2-.9-3.15-2.49-3.15s-2.49 1.15-2.49 3.15.89 3.15 2.49 3.15 2.49-1.16 2.49-3.15z"/><path d="m240.69 371.1h1.31v1.33h.13a2.53 2.53 0 0 1 2.53-1.48c1.89 0 2.94 1.12 2.94 3.12v5.45h-1.34v-5.12c0-1.52-.64-2.24-2-2.24a2.13 2.13 0 0 0 -2.21 2.38v5h-1.35z"/><path d="m256.77 368.92v2.18h1.88v1.12h-1.88v4.78c0 1 .38 1.41 1.25 1.41a4.5 4.5 0 0 0 .63 0v1.13a4.32 4.32 0 0 1 -.79.08c-1.74 0-2.43-.64-2.43-2.25v-5.11h-1.36v-1.16h1.36v-2.18z"/><path d="m260.68 367.75h1.32v4.68h.13a2.62 2.62 0 0 1 2.59-1.48 2.78 2.78 0 0 1 2.91 3.12v5.45h-1.33v-5.12c0-1.5-.67-2.24-1.94-2.24a2.18 2.18 0 0 0 -2.34 2.38v5h-1.34z"/><path d="m277.14 377.34a3.37 3.37 0 0 1 -3.55 2.33c-2.34 0-3.8-1.69-3.8-4.35s1.49-4.37 3.8-4.37 3.66 1.62 3.66 4.23v.52h-6.06v.06c.07 1.67 1 2.72 2.43 2.72a2.18 2.18 0 0 0 2.17-1.14zm-5.95-2.73h4.64a2.26 2.26 0 0 0 -2.26-2.47 2.39 2.39 0 0 0 -2.38 2.47z"/><path d="m2.21 402.18h-.12v1.34h-1.29v-11.77h1.35v4.68h.12a2.91 2.91 0 0 1 2.64-1.43c2.14 0 3.54 1.71 3.54 4.36s-1.4 4.36-3.54 4.36a3 3 0 0 1 -2.7-1.54zm-.09-2.87c0 1.94.95 3.15 2.48 3.15s2.45-1.18 2.45-3.15-.91-3.15-2.45-3.15-2.48 1.2-2.48 3.15z"/><path d="m10.16 401.16c0-1.51 1.11-2.37 3.07-2.49l2.43-.15v-.77c0-1-.64-1.6-1.9-1.6-1 0-1.71.38-1.9 1h-1.36c.18-1.35 1.51-2.24 3.3-2.24 2.06 0 3.21 1.05 3.21 2.8v5.77h-1.28v-1.24h-.13a2.91 2.91 0 0 1 -2.6 1.43 2.56 2.56 0 0 1 -2.84-2.51zm5.5-.78v-.77l-2.26.14c-1.28.09-1.85.54-1.85 1.38s.73 1.36 1.71 1.36a2.21 2.21 0 0 0 2.4-2.11z"/><path d="m25.2 397.68a2.09 2.09 0 0 0 -2.2-1.52c-1.52 0-2.47 1.21-2.47 3.12s1 3.18 2.47 3.18a2 2 0 0 0 2.2-1.46h1.36a3.25 3.25 0 0 1 -3.56 2.67c-2.36 0-3.87-1.71-3.87-4.39s1.54-4.28 3.87-4.28a3.3 3.3 0 0 1 3.53 2.73z"/><path d="m33.82 395.1h1.65l-3.63 3.61 3.87 4.81h-1.71l-3.16-3.95-.8.75v3.2h-1.34v-11.77h1.3v7h.12z"/><path d="m43.84 401.34a3.36 3.36 0 0 1 -3.54 2.33c-2.34 0-3.8-1.69-3.8-4.35s1.5-4.32 3.8-4.32 3.7 1.57 3.7 4.18v.52h-6.1v.06c.07 1.67 1 2.72 2.43 2.72a2.18 2.18 0 0 0 2.17-1.14zm-5.94-2.73h4.64a2.26 2.26 0 0 0 -2.26-2.47 2.39 2.39 0 0 0 -2.38 2.47z"/><path d="m46.19 395.1h1.28v1.33h.12a2.53 2.53 0 0 1 2.53-1.43c1.89 0 3 1.12 3 3.12v5.45h-1.39v-5.17c0-1.52-.65-2.24-2-2.24a2.14 2.14 0 0 0 -2.21 2.38v5h-1.33z"/><path d="m55.22 399.31c0-2.64 1.4-4.36 3.54-4.36a2.86 2.86 0 0 1 2.64 1.48h.12v-4.68h1.34v11.77h-1.28v-1.34h-.12a3 3 0 0 1 -2.7 1.49c-2.15 0-3.54-1.67-3.54-4.36zm1.39 0c0 2 .93 3.15 2.47 3.15s2.47-1.21 2.47-3.15-.95-3.15-2.47-3.15-2.47 1.19-2.47 3.15z"/><path d="m70.31 395.1h1.28v1.33h.13a2.37 2.37 0 0 1 2.35-1.43 2.44 2.44 0 0 1 2.33 1.48h.12a2.82 2.82 0 0 1 2.58-1.48 2.45 2.45 0 0 1 2.68 2.75v5.82h-1.35v-5.57c0-1.24-.58-1.85-1.77-1.85a1.9 1.9 0 0 0 -2 1.95v5.41h-1.3v-5.71a1.59 1.59 0 0 0 -1.75-1.64 2 2 0 0 0 -2 2.14v5.22h-1.3z"/><path d="m83.86 401.16c0-1.51 1.11-2.37 3.07-2.49l2.43-.15v-.77c0-1-.65-1.6-1.91-1.6-1 0-1.71.38-1.9 1h-1.36c.18-1.35 1.51-2.24 3.31-2.24 2 0 3.2 1.05 3.2 2.8v5.77h-1.28v-1.24h-.13a2.89 2.89 0 0 1 -2.59 1.39 2.56 2.56 0 0 1 -2.84-2.47zm5.5-.78v-.77l-2.27.14c-1.28.09-1.84.54-1.84 1.38s.72 1.36 1.7 1.36a2.22 2.22 0 0 0 2.41-2.11z"/><path d="m93.29 395.1h1.28v1.33h.12a2.55 2.55 0 0 1 2.54-1.43c1.89 0 2.94 1.12 2.94 3.12v5.45h-1.34v-5.17c0-1.52-.64-2.24-2-2.24a2.14 2.14 0 0 0 -2.21 2.38v5h-1.33z"/><path d="m102.23 401.16c0-1.51 1.11-2.37 3.07-2.49l2.43-.15v-.77c0-1-.65-1.6-1.91-1.6-1 0-1.71.38-1.9 1h-1.36c.18-1.35 1.51-2.24 3.31-2.24 2 0 3.2 1.05 3.2 2.8v5.77h-1.28v-1.24h-.13a2.89 2.89 0 0 1 -2.59 1.39 2.56 2.56 0 0 1 -2.84-2.47zm5.5-.78v-.77l-2.27.14c-1.28.09-1.84.54-1.84 1.38s.72 1.36 1.7 1.36a2.22 2.22 0 0 0 2.41-2.11z"/><path d="m111.59 404.45h1.41c.15.69.9 1.13 2.11 1.13 1.5 0 2.4-.74 2.4-2v-1.66h-.12a2.93 2.93 0 0 1 -2.64 1.46c-2.18 0-3.53-1.69-3.53-4.22s1.36-4.23 3.53-4.23a3 3 0 0 1 2.7 1.48h.12v-1.31h1.29v8.57c0 1.88-1.46 3.08-3.75 3.08-2.02 0-3.31-.91-3.52-2.3zm6-5.27c0-1.83-.94-3-2.5-3s-2.43 1.19-2.43 3 .87 3 2.43 3 2.47-1.18 2.47-3z"/><path d="m128.43 401.34a3.36 3.36 0 0 1 -3.55 2.33c-2.33 0-3.79-1.69-3.79-4.35s1.48-4.37 3.79-4.37 3.66 1.62 3.66 4.23v.52h-6v.06c.07 1.67 1 2.72 2.43 2.72a2.19 2.19 0 0 0 2.17-1.14zm-5.94-2.73h4.64a2.27 2.27 0 0 0 -2.26-2.47 2.39 2.39 0 0 0 -2.38 2.47z"/><path d="m130.36 399.31c0-2.64 1.4-4.36 3.54-4.36a2.87 2.87 0 0 1 2.64 1.48h.12v-4.68h1.34v11.77h-1.28v-1.34h-.12a3.05 3.05 0 0 1 -2.7 1.49c-2.16 0-3.54-1.67-3.54-4.36zm1.39 0c0 2 .92 3.15 2.46 3.15s2.48-1.21 2.48-3.15-.95-3.15-2.48-3.15-2.46 1.19-2.46 3.15z"/><path d="m146.93 402.18h-.12v1.34h-1.29v-11.77h1.35v4.68h.13a2.91 2.91 0 0 1 2.64-1.48c2.14 0 3.54 1.71 3.54 4.36s-1.4 4.36-3.54 4.36a3 3 0 0 1 -2.71-1.49zm-.09-2.87c0 1.94.95 3.15 2.48 3.15s2.45-1.18 2.45-3.15-.91-3.15-2.45-3.15-2.48 1.2-2.48 3.15z"/><path d="m155.17 406.52v-1.15a3.28 3.28 0 0 0 .56 0c.78 0 1.2-.37 1.55-1.38l.16-.5-3.12-8.43h1.45l2.31 6.93h.13l2.3-6.93h1.43l-3.29 8.94c-.71 1.95-1.39 2.53-2.88 2.53a4.16 4.16 0 0 1 -.6-.01z"/><path d="m178.54 403.52v-8.61h-.09l-3.55 8.61h-1.19l-3.56-8.61h-.09v8.61h-1.31v-11.27h1.63l3.86 9.4h.12l3.86-9.4h1.64v11.27z"/><path d="m182.3 399.31c0-2.71 1.48-4.36 3.88-4.36s3.88 1.65 3.88 4.36-1.48 4.36-3.88 4.36-3.88-1.67-3.88-4.36zm6.37 0c0-2-.9-3.15-2.49-3.15s-2.49 1.15-2.49 3.15.9 3.15 2.49 3.15 2.49-1.16 2.49-3.15z"/><path d="m193.73 402.18h-.13v1.34h-1.28v-11.77h1.35v4.68h.12a2.9 2.9 0 0 1 2.64-1.48c2.14 0 3.53 1.71 3.53 4.36s-1.4 4.36-3.53 4.36a3 3 0 0 1 -2.7-1.49zm-.1-2.87c0 1.94 1 3.15 2.49 3.15s2.45-1.18 2.45-3.15-.91-3.15-2.45-3.15-2.49 1.2-2.49 3.15z"/><path d="m201.91 392.54a.94.94 0 1 1 .94.93.94.94 0 0 1 -.94-.93zm.26 2.56h1.35v8.42h-1.35z"/><path d="m206.21 391.75h1.34v11.77h-1.34z"/><path d="m217.16 401.34a3.36 3.36 0 0 1 -3.54 2.33c-2.34 0-3.8-1.69-3.8-4.35s1.48-4.37 3.8-4.37 3.65 1.62 3.65 4.23v.52h-6.05v.06c.07 1.67 1 2.72 2.43 2.72a2.19 2.19 0 0 0 2.17-1.14zm-5.94-2.73h4.64a2.26 2.26 0 0 0 -2.26-2.47 2.39 2.39 0 0 0 -2.38 2.47z"/><path d="m219.09 399.31c0-2.64 1.4-4.36 3.54-4.36a2.87 2.87 0 0 1 2.64 1.48h.12v-4.68h1.34v11.77h-1.28v-1.34h-.12a3.05 3.05 0 0 1 -2.7 1.49c-2.16 0-3.54-1.67-3.54-4.36zm1.39 0c0 2 .92 3.15 2.46 3.15s2.48-1.21 2.48-3.15-.95-3.15-2.48-3.15-2.46 1.19-2.46 3.15z"/><path d="m229.35 404.45h1.42c.15.69.9 1.13 2.11 1.13 1.51 0 2.4-.74 2.4-2v-1.66h-.12a2.93 2.93 0 0 1 -2.64 1.46c-2.18 0-3.53-1.69-3.53-4.22s1.36-4.23 3.53-4.23a3 3 0 0 1 2.7 1.48h.13v-1.31h1.28v8.57c0 1.88-1.46 3.08-3.75 3.08-2.03 0-3.33-.91-3.53-2.3zm6-5.27c0-1.83-.95-3-2.5-3s-2.44 1.19-2.44 3 .87 3 2.44 3 2.47-1.18 2.47-3z"/><path d="m246.19 401.34a3.37 3.37 0 0 1 -3.55 2.33c-2.34 0-3.8-1.69-3.8-4.35s1.49-4.37 3.8-4.37 3.66 1.62 3.66 4.23v.52h-6.06v.06c.07 1.67 1 2.72 2.43 2.72a2.18 2.18 0 0 0 2.17-1.14zm-5.95-2.73h4.64a2.26 2.26 0 0 0 -2.26-2.47 2.39 2.39 0 0 0 -2.38 2.47z"/><path d="m251.4 397.85-3.81-5.6h1.69l3 4.48h.13l3-4.48h1.59l-3.91 5.66 3.82 5.61h-1.69l-2.95-4.45h-.13l-3 4.45h-1.6z"/><path d="m334.45 434.77a4.82 4.82 0 0 1 -1.85-1.77 5.24 5.24 0 0 1 0-5.09 4.75 4.75 0 0 1 1.85-1.79 5.43 5.43 0 0 1 2.64-.65 5.36 5.36 0 0 1 2.63.64 4.79 4.79 0 0 1 1.84 1.79 5.21 5.21 0 0 1 0 5.11 4.77 4.77 0 0 1 -1.84 1.78 5.37 5.37 0 0 1 -2.63.65 5.43 5.43 0 0 1 -2.64-.67zm4.74-.8a3.75 3.75 0 0 0 1.47-1.46 4.33 4.33 0 0 0 0-4.15 3.69 3.69 0 0 0 -1.47-1.46 4.2 4.2 0 0 0 -2.1-.53 4.29 4.29 0 0 0 -2.11.53 3.78 3.78 0 0 0 -1.48 1.46 4.26 4.26 0 0 0 0 4.15 3.84 3.84 0 0 0 1.5 1.49 4.29 4.29 0 0 0 2.11.52 4.19 4.19 0 0 0 2.08-.52z"/><path d="m350.09 428.38a3.35 3.35 0 0 1 1.31 1.33 3.88 3.88 0 0 1 .48 1.94 3.93 3.93 0 0 1 -.48 2 3.33 3.33 0 0 1 -1.31 1.32 3.67 3.67 0 0 1 -1.88.47 3.45 3.45 0 0 1 -1.62-.37 3.05 3.05 0 0 1 -1.18-1.08v4.1h-1v-10.09h.95v1.46a3 3 0 0 1 1.18-1.12 3.37 3.37 0 0 1 1.66-.4 3.83 3.83 0 0 1 1.89.44zm-.55 5.78a2.47 2.47 0 0 0 1-1 3.08 3.08 0 0 0 .35-1.5 3 3 0 0 0 -.35-1.49 2.6 2.6 0 0 0 -1-1 2.85 2.85 0 0 0 -2.81 0 2.64 2.64 0 0 0 -1 1 3.12 3.12 0 0 0 -.35 1.49 3.19 3.19 0 0 0 .35 1.5 2.51 2.51 0 0 0 1 1 2.92 2.92 0 0 0 2.81 0z"/><path d="m360.48 432h-6.16a2.64 2.64 0 0 0 .89 1.86 2.91 2.91 0 0 0 2 .7 3.22 3.22 0 0 0 1.26-.24 3.08 3.08 0 0 0 1-.72l.56.64a3.27 3.27 0 0 1 -1.23.9 4.25 4.25 0 0 1 -1.62.3 4.15 4.15 0 0 1 -2-.48 3.5 3.5 0 0 1 -1.36-1.34 3.77 3.77 0 0 1 -.49-1.93 4 4 0 0 1 .47-1.93 3.37 3.37 0 0 1 1.29-1.33 3.56 3.56 0 0 1 1.84-.48 3.52 3.52 0 0 1 1.83.48 3.45 3.45 0 0 1 1.28 1.32 4.09 4.09 0 0 1 .46 1.94zm-5.34-2.51a2.68 2.68 0 0 0 -.82 1.77h5.23a2.68 2.68 0 0 0 -.82-1.77 2.71 2.71 0 0 0 -3.59 0z"/><path d="m364.46 428.29a3.61 3.61 0 0 1 1.72-.38v1h-.24a2.34 2.34 0 0 0 -1.82.71 2.84 2.84 0 0 0 -.66 2v3.75h-1v-7.37h.95v1.44a2.41 2.41 0 0 1 1.05-1.15z"/><path d="m372.91 428.63a2.83 2.83 0 0 1 .77 2.14v4.56h-.95v-1.14a2.32 2.32 0 0 1 -1 .89 3.38 3.38 0 0 1 -1.55.32 3 3 0 0 1 -2-.58 1.93 1.93 0 0 1 -.73-1.56 1.89 1.89 0 0 1 .68-1.51 3.37 3.37 0 0 1 2.17-.57h2.33v-.45a1.86 1.86 0 0 0 -.53-1.45 2.19 2.19 0 0 0 -1.55-.5 4.07 4.07 0 0 0 -1.35.23 3.5 3.5 0 0 0 -1.1.64l-.45-.74a4 4 0 0 1 1.34-.74 5.39 5.39 0 0 1 1.66-.26 3.11 3.11 0 0 1 2.26.72zm-1.12 5.6a2.21 2.21 0 0 0 .89-1.11v-1.2h-2.31c-1.26 0-1.89.44-1.89 1.31a1.23 1.23 0 0 0 .49 1 2.24 2.24 0 0 0 1.38.37 2.58 2.58 0 0 0 1.44-.37z"/><path d="m380 434.89a2 2 0 0 1 -.7.38 2.71 2.71 0 0 1 -.86.13 1.95 1.95 0 0 1 -2.15-2.14v-4.45h-1.29v-.81h1.32v-1.61h1v1.61h2.24v.84h-2.24v4.4a1.4 1.4 0 0 0 .33 1 1.23 1.23 0 0 0 .94.34 1.72 1.72 0 0 0 .6-.1 1.44 1.44 0 0 0 .5-.28z"/><path d="m382.65 434.92a3.59 3.59 0 0 1 -1.34-1.34 4 4 0 0 1 0-3.86 3.56 3.56 0 0 1 1.34-1.33 4.08 4.08 0 0 1 3.84 0 3.43 3.43 0 0 1 1.34 1.33 4.12 4.12 0 0 1 0 3.86 3.45 3.45 0 0 1 -1.34 1.34 4.08 4.08 0 0 1 -3.84 0zm3.33-.76a2.37 2.37 0 0 0 1-1 3.39 3.39 0 0 0 0-3 2.48 2.48 0 0 0 -1-1 2.76 2.76 0 0 0 -1.41-.36 2.73 2.73 0 0 0 -1.4.36 2.51 2.51 0 0 0 -1 1 3.3 3.3 0 0 0 0 3 2.39 2.39 0 0 0 1 1 2.73 2.73 0 0 0 1.4.36 2.76 2.76 0 0 0 1.43-.36z"/><path d="m392.33 428.29a3.54 3.54 0 0 1 1.71-.38v1h-.23a2.32 2.32 0 0 0 -1.82.71 2.84 2.84 0 0 0 -.66 2v3.75h-1v-7.37h1v1.44a2.41 2.41 0 0 1 1-1.15z"/><path d="m406.25 432.72h-5.46l-1.17 2.61h-1.08l4.48-9.8h1l4.48 9.8h-1.09zm-.38-.84-2.35-5.27-2.35 5.27z"/><path d="m446.75 434.77a4.75 4.75 0 0 1 -1.85-1.77 5.17 5.17 0 0 1 0-5.09 4.69 4.69 0 0 1 1.85-1.79 5.68 5.68 0 0 1 5.26 0 4.79 4.79 0 0 1 1.84 1.79 5.21 5.21 0 0 1 0 5.11 4.77 4.77 0 0 1 -1.84 1.78 5.65 5.65 0 0 1 -5.26 0zm4.73-.8a3.84 3.84 0 0 0 1.48-1.46 4.33 4.33 0 0 0 0-4.15 3.78 3.78 0 0 0 -1.48-1.46 4.2 4.2 0 0 0 -2.1-.53 4.25 4.25 0 0 0 -2.1.53 3.8 3.8 0 0 0 -1.49 1.46 4.26 4.26 0 0 0 0 4.15 3.87 3.87 0 0 0 1.49 1.46 4.25 4.25 0 0 0 2.1.52 4.19 4.19 0 0 0 2.1-.49z"/><path d="m462.38 428.38a3.38 3.38 0 0 1 1.32 1.33 4 4 0 0 1 .47 1.94 4 4 0 0 1 -.47 2 3.39 3.39 0 0 1 -1.31 1.32 3.73 3.73 0 0 1 -1.89.47 3.44 3.44 0 0 1 -1.61-.37 3.08 3.08 0 0 1 -1.19-1.07v4.1h-1v-10.1h1v1.46a3 3 0 0 1 1.18-1.12 3.4 3.4 0 0 1 1.66-.4 3.83 3.83 0 0 1 1.84.44zm-.55 5.78a2.47 2.47 0 0 0 1-1 3.08 3.08 0 0 0 .36-1.5 3 3 0 0 0 -.36-1.49 2.6 2.6 0 0 0 -1-1 2.83 2.83 0 0 0 -2.8 0 2.51 2.51 0 0 0 -1 1 3 3 0 0 0 -.36 1.49 3.08 3.08 0 0 0 .36 1.5 2.39 2.39 0 0 0 1 1 2.9 2.9 0 0 0 2.8 0z"/><path d="m472.78 432h-6.16a2.63 2.63 0 0 0 .88 1.86 2.92 2.92 0 0 0 2 .7 3.2 3.2 0 0 0 1.25-.24 2.88 2.88 0 0 0 1-.72l.56.64a3.27 3.27 0 0 1 -1.23.9 4.2 4.2 0 0 1 -1.61.3 4.09 4.09 0 0 1 -2-.48 3.46 3.46 0 0 1 -1.37-1.34 3.87 3.87 0 0 1 -.49-1.93 4 4 0 0 1 .47-1.93 3.37 3.37 0 0 1 1.29-1.33 3.77 3.77 0 0 1 3.68 0 3.43 3.43 0 0 1 1.27 1.32 4 4 0 0 1 .46 1.94zm-5.34-2.51a2.63 2.63 0 0 0 -.82 1.77h5.22a2.68 2.68 0 0 0 -.82-1.77 2.49 2.49 0 0 0 -1.8-.68 2.46 2.46 0 0 0 -1.78.64z"/><path d="m476.76 428.29a3.54 3.54 0 0 1 1.71-.38v1h-.24a2.34 2.34 0 0 0 -1.82.71 2.88 2.88 0 0 0 -.65 2v3.75h-1v-7.37h.95v1.44a2.48 2.48 0 0 1 1.05-1.15z"/><path d="m485.2 428.63a2.83 2.83 0 0 1 .77 2.14v4.56h-1v-1.14a2.21 2.21 0 0 1 -1 .89 3.36 3.36 0 0 1 -1.54.32 3 3 0 0 1 -2-.58 1.9 1.9 0 0 1 -.73-1.56 1.86 1.86 0 0 1 .68-1.51 3.32 3.32 0 0 1 2.16-.57h2.46v-.45a1.9 1.9 0 0 0 -.53-1.45 2.23 2.23 0 0 0 -1.56-.5 4 4 0 0 0 -1.34.23 3.55 3.55 0 0 0 -1.11.64l-.45-.74a4.09 4.09 0 0 1 1.35-.74 5.28 5.28 0 0 1 1.65-.26 3.11 3.11 0 0 1 2.19.72zm-1.12 5.6a2.28 2.28 0 0 0 .9-1.11v-1.2h-2.31c-1.26 0-1.89.44-1.89 1.31a1.21 1.21 0 0 0 .49 1 2.19 2.19 0 0 0 1.37.37 2.58 2.58 0 0 0 1.44-.37z"/><path d="m492.33 434.89a2.09 2.09 0 0 1 -.69.38 2.8 2.8 0 0 1 -.86.13 2.12 2.12 0 0 1 -1.6-.56 2.14 2.14 0 0 1 -.56-1.58v-4.45h-1.32v-.81h1.32v-1.61h1v1.61h2.24v.84h-2.24v4.4a1.4 1.4 0 0 0 .33 1 1.26 1.26 0 0 0 .95.34 1.7 1.7 0 0 0 .59-.1 1.44 1.44 0 0 0 .5-.28z"/><path d="m495 434.92a3.55 3.55 0 0 1 -1.35-1.34 4 4 0 0 1 0-3.86 3.52 3.52 0 0 1 1.35-1.33 3.85 3.85 0 0 1 1.92-.48 3.79 3.79 0 0 1 1.91.48 3.43 3.43 0 0 1 1.34 1.33 4.12 4.12 0 0 1 0 3.86 3.45 3.45 0 0 1 -1.34 1.34 3.79 3.79 0 0 1 -1.91.48 3.85 3.85 0 0 1 -1.92-.48zm3.32-.76a2.45 2.45 0 0 0 1-1 3.39 3.39 0 0 0 0-3 2.57 2.57 0 0 0 -1-1 2.73 2.73 0 0 0 -1.4-.36 2.76 2.76 0 0 0 -1.41.36 2.57 2.57 0 0 0 -1 1 3.3 3.3 0 0 0 0 3 2.45 2.45 0 0 0 1 1 2.76 2.76 0 0 0 1.41.36 2.73 2.73 0 0 0 1.35-.36z"/><path d="m504.62 428.29a3.59 3.59 0 0 1 1.72-.38v1h-.24a2.33 2.33 0 0 0 -1.82.71 2.84 2.84 0 0 0 -.66 2v3.75h-1v-7.37h.95v1.44a2.41 2.41 0 0 1 1.05-1.15z"/><path d="m520.06 431.11a2.42 2.42 0 0 1 .53 1.61 2.24 2.24 0 0 1 -.93 1.93 4.59 4.59 0 0 1 -2.75.68h-4.51v-9.8h4.23a4.24 4.24 0 0 1 2.54.66 2.17 2.17 0 0 1 .9 1.86 2.3 2.3 0 0 1 -.4 1.38 2.36 2.36 0 0 1 -1.1.85 2.6 2.6 0 0 1 1.49.83zm-6.62-4.72v3.55h3.12a3.17 3.17 0 0 0 1.83-.45 1.52 1.52 0 0 0 .65-1.32 1.54 1.54 0 0 0 -.65-1.33 3.17 3.17 0 0 0 -1.83-.45zm5.44 7.64a1.55 1.55 0 0 0 .67-1.4c0-1.22-.88-1.83-2.66-1.83h-3.45v3.68h3.45a3.6 3.6 0 0 0 1.99-.48z"/><path d="m559.54 434.77a4.73 4.73 0 0 1 -1.84-1.77 5.17 5.17 0 0 1 0-5.09 4.66 4.66 0 0 1 1.84-1.79 5.43 5.43 0 0 1 2.64-.65 5.36 5.36 0 0 1 2.63.64 4.79 4.79 0 0 1 1.84 1.79 5.21 5.21 0 0 1 0 5.11 4.77 4.77 0 0 1 -1.84 1.78 5.37 5.37 0 0 1 -2.63.65 5.43 5.43 0 0 1 -2.64-.67zm4.74-.8a3.75 3.75 0 0 0 1.47-1.46 4.33 4.33 0 0 0 0-4.15 3.69 3.69 0 0 0 -1.47-1.46 4.2 4.2 0 0 0 -2.1-.53 4.25 4.25 0 0 0 -2.1.53 3.8 3.8 0 0 0 -1.49 1.46 4.26 4.26 0 0 0 0 4.15 3.87 3.87 0 0 0 1.49 1.46 4.25 4.25 0 0 0 2.1.52 4.19 4.19 0 0 0 2.1-.49z"/><path d="m575.18 428.38a3.29 3.29 0 0 1 1.31 1.33 3.88 3.88 0 0 1 .48 1.94 3.93 3.93 0 0 1 -.48 2 3.26 3.26 0 0 1 -1.31 1.32 3.67 3.67 0 0 1 -1.88.47 3.45 3.45 0 0 1 -1.62-.37 3.05 3.05 0 0 1 -1.18-1.07v4.1h-1v-10.1h1v1.46a3 3 0 0 1 1.18-1.12 3.4 3.4 0 0 1 1.66-.4 3.83 3.83 0 0 1 1.84.44zm-.55 5.78a2.47 2.47 0 0 0 1-1 3.08 3.08 0 0 0 .36-1.5 3 3 0 0 0 -.36-1.49 2.6 2.6 0 0 0 -1-1 2.85 2.85 0 0 0 -2.81 0 2.64 2.64 0 0 0 -1 1 3.12 3.12 0 0 0 -.35 1.49 3.19 3.19 0 0 0 .35 1.5 2.51 2.51 0 0 0 1 1 2.92 2.92 0 0 0 2.81 0z"/><path d="m585.57 432h-6.16a2.64 2.64 0 0 0 .89 1.86 2.91 2.91 0 0 0 2 .7 3.22 3.22 0 0 0 1.26-.24 2.88 2.88 0 0 0 1-.72l.56.64a3.27 3.27 0 0 1 -1.23.9 4.25 4.25 0 0 1 -1.62.3 4.08 4.08 0 0 1 -2-.48 3.46 3.46 0 0 1 -1.37-1.34 3.77 3.77 0 0 1 -.49-1.93 4 4 0 0 1 .47-1.93 3.37 3.37 0 0 1 1.29-1.33 3.56 3.56 0 0 1 1.84-.48 3.52 3.52 0 0 1 1.83.48 3.45 3.45 0 0 1 1.28 1.32 4.09 4.09 0 0 1 .46 1.94zm-5.34-2.51a2.68 2.68 0 0 0 -.82 1.77h5.23a2.68 2.68 0 0 0 -.82-1.77 2.71 2.71 0 0 0 -3.59 0z"/><path d="m589.55 428.29a3.61 3.61 0 0 1 1.72-.38v1h-.27a2.34 2.34 0 0 0 -1.82.71 2.84 2.84 0 0 0 -.66 2v3.75h-1v-7.37h1v1.44a2.46 2.46 0 0 1 1.03-1.15z"/><path d="m598 428.63a2.83 2.83 0 0 1 .77 2.14v4.56h-.95v-1.14a2.32 2.32 0 0 1 -1 .89 3.38 3.38 0 0 1 -1.55.32 3 3 0 0 1 -2-.58 1.92 1.92 0 0 1 -.72-1.56 1.88 1.88 0 0 1 .67-1.51 3.37 3.37 0 0 1 2.17-.57h2.34v-.45a1.86 1.86 0 0 0 -.54-1.45 2.19 2.19 0 0 0 -1.55-.5 4 4 0 0 0 -1.34.23 3.55 3.55 0 0 0 -1.11.64l-.45-.74a4 4 0 0 1 1.35-.74 5.28 5.28 0 0 1 1.65-.26 3.11 3.11 0 0 1 2.26.72zm-1.12 5.6a2.28 2.28 0 0 0 .9-1.11v-1.2h-2.31c-1.26 0-1.89.44-1.89 1.31a1.21 1.21 0 0 0 .49 1 2.19 2.19 0 0 0 1.37.37 2.58 2.58 0 0 0 1.44-.37z"/><path d="m605.13 434.89a2 2 0 0 1 -.7.38 2.71 2.71 0 0 1 -.86.13 1.95 1.95 0 0 1 -2.15-2.14v-4.45h-1.32v-.81h1.32v-1.61h1v1.61h2.24v.84h-2.24v4.4a1.4 1.4 0 0 0 .33 1 1.23 1.23 0 0 0 .94.34 1.72 1.72 0 0 0 .6-.1 1.44 1.44 0 0 0 .5-.28z"/><path d="m607.75 434.92a3.55 3.55 0 0 1 -1.35-1.34 4 4 0 0 1 0-3.86 3.52 3.52 0 0 1 1.35-1.33 4.06 4.06 0 0 1 3.83 0 3.43 3.43 0 0 1 1.34 1.33 4.12 4.12 0 0 1 0 3.86 3.45 3.45 0 0 1 -1.34 1.34 4.06 4.06 0 0 1 -3.83 0zm3.32-.76a2.37 2.37 0 0 0 1-1 3.39 3.39 0 0 0 0-3 2.48 2.48 0 0 0 -1-1 2.92 2.92 0 0 0 -2.81 0 2.57 2.57 0 0 0 -1 1 3.3 3.3 0 0 0 0 3 2.45 2.45 0 0 0 1 1 2.92 2.92 0 0 0 2.81 0z"/><path d="m617.42 428.29a3.56 3.56 0 0 1 1.72-.38v1h-.24a2.33 2.33 0 0 0 -1.82.71 2.84 2.84 0 0 0 -.66 2v3.75h-1v-7.37h1v1.44a2.41 2.41 0 0 1 1-1.15z"/><path d="m626.83 434.77a4.77 4.77 0 0 1 -1.83-1.77 5.28 5.28 0 0 1 0-5.11 4.79 4.79 0 0 1 1.84-1.79 5.78 5.78 0 0 1 4.65-.28 4.22 4.22 0 0 1 1.57 1.07l-.66.66a3.88 3.88 0 0 0 -2.9-1.17 4.22 4.22 0 0 0 -2.11.54 3.92 3.92 0 0 0 -1.49 1.45 4.26 4.26 0 0 0 0 4.15 3.92 3.92 0 0 0 1.49 1.45 4.21 4.21 0 0 0 2.11.53 3.85 3.85 0 0 0 2.9-1.17l.66.66a4.34 4.34 0 0 1 -1.57 1.07 5.63 5.63 0 0 1 -2 .37 5.33 5.33 0 0 1 -2.66-.66z"/><rect height="98.21" rx="4.99" width="50.97" x="454.29"/></g><rect fill="#43809e" height="87.12" rx="4.69" width="45.42" x="456.9" y="4.56"/><rect fill="#33b1da" height="8.16" rx="2.05" transform="matrix(-1 0 0 -1 987.22 33.1)" width="8.16" x="489.53" y="12.47"/><rect fill="#93e019" height="8.16" rx="2.05" transform="matrix(0 -1 1 0 464.09 497.19)" width="8.16" x="476.56" y="12.47"/><rect fill="#33b1da" height="8.16" rx="2.05" transform="matrix(0 -1 1 0 451.11 484.21)" width="8.16" x="463.58" y="12.47"/><rect fill="#93e019" height="8.16" rx="2.05" transform="matrix(-1 0 0 -1 987.22 112.98)" width="8.16" x="489.53" y="52.41"/><rect fill="#ff4800" height="8.16" rx="2.05" transform="matrix(0 -1 1 0 424.15 537.13)" width="8.16" x="476.56" y="52.41"/><rect fill="#ff4800" height="8.16" rx="2.05" transform="matrix(0 -1 1 0 411.17 524.15)" width="8.16" x="463.58" y="52.41"/><rect fill="#33b1da" height="8.16" rx="2.05" transform="matrix(-1 0 0 -1 987.22 86.25)" width="8.16" x="489.53" y="39.05"/><rect fill="#93e019" height="8.16" rx="2.05" transform="matrix(0 -1 1 0 437.51 523.76)" width="8.16" x="476.56" y="39.05"/><rect fill="#33b1da" height="8.16" rx="2.05" transform="matrix(0 -1 1 0 424.54 510.79)" width="8.16" x="463.58" y="39.05"/><rect fill="#93e019" height="8.16" rx="2.05" width="8.16" x="463.58" y="26.01"/><rect fill="#33b1da" height="8.16" rx="2.05" transform="matrix(0 1 -1 0 510.73 -450.54)" width="8.16" x="476.56" y="26.01"/><rect fill="#ff4800" height="8.16" rx="2.05" transform="matrix(0 1 -1 0 523.7 -463.52)" width="8.16" x="489.53" y="26.01"/><path d="m502.32 12.25v-4.25a3.45 3.45 0 0 0 -3.45-3.45h-38.52a3.44 3.44 0 0 0 -3.45 3.45v49.67z" fill="#fff" opacity=".3"/><path d="m71.94 151.5h398.05" fill="none" opacity=".5" stroke="#43809e" stroke-miterlimit="10"/><path d="m76.2 349.1h259.38" fill="none" opacity=".5" stroke="#43809e" stroke-miterlimit="10"/><path d="m621.71 157.17-23.93-23.93v-.03h-220.56v.26l-.26-.26-24.59 24.59v5.61l24.59 24.59.26-.26v.24h220.5l.03.02.03-.02v-.01l23.93-23.93z" fill="#93e019"/><path d="m567 166h-8.24l-1.58 3.81h-4.18l7.88-17.81h4.06l7.94 17.76h-4.31zm-1.29-3.12-2.82-6.8-2.82 6.8z" fill="#0e191f"/><path d="m586.46 152.8a5.87 5.87 0 0 1 3.62 5.65 6.16 6.16 0 0 1 -.94 3.42 6 6 0 0 1 -2.68 2.23 9.93 9.93 0 0 1 -4.1.77h-3.57v4.9h-4.11v-17.77h7.68a9.77 9.77 0 0 1 4.1.8zm-1.46 7.93a3.18 3.18 0 0 0 0-4.57 4.26 4.26 0 0 0 -2.81-.8h-3.35v6.16h3.35a4.32 4.32 0 0 0 2.81-.79z" fill="#0e191f"/><path d="m592.8 152h4.11v17.76h-4.11z" fill="#0e191f"/><path d="m422.3 164.28a7.21 7.21 0 1 1 -7.22-7.32 7.06 7.06 0 0 1 7.22 7.32zm-3.34 0c0-2.87-1.83-4.34-3.88-4.34s-3.88 1.47-3.88 4.34 1.85 4.39 3.88 4.39 3.92-1.5 3.92-4.39zm5.3 7v-19.7h3.26v7.54a5 5 0 0 1 4.36-2.08c4.17 0 6.42 3.17 6.42 7.25s-2.48 7.39-6.53 7.39a4.8 4.8 0 0 1 -4.28-2.23l-1.86 1.86zm7-11.32c-2.11 0-3.74 1.57-3.74 4.33s1.63 4.4 3.74 4.4 3.74-1.69 3.74-4.39-1.59-4.3-3.78-4.3zm9.37-2.61v13.95h3.28v-13.94zm5.9 13.94v-19.71h3.31v19.72zm31.61-19.77v7.48c-.43-.89-1.66-2-4.08-2-3.91 0-6.62 3.28-6.62 7.28 0 4.19 2.65 7.35 6.65 7.35a4.61 4.61 0 0 0 4.1-2.16l1.8 1.8h1.37v-2.54-17.2zm-3.66 17.2c-2.25 0-3.73-1.77-3.73-4.42s1.59-4.34 3.76-4.34 3.65 1.65 3.65 4.31-1.55 4.46-3.72 4.46zm-89.12-17.15h4.33l6 10.91 5.95-10.91h4.36v19.73h-3.49v-14.11l-6.15 11.38h-1.4l-6.15-11.38v14.11h-3.45zm58.52 0h-3.25v3.25h3.25zm51.58 5.78-1.66 1.65c-.43-.88-1.66-2-4.08-2a6.35 6.35 0 0 0 -3.21.85 6.7 6.7 0 0 0 -3.39 5.89v.54c0 4.19 2.68 7.36 6.67 7.36a4.72 4.72 0 0 0 3.78-1.73v.16c0 2.81-1.29 4.15-3.89 4.16a5.86 5.86 0 0 1 -3.87-1.34 5.08 5.08 0 0 1 -.38-.34l-2.07 2.06c.14.15.22.22.37.36a8.48 8.48 0 0 0 6 2.14c5.22 0 7.13-3.45 7.13-7.16v-12.59zm-5.27 11.33c-2.25 0-3.73-1.77-3.73-4.42 0-2.32 1.21-3.89 3-4.26a5.76 5.76 0 0 1 .7 0 4 4 0 0 1 2.12.6 4.39 4.39 0 0 1 1.5 3.68c-.08 2.61-1.46 4.41-3.63 4.41zm-28.89-.32a5.12 5.12 0 0 1 -2 .41 3.8 3.8 0 0 1 -2.54-.87 4.18 4.18 0 0 1 -1.37-2.4h10.1c0-.24.09-.59.09-1a8 8 0 0 0 -1.65-5.4 6.27 6.27 0 0 0 -5-2.07 7 7 0 0 0 -3.6.93 6.36 6.36 0 0 0 -2.47 2.59 8.71 8.71 0 0 0 0 7.61 6.22 6.22 0 0 0 2.46 2.57 7.33 7.33 0 0 0 3.7.91 8 8 0 0 0 3.26-.64 7.35 7.35 0 0 0 2.55-1.84l-1.9-1.9a5.1 5.1 0 0 1 -1.67 1.11zm-4.78-7.74a3.41 3.41 0 0 1 2.44-.93 3.22 3.22 0 0 1 2.43 1 3.49 3.49 0 0 1 .95 2.51h-7a3.7 3.7 0 0 1 1.14-2.57zm51.48 7.75a5.12 5.12 0 0 1 -2 .41 3.82 3.82 0 0 1 -2.54-.87 4.18 4.18 0 0 1 -1.37-2.4h10.1c0-.24.09-.59.09-1a8 8 0 0 0 -1.65-5.4 6.27 6.27 0 0 0 -5-2.07 7 7 0 0 0 -3.6.93 6.36 6.36 0 0 0 -2.47 2.59 8.71 8.71 0 0 0 0 7.61 6.18 6.18 0 0 0 2.47 2.57 7.26 7.26 0 0 0 3.69.91 8 8 0 0 0 3.26-.64 7.35 7.35 0 0 0 2.55-1.84l-1.9-1.9a4.89 4.89 0 0 1 -1.63 1.1zm-4.78-7.74a3.41 3.41 0 0 1 2.44-.93 3.22 3.22 0 0 1 2.43 1 3.49 3.49 0 0 1 .95 2.51h-7a3.7 3.7 0 0 1 1.14-2.58z" fill="#070c00"/><path d="m534.22 169v2.34h-2.34l-5.94-5.95 2.34-2.33zm-151.16-15.1v-2.32h-2.36l-8.7 8.69v2.34l8.7 8.69h2.36v-2.3l-7.55-7.54zm161 7.54-7.58 7.56v2.32h2.36l8.69-8.69v-2.34l-8.69-8.69h-2.36v2.32zm-27.2-9.86h-2.36v2.32l5.94 5.94 2.34-2.34zm17.4 2.32v-2.32h-2.36l-17.44 17.42v2.32h2.35z" fill="#fff"/><path d="m88.95 66.17h408.12" fill="none" opacity=".5" stroke="#43809e" stroke-miterlimit="10"/><path d="m66.12 238.21h409.7" fill="none" opacity=".5" stroke="#43809e" stroke-miterlimit="10"/><path d="m496.88 223.26c-1.1-.21-2.21-.39-3.31-.55v-7.25a10.69 10.69 0 0 0 -10.67-10.67h-.41a10.69 10.69 0 0 0 -10.71 10.66v7.26c-1.09.16-2.17.34-3.26.55h-.22a2.39 2.39 0 0 0 -1.95 2.34v16.4a2.39 2.39 0 0 0 1.95 2.35l1.46.28a69.8 69.8 0 0 0 25.88 0l1.45-.28a2.39 2.39 0 0 0 1.91-2.35v-16.13a2.63 2.63 0 0 0 -2.12-2.61zm-20.51-1.07v-6.73a6.11 6.11 0 0 1 6.11-6.11h.39a6.11 6.11 0 0 1 6.11 6.11v6.73a75.85 75.85 0 0 0 -12.61 0z" fill="#273c4d"/><path d="m369.34 326.46v-58.09a5 5 0 0 1 5-5h214.2a5 5 0 0 1 5 5v58.09" fill="none" stroke="#78c400" stroke-miterlimit="10" stroke-width="3"/><circle cx="369.25" cy="349.04" fill="#fff" r="45.23"/><circle cx="483.31" cy="349.04" fill="#fff" r="45.23"/><circle cx="596.37" cy="349.04" fill="#fff" r="45.23"/><g fill="none" stroke-width="3"><path d="m350 362.93a24.12 24.12 0 1 1 33.61 5.83" stroke="#273c4d" stroke-linecap="round" stroke-linejoin="round"/><path d="m355.65 368.62a24.11 24.11 0 1 1 33.66-5.5" stroke="#273c4d" stroke-linecap="round" stroke-linejoin="round"/><path d="m359.17 359.61a14.94 14.94 0 1 1 21.13 0" stroke="#273c4d" stroke-linecap="round" stroke-linejoin="round"/><circle cx="369.67" cy="349.1" r="3.72" stroke="#273c4d" stroke-linecap="round" stroke-linejoin="round"/><path d="m388.74 409.64-19.09-53.88-19.04 53.88" stroke="#273c4d" stroke-linecap="round" stroke-linejoin="round"/><path d="m369.67 352.82v3.91" stroke="#273c4d" stroke-linecap="round" stroke-linejoin="round"/><path d="m386.78 404.5-29.33-13.98" stroke="#273c4d" stroke-linecap="round" stroke-linejoin="round"/><path d="m352.51 404.52 29.38-14" stroke="#273c4d" stroke-linecap="round" stroke-linejoin="round"/><path d="m379.75 384.23-17.24-8.21" stroke="#273c4d" stroke-linecap="round" stroke-linejoin="round"/><path d="m359.6 384.25 17.24-8.22" stroke="#273c4d" stroke-linecap="round" stroke-linejoin="round"/><path d="m463.27 362.93a24.11 24.11 0 1 1 33.6 5.83" stroke="#273c4d" stroke-linecap="round" stroke-linejoin="round"/><path d="m468.91 368.62a24.11 24.11 0 1 1 33.65-5.5" stroke="#273c4d" stroke-linecap="round" stroke-linejoin="round"/><path d="m472.42 359.61a14.94 14.94 0 1 1 21.13 0" stroke="#273c4d" stroke-linecap="round" stroke-linejoin="round"/><circle cx="482.93" cy="349.1" r="3.72" stroke="#273c4d" stroke-linecap="round" stroke-linejoin="round"/><path d="m501.99 409.64-19.08-53.88-19.05 53.88" stroke="#273c4d" stroke-linecap="round" stroke-linejoin="round"/><path d="m482.93 352.82v3.91" stroke="#273c4d" stroke-linecap="round" stroke-linejoin="round"/><path d="m500.03 404.5-29.32-13.98" stroke="#273c4d" stroke-linecap="round" stroke-linejoin="round"/><path d="m465.76 404.52 29.39-14" stroke="#273c4d" stroke-linecap="round" stroke-linejoin="round"/><path d="m493 384.23-17.24-8.21" stroke="#273c4d" stroke-linecap="round" stroke-linejoin="round"/><path d="m472.85 384.25 17.25-8.22" stroke="#273c4d" stroke-linecap="round" stroke-linejoin="round"/><path d="m576.52 362.93a24.12 24.12 0 1 1 33.6 5.83" stroke="#273c4d" stroke-linecap="round" stroke-linejoin="round"/><path d="m582.16 368.62a24.11 24.11 0 1 1 33.66-5.5" stroke="#273c4d" stroke-linecap="round" stroke-linejoin="round"/><path d="m585.68 359.61a14.94 14.94 0 1 1 21.12 0" stroke="#273c4d" stroke-linecap="round" stroke-linejoin="round"/><circle cx="596.18" cy="349.1" r="3.72" stroke="#273c4d" stroke-linecap="round" stroke-linejoin="round"/><path d="m615.25 409.64-19.09-53.88-19.04 53.88" stroke="#273c4d" stroke-linecap="round" stroke-linejoin="round"/><path d="m596.18 352.82v3.91" stroke="#273c4d" stroke-linecap="round" stroke-linejoin="round"/><path d="m613.29 404.5-29.33-13.98" stroke="#273c4d" stroke-linecap="round" stroke-linejoin="round"/><path d="m579.02 404.52 29.38-14" stroke="#273c4d" stroke-linecap="round" stroke-linejoin="round"/><path d="m606.26 384.23-17.25-8.21" stroke="#273c4d" stroke-linecap="round" stroke-linejoin="round"/><path d="m586.11 384.25 17.24-8.22" stroke="#273c4d" stroke-linecap="round" stroke-linejoin="round"/></g></svg>