<svg version="1.1" id="Layer_1" xmlns="http://www.w3.org/2000/svg" xmlns:xlink="http://www.w3.org/1999/xlink" x="0" y="0" viewBox="0 0 641.6 438" xml:space="preserve" enable-background="new 0 0 641.6 438"><style type="text/css">.st0{fill:#273c4d}.st1,.st2{fill:none;stroke-miterlimit:10}.st1{opacity:.3;stroke:#43809e;stroke-width:2}.st2{stroke:#78c400;stroke-width:3}.st3{fill:#43809e}.st4{fill:#33b1da}.st5{fill:#93e019}.st6{opacity:.3;fill:#fff}.st7{opacity:.1;fill:#43809e}.st8{fill:none;stroke:#273c4d;stroke-width:3;stroke-linecap:round;stroke-linejoin:round;stroke-miterlimit:10}</style><g><path class="st0" d="M10.6,75.5c0.1,1,1.2,1.7,2.7,1.7c1.4,0,2.4-0.7,2.4-1.6c0-0.8-0.6-1.3-2.2-1.6l-1.7-0.4 c-2.3-0.5-3.4-1.7-3.4-3.6c0-2.4,1.9-4,4.9-4c2.8,0,4.8,1.6,4.9,3.8h-2.5c-0.1-1-1.1-1.7-2.3-1.7c-1.3,0-2.2,0.6-2.2,1.6 c0,0.8,0.6,1.2,2.1,1.5l1.5,0.3c2.5,0.5,3.6,1.6,3.6,3.6c0,2.6-2,4.1-5.1,4.1c-3,0-5-1.5-5.1-3.8H10.6z"/><path class="st0" d="M29.3,76.2c-0.4,1.8-2.1,3-4.4,3c-3,0-4.7-1.9-4.7-5c0-3.2,1.8-5.1,4.7-5.1c2.9,0,4.5,1.8,4.5,4.9v0.8h-6.7 v0.1c0,1.4,0.9,2.3,2.2,2.3c1,0,1.7-0.4,2-1H29.3z M22.7,73.1h4.1c-0.1-1.3-0.8-2.1-2-2.1C23.6,71,22.8,71.9,22.7,73.1z"/><path class="st0" d="M31.1,76.2c0-1.8,1.3-2.8,3.8-2.9l2.3-0.1v-0.8c0-0.8-0.6-1.3-1.6-1.3c-0.9,0-1.5,0.3-1.7,0.9h-2.4 c0.2-1.8,1.8-2.9,4.2-2.9c2.6,0,4,1.2,4,3.3V79h-2.5v-1.3H37c-0.5,0.9-1.6,1.4-2.8,1.4C32.4,79.1,31.1,78,31.1,76.2z M37.2,75.5 v-0.7l-2,0.1c-1.1,0.1-1.6,0.5-1.6,1.2c0,0.7,0.6,1.2,1.5,1.2C36.3,77.2,37.2,76.4,37.2,75.5z"/><path class="st0" d="M42.3,69.3h2.5v1.6H45c0.4-1.1,1.4-1.8,2.7-1.8c1.4,0,2.3,0.7,2.7,1.8h0.2c0.4-1.1,1.6-1.8,2.9-1.8 c1.9,0,3.1,1.3,3.1,3.3V79H54v-6c0-1.2-0.5-1.7-1.6-1.7c-1,0-1.7,0.7-1.7,1.8V79h-2.5v-6.1c0-1-0.6-1.6-1.6-1.6s-1.7,0.8-1.7,1.9 V79h-2.6V69.3z"/><path class="st0" d="M59.2,65.6h2.6V79h-2.6V65.6z"/><path class="st0" d="M73.2,76.2c-0.4,1.8-2.1,3-4.4,3c-3,0-4.7-1.9-4.7-5c0-3.2,1.8-5.1,4.7-5.1c2.9,0,4.5,1.8,4.5,4.9v0.8h-6.7 v0.1c0,1.4,0.9,2.3,2.2,2.3c1,0,1.7-0.4,2-1H73.2z M66.7,73.1h4.1c-0.1-1.3-0.8-2.1-2-2.1C67.6,71,66.7,71.9,66.7,73.1z"/><path class="st0" d="M79.3,69.1c2.5,0,3.9,1,4.1,2.9H81c-0.1-0.6-0.7-1-1.7-1c-0.9,0-1.6,0.4-1.6,1c0,0.5,0.4,0.8,1.3,1l1.8,0.4 c1.9,0.4,2.7,1.2,2.7,2.7c0,1.9-1.7,3.2-4.3,3.2c-2.6,0-4.1-1-4.3-2.9h2.5c0.2,0.7,0.8,1,1.8,1c1,0,1.7-0.4,1.7-1 c0-0.5-0.4-0.8-1.2-0.9l-1.8-0.4c-1.9-0.4-2.8-1.3-2.8-2.8C75.3,70.3,76.9,69.1,79.3,69.1z"/><path class="st0" d="M89.6,69.1c2.5,0,3.9,1,4.1,2.9h-2.4c-0.1-0.6-0.7-1-1.7-1c-0.9,0-1.6,0.4-1.6,1c0,0.5,0.4,0.8,1.3,1l1.8,0.4 c1.9,0.4,2.7,1.2,2.7,2.7c0,1.9-1.7,3.2-4.3,3.2c-2.6,0-4.1-1-4.3-2.9h2.5c0.2,0.7,0.8,1,1.8,1c1,0,1.7-0.4,1.7-1 c0-0.5-0.4-0.8-1.2-0.9l-1.8-0.4c-1.9-0.4-2.8-1.3-2.8-2.8C85.6,70.3,87.2,69.1,89.6,69.1z"/><path class="st0" d="M14.7,99.8h-4.5L9.1,103H7.6l4.2-11.3h1.4l4.2,11.3h-1.5L14.7,99.8z M10.6,98.6h3.7l-1.8-5h-0.1L10.6,98.6z"/><path class="st0" d="M20.7,101.6h-0.1v1.3h-1.3V91.2h1.3v4.7h0.1c0.5-0.9,1.5-1.5,2.6-1.5c2.1,0,3.5,1.7,3.5,4.4 c0,2.6-1.4,4.4-3.5,4.4C22.2,103.1,21.2,102.6,20.7,101.6z M20.6,98.8c0,1.9,1,3.1,2.5,3.1c1.5,0,2.5-1.2,2.5-3.1s-0.9-3.1-2.5-3.1 C21.5,95.6,20.6,96.8,20.6,98.8z"/><path class="st0" d="M32,94.4c1.8,0,3,0.9,3.2,2.3h-1.3C33.7,96,33,95.5,32,95.5c-1,0-1.8,0.5-1.8,1.3c0,0.6,0.5,0.9,1.5,1.2 l1.3,0.3c1.6,0.4,2.4,1.1,2.4,2.3c0,1.5-1.5,2.5-3.4,2.5c-1.9,0-3.2-0.9-3.3-2.3H30c0.2,0.7,0.9,1.2,2,1.2c1.1,0,1.9-0.5,1.9-1.3 c0-0.6-0.4-1-1.3-1.2l-1.4-0.4c-1.6-0.4-2.3-1.1-2.3-2.3C28.9,95.5,30.2,94.4,32,94.4z"/><path class="st0" d="M39.5,92.4v2.2h1.9v1.1h-1.9v4.8c0,1,0.4,1.4,1.2,1.4c0.2,0,0.4,0,0.6,0v1.1c-0.3,0-0.5,0.1-0.8,0.1 c-1.7,0-2.4-0.6-2.4-2.2v-5.1h-1.4v-1.1h1.4v-2.2H39.5z"/><path class="st0" d="M43.3,94.6h1.3v1.2h0.1c0.2-0.8,1.2-1.4,2.3-1.4c0.2,0,0.5,0,0.7,0v1.3c-0.1,0-0.6-0.1-0.9-0.1 c-1.3,0-2.2,0.9-2.2,2v5.2h-1.3V94.6z"/><path class="st0" d="M49.1,100.6c0-1.5,1.1-2.4,3.1-2.5l2.4-0.1v-0.8c0-1-0.6-1.6-1.9-1.6c-1,0-1.7,0.4-1.9,1h-1.4 c0.2-1.4,1.5-2.2,3.3-2.2c2.1,0,3.2,1.1,3.2,2.8v5.8h-1.3v-1.2h-0.1c-0.5,0.9-1.5,1.4-2.6,1.4C50.3,103.1,49.1,102.2,49.1,100.6z M54.6,99.8v-0.8l-2.3,0.1c-1.3,0.1-1.8,0.5-1.8,1.4c0,0.9,0.7,1.4,1.7,1.4C53.5,101.9,54.6,101,54.6,99.8z"/><path class="st0" d="M64.1,97.1c-0.2-0.8-1-1.5-2.2-1.5c-1.5,0-2.5,1.2-2.5,3.1c0,1.9,1,3.2,2.5,3.2c1.1,0,1.9-0.5,2.2-1.5h1.4 c-0.2,1.5-1.5,2.7-3.5,2.7c-2.4,0-3.9-1.7-3.9-4.4c0-2.6,1.5-4.3,3.9-4.3c2,0,3.3,1.2,3.5,2.7H64.1z"/><path class="st0" d="M69.5,92.4v2.2h1.9v1.1h-1.9v4.8c0,1,0.4,1.4,1.2,1.4c0.2,0,0.4,0,0.6,0v1.1c-0.3,0-0.5,0.1-0.8,0.1 c-1.7,0-2.4-0.6-2.4-2.2v-5.1h-1.4v-1.1h1.4v-2.2H69.5z"/><path class="st0" d="M76.4,94.4c1.8,0,3,0.9,3.2,2.3h-1.3c-0.2-0.7-0.8-1.1-1.9-1.1c-1,0-1.8,0.5-1.8,1.3c0,0.6,0.5,0.9,1.5,1.2 l1.3,0.3c1.6,0.4,2.4,1.1,2.4,2.3c0,1.5-1.5,2.5-3.4,2.5c-1.9,0-3.2-0.9-3.3-2.3h1.4c0.2,0.7,0.9,1.2,2,1.2c1.1,0,1.9-0.5,1.9-1.3 c0-0.6-0.4-1-1.3-1.2l-1.4-0.4c-1.6-0.4-2.3-1.1-2.3-2.3C73.3,95.5,74.6,94.4,76.4,94.4z"/><path class="st0" d="M86.3,98.8c0-2.6,1.4-4.4,3.5-4.4c1.2,0,2.2,0.6,2.6,1.5h0.1v-4.7h1.3V103h-1.3v-1.3h-0.1 c-0.5,0.9-1.5,1.5-2.7,1.5C87.7,103.1,86.3,101.4,86.3,98.8z M87.7,98.8c0,2,0.9,3.1,2.5,3.1c1.5,0,2.5-1.2,2.5-3.1 c0-1.9-1-3.1-2.5-3.1C88.6,95.6,87.7,96.8,87.7,98.8z"/><path class="st0" d="M103.5,100.8c-0.4,1.4-1.7,2.3-3.5,2.3c-2.3,0-3.8-1.7-3.8-4.4c0-2.6,1.5-4.4,3.8-4.4c2.3,0,3.7,1.6,3.7,4.2 v0.5h-6.1v0.1c0.1,1.7,1,2.7,2.4,2.7c1.1,0,1.8-0.4,2.2-1.1H103.5z M97.6,98.1h4.6c0-1.5-0.9-2.5-2.3-2.5 C98.6,95.6,97.7,96.6,97.6,98.1z"/><path class="st0" d="M109.3,103h-1.4l-3.1-8.4h1.4l2.3,6.9h0.1l2.3-6.9h1.4L109.3,103z"/><path class="st0" d="M120.9,100.8c-0.4,1.4-1.7,2.3-3.5,2.3c-2.3,0-3.8-1.7-3.8-4.4c0-2.6,1.5-4.4,3.8-4.4c2.3,0,3.7,1.6,3.7,4.2 v0.5h-6.1v0.1c0.1,1.7,1,2.7,2.4,2.7c1.1,0,1.8-0.4,2.2-1.1H120.9z M114.9,98.1h4.6c0-1.5-0.9-2.5-2.3-2.5 C116,95.6,115,96.6,114.9,98.1z"/><path class="st0" d="M123.3,91.2h1.3V103h-1.3V91.2z"/><path class="st0" d="M126.9,98.8c0-2.7,1.5-4.4,3.9-4.4s3.9,1.6,3.9,4.4c0,2.7-1.5,4.4-3.9,4.4S126.9,101.5,126.9,98.8z M133.3,98.8c0-2-0.9-3.1-2.5-3.1s-2.5,1.1-2.5,3.1c0,2,0.9,3.1,2.5,3.1S133.3,100.8,133.3,98.8z"/><path class="st0" d="M144.5,98.8c0,2.6-1.4,4.4-3.5,4.4c-1.2,0-2.2-0.5-2.6-1.4h-0.1v4.1h-1.3V94.6h1.3V96h0.1 c0.5-1,1.5-1.6,2.7-1.6C143.1,94.4,144.5,96.1,144.5,98.8z M143.1,98.8c0-2-0.9-3.1-2.5-3.1c-1.5,0-2.5,1.2-2.5,3.1 c0,1.9,1,3.1,2.5,3.1C142.2,101.9,143.1,100.7,143.1,98.8z"/><path class="st0" d="M153.7,100.8c-0.4,1.4-1.7,2.3-3.5,2.3c-2.3,0-3.8-1.7-3.8-4.4c0-2.6,1.5-4.4,3.8-4.4c2.3,0,3.7,1.6,3.7,4.2 v0.5h-6.1v0.1c0.1,1.7,1,2.7,2.4,2.7c1.1,0,1.8-0.4,2.2-1.1H153.7z M147.7,98.1h4.6c0-1.5-0.9-2.5-2.3-2.5 C148.8,95.6,147.8,96.6,147.7,98.1z"/><path class="st0" d="M156,94.6h1.3v1.2h0.1c0.2-0.8,1.2-1.4,2.3-1.4c0.2,0,0.5,0,0.7,0v1.3c-0.1,0-0.6-0.1-0.9-0.1 c-1.3,0-2.2,0.9-2.2,2v5.2H156V94.6z"/><path class="st0" d="M173.9,100.8c-0.4,1.4-1.7,2.3-3.5,2.3c-2.3,0-3.8-1.7-3.8-4.4c0-2.6,1.5-4.4,3.8-4.4c2.3,0,3.7,1.6,3.7,4.2 v0.5h-6.1v0.1c0.1,1.7,1,2.7,2.4,2.7c1.1,0,1.8-0.4,2.2-1.1H173.9z M167.9,98.1h4.6c0-1.5-0.9-2.5-2.3-2.5 C169,95.6,168,96.6,167.9,98.1z"/><path class="st0" d="M178.7,99.8l-2,3.2h-1.5l2.9-4.2l-2.9-4.2h1.6l2,3.1h0.1l2-3.1h1.5l-2.9,4.2l2.9,4.3h-1.6l-2-3.2H178.7z"/><path class="st0" d="M191.9,98.8c0,2.6-1.4,4.4-3.5,4.4c-1.2,0-2.2-0.5-2.6-1.4h-0.1v4.1h-1.3V94.6h1.3V96h0.1 c0.5-1,1.5-1.6,2.7-1.6C190.5,94.4,191.9,96.1,191.9,98.8z M190.5,98.8c0-2-0.9-3.1-2.5-3.1c-1.5,0-2.5,1.2-2.5,3.1 c0,1.9,1,3.1,2.5,3.1C189.6,101.9,190.5,100.7,190.5,98.8z"/><path class="st0" d="M201.1,100.8c-0.4,1.4-1.7,2.3-3.5,2.3c-2.3,0-3.8-1.7-3.8-4.4c0-2.6,1.5-4.4,3.8-4.4c2.3,0,3.7,1.6,3.7,4.2 v0.5h-6.1v0.1c0.1,1.7,1,2.7,2.4,2.7c1.1,0,1.8-0.4,2.2-1.1H201.1z M195.1,98.1h4.6c0-1.5-0.9-2.5-2.3-2.5 C196.2,95.6,195.2,96.6,195.1,98.1z"/><path class="st0" d="M203.4,94.6h1.3v1.2h0.1c0.2-0.8,1.2-1.4,2.3-1.4c0.2,0,0.5,0,0.7,0v1.3c-0.1,0-0.6-0.1-0.9-0.1 c-1.3,0-2.2,0.9-2.2,2v5.2h-1.3V94.6z"/><path class="st0" d="M209.4,92c0-0.5,0.4-0.9,0.9-0.9s0.9,0.4,0.9,0.9s-0.4,0.9-0.9,0.9S209.4,92.5,209.4,92z M209.6,94.6h1.3v8.4 h-1.3V94.6z"/><path class="st0" d="M220.5,100.8c-0.4,1.4-1.7,2.3-3.5,2.3c-2.3,0-3.8-1.7-3.8-4.4c0-2.6,1.5-4.4,3.8-4.4c2.3,0,3.7,1.6,3.7,4.2 v0.5h-6.1v0.1c0.1,1.7,1,2.7,2.4,2.7c1.1,0,1.8-0.4,2.2-1.1H220.5z M214.6,98.1h4.6c0-1.5-0.9-2.5-2.3-2.5 C215.6,95.6,214.7,96.6,214.6,98.1z"/><path class="st0" d="M222.9,94.6h1.3v1.3h0.1c0.4-0.9,1.2-1.5,2.5-1.5c1.9,0,2.9,1.1,2.9,3.1v5.5h-1.3v-5.1c0-1.5-0.6-2.2-2-2.2 s-2.2,0.9-2.2,2.4v5h-1.3V94.6z"/><path class="st0" d="M238,97.1c-0.2-0.8-1-1.5-2.2-1.5c-1.5,0-2.5,1.2-2.5,3.1c0,1.9,1,3.2,2.5,3.2c1.1,0,1.9-0.5,2.2-1.5h1.4 c-0.2,1.5-1.5,2.7-3.5,2.7c-2.4,0-3.9-1.7-3.9-4.4c0-2.6,1.5-4.3,3.9-4.3c2,0,3.3,1.2,3.5,2.7H238z"/><path class="st0" d="M248.3,100.8c-0.4,1.4-1.7,2.3-3.5,2.3c-2.3,0-3.8-1.7-3.8-4.4c0-2.6,1.5-4.4,3.8-4.4c2.3,0,3.7,1.6,3.7,4.2 v0.5h-6.1v0.1c0.1,1.7,1,2.7,2.4,2.7c1.1,0,1.8-0.4,2.2-1.1H248.3z M242.4,98.1h4.6c0-1.5-0.9-2.5-2.3-2.5 C243.4,95.6,242.5,96.6,242.4,98.1z"/><path class="st0" d="M256,95.7h-1.4v-1.1h1.4v-0.9c0-1.7,0.8-2.5,2.4-2.5c0.3,0,0.6,0,0.9,0.1v1.1c-0.2,0-0.4,0-0.6,0 c-1,0-1.4,0.5-1.4,1.4v0.9h1.9v1.1h-1.9v7.3H256V95.7z"/><path class="st0" d="M261.2,94.6h1.3v1.2h0.1c0.2-0.8,1.2-1.4,2.3-1.4c0.2,0,0.5,0,0.7,0v1.3c-0.1,0-0.6-0.1-0.9-0.1 c-1.3,0-2.2,0.9-2.2,2v5.2h-1.3V94.6z"/><path class="st0" d="M266.9,98.8c0-2.7,1.5-4.4,3.9-4.4s3.9,1.6,3.9,4.4c0,2.7-1.5,4.4-3.9,4.4S266.9,101.5,266.9,98.8z M273.2,98.8c0-2-0.9-3.1-2.5-3.1s-2.5,1.1-2.5,3.1c0,2,0.9,3.1,2.5,3.1S273.2,100.8,273.2,98.8z"/><path class="st0" d="M276.8,94.6h1.3v1.3h0.1c0.4-0.9,1.2-1.5,2.4-1.5c1.1,0,1.9,0.6,2.3,1.5h0.1c0.5-0.9,1.4-1.5,2.6-1.5 c1.7,0,2.7,1,2.7,2.8v5.8H287v-5.5c0-1.2-0.6-1.9-1.8-1.9c-1.2,0-2,0.9-2,1.9v5.4h-1.3v-5.7c0-1-0.7-1.6-1.8-1.6c-1.1,0-2,1-2,2.1 v5.2h-1.3V94.6z"/><path class="st0" d="M8.1,116c0-0.5,0.4-0.9,0.9-0.9s0.9,0.4,0.9,0.9s-0.4,0.9-0.9,0.9S8.1,116.5,8.1,116z M8.3,118.6h1.3v8.4H8.3 V118.6z"/><path class="st0" d="M12.3,118.6h1.3v1.3h0.1c0.4-0.9,1.2-1.5,2.5-1.5c1.9,0,2.9,1.1,2.9,3.1v5.5h-1.3v-5.1c0-1.5-0.6-2.2-2-2.2 s-2.2,0.9-2.2,2.4v5h-1.3V118.6z"/><path class="st0" d="M22.2,119.7h-1.4v-1.1h1.4v-0.9c0-1.7,0.8-2.5,2.4-2.5c0.3,0,0.6,0,0.9,0.1v1.1c-0.2,0-0.4,0-0.6,0 c-1,0-1.4,0.5-1.4,1.4v0.9h1.9v1.1h-1.9v7.3h-1.3V119.7z"/><path class="st0" d="M27.5,118.6h1.3v1.2h0.1c0.2-0.8,1.2-1.4,2.3-1.4c0.2,0,0.5,0,0.7,0v1.3c-0.1,0-0.6-0.1-0.9-0.1 c-1.3,0-2.2,0.9-2.2,2v5.2h-1.3V118.6z"/><path class="st0" d="M33.2,124.6c0-1.5,1.1-2.4,3.1-2.5l2.4-0.1v-0.8c0-1-0.6-1.6-1.9-1.6c-1,0-1.7,0.4-1.9,1h-1.4 c0.2-1.4,1.5-2.2,3.3-2.2c2.1,0,3.2,1.1,3.2,2.8v5.8h-1.3v-1.2h-0.1c-0.5,0.9-1.5,1.4-2.6,1.4C34.4,127.1,33.2,126.2,33.2,124.6z M38.7,123.8v-0.8l-2.3,0.1c-1.3,0.1-1.8,0.5-1.8,1.4c0,0.9,0.7,1.4,1.7,1.4C37.7,125.9,38.7,125,38.7,123.8z"/><path class="st0" d="M45.5,118.4c1.8,0,3,0.9,3.2,2.3h-1.3c-0.2-0.7-0.8-1.1-1.9-1.1c-1,0-1.8,0.5-1.8,1.3c0,0.6,0.5,0.9,1.5,1.2 l1.3,0.3c1.6,0.4,2.4,1.1,2.4,2.3c0,1.5-1.5,2.5-3.4,2.5c-1.9,0-3.2-0.9-3.3-2.3h1.4c0.2,0.7,0.9,1.2,2,1.2c1.1,0,1.9-0.5,1.9-1.3 c0-0.6-0.4-1-1.3-1.2l-1.4-0.4c-1.6-0.4-2.3-1.1-2.3-2.3C42.4,119.5,43.7,118.4,45.5,118.4z"/><path class="st0" d="M53,116.4v2.2h1.9v1.1H53v4.8c0,1,0.4,1.4,1.2,1.4c0.2,0,0.4,0,0.6,0v1.1c-0.3,0-0.5,0.1-0.8,0.1 c-1.7,0-2.4-0.6-2.4-2.2v-5.1h-1.4v-1.1h1.4v-2.2H53z"/><path class="st0" d="M56.9,118.6h1.3v1.2h0.1c0.2-0.8,1.2-1.4,2.3-1.4c0.2,0,0.5,0,0.7,0v1.3c-0.1,0-0.6-0.1-0.9-0.1 c-1.3,0-2.2,0.9-2.2,2v5.2h-1.3V118.6z"/><path class="st0" d="M69.9,127h-1.3v-1.3h-0.1c-0.4,0.9-1.3,1.5-2.6,1.5c-1.9,0-2.9-1.1-2.9-3.1v-5.5h1.3v5.1 c0,1.5,0.6,2.2,1.9,2.2c1.5,0,2.3-0.9,2.3-2.4v-5h1.3V127z"/><path class="st0" d="M78.2,121.1c-0.2-0.8-1-1.5-2.2-1.5c-1.5,0-2.5,1.2-2.5,3.1c0,1.9,1,3.2,2.5,3.2c1.1,0,1.9-0.5,2.2-1.5h1.4 c-0.2,1.5-1.5,2.7-3.5,2.7c-2.4,0-3.9-1.7-3.9-4.4c0-2.6,1.5-4.3,3.9-4.3c2,0,3.3,1.2,3.5,2.7H78.2z"/><path class="st0" d="M83.6,116.4v2.2h1.9v1.1h-1.9v4.8c0,1,0.4,1.4,1.2,1.4c0.2,0,0.4,0,0.6,0v1.1c-0.3,0-0.5,0.1-0.8,0.1 c-1.7,0-2.4-0.6-2.4-2.2v-5.1h-1.4v-1.1h1.4v-2.2H83.6z"/><path class="st0" d="M94.3,127H93v-1.3h-0.1c-0.4,0.9-1.3,1.5-2.6,1.5c-1.9,0-2.9-1.1-2.9-3.1v-5.5h1.3v5.1c0,1.5,0.6,2.2,1.9,2.2 c1.5,0,2.3-0.9,2.3-2.4v-5h1.3V127z"/><path class="st0" d="M96.9,118.6h1.3v1.2h0.1c0.2-0.8,1.2-1.4,2.3-1.4c0.2,0,0.5,0,0.7,0v1.3c-0.1,0-0.6-0.1-0.9-0.1 c-1.3,0-2.2,0.9-2.2,2v5.2h-1.3V118.6z"/><path class="st0" d="M109.9,124.8c-0.4,1.4-1.7,2.3-3.5,2.3c-2.3,0-3.8-1.7-3.8-4.4c0-2.6,1.5-4.4,3.8-4.4c2.3,0,3.7,1.6,3.7,4.2 v0.5H104v0.1c0.1,1.7,1,2.7,2.4,2.7c1.1,0,1.8-0.4,2.2-1.1H109.9z M104,122.1h4.6c0-1.5-0.9-2.5-2.3-2.5 C105,119.6,104.1,120.6,104,122.1z"/><path class="st0" d="M111.8,129.8l0.7-4.4h1.5l-1.2,4.4H111.8z"/><path class="st0" d="M121.1,122.8c0-2.6,1.4-4.4,3.5-4.4c1.2,0,2.2,0.6,2.6,1.5h0.1v-4.7h1.3V127h-1.3v-1.3h-0.1 c-0.5,0.9-1.5,1.5-2.7,1.5C122.5,127.1,121.1,125.4,121.1,122.8z M122.5,122.8c0,2,0.9,3.1,2.5,3.1c1.5,0,2.5-1.2,2.5-3.1 c0-1.9-1-3.1-2.5-3.1C123.5,119.6,122.5,120.8,122.5,122.8z"/><path class="st0" d="M138.4,124.8c-0.4,1.4-1.7,2.3-3.5,2.3c-2.3,0-3.8-1.7-3.8-4.4c0-2.6,1.5-4.4,3.8-4.4c2.3,0,3.7,1.6,3.7,4.2 v0.5h-6.1v0.1c0.1,1.7,1,2.7,2.4,2.7c1.1,0,1.8-0.4,2.2-1.1H138.4z M132.4,122.1h4.6c0-1.5-0.9-2.5-2.3-2.5 C133.5,119.6,132.5,120.6,132.4,122.1z"/><path class="st0" d="M144.2,127h-1.4l-3.1-8.4h1.4l2.3,6.9h0.1l2.3-6.9h1.4L144.2,127z"/><path class="st0" d="M148.9,116c0-0.5,0.4-0.9,0.9-0.9s0.9,0.4,0.9,0.9s-0.4,0.9-0.9,0.9S148.9,116.5,148.9,116z M149.2,118.6h1.3 v8.4h-1.3V118.6z"/><path class="st0" d="M158.7,121.1c-0.2-0.8-1-1.5-2.2-1.5c-1.5,0-2.5,1.2-2.5,3.1c0,1.9,1,3.2,2.5,3.2c1.1,0,1.9-0.5,2.2-1.5h1.4 c-0.2,1.5-1.5,2.7-3.5,2.7c-2.4,0-3.9-1.7-3.9-4.4c0-2.6,1.5-4.3,3.9-4.3c2,0,3.3,1.2,3.5,2.7H158.7z"/><path class="st0" d="M169.1,124.8c-0.4,1.4-1.7,2.3-3.5,2.3c-2.3,0-3.8-1.7-3.8-4.4c0-2.6,1.5-4.4,3.8-4.4c2.3,0,3.7,1.6,3.7,4.2 v0.5h-6.1v0.1c0.1,1.7,1,2.7,2.4,2.7c1.1,0,1.8-0.4,2.2-1.1H169.1z M163.2,122.1h4.6c0-1.5-0.9-2.5-2.3-2.5 C164.2,119.6,163.3,120.6,163.2,122.1z"/><path class="st0" d="M174.4,118.4c1.8,0,3,0.9,3.2,2.3h-1.3c-0.2-0.7-0.8-1.1-1.9-1.1c-1,0-1.8,0.5-1.8,1.3c0,0.6,0.5,0.9,1.5,1.2 l1.3,0.3c1.6,0.4,2.4,1.1,2.4,2.3c0,1.5-1.5,2.5-3.4,2.5c-1.9,0-3.2-0.9-3.3-2.3h1.4c0.2,0.7,0.9,1.2,2,1.2c1.1,0,1.9-0.5,1.9-1.3 c0-0.6-0.4-1-1.3-1.2l-1.4-0.4c-1.6-0.4-2.3-1.1-2.3-2.3C171.2,119.5,172.6,118.4,174.4,118.4z"/><path class="st0" d="M179.6,129.8l0.7-4.4h1.5l-1.2,4.4H179.6z"/><path class="st0" d="M188.9,122.8c0-2.7,1.5-4.4,3.9-4.4s3.9,1.6,3.9,4.4c0,2.7-1.5,4.4-3.9,4.4S188.9,125.5,188.9,122.8z M195.2,122.8c0-2-0.9-3.1-2.5-3.1s-2.5,1.1-2.5,3.1c0,2,0.9,3.1,2.5,3.1S195.2,124.8,195.2,122.8z"/><path class="st0" d="M206.5,122.8c0,2.6-1.4,4.4-3.5,4.4c-1.2,0-2.2-0.5-2.6-1.4h-0.1v4.1h-1.3v-11.2h1.3v1.4h0.1 c0.5-1,1.5-1.6,2.7-1.6C205.1,118.4,206.5,120.1,206.5,122.8z M205.1,122.8c0-2-0.9-3.1-2.5-3.1c-1.5,0-2.5,1.2-2.5,3.1 c0,1.9,1,3.1,2.5,3.1C204.2,125.9,205.1,124.7,205.1,122.8z"/><path class="st0" d="M215.7,124.8c-0.4,1.4-1.7,2.3-3.5,2.3c-2.3,0-3.8-1.7-3.8-4.4c0-2.6,1.5-4.4,3.8-4.4c2.3,0,3.7,1.6,3.7,4.2 v0.5h-6.1v0.1c0.1,1.7,1,2.7,2.4,2.7c1.1,0,1.8-0.4,2.2-1.1H215.7z M209.7,122.1h4.6c0-1.5-0.9-2.5-2.3-2.5 C210.7,119.6,209.8,120.6,209.7,122.1z"/><path class="st0" d="M218,118.6h1.3v1.2h0.1c0.2-0.8,1.2-1.4,2.3-1.4c0.2,0,0.5,0,0.7,0v1.3c-0.1,0-0.6-0.1-0.9-0.1 c-1.3,0-2.2,0.9-2.2,2v5.2H218V118.6z"/><path class="st0" d="M223.7,124.6c0-1.5,1.1-2.4,3.1-2.5l2.4-0.1v-0.8c0-1-0.6-1.6-1.9-1.6c-1,0-1.7,0.4-1.9,1h-1.4 c0.2-1.4,1.5-2.2,3.3-2.2c2.1,0,3.2,1.1,3.2,2.8v5.8h-1.3v-1.2h-0.1c-0.5,0.9-1.5,1.4-2.6,1.4C224.9,127.1,223.7,126.2,223.7,124.6 z M229.2,123.8v-0.8l-2.3,0.1c-1.3,0.1-1.8,0.5-1.8,1.4c0,0.9,0.7,1.4,1.7,1.4C228.2,125.9,229.2,125,229.2,123.8z"/><path class="st0" d="M235,116.4v2.2h1.9v1.1H235v4.8c0,1,0.4,1.4,1.2,1.4c0.2,0,0.4,0,0.6,0v1.1c-0.3,0-0.5,0.1-0.8,0.1 c-1.7,0-2.4-0.6-2.4-2.2v-5.1h-1.4v-1.1h1.4v-2.2H235z"/><path class="st0" d="M238.6,116c0-0.5,0.4-0.9,0.9-0.9s0.9,0.4,0.9,0.9s-0.4,0.9-0.9,0.9S238.6,116.5,238.6,116z M238.8,118.6h1.3 v8.4h-1.3V118.6z"/><path class="st0" d="M242.8,118.6h1.3v1.3h0.1c0.4-0.9,1.2-1.5,2.5-1.5c1.9,0,2.9,1.1,2.9,3.1v5.5h-1.3v-5.1c0-1.5-0.6-2.2-2-2.2 s-2.2,0.9-2.2,2.4v5h-1.3V118.6z"/><path class="st0" d="M252.2,127.9h1.4c0.1,0.7,0.9,1.1,2.1,1.1c1.5,0,2.4-0.7,2.4-2v-1.7H258c-0.5,0.9-1.5,1.5-2.6,1.5 c-2.2,0-3.5-1.7-3.5-4.2s1.4-4.2,3.5-4.2c1.2,0,2.2,0.6,2.7,1.5h0.1v-1.3h1.3v8.6c0,1.9-1.5,3.1-3.8,3.1 C253.7,130.2,252.4,129.3,252.2,127.9z M258.2,122.6c0-1.8-0.9-3-2.5-3c-1.6,0-2.4,1.2-2.4,3s0.9,3,2.4,3S258.2,124.5,258.2,122.6z"/><path class="st0" d="M269.8,118.4c1.8,0,3,0.9,3.2,2.3h-1.3c-0.2-0.7-0.8-1.1-1.9-1.1c-1,0-1.8,0.5-1.8,1.3c0,0.6,0.5,0.9,1.5,1.2 l1.3,0.3c1.6,0.4,2.4,1.1,2.4,2.3c0,1.5-1.5,2.5-3.4,2.5c-1.9,0-3.2-0.9-3.3-2.3h1.4c0.2,0.7,0.9,1.2,2,1.2c1.1,0,1.9-0.5,1.9-1.3 c0-0.6-0.4-1-1.3-1.2l-1.4-0.4c-1.6-0.4-2.3-1.1-2.3-2.3C266.7,119.5,268,118.4,269.8,118.4z"/><path class="st0" d="M275.3,130v-1.1c0.2,0,0.4,0,0.6,0c0.8,0,1.2-0.4,1.5-1.4l0.2-0.5l-3.1-8.4h1.5l2.3,6.9h0.1l2.3-6.9h1.4 l-3.3,8.9c-0.7,2-1.4,2.5-2.9,2.5C275.7,130,275.5,130,275.3,130z"/><path class="st0" d="M286.7,118.4c1.8,0,3,0.9,3.2,2.3h-1.3c-0.2-0.7-0.8-1.1-1.9-1.1c-1,0-1.8,0.5-1.8,1.3c0,0.6,0.5,0.9,1.5,1.2 l1.3,0.3c1.6,0.4,2.4,1.1,2.4,2.3c0,1.5-1.5,2.5-3.4,2.5c-1.9,0-3.2-0.9-3.3-2.3h1.4c0.2,0.7,0.9,1.2,2,1.2c1.1,0,1.9-0.5,1.9-1.3 c0-0.6-0.4-1-1.3-1.2l-1.4-0.4c-1.6-0.4-2.3-1.1-2.3-2.3C283.5,119.5,284.9,118.4,286.7,118.4z"/><path class="st0" d="M294.1,116.4v2.2h1.9v1.1h-1.9v4.8c0,1,0.4,1.4,1.2,1.4c0.2,0,0.4,0,0.6,0v1.1c-0.3,0-0.5,0.1-0.8,0.1 c-1.7,0-2.4-0.6-2.4-2.2v-5.1h-1.4v-1.1h1.4v-2.2H294.1z"/><path class="st0" d="M304.8,124.8c-0.4,1.4-1.7,2.3-3.5,2.3c-2.3,0-3.8-1.7-3.8-4.4c0-2.6,1.5-4.4,3.8-4.4c2.3,0,3.7,1.6,3.7,4.2 v0.5h-6.1v0.1c0.1,1.7,1,2.7,2.4,2.7c1.1,0,1.8-0.4,2.2-1.1H304.8z M298.8,122.1h4.6c0-1.5-0.9-2.5-2.3-2.5 C299.9,119.6,298.9,120.6,298.8,122.1z"/><path class="st0" d="M307.1,118.6h1.3v1.3h0.1c0.4-0.9,1.2-1.5,2.4-1.5c1.1,0,1.9,0.6,2.3,1.5h0.1c0.5-0.9,1.4-1.5,2.6-1.5 c1.7,0,2.7,1,2.7,2.8v5.8h-1.3v-5.5c0-1.2-0.6-1.9-1.8-1.9c-1.2,0-2,0.9-2,1.9v5.4h-1.3v-5.7c0-1-0.7-1.6-1.8-1.6c-1.1,0-2,1-2,2.1 v5.2h-1.3V118.6z"/><path class="st0" d="M324.1,118.4c1.8,0,3,0.9,3.2,2.3h-1.3c-0.2-0.7-0.8-1.1-1.9-1.1c-1,0-1.8,0.5-1.8,1.3c0,0.6,0.5,0.9,1.5,1.2 l1.3,0.3c1.6,0.4,2.4,1.1,2.4,2.3c0,1.5-1.5,2.5-3.4,2.5c-1.9,0-3.2-0.9-3.3-2.3h1.4c0.2,0.7,0.9,1.2,2,1.2c1.1,0,1.9-0.5,1.9-1.3 c0-0.6-0.4-1-1.3-1.2l-1.4-0.4c-1.6-0.4-2.3-1.1-2.3-2.3C320.9,119.5,322.3,118.4,324.1,118.4z"/><path class="st0" d="M8,159.6c0-4.1,2.3-6.7,6-6.7c3,0,5.3,2,5.5,4.8h-2.6c-0.3-1.5-1.4-2.4-2.9-2.4c-2,0-3.2,1.7-3.2,4.3 S12,164,14,164c1.5,0,2.7-0.9,2.9-2.3h2.6c-0.2,2.7-2.5,4.6-5.5,4.6C10.3,166.3,8,163.8,8,159.6z"/><path class="st0" d="M21.9,152.6h2.5v5.3h0.2c0.4-1.1,1.5-1.8,2.9-1.8c2.1,0,3.3,1.3,3.3,3.6v6.2h-2.6v-5.6c0-1.3-0.6-2-1.8-2 c-1.3,0-2,0.9-2,2.1v5.6h-2.6V152.6z"/><path class="st0" d="M32.9,161.1c0-3.1,1.8-5.1,4.8-5.1s4.8,1.9,4.8,5.1c0,3.2-1.8,5.1-4.8,5.1S32.9,164.3,32.9,161.1z M39.9,161.1 c0-1.9-0.8-3-2.1-3c-1.4,0-2.1,1.1-2.1,3c0,1.9,0.8,3,2.1,3C39.1,164.1,39.9,163,39.9,161.1z"/><path class="st0" d="M44.5,153.4c0-0.8,0.7-1.5,1.5-1.5c0.8,0,1.5,0.6,1.5,1.5s-0.7,1.5-1.5,1.5C45.2,154.8,44.5,154.2,44.5,153.4z M44.7,156.3h2.6v9.7h-2.6V156.3z"/><path class="st0" d="M56.1,159.7c-0.2-0.9-0.8-1.5-1.9-1.5c-1.4,0-2.2,1-2.2,2.9c0,1.9,0.8,3,2.2,3c1,0,1.7-0.5,1.9-1.5h2.4 c-0.2,2.2-1.8,3.6-4.3,3.6c-3,0-4.7-1.8-4.7-5.1c0-3.2,1.7-5,4.7-5c2.6,0,4.1,1.4,4.3,3.6H56.1z"/><path class="st0" d="M69.3,163.2c-0.4,1.8-2.1,3-4.4,3c-3,0-4.7-1.9-4.7-5c0-3.2,1.8-5.1,4.7-5.1c2.9,0,4.5,1.8,4.5,4.9v0.8h-6.7 v0.1c0,1.4,0.9,2.3,2.2,2.3c1,0,1.7-0.4,2-1H69.3z M62.7,160.1h4.1c-0.1-1.3-0.8-2.1-2-2.1C63.6,158,62.8,158.9,62.7,160.1z"/><path class="st0" d="M14.7,186.8h-4.5L9.1,190H7.6l4.2-11.3h1.4l4.2,11.3h-1.5L14.7,186.8z M10.6,185.6h3.7l-1.8-5h-0.1L10.6,185.6 z"/><path class="st0" d="M19.2,181.6h1.3v1.3h0.1c0.4-0.9,1.2-1.5,2.5-1.5c1.9,0,2.9,1.1,2.9,3.1v5.5h-1.3v-5.1c0-1.5-0.6-2.2-2-2.2 s-2.2,0.9-2.2,2.4v5h-1.3V181.6z"/><path class="st0" d="M28.5,193v-1.1c0.2,0,0.4,0,0.6,0c0.8,0,1.2-0.4,1.5-1.4l0.2-0.5l-3.1-8.4h1.5l2.3,6.9h0.1l2.3-6.9h1.4 l-3.3,8.9c-0.7,2-1.4,2.5-2.9,2.5C28.9,193,28.7,193,28.5,193z"/><path class="st0" d="M41.4,185.8c0-2.6,1.4-4.4,3.5-4.4c1.2,0,2.2,0.6,2.6,1.5h0.1v-4.7h1.3V190h-1.3v-1.3h-0.1 c-0.5,0.9-1.5,1.5-2.7,1.5C42.8,190.1,41.4,188.4,41.4,185.8z M42.8,185.8c0,2,0.9,3.1,2.5,3.1c1.5,0,2.5-1.2,2.5-3.1 c0-1.9-1-3.1-2.5-3.1C43.8,182.6,42.8,183.8,42.8,185.8z"/><path class="st0" d="M58.7,187.8c-0.4,1.4-1.7,2.3-3.5,2.3c-2.3,0-3.8-1.7-3.8-4.4c0-2.6,1.5-4.4,3.8-4.4c2.3,0,3.7,1.6,3.7,4.2 v0.5h-6.1v0.1c0.1,1.7,1,2.7,2.4,2.7c1.1,0,1.8-0.4,2.2-1.1H58.7z M52.7,185.1h4.6c0-1.5-0.9-2.5-2.3-2.5 C53.8,182.6,52.8,183.6,52.7,185.1z"/><path class="st0" d="M64.5,190h-1.4l-3.1-8.4h1.4l2.3,6.9h0.1l2.3-6.9h1.4L64.5,190z"/><path class="st0" d="M69.2,179c0-0.5,0.4-0.9,0.9-0.9s0.9,0.4,0.9,0.9s-0.4,0.9-0.9,0.9S69.2,179.5,69.2,179z M69.5,181.6h1.3v8.4 h-1.3V181.6z"/><path class="st0" d="M79,184.1c-0.2-0.8-1-1.5-2.2-1.5c-1.5,0-2.5,1.2-2.5,3.1c0,1.9,1,3.2,2.5,3.2c1.1,0,1.9-0.5,2.2-1.5h1.4 c-0.2,1.5-1.5,2.7-3.5,2.7c-2.4,0-3.9-1.7-3.9-4.4c0-2.6,1.5-4.3,3.9-4.3c2,0,3.3,1.2,3.5,2.7H79z"/><path class="st0" d="M89.4,187.8c-0.4,1.4-1.7,2.3-3.5,2.3c-2.3,0-3.8-1.7-3.8-4.4c0-2.6,1.5-4.4,3.8-4.4c2.3,0,3.7,1.6,3.7,4.2 v0.5h-6.1v0.1c0.1,1.7,1,2.7,2.4,2.7c1.1,0,1.8-0.4,2.2-1.1H89.4z M83.5,185.1h4.6c0-1.5-0.9-2.5-2.3-2.5 C84.5,182.6,83.6,183.6,83.5,185.1z"/><path class="st0" d="M91.3,192.8l0.7-4.4h1.5l-1.2,4.4H91.3z"/><path class="st0" d="M100.6,187.6c0-1.5,1.1-2.4,3.1-2.5l2.4-0.1v-0.8c0-1-0.6-1.6-1.9-1.6c-1,0-1.7,0.4-1.9,1h-1.4 c0.2-1.4,1.5-2.2,3.3-2.2c2.1,0,3.2,1.1,3.2,2.8v5.8h-1.3v-1.2H106c-0.5,0.9-1.5,1.4-2.6,1.4C101.8,190.1,100.6,189.2,100.6,187.6z M106.1,186.8v-0.8l-2.3,0.1c-1.3,0.1-1.8,0.5-1.8,1.4c0,0.9,0.7,1.4,1.7,1.4C105,188.9,106.1,188,106.1,186.8z"/><path class="st0" d="M110,181.6h1.3v1.3h0.1c0.4-0.9,1.2-1.5,2.5-1.5c1.9,0,2.9,1.1,2.9,3.1v5.5h-1.3v-5.1c0-1.5-0.6-2.2-2-2.2 s-2.2,0.9-2.2,2.4v5H110V181.6z"/><path class="st0" d="M119.2,193v-1.1c0.2,0,0.4,0,0.6,0c0.8,0,1.2-0.4,1.5-1.4l0.2-0.5l-3.1-8.4h1.5l2.3,6.9h0.1l2.3-6.9h1.4 l-3.3,8.9c-0.7,2-1.4,2.5-2.9,2.5C119.6,193,119.4,193,119.2,193z"/><path class="st0" d="M132.4,179c0-0.5,0.4-0.9,0.9-0.9s0.9,0.4,0.9,0.9s-0.4,0.9-0.9,0.9S132.4,179.5,132.4,179z M132.7,181.6h1.3 v8.4h-1.3V181.6z"/><path class="st0" d="M136.7,181.6h1.3v1.3h0.1c0.4-0.9,1.2-1.5,2.5-1.5c1.9,0,2.9,1.1,2.9,3.1v5.5h-1.3v-5.1c0-1.5-0.6-2.2-2-2.2 s-2.2,0.9-2.2,2.4v5h-1.3V181.6z"/><path class="st0" d="M146.6,182.7h-1.4v-1.1h1.4v-0.9c0-1.7,0.8-2.5,2.4-2.5c0.3,0,0.6,0,0.9,0.1v1.1c-0.2,0-0.4,0-0.6,0 c-1,0-1.4,0.5-1.4,1.4v0.9h1.9v1.1h-1.9v7.3h-1.3V182.7z"/><path class="st0" d="M151.8,181.6h1.3v1.2h0.1c0.2-0.8,1.2-1.4,2.3-1.4c0.2,0,0.5,0,0.7,0v1.3c-0.1,0-0.6-0.1-0.9-0.1 c-1.3,0-2.2,0.9-2.2,2v5.2h-1.3V181.6z"/><path class="st0" d="M157.5,187.6c0-1.5,1.1-2.4,3.1-2.5l2.4-0.1v-0.8c0-1-0.6-1.6-1.9-1.6c-1,0-1.7,0.4-1.9,1h-1.4 c0.2-1.4,1.5-2.2,3.3-2.2c2.1,0,3.2,1.1,3.2,2.8v5.8h-1.3v-1.2H163c-0.5,0.9-1.5,1.4-2.6,1.4C158.7,190.1,157.5,189.2,157.5,187.6z M163,186.8v-0.8l-2.3,0.1c-1.3,0.1-1.8,0.5-1.8,1.4c0,0.9,0.7,1.4,1.7,1.4C162,188.9,163,188,163,186.8z"/><path class="st0" d="M169.8,181.4c1.8,0,3,0.9,3.2,2.3h-1.3c-0.2-0.7-0.8-1.1-1.9-1.1c-1,0-1.8,0.5-1.8,1.3c0,0.6,0.5,0.9,1.5,1.2 l1.3,0.3c1.6,0.4,2.4,1.1,2.4,2.3c0,1.5-1.5,2.5-3.4,2.5c-1.9,0-3.2-0.9-3.3-2.3h1.4c0.2,0.7,0.9,1.2,2,1.2c1.1,0,1.9-0.5,1.9-1.3 c0-0.6-0.4-1-1.3-1.2l-1.4-0.4c-1.6-0.4-2.3-1.1-2.3-2.3C166.7,182.5,168.1,181.4,169.8,181.4z"/><path class="st0" d="M177.3,179.4v2.2h1.9v1.1h-1.9v4.8c0,1,0.4,1.4,1.2,1.4c0.2,0,0.4,0,0.6,0v1.1c-0.3,0-0.5,0.1-0.8,0.1 c-1.7,0-2.4-0.6-2.4-2.2v-5.1h-1.4v-1.1h1.4v-2.2H177.3z"/><path class="st0" d="M181.2,181.6h1.3v1.2h0.1c0.2-0.8,1.2-1.4,2.3-1.4c0.2,0,0.5,0,0.7,0v1.3c-0.1,0-0.6-0.1-0.9-0.1 c-1.3,0-2.2,0.9-2.2,2v5.2h-1.3V181.6z"/><path class="st0" d="M194.3,190H193v-1.3h-0.1c-0.4,0.9-1.3,1.5-2.6,1.5c-1.9,0-2.9-1.1-2.9-3.1v-5.5h1.3v5.1 c0,1.5,0.6,2.2,1.9,2.2c1.5,0,2.3-0.9,2.3-2.4v-5h1.3V190z"/><path class="st0" d="M202.5,184.1c-0.2-0.8-1-1.5-2.2-1.5c-1.5,0-2.5,1.2-2.5,3.1c0,1.9,1,3.2,2.5,3.2c1.1,0,1.9-0.5,2.2-1.5h1.4 c-0.2,1.5-1.5,2.7-3.5,2.7c-2.4,0-3.9-1.7-3.9-4.4c0-2.6,1.5-4.3,3.9-4.3c2,0,3.3,1.2,3.5,2.7H202.5z"/><path class="st0" d="M207.9,179.4v2.2h1.9v1.1h-1.9v4.8c0,1,0.4,1.4,1.2,1.4c0.2,0,0.4,0,0.6,0v1.1c-0.3,0-0.5,0.1-0.8,0.1 c-1.7,0-2.4-0.6-2.4-2.2v-5.1h-1.4v-1.1h1.4v-2.2H207.9z"/><path class="st0" d="M218.6,190h-1.3v-1.3h-0.1c-0.4,0.9-1.3,1.5-2.6,1.5c-1.9,0-2.9-1.1-2.9-3.1v-5.5h1.3v5.1 c0,1.5,0.6,2.2,1.9,2.2c1.5,0,2.3-0.9,2.3-2.4v-5h1.3V190z"/><path class="st0" d="M221.2,181.6h1.3v1.2h0.1c0.2-0.8,1.2-1.4,2.3-1.4c0.2,0,0.5,0,0.7,0v1.3c-0.1,0-0.6-0.1-0.9-0.1 c-1.3,0-2.2,0.9-2.2,2v5.2h-1.3V181.6z"/><path class="st0" d="M234.3,187.8c-0.4,1.4-1.7,2.3-3.5,2.3c-2.3,0-3.8-1.7-3.8-4.4c0-2.6,1.5-4.4,3.8-4.4c2.3,0,3.7,1.6,3.7,4.2 v0.5h-6.1v0.1c0.1,1.7,1,2.7,2.4,2.7c1.1,0,1.8-0.4,2.2-1.1H234.3z M228.3,185.1h4.6c0-1.5-0.9-2.5-2.3-2.5 C229.3,182.6,228.4,183.6,228.3,185.1z"/><path class="st0" d="M236.1,192.8l0.7-4.4h1.5l-1.2,4.4H236.1z"/><path class="st0" d="M245.4,187.6c0-1.5,1.1-2.4,3.1-2.5l2.4-0.1v-0.8c0-1-0.6-1.6-1.9-1.6c-1,0-1.7,0.4-1.9,1h-1.4 c0.2-1.4,1.5-2.2,3.3-2.2c2.1,0,3.2,1.1,3.2,2.8v5.8H251v-1.2h-0.1c-0.5,0.9-1.5,1.4-2.6,1.4C246.6,190.1,245.4,189.2,245.4,187.6z M250.9,186.8v-0.8l-2.3,0.1c-1.3,0.1-1.8,0.5-1.8,1.4c0,0.9,0.7,1.4,1.7,1.4C249.9,188.9,250.9,188,250.9,186.8z"/><path class="st0" d="M254.8,181.6h1.3v1.3h0.1c0.4-0.9,1.2-1.5,2.5-1.5c1.9,0,2.9,1.1,2.9,3.1v5.5h-1.3v-5.1c0-1.5-0.6-2.2-2-2.2 s-2.2,0.9-2.2,2.4v5h-1.3V181.6z"/><path class="st0" d="M264,193v-1.1c0.2,0,0.4,0,0.6,0c0.8,0,1.2-0.4,1.5-1.4l0.2-0.5l-3.1-8.4h1.5l2.3,6.9h0.1l2.3-6.9h1.4 l-3.3,8.9c-0.7,2-1.4,2.5-2.9,2.5C264.5,193,264.2,193,264,193z"/><path class="st0" d="M283.1,184.1c-0.2-0.8-1-1.5-2.2-1.5c-1.5,0-2.5,1.2-2.5,3.1c0,1.9,1,3.2,2.5,3.2c1.1,0,1.9-0.5,2.2-1.5h1.4 c-0.2,1.5-1.5,2.7-3.5,2.7c-2.4,0-3.9-1.7-3.9-4.4c0-2.6,1.5-4.3,3.9-4.3c2,0,3.3,1.2,3.5,2.7H283.1z"/><path class="st0" d="M286.6,178.2h1.3V190h-1.3V178.2z"/><path class="st0" d="M290.2,185.8c0-2.7,1.5-4.4,3.9-4.4s3.9,1.6,3.9,4.4c0,2.7-1.5,4.4-3.9,4.4S290.2,188.5,290.2,185.8z M296.6,185.8c0-2-0.9-3.1-2.5-3.1s-2.5,1.1-2.5,3.1c0,2,0.9,3.1,2.5,3.1S296.6,187.8,296.6,185.8z"/><path class="st0" d="M307,190h-1.3v-1.3h-0.1c-0.4,0.9-1.3,1.5-2.6,1.5c-1.9,0-2.9-1.1-2.9-3.1v-5.5h1.3v5.1c0,1.5,0.6,2.2,1.9,2.2 c1.5,0,2.3-0.9,2.3-2.4v-5h1.3V190z"/><path class="st0" d="M309.2,185.8c0-2.6,1.4-4.4,3.5-4.4c1.2,0,2.2,0.6,2.6,1.5h0.1v-4.7h1.3V190h-1.3v-1.3h-0.1 c-0.5,0.9-1.5,1.5-2.7,1.5C310.6,190.1,309.2,188.4,309.2,185.8z M310.6,185.8c0,2,0.9,3.1,2.5,3.1c1.5,0,2.5-1.2,2.5-3.1 c0-1.9-1-3.1-2.5-3.1C311.5,182.6,310.6,183.8,310.6,185.8z"/><path class="st0" d="M11.6,229v-10.4H7.8v-2.3h10.3v2.3h-3.8V229H11.6z"/><path class="st0" d="M18.8,219.3h2.5v1.5h0.2c0.3-1,1.3-1.7,2.5-1.7c0.4,0,0.8,0,1,0.1v2.3c-0.2-0.1-0.8-0.2-1.2-0.2 c-1.4,0-2.4,0.8-2.4,2.2v5.4h-2.6V219.3z"/><path class="st0" d="M35.5,229h-2.5v-1.6h-0.2c-0.5,1.1-1.4,1.8-2.8,1.8c-2.1,0-3.4-1.3-3.4-3.6v-6.3h2.6v5.7c0,1.3,0.6,2,1.8,2 c1.3,0,2-0.8,2-2.1v-5.6h2.6V229z"/><path class="st0" d="M42,219.1c2.5,0,3.9,1,4.1,2.9h-2.4c-0.1-0.6-0.7-1-1.7-1c-0.9,0-1.6,0.4-1.6,1c0,0.5,0.4,0.8,1.3,1l1.8,0.4 c1.9,0.4,2.7,1.2,2.7,2.7c0,1.9-1.7,3.2-4.3,3.2c-2.6,0-4.1-1-4.3-2.9h2.5c0.2,0.7,0.8,1,1.8,1c1,0,1.7-0.4,1.7-1 c0-0.5-0.4-0.8-1.2-0.9l-1.8-0.4c-1.9-0.4-2.8-1.3-2.8-2.8C38,220.3,39.6,219.1,42,219.1z"/><path class="st0" d="M51.8,217v2.4h2v2h-2v4.4c0,0.8,0.4,1.2,1.3,1.2c0.3,0,0.5,0,0.8,0v2c-0.3,0.1-0.8,0.1-1.3,0.1 c-2.4,0-3.3-0.8-3.3-2.7v-5h-1.5v-2h1.5V217H51.8z"/><path class="st0" d="M15.3,253H8.5v-11.3h1.4v10h5.4V253z"/><path class="st0" d="M16.8,248.8c0-2.7,1.5-4.4,3.9-4.4s3.9,1.6,3.9,4.4c0,2.7-1.5,4.4-3.9,4.4S16.8,251.5,16.8,248.8z M23.2,248.8 c0-2-0.9-3.1-2.5-3.1s-2.5,1.1-2.5,3.1c0,2,0.9,3.1,2.5,3.1S23.2,250.8,23.2,248.8z"/><path class="st0" d="M32.5,247.1c-0.2-0.8-1-1.5-2.2-1.5c-1.5,0-2.5,1.2-2.5,3.1c0,1.9,1,3.2,2.5,3.2c1.1,0,1.9-0.5,2.2-1.5h1.4 c-0.2,1.5-1.5,2.7-3.5,2.7c-2.4,0-3.9-1.7-3.9-4.4c0-2.6,1.5-4.3,3.9-4.3c2,0,3.3,1.2,3.5,2.7H32.5z"/><path class="st0" d="M35.5,250.6c0-1.5,1.1-2.4,3.1-2.5L41,248v-0.8c0-1-0.6-1.6-1.9-1.6c-1,0-1.7,0.4-1.9,1h-1.4 c0.2-1.4,1.5-2.2,3.3-2.2c2.1,0,3.2,1.1,3.2,2.8v5.8h-1.3v-1.2H41c-0.5,0.9-1.5,1.4-2.6,1.4C36.7,253.1,35.5,252.2,35.5,250.6z M41,249.8v-0.8l-2.3,0.1c-1.3,0.1-1.8,0.5-1.8,1.4c0,0.9,0.7,1.4,1.7,1.4C40,251.9,41,251,41,249.8z"/><path class="st0" d="M45,241.2h1.3V253H45V241.2z"/><path class="st0" d="M61.4,248.8c0,2.6-1.4,4.4-3.5,4.4c-1.2,0-2.2-0.5-2.6-1.4h-0.1v4.1h-1.3v-11.2h1.3v1.4h0.1 c0.5-1,1.5-1.6,2.7-1.6C60.1,244.4,61.4,246.1,61.4,248.8z M60.1,248.8c0-2-0.9-3.1-2.5-3.1c-1.5,0-2.5,1.2-2.5,3.1 c0,1.9,1,3.1,2.5,3.1C59.1,251.9,60.1,250.7,60.1,248.8z"/><path class="st0" d="M63.7,244.6H65v1.2h0.1c0.2-0.8,1.2-1.4,2.3-1.4c0.2,0,0.5,0,0.7,0v1.3c-0.1,0-0.6-0.1-0.9-0.1 c-1.3,0-2.2,0.9-2.2,2v5.2h-1.3V244.6z"/><path class="st0" d="M76.7,250.8c-0.4,1.4-1.7,2.3-3.5,2.3c-2.3,0-3.8-1.7-3.8-4.4c0-2.6,1.5-4.4,3.8-4.4c2.3,0,3.7,1.6,3.7,4.2 v0.5h-6.1v0.1c0.1,1.7,1,2.7,2.4,2.7c1.1,0,1.8-0.4,2.2-1.1H76.7z M70.8,248.1h4.6c0-1.5-0.9-2.5-2.3-2.5 C71.8,245.6,70.9,246.6,70.8,248.1z"/><path class="st0" d="M81.9,244.4c1.8,0,3,0.9,3.2,2.3h-1.3c-0.2-0.7-0.8-1.1-1.9-1.1c-1,0-1.8,0.5-1.8,1.3c0,0.6,0.5,0.9,1.5,1.2 l1.3,0.3c1.6,0.4,2.4,1.1,2.4,2.3c0,1.5-1.5,2.5-3.4,2.5c-1.9,0-3.2-0.9-3.3-2.3H80c0.2,0.7,0.9,1.2,2,1.2c1.1,0,1.9-0.5,1.9-1.3 c0-0.6-0.4-1-1.3-1.2l-1.4-0.4c-1.6-0.4-2.3-1.1-2.3-2.3C78.8,245.5,80.1,244.4,81.9,244.4z"/><path class="st0" d="M94.4,250.8c-0.4,1.4-1.7,2.3-3.5,2.3c-2.3,0-3.8-1.7-3.8-4.4c0-2.6,1.5-4.4,3.8-4.4c2.3,0,3.7,1.6,3.7,4.2 v0.5h-6.1v0.1c0.1,1.7,1,2.7,2.4,2.7c1.1,0,1.8-0.4,2.2-1.1H94.4z M88.4,248.1h4.6c0-1.5-0.9-2.5-2.3-2.5 C89.5,245.6,88.5,246.6,88.4,248.1z"/><path class="st0" d="M96.7,244.6H98v1.3h0.1c0.4-0.9,1.2-1.5,2.5-1.5c1.9,0,2.9,1.1,2.9,3.1v5.5h-1.3v-5.1c0-1.5-0.6-2.2-2-2.2 S98,246.5,98,248v5h-1.3V244.6z"/><path class="st0" d="M111.8,247.1c-0.2-0.8-1-1.5-2.2-1.5c-1.5,0-2.5,1.2-2.5,3.1c0,1.9,1,3.2,2.5,3.2c1.1,0,1.9-0.5,2.2-1.5h1.4 c-0.2,1.5-1.5,2.7-3.5,2.7c-2.4,0-3.9-1.7-3.9-4.4c0-2.6,1.5-4.3,3.9-4.3c2,0,3.3,1.2,3.5,2.7H111.8z"/><path class="st0" d="M122.1,250.8c-0.4,1.4-1.7,2.3-3.5,2.3c-2.3,0-3.8-1.7-3.8-4.4c0-2.6,1.5-4.4,3.8-4.4c2.3,0,3.7,1.6,3.7,4.2 v0.5h-6.1v0.1c0.1,1.7,1,2.7,2.4,2.7c1.1,0,1.8-0.4,2.2-1.1H122.1z M116.2,248.1h4.6c0-1.5-0.9-2.5-2.3-2.5 C117.2,245.6,116.3,246.6,116.2,248.1z"/><path class="st0" d="M124,255.8l0.7-4.4h1.5l-1.2,4.4H124z"/><path class="st0" d="M139,244.6h1.6l-3.6,3.6l3.9,4.8h-1.7L136,249l-0.8,0.8v3.2h-1.3v-11.8h1.3v7h0.1L139,244.6z"/><path class="st0" d="M142.6,244.6h1.3v1.3h0.1c0.4-0.9,1.2-1.5,2.5-1.5c1.9,0,2.9,1.1,2.9,3.1v5.5h-1.3v-5.1c0-1.5-0.6-2.2-2-2.2 s-2.2,0.9-2.2,2.4v5h-1.3V244.6z"/><path class="st0" d="M151.7,248.8c0-2.7,1.5-4.4,3.9-4.4s3.9,1.6,3.9,4.4c0,2.7-1.5,4.4-3.9,4.4S151.7,251.5,151.7,248.8z M158.1,248.8c0-2-0.9-3.1-2.5-3.1s-2.5,1.1-2.5,3.1c0,2,0.9,3.1,2.5,3.1S158.1,250.8,158.1,248.8z"/><path class="st0" d="M169.6,253h-1.4l-1.9-6.5h-0.1l-1.9,6.5H163l-2.4-8.4h1.4l1.7,6.7h0.1l1.9-6.7h1.3l1.9,6.7h0.1l1.7-6.7h1.4 L169.6,253z"/><path class="st0" d="M173.9,244.6h1.3v1.3h0.1c0.4-0.9,1.2-1.5,2.5-1.5c1.9,0,2.9,1.1,2.9,3.1v5.5h-1.3v-5.1c0-1.5-0.6-2.2-2-2.2 s-2.2,0.9-2.2,2.4v5h-1.3V244.6z"/><path class="st0" d="M188.1,241.2h1.3V253h-1.3V241.2z"/><path class="st0" d="M191.7,248.8c0-2.7,1.5-4.4,3.9-4.4s3.9,1.6,3.9,4.4c0,2.7-1.5,4.4-3.9,4.4S191.7,251.5,191.7,248.8z M198.1,248.8c0-2-0.9-3.1-2.5-3.1s-2.5,1.1-2.5,3.1c0,2,0.9,3.1,2.5,3.1S198.1,250.8,198.1,248.8z"/><path class="st0" d="M207.4,247.1c-0.2-0.8-1-1.5-2.2-1.5c-1.5,0-2.5,1.2-2.5,3.1c0,1.9,1,3.2,2.5,3.2c1.1,0,1.9-0.5,2.2-1.5h1.4 c-0.2,1.5-1.5,2.7-3.5,2.7c-2.4,0-3.9-1.7-3.9-4.4c0-2.6,1.5-4.3,3.9-4.3c2,0,3.3,1.2,3.5,2.7H207.4z"/><path class="st0" d="M210.4,250.6c0-1.5,1.1-2.4,3.1-2.5l2.4-0.1v-0.8c0-1-0.6-1.6-1.9-1.6c-1,0-1.7,0.4-1.9,1h-1.4 c0.2-1.4,1.5-2.2,3.3-2.2c2.1,0,3.2,1.1,3.2,2.8v5.8H216v-1.2h-0.1c-0.5,0.9-1.5,1.4-2.6,1.4C211.6,253.1,210.4,252.2,210.4,250.6z M215.9,249.8v-0.8l-2.3,0.1c-1.3,0.1-1.8,0.5-1.8,1.4c0,0.9,0.7,1.4,1.7,1.4C214.9,251.9,215.9,251,215.9,249.8z"/><path class="st0" d="M221.7,242.4v2.2h1.9v1.1h-1.9v4.8c0,1,0.4,1.4,1.2,1.4c0.2,0,0.4,0,0.6,0v1.1c-0.3,0-0.5,0.1-0.8,0.1 c-1.7,0-2.4-0.6-2.4-2.2v-5.1H219v-1.1h1.4v-2.2H221.7z"/><path class="st0" d="M225.3,242c0-0.5,0.4-0.9,0.9-0.9s0.9,0.4,0.9,0.9s-0.4,0.9-0.9,0.9S225.3,242.5,225.3,242z M225.5,244.6h1.3 v8.4h-1.3V244.6z"/><path class="st0" d="M229.1,248.8c0-2.7,1.5-4.4,3.9-4.4s3.9,1.6,3.9,4.4c0,2.7-1.5,4.4-3.9,4.4S229.1,251.5,229.1,248.8z M235.5,248.8c0-2-0.9-3.1-2.5-3.1s-2.5,1.1-2.5,3.1c0,2,0.9,3.1,2.5,3.1S235.5,250.8,235.5,248.8z"/><path class="st0" d="M239.1,244.6h1.3v1.3h0.1c0.4-0.9,1.2-1.5,2.5-1.5c1.9,0,2.9,1.1,2.9,3.1v5.5h-1.3v-5.1c0-1.5-0.6-2.2-2-2.2 s-2.2,0.9-2.2,2.4v5h-1.3V244.6z"/><path class="st0" d="M251.4,244.4c1.8,0,3,0.9,3.2,2.3h-1.3c-0.2-0.7-0.8-1.1-1.9-1.1c-1,0-1.8,0.5-1.8,1.3c0,0.6,0.5,0.9,1.5,1.2 l1.3,0.3c1.6,0.4,2.4,1.1,2.4,2.3c0,1.5-1.5,2.5-3.4,2.5c-1.9,0-3.2-0.9-3.3-2.3h1.4c0.2,0.7,0.9,1.2,2,1.2c1.1,0,1.9-0.5,1.9-1.3 c0-0.6-0.4-1-1.3-1.2l-1.4-0.4c-1.6-0.4-2.3-1.1-2.3-2.3C248.2,245.5,249.6,244.4,251.4,244.4z"/><path class="st0" d="M256.6,255.8l0.7-4.4h1.5l-1.2,4.4H256.6z"/><path class="st0" d="M266.9,245.7h-1.4v-1.1h1.4v-0.9c0-1.7,0.8-2.5,2.4-2.5c0.3,0,0.6,0,0.9,0.1v1.1c-0.2,0-0.4,0-0.6,0 c-1,0-1.4,0.5-1.4,1.4v0.9h1.9v1.1h-1.9v7.3h-1.3V245.7z"/><path class="st0" d="M278.9,250.8c-0.4,1.4-1.7,2.3-3.5,2.3c-2.3,0-3.8-1.7-3.8-4.4c0-2.6,1.5-4.4,3.8-4.4c2.3,0,3.7,1.6,3.7,4.2 v0.5h-6.1v0.1c0.1,1.7,1,2.7,2.4,2.7c1.1,0,1.8-0.4,2.2-1.1H278.9z M272.9,248.1h4.6c0-1.5-0.9-2.5-2.3-2.5 C273.9,245.6,273,246.6,272.9,248.1z"/><path class="st0" d="M280.8,248.8c0-2.6,1.4-4.4,3.5-4.4c1.2,0,2.2,0.6,2.6,1.5h0.1v-4.7h1.3V253h-1.3v-1.3H287 c-0.5,0.9-1.5,1.5-2.7,1.5C282.2,253.1,280.8,251.4,280.8,248.8z M282.2,248.8c0,2,0.9,3.1,2.5,3.1c1.5,0,2.5-1.2,2.5-3.1 c0-1.9-1-3.1-2.5-3.1C283.1,245.6,282.2,246.8,282.2,248.8z"/><path class="st0" d="M298,250.8c-0.4,1.4-1.7,2.3-3.5,2.3c-2.3,0-3.8-1.7-3.8-4.4c0-2.6,1.5-4.4,3.8-4.4c2.3,0,3.7,1.6,3.7,4.2v0.5 h-6.1v0.1c0.1,1.7,1,2.7,2.4,2.7c1.1,0,1.8-0.4,2.2-1.1H298z M292.1,248.1h4.6c0-1.5-0.9-2.5-2.3-2.5 C293.1,245.6,292.2,246.6,292.1,248.1z"/><path class="st0" d="M300.4,244.6h1.3v1.2h0.1c0.2-0.8,1.2-1.4,2.3-1.4c0.2,0,0.5,0,0.7,0v1.3c-0.1,0-0.6-0.1-0.9-0.1 c-1.3,0-2.2,0.9-2.2,2v5.2h-1.3V244.6z"/><path class="st0" d="M306.1,250.6c0-1.5,1.1-2.4,3.1-2.5l2.4-0.1v-0.8c0-1-0.6-1.6-1.9-1.6c-1,0-1.7,0.4-1.9,1h-1.4 c0.2-1.4,1.5-2.2,3.3-2.2c2.1,0,3.2,1.1,3.2,2.8v5.8h-1.3v-1.2h-0.1c-0.5,0.9-1.5,1.4-2.6,1.4C307.3,253.1,306.1,252.2,306.1,250.6 z M311.6,249.8v-0.8l-2.3,0.1c-1.3,0.1-1.8,0.5-1.8,1.4c0,0.9,0.7,1.4,1.7,1.4C310.6,251.9,311.6,251,311.6,249.8z"/><path class="st0" d="M317.3,242.4v2.2h1.9v1.1h-1.9v4.8c0,1,0.4,1.4,1.2,1.4c0.2,0,0.4,0,0.6,0v1.1c-0.3,0-0.5,0.1-0.8,0.1 c-1.7,0-2.4-0.6-2.4-2.2v-5.1h-1.4v-1.1h1.4v-2.2H317.3z"/><path class="st0" d="M328,250.8c-0.4,1.4-1.7,2.3-3.5,2.3c-2.3,0-3.8-1.7-3.8-4.4c0-2.6,1.5-4.4,3.8-4.4c2.3,0,3.7,1.6,3.7,4.2v0.5 H322v0.1c0.1,1.7,1,2.7,2.4,2.7c1.1,0,1.8-0.4,2.2-1.1H328z M322,248.1h4.6c0-1.5-0.9-2.5-2.3-2.5 C323.1,245.6,322.1,246.6,322,248.1z"/><path class="st0" d="M329.9,248.8c0-2.6,1.4-4.4,3.5-4.4c1.2,0,2.2,0.6,2.6,1.5h0.1v-4.7h1.3V253h-1.3v-1.3h-0.1 c-0.5,0.9-1.5,1.5-2.7,1.5C331.3,253.1,329.9,251.4,329.9,248.8z M331.3,248.8c0,2,0.9,3.1,2.5,3.1c1.5,0,2.5-1.2,2.5-3.1 c0-1.9-1-3.1-2.5-3.1C332.2,245.6,331.3,246.8,331.3,248.8z"/><path class="st0" d="M13.9,271.1c-0.2-0.8-1-1.5-2.2-1.5c-1.5,0-2.5,1.2-2.5,3.1c0,1.9,1,3.2,2.5,3.2c1.1,0,1.9-0.5,2.2-1.5h1.4 c-0.2,1.5-1.5,2.7-3.5,2.7c-2.4,0-3.9-1.7-3.9-4.4c0-2.6,1.5-4.3,3.9-4.3c2,0,3.3,1.2,3.5,2.7H13.9z"/><path class="st0" d="M17,272.8c0-2.7,1.5-4.4,3.9-4.4s3.9,1.6,3.9,4.4c0,2.7-1.5,4.4-3.9,4.4S17,275.5,17,272.8z M23.3,272.8 c0-2-0.9-3.1-2.5-3.1s-2.5,1.1-2.5,3.1c0,2,0.9,3.1,2.5,3.1S23.3,274.8,23.3,272.8z"/><path class="st0" d="M26.9,268.6h1.3v1.3h0.1c0.4-0.9,1.2-1.5,2.5-1.5c1.9,0,2.9,1.1,2.9,3.1v5.5h-1.3v-5.1c0-1.5-0.6-2.2-2-2.2 s-2.2,0.9-2.2,2.4v5h-1.3V268.6z"/><path class="st0" d="M38.2,266.4v2.2H40v1.1h-1.9v4.8c0,1,0.4,1.4,1.2,1.4c0.2,0,0.4,0,0.6,0v1.1c-0.3,0-0.5,0.1-0.8,0.1 c-1.7,0-2.4-0.6-2.4-2.2v-5.1h-1.4v-1.1h1.4v-2.2H38.2z"/><path class="st0" d="M42,268.6h1.3v1.2h0.1c0.2-0.8,1.2-1.4,2.3-1.4c0.2,0,0.5,0,0.7,0v1.3c-0.1,0-0.6-0.1-0.9-0.1 c-1.3,0-2.2,0.9-2.2,2v5.2H42V268.6z"/><path class="st0" d="M47.7,272.8c0-2.7,1.5-4.4,3.9-4.4s3.9,1.6,3.9,4.4c0,2.7-1.5,4.4-3.9,4.4S47.7,275.5,47.7,272.8z M54.1,272.8 c0-2-0.9-3.1-2.5-3.1s-2.5,1.1-2.5,3.1c0,2,0.9,3.1,2.5,3.1S54.1,274.8,54.1,272.8z"/><path class="st0" d="M57.8,265.2h1.3V277h-1.3V265.2z"/><path class="st0" d="M66,274.6c0-1.5,1.1-2.4,3.1-2.5l2.4-0.1v-0.8c0-1-0.6-1.6-1.9-1.6c-1,0-1.7,0.4-1.9,1h-1.4 c0.2-1.4,1.5-2.2,3.3-2.2c2.1,0,3.2,1.1,3.2,2.8v5.8h-1.3v-1.2h-0.1c-0.5,0.9-1.5,1.4-2.6,1.4C67.3,277.1,66,276.2,66,274.6z M71.5,273.8v-0.8l-2.3,0.1c-1.3,0.1-1.8,0.5-1.8,1.4c0,0.9,0.7,1.4,1.7,1.4C70.5,275.9,71.5,275,71.5,273.8z"/><path class="st0" d="M75.5,268.6h1.3v1.3h0.1c0.4-0.9,1.2-1.5,2.5-1.5c1.9,0,2.9,1.1,2.9,3.1v5.5H81v-5.1c0-1.5-0.6-2.2-2-2.2 s-2.2,0.9-2.2,2.4v5h-1.3V268.6z"/><path class="st0" d="M84.5,272.8c0-2.6,1.4-4.4,3.5-4.4c1.2,0,2.2,0.6,2.6,1.5h0.1v-4.7h1.3V277h-1.3v-1.3h-0.1 c-0.5,0.9-1.5,1.5-2.7,1.5C85.9,277.1,84.5,275.4,84.5,272.8z M85.9,272.8c0,2,0.9,3.1,2.5,3.1c1.5,0,2.5-1.2,2.5-3.1 c0-1.9-1-3.1-2.5-3.1C86.8,269.6,85.9,270.8,85.9,272.8z"/><path class="st0" d="M99.2,272.8c0-2.6,1.4-4.4,3.5-4.4c1.2,0,2.2,0.6,2.6,1.5h0.1v-4.7h1.3V277h-1.3v-1.3h-0.1 c-0.5,0.9-1.5,1.5-2.7,1.5C100.6,277.1,99.2,275.4,99.2,272.8z M100.6,272.8c0,2,0.9,3.1,2.5,3.1c1.5,0,2.5-1.2,2.5-3.1 c0-1.9-1-3.1-2.5-3.1C101.5,269.6,100.6,270.8,100.6,272.8z"/><path class="st0" d="M109,274.6c0-1.5,1.1-2.4,3.1-2.5l2.4-0.1v-0.8c0-1-0.6-1.6-1.9-1.6c-1,0-1.7,0.4-1.9,1h-1.4 c0.2-1.4,1.5-2.2,3.3-2.2c2.1,0,3.2,1.1,3.2,2.8v5.8h-1.3v-1.2h-0.1c-0.5,0.9-1.5,1.4-2.6,1.4C110.2,277.1,109,276.2,109,274.6z M114.5,273.8v-0.8l-2.3,0.1c-1.3,0.1-1.8,0.5-1.8,1.4c0,0.9,0.7,1.4,1.7,1.4C113.5,275.9,114.5,275,114.5,273.8z"/><path class="st0" d="M120.2,266.4v2.2h1.9v1.1h-1.9v4.8c0,1,0.4,1.4,1.2,1.4c0.2,0,0.4,0,0.6,0v1.1c-0.3,0-0.5,0.1-0.8,0.1 c-1.7,0-2.4-0.6-2.4-2.2v-5.1h-1.4v-1.1h1.4v-2.2H120.2z"/><path class="st0" d="M123.8,274.6c0-1.5,1.1-2.4,3.1-2.5l2.4-0.1v-0.8c0-1-0.6-1.6-1.9-1.6c-1,0-1.7,0.4-1.9,1h-1.4 c0.2-1.4,1.5-2.2,3.3-2.2c2.1,0,3.2,1.1,3.2,2.8v5.8h-1.3v-1.2h-0.1c-0.5,0.9-1.5,1.4-2.6,1.4C125,277.1,123.8,276.2,123.8,274.6z M129.3,273.8v-0.8l-2.3,0.1c-1.3,0.1-1.8,0.5-1.8,1.4c0,0.9,0.7,1.4,1.7,1.4C128.2,275.9,129.3,275,129.3,273.8z"/><path class="st0" d="M8,309.6c0-4.1,2.3-6.7,6-6.7c3,0,5.3,2,5.5,4.8h-2.6c-0.3-1.5-1.4-2.4-2.9-2.4c-2,0-3.2,1.7-3.2,4.3 S12,314,14,314c1.5,0,2.7-0.9,2.9-2.3h2.6c-0.2,2.7-2.5,4.6-5.5,4.6C10.3,316.3,8,313.8,8,309.6z"/><path class="st0" d="M21.3,311.1c0-3.1,1.8-5.1,4.8-5.1s4.8,1.9,4.8,5.1c0,3.2-1.8,5.1-4.8,5.1S21.3,314.3,21.3,311.1z M28.3,311.1 c0-1.9-0.8-3-2.1-3c-1.4,0-2.1,1.1-2.1,3c0,1.9,0.8,3,2.1,3C27.5,314.1,28.3,313,28.3,311.1z"/><path class="st0" d="M33.1,306.3h2.5v1.6h0.2c0.4-1.1,1.4-1.8,2.9-1.8c2.2,0,3.3,1.3,3.3,3.6v6.3h-2.6v-5.7c0-1.3-0.6-2-1.8-2 c-1.2,0-1.9,0.8-1.9,2.1v5.6h-2.6V306.3z"/><path class="st0" d="M47.8,304v2.4h2v2h-2v4.4c0,0.8,0.4,1.2,1.3,1.2c0.3,0,0.5,0,0.8,0v2c-0.3,0.1-0.8,0.1-1.3,0.1 c-2.4,0-3.3-0.8-3.3-2.7v-5h-1.5v-2h1.5V304H47.8z"/><path class="st0" d="M52,306.3h2.5v1.5h0.2c0.3-1,1.3-1.7,2.5-1.7c0.4,0,0.8,0,1,0.1v2.3c-0.2-0.1-0.8-0.2-1.2-0.2 c-1.4,0-2.4,0.8-2.4,2.2v5.4H52V306.3z"/><path class="st0" d="M59.5,311.1c0-3.1,1.8-5.1,4.8-5.1s4.8,1.9,4.8,5.1c0,3.2-1.8,5.1-4.8,5.1S59.5,314.3,59.5,311.1z M66.4,311.1 c0-1.9-0.8-3-2.1-3c-1.4,0-2.1,1.1-2.1,3c0,1.9,0.8,3,2.1,3C65.6,314.1,66.4,313,66.4,311.1z"/><path class="st0" d="M71.4,302.6h2.6V316h-2.6V302.6z"/><path class="st0" d="M12.7,328.7c2.1,0,3.6,1.5,3.6,3.6c0,2.1-1.5,3.6-3.6,3.6H9.9v4H8.5v-11.3H12.7z M9.9,334.7h2.5 c1.6,0,2.5-0.9,2.5-2.4c0-1.5-0.9-2.4-2.5-2.4H9.9V334.7z"/><path class="st0" d="M18,335.8c0-2.7,1.5-4.4,3.9-4.4s3.9,1.6,3.9,4.4c0,2.7-1.5,4.4-3.9,4.4S18,338.5,18,335.8z M24.4,335.8 c0-2-0.9-3.1-2.5-3.1s-2.5,1.1-2.5,3.1c0,2,0.9,3.1,2.5,3.1S24.4,337.8,24.4,335.8z"/><path class="st0" d="M28,328.2h1.3V340H28V328.2z"/><path class="st0" d="M31.8,329c0-0.5,0.4-0.9,0.9-0.9s0.9,0.4,0.9,0.9s-0.4,0.9-0.9,0.9S31.8,329.5,31.8,329z M32.1,331.6h1.3v8.4 h-1.3V331.6z"/><path class="st0" d="M41.7,334.1c-0.2-0.8-1-1.5-2.2-1.5c-1.5,0-2.5,1.2-2.5,3.1c0,1.9,1,3.2,2.5,3.2c1.1,0,1.9-0.5,2.2-1.5H43 c-0.2,1.5-1.5,2.7-3.5,2.7c-2.4,0-3.9-1.7-3.9-4.4c0-2.6,1.5-4.3,3.9-4.3c2,0,3.3,1.2,3.5,2.7H41.7z"/><path class="st0" d="M45.1,343v-1.1c0.2,0,0.4,0,0.6,0c0.8,0,1.2-0.4,1.5-1.4l0.2-0.5l-3.1-8.4h1.5l2.3,6.9h0.1l2.3-6.9h1.4 l-3.3,8.9c-0.7,2-1.4,2.5-2.9,2.5C45.5,343,45.3,343,45.1,343z"/><path class="st0" d="M60,338.6h-0.1v1.3h-1.3v-11.8h1.3v4.7H60c0.5-0.9,1.5-1.5,2.6-1.5c2.1,0,3.5,1.7,3.5,4.4 c0,2.6-1.4,4.4-3.5,4.4C61.5,340.1,60.5,339.6,60,338.6z M59.9,335.8c0,1.9,1,3.1,2.5,3.1c1.5,0,2.5-1.2,2.5-3.1s-0.9-3.1-2.5-3.1 C60.8,332.6,59.9,333.8,59.9,335.8z"/><path class="st0" d="M67.9,337.6c0-1.5,1.1-2.4,3.1-2.5l2.4-0.1v-0.8c0-1-0.6-1.6-1.9-1.6c-1,0-1.7,0.4-1.9,1h-1.4 c0.2-1.4,1.5-2.2,3.3-2.2c2.1,0,3.2,1.1,3.2,2.8v5.8h-1.3v-1.2h-0.1c-0.5,0.9-1.5,1.4-2.6,1.4C69.1,340.1,67.9,339.2,67.9,337.6z M73.4,336.8v-0.8l-2.3,0.1c-1.3,0.1-1.8,0.5-1.8,1.4c0,0.9,0.7,1.4,1.7,1.4C72.4,338.9,73.4,338,73.4,336.8z"/><path class="st0" d="M80.3,331.4c1.8,0,3,0.9,3.2,2.3h-1.3c-0.2-0.7-0.8-1.1-1.9-1.1c-1,0-1.8,0.5-1.8,1.3c0,0.6,0.5,0.9,1.5,1.2 l1.3,0.3c1.6,0.4,2.4,1.1,2.4,2.3c0,1.5-1.5,2.5-3.4,2.5c-1.9,0-3.2-0.9-3.3-2.3h1.4c0.2,0.7,0.9,1.2,2,1.2c1.1,0,1.9-0.5,1.9-1.3 c0-0.6-0.4-1-1.3-1.2l-1.4-0.4c-1.6-0.4-2.3-1.1-2.3-2.3C77.1,332.5,78.5,331.4,80.3,331.4z"/><path class="st0" d="M92.7,337.8c-0.4,1.4-1.7,2.3-3.5,2.3c-2.3,0-3.8-1.7-3.8-4.4c0-2.6,1.5-4.4,3.8-4.4c2.3,0,3.7,1.6,3.7,4.2 v0.5h-6.1v0.1c0.1,1.7,1,2.7,2.4,2.7c1.1,0,1.8-0.4,2.2-1.1H92.7z M86.7,335.1h4.6c0-1.5-0.9-2.5-2.3-2.5 C87.8,332.6,86.8,333.6,86.7,335.1z"/><path class="st0" d="M94.6,335.8c0-2.6,1.4-4.4,3.5-4.4c1.2,0,2.2,0.6,2.6,1.5h0.1v-4.7h1.3V340H101v-1.3h-0.1 c-0.5,0.9-1.5,1.5-2.7,1.5C96,340.1,94.6,338.4,94.6,335.8z M96,335.8c0,2,0.9,3.1,2.5,3.1c1.5,0,2.5-1.2,2.5-3.1 c0-1.9-1-3.1-2.5-3.1C96.9,332.6,96,333.8,96,335.8z"/><path class="st0" d="M109.3,335.8c0-2.6,1.4-4.4,3.5-4.4c1.2,0,2.2,0.6,2.6,1.5h0.1v-4.7h1.3V340h-1.3v-1.3h-0.1 c-0.5,0.9-1.5,1.5-2.7,1.5C110.6,340.1,109.3,338.4,109.3,335.8z M110.7,335.8c0,2,0.9,3.1,2.5,3.1c1.5,0,2.5-1.2,2.5-3.1 c0-1.9-1-3.1-2.5-3.1C111.6,332.6,110.7,333.8,110.7,335.8z"/><path class="st0" d="M126.5,337.8c-0.4,1.4-1.7,2.3-3.5,2.3c-2.3,0-3.8-1.7-3.8-4.4c0-2.6,1.5-4.4,3.8-4.4c2.3,0,3.7,1.6,3.7,4.2 v0.5h-6.1v0.1c0.1,1.7,1,2.7,2.4,2.7c1.1,0,1.8-0.4,2.2-1.1H126.5z M120.6,335.1h4.6c0-1.5-0.9-2.5-2.3-2.5 C121.6,332.6,120.7,333.6,120.6,335.1z"/><path class="st0" d="M136.5,335.8c0,2.6-1.4,4.4-3.5,4.4c-1.2,0-2.2-0.5-2.6-1.4h-0.1v4.1h-1.3v-11.2h1.3v1.4h0.1 c0.5-1,1.5-1.6,2.7-1.6C135.1,331.4,136.5,333.1,136.5,335.8z M135.1,335.8c0-2-0.9-3.1-2.5-3.1c-1.5,0-2.5,1.2-2.5,3.1 c0,1.9,1,3.1,2.5,3.1C134.2,338.9,135.1,337.7,135.1,335.8z"/><path class="st0" d="M138.8,328.2h1.3V340h-1.3V328.2z"/><path class="st0" d="M142.4,335.8c0-2.7,1.5-4.4,3.9-4.4s3.9,1.6,3.9,4.4c0,2.7-1.5,4.4-3.9,4.4S142.4,338.5,142.4,335.8z M148.8,335.8c0-2-0.9-3.1-2.5-3.1s-2.5,1.1-2.5,3.1c0,2,0.9,3.1,2.5,3.1S148.8,337.8,148.8,335.8z"/><path class="st0" d="M152.2,343v-1.1c0.2,0,0.4,0,0.6,0c0.8,0,1.2-0.4,1.5-1.4l0.2-0.5l-3.1-8.4h1.5l2.3,6.9h0.1l2.3-6.9h1.4 l-3.3,8.9c-0.7,2-1.4,2.5-2.9,2.5C152.6,343,152.3,343,152.2,343z"/><path class="st0" d="M160.8,331.6h1.3v1.3h0.1c0.4-0.9,1.2-1.5,2.4-1.5c1.1,0,1.9,0.6,2.3,1.5h0.1c0.5-0.9,1.4-1.5,2.6-1.5 c1.7,0,2.7,1,2.7,2.8v5.8h-1.3v-5.5c0-1.2-0.6-1.9-1.8-1.9c-1.2,0-2,0.9-2,1.9v5.4h-1.3v-5.7c0-1-0.7-1.6-1.8-1.6c-1.1,0-2,1-2,2.1 v5.2h-1.3V331.6z"/><path class="st0" d="M181.7,337.8c-0.4,1.4-1.7,2.3-3.5,2.3c-2.3,0-3.8-1.7-3.8-4.4c0-2.6,1.5-4.4,3.8-4.4c2.3,0,3.7,1.6,3.7,4.2 v0.5h-6.1v0.1c0.1,1.7,1,2.7,2.4,2.7c1.1,0,1.8-0.4,2.2-1.1H181.7z M175.8,335.1h4.6c0-1.5-0.9-2.5-2.3-2.5 C176.8,332.6,175.9,333.6,175.8,335.1z"/><path class="st0" d="M184.1,331.6h1.3v1.3h0.1c0.4-0.9,1.2-1.5,2.5-1.5c1.9,0,2.9,1.1,2.9,3.1v5.5h-1.3v-5.1c0-1.5-0.6-2.2-2-2.2 s-2.2,0.9-2.2,2.4v5h-1.3V331.6z"/><path class="st0" d="M195.3,329.4v2.2h1.9v1.1h-1.9v4.8c0,1,0.4,1.4,1.2,1.4c0.2,0,0.4,0,0.6,0v1.1c-0.3,0-0.5,0.1-0.8,0.1 c-1.7,0-2.4-0.6-2.4-2.2v-5.1h-1.4v-1.1h1.4v-2.2H195.3z"/><path class="st0" d="M203.6,337.6c0-1.5,1.1-2.4,3.1-2.5l2.4-0.1v-0.8c0-1-0.6-1.6-1.9-1.6c-1,0-1.7,0.4-1.9,1h-1.4 c0.2-1.4,1.5-2.2,3.3-2.2c2.1,0,3.2,1.1,3.2,2.8v5.8h-1.3v-1.2H209c-0.5,0.9-1.5,1.4-2.6,1.4C204.8,340.1,203.6,339.2,203.6,337.6z M209.1,336.8v-0.8l-2.3,0.1c-1.3,0.1-1.8,0.5-1.8,1.4c0,0.9,0.7,1.4,1.7,1.4C208,338.9,209.1,338,209.1,336.8z"/><path class="st0" d="M213,331.6h1.3v1.3h0.1c0.4-0.9,1.2-1.5,2.5-1.5c1.9,0,2.9,1.1,2.9,3.1v5.5h-1.3v-5.1c0-1.5-0.6-2.2-2-2.2 s-2.2,0.9-2.2,2.4v5H213V331.6z"/><path class="st0" d="M222,335.8c0-2.6,1.4-4.4,3.5-4.4c1.2,0,2.2,0.6,2.6,1.5h0.1v-4.7h1.3V340h-1.3v-1.3h-0.1 c-0.5,0.9-1.5,1.5-2.7,1.5C223.4,340.1,222,338.4,222,335.8z M223.4,335.8c0,2,0.9,3.1,2.5,3.1c1.5,0,2.5-1.2,2.5-3.1 c0-1.9-1-3.1-2.5-3.1C224.4,332.6,223.4,333.8,223.4,335.8z"/><path class="st0" d="M8.3,355.6h1.3v1.3h0.1c0.4-0.9,1.2-1.5,2.4-1.5c1.1,0,1.9,0.6,2.3,1.5h0.1c0.5-0.9,1.4-1.5,2.6-1.5 c1.7,0,2.7,1,2.7,2.8v5.8h-1.3v-5.5c0-1.2-0.6-1.9-1.8-1.9c-1.2,0-2,0.9-2,1.9v5.4h-1.3v-5.7c0-1-0.7-1.6-1.8-1.6c-1.1,0-2,1-2,2.1 v5.2H8.3V355.6z"/><path class="st0" d="M21.8,361.6c0-1.5,1.1-2.4,3.1-2.5l2.4-0.1v-0.8c0-1-0.6-1.6-1.9-1.6c-1,0-1.7,0.4-1.9,1h-1.4 c0.2-1.4,1.5-2.2,3.3-2.2c2.1,0,3.2,1.1,3.2,2.8v5.8h-1.3v-1.2h-0.1c-0.5,0.9-1.5,1.4-2.6,1.4C23.1,364.1,21.8,363.2,21.8,361.6z M27.3,360.8v-0.8l-2.3,0.1c-1.3,0.1-1.8,0.5-1.8,1.4c0,0.9,0.7,1.4,1.7,1.4C26.3,362.9,27.3,362,27.3,360.8z"/><path class="st0" d="M31.3,355.6h1.3v1.3h0.1c0.4-0.9,1.2-1.5,2.5-1.5c1.9,0,2.9,1.1,2.9,3.1v5.5h-1.3v-5.1c0-1.5-0.6-2.2-2-2.2 s-2.2,0.9-2.2,2.4v5h-1.3V355.6z"/><path class="st0" d="M40.2,361.6c0-1.5,1.1-2.4,3.1-2.5l2.4-0.1v-0.8c0-1-0.6-1.6-1.9-1.6c-1,0-1.7,0.4-1.9,1h-1.4 c0.2-1.4,1.5-2.2,3.3-2.2c2.1,0,3.2,1.1,3.2,2.8v5.8h-1.3v-1.2h-0.1c-0.5,0.9-1.5,1.4-2.6,1.4C41.4,364.1,40.2,363.2,40.2,361.6z M45.7,360.8v-0.8l-2.3,0.1c-1.3,0.1-1.8,0.5-1.8,1.4c0,0.9,0.7,1.4,1.7,1.4C44.7,362.9,45.7,362,45.7,360.8z"/><path class="st0" d="M49.6,364.9H51c0.1,0.7,0.9,1.1,2.1,1.1c1.5,0,2.4-0.7,2.4-2v-1.7h-0.1c-0.5,0.9-1.5,1.5-2.6,1.5 c-2.2,0-3.5-1.7-3.5-4.2s1.4-4.2,3.5-4.2c1.2,0,2.2,0.6,2.7,1.5h0.1v-1.3h1.3v8.6c0,1.9-1.5,3.1-3.8,3.1 C51.1,367.2,49.8,366.3,49.6,364.9z M55.6,359.6c0-1.8-0.9-3-2.5-3c-1.6,0-2.4,1.2-2.4,3s0.9,3,2.4,3S55.6,361.5,55.6,359.6z"/><path class="st0" d="M66.4,361.8c-0.4,1.4-1.7,2.3-3.5,2.3c-2.3,0-3.8-1.7-3.8-4.4c0-2.6,1.5-4.4,3.8-4.4c2.3,0,3.7,1.6,3.7,4.2 v0.5h-6.1v0.1c0.1,1.7,1,2.7,2.4,2.7c1.1,0,1.8-0.4,2.2-1.1H66.4z M60.5,359.1h4.6c0-1.5-0.9-2.5-2.3-2.5 C61.5,356.6,60.6,357.6,60.5,359.1z"/><path class="st0" d="M68.8,355.6H70v1.3h0.1c0.4-0.9,1.2-1.5,2.4-1.5c1.1,0,1.9,0.6,2.3,1.5H75c0.5-0.9,1.4-1.5,2.6-1.5 c1.7,0,2.7,1,2.7,2.8v5.8h-1.3v-5.5c0-1.2-0.6-1.9-1.8-1.9c-1.2,0-2,0.9-2,1.9v5.4h-1.3v-5.7c0-1-0.7-1.6-1.8-1.6c-1.1,0-2,1-2,2.1 v5.2h-1.3V355.6z"/><path class="st0" d="M89.7,361.8c-0.4,1.4-1.7,2.3-3.5,2.3c-2.3,0-3.8-1.7-3.8-4.4c0-2.6,1.5-4.4,3.8-4.4c2.3,0,3.7,1.6,3.7,4.2 v0.5h-6.1v0.1c0.1,1.7,1,2.7,2.4,2.7c1.1,0,1.8-0.4,2.2-1.1H89.7z M83.8,359.1h4.6c0-1.5-0.9-2.5-2.3-2.5 C84.8,356.6,83.9,357.6,83.8,359.1z"/><path class="st0" d="M92.1,355.6h1.3v1.3h0.1c0.4-0.9,1.2-1.5,2.5-1.5c1.9,0,2.9,1.1,2.9,3.1v5.5h-1.3v-5.1c0-1.5-0.6-2.2-2-2.2 s-2.2,0.9-2.2,2.4v5h-1.3V355.6z"/><path class="st0" d="M103.3,353.4v2.2h1.9v1.1h-1.9v4.8c0,1,0.4,1.4,1.2,1.4c0.2,0,0.4,0,0.6,0v1.1c-0.3,0-0.5,0.1-0.8,0.1 c-1.7,0-2.4-0.6-2.4-2.2v-5.1h-1.4v-1.1h1.4v-2.2H103.3z"/><path class="st0" d="M120.3,364h-1.4l-1.9-6.5h-0.1L115,364h-1.4l-2.4-8.4h1.4l1.7,6.7h0.1l1.9-6.7h1.3l1.9,6.7h0.1l1.7-6.7h1.4 L120.3,364z"/><path class="st0" d="M124.3,353c0-0.5,0.4-0.9,0.9-0.9s0.9,0.4,0.9,0.9s-0.4,0.9-0.9,0.9S124.3,353.5,124.3,353z M124.5,355.6h1.3 v8.4h-1.3V355.6z"/><path class="st0" d="M130.4,353.4v2.2h1.9v1.1h-1.9v4.8c0,1,0.4,1.4,1.2,1.4c0.2,0,0.4,0,0.6,0v1.1c-0.3,0-0.5,0.1-0.8,0.1 c-1.7,0-2.4-0.6-2.4-2.2v-5.1h-1.4v-1.1h1.4v-2.2H130.4z"/><path class="st0" d="M134.3,352.2h1.3v4.7h0.1c0.4-0.9,1.3-1.5,2.6-1.5c1.8,0,2.9,1.1,2.9,3.1v5.5H140v-5.1c0-1.5-0.7-2.2-1.9-2.2 c-1.5,0-2.3,1-2.3,2.4v5h-1.3V352.2z"/><path class="st0" d="M150.5,353.4v2.2h1.9v1.1h-1.9v4.8c0,1,0.4,1.4,1.2,1.4c0.2,0,0.4,0,0.6,0v1.1c-0.3,0-0.5,0.1-0.8,0.1 c-1.7,0-2.4-0.6-2.4-2.2v-5.1h-1.4v-1.1h1.4v-2.2H150.5z"/><path class="st0" d="M154.4,355.6h1.3v1.2h0.1c0.2-0.8,1.2-1.4,2.3-1.4c0.2,0,0.5,0,0.7,0v1.3c-0.1,0-0.6-0.1-0.9-0.1 c-1.3,0-2.2,0.9-2.2,2v5.2h-1.3V355.6z"/><path class="st0" d="M160.1,361.6c0-1.5,1.1-2.4,3.1-2.5l2.4-0.1v-0.8c0-1-0.6-1.6-1.9-1.6c-1,0-1.7,0.4-1.9,1h-1.4 c0.2-1.4,1.5-2.2,3.3-2.2c2.1,0,3.2,1.1,3.2,2.8v5.8h-1.3v-1.2h-0.1c-0.5,0.9-1.5,1.4-2.6,1.4C161.3,364.1,160.1,363.2,160.1,361.6 z M165.6,360.8v-0.8l-2.3,0.1c-1.3,0.1-1.8,0.5-1.8,1.4c0,0.9,0.7,1.4,1.7,1.4C164.6,362.9,165.6,362,165.6,360.8z"/><path class="st0" d="M175.1,358.1c-0.2-0.8-1-1.5-2.2-1.5c-1.5,0-2.5,1.2-2.5,3.1c0,1.9,1,3.2,2.5,3.2c1.1,0,1.9-0.5,2.2-1.5h1.4 c-0.2,1.5-1.5,2.7-3.5,2.7c-2.4,0-3.9-1.7-3.9-4.4c0-2.6,1.5-4.3,3.9-4.3c2,0,3.3,1.2,3.5,2.7H175.1z"/><path class="st0" d="M185.5,361.8c-0.4,1.4-1.7,2.3-3.5,2.3c-2.3,0-3.8-1.7-3.8-4.4c0-2.6,1.5-4.4,3.8-4.4c2.3,0,3.7,1.6,3.7,4.2 v0.5h-6.1v0.1c0.1,1.7,1,2.7,2.4,2.7c1.1,0,1.8-0.4,2.2-1.1H185.5z M179.6,359.1h4.6c0-1.5-0.9-2.5-2.3-2.5 C180.6,356.6,179.7,357.6,179.6,359.1z"/><path class="st0" d="M187.3,361.6c0-1.5,1.1-2.4,3.1-2.5l2.4-0.1v-0.8c0-1-0.6-1.6-1.9-1.6c-1,0-1.7,0.4-1.9,1h-1.4 c0.2-1.4,1.5-2.2,3.3-2.2c2.1,0,3.2,1.1,3.2,2.8v5.8h-1.3v-1.2h-0.1c-0.5,0.9-1.5,1.4-2.6,1.4C188.6,364.1,187.3,363.2,187.3,361.6 z M192.8,360.8v-0.8l-2.3,0.1c-1.3,0.1-1.8,0.5-1.8,1.4c0,0.9,0.7,1.4,1.7,1.4C191.8,362.9,192.8,362,192.8,360.8z"/><path class="st0" d="M198.2,362.6h-0.1v1.3h-1.3v-11.8h1.3v4.7h0.1c0.5-0.9,1.5-1.5,2.6-1.5c2.1,0,3.5,1.7,3.5,4.4 c0,2.6-1.4,4.4-3.5,4.4C199.8,364.1,198.8,363.6,198.2,362.6z M198.1,359.8c0,1.9,1,3.1,2.5,3.1c1.5,0,2.5-1.2,2.5-3.1 s-0.9-3.1-2.5-3.1C199.1,356.6,198.1,357.8,198.1,359.8z"/><path class="st0" d="M206.8,352.2h1.3V364h-1.3V352.2z"/><path class="st0" d="M217.7,361.8c-0.4,1.4-1.7,2.3-3.5,2.3c-2.3,0-3.8-1.7-3.8-4.4c0-2.6,1.5-4.4,3.8-4.4c2.3,0,3.7,1.6,3.7,4.2 v0.5h-6.1v0.1c0.1,1.7,1,2.7,2.4,2.7c1.1,0,1.8-0.4,2.2-1.1H217.7z M211.8,359.1h4.6c0-1.5-0.9-2.5-2.3-2.5 C212.8,356.6,211.9,357.6,211.8,359.1z"/><path class="st0" d="M231.7,361.8c-0.4,1.4-1.7,2.3-3.5,2.3c-2.3,0-3.8-1.7-3.8-4.4c0-2.6,1.5-4.4,3.8-4.4c2.3,0,3.7,1.6,3.7,4.2 v0.5h-6.1v0.1c0.1,1.7,1,2.7,2.4,2.7c1.1,0,1.8-0.4,2.2-1.1H231.7z M225.7,359.1h4.6c0-1.5-0.9-2.5-2.3-2.5 C226.8,356.6,225.8,357.6,225.7,359.1z"/><path class="st0" d="M236.5,360.8l-2,3.2H233l2.9-4.2l-2.9-4.2h1.6l2,3.1h0.1l2-3.1h1.5l-2.9,4.2l2.9,4.3h-1.6l-2-3.2H236.5z"/><path class="st0" d="M248.7,361.8c-0.4,1.4-1.7,2.3-3.5,2.3c-2.3,0-3.8-1.7-3.8-4.4c0-2.6,1.5-4.4,3.8-4.4c2.3,0,3.7,1.6,3.7,4.2 v0.5h-6.1v0.1c0.1,1.7,1,2.7,2.4,2.7c1.1,0,1.8-0.4,2.2-1.1H248.7z M242.7,359.1h4.6c0-1.5-0.9-2.5-2.3-2.5 C243.8,356.6,242.8,357.6,242.7,359.1z"/><path class="st0" d="M256.6,358.1c-0.2-0.8-1-1.5-2.2-1.5c-1.5,0-2.5,1.2-2.5,3.1c0,1.9,1,3.2,2.5,3.2c1.1,0,1.9-0.5,2.2-1.5h1.4 c-0.2,1.5-1.5,2.7-3.5,2.7c-2.4,0-3.9-1.7-3.9-4.4c0-2.6,1.5-4.3,3.9-4.3c2,0,3.3,1.2,3.5,2.7H256.6z"/><path class="st0" d="M266.9,364h-1.3v-1.3h-0.1c-0.4,0.9-1.3,1.5-2.6,1.5c-1.9,0-2.9-1.1-2.9-3.1v-5.5h1.3v5.1 c0,1.5,0.6,2.2,1.9,2.2c1.5,0,2.3-0.9,2.3-2.4v-5h1.3V364z"/><path class="st0" d="M271.4,353.4v2.2h1.9v1.1h-1.9v4.8c0,1,0.4,1.4,1.2,1.4c0.2,0,0.4,0,0.6,0v1.1c-0.3,0-0.5,0.1-0.8,0.1 c-1.7,0-2.4-0.6-2.4-2.2v-5.1h-1.4v-1.1h1.4v-2.2H271.4z"/><path class="st0" d="M275,353c0-0.5,0.4-0.9,0.9-0.9s0.9,0.4,0.9,0.9s-0.4,0.9-0.9,0.9S275,353.5,275,353z M275.3,355.6h1.3v8.4 h-1.3V355.6z"/><path class="st0" d="M278.8,359.8c0-2.7,1.5-4.4,3.9-4.4s3.9,1.6,3.9,4.4c0,2.7-1.5,4.4-3.9,4.4S278.8,362.5,278.8,359.8z M285.2,359.8c0-2-0.9-3.1-2.5-3.1s-2.5,1.1-2.5,3.1c0,2,0.9,3.1,2.5,3.1S285.2,361.8,285.2,359.8z"/><path class="st0" d="M288.8,355.6h1.3v1.3h0.1c0.4-0.9,1.2-1.5,2.5-1.5c1.9,0,2.9,1.1,2.9,3.1v5.5h-1.3v-5.1c0-1.5-0.6-2.2-2-2.2 s-2.2,0.9-2.2,2.4v5h-1.3V355.6z"/></g><line class="st1" x1="84.9" y1="160.3" x2="482.9" y2="160.3"/><line class="st1" x1="81.9" y1="312.9" x2="375.8" y2="312.9"/><line class="st1" x1="105.9" y1="73" x2="514" y2="73"/><line class="st1" x1="60.6" y1="222.6" x2="499.9" y2="222.6"/><line class="st2" x1="492.2" y1="104.4" x2="492.2" y2="148.6"/><line class="st2" x1="492.2" y1="186.1" x2="492.2" y2="203"/><line class="st2" x1="493.3" y1="233.5" x2="493.3" y2="307"/><g><path class="st0" d="M355.6,405.9c0-2.6,2-4.6,4.8-4.6s4.8,1.9,4.8,4.6c0,2.6-2,4.6-4.8,4.6S355.6,408.5,355.6,405.9z M363.5,405.9 c0-1.8-1.3-3.1-3.1-3.1c-1.8,0-3.1,1.3-3.1,3.1c0,1.8,1.3,3.1,3.1,3.1C362.1,409,363.5,407.7,363.5,405.9z"/><path class="st0" d="M374,406.9c0,2.1-1.5,3.5-3.4,3.5c-0.9,0-1.6-0.3-2.2-0.9v3.3h-1.6v-9.2h1.5v0.9c0.5-0.6,1.3-1,2.2-1 C372.6,403.5,374,404.8,374,406.9z M372.4,406.9c0-1.3-0.9-2.1-2-2.1c-1.1,0-2,0.8-2,2.1c0,1.3,0.9,2.1,2,2.1 C371.6,409,372.4,408.2,372.4,406.9z"/><path class="st0" d="M382,407.4h-5.3c0.2,1,1,1.6,2.2,1.6c0.8,0,1.4-0.2,1.8-0.7l0.8,1c-0.6,0.7-1.6,1.1-2.7,1.1 c-2.3,0-3.7-1.5-3.7-3.5s1.5-3.5,3.5-3.5c2,0,3.4,1.4,3.4,3.5C382,407.1,382,407.3,382,407.4z M376.7,406.4h3.8 c-0.1-1-0.9-1.6-1.9-1.6C377.6,404.7,376.8,405.4,376.7,406.4z"/><path class="st0" d="M387.5,403.5v1.5c-0.1,0-0.3,0-0.4,0c-1.2,0-2,0.7-2,2.1v3.3h-1.6v-6.8h1.5v1 C385.6,403.8,386.4,403.5,387.5,403.5z"/><path class="st0" d="M394.6,406.3v4h-1.5v-0.8c-0.4,0.6-1.1,0.9-2.1,0.9c-1.5,0-2.5-0.8-2.5-2c0-1.1,0.8-2,2.8-2h1.7v-0.1 c0-0.9-0.6-1.5-1.7-1.5c-0.8,0-1.5,0.3-2.1,0.7l-0.6-1.2c0.7-0.6,1.8-0.8,2.9-0.8C393.5,403.5,394.6,404.4,394.6,406.3z M393,408.2 v-0.8h-1.6c-1.1,0-1.4,0.4-1.4,0.9c0,0.6,0.5,0.9,1.3,0.9C392.1,409.2,392.8,408.9,393,408.2z"/><path class="st0" d="M400.6,409.9c-0.4,0.3-0.9,0.5-1.5,0.5c-1.5,0-2.3-0.8-2.3-2.3v-3.3h-1.1v-1.3h1.1v-1.5h1.6v1.5h1.8v1.3h-1.8 v3.2c0,0.7,0.3,1,0.9,1c0.3,0,0.6-0.1,0.9-0.3L400.6,409.9z"/><path class="st0" d="M401.2,406.9c0-2,1.5-3.5,3.6-3.5c2.1,0,3.6,1.4,3.6,3.5s-1.5,3.5-3.6,3.5C402.7,410.4,401.2,409,401.2,406.9z M406.8,406.9c0-1.3-0.9-2.1-2-2.1c-1.1,0-2,0.8-2,2.1c0,1.3,0.9,2.1,2,2.1C405.9,409,406.8,408.2,406.8,406.9z"/><path class="st0" d="M413.9,403.5v1.5c-0.1,0-0.3,0-0.4,0c-1.2,0-2,0.7-2,2.1v3.3h-1.6v-6.8h1.5v1 C411.9,403.8,412.7,403.5,413.9,403.5z"/><path class="st0" d="M424.9,408.3h-4.4l-0.9,2.1h-1.7l4-8.9h1.6l4,8.9h-1.7L424.9,408.3z M424.4,407l-1.7-3.9L421,407H424.4z"/></g><g><path class="st0" d="M457.4,405.9c0-2.6,2-4.6,4.8-4.6s4.8,1.9,4.8,4.6c0,2.6-2,4.6-4.8,4.6S457.4,408.5,457.4,405.9z M465.2,405.9 c0-1.8-1.3-3.1-3.1-3.1c-1.8,0-3.1,1.3-3.1,3.1c0,1.8,1.3,3.1,3.1,3.1C463.9,409,465.2,407.7,465.2,405.9z"/><path class="st0" d="M475.8,406.9c0,2.1-1.5,3.5-3.4,3.5c-0.9,0-1.6-0.3-2.2-0.9v3.3h-1.6v-9.2h1.5v0.9c0.5-0.6,1.3-1,2.2-1 C474.4,403.5,475.8,404.8,475.8,406.9z M474.2,406.9c0-1.3-0.9-2.1-2-2.1c-1.1,0-2,0.8-2,2.1c0,1.3,0.9,2.1,2,2.1 C473.4,409,474.2,408.2,474.2,406.9z"/><path class="st0" d="M483.8,407.4h-5.3c0.2,1,1,1.6,2.2,1.6c0.8,0,1.4-0.2,1.8-0.7l0.8,1c-0.6,0.7-1.6,1.1-2.7,1.1 c-2.3,0-3.7-1.5-3.7-3.5s1.5-3.5,3.5-3.5c2,0,3.4,1.4,3.4,3.5C483.8,407.1,483.8,407.3,483.8,407.4z M478.5,406.4h3.8 c-0.1-1-0.9-1.6-1.9-1.6C479.4,404.7,478.6,405.4,478.5,406.4z"/><path class="st0" d="M489.3,403.5v1.5c-0.1,0-0.3,0-0.4,0c-1.2,0-2,0.7-2,2.1v3.3h-1.6v-6.8h1.5v1 C487.4,403.8,488.2,403.5,489.3,403.5z"/><path class="st0" d="M496.4,406.3v4h-1.5v-0.8c-0.4,0.6-1.1,0.9-2.1,0.9c-1.5,0-2.5-0.8-2.5-2c0-1.1,0.8-2,2.8-2h1.7v-0.1 c0-0.9-0.6-1.5-1.7-1.5c-0.8,0-1.5,0.3-2.1,0.7l-0.6-1.2c0.7-0.6,1.8-0.8,2.9-0.8C495.3,403.5,496.4,404.4,496.4,406.3z M494.8,408.2v-0.8h-1.6c-1.1,0-1.4,0.4-1.4,0.9c0,0.6,0.5,0.9,1.3,0.9C493.9,409.2,494.6,408.9,494.8,408.2z"/><path class="st0" d="M502.4,409.9c-0.4,0.3-0.9,0.5-1.5,0.5c-1.5,0-2.3-0.8-2.3-2.3v-3.3h-1.1v-1.3h1.1v-1.5h1.6v1.5h1.8v1.3h-1.8 v3.2c0,0.7,0.3,1,0.9,1c0.3,0,0.6-0.1,0.9-0.3L502.4,409.9z"/><path class="st0" d="M503,406.9c0-2,1.5-3.5,3.6-3.5c2.1,0,3.6,1.4,3.6,3.5s-1.5,3.5-3.6,3.5C504.5,410.4,503,409,503,406.9z M508.6,406.9c0-1.3-0.9-2.1-2-2.1c-1.1,0-2,0.8-2,2.1c0,1.3,0.9,2.1,2,2.1C507.7,409,508.6,408.2,508.6,406.9z"/><path class="st0" d="M515.7,403.5v1.5c-0.1,0-0.3,0-0.4,0c-1.2,0-2,0.7-2,2.1v3.3h-1.6v-6.8h1.5v1 C513.7,403.8,514.5,403.5,515.7,403.5z"/><path class="st0" d="M528.8,407.9c0,1.5-1.2,2.4-3.5,2.4H521v-8.9h4.2c2.1,0,3.3,0.9,3.3,2.3c0,0.9-0.5,1.6-1.1,2 C528.2,406,528.8,406.8,528.8,407.9z M522.6,402.7v2.4h2.3c1.1,0,1.8-0.4,1.8-1.2c0-0.8-0.6-1.2-1.8-1.2H522.6z M527.2,407.7 c0-0.9-0.7-1.3-1.9-1.3h-2.7v2.6h2.7C526.5,409,527.2,408.6,527.2,407.7z"/></g><g><path class="st0" d="M559.4,405.9c0-2.6,2-4.6,4.8-4.6s4.8,1.9,4.8,4.6c0,2.6-2,4.6-4.8,4.6S559.4,408.5,559.4,405.9z M567.3,405.9 c0-1.8-1.3-3.1-3.1-3.1c-1.8,0-3.1,1.3-3.1,3.1c0,1.8,1.3,3.1,3.1,3.1C566,409,567.3,407.7,567.3,405.9z"/><path class="st0" d="M577.9,406.9c0,2.1-1.5,3.5-3.4,3.5c-0.9,0-1.6-0.3-2.2-0.9v3.3h-1.6v-9.2h1.5v0.9c0.5-0.6,1.3-1,2.2-1 C576.5,403.5,577.9,404.8,577.9,406.9z M576.3,406.9c0-1.3-0.9-2.1-2-2.1c-1.1,0-2,0.8-2,2.1c0,1.3,0.9,2.1,2,2.1 C575.4,409,576.3,408.2,576.3,406.9z"/><path class="st0" d="M585.9,407.4h-5.3c0.2,1,1,1.6,2.2,1.6c0.8,0,1.4-0.2,1.8-0.7l0.8,1c-0.6,0.7-1.6,1.1-2.7,1.1 c-2.3,0-3.7-1.5-3.7-3.5s1.5-3.5,3.5-3.5c2,0,3.4,1.4,3.4,3.5C585.9,407.1,585.9,407.3,585.9,407.4z M580.6,406.4h3.8 c-0.1-1-0.9-1.6-1.9-1.6C581.5,404.7,580.7,405.4,580.6,406.4z"/><path class="st0" d="M591.4,403.5v1.5c-0.1,0-0.3,0-0.4,0c-1.2,0-2,0.7-2,2.1v3.3h-1.6v-6.8h1.5v1 C589.4,403.8,590.3,403.5,591.4,403.5z"/><path class="st0" d="M598.5,406.3v4H597v-0.8c-0.4,0.6-1.1,0.9-2.1,0.9c-1.5,0-2.5-0.8-2.5-2c0-1.1,0.8-2,2.8-2h1.7v-0.1 c0-0.9-0.6-1.5-1.7-1.5c-0.8,0-1.5,0.3-2.1,0.7l-0.6-1.2c0.7-0.6,1.8-0.8,2.9-0.8C597.4,403.5,598.5,404.4,598.5,406.3z M596.9,408.2v-0.8h-1.6c-1.1,0-1.4,0.4-1.4,0.9c0,0.6,0.5,0.9,1.3,0.9C596,409.2,596.6,408.9,596.9,408.2z"/><path class="st0" d="M604.5,409.9c-0.4,0.3-0.9,0.5-1.5,0.5c-1.5,0-2.3-0.8-2.3-2.3v-3.3h-1.1v-1.3h1.1v-1.5h1.6v1.5h1.8v1.3h-1.8 v3.2c0,0.7,0.3,1,0.9,1c0.3,0,0.6-0.1,0.9-0.3L604.5,409.9z"/><path class="st0" d="M605.1,406.9c0-2,1.5-3.5,3.6-3.5c2.1,0,3.6,1.4,3.6,3.5s-1.5,3.5-3.6,3.5C606.6,410.4,605.1,409,605.1,406.9z M610.7,406.9c0-1.3-0.9-2.1-2-2.1c-1.1,0-2,0.8-2,2.1c0,1.3,0.9,2.1,2,2.1C609.8,409,610.7,408.2,610.7,406.9z"/><path class="st0" d="M617.7,403.5v1.5c-0.1,0-0.3,0-0.4,0c-1.2,0-2,0.7-2,2.1v3.3h-1.6v-6.8h1.5v1 C615.8,403.8,616.6,403.5,617.7,403.5z"/><path class="st0" d="M622.4,405.9c0-2.6,2-4.6,4.7-4.6c1.4,0,2.7,0.5,3.5,1.5l-1.1,1c-0.6-0.7-1.4-1-2.4-1c-1.8,0-3.2,1.3-3.2,3.1 c0,1.8,1.3,3.1,3.2,3.1c0.9,0,1.7-0.3,2.4-1.1l1.1,1c-0.8,1-2.1,1.5-3.5,1.5C624.4,410.4,622.4,408.5,622.4,405.9z"/></g><g><path class="st0" d="M462.1,12.8c0-3.1,2.5-5.6,5.6-5.6h46c3.1,0,5.6,2.5,5.6,5.6v99c0,3.1-2.5,5.6-5.6,5.6h-46 c-3.1,0-5.6-2.5-5.6-5.6V12.8z"/><path class="st3" d="M510.2,110.1h-39.3c-3.2,0-5.8-2.6-5.8-5.8V18.2c0-3.2,2.6-5.8,5.8-5.8h39.3c3.2,0,5.8,2.6,5.8,5.8v86.1 C516,107.5,513.4,110.1,510.2,110.1z"/><g><path class="st4" d="M504.2,21.2h4.1c1.4,0,2.5,1.1,2.5,2.5v4.1c0,1.4-1.1,2.5-2.5,2.5h-4.1c-1.4,0-2.5-1.1-2.5-2.5v-4.1 C501.6,22.4,502.8,21.2,504.2,21.2z"/><path class="st5" d="M487.1,23.8v4.1c0,1.4,1.1,2.5,2.5,2.5h4.1c1.4,0,2.5-1.1,2.5-2.5v-4.1c0-1.4-1.1-2.5-2.5-2.5h-4.1 C488.2,21.2,487.1,22.4,487.1,23.8z"/><path class="st4" d="M472.5,23.8v4.1c0,1.4,1.1,2.5,2.5,2.5h4.1c1.4,0,2.5-1.1,2.5-2.5v-4.1c0-1.4-1.1-2.5-2.5-2.5h-4.1 C473.7,21.2,472.5,22.4,472.5,23.8z"/><path class="st5" d="M504.2,66.1h4.1c1.4,0,2.5,1.1,2.5,2.5v4.1c0,1.4-1.1,2.5-2.5,2.5h-4.1c-1.4,0-2.5-1.1-2.5-2.5v-4.1 C501.6,67.2,502.8,66.1,504.2,66.1z"/><path class="st0" d="M487.1,68.6v4.1c0,1.4,1.1,2.5,2.5,2.5h4.1c1.4,0,2.5-1.1,2.5-2.5v-4.1c0-1.4-1.1-2.5-2.5-2.5h-4.1 C488.2,66.1,487.1,67.2,487.1,68.6z"/><path class="st0" d="M472.5,68.6v4.1c0,1.4,1.1,2.5,2.5,2.5h4.1c1.4,0,2.5-1.1,2.5-2.5v-4.1c0-1.4-1.1-2.5-2.5-2.5h-4.1 C473.7,66.1,472.5,67.2,472.5,68.6z"/><path class="st4" d="M504.2,51.1h4.1c1.4,0,2.5,1.1,2.5,2.5v4.1c0,1.4-1.1,2.5-2.5,2.5h-4.1c-1.4,0-2.5-1.1-2.5-2.5v-4.1 C501.6,52.2,502.8,51.1,504.2,51.1z"/><path class="st5" d="M487.1,53.6v4.1c0,1.4,1.1,2.5,2.5,2.5h4.1c1.4,0,2.5-1.1,2.5-2.5v-4.1c0-1.4-1.1-2.5-2.5-2.5h-4.1 C488.2,51.1,487.1,52.2,487.1,53.6z"/><path class="st4" d="M472.5,53.6v4.1c0,1.4,1.1,2.5,2.5,2.5h4.1c1.4,0,2.5-1.1,2.5-2.5v-4.1c0-1.4-1.1-2.5-2.5-2.5h-4.1 C473.7,51.1,472.5,52.2,472.5,53.6z"/><path class="st5" d="M479.1,45.6h-4.1c-1.4,0-2.5-1.1-2.5-2.5V39c0-1.4,1.1-2.5,2.5-2.5h4.1c1.4,0,2.5,1.1,2.5,2.5v4.1 C481.7,44.5,480.6,45.6,479.1,45.6z"/><path class="st4" d="M496.2,43.1V39c0-1.4-1.1-2.5-2.5-2.5h-4.1c-1.4,0-2.5,1.1-2.5,2.5v4.1c0,1.4,1.1,2.5,2.5,2.5h4.1 C495.1,45.6,496.2,44.5,496.2,43.1z"/><path class="st0" d="M510.8,43.1V39c0-1.4-1.1-2.5-2.5-2.5h-4.1c-1.4,0-2.5,1.1-2.5,2.5v4.1c0,1.4,1.1,2.5,2.5,2.5h4.1 C509.7,45.6,510.8,44.5,510.8,43.1z"/></g><path class="st6" d="M516,21v-4.8c0-2.1-1.7-3.9-3.9-3.9h-43.2c-2.1,0-3.9,1.7-3.9,3.9V72L516,21z"/></g><polygon class="st5" points="619.2,158.6 597.5,136.9 597.5,136.9 397.9,136.9 397.9,137.1 397.6,136.9 375.4,159.1 375.4,164.2 397.6,186.5 397.9,186.2 397.9,186.4 597.5,186.4 597.5,186.5 597.5,186.4 597.5,186.4 597.5,186.4 619.2,164.8"/><g><path class="st0" d="M563.3,165.6h-7.5l-1.4,3.4h-3.8l7.2-16.1h3.7l7.2,16.1h-3.9L563.3,165.6z M562.1,162.8l-2.5-6.2l-2.5,6.2 H562.1z"/><path class="st0" d="M584.2,158.8c0,3.6-2.7,5.8-7,5.8H574v4.4h-3.7V153h7C581.5,153,584.2,155.2,584.2,158.8z M580.5,158.8 c0-1.8-1.1-2.8-3.4-2.8h-3v5.6h3C579.3,161.6,580.5,160.6,580.5,158.8z"/><path class="st0" d="M586.8,153h3.7v16.1h-3.7V153z"/></g><path class="st0" d="M506.2,218.4c-1-0.2-2-0.4-3-0.5v-6.6c0-5.3-4.3-9.7-9.7-9.7h-0.4c0,0,0,0,0,0c-5.3,0-9.7,4.3-9.7,9.7v6.6	c-1,0.1-2,0.3-3,0.5l-0.2,0c-1,0.2-1.8,1.1-1.8,2.1v14.8c0,1,0.7,1.9,1.8,2.1l1.3,0.2c3.9,0.7,7.8,1.1,11.7,1.1	c3.9,0,7.9-0.4,11.7-1.1l1.3-0.2c1-0.2,1.8-1.1,1.8-2.1v-14.6C508.1,219.6,507.3,218.6,506.2,218.4z M487.6,217.4v-6.1	c0-3.1,2.5-5.5,5.5-5.5h0.4c3.1,0,5.5,2.5,5.5,5.5v6.1C495.2,217.1,491.4,217.1,487.6,217.4z"/><path class="st2" d="M390.8,307.9v-48.7c0-2.5,2-4.5,4.5-4.5h193.9c2.5,0,4.5,2,4.5,4.5v48.1"/><circle class="st7" cx="390.7" cy="332.2" r="40.9"/><circle class="st7" cx="493.3" cy="332.2" r="40.9"/><circle class="st7" cx="593.1" cy="332.2" r="40.9"/><g><path class="st8" d="M373.3,342.1c-6.9-9.9-4.6-23.5,5.3-30.4c9.9-6.9,23.5-4.6,30.4,5.3c6.9,9.9,4.6,23.5-5.3,30.4"/><path class="st8" d="M378.4,347.2c-9.8-7-12-20.7-5-30.5c7-9.8,20.7-12,30.5-5s12,20.7,5,30.5"/><path class="st8" d="M381.5,339.1c-5.3-5.3-5.3-13.8,0-19.1c5.3-5.3,13.8-5.3,19.1,0c5.3,5.3,5.3,13.8,0,19.1"/><circle class="st8" cx="391" cy="329.5" r="3.4"/><polyline class="st8" points="408.3,384.3 391,335.6 373.8,384.3"/><line class="st8" x1="391" y1="332.9" x2="391" y2="336.5"/><g><line class="st8" x1="406.5" y1="379.7" x2="380" y2="367"/><line class="st8" x1="375.5" y1="379.7" x2="402.1" y2="367"/></g><g><line class="st8" x1="400.2" y1="361.4" x2="384.6" y2="353.9"/><line class="st8" x1="381.9" y1="361.4" x2="397.5" y2="353.9"/></g></g><g><path class="st8" d="M475.5,342.1c-6.9-9.9-4.6-23.5,5.3-30.4c9.9-6.9,23.5-4.6,30.4,5.3c6.9,9.9,4.6,23.5-5.3,30.4"/><path class="st8" d="M480.6,347.2c-9.8-7-12-20.7-5-30.5c7-9.8,20.7-12,30.5-5c9.8,7,12,20.7,5,30.5"/><path class="st8" d="M483.7,339.1c-5.3-5.3-5.3-13.8,0-19.1c5.3-5.3,13.8-5.3,19.1,0c5.3,5.3,5.3,13.8,0,19.1"/><circle class="st8" cx="493.2" cy="329.5" r="3.4"/><polyline class="st8" points="510.5,384.3 493.2,335.6 476,384.3"/><line class="st8" x1="493.2" y1="332.9" x2="493.2" y2="336.5"/><g><line class="st8" x1="508.7" y1="379.7" x2="482.2" y2="367"/><line class="st8" x1="477.7" y1="379.7" x2="504.3" y2="367"/></g><g><line class="st8" x1="502.4" y1="361.4" x2="486.8" y2="353.9"/><line class="st8" x1="484.1" y1="361.4" x2="499.7" y2="353.9"/></g></g><g><path class="st8" d="M575.5,342.1c-6.9-9.9-4.6-23.5,5.3-30.4c9.9-6.9,23.5-4.6,30.4,5.3c6.9,9.9,4.6,23.5-5.3,30.4"/><path class="st8" d="M580.6,347.2c-9.8-7-12-20.7-5-30.5c7-9.8,20.7-12,30.5-5c9.8,7,12,20.7,5,30.5"/><path class="st8" d="M583.8,339.1c-5.3-5.3-5.3-13.8,0-19.1c5.3-5.3,13.8-5.3,19.1,0c5.3,5.3,5.3,13.8,0,19.1"/><circle class="st8" cx="593.3" cy="329.5" r="3.4"/><polyline class="st8" points="610.5,384.3 593.3,335.6 576,384.3"/><line class="st8" x1="593.3" y1="332.9" x2="593.3" y2="336.5"/><g><line class="st8" x1="608.8" y1="379.7" x2="582.2" y2="367"/><line class="st8" x1="577.7" y1="379.7" x2="604.3" y2="367"/></g><g><line class="st8" x1="602.4" y1="361.4" x2="586.8" y2="353.9"/><line class="st8" x1="584.2" y1="361.4" x2="599.8" y2="353.9"/></g></g><g><path class="st0" d="M441.7,163.3c0,3.5-2.5,6-5.9,6c-3.4,0-5.9-2.5-5.9-6c0-3.5,2.5-6,5.9-6C439.2,157.3,441.7,159.8,441.7,163.3z M439,163.3c0-2.4-1.5-3.6-3.2-3.6c-1.7,0-3.2,1.2-3.2,3.6c0,2.4,1.5,3.6,3.2,3.6C437.5,166.9,439,165.7,439,163.3z M443.3,169.1 v-16.2l2.7,0l0,6.2c0.5-0.9,1.8-1.7,3.6-1.7c3.4,0,5.3,2.6,5.3,5.9c0,3.4-2,6.1-5.4,6.1c-1.6,0-2.9-0.7-3.5-1.8l-1.5,1.5 L443.3,169.1z M449,159.8c-1.7,0-3.1,1.3-3.1,3.6c0,2.2,1.3,3.6,3.1,3.6c1.8,0,3.1-1.4,3.1-3.6C452.1,161.1,450.8,159.8,449,159.8z M456.7,157.6v11.4h2.7v-11.4H456.7z M461.6,169.1v-16.2h2.7v16.2H461.6z M487.5,152.9v6.2c-0.4-0.7-1.4-1.6-3.3-1.6 c-3.2,0-5.4,2.7-5.4,6c0,3.4,2.2,6,5.5,6c1.6,0,2.8-0.8,3.4-1.8v0l0,0l1.5,1.5l1.1,0V167v0v-14.1L487.5,152.9z M484.5,167 c-1.8,0-3.1-1.5-3.1-3.6c0-2.2,1.3-3.6,3.1-3.6s3,1.4,3,3.5S486.3,167,484.5,167z M411.4,152.9h3.6l4.9,9l4.9-9h3.6v16.2h-2.9 v-11.6l-5.1,9.3h-1.1l-5-9.3v11.6h-2.8V152.9z M459.4,152.9h-2.7v2.7h2.7V152.9z M501.7,157.6l-1.3,1.3c-0.4-0.7-1.4-1.6-3.3-1.6 c-1,0-1.9,0.3-2.6,0.7c-1.7,0.9-2.7,2.7-2.8,4.8c0,0.1,0,0.3,0,0.4c0,3.4,2.2,6,5.5,6c1.4,0,2.5-0.6,3.1-1.4v0.1 c0,2.3-1.1,3.4-3.2,3.4c0,0,0,0,0,0c-1.6,0-2.7-0.7-3.2-1.1c-0.2-0.2-0.3-0.2-0.3-0.3l-1.7,1.7c0.1,0.1,0.2,0.2,0.3,0.3 c1.1,1,2.6,1.8,4.9,1.8c0,0,0,0,0,0c4.3,0,5.9-2.8,5.9-5.9v-10.3H501.7z M497.4,166.9c-1.8,0-3.1-1.5-3.1-3.6c0-1.9,1-3.2,2.4-3.5 c0.2,0,0.4,0,0.6,0c0.6,0,1.2,0.2,1.7,0.5c0.8,0.6,1.2,1.6,1.2,3C500.3,165.5,499.2,166.9,497.4,166.9z M473.7,166.7 c-0.5,0.2-1.1,0.3-1.6,0.3c-0.8,0-1.5-0.2-2.1-0.7c-0.6-0.5-0.9-1.1-1.1-2h8.3c0-0.2,0.1-0.5,0.1-0.9c0-1.9-0.5-3.4-1.4-4.4 c-0.9-1.1-2.3-1.7-4.1-1.7c-1.1,0-2.1,0.3-3,0.8c-0.9,0.5-1.5,1.2-2,2.1c-0.5,0.9-0.7,2-0.7,3.1c0,1.2,0.2,2.2,0.7,3.1 c0.5,0.9,1.2,1.6,2,2.1c0.9,0.5,1.9,0.7,3,0.7c1,0,1.9-0.2,2.7-0.5c0.8-0.3,1.5-0.9,2.1-1.5l-1.6-1.6 C474.6,166.1,474.2,166.4,473.7,166.7z M469.8,160.3c0.5-0.5,1.2-0.8,2-0.8c0.9,0,1.5,0.3,2,0.8c0.5,0.5,0.8,1.2,0.8,2.1h-5.7 C468.9,161.5,469.2,160.8,469.8,160.3z M512,166.7c-0.5,0.2-1.1,0.3-1.6,0.3c-0.8,0-1.5-0.2-2.1-0.7c-0.6-0.5-0.9-1.1-1.1-2h8.3 c0-0.2,0.1-0.5,0.1-0.9c0-1.9-0.5-3.4-1.4-4.4c-0.9-1.1-2.3-1.7-4.1-1.7c-1.1,0-2.1,0.3-3,0.8c-0.9,0.5-1.5,1.2-2,2.1 c-0.5,0.9-0.7,2-0.7,3.1c0,1.2,0.2,2.2,0.7,3.1c0.5,0.9,1.2,1.6,2,2.1c0.9,0.5,1.9,0.7,3,0.7c1,0,1.9-0.2,2.7-0.5 c0.8-0.3,1.5-0.9,2.1-1.5l-1.6-1.6C513,166.1,512.5,166.4,512,166.7z M508.1,160.3c0.5-0.5,1.2-0.8,2-0.8c0.9,0,1.5,0.3,2,0.8 c0.5,0.5,0.8,1.2,0.8,2.1h-5.7C507.2,161.5,507.5,160.8,508.1,160.3z"/><g><path class="st0" d="M533.6,167.2v1.9l0,0l0,0h-1.9l-4.9-4.9l1.9-1.9L533.6,167.2z M409.5,154.8v-1.9h-1.9l-7.1,7.1v1.9l7.1,7.1 h1.9v-1.9l-6.2-6.2L409.5,154.8z M541.6,161l-6.2,6.2v1.9h1.9l7.1-7.1V160l-7.1-7.1h-1.9v1.9L541.6,161z M519.3,152.9h-1.9v1.9 l4.9,4.9l1.9-1.9L519.3,152.9z M533.6,154.8v-1.9h-1.9l-14.3,14.3v1.9h1.9L533.6,154.8z"/><g><path class="st0" d="M541,153.2h-0.6v-0.3h1.6v0.3h-0.6v1.6H541V153.2z M542.4,152.9h0.4l0.6,0.9l0.6-0.9h0.4v1.9h-0.4v-1.4 l-0.6,0.9h0l-0.6-0.9v1.4h-0.4V152.9z"/></g></g></g></svg>