<svg xmlns="http://www.w3.org/2000/svg" xmlns:xlink="http://www.w3.org/1999/xlink" width="100.72" height="99.67" viewBox="0 0 100.72 99.67"><defs><style>.cls-1{fill:#1a546b;opacity:.15}.cls-2{fill:url(#linear-gradient)}.cls-3{fill:url(#linear-gradient-2)}</style><linearGradient id="linear-gradient" x1="61.96" y1="74.56" x2="61.96" y2="25.16" gradientUnits="userSpaceOnUse"><stop offset="0" stop-color="#273c4d"/><stop offset="1" stop-color="#43809e"/></linearGradient><linearGradient id="linear-gradient-2" x1="44.29" y1="49.86" x2="78.67" y2="49.86" gradientUnits="userSpaceOnUse"><stop offset=".13" stop-color="#b4e95e"/><stop offset=".55" stop-color="#62c87a"/></linearGradient></defs><title>console</title><g id="Layer_2" data-name="Layer 2"><g id="design"><polygon class="cls-1" points="43.16 0 14.39 0 0 24.92 14.39 49.84 43.16 49.84 57.55 24.92 43.16 0"/><polygon class="cls-1" points="43.16 49.84 14.39 49.84 0 74.75 14.39 99.67 43.16 99.67 57.55 74.75 43.16 49.84"/><polygon class="cls-1" points="86.33 24.92 57.56 24.92 43.17 49.84 57.56 74.75 86.33 74.75 100.72 49.84 86.33 24.92"/><polygon class="cls-1" points="57.91 24.92 29.14 24.92 14.75 49.84 29.14 74.75 57.91 74.75 72.3 49.84 57.91 24.92"/><rect class="cls-2" x="37.26" y="25.16" width="49.41" height="49.41" rx="2.42"/><path class="cls-3" d="M61.16,50.58l-15.83,6.3a1,1,0,0,1-.28,0,.83.83,0,0,1-.43-.13.76.76,0,0,1-.33-.63V52.59a.75.75,0,0,1,.48-.7L54.44,48l-9.67-3.85a.75.75,0,0,1-.48-.7V39.9a.74.74,0,0,1,.33-.62.75.75,0,0,1,.71-.08l15.83,6.29a.77.77,0,0,1,.48.71h0v3.68A.75.75,0,0,1,61.16,50.58Zm17.51,7.68a.75.75,0,0,0-.76-.75H62.32a.75.75,0,0,0-.75.75v1.56a.75.75,0,0,0,.75.75H77.91a.75.75,0,0,0,.76-.75Z"/></g></g></svg>