<svg xmlns="http://www.w3.org/2000/svg" width="117.94" height="97.54" viewBox="0 0 117.94 97.54"><defs><style>.cls-1,.cls-4{fill:#1a546b}.cls-1,.cls-5{opacity:.6}.cls-2{fill:#273c4d}.cls-3{opacity:.3}.cls-6{opacity:.15}.cls-7{fill:#93e019}.cls-8{fill:#78c400}.cls-9{fill:#b4e95e}.cls-10{opacity:.5}.cls-11{opacity:.25}</style></defs><title>containers</title><g id="Layer_2" data-name="Layer 2"><g id="design"><polyline class="cls-1" points="50.72 68.24 33.8 58.47 16.93 68.29 33.85 78.06 50.72 68.24"/><polygon class="cls-2" points="101.11 58.54 67.48 78.09 67.48 97.54 101.11 77.99 101.11 58.54"/><g class="cls-3"><polyline class="cls-4" points="33.8 38.97 16.87 29.2 0 39.02 16.93 48.79 33.8 38.97"/></g><polygon class="cls-2" points="33.8 38.97 16.93 48.79 16.93 68.24 33.8 58.42 33.8 38.97"/><g class="cls-5"><polygon class="cls-4" points="67.35 0 33.72 19.55 33.72 39 67.35 19.45 67.35 0"/></g><g class="cls-6"><polygon class="cls-4" points="84.16 48.77 50.53 68.32 50.53 87.77 84.17 68.22 84.16 48.77"/></g><polyline class="cls-7" points="84.16 29.27 67.24 19.5 33.61 39.05 50.53 48.82 84.16 29.27"/><polygon class="cls-8" points="84.16 29.27 50.53 48.82 50.53 68.27 84.17 48.73 84.16 29.27"/><polygon class="cls-9" points="33.8 39.02 33.8 58.47 50.72 68.24 50.72 48.79 33.8 39.02"/><g class="cls-10"><polygon class="cls-8" points="67.35 19.55 67.35 39 84.28 48.77 84.28 29.32 67.35 19.55"/></g><g class="cls-10"><polygon class="cls-1" points="50.72 68.27 50.72 87.72 67.65 97.49 67.65 78.04 50.72 68.27"/></g><g class="cls-10"><polygon class="cls-1" points="84.16 29.28 84.16 48.74 101.09 58.51 101.09 39.06 84.16 29.28"/></g><g class="cls-11"><polygon class="cls-1" points="101.02 19.55 101.02 39 117.94 48.77 117.94 29.32 101.02 19.55"/></g><polygon class="cls-1" points="84.16 48.77 84.16 68.22 101.09 77.99 101.09 58.54 84.16 48.77"/><polygon class="cls-1" points="16.93 29.25 16.93 48.7 33.85 58.47 33.85 39.02 16.93 29.25"/><g class="cls-3"><polyline class="cls-1" points="117.83 29.34 100.9 19.57 84.16 29.27 101.09 39.05 117.83 29.34"/></g><g class="cls-5"><polygon class="cls-4" points="117.85 29.28 101.11 38.99 101.11 58.44 117.85 48.74 117.85 29.28"/></g></g></g></svg>