<svg xmlns="http://www.w3.org/2000/svg" xmlns:xlink="http://www.w3.org/1999/xlink" width="136.73" height="61.88" viewBox="0 0 136.73 61.88"><defs><style>.cls-1,.cls-5,.cls-6,.cls-7{fill:none}.cls-2{fill:#1a546b;opacity:.15}.cls-3{fill:#fff}.cls-4{clip-path:url(#clip-path)}.cls-5{stroke:#1a546b;opacity:.85}.cls-5,.cls-6,.cls-7{stroke-miterlimit:10;stroke-width:6px}.cls-6{stroke:#43809e;opacity:.7}.cls-7{stroke:#78c400}</style><clipPath id="clip-path" transform="translate(20.39 0)"><polygon class="cls-1" points="88.97 0 53.59 0 53.25 0 17.86 0 0 30.94 17.86 61.88 53.25 61.88 53.59 61.88 88.97 61.88 106.83 30.94 88.97 0"/></clipPath></defs><title>dme</title><g id="Layer_2" data-name="Layer 2"><g id="design"><polygon class="cls-2" points="109.36 0 73.63 0 55.77 30.94 73.63 61.88 109.36 61.88 127.22 30.94 109.36 0"/><polygon class="cls-2" points="73.97 0 38.25 0 20.39 30.94 38.25 61.88 73.97 61.88 91.84 30.94 73.97 0"/><polygon class="cls-3" points="73.97 0 73.63 0 55.77 30.94 73.63 61.88 73.97 61.88 91.84 30.94 73.97 0"/><g class="cls-4"><polyline class="cls-5" points="0.12 31.22 74.8 31.22 84.47 15.72 132.69 15.72"/><polyline class="cls-6" points="6.48 15.72 64.48 15.72 83.97 48.43 136.73 48.43"/><polyline class="cls-7" points="0 48.43 61.17 48.43 74.8 31.22 133.31 31.22"/></g></g></g></svg>