<svg xmlns="http://www.w3.org/2000/svg" xmlns:xlink="http://www.w3.org/1999/xlink" width="91.98" height="46.33" viewBox="0 0 91.98 46.33"><defs><style>.cls-1{isolation:isolate}.cls-2,.cls-3,.cls-4,.cls-5,.cls-6,.cls-7{fill:none;stroke-miterlimit:10;stroke-width:2px}.cls-2{stroke:url(#linear-gradient)}.cls-3{stroke:url(#linear-gradient-2)}.cls-4{stroke:url(#linear-gradient-3)}.cls-5,.cls-6,.cls-7{mix-blend-mode:multiply}.cls-5{stroke:url(#linear-gradient-4)}.cls-6{stroke:url(#linear-gradient-5)}.cls-7{stroke:url(#linear-gradient-6)}</style><linearGradient id="linear-gradient" x1="8.48" y1="4.9" x2="45.02" y2="41.43" gradientUnits="userSpaceOnUse"><stop offset=".01" stop-color="#80b1c9"/><stop offset="1" stop-color="#028bbc"/></linearGradient><linearGradient id="linear-gradient-2" x1="12.74" y1="9.16" x2="40.75" y2="37.17" xlink:href="#linear-gradient"/><linearGradient id="linear-gradient-3" x1="17.41" y1="13.83" x2="36.08" y2="32.5" xlink:href="#linear-gradient"/><linearGradient id="linear-gradient-4" x1="38.49" y1="23.16" x2="91.98" y2="23.16" gradientUnits="userSpaceOnUse"><stop offset=".13" stop-color="#b4e95e"/><stop offset=".55" stop-color="#62c87a"/></linearGradient><linearGradient id="linear-gradient-5" x1="44.73" y1="23.16" x2="85.74" y2="23.16" xlink:href="#linear-gradient-4"/><linearGradient id="linear-gradient-6" x1="51.56" y1="23.16" x2="78.91" y2="23.16" xlink:href="#linear-gradient-4"/></defs><title>upgrade</title><g class="cls-1"><g id="Layer_2" data-name="Layer 2"><g id="design"><polygon class="cls-2" points="13.95 45.33 39.54 45.33 52.34 23.16 39.54 1 13.95 1 1.16 23.16 13.95 45.33"/><polygon class="cls-3" points="17.07 39.92 36.42 39.92 46.1 23.16 36.42 6.4 17.07 6.4 7.39 23.16 17.07 39.92"/><polygon class="cls-4" points="20.49 34 33.01 34 39.26 23.16 33.01 12.32 20.49 12.32 14.23 23.16 20.49 34"/><polygon class="cls-5" points="52.44 45.33 78.03 45.33 90.83 23.16 78.03 1 52.44 1 39.64 23.16 52.44 45.33"/><polygon class="cls-6" points="55.56 39.92 74.91 39.92 84.59 23.16 74.91 6.4 55.56 6.4 45.88 23.16 55.56 39.92"/><polygon class="cls-7" points="58.98 34 71.5 34 77.75 23.16 71.5 12.32 58.98 12.32 52.72 23.16 58.98 34"/></g></g></g></svg>