<svg id="Layer_1" data-name="Layer 1" xmlns="http://www.w3.org/2000/svg" width="65" height="65" viewBox="0 0 65 65"><defs><style>.cls-1{fill:#fff}</style></defs><title>requirements</title><path class="cls-1" d="M1,20.89H8.45v3.32H1Zm0,6.63H8.45v3.32H1ZM1,47.43H8.45v3.32H1Zm0-6.64H8.45v3.32H1Zm0-6.63H8.45v3.32H1Zm54.94,6.63H64v3.32h-8.1Zm0-6.63H64v3.32h-8.1Zm0-19.91H64v3.32h-8.1Zm0,13.27H64v3.32h-8.1Zm0-6.63H64v3.32h-8.1ZM34.16,1h3.32V8.45H34.16ZM47.43,1h3.32V8.45H47.43ZM40.79,1h3.32V8.45H40.79ZM14.25,1h3.32V8.45H14.25Zm6.64,0h3.32V8.45H20.89Zm0,55.57h3.32V64H20.89Zm6.63,0h3.32V64H27.52Zm6.64,0h3.32V64H34.16Zm6.63,0h3.32V64H40.79Zm6.64,0h3.32V64H47.43ZM1,14.25H8.45v3.32H1ZM55.92,47.43H64v3.32h-8.1ZM27.52,1h3.32V8.45H27.52ZM14.25,56.55h3.32V64H14.25Zm7.47-34.83H43.28V43.28H21.72ZM51.58,10.11H13.42a3.31,3.31,0,0,0-3.31,3.31V51.58a3.31,3.31,0,0,0,3.31,3.31H51.58a3.31,3.31,0,0,0,3.31-3.31V13.42A3.31,3.31,0,0,0,51.58,10.11Zm-5,36.49H18.4V18.4H46.6Z"/></svg>