<svg id="Layer_1" data-name="Layer 1" xmlns="http://www.w3.org/2000/svg" width="65" height="65" viewBox="0 0 65 65"><defs><style>.cls-1{fill:#fff}</style></defs><title>requirements</title><path class="cls-1" d="M56.86,7.85H8.14a1,1,0,0,0-1,1V21.6a1,1,0,0,0,1,1H56.86a1,1,0,0,0,1-1V8.87A1,1,0,0,0,56.86,7.85Zm-5,6.27a1.86,1.86,0,1,1,1.85-1.85A1.85,1.85,0,0,1,51.85,14.12Zm5,11.26H8.14a1,1,0,0,0-1,1V39.12a1,1,0,0,0,1,1H56.86a1,1,0,0,0,1-1V26.39A1,1,0,0,0,56.86,25.38Zm-5,6.67a1.86,1.86,0,1,1,1.85-1.86A1.86,1.86,0,0,1,51.85,32.05Zm5,10.34H8.14a1,1,0,0,0-1,1V56.13a1,1,0,0,0,1,1H56.86a1,1,0,0,0,1-1V43.4A1,1,0,0,0,56.86,42.39Zm-5,6.67a1.86,1.86,0,1,1,1.85-1.85A1.85,1.85,0,0,1,51.85,49.06Z"/></svg>