<svg id="Layer_1" data-name="Layer 1" xmlns="http://www.w3.org/2000/svg" width="65" height="65" viewBox="0 0 65 65"><defs><style>.cls-1{fill:#fff}</style></defs><title>requirements</title><path class="cls-1" d="M32.5,64.22A31.72,31.72,0,1,1,64.22,32.5,31.76,31.76,0,0,1,32.5,64.22Zm0-59.88A28.16,28.16,0,1,0,60.66,32.5,28.19,28.19,0,0,0,32.5,4.34Zm0,53.17a25,25,0,1,1,25-25A25,25,0,0,1,32.5,57.51Zm0-46.45A21.44,21.44,0,1,0,53.94,32.5,21.47,21.47,0,0,0,32.5,11.06Zm0,39.56A18.12,18.12,0,1,1,50.62,32.5,18.14,18.14,0,0,1,32.5,50.62ZM32.5,18A14.55,14.55,0,1,0,47.05,32.5,14.56,14.56,0,0,0,32.5,18Z"/></svg>