<svg height="65.16" viewBox="0 0 737.54 65.16" width="737.54" xmlns="http://www.w3.org/2000/svg" xmlns:xlink="http://www.w3.org/1999/xlink"><linearGradient id="a" gradientUnits="userSpaceOnUse" x1="22.66" x2="5.13" y1="48.19" y2="17.83"><stop offset=".45" stop-color="#62c87a"/><stop offset=".87" stop-color="#b4e95e"/></linearGradient><linearGradient id="b" gradientUnits="userSpaceOnUse" x1="16.45" x2="5.88" y1="37.43" y2="19.11"><stop offset=".14" stop-color="#fff" stop-opacity=".35"/><stop offset=".91" stop-color="#fff" stop-opacity="0"/></linearGradient><linearGradient id="c" gradientUnits="userSpaceOnUse" x1="424.8" x2="463.62" y1="49.73" y2="10.91"><stop offset=".13" stop-color="#b4e95e"/><stop offset=".55" stop-color="#62c87a"/></linearGradient><linearGradient id="d" x1="251.1" x2="309.04" xlink:href="#c" y1="6.11" y2="64.05"/><linearGradient id="e" x1="295.42" x2="296.42" xlink:href="#b" y1="11.95" y2="12.95"/><linearGradient id="f" x1="269.05" x2="304.97" xlink:href="#b" y1="18.54" y2="54.46"/><linearGradient id="g" x1="294.47" x2="325.96" xlink:href="#b" y1="15.64" y2="47.13"/><linearGradient id="h" x1="280.69" x2="316.51" xlink:href="#b" y1="17.9" y2="53.72"/><linearGradient id="i" x1="575.07" x2="607.27" xlink:href="#c" y1="8.28" y2="40.47"/><linearGradient id="j" x1="65.31" x2="201.01" xlink:href="#c" y1="17.52" y2="17.52"/><linearGradient id="k" x1="123.89" x2="141.79" xlink:href="#c" y1="34.26" y2="52.16"/><g fill="#273c4d"><path d="m27.62 28.07h1.05a.9.9 0 0 1 .9.9v3.1a.9.9 0 0 1 -.9.9h-1.05a0 0 0 0 1 0 0v-4.9a0 0 0 0 1 0 0z"/><path d="m20.21 3.29h-12.84a96.28 96.28 0 0 1 -1.54 15.13h15.92a96.28 96.28 0 0 1 -1.54-15.13z"/><path d="m20.21 62.73h-12.84a96.28 96.28 0 0 0 -1.54-15.13h15.92a96.28 96.28 0 0 0 -1.54 15.13z"/></g><rect fill="url(#a)" height="28.83" rx="3.17" width="24.81" x="1.49" y="18.59"/><path d="m23.13 20.08a1.68 1.68 0 0 1 1.68 1.68v22.5a1.68 1.68 0 0 1 -1.68 1.68h-18.48a1.68 1.68 0 0 1 -1.65-1.68v-22.5a1.68 1.68 0 0 1 1.67-1.68zm0-3h-18.48a4.65 4.65 0 0 0 -4.65 4.68v22.5a4.66 4.66 0 0 0 4.65 4.65h18.48a4.66 4.66 0 0 0 4.66-4.65v-22.5a4.66 4.66 0 0 0 -4.66-4.65z" fill="#273c4d"/><path d="m24.81 22.31v-.55a1.68 1.68 0 0 0 -1.68-1.68h-18.48a1.68 1.68 0 0 0 -1.65 1.68v22.5a1.62 1.62 0 0 0 .22.82z" fill="url(#b)"/><path d="m482.51 62a10 10 0 1 1 10-10 10 10 0 0 1 -10 10zm-94-.05a10 10 0 1 0 -10-10 10 10 0 0 0 10.04 9.96zm112.11-13.22c-.44.84-.71 1.76-1.16 2.59a4 4 0 0 1 -1.16 1.34 18.27 18.27 0 0 1 -2.3 1.34 3.26 3.26 0 0 1 -.9.16 4.46 4.46 0 0 1 -.09-.88 12.06 12.06 0 0 0 -5.63-12.06c-6.38-4.22-18.26-1.88-19.59 9.93a16.69 16.69 0 0 0 .26 4.28c.26 1.8.16 2-1.68 2l-22.87.07h-10.36v-.05l-33.31.3c-1.16 0-1.26-.09-1.07-1.23a20 20 0 0 0 .3-6.69 12.62 12.62 0 0 0 -25 3.42c.12 1.38.37 2.74.56 4.1.14 1.07-.07 1.28-1.11 1-2.19-.59-4.38-1.2-6.55-1.87a9.36 9.36 0 0 1 -2.11-1 1.61 1.61 0 0 1 -.54-2.56c.81-1.25.84-1.28-.09-2.42a2.71 2.71 0 0 1 -.57-2 27.66 27.66 0 0 0 -.32-4.54c-.23-1.53-.23-1.64 1-2.58a35.53 35.53 0 0 1 16.4-6.57c5.22-.8 10.43-1.72 15.65-2.54a20.76 20.76 0 0 0 5.64-2.07c5.82-2.77 11.64-5.53 17.7-7.74a65.58 65.58 0 0 1 20.79-3.8 111.43 111.43 0 0 1 22.19 1.35 90.8 90.8 0 0 1 18.3 5.29c4.09 1.63 8.17 3.28 12.26 4.89.91.36 1.86.59 2.79.89.68.22 1.13.56.76 1.4a.75.75 0 0 0 .51 1.09 1.24 1.24 0 0 1 .79 1.61c-.74 3.21 0 6.27.77 9.35a5.73 5.73 0 0 1 -.26 4.2z" fill="#273c4d"/><path d="m479.93 27.38c-18-7.52-50.58-9.69-72 5.51 0 .06 59.73.72 72.1-4.84.54-.22.41-.46-.1-.67z" fill="url(#c)"/><g fill="#fff" opacity=".3"><path d="m450.57 21.61 3.51 10.29q1.38-.07 2.73-.18l-3.4-10c-.95-.03-1.89-.09-2.84-.11z"/><path d="m445.42 21.61 3.58 10.58 2.74-.15-3.53-10.44c-.93 0-1.85-.02-2.79.01z"/></g><path d="m304.77 62.73a240.23 240.23 0 0 1 -49.58 0c-10.95-1.42-19.83-7.27-19.83-24.49v-7.46c0-10 0-19.31 17.12-21.24 18.29-2.07 36.76-2.53 55 0 17.12 2.37 17.12 11.27 17.12 21.24v7.46c0 18.76-8.88 23.07-19.83 24.49z" fill="#273c4d"/><path d="m307.48 13.48c-18.24-2.17-36.71-1.77-55 0-17.12 1.67-17.12 9.69-17.12 18.25v6.41c0 14.78 8.88 19.81 19.83 21 5.14.46 10.28.76 15.43.93l3-5.44a2.2 2.2 0 0 1 2-1.74h8.74a2.2 2.2 0 0 1 2 1.74l3 5.44c5.15-.17 10.29-.47 15.43-.93 11-1.22 19.83-4.92 19.83-21v-6.41c-.02-8.56-.02-16.21-17.14-18.25z" fill="url(#d)"/><path d="m292.52 9.83h-25.08l2.83-4.6a2.71 2.71 0 0 1 2.31-1.29h14.8a2.71 2.71 0 0 1 2.31 1.29z" fill="#273c4d"/><path d="m295 12.39 1.9.12z" fill="url(#e)"/><path d="m283.94 12h1.39q-4.38-.07-8.76 0c-4.9 3.11-8.5 7.17-9.91 12-2.86 9.89 4 20.71 14.73 28.84h3a2.2 2.2 0 0 1 2 1.74l1.39 2.5c1.7 1 3.46 1.94 5.26 2.79 2.31-.1 4.61-.24 6.92-.4z" fill="url(#f)"/><path d="m307.48 13.48c-3.3-.39-6.62-.69-9.93-.92l15.1 45c7-2.34 12-7.45 12-19.44v-6.39c-.05-8.56-.05-16.21-17.17-18.25z" fill="url(#g)"/><path d="m310.3 58.24-15.38-45.85c-1.61-.09-3.23-.17-4.84-.23l1.94.08 15.61 46.54c-.81.13-1.63.24-2.46.34l-15.76-47-2.88-.08 15.86 47.29 2.38-.18a38.86 38.86 0 0 0 7.88-1.59c-.76.27-1.54.49-2.35.68z" fill="url(#h)"/><path d="m572.61 27.58a6.35 6.35 0 1 1 -6.34-6.35 6.34 6.34 0 0 1 6.34 6.35zm13.39-27.58a6.35 6.35 0 1 0 6.34 6.34 6.34 6.34 0 0 0 -6.34-6.34zm27.95 12.69a6.34 6.34 0 0 0 -6.34-6.35c-.23 0-.45 0-.67 0a6.35 6.35 0 1 0 -6.34 6.35h.66a6.35 6.35 0 0 0 12.69 0zm0 5.81a6.35 6.35 0 1 0 6.34 6.34 6.34 6.34 0 0 0 -6.36-6.34z" fill="url(#i)" fill-rule="evenodd"/><path d="m575 45.22c.69 2.44 5 10.84 7.47 13.1v6.84h16c-.14-4.66-.14-9 .33-9.5 4.44-4.88 6.72-15 7.24-16.71.21-.68 7.08-11.4 8.6-13.64.41-1.09.72-2.52.18-3.14-.76-.64-1.15-.13-2.15.35-1.67 1.53-8.6 10.48-9.27 10.34s-1-.7-.85-1.51c.27-1.66 4.3-11.1 6.13-17.19.55-1.84.87-3.17-.39-3.65-1.75-.67-2.51.91-3 2.25-2.47 4.85-5.52 12-6.92 15.07-.6.74-1.82.89-1.6-.16 1.08-5.07 4.54-15.23 5.69-19.72.48-1.91.11-3.55-.75-4.12a2.67 2.67 0 0 0 -3.71 1.69c-.24.9-6.22 20.21-7.29 20.72s-2-1.46-2-1.46l.16-18s-.24-2.61-2.5-2.61-2.57 2.61-2.57 2.61l-1.29 26.5-.89 2.08c-1.48.62-1.26.6-2.12.65-2.64.15-2.51-2.08-4.9-4.68a30.12 30.12 0 0 0 -3.74-4.41 3.8 3.8 0 0 0 -4.79-.14c-.86.7.22 1.24 1.42 3.28 4.25 5.08 6.87 12.13 7 13.69z" fill="#273c4d" fill-rule="evenodd"/><path d="m676.31 58.81c7.27 4.15 14.23-7.24 20.44-11.9a2.34 2.34 0 0 1 1.22-.38h15.25a2.34 2.34 0 0 1 1.22.38c6.22 4.66 13.17 16.05 20.44 11.9 6-3.45 2.12-41.23-15.33-41.74a8.68 8.68 0 0 0 -1.35-.07h-25.2a8.68 8.68 0 0 0 -1.35.11c-17.28 1.97-21.39 38.25-15.34 41.7z" fill="#273c4d"/><path d="m721.68 39.48a2.73 2.73 0 1 1 2.72-2.72 2.72 2.72 0 0 1 -2.72 2.72z" fill="#43809e"/><path d="m727 28.68a2.72 2.72 0 1 1 -2.72 2.72 2.72 2.72 0 0 1 2.72-2.72z" fill="#33b1da"/><path d="m721.68 23.32a2.72 2.72 0 1 1 -2.68 2.68 2.72 2.72 0 0 1 2.68-2.68z" fill="#93e019"/><path d="m716.33 28.68a2.72 2.72 0 1 1 -2.73 2.72 2.72 2.72 0 0 1 2.73-2.72z" fill="#78c400"/><path d="m685.83 30.25a.25.25 0 0 1 .25-.25h4.09a.26.26 0 0 0 .25-.26v-4.08a.26.26 0 0 1 .26-.26h3.23a.26.26 0 0 1 .25.26v4.08a.26.26 0 0 0 .26.26h4.08a.26.26 0 0 1 .26.25v3.23a.26.26 0 0 1 -.26.26h-4.08a.26.26 0 0 0 -.26.26v4.08a.25.25 0 0 1 -.25.25h-3.23a.26.26 0 0 1 -.26-.25v-4.08a.25.25 0 0 0 -.25-.26h-4.09a.25.25 0 0 1 -.25-.26z" fill="#43809e"/><path d="m65.31 14.69v1.79l16.22 3.88 5.16-2.84v-2.83zm25.29 0v2.83l5.16 2.84 16.24-3.88v-1.79zm63.74 0v1.79l16.22 3.88 5.16-2.84v-2.83zm25.29 0v2.83l5.16 2.84 16.21-3.88v-1.79z" fill="url(#j)"/><path d="m132.84 55.88a12.67 12.67 0 1 1 12.67-12.66 12.68 12.68 0 0 1 -12.67 12.66z" fill="url(#k)"/><path d="m132.84 31.91a11.31 11.31 0 1 1 -11.3 11.3 11.3 11.3 0 0 1 11.3-11.3m0-2.71a14 14 0 1 0 14 14 14 14 0 0 0 -14-14z" fill="#273c4d"/><g fill="#fff" opacity=".3"><path d="m137.12 32.75a11.11 11.11 0 0 0 -3.05-.77l6.6 19.38a11.41 11.41 0 0 0 2-2.48z"/><path d="m136.41 53.94a11 11 0 0 0 2.4-1.14l-7.1-20.8a11.08 11.08 0 0 0 -2.59.58z"/></g><path d="m179.74 12.42h-4v11.39h-.4a1.82 1.82 0 0 0 -1.87 1.87v6.15h-18.32c-2.27 0-5.61-2-8.41-4-4.15-2.94-3.61-4.55-8.69-4.55h-9.75c-5.08 0-4.54 1.61-8.69 4.55-2.8 2-6.14 4-8.41 4h-18.31v-6.15a1.82 1.82 0 0 0 -1.89-1.87h-.4v-11.39h-4v11.39h-.4a1.82 1.82 0 0 0 -1.87 1.87v18.32a1.87 1.87 0 0 0 1.87 1.87h4.68a1.87 1.87 0 0 0 1.88-1.87v-4.69h4a.67.67 0 0 1 .68.68v20.42a.68.68 0 0 0 .67.68h2.71a.68.68 0 0 0 .68-.68v-20.41a.67.67 0 0 1 .67-.68h8.84c4.54 0 6.52 4.28 8.87 9.35a14 14 0 0 0 25.94-.29c2.18-5.16 4.55-9.06 9.42-9.06h8.76a.67.67 0 0 1 .68.68v20.41a.68.68 0 0 0 .68.68h2.7a.68.68 0 0 0 .68-.68v-20.41a.67.67 0 0 1 .68-.68h4.13v4.68a1.87 1.87 0 0 0 1.87 1.87h4.68a1.87 1.87 0 0 0 1.9-1.87v-18.32a1.82 1.82 0 0 0 -1.87-1.87h-.4zm-46.9 42.1a11.31 11.31 0 1 1 11.31-11.31 11.3 11.3 0 0 1 -11.31 11.31z" fill="#273c4d"/></svg>