<svg height="80.26" viewBox="0 0 748.72 80.26" width="748.72" xmlns="http://www.w3.org/2000/svg"><rect fill="#ff4800" height="23.39" opacity=".8" rx="4.31" width="23.39" x="138.28" y="55.75"/><rect fill="#93e019" height="23.39" opacity=".8" rx="4.31" width="23.39" x="138.28" y="28.73"/><rect fill="#43809e" height="23.39" rx="4.31" width="23.39" x="166.42" y="28.73"/><rect fill="#33b1da" height="23.39" opacity=".8" rx="4.31" transform="matrix(-1 0 0 -1 408.68 25.34)" width="23.39" x="192.65" y=".98"/><rect fill="#93e019" height="23.39" opacity=".8" rx="4.31" transform="matrix(0 -1 1 0 164.65 189.99)" width="23.39" x="165.63" y=".98"/><rect fill="#ff4800" height="23.39" rx="4.31" transform="matrix(-1 0 0 -1 627.68 135.95)" width="23.39" x="302.15" y="56.28"/><rect fill="#33b1da" height="23.39" opacity=".8" rx="4.31" transform="matrix(-1 0 0 -1 788.18 23.39)" width="23.39" x="382.4"/><rect fill="#ff4800" height="23.39" rx="4.31" width="23.39" x="410.27" y=".06"/><rect fill="#1a546b" height="23.39" opacity=".8" rx="4.31" transform="matrix(0 1 -1 0 514.24 -490.74)" width="23.39" x="490.8" y=".06"/><rect fill="#33b1da" height="23.39" opacity=".8" rx="4.31" width="23.39" x="219.77" y="28.73"/><rect fill="#93e019" height="23.39" opacity=".8" rx="4.31" transform="matrix(0 1 -1 0 298.9 -218.05)" width="23.39" x="246.78" y="28.73"/><g fill="#ff4800"><rect height="23.39" rx="4.31" transform="matrix(0 1 -1 0 325.92 -245.07)" width="23.39" x="273.8" y="28.73"/><rect height="23.39" rx="4.31" width="23.39" x="219.77" y="56.87"/><rect height="23.39" opacity=".8" rx="4.31" width="23.39" x="329.27" y="28.2"/></g><rect fill="#43809e" height="23.39" rx="4.31" transform="matrix(0 1 -1 0 407.87 -328.09)" width="23.39" x="356.29" y="28.2"/><rect fill="#33b1da" height="23.39" opacity=".8" rx="4.31" width="23.39" x="329.27" y="56.34"/><rect fill="#93e019" height="23.39" opacity=".8" rx="4.31" transform="matrix(0 1 -1 0 436.01 -299.95)" width="23.39" x="356.29" y="56.34"/><rect fill="#1a546b" height="23.39" opacity=".8" rx="4.31" transform="matrix(0 1 -1 0 463.03 -326.97)" width="23.39" x="383.31" y="56.34"/><rect fill="#93e019" height="23.39" opacity=".8" rx="4.31" transform="matrix(-1 0 0 -1 570.99 23.55)" width="23.39" x="273.8" y=".08"/><rect fill="#33b1da" height="23.39" opacity=".8" rx="4.31" transform="matrix(0 -1 1 0 246.7 270.25)" width="23.39" x="246.78" y=".08"/><rect fill="#43809e" height="23.39" rx="4.31" transform="matrix(0 -1 1 0 219.68 243.23)" width="23.39" x="219.77" y=".08"/><rect fill="#33b1da" height="23.39" opacity=".8" rx="4.31" transform="matrix(0 1 -1 0 568.6 -545.09)" width="23.39" x="545.15" y=".06"/><rect fill="#93e019" height="23.39" opacity=".8" rx="4.31" transform="matrix(-1 0 0 -1 952.74 79.78)" width="23.39" x="464.68" y="28.2"/><rect fill="#43809e" height="23.39" rx="4.31" transform="matrix(0 1 -1 0 489.24 -409.46)" width="23.39" x="437.66" y="28.2"/><rect fill="#ff4800" height="23.39" rx="4.31" transform="matrix(0 1 -1 0 461.85 -382.07)" width="23.39" x="410.27" y="28.2"/><rect fill="#93e019" height="23.39" opacity=".8" rx="4.31" transform="matrix(0 1 -1 0 517.38 -381.32)" width="23.39" x="437.66" y="56.34"/><rect fill="#33b1da" height="23.39" opacity=".8" rx="4.31" transform="matrix(0 1 -1 0 489.99 -353.93)" width="23.39" x="410.27" y="56.34"/><rect fill="#ff4800" height="23.39" rx="4.31" width="23.39" x="26.98" y=".06"/><rect fill="#1a546b" height="23.39" opacity=".8" rx="4.31" transform="matrix(0 1 -1 0 130.82 -107.31)" width="23.39" x="107.37" y=".06"/><rect fill="#1a546b" height="23.39" rx="4.31" transform="matrix(0 1 -1 0 79.72 56.34)" width="23.39" y="56.34"/><rect fill="#33b1da" height="23.39" opacity=".8" rx="4.31" transform="matrix(0 1 -1 0 160.75 -137.25)" width="23.39" x="137.31" y=".06"/><rect fill="#ff4800" height="23.39" opacity=".8" rx="4.31" transform="matrix(-1 0 0 -1 186.13 79.78)" width="23.39" x="81.37" y="28.2"/><rect fill="#43809e" height="23.39" rx="4.31" transform="matrix(0 1 -1 0 105.94 -26.16)" width="23.39" x="54.35" y="28.2"/><rect fill="#ff4800" height="23.39" rx="4.31" transform="matrix(0 1 -1 0 78.57 1.21)" width="23.39" x="26.98" y="28.2"/><rect fill="#93e019" height="23.39" opacity=".8" rx="4.31" transform="matrix(0 1 -1 0 134.08 1.98)" width="23.39" x="54.35" y="56.34"/><rect fill="#33b1da" height="23.39" opacity=".8" rx="4.31" transform="matrix(0 1 -1 0 106.71 29.35)" width="23.39" x="26.98" y="56.34"/><rect fill="#43809e" height="23.39" rx="4.31" width="23.39" x="301.14" y=".08"/><rect fill="#33b1da" height="23.39" opacity=".8" rx="4.31" transform="matrix(0 -1 1 0 328.08 351.63)" width="23.39" x="328.16" y=".08"/><rect fill="#93e019" height="23.39" opacity=".8" rx="4.31" width="23.39" x="670.97" y="28.73"/><rect fill="#43809e" height="23.39" rx="4.31" width="23.39" x="699.11" y="28.73"/><rect fill="#1a546b" height="23.39" opacity=".8" rx="4.31" transform="matrix(-1 0 0 -1 1474.06 25.34)" width="23.39" x="725.33" y=".98"/><rect fill="#ff4800" height="23.39" opacity=".8" rx="4.31" transform="matrix(0 -1 1 0 697.34 722.68)" width="23.39" x="698.32" y=".98"/><rect fill="#ff4800" height="23.39" rx="4.31" width="23.39" x="596.22" y=".06"/><rect fill="#93e019" height="23.39" opacity=".8" rx="4.31" transform="matrix(0 1 -1 0 726.59 -594.76)" width="23.39" x="648.98" y="54.22"/><rect fill="#43809e" height="23.39" rx="4.31" transform="matrix(0 1 -1 0 567.66 -487.88)" width="23.39" x="516.08" y="28.2"/><rect fill="#43809e" height="23.39" rx="4.31" transform="matrix(0 1 -1 0 622.82 -486.76)" width="23.39" x="543.09" y="56.34"/><rect fill="#33b1da" height="23.39" opacity=".8" rx="4.31" transform="matrix(0 1 -1 0 693.44 -669.94)" width="23.39" x="670" y=".06"/><rect fill="#93e019" height="23.39" opacity=".8" rx="4.31" transform="matrix(-1 0 0 -1 1272.32 79.78)" width="23.39" x="624.47" y="28.2"/><rect fill="#1a546b" height="23.39" rx="4.31" transform="matrix(0 1 -1 0 649.03 -569.25)" width="23.39" x="597.45" y="28.2"/><rect fill="#ff4800" height="23.39" rx="4.31" transform="matrix(0 1 -1 0 622.01 -542.23)" width="23.39" x="570.43" y="28.2"/><rect fill="#ff4800" height="23.39" opacity=".8" rx="4.31" transform="matrix(0 1 -1 0 677.17 -541.11)" width="23.39" x="597.45" y="56.34"/><rect fill="#33b1da" height="23.39" opacity=".8" rx="4.31" transform="matrix(0 1 -1 0 650.15 -514.09)" width="23.39" x="570.43" y="56.34"/></svg>