<svg id="Layer_1" data-name="Layer 1" xmlns="http://www.w3.org/2000/svg" xmlns:xlink="http://www.w3.org/1999/xlink" width="672.01" height="382.42" viewBox="0 0 672.01 382.42"><defs><style>.cls-1{opacity:.5;isolation:isolate;fill:url(#linear-gradient)}</style><linearGradient id="linear-gradient" x1="140.06" y1="446.41" x2="596.56" y2="-10.09" gradientTransform="matrix(1, 0, 0, -1, 0, 384)" gradientUnits="userSpaceOnUse"><stop offset=".25" stop-color="#273c4c" stop-opacity=".1"/><stop offset=".52" stop-color="#273c4c" stop-opacity=".15"/></linearGradient></defs><title>benefits-mobile-operators</title><path class="cls-1" d="M339.27,114.06l1.33-.11c-.35-.71-1-1.46-1-2.1s1-.87,1.58-1.31,1.09-.88,1.38-1.12l-3.77-9.28c-1.69,1.38-3.14,2.73-4.72,3.81a3.36,3.36,0,0,1-4.58-1.29c-.25-.46.09-1.35.17-2.2l-1.05.16c-.18-2.75-.38-5.49-.49-8.23a2,2,0,0,1,.52-1.41c1.41-1.16,2.89-2.19,4.33-3.28.67-.51,1.32-1,2.29-1.82,2.25.77,2.5-3.3,4.89-3.68l-1-.66c2.21-.62,2.74-1.86,2.89-4.25.47-.29.9-.4,1.11-.71.43-.67.71-1.48,1.14-2.15.75-1.19,2.16-1.72,2.25-3.6,0-.46,1-.87,1.51-1.27a5,5,0,0,0,1.29-1.17l-6.33,2-.12-.32,4.33-1.85-1.76-.57,3.27-2.33c-.11.59-.19,1.06-.29,1.61,1.13.1,2.45,1.79,3.08-.91l-1.1.23-.29-.51L354.7,62l1,1.58L367.14,58l.11.41-1.76,3.19.39.38,2.59-3.51v2.77c.74-1.3,1.06-2.49,1.71-2.85.86-.47,1.71,0,1.29,1.6,1.3-1.12,3-.66,5.1,1.41l-2.47,1.1v.58l6.1.34v.48l-.9.41a65.9,65.9,0,0,1,8.16,2.42,42.66,42.66,0,0,1,6.76,4.17c1.92,1.31,2.08,3.33.27,4.71-1.18.9-2.76,1.79-4.06,1.62a32.25,32.25,0,0,1-11.19-3.29,29.22,29.22,0,0,0,2.91,2.65c1,.71,1.76,1.21,1.14,2.88-.42,1.14.9,3.41,1.9,3.89.8.39,1.49,1.1,2.3,1.41a5.74,5.74,0,0,0,1.94,0l.19-.55-2.87-2.32c.55-1.53,1.17-1.66,2.28-1,1.48.86,3,2.27,4.81.72-1.44-2.46-1.41-3,1-4,1.26-.5,2-2.6,3.72-1.68.65.35,1.35.59,2.15.94.4-1.18,1.64-2.44-.19-3.72-.16-.11-.11-.92,0-1.3.55-1.5,1-2.93-.91-3.84,4.75.35,4.75.35,6,2.49l-3.43,1.61c1.55,1.37,2.54,3.14,4.41,2.09.34-.18.84-.49.88-.81a2.64,2.64,0,0,1,1.94-2.31c1.75-.76,3.4-1.79,5.14-2.59.53-.24,1.19-.1,1.58-.43L419.45,66c-.28,1.35-.47,2.22-.74,3.56l2.7-1.19c.38-.17.79-.48,1.16-.43a8,8,0,0,0,5.06-1.27c.9-.5,1.48-.23,1.33,1.2,0,.24.8.89.88.81a29.37,29.37,0,0,0,2-2.17c-.74-1.68-1.62-3.2-3.44-3.58-.3-.07-.46-1.06-.68-1.62.51,0,1.21-.27,1.5,0a8.06,8.06,0,0,0,5.6,2.24c3.56.31,6.59,2.43,9.6,4.42,1.31.86,2.12,1.15,2.54-.7-.58-.76-1.11-1.46-1.65-2.15-.15-.2-.31-.55-.46-.55-2.51.06-1.63-1.66-1.28-3.22.14-.62.82-1.71-.51-1.88.19-.72.22-1.89.6-2.08a5.62,5.62,0,0,0,3-4.3c.35-1.71,1.06-2.65,2.74-2.21a22.69,22.69,0,0,0,3.49.36c1.2.12,1.5,1,1.11,2.18s-.9,2.35-1.4,3.63c1.49,1,1.58,2.51,1.11,4.52a10.93,10.93,0,0,0,0,4.34c.16.86,1,1.54,1.72,2.54-1.36,3-2.66,6.39-6.13,7.26.39.57,3.19,1,3.79.4,1.29-1.41,2.52-2.91,3.86-4.25a1.86,1.86,0,0,0,.36-2.52c-.66-1.22-.25-1.91.83-2.33,2.91-1.11,4.09-.16,4.2,3.38a1.49,1.49,0,0,0,.23.71c.2-1.35,1.71-2.79.31-4A8.57,8.57,0,0,0,459,65.71a8.77,8.77,0,0,0-2.79.4c-.63-2-.88-3.66.32-5.28.2-.27-.22-1.34-.5-1.93a20.25,20.25,0,0,0-1.5-2.27,10.41,10.41,0,0,1,2.15-1.76c1.57-.7,2.16-1.66.9-3.76,1.76.09,1.9,1.36,1.84,2.52a28.63,28.63,0,0,1-.65,3.68l5.51,1.14.14-.34a18.52,18.52,0,0,1-2.23-1A19.09,19.09,0,0,1,460,55.53l.26-.93,3.6.4.06-.35-2.11-1.37c.76-1.26,1.56-1.82,2.73-.6.27.27.79.16,1.16.32A12.69,12.69,0,0,1,469,54.61c1.12.94,2.15,1.37,3.45.85,1.76.61.54,1.19,0,1.83a12.33,12.33,0,0,0-.77,1.25c.33.1.74.09.95.33A1.75,1.75,0,0,1,473.1,60a13.11,13.11,0,0,1-.48,2.15l1.47-1.37c-.17-1.42-.62-2.66-.37-3.68.42-1.74,0-2.06-1.28-1.63-.81-.77-1.53-1.92-2.44-2.22-2-.64-.87-2.92-1.78-4,.68-.49,1.31-1.31,2-1.42,2.91-.45,5.84-.68,8.76-1,.59-.06,1.42-.55,1.24.9l1-.36-2.47-2.63.73-.61-1.13-.67c0-.1,0-.24.08-.29,2.67-2.49,6-3,9.11-4,1.14-.34,2.84,0,3.39-.81,1.6-2.36,4-.61,5.66-2,.26-.22.77,0,1.47,0L497,37.94l6.64-1.45-1.34-.61.28-.39,3.5-.21c.72-4.64,5-6.5,9.75-4.09L513.7,32.6l4.72.6-1.13,1.57h10.43c.2.76.38,1.46.57,2.17.77-.31,2.08.81,1.9,1.69-.29,1.43-.54,2.84-1.93,3.64-2.81,1.63-5.52,3.53-8.3,5.26-1.07.66-2.23,1.1-3.32,1.73a17.45,17.45,0,0,0-1.81,1.51l8.88-2.62-1.32-1.06c1.2-1.13,2.23-.73,3.39-.24a11.68,11.68,0,0,0,2.93.5l.26-.59c.17.62.34,1.23.52,1.86,3.2-1.71,6.54-.65,10-.47-1.27,1.91.28,1.83.9,2a34.26,34.26,0,0,0,4.51.54,4,4,0,0,0,2.36-.14c.52-.34.65-1.49,1.17-2.85,1.46-1.46,3.18.88,5,.88.28,0,.59.19.83.09,2-.83,4.19.86,4.28,3.37,0,.12-.11.26-.09.36.14.63.29,1.26.44,1.88l-1.78-.4-.15.23,2,1.51c0,.09-.28.67-.19.76a37.08,37.08,0,0,0,3.39,3c.18.13.94-.42,1.17-.85.6-1.1,1-2.31,1.68-3.76,1.54,2.56,3.29,2.24,5.5,1.64s4.53.09,6.8.21h1.24l-.85-3c-.33-2.25,2.78.3,2.76-2.52,2.85.44,6,.32,8.71,1.51S595.1,52,597.6,55l-1.79.68c1.34.53,2.43,1,3.51,1.41.44.18,1.07.25,1.28.63,1.23,2.25,2.92,1.24,4.56,1.14a36.62,36.62,0,0,1,8.24,0c2.43.39,2.73,1.44,2.29,4.28a5.91,5.91,0,0,0,5,.79c2.14-.42,4.42.26,6.65.3a3.52,3.52,0,0,0,2.61-.68c1.11-1.25,2.1-1.2,3.44.06l-2.28.76c1,1.27,2.14,2.46,3.65,2.65s1.89-1,1-2.22a2,2,0,0,1-.15-2.45c3.38.19,6.7-.15,9.8.69,3.44.93,6.7,2.86,10,4.49,1.61.8,3.08,2,4.67,2.82a4.59,4.59,0,0,1,2.77,4,1.94,1.94,0,0,0,1,1.43V73.47c3-.31,5.64,1.32,8.17,4l-4.15,2.41-.19-.41c-.36,1.13-.72,2.25-1.09,3.38-.75,1-1.8.9-2.89-.11-.48-.45-1.2-.5-1.77-.84s-1.07-.64-1.15-1.08a1.72,1.72,0,0,0-1.72-1.7,1.63,1.63,0,0,0-.75.18c-2,.66-3-.17-3.33-2.51l-1.33.56c0,.27-.11.46-.06.53,1.08,1.45.64,2.55-.66,3.2s-2.82,1.17-4,1.66c1.06,1.76,2.37,4,3.67,6.13l-.16.79a5.77,5.77,0,0,1-2.22.27,5.46,5.46,0,0,0-3.91.36,49.32,49.32,0,0,0-9.8,6.08c-.56.45-1.11.92-1.52,1.26-1-.39-2.35-1.32-3.62-1.24s-2.51,1.17-3.82,1.85V96.71c-1.46.61-2.61,2.14-4.25,1.42a.51.51,0,0,0-.49.17c-1.06,2-2.09,4.08-3.25,6.35l2.72.28c-1.07,1.52-1.42,2.76-.24,4,.08.09-.46,1.42-.7,1.42-1.66,0-2.47,1.16-1.72,3,.54,1.32,0,1.72-.85,1.85-2.71.46-2.89.64-2.83,3.76-1.54.17-2.45,1-2.94,3-.35,1.4-1.73,2.45-2.94,4-.46-2.21-.9-3.78-1.1-5.39-.43-3.55-1.89-7-.78-10.7.26-.87,1-1.55,1.21-2.42.75-2.61,3-2.88,4.5-4.32,1.9-1.84,3.61-3.95,5.45-5.87.69-.72,1.57-1.16,2.25-1.89a7.93,7.93,0,0,0,1.52-2.27c.5-1.18.81-2.48,1.19-3.71-1.89-.49-2.64.36-2.44,2.67-1.28.91-2.4,1.76-3.56,2.52-.59.39-1.63,1.08-1.81.86a1.94,1.94,0,0,1-.19-2.71c.11-.12.11-.39.19-.74-2.24.32-4.62-.87-6.53,1.32-1.61,1.84-3.17,3.75-4.85,5.74l2,.94v.49l-7.31,1.15-.11-.58,1.12-.63a4.25,4.25,0,0,0-5.23-.58,1.7,1.7,0,0,1-1.09.33c-2.75,0-5.5,0-8.25-.2s-4.15,2.25-6,3.87c-.82.72-1.44,1.73-2.22,2.53-2.55,2.6-5.13,5.17-8,8l2.9.6v2.47l1.34-2.16.29,2.69a11.26,11.26,0,0,0,1.51-1.25,2,2,0,0,1,2.78-.53,1.91,1.91,0,0,1,.53.53,5.62,5.62,0,0,0,.43.65c.81.82,2,1.23,1.5,3.1-.27,1.13.32,2.42-.67,3.55a4.08,4.08,0,0,0-.77,2.7c.39,3.73-1,6.49-3,9.15-2.26,3.09-4.34,6.36-6.51,9.53-1.51,2.2-3.58,2.76-6.12,1.79a1.25,1.25,0,0,0-1.06.31,23.66,23.66,0,0,0-2.13,2c-.43.45-1.13,1-1.11,1.52.11,2.65-1.63,3.27-3.09,4.16s-1.48,1.49-.27,2.83a10.66,10.66,0,0,1,2.84,7.69,2.34,2.34,0,0,1-.82,1.72c-1.71.85-3.5,1.47-5.33,2.21-.19-2.35,1.66-4.29-.17-6.28l1.62-1.39-4.14-1.88c.42-1.17.77-2.17,1.13-3.18-3-2.87-5.21.11-7.86,1.19.6-1.25,1.23-2.49,1.76-3.78.1-.23-.16-1-.33-1-.54-.11-1.27-.26-1.64.06-1.23,1.1-2.31,2.44-3.51,3.58-.38.36-1,.37-1.45.62a15.8,15.8,0,0,0-1.39.91c.38.45.72,1.24,1.13,1.29,1.28.14,1.76.85,1.5,2.47.51,0,1.14.18,1.25,0,1.34-2.45,3-.67,4.58-.58.24,0,.47.46.71.7-.26.26-.49.66-.79.74-1.86.49-4.22,2.67-5.26,4.92,2.63,2.49,3.76,6,4.9,9.47l-1.7,1.26c2.24,1.66,2.25,3.8.11,5.75-1.12,1-2.65,4.8-2.48,5.75-3.37,3.3-6.36,7.36-11.13,7.28a26.52,26.52,0,0,1-2.59,1.6c-.81.38-1.8.31-2.5.84a10.62,10.62,0,0,0-1.71,2.63c-.29-.82-.62-1.72-1-2.84-3-1.53-4.67,1.38-6.48,3.67a2.52,2.52,0,0,0,.06,3.36c1.4,1.63,2.74,3.33,4,5.08a11.25,11.25,0,0,1,1.75,9.36,2.7,2.7,0,0,1-1.2,1.64c-2.4,1.29-4.22,3.48-6.25,5.36a2.5,2.5,0,0,1-.64.25,7.52,7.52,0,0,1-.08-1.42c.31-1.61,0-2.52-1.57-2.76-.61-.09-1.35-1-1.63-1.73a4.28,4.28,0,0,0-3.82-3.14,3,3,0,0,0-.2-.6c-.21-.39-.46-.75-.69-1.13-.28.34-.7.63-.82,1-.51,1.76-1,3.55-1.38,5.35-.26,1.14-.82,2.29.77,3,.61.29.69,1.94,1.17,2.85a4.79,4.79,0,0,0,1.59,2c2,1,3.87,4.23,4.09,6.8a28.3,28.3,0,0,0,1.47,5.2c-.33.09-.87.45-1.15.27-2.51-1.65-5-3.29-5.67-7.09a12.94,12.94,0,0,0-2.86-6.93c-.28-.31-.75-.39-1.58-.8,1.6-6.63.42-13.3-1.89-19.44a21.27,21.27,0,0,1-4,2.39c-1.05.35-1.61-.45-1.27-2a11.28,11.28,0,0,0-.14-3.8c-.06-.42-.67-.73-1.21-1.26v-1.55a6.47,6.47,0,0,1-3.26-5.09c-.18-1.65-.87-1.19-1.74-.87a31.3,31.3,0,0,1-4.92,1.48c-1.24.23-2.51-.07-2.45,2.2,0,.52-.58,1.18-1,1.59-1.85,1.77-3.71,3.51-5.63,5.16-1.75,1.51-3,3.89-5.32,4.46-.32.08-.55,1.4-.61,2.17-.21,3-.17,6.13-.59,9.12-.16,1.17-1.3,2.15-2,3.18-.35.5-.8.91-1.12,1.42-.67,1.07-1.38,1.26-2.2.28a4,4,0,0,1-.77-1.14c-1.18-3.31-2.3-6.65-3.47-10-.47-1.34-1-2.63-1.5-4-1.31-3.88-2.33-7.81-1.95-12.11a9.66,9.66,0,0,0-.76-3.43c-.1,2-1.22,3.39-2.57,3s-2.65-1.88-4.31-3.16l2.8-1c-2.66-.24-4.18-2.22-5.61-4.4-.8-1.22-1.57-2.14-3.22-1.9a33.25,33.25,0,0,1-13.07-.38c-1.3-.32-2.32-.58-2.59-2.45-.19-1.3-.7-1.93-1.81-.49-1,1.27-4.25.42-6.07-1a12.69,12.69,0,0,1-4.28-5.36c-.94-2.32-2.52-2.16-4.77.43,1.12,1.78,2.3,3.61,3.44,5.49a8.74,8.74,0,0,1,.82,1.91c.22.66.33,1.37.58,2.47l1.2-2.35h.59a11.12,11.12,0,0,1,.17,2.76c-.36,1.85.47,2.06,1.61,1.9,3.78-.53,3.87-.62,7.39-5.24a7.5,7.5,0,0,0,0,2.41c.49,1.17,1.1,3,1.87,3.14,2.07.45,3.22,2,4.57,3.81-1.09,1.47-1.43,3.6-3.32,4.49-.51.23-.57,1.8-.74,2.43a57.17,57.17,0,0,1-4.71,4.63c-.9.71-2.18.76-3.28,1.13s-2.17.42-2.26,2.15c0,.23-.37.52-.62.64-2.31,1.09-4.63,2.15-7,3.2-1.84.84-3.74,1.51-5.53,2.48-2.07,1.13-3.1.68-3.55-2-.32-1.85-.53-3.72-.79-5.58a1.34,1.34,0,0,0-.17-.59c-2-2.64-2.63-6.44-5.31-8.6-.85-.69-1.33-2.44-1.48-3.78a7.78,7.78,0,0,0-2.36-5.08c-.93-.92-1.39-2.5-2.09-3.75-1.08-1.92-1.78-4.2-3.66-5.53.06-.37.14-.89.22-1.41l-.15-.05-.85,2.73-2.33-2.32c1.64,3.73,3,6.92,4.44,10.14.19.45.16,1,.34,1.49a5.82,5.82,0,0,0,1.05,2.2,6.37,6.37,0,0,1,2,5c0,2.14.35,3.81,2,5.17a6,6,0,0,1,1.59,3.55c.22,1.91,1.27,2.72,2.37,3.73a71.18,71.18,0,0,1,5.05,5.08c.32.36.12,1.4.15,2.12l-.44.06a1.51,1.51,0,0,1,.21.23c2.12,3.72,4.85,1.85,7.46,1.16.74-.2,1.49-.29,2.23-.48l5.23-1.36c.44,3.77-1.1,6.76-2.68,9.67-1.81,3.31-3.72,6.56-5.71,9.72-.61,1-1.7,1.47-2.48,2.31-2.16,2.34-4.28,4.73-6.4,7.12a11.38,11.38,0,0,1-1,1.39c-2.35,1.93-3.07,5.07-4.25,7.87-.15.35-.35,1-.22,1.15,1.9,2.06.33,5.09,1.49,7.33.12.23.08.67.23.78,2.16,1.61,1.1,4.23,1.43,6.4.19,1.28.24,2.6.4,3.89.25,1.93-1.69,5.12-3.86,5.86-3.07,1-4.57,4.45-7.07,6.34-.22.17-.17,1.23,0,1.71a14.44,14.44,0,0,1,1.09,7.4,3.67,3.67,0,0,1-1.34,2,12.15,12.15,0,0,1-2.13,1c-1,.55-1.65,1-1.44,2.87.24,2.12-.05,4.61-2,6.12a5.13,5.13,0,0,0-1.31,1.94,22.79,22.79,0,0,1-6.49,8.15c-2.51,2.1-5.47,2.08-8.42,2.18a20.07,20.07,0,0,0-5.06,1.26c-.84.26-3.28-.7-3.63-1.66s-.55-1.63-.89-2.62c1.05-1,.8-2.21.08-3.58s-1.13-2.74-1.71-4.11a8.1,8.1,0,0,0-1.23-2.5c-2.09-2.07-2.65-4.89-2.88-7.83a33.36,33.36,0,0,0-5-15.21c-1.19-1.92-.69-3.95-.55-5.86s.47-4.35,1.51-5.68c2.27-2.91,2.65-5.64.89-8.9.72-2.71-.88-4.75-1.38-7.11-.65-3.11-2.46-5-4.12-7.11a9.66,9.66,0,0,1-1.47-2.06c-.5-1.1-1.08-2-.33-3.66.89-2,1-4.54,1.21-6.88.18-1.79-1.71-3.67-3.26-3.5a9.29,9.29,0,0,0-1.57.23c-1.74.52-3,.42-3.66-2.12a3,3,0,0,0-3.24-2.27c-3.36,0-6.19,2-9.26,3.05a3.34,3.34,0,0,1-2,.13c-2.49-.74-5-.86-7.27.51s-3.8.25-5.48-1.14c-1.86-1.54-3.77-3-5.59-4.63a3.47,3.47,0,0,1-1.33-2c0-2.73-2-3.76-3.13-5.43-.74-1-1.88-1.69-2.66-2.7a6.61,6.61,0,0,1-.93-2.47c-.26-1.16-.37-2.36-.59-3.89.51-1.75,1.29-4,1.82-6.36a6.51,6.51,0,0,0-.3-2.84c-.43-1.65.28-3.79-1.46-4.94-.13-.08,0-1,.19-1.39.68-1.67,1.16-3.59,2.2-4.87s1.34-3.12,2.21-4.31c1.45-2,2.17-4.81,4.8-5.78,1.53-.56,2.69-2.54,4-3.93a1.33,1.33,0,0,0,.28-.94c-.66-4.18,1.12-6.5,4.06-8.34,1.1-.69,1.8-2.42,2.48-3.81.59-1.18.88-2.27,2-.58a2.56,2.56,0,0,0,1.71.77,20.89,20.89,0,0,0,3.26.16,2.77,2.77,0,0,0,1.66-.44,18.49,18.49,0,0,1,10-3.82c2.54-.28,5.11,0,7.67-.08a3.34,3.34,0,0,0,1.54-.44c1-.54,1.92-1.18,2.77.32.12.21.8,0,1.46-.07l-1.2,2.19c1.59,1.47,1.28,2.84-.17,4.18a1.82,1.82,0,0,0-.36,1.21c0,.16.56.25.84.44a9.5,9.5,0,0,0,2,1.44c1.87.65,3.79,1.1,5.69,1.64.28.08.76.2.78.37.38,2.77,2.38,2.39,3.93,3,.88.33,1.64,1.08,2.52,1.45a1.74,1.74,0,0,0,1.6-.06c.45-.37,1-1.38.86-1.81a2.45,2.45,0,0,1,1.13-3.27l.15-.07c1.49-.83,3-1.23,4.43.25a2.7,2.7,0,0,0,.92.76c3.28,1.06,6.56,2.11,9.85,3.07a2,2,0,0,0,1.45-.45,4.67,4.67,0,0,1,4.94-.35c2.35,1.09,3.88.21,4.55-2.48a20.38,20.38,0,0,1,.83-2.76c.72-1.79,1.53-3.5,1-5.66a9.19,9.19,0,0,1,.43-2.8,35.88,35.88,0,0,1-4.73,1.78,4.83,4.83,0,0,1-2.55-.6,22.81,22.81,0,0,1-2.34-1.25c-1.19,2.21-1.61,2.28-3.47.8-.28-.22-.73-.45-1-.34-1.16.54-1.75-.59-2-1.33-.53-1.63-1.33-2.6-3.29-2.68,1.12-.71,2.67,0,2.16-2l-1.29.2c-.62-1.63,1.55-3.48-.55-4.63-1.35-.74-3,.14-4.09,2L361,153.9l-.4.34c.74,1.29,1.45,2.61,2.21,3.88a19.16,19.16,0,0,0,1.26,1.7l-2.08,1c-.13.8-.3,1.92-.47,3.05l-.85-.28c-1.5-.45-2.3-1.93-2.28-3.8,0-.48-.57-1-1.19-2v2.07l-.44-.07c.13-.73.27-1.45.42-2.28a6.15,6.15,0,0,1-2.28-6.3,1.53,1.53,0,0,0-.43-1.13,16.11,16.11,0,0,0-2.77-2.16c-2.18-1.23-4.33-2.44-5.52-5.15-.11-.25-.47-.55-.7-.52-1.44.17-1.6-.87-1.46-2.39L342,141c-.59,2.4.19,3.93,2,4.88a1.72,1.72,0,0,1,.57,1c.64,2.4,2,3.51,3.73,3.37a10.57,10.57,0,0,0,1.42,1.71c.79.6,1.71.95,2.48,1.58a7.42,7.42,0,0,1,1.15,1.69l-.35.36a14.21,14.21,0,0,0-1.87-1.21.92.92,0,0,0-1,.28,2.27,2.27,0,0,0-.14,1.43c.13.6.78,1.44.65,1.64-.68,1-1.44,2.35-2.38,2.66a1.37,1.37,0,0,0-1.1,1.75c.16,1.45-.36,1.76-1.39,1.15-.88-.53-1.76-1.08-2.61-1.68a7.86,7.86,0,0,1-1.08-1,6.13,6.13,0,0,1,1.64-.66,22.06,22.06,0,0,0,3.25-.18c.67-.19,1.7-1,1.72-1.61a4.24,4.24,0,0,0-1.06-2.86c-2.38-2.13-5-3.94-7.38-6.06a9,9,0,0,1-2.13-3.14c-.9-2.08-2.31-2.34-4.05-1.31s-3.42,3.66-6,1.76c-.64-.46-1.85.09-2.77.34a1.45,1.45,0,0,0-.55,1.16c1,3.21-1.25,3.47-2.73,4.14-1.77.8-2.52,2.6-3.43,4.22-.23.4.31,1.41.54,2.29-1.15,1.31-2.37,2.84-3.73,4.17a3.3,3.3,0,0,1-2,.68c-1.58.11-3.17-.09-4.45,1.45-.17.21-1.28-.13-1.4-.48-.65-2-1.72-2.43-3.35-1.75a2.1,2.1,0,0,1-1.19-.08c-.54-1.51-1.07-2.78-1.44-4.11a2.84,2.84,0,0,1,.16-1.75c1.59-3.16,1.06-6.32.18-9.58,2.21-2.61,5-1.23,7.52-1.19,1.86,0,3.72.35,5.58.37a1.68,1.68,0,0,0,1.23-1.08,22.57,22.57,0,0,0,.57-4.92c-.06-2.42-2.38-5.09-4.54-5.8a11.57,11.57,0,0,1-2.24-1.41l.18-.89a13.74,13.74,0,0,1,2.83-.61,17.17,17.17,0,0,1,3.18.61c-.27-1.23-.45-2.07-.71-3.27l1.27.6c.89.45,1.75,1.15,2.55-.31.24-.45.92-.54,1.37-.85s1.05-.66,1-1c-.11-2,1.17-2.11,2.23-2.61a7.67,7.67,0,0,0,3.65-4.28,4.12,4.12,0,0,1,2.12-2.09c1.36-.51,2.88-.44,4.28-.83.53-.15,1.38-.94,1.34-1.33a13.8,13.8,0,0,0-1-4.25c-.89-1.89-.16-4.5,1.56-5.18a16.92,16.92,0,0,0,2.82-1.85,12.62,12.62,0,0,0-.47,2.79c.05.57.57,1.09.82,1.53l-1.73,2.6c-1.2,2.77,1.6,2.83,2.18,4.41.06.16.77.12,1.11,0,1.16-.52,2.29-1.12,3-1.47.93.91,1.58,2,2.14,2a12,12,0,0,0,3.47-1.35c1.59-.74,3.12-2.78,4.85-.18.15.23,1,0,1.44-.27.92-.57,1.76-1.29,2.77-2a18.46,18.46,0,0,1-.1-4.07,6.44,6.44,0,0,1,1.71-3.31c1.11-1.06,1.66.52,2.38,1.25.3.3.94.56,1.21.38a2.38,2.38,0,0,0,.73-1.43,13.59,13.59,0,0,0,.13-2.21l-.42.33a7.15,7.15,0,0,1-1.25-2.42A2.4,2.4,0,0,1,364,100a33.87,33.87,0,0,1,4.83-.31c.63,0,1.34.27,1.89,0a34.43,34.43,0,0,0,3.35-2c-1.38.25-2.34-2-4.19-1.26a25.08,25.08,0,0,1-5.32,1.38,7.37,7.37,0,0,1-3.17,0A10.38,10.38,0,0,1,359,96.5c-.25-2.31-.56-4.38-.65-6.47a4.17,4.17,0,0,1,.66-2.59c1.8-2,3.76-3.77,5.67-5.62.31-.3.64-.58,1.34-1.2.44-1.35-.69-1.88-1.89-2.18a9.75,9.75,0,0,0-2.29,0c-1.71,0-3.29,2.07-3.11,4a1.85,1.85,0,0,1-.28,1.21,17.88,17.88,0,0,1-2.84,2.66c-2.14,1.45-4,3-4.39,6.22-.2,1.6-.65,3.07,1.24,3.8.74.28,1.29,1.3,2.07,2.15-.79,1-1.34,2.34-2.18,2.75a4,4,0,0,0-2.39,4.24c.05.85.33,1.69.33,2.54a2,2,0,0,1-.57,1.4c-.8.41-1.74.43-2.53.85a13.32,13.32,0,0,0-2,1.67c-.72.24-2.3,1.85-2.3-.93a9.53,9.53,0,0,0-.9,1.19,4.87,4.87,0,0,0-.2.92c-.56,1.89-1.14,2.08-2.48,1Zm40.52,26.61,1.36-1.09c-1.17-.38-2.56-.34-3.22-1.15-.95-1.14-1.43-.67-1.88.16-.67,1.23-2.35,1.67-2.07,3.66,0,.11-.39.25-.52.45-.44.62-.85,1.27-1.23,1.93a15.45,15.45,0,0,1-1,1.94c-1.29,1.61-.71,4.65,1.18,5.22s3.93,1,5.91-.5a7.93,7.93,0,0,1,3.66-1.13c1.67-.26,3,1,4.55,1.49a20.41,20.41,0,0,0,7.2.91,3.41,3.41,0,0,0,2.52-2.13c.39-1.33-.65-2.4-1.77-3.17-2.25-1.55-4.41-3.3-6.6-5a3.19,3.19,0,0,1-.54-.56L390,139l-.79-1.17,2.4-1.38-.19-.62-7.87,3c.78,1.92.78,1.92,3.3,2.31-.18.31-.28.72-.49.82-1.38.62-2.76,1.23-4.18,1.71-.27.09-.77-.32-1-.65a27,27,0,0,1-1.39-2.39ZM412,143.32c.76-.15,1.45-.14,1.49-.31.36-1.83,1.48-1.92,2.78-2.17.49-.09.93-1.41,1.16-2.26.13-.45-.17-1.54-.36-1.57-1.23-.19-2.66-.66-3.69-.12-2.84,1.51-5.84,3-7.49,6.3.5.91,1.26,1.69,1.31,2.52.21,4.1,3.2,5.78,4.68,8.67-.92.51-2.12,3.23-2.17,5,0,2,1.44,1.76,2.18,2.6,2.28,2.57,4.6,1.75,7,.91a28.11,28.11,0,0,0-.05-4c-.16-1.14-.45-2.81-1.11-3.18-1.41-.79-.69-1.66-.62-2.56h3.27l.23-.66a5.25,5.25,0,0,1-1.24-1.11c-1.21-2-1.61-2-2.79.24v-3.24l-.44.38Zm-42.68,11.1,3.88-.71c-1.84-1.45-2.76-1.25-3.84.71ZM88.53,132.94a32.35,32.35,0,0,1-7.84-6.53l.19-.57,3.29.88c-1-1-2.21-1.61-2.54-2.65-.59-1.79-2-2.68-2.65-4.35-.09-.23-.33-.38-.51-.55L76,116.94l1.71-.73-4-4.24.25,2.21c-2.56.15-2.56.15-3.23-5.14L70,110.66,69.49,108l1.79-.93-.45-2.33-2.19,4.88-3-5.74a1.22,1.22,0,0,0-.32-.28c-1.65-1.17-3.33-2.29-4.95-3.51A3.51,3.51,0,0,1,59.66,99l-3.09-.65c-.92-.2-1.88-.72-2.75-.56A7,7,0,0,1,48,95.91c-1.38-1.16-2.7-1-4.15-.6.08.62.47,1.7.18,2.14s-1.33.37-2,.7c-1,.51-1.82,1.24-2.75,1.78a23.39,23.39,0,0,1-2.4,1.07c.89-2.84.22-6.24,3.68-6.33-.94-1-1-1-2.45,0a7.32,7.32,0,0,0-1.2,1.16L33,100.66l1.84,1.17L20.66,113.07c-.73-.85-1.41-.77-2.51.08a25.14,25.14,0,0,1-4.95,2.47l-.34-.67c.59-.44,1.16-.91,1.77-1.3a31.79,31.79,0,0,0,2.85-1.73c1-.8,1.89-1.77,3-.93a10.53,10.53,0,0,1,1.91-2.09c2.14-1.29,4-2.77,4.22-5.93,0-.3.32-.57.53-.91H24.32l-.19,1c-.92-.53-1.71-1-2.54-1.44a1,1,0,0,0-.82,0c-.64.37-1.25.84-2,1.36l-.85-5.35c-2.63,1.64-3.55,1.45-5.34-.89-.07-.1-.22-.18-.24-.29a6.18,6.18,0,0,0-.3-2A6.74,6.74,0,0,0,10.44,93l2.85-5c.19-.32.64-.81.77-.73,1.6.93,2.79-.52,4.17-.84,2.46-.58,2.69-.88,1.28-3.46l1-1c-.44-.14-.72-.34-.83-.25-2.09,1.82-4.58.8-6.86,1.31a3.17,3.17,0,0,1-2.39-.5C10,82.21,10,81.1,9.7,80.39c-.1-.25-.44-.41-.69-.51a5.13,5.13,0,0,1-2-1.2L14.7,74.9c.19,2.48,2.3,3.1,4.41,1.7l-2.19-2.42,1.61.24V74c-.46,0-.92-.08-1.38-.09a3.34,3.34,0,0,1-2.68-1.52c-1.28-1.51-3.08-2.41-4.63-3.55L10.65,67c.94-.1,1.82-.2,2.7-.28a3.37,3.37,0,0,0,2.86-2.4,5.87,5.87,0,0,1,3-2.91c2.56-1.41,5.55-1.41,7.85-3.3a2.09,2.09,0,0,1,2.77-.18c.14.07.13.55.13.55.74.2,1.41.42,2.1.56a9.1,9.1,0,0,0,1.38.05c1.1,0,2.11-.5,3.13,1,.58.85,2.5.43,3.82.59.92.12,1.84.19,2.76.36,3.1.57,6.14,1.81,9.36,1.05a2.81,2.81,0,0,1,1.22.15c2.2.62,4.4,1.25,6.6,1.91.29.09.52.43.81.57a32,32,0,0,0,4.08,1.88c.43.14,1.07-.53,1.59-.87,1-.63,1.93-1.29,3-2,.69,1.22,1.32,1.16,2.43.48a45,45,0,0,1,6-2.62l.26.64-.72.94c.85,0,1.78.21,2.35-.21s.92-1.57,1.53-2.7l4.18,5,1.84-4L88.5,65c.32-.1,1.07,0,1.35-.43,1.59-2.29,3.28-1.17,5-.44,2.89,1.21,5.66,3.06,8.93,2.43,1.22-.23,2.63.82,3.47,2.31L105,70.17l.14.89a35.51,35.51,0,0,0,6.52-.09c2-.36,3.72-.49,5.42.84.23.17.53.22.3.13l5-3.75-5,1.59-.3-.93a7.6,7.6,0,0,1,1.4-1c.77-.34,1.61-.46,2.38-.8,1.12-.5,1.83-.34,2.4,1.1.31.77,1.22,1.74,1.81,1.7,2.39-.17,4.4,2.25,7,1.12,1-.44,2.3.06,3.58.14L136,69l2-.89-3.59-1.48a22.76,22.76,0,0,1,2-2.68c.38-.38,1.23-.69,1.55-.45a33.45,33.45,0,0,1,3,2.83c.3.29.64.52,1.21,1l-3.48,1.5,2,.86c.1,1.24-1.37,3.48,1.43,3.31-.14-.41-.23-.8-.38-1.16-.49-1.08-.26-1.6.78-1.88a3.81,3.81,0,0,0,2.68-3l-1.72.57c.79-2.68.76-2.59-1.43-3.6-1.19-.55-3.05-.85-1.86-3.38.08-.17-.26-.56-.25-.83,0-.78,0-2.13.29-2.23,1.26-.47,1-2.4,2.3-2.61a27.55,27.55,0,0,0-.7-2.79c-1.06-2.9-.32-6.71,3.24-6.35a35.85,35.85,0,0,1,6.17,1.14c-1.85,2-2.28,6.25-5.61,4.7l-1.74,3.72c1.16.78,2.64,1.47,2.91,3.85.12,1,1.3,1.83,1.87,2.57l-1.23,2.09,3.67.91v4.21l.5.08,1.65-3.91a20.06,20.06,0,0,1,2.29,2.13,2.33,2.33,0,0,1,.39,1.56c-.36,2.59-.39,2.58,1,4.25.22-.14.47-.29.71-.47a7.68,7.68,0,0,0,.59-.55l-.68-2.6.48-.31,1,1.35a13,13,0,0,1,.65-1.4c.34-.6.78-1.14,1.07-1.77a2.31,2.31,0,0,0,.16-1.35,23.9,23.9,0,0,0-.89-2.45l2.54-.42h-.06c1.67,1.1,4,.33,5.12,3,.36,1.2.7,2.89-1.93,2.35a19.62,19.62,0,0,1,1.91,3.09,3.32,3.32,0,0,1,0,2.26,32.3,32.3,0,0,1-4.9,3c-.43.22-1.1-.13-1.65-.29-.89-.27-1.76-.59-2.64-.89l-.17.57,1.09.81c-1.17,2.22-2.26,4.33-3.39,6.42a2.14,2.14,0,0,1-.88,1c-1.65.63-3.34,1.16-5,1.74,1,1.59.78,2.7-.62,2.61a2.14,2.14,0,0,0-1.89,1.14c-2.3,2.84-4.53,5.76-4.4,10.14.05,1.43.23,2.22,1.69,2.12.52,0,1.29.71,1.59,1.34a33.84,33.84,0,0,1,1.34,4.06c2.6-1.3,5.1-.28,7.32,1.48,2.81,2.22,5.67,4,9.15,4,1.47,0,2.3.45,2,2.76-.41,3.67,1.49,6.36,3.67,8.67.22.24.92,0,1.33-.2,1.05-.56,2.14-1.31,1.81-2.92-.44-2.2-1.11-4.32-1.67-6.4a30.08,30.08,0,0,0,4.18-3.09,5.49,5.49,0,0,0-.4-7.75,3.47,3.47,0,0,0-.29-.25c-1.59-1.07-2-1.9-.54-3.51a3.2,3.2,0,0,0,.46-3.83,2.36,2.36,0,0,1-.15-2.56c.16-.29-.18-1-.25-1.47-.09-.71-.42-1.76-.16-2.07a2.35,2.35,0,0,1,1.89-.62,29.15,29.15,0,0,1,3.44.82c.28.07.63.24.86.12,2.9-1.51,4.07,1.06,5.74,3,.88,1,2.55,1.08,3.88,1.58-.41,1.7-.88,3.77.42,5.38,1,1.19,2.41,2.82,3.46,2.65a4.3,4.3,0,0,0,3.63-4.08,8.17,8.17,0,0,1,1.29-2.59c1.76,2.82,3.49,5.52,5.15,8.3a10.32,10.32,0,0,1,1.12,2.83c.09.37-.36.92-.61,1.48a23.86,23.86,0,0,0,3.36,3.6,24.71,24.71,0,0,0,4.69,2.12l-.87,1.1c1,.64,2,1.21,3,1.87s1.25,4.18.28,5.12l-1.19,1.17.06-.07a7.72,7.72,0,0,0-5.07,2.39,7.1,7.1,0,0,1-4.23,1.44c-2.1.14-4.21-.28-6.32-.32-1.58,0-3.23-.09-4,2.19-.12.36-.83.39-1.19.71a29,29,0,0,0-3.65,3.7c2-1.11,3.89-2.33,5.91-3.28a5.79,5.79,0,0,1,2.94-.36c.55,0,1.06.69,1.58,1.07a7.13,7.13,0,0,1-1.15,1.81c-.48.4-1.18.4-2.32.74l2.38.43c-.41,2.9.14,4,2.1,4.34l-.06-.07c.14.3.25.83.42.87,1.18.23,2.37.35,3.29.47l2.1-3.7c.49,1.17.85,2,1.4,3.37-1.87,1-3.87,2.15-5.94,3.09-1.18.53-2.4.74-3.25,2.07-.57.9-1.54,1.56-2.34.31s0-2,.85-2.68c.54-.44,1.05-.91,1.57-1.37l-.37-.71c-1.44.82-2.87,1.68-4.34,2.45s-3.16,1.23-4.46,2.32a8.73,8.73,0,0,0-2,3.71c-.12.35.83,1.23,1.23,1.79l-6.65,3-3.94,8.39-.38-2.81-.79.2c.36,1.33.76,2.64,1.06,4s1.05,2.74-.77,3.42c-.2.08-.2.9-.48,1-1.6,1.34-3.2,2.66-4.79,4-.66.57-1.26,1.24-1.94,1.79-2.06,1.67-2.69,3.7-1.88,6.51a39.72,39.72,0,0,0,1.51,4.63,8.7,8.7,0,0,1-.12,6.72,9.67,9.67,0,0,1-1.53-1.4A26.21,26.21,0,0,1,166,187a4.21,4.21,0,0,1-.73-2.43c.42-1.59-.16-2.39-1-3.44s-1.49-1.66-2.65-.66a1.09,1.09,0,0,1-1.22-.12c-1-1.49-2.31-1.37-3.71-1.19a22.86,22.86,0,0,1-3.31,0l-.68,1.8,1,.84c-.19.19-.28.36-.35.35-.76-.13-1.52-.27-2.28-.43l-4.43-.95c-.12,0-.22-.1-.34-.14-2.17-.66-7.51,3.14-8,5.71,0,.07-.07.15-.05.2,1,3-.61,5.68-.74,8.55a12.05,12.05,0,0,0,2,7.54c.87,1.3,1.33,2.76,2.91,3.62s2.77.28,4.14.11c.84-.11,1.67-.26,2.5-.39l.41.47c.54-1.72,1.06-3.45,1.61-5.17.08-.26.23-.64.39-.67,2-.39,4-1.13,6-.95,1.22.1.14,1.6,0,2.43-.06.3-.6.46-.67.77-.55,2.35-1,4.73-1.55,7.09a18.62,18.62,0,0,1-.9,2.28h4.75s3.35-.53,4.57,1.22a4.23,4.23,0,0,1,.86,2.37,39.05,39.05,0,0,1-.8,5.49c-.62,3.07,1.58,4.22,2.9,5.85.92,1.12,2.22.65,3.4,0,2.38-1.42,3.37-1.08,6,1.8,1.17-1.42,2.51-2.56,3-4.75.2-.85,1.92-1.21,3-1.76s1.89-1,2.85-1.43c.62-.28,1.26-.48,1.89-.72-.31.69-.61,1.37-1,2.29.16.09.69.6,1,.46a21.63,21.63,0,0,0,2.59-1.88c.24.13,1.21.31,1.62,1,1.45,2.35,3.65,1.52,5.47,2.23,1.19.47,2.15,1.1,3.23,0a3.06,3.06,0,0,0,.52-.89h3.49l-.71,1.35a9.35,9.35,0,0,0,1,.63c.79.38,1.59.71,2.56,1.15l-.93,1.85a1.85,1.85,0,0,0,.47,0,4.76,4.76,0,0,1,4.55,2.78c1.06,1.89,2.65,3.4,4.59,3,3.64-.79,6.17,1.43,8.69,3.83.35.32.33,1.16.55,1.72a13.71,13.71,0,0,0,1.35,3c.75,1,1.09,1.79-.29,2.92l3.72,2.38-.57,2.07c1.13-2.29,2.66-2,4.23-.9,1.36.92,3.53.54,3.87,3.23,0,.09.42.14.65.16a43.9,43.9,0,0,1,6.86.66,10.71,10.71,0,0,1,3.94,2.58c1.29,1.13,2.39,2.43,4.2,2.29a2,2,0,0,1,1.36,1.26c1.57,5.35.59,7.12-2.26,10.66-.76.94-1.39,2-2.1,3-.59.82-1.28,1.54-1.81,2.41a5.19,5.19,0,0,0-.78,2.11c-.19,2.41.1,4.94-.44,7.22-.66,2.82-.87,5.91-2.66,8.29a16.24,16.24,0,0,0-1.73,3.27c-.93,2.1-2.72,1.28-4.11,1.83a25.22,25.22,0,0,0-2.62,1.26,32.65,32.65,0,0,0-3.62,2,6,6,0,0,0-2.57,6.74,5.68,5.68,0,0,1-.86,3,32.94,32.94,0,0,1-2.31,3.87c-.79,1.15-1.71,2.18-2.55,3.28-.46.61-.91,1.24-1.32,1.9-1,1.56-1.81,3.22-2.84,4.71-1.34,1.92-3.22,1.21-4.87,1a18.4,18.4,0,0,1-3.88-1.65c.37.7.49,1.21.76,1.38,1,.67,2.25,1.14,1.59,3a.47.47,0,0,0,.11.38c.6.6,1.55,1.21.89,2.27-.88,1.4-1.82,3.15-3.08,3.73-2.14,1-4.55,1.19-6.9,1.73-.11,1.16-.26,2.7-.41,4.33-1.57,1.75-3.24.49-5.41-.29a28.28,28.28,0,0,0,1.15,3.84c.12.26,1,0,1.84,0l-.06,1.45-2-.46.29.63a30,30,0,0,1-1.24,3.56,10.68,10.68,0,0,1-1.68,2.27c-.24.27-.72.27-.93.56-.59.81-1.62,1.84-1.49,2.54a4,4,0,0,0,2,2.34c1.39.75,1.81,1.88.61,3.07-1.38,1.39-3.09,2.38-3.18,4.92,0,.19-.32.39-.51.53-2.33,1.74-2.52,2.85-1,5.63.1.17.16.36.34.74h-1.63a41.9,41.9,0,0,0,3.56,4.82A23.56,23.56,0,0,0,198,380.2c-.78.18-1.44.3-2.08.49-1.2.37-2.63.12-3.43,1.67,0,.06-.26.08-.29,0-.7-1.33-2.46.31-3.16-1.76-.27-.78-2.14-.8-3.42-1.21l.41-.54-1-1.69-2.52-2.49-1.45-2.29,1.06-.33c-.25-.79-.47-1.47-.77-2.43l-1.85.62a32.05,32.05,0,0,0,.88-4c0-.24-.94-.64-1.49-1,0-1.81-1.06-4,.76-5.61l.74.82c.24-1,.47-1.86.76-3l-2.56-.55c.26-.47.65-1.23,1.07-2,.6-1.07,1.73-1.89,1-3.56-.1-.22.64-1,1.16-1.73l.39,1.62.53.07c.49-2.63,1-5.26,1.49-8-2.11.16-1.69,1.86-1.74,2.91-.06,1.24-.23,1.82-1.68,1.5.68-3.28,1.45-6.47,2-9.71a10.73,10.73,0,0,0-.3-3.66,4.11,4.11,0,0,1,.49-2.85,44.75,44.75,0,0,0,2.83-8.9c.4-1.79,0-3.81.13-5.7.24-2.53.73-5,1-7.55.42-3.26.77-6.53,1.17-9.79a24.14,24.14,0,0,0,.39-2.94c0-2.7.27-5.5-.27-8.06s-2.63-3.63-4.45-4.87a45.69,45.69,0,0,1-5.18-3.88c-.64-.59-.78-1.93-1.2-2.89-.54-1.22-1.16-2.4-1.71-3.61-1.52-3.28-3-6.58-4.52-9.86-.25-.54-.52-1.4-.89-1.49-2.06-.53-2-2.76-2.07-4.25-.07-1.23,1.06-2.56,1.86-3.76-.27-1-1.68-1.59-1.18-3.31.64-2.18.9-4.6,2.85-5.91.27-.18.37-.71.61-1a13.23,13.23,0,0,1,1.81-2.21c1.58-1.28,1.17-3.17,1.16-4.87,0-2.06.18-4.28-1.48-5.79a1.49,1.49,0,0,1-.35-.71c-.74-2.77-1.24-3-3-1.23a6.85,6.85,0,0,1-.7.5l.81,1.76c-.75,0-1.4.23-1.82,0-1.19-.77-2-2.34-3.76-1.81-.34.11-.89-.64-1.32-1a16,16,0,0,0-2.5-2.15c-.81-.43-1.3-.54-1.55-1.89s-1.49-2.73-2.31-4.06c-.34-.55-.73-1.06-1.11-1.62-1-.23-2.12-.47-3.25-.8-2.69-.79-5.26-1.72-7.16-4.45-1.13-1.63-2.73-2.12-4.45-.92-1.48,1-2.9.2-4.21-.44-2.48-1.21-4.88-2.66-7.32-4-1.67-.93-3.36-1.81-5-2.81a3.3,3.3,0,0,1-1.63-3.94,5.79,5.79,0,0,0-.79-3.92c-1.79-2.43-3.93-4.5-5.87-6.79a2.88,2.88,0,0,1-.45-2l-5.81-6.29c-.11-3.06-1.62-5.43-4.27-6.08-.24,2.92.22,3.78,2.25,5.14.47.32.53,1.41.86,2.09,1.33,2.65,2.7,5.28,4,7.91.5,1,.49,2.3,1.83,2.71.51.16,1.7,1.73.3,2.43-1.43-1.22-2.7-2.24-3.9-3.36-.35-.33-.8-1.06-.71-1.42.65-2.52-1-3-2.28-4l-3.16-2.25c2.16-.63,2.47-1.47,1.09-2.75-2.76-2.52-3.45-6.43-5.21-9.59-.91-1.65-2.87-2.56-4.47-3.54-.79-.49-1.42-.6-1.93-1.84a83.68,83.68,0,0,0-4.43-8.31c-1.2-2.16-2.38-4.3-1.77-7.09a1.3,1.3,0,0,0,0-.62c-1.37-3.32.1-6.55.25-9.81a15,15,0,0,0-1-7.26c-.62-1.29-.17-1.56.79-1.64.31.19.63.52.94.51a7.92,7.92,0,0,0,1.65-.39c-.22-.65-.29-1.52-.69-1.9a44.48,44.48,0,0,0-3.58-2.83c.17,2.45,3.44,1.71,3,4.67Zm68.31,3.42c1.74,3.18,4.48.07,6.69,1.68-.44-1.77,0-3.89-2.24-3.95-.21,0-.5-.42-.6-.72-.78-2.37-2.3-1.83-3.67-1.18a28.65,28.65,0,0,0-3.81,2.44c-1.08.74-2.14,1.56-3.21,2.34.84.22,2-.26,2.08-.06.73,1.6,1.56.37,2.22.13a15,15,0,0,0,2.3-1.48c.18-.11.44-.06.81-.09Zm7.81,9.71c2.49-3,2.46-.22,3,1.27l.59-.05c.42-1.9.83-3.81,1.22-5.56l2.28,2c.36-2.25-.48-3.61-1.83-3.91-1.53-.35-3.14-1.65-4.8-.17-.32.28-1,0-1.65,0C166.4,142.42,166.41,142.49,164.65,146.07Zm-6.36,4.9c1.91-.83,2.45-2.09,1.89-4.2a4.46,4.46,0,0,1,1.47-4.91,10.43,10.43,0,0,0,1.33-2.07,3.94,3.94,0,0,0-4.88,2.29l.91-.52c-1.27,3.17-2.19,6.16-.72,9.44Zm7.34-.59c2.11,1.51,5.9.25,7.68-2.77Zm6.85-3.69c1.69,0,3.18.07,4.66,0s1.76-.9,1.14-2.18C176.57,145.79,174.07,144,172.48,146.69Zm16.35,232c.22-1,.42-1.85.62-2.73l-1.18-.18V374l-.39-.1-1.19,3.9.5.4.74-1.39ZM185.74,227.3l1.07-.06-.27-2.76-.8.05ZM220.38,78.89c2.31,1.2,1.43,4.23,2.89,6,1.32,1.55,2,3.79,3.13,5.65S228.6,94,229.23,95c2.22.72,3.83,1.12,5.35,1.79.86.38,1.53,1.39,2.4,1.72a1.82,1.82,0,0,0,1.83-.62A35.74,35.74,0,0,0,240.3,93a31.18,31.18,0,0,1,1.26-4.44c.7-1.53,2.42-2.42,2-4.69,0-.27.48-.69.82-1.15l-1.19-1.6c.63-.28,1.85-.51,1.89-.9.14-1.38.93-1.21,1.61-1.3.89-.12,1.78-.84,2.72-.1.2.17.64.28.78.14,2.28-2.17,5.64-2.75,6.85-6.52.15-.47.63-.78.95-1.18l1.67-2.11c1.2,1.4,2.57.11,4,.06,5.45-.19,9.43-4.19,14.24-7.08l-8.21-1,2.18-1.32c-.25-1.11-.47-2-.69-3l.62-.45c.81,1,1.6,2.16,2.46,3.15a3.24,3.24,0,0,0,1.58,1.15,21.76,21.76,0,0,0,3.61,0c-.59-1.78-.85-3.38-1.6-4.54a8.86,8.86,0,0,0-2.92-2.45c-1.62-1-1.66-1-1.76-2.56l4.1,3.1c1.37-2.81,1.33-3.09-.65-4.27-1.1-.66-2.26-1.19-3.4-1.78a1.37,1.37,0,0,1,1.58-.06c1.92,1.95,3.91.61,5.86.23.26,0,.42-.82.63-1.27-2.18-1.2-3.21-1.94-3.15-2.15,1.73,1.75,3.39.07,5.64-.06a31.53,31.53,0,0,0-2.08-2.92c-.1-.13-.77.44-1.28.75a7.72,7.72,0,0,1,0-1.52,12.58,12.58,0,0,1,2.29-.2c.62-1.72-.18-4.5-1.63-4.55a4.57,4.57,0,0,1-3.6-2.19c.7,0,1.38-.08,2.06-.14a16.48,16.48,0,0,1,3.71-.27c1.74.25,1.85.26,1.61-1.74l-4.07-1.34.17-.79,2.5.37c-1.72-1.62-3.13-2-4.57-.77a7.68,7.68,0,0,1,4.68-6.7L283,20l-1.52-.59c.6-1.63,1.35-2.13,2.72-1.82,1.71.4,3.5.61,5.15-.83l-.68-.68,9.49-4.78a11.29,11.29,0,0,0-7.42-1.92A4.94,4.94,0,0,0,288,10.66c-.9.72-1.65,1.18-2.74.66-1.87-.88-3.56-.87-5.18,1-.79.91-2.1,1.21-3.17,1.78,1.16-1.79,3.53-2.5,2.69-5.76-.92,0-2.23-.47-2.7.08-1.81,2.11-3.36.68-5.19.23-2-.49-4.22-.07-6.34,0-.51,0-1,.06-1.55.09V8.13a11.5,11.5,0,0,1,1.42-.28c3.3-.25,6.6-.39,9.89-.76a22.17,22.17,0,0,0,4-1.19L279,5.09c-4.36-1.29-8.6-3.33-13.33-2l.05-.55,5-.54c-7.85-2.8-15.75-2.23-24-.88l1.66,1.64c-.27.17-.4.31-.47.28-1.85-1-3.67-2.42-5.73-.53-.1.09-.37.05-.52,0-2.24-1.32-4.38-.12-6.55.36-.77.17-1.56.25-2.35.38V4h5.84v.39L231,5.26c1.07,2.19,3.08,1.93,4.41,3l.94.81L236,9.7c-1.86-.79-3.73-1.53-5.56-2.39a9.82,9.82,0,0,0-6.45-1L226.47,9l-.18.48L220.64,7c-.17,1-.33,2-.49,2.87-.76-2.52-1.44-3.36-3-3.11-1.86.29-3.71.74-5.58,1-1.7.22-3.13,1.57-4.94,1.41-.85-.08-1.46.63-1.23,2,.1.55-.48,1.8-.69,1.79a5.49,5.49,0,0,0-3.81.53c-2,1.25-4.12,2.12-6.17,3.23-.25.14-.4.82-.38,1.23,0,.2.54.5.84.51,1.16.06,2.32,0,3.58,0a15.93,15.93,0,0,1-1.05,3A3.44,3.44,0,0,1,196,23c-2.59.78-5.22,1.38-7.84,2a22.54,22.54,0,0,0-3.23.94,1.92,1.92,0,0,0-.89,1.31,1.53,1.53,0,0,0,.72,1.17c3.16,1.29,6.2,3.56,9.77,1.76.29-.15.74.13,1.11.27a.83.83,0,0,1,0,.54,2.68,2.68,0,0,1-.9.35c-2.43.31-4.85.59-7.27.9-.2,0-.37.29-.95.78l4.59,1.82-1.53,1.43c2,.54,3.54,1.37,5,1.27,2.37-.14,4.76-1.49,7.06-1.25,2.81.29,5.54,1.69,8.3,2.65.23.08.58.49.55.66-.31,1.73,1,1.91,1.72,2.58.94.83,2.27,1.39,1.49,2.91A13.66,13.66,0,0,1,215.07,47a14.52,14.52,0,0,1,.66,2.25l.47-.12-.51,1.2,1.54.92-.56,1.19-.29-.18.27-1.25-1.39.39a14.5,14.5,0,0,1,.64,3.39c-.14,1.91.16,2.61,1.75,2.28.75-.15,1.39-1,2-1.5a10.53,10.53,0,0,1,.52.93c.17.39.3.81.48,1.3l1.25.25,1.46.34-.75.31L224,60.6l-6-1.42-.17.6.67,1.32-.43-.17c-.4.91-.79,1.82-1.12,2.59,1.94,2.21,3.76,2.38,6,.42l-3.38-2.58c1.43.41,3.14.64,4,1.78s.56,3,.84,5a11.83,11.83,0,0,0-3-.6c-1.85.22-2.65,6.06-1,6.88-1,1.39-1.14,3.9,0,4.47ZM598.83,296.8l-2.16-.58a8.75,8.75,0,0,0-4-6.26c-.64-.43-1.66-.69-1.87-1.33a51.06,51.06,0,0,1-2-7.49c-.35-2-1.25-2.75-2.72-2.62l-2.34-8-.51.08a24.27,24.27,0,0,0-1.6,8.17,21.82,21.82,0,0,1-1,5.6c-.61,1.93-1.62,2.05-3,.78-.54-.48-1.14-.84-1.71-1.27l-5.55-4.18c.85-1.67,1.62-3,2.24-4.5.19-.45.12-1.53-.08-1.64-.53-.27-1.22-.09-1.82-.23-1.66-.38-3.31-.82-5-1.25-.57-.15-1.14-.36-2.17-.69l1.56,1.73c-.49.27-1,.73-1.47.76-2.37.15-4.56,3.07-4.22,6.56l-3.56-2.34c-.4-.27-.81-.72-1.23-.75-1.63-.08-4.64,3.27-4.8,5.33l-1.44.32v2.27L547,283.19a9.18,9.18,0,0,0-1.26,2.62c-.26,2.45-1.87,4.72-4,5.27-1.08.28-2.14.64-3.21.94-2.8.8-5.51,1.81-7.52,4.51l-.55-1.08c-.38,2-1,3.65-.94,5.29a19.29,19.29,0,0,0,1.32,4.59l-.37.24-.69-1.45-.44.41c.46,1.53.93,3.06,1.39,4.6.87,2.91,1.82,5.8,2.57,8.76.46,1.82,1.12,3.83-.72,5.33a1.62,1.62,0,0,0-.14,1.27c.86,1.81,4.61,3,6.06,1.82,2.35-2,4.81-2.93,7.71-2.37,1.25.25,2.27-.13,3.26-1.65.84-1.28,2.71-1.68,4.19-2.26,1.09-.43,2.4-.24,3.41-.82,3.55-2,6.81-.31,10.14.77a1.74,1.74,0,0,1,.73.83c.84,1.73,1.62,3.5,2.47,5.22.11.22.47.26.72.39l-.74-1,4.4-2.85c-.33,1.06-.88,2.79-1.42,4.53l.15.32c.66-.72,1.31-1.45,2.14-2.37v3.06c1.66.05,2.42,1.17,2.79,2.95.25,1.16,1,2.82,1.83,3,2.18.59,4.29,3.14,6.76.88.13-.12.53.11.79.24,1,.45,1.9.93,2.77,1.35,1.55-1.26,2.72-3.24,5-3,1.17.13,1.54-.67,1.91-2.06.9-3.41,1.73-7.06,3.45-9.88,2.44-4,3-8.21,2.81-12.8-.09-2-.44-4-.66-5.82l-.62.6c-.68-2.86-3.8-3.38-3.66-6.77ZM205.82,6.51c-2.18-.73-4-1.1-5.7-2.2-1.25-.82-3.19-.17-4.83-.17a17.07,17.07,0,0,0-5.81-1.28c-2.41,0-5-1-6.76.59L176.15,3l-.08.65c.72.53,1.44,1.06,2.17,1.58L178,5.9c-2.23-2.55-4.87-2.33-7.69-2.08L171.25,5c-.67-.17-1.24-.55-1.68-.4a23.09,23.09,0,0,0-3.36,1.62,8.06,8.06,0,0,0,.27,1.18c-.63,0-1.42.39-1.86.07-2.08-1.53-4-1.4-6.13.18l.75.38a23.68,23.68,0,0,0-10.39,2.11c.53,1.71,2.38-1,2.35,1.61l2-.42-1.06,1.72c2.4,3.13,5,3.16,7.86.92l-1.81,1.55.2.81,5.39-.79c.4,0,.85-.25,1.19-.11,2.55,1.08,4.72.32,6.72-1.71a1.4,1.4,0,0,1,1.32-.35,7.78,7.78,0,0,1,1.6,1.2l-9.79,2.87,3.4,2.77a1.16,1.16,0,0,1-1.19-.13,8.33,8.33,0,0,0-6.84-2.7,8.47,8.47,0,0,0-1.94.69,13.26,13.26,0,0,0,1.43,2.26c.63.65,1.59.88,2.16,1.57a7.53,7.53,0,0,1,.76,2.35c-4-.2-6.58.92-5.77,3.74l4.64-.36-1.17,1.18.44,2c-1.68-1.19-3.15-2.85-5.73-.45l2.32,1.74c-4.5,1.21-4.61,1.29-4.44,3.36a4.92,4.92,0,0,0,.67.1c1.79,0,3.79-.6,5.33.14,2.53,1.21,4.74-.36,7.1-.33,1.4,0,2.37,0,3.17,1.69,1.44-.63,2.88-1.22,4.28-1.9a2,2,0,0,0,.77-1,1,1,0,0,0-.41-.78c-1.34-.48-2.7-.88-4.15-1.33,1.81-.74,4.62.92,4.6-3.12,4.36,0,5.32-1.25,4.54-2.72l1.94-.75v-.53l-2.88-1.18.08-.47h2.79v-.55a11.54,11.54,0,0,1-1.65-.17,17.59,17.59,0,0,1-1.85-.77c2.44-.27,4.5.27,6.57-1.56,1.57.64,3.24.15,4.27-2.32a1.68,1.68,0,0,1,.7-.83c2.79-1.54,5.6-3,8.4-4.54a12.24,12.24,0,0,0,1.43-.95l-.14-.45-3.59.44c3.38-1.89,7.5-1.51,11-5.07ZM162.49,63c2.36-.27,4.77-.41,6.9,1,1.6,1.08,2.1-.75,3-1.35a10.23,10.23,0,0,0-.41-2.39l6.33,5.39L176.71,67l.23,1.06c1.73-2.16,3-.91,4.38.13a7.77,7.77,0,0,1,3.38,4.94l-4.22,4.29,1.92,1.15-.24.75c-1.56.19-3.18.73-4.68.45a2.84,2.84,0,0,0-3.14,1.09c-.82,1-.7,2.22.47,2.5a6.91,6.91,0,0,0,3.26-.09c2.2-.57,4.32-1.4,6,1.4.39.65,1.26.89,2.34,1.62l-.8.34a32.25,32.25,0,0,0,2,2.65c.17.18.78-.3,1.19-.33a2.7,2.7,0,0,1,1.16.23c2.06,1,4.1,2,6.47,3.12-.07-2.39-1.33-2.94-2.23-3.78s-1.89-1.67-2.84-2.51l.27-.45,6.59,3.64c.35-1.22,1.1-2.54,1-3.7S198,83.17,197.4,82a.65.65,0,0,0-.44-.33c-2.32,0-2.75-2.93-4.39-4l1,.12.9-2.16c1.24.9,2.85,1.41,3.05,2.35.52,2.46,2,2.64,3.64,3.29l.34-2.19c1.21-.27,2.2-.8,1.93-2.34l1.78-1.45v-.71c-.8-.15-1.61-.29-2.41-.46a7.21,7.21,0,0,1-1-.31c.35-2.18-1.17-.73-1.55-1.44-2.14-2.69-5.6-2.72-7.71-4.8l1-1.81h1.69l.12-.39L193,64.09l1.31-.67c-.89-2.27-1.29-2.42-3-1.25l.8-2-5.45-1.72c-.11-.63-.07-1.5-.34-1.66-1.18-.72-2.45-1.32-3.69-.09a22.19,22.19,0,0,0-1.91-2.3,9.73,9.73,0,0,0-4-2.55c-1.31-.59-2.77-.94-3.53,1.22-.11.32-.52.49-.79.74-1.21-2.15-2.23.12-3.57.42.76-1.81,1.13-3.39.11-4.92l.06.07c-1.16-2.08-2.75-2.45-4.63-1.64A9.88,9.88,0,0,0,161.63,49,5.3,5.3,0,0,0,160,51.68c-.12.46.72,1.27,1.05,1.8l-1.71,1.27,2.38,1.88-.33,1.48a11,11,0,0,0-1.25-1.76,5,5,0,0,1-.8-7,4.74,4.74,0,0,1,.91-.88l1-.9c-.23-.22-.35-.42-.49-.46-4-1-7.44,1.34-8.61,5.8-.84,3.21-.14,4.48,2.69,4.92a12.85,12.85,0,0,1,1.61.46l-.07.47-3.24-.3c.43,2.09,1.8,3.29,3.41,3,.86-.15,1.67-.51,2.32.64.18.31.86.19,1.31.31.79.2,1.57.43,2.35.65ZM101,50.68l-2.6,3.7c-.52.75-.56,1.4.35,1.73,1.23.44,2.47.85,3.59,1.23L99.2,58.51v.71a8.63,8.63,0,0,0,2.55,1c1.63.1,3.29-.25,4.93-.16a35.58,35.58,0,0,1,4.48.79l-.08.7c-3.22.1-6.53-.8-9.65.81.74,2.52,1.47,3,4.28,3.1,1.07,0,2.28-.34,2.49,1.72,0,.47,1,1.15,1.59,1.14a24.6,24.6,0,0,0,5.8-.62,45.74,45.74,0,0,0,5.84-2.42c1.78,1.93,6.22,2.5,9.29-.06l-1.57-1.72c.32-.35,1.37-.12,2.07,1.22,1-1.71.37-2.66-1.1-3.24A17,17,0,0,1,127,60.06c-.92-.62-2.26-1.11-1.68-3.07.12-.39-.27-1-.46-1.51-.53-1.38-1.08-2.74-1.62-4.12h.58c.3-1.17,1.06-2.54.77-3.47-.36-1.19-2.93-.76-4,.46.29.28.59.55,1.29,1.19l-3.47-.46c-.71,2.34.68,4.16,1.11,6.21-1.19,1.21-1.43,0-1.64-.9-.53-2.25-1.75-3.55-3.68-3.92a2.62,2.62,0,0,0-.57.2l.6,1.08-1.51,1c-1.65-3-3.52-2.65-5.62-.62.5-3.14,0-3.63-2.25-2.76-1,.38-2,.79-3,1.18ZM575.6,265.54c1.92-.67,3.54-.63,5,1.46.76,1.09,4.1.29,4.56-.73,1.17-2.6,3.43-3.39,4.83-1.17,1.87,3,4,4.72,7.09,4.92.21,0,.44.42.61.38a2.85,2.85,0,0,0,.78-.39l-7.12-7.77,2.57-.69a18,18,0,0,0-1.71-1.43c-.78-.47-2.11-.59-2.34-1.27-1.08-3.26-3.61-3.63-5.86-4.58s-4.51-1.64-6.67-2.69c-2.79-1.36-3.69-1.21-5.8,1.35-.48.59-1.6,1.43-1.7,1.31-.71-.84-1.71-1.92-1.69-2.9,0-1.83-.4-2.78-1.89-2.91a11.43,11.43,0,0,0-2.61.17c-.75.12-1.49.37-2.37.6a22.11,22.11,0,0,0,3.06,2.66c.77.45,1.79.3,2.91.45l-3.07.94c.49.6,1.18,1.05,1.24,1.59.3,3,1.11.54,1.46.38l4.6,2a7.61,7.61,0,0,1,2.6,1.24,12.41,12.41,0,0,1,2.26,3.54c.59,1.34-.93,1.19-1.27,1.93-.22.47-.4,1-.65,1.58a4,4,0,0,0,1.2,0ZM537,232.7c-.75-.86-1.22-.77-1.78.17-1.09,1.83-2.18,3.63-4.16,4.28-.38.13-.6.79-.93,1.16-.68.74-1.29,1.85-2.09,2.1-1.58.49-2.92,1-2.85,3.48l-3-1a3.53,3.53,0,0,0-.69,3.85c.54,1.29,1.21,2.52,1.65,3.86s0,3.46,2,3.15c1.26-.19,2,1.4,3.51.66,1.23-.63,2.77-.16,3.44,1.66l2.93-.86c.21-2-.29-4.9,2.18-6.37.07,0,.11-.26.09-.39-.38-2.36.53-3.42,2.36-3.24l-2.68-5.38,2.19-3.1-.27-.22,1.57-.55A38.82,38.82,0,0,1,537,232.7ZM408,277.58c-.77,2.66-2.52,3.6-4.38,4.44-2.63,1.18-3.55,2.89-2.62,6.08a7.41,7.41,0,0,1-.89,6,8.25,8.25,0,0,0-.6,3.44,20,20,0,0,0,.47,2.77c.19,1.85,1.6,4,3.06,3.63s3.17-.23,3.79-2.37,1.12-4,1.61-6c.86-3.46,1.68-6.93,2.49-10.4.29-1.25.48-2.53.71-3.7l.58.55.5-.21c-.45-2.82-.3-5.82-2.14-8.18-1,1.37-2.21,2.51-2.58,3.95Zm14.6-221.3c-1.15-1.8-.9-3.21.43-4.88a48,48,0,0,0,3.2-4.17,18,18,0,0,1,7.54-6.57c3.58-1.73,7.44-2.64,11.11-4.11.81-.33,1.37-1.55,2-2.36a11.24,11.24,0,0,0-2.87-1,4.77,4.77,0,0,0-2.15.86,12.93,12.93,0,0,1-2.5,1.43c-2.6.66-5.29.9-7.85,1.71a37.89,37.89,0,0,0-5.4,2.81c-1.06.55-2.15,1-3.22,1.54-.15,2.93-2,4.35-4,5.77.23.59.45,1.18.7,1.83a3.1,3.1,0,0,0-2.78,3.39v.07a1.86,1.86,0,0,1-1.1,1.4c-1,.16-1.54.67-1.18,1.72a2,2,0,0,0,1.59.93c2,0,2.43.38,2.47,3l7.45.75a39.26,39.26,0,0,1-3.5-4.12Zm-275.09-34-3.1,1.4c2.53,4.34,6.11,4.34,9.69,3.55,1.93-2.44,4.46-3.68,7.08-4.76l.1-.71L158,20.41c-.68-1-1.18-1.67-1.66-2.38-.3-.45-.56-.92-.85-1.38L153.9,18l-.75-1.84c-2,.53-3.13-1.06-4.23-2.45-1.38-1.73-2.92-2-5.14-1.33l1.76.75-3.81.88.05.52,1.51,1.06-.08.2-2.43-.65-.48,2.45,1.33.6v.24h-2l-.27.59,2.5,1.91-.4.71c.46.21.92.62,1.38.6,1.53-.07,3-.28,4.58-.44Zm169.9,92.59a3.81,3.81,0,0,1-1-1.35c-.71-1.16-1.39-2.35-2.32-3.93l1.74-4.07-4.25-.44,2-2.62c-3-.33-5,.57-5.44,3.76l-1.5-.4-.1.48,1.53,1.24c-.28.79-.5,1.4-.91,2.51l1.49-.84-.3,3.19.43.25.9-1.83.32.07c-.13,1.1-.25,2.21-.41,3.57l2.63-.16c.4,1.11,1.15,2.21,1.07,3.22-.16,2.07-1.72.78-2.92,1.16,2,2.32.67,3.47-1.05,4.62l2.94.79L308.67,128a1.11,1.11,0,0,0,1,.09c1.7-.46,3.4-1,5.11-1.38q3.25-.78,6.53-1.45c.11,0,.17-.3.26-.48l-.68-.55,1.31-3.6-2.57-1.14c-.63-1.49-.56-3.49-2.27-4.6ZM515.78,253.6l1.59.28c-.52-1-.94-1.67-1.24-2.4-.7-1.7-1.29-1.19-1.92.05l1,.61-.42.58-3.5-4.15a4.91,4.91,0,0,0-.67-3,9,9,0,0,0-3.56-2.85,10.23,10.23,0,0,1-5.37-4.75c-1.7-2.9-4.1-1.58-6-2.81a8.42,8.42,0,0,0,2,3.41c3.28,2.86,5,7.13,7.46,10.8,1.38,2.11,2.29,4.76,3.91,6.52s3.14,4.79,6.34,3.68c.15-2.05.27-4,.38-6ZM105,48.24c-2.23-1.37-3.84-4.3-6.83-2.52-.17.1-.51-.17-.76-.29A12.35,12.35,0,0,0,87.5,45l1.31,2.34-3.16,6.74c1.48,1.28,2.83,2.46,4.19,3.61.32.26.76.64,1,.55,1.34-.41,2.65-.94,4-1.48a1.25,1.25,0,0,0,.57-.74A7.93,7.93,0,0,1,101,50.68h.8Zm66-8.18c-2.8-1.83-5.72-1.91-8.8-1.16-1.61.39-3.1,1.74-5,.63-1-.57-2.44-.1-3.08-.1L151,37l2.34-.24c-2.41-1.79-4.9-1.59-7.12-2.32s-4.43-1.92-7.17-1.13a11.53,11.53,0,0,0,.78,1.37c1.48,1.82,3.35,2,5.34,1.72,1.47-.25,2.64,1.75,2.49,3.46a6.27,6.27,0,0,0,.93,3.29c1.68-.25,3.27,1.94,5,.22.22-.22.73,0,1.11,0,0,1.83,1.2,1.06,1.77,1,2.64-.2,5.26-.6,7.89-.92a.64.64,0,0,1,.41.18c1.52,1.31,3.16.53,4.72.25.69-.13,1.29-1,2-1.68l-1.13-.53,1.37-.83A7.18,7.18,0,0,0,171,40.06ZM358.14,25.5a2.66,2.66,0,0,0-1.67-2.5c-.86-.21-2.14-.39-2.4-1.06-.52-1.28-1-1.28-1.91-.74.29-3.14-2.21-1.48-3-2.78l-.46.18v4.67c-.9-1.4-1.63-2.51-2.49-3.85l-1.6,2.26-1.33-1,1.42-.74-.11-.36L339,20c0,2.62.51,3.3,1.76,2.9.07.78-.09,1.85.28,2.39a6.39,6.39,0,0,0,2.39,2.05c1.31.63,2.36-.24,2.74-1.85l3.9,1-6.19,2.1,2.79,1.61-2.28.74,5.49,4.18,2.79-4.32a3.46,3.46,0,0,0,.45-.85c1-3.42,2.11-4.4,5.1-4.5ZM282.4,86.41c1.87.82,3.29-.33,4.79-1.09A40.63,40.63,0,0,0,292.9,82c1.34-1,1.12-2.24-.23-3.2a2.38,2.38,0,0,1-.91-1.12c-.49-1.51-2-1.06-2.72-2-.05-.07-.53.09-.6.27-.61,1.45-1.64,1.25-2.75,1.19a16.52,16.52,0,0,0-3.21.43V78l-.81-.6-2.37,2.69c.36-2.47-.63-3.76-1.88-3.92-1.7-.23-2.53,1.82-3.85,3.27h4c-.09,2.65-2.35,1.07-3.16,2.43,3,0,3,0,3.8,2.21l-1.47.64a50.24,50.24,0,0,1,5.66,1.65ZM114,36l1.69,1.12-.45,1,1.43,1.18-.15.54c-1.36-.22-3,0-4-.76-1.52-1.12-3.1-1.93-4.61-2.86-2.1-1.28-3.28-.65-4.67.6a10.61,10.61,0,0,0-1.53,2.52l1.86.19-2.9.82.1.73c2.28.25,4.59,2.51,6.79-.63a5.63,5.63,0,0,0,.16,1h4v.18l-4.94,1.45c2.09,2.31,4.27,1.62,6.29.53a11,11,0,0,1,6.38-1.37c.79.07,1.91.06,2.33-.5A5.3,5.3,0,0,0,123,38.31c-.21-1.18-1.42-1.35-2.45-.41a1.23,1.23,0,0,1-1.39-.14,43.85,43.85,0,0,1-2.28-4ZM504,23.65a10.21,10.21,0,0,1,.21-2.06c.57-1.79-.26-3.28-1.85-3-.45.07-.86.52-1.32.82l-2-3.3,1.51-1a30.62,30.62,0,0,0-2.72-2,3.2,3.2,0,0,0-2-.63,16.2,16.2,0,0,0-3.52,1.18,6.87,6.87,0,0,0-1.4,1.13c.9,1.49-.37,1.23-.9,1.55s-.76.42-1.62.89l3.37,1.41a6.5,6.5,0,0,1-1.92-.07,13.48,13.48,0,0,0-2,.24c1.73,1.86,3.7,2.18,4.81,1,.57-.59,1.18-1.11,1.78-1.66l.3.52-2.85,2.49c3.91,2.55,7.92,4.16,12.35,3.21ZM569.3,169l.83-.25c-.56,1.41-.37,2.85.87,2.59.83-.17,1.44-1.82,2.22-2.91a3.51,3.51,0,0,0,4.43-1.22c1.26,1.22,2.1.33,2.45-1,.41-1.56.45-3.25.71-4.88a7.57,7.57,0,0,1,.59-1.93c.88-1.91,2-2.84.47-5.45a4.53,4.53,0,0,1-.32-.94c-.16-.48-.32-1-.47-1.44-.51.24-1.24.32-1.48.76a6.3,6.3,0,0,0-1,2.94c0,4.06-1.72,6.87-5.24,7.91l.27-1.45a3.05,3.05,0,0,0-.94,1.3c-.69,1.19-1.23,2.74-2.19,3.39s-2.21.18-3.35.13c-2.44-.12-3.69,2.08-5.25,3.7,1.3.69,2.51-.11,3.75-.29Zm69.31,172.33a14.23,14.23,0,0,1-6.8,8.32c-1.38.75-2.36,2.61-3.4,4.09a2,2,0,0,0,.26,1.65,11.72,11.72,0,0,0,4.1,1.18c2.28,0,3.36-2.12,3.81-4.34.5-2.5,1.78-3.14,4-3.09-1.37-1-.9-1.53-.13-2.29a7.6,7.6,0,0,0,1.66-2.66,9.33,9.33,0,0,0,.18-2.58l-1.91.38c-.24-.41-.57-1-1.07-1.84a7.43,7.43,0,0,0-.7,1.19ZM131.91,49.49a5.44,5.44,0,0,1,.7,1.3,4.66,4.66,0,0,1-1.45.71c-.31,0-.63-.68-1-.77a6.51,6.51,0,0,0-1.65,0c.19.54.25,1.33.59,1.59,2,1.49,4.35,2.34,5.86,4.75.17.27,1.12-.08,1.68-.25.21-.07.36-.66.51-.65,2.66.22,2.5-2.13,2.8-4.05L137.08,50c.64-.8,1.28-1.62,1.91-2.4-1.32-1.72-2.58-1.91-4.23-1.19-1.41.6-3.18.09-4.22,2.27A5.6,5.6,0,0,1,131.91,49.49Zm81.84,74.58-4.06,8.49.34.19-1.59,2.13,8.12.52-1.38,1.47.27.47,3.53-2.71c-.26,1.09-.41,1.72-.55,2.34,2.49.32,2.49.32,1.93-3.23l-.9.85-.22-.23,1.29-2.05c-2.39.66-1.08-1.15-1-2.25a19.22,19.22,0,0,1-2.4,0c-.57-.08-1.34-.18-1.63-.62-.7-1-.82-1.27-1.66-.92.71-1.51,1.42-3,2.22-4.74l-2.33.38Zm93.94-10.83c-.69-.61-3.53-.53-4.14.18-.25.28-.61.76-.54,1,.48,1.93-.77,1.12-1.42,1.36-.46.16-1.25.63-1.22.82a17.3,17.3,0,0,0,.79,2.75,4.15,4.15,0,0,1-.65,2.19c-.23.49-.66,1.34-.56,1.45a3.13,3.13,0,0,0,1.61,1,3.36,3.36,0,0,0,1.68-.5,11.18,11.18,0,0,1,2.57-1.27c1.79-.27,2-1.64,1.89-3.25-.06-.67-.15-1.34-.27-2C308.94,115.51,309,114.41,307.69,113.24Zm279-74.62a22.32,22.32,0,0,1-3.52-.86c-1.93-.93-2.14-.95-3,1.26-5-3.18-5.56-3-6.9,2.23,1.62.91,2.69,3.42,5.22,1.33,1-.84,3.08.13,4.67.11.53,0,1-.51,1.9-1,1.48.78,2.64-.19,3.4-2.3a12.15,12.15,0,0,0-1.73-.77ZM362.42,17.8l-.87-1.32L360,18.27c-1-.44-2.22-1-3.46-1.53-.3-.13-.86-.23-.93-.09-.72,1.5-1.64,1.22-2.6.38-.69,2.44-.2,2.81,4.35,3.23l-1.61.51a46,46,0,0,0,7.38,2c.22,0,.46-.11.69-.13,2-.22,3.44-1.78,5-2.94.21-.16.09-1.56,0-1.57-2.14-.36-4.29-.62-6.44-.89ZM544.64,244.59a2.43,2.43,0,0,0-3,1.67,55.38,55.38,0,0,0-2.08,7.13c-.11.41.18,1.35.41,1.42,1.51.43,1,1.61.84,2.69-.37,2.07-.22,2.23,1.63,1.65.2-5.69.2-5.69.85-5.87l1.59,4.51,2.38-1.33-2.47-5,3.3-2.63-.14-.48-5,1.54a5.27,5.27,0,0,1-1-1.34c-.45-1.1-.23-2.21.93-2.29a19.82,19.82,0,0,1,4.74.22c1.85.31,2.93-.41,3.48-3.06-1.88,2.8-4.28,1.78-6.51,1.17ZM133.48,42a11.09,11.09,0,0,0,3.15-.11,1.06,1.06,0,0,0,.88-.58,8.46,8.46,0,0,0,.06-5.4c-.25-.67-1.62-1.5-1.87-1.28-1.21,1-2.18-.18-3.24-.16-.56,0-1.11.08-1.4.1l2.34,2.74c-1.69.23-2.21-2.74-4-1.3l1,2.26c-2.1-1.06-3-4.17-5.69-3.42,1.52,5,4.85,5,8.33,4.74l-1.21.93c.67.64,1.17,1.42,1.65,1.48ZM645.11,330.35l-.75,1.07c-.29-.38-.74-.7-.83-1.14-.46-2.14-1-4.08-3.56-4.2.59,1.11,1.13,2.07,1.61,3.07.66,1.39,1.71,2.79,1.78,4.23s-.94,2.77-1.56,4.37c.51.37,1.68.76,2.07,1.64s-.23,2.08-.49,3.77c.87-.33,1.86-.35,2.21-.92a34.52,34.52,0,0,0,2-4.43c.13-.29.29-.77.46-.78,2-.13,1.84-2.15,2.65-4.51-2.89,1.71-5,1.83-5.59-2.17Zm-480.64-246c1.67.47,3.12,3.55,5.68.86L167.66,84a12.29,12.29,0,0,0-2.2-2.3c-1.44-1.26-3.66-1.42-3.92-4.14-2.45.8-3,2.21-2.86,6.45l-1.6,1.64.18.38,2.44-.27.77,2.38Zm419.17,31.58a10.38,10.38,0,0,1-.28,2.15c-1.44.13-.88,1.44-1.17,2.29-.62,1.8.46,3.18.57,4.7a94.22,94.22,0,0,1-.18,9.8c-.05,1.52-.15,3-.22,4.57h.49c.23-.55.45-1.1.76-1.88l2.27,1.32c-.75-1.44-1.23-2.47-1.81-3.43-1-1.71.14-3.07.59-4.45.16-.47,1.35-.46,2.21-.71a15.13,15.13,0,0,1-.67-2.27c-.41-2.54-1.61-4.83-1.22-7.66.21-1.5-.58-3.19-.92-4.79ZM102.3,30.66a14.47,14.47,0,0,0-3.24.79,10.36,10.36,0,0,0-2.25,1.08c-1.68,1.06-3.34,2.18-5,3.33-.29.21-.69.83-.61,1a1.7,1.7,0,0,0,.93.86c1.12.41,2.5-1.11,3.51.61A6.09,6.09,0,0,0,97,37.45c.17-.14.21-.48.32-.73,1.27.78,1.24-.47,1.48-1.32.17-.59.39-1.16.59-1.74l.43.78.59,1.84c.51-.27,1-.55,1.52-.8.32-.15.75-.16,1-.42a4.9,4.9,0,0,0,.79-1.52,24.07,24.07,0,0,0,.42-2.4A4.92,4.92,0,0,0,102.3,30.66ZM517.73,263.44c1.68.45,3.42.56,5.13.91,1.49.3,3,.82,4.45,1.1,1.85.34,3.72.55,5.58.78.22,0,.66-.29.65-.38a1.46,1.46,0,0,0-.38-1c-1.23-.38-2.49-.63-3.74-1a7.73,7.73,0,0,1-1.14-.6l2.53-.89-4.46-.64c-.84-.13-1.56-.66-2.54.22-.59.53-1.95.14-2.88-.19-1.7-.6-3.33-1.46-4.92-2.19l-1.24,2.26a15.19,15.19,0,0,0,3,1.62Zm62-114.76,5.3,1.13c.28-2.75,2.86-1.73,4-2.81-.23-1-.41-1.73-.59-2.49-3,1.35-4.15-2.39-6.22-3.78-.28,2.24-.51,4.16-.74,6-2.43,0-2.93,1.22-2.3,4.86l1.7-1.2-1.28-1.2ZM162.12,199.07a26.64,26.64,0,0,1,2.79-1.49,3.21,3.21,0,0,1,2-.22c.63.15,1.16.83,1.8,1.08A43.35,43.35,0,0,1,173,200a14.09,14.09,0,0,1,2.54,2.34l-.62,1.18,6.31-.44,0-.6a23.49,23.49,0,0,0-3.77-2.09c-2.08-.7-3.5-2.64-5.76-3.29-2.43-.7-4.69-1.45-7.1-.71a12.06,12.06,0,0,0-2.84,1.85ZM124,26.62a5.57,5.57,0,0,0,2,.59c2.34-.22,4.58-.46,6.44,1.86.37.47,1.44.22,2.18.16.19,0,.55-.75.47-.91-.53-1.12-1-2.59-1.8-3.16A17.35,17.35,0,0,0,129,23.61c-.14-.05-.38,0-.43-.12-1.17-2.32-3-1.22-4.65-1.27-.36,0-.73.5-1.12.79l1.87,1.47.91-.59.79,2h-2.18Zm380.76,2c1.88-.4,3.75-.87,5.63-1.28,1-.22,2.1-.27,3.12-.56a1.19,1.19,0,0,0,1-1.35,1.21,1.21,0,0,0-.44-.76,35.19,35.19,0,0,0-4.15-2s-.36-1-.45-.92a6.34,6.34,0,0,0-2.9,1.46,45.49,45.49,0,0,0-3.36,5.4,8.45,8.45,0,0,0,1.59,0ZM545,206.8c-2.45-.5-2.44-.51-2.6,2.52a6.89,6.89,0,0,1-.23,1.63,6.36,6.36,0,0,1-.84,1.27,4.24,4.24,0,0,0,.36,1.72c.75,1.18.76,3.12,2.54,3.33a13.9,13.9,0,0,1,3.45,1,8.46,8.46,0,0,1,1.77,1.44c-1.36-3.59-2-4.07-4.53-3.66-.1-1-.63-2.6-.24-3.07a6.44,6.44,0,0,0,1.22-5.81,6.2,6.2,0,0,1,.06-.62,2.87,2.87,0,0,1-.92.21ZM589.1,346.74a2.87,2.87,0,0,0,2,1.6c.79,0,2.12-.54,2.34-1.24a37,37,0,0,0,.92-5.64h-7a47,47,0,0,0,1.78,5.29ZM548.42,230.43c.24-.06.89.57.86.71-.72,2.89,1.17,3,2.88,3.79,0-1.06-.09-1.93-.11-2.34.76-.41,1.55-.54,1.78-1,.57-1.2-.66-4.65-1.51-5.29l-2.76,2.7c-.76-.24-1.46-.71-1.7-.49-1,.92-2.73,1.18-2.47,3.07a30.87,30.87,0,0,1,3-1.15Zm-367.57-24.2V207c.91.1,1.81.17,2.71.31s1.92.36,2.95.56a15.42,15.42,0,0,1,2.54-.92,24.58,24.58,0,0,1,3.32-.22c-2.37-2.88-7.24-4.29-9.32-3.14l1.56,3ZM358.19,25.45l-1.58.86c.76,1,1.46,1.89,2.17,2.79l-1.08,2,3-.33c.22,1.41.22,1.41,4.15-1.24-1.41-.77-3-1.27-4.18-2.42-.82-.81-1.43-1.67-2.56-1.63ZM169,49.35l1.33,1.1c.44.36.89,1,1.33,1,2-.05,3.91-.29,5.87-.46-1.26-3.05-4-4.18-8.6-3.45,0,.61.09,1.22.13,1.84ZM414.78,15.47c-2.33-1.92-3-1.8-4.89.38-.84-.47-1.52-1.17-2.16-1.14a42.27,42.27,0,0,0-5,.79c1.9,2.33,3.82-.34,5.7.36l-3,1.5C409.25,19.81,411.65,15.44,414.78,15.47Zm52.54,212.26a42.43,42.43,0,0,0-.09,4.51c.06,1.15.38,2.3,1.75,1.88s2.34-1.12,1.9-2.88a10.58,10.58,0,0,0-3.22-5.65C467.51,226.3,467.4,227,467.32,227.73ZM428.27,15.28l.22-1L426.35,13l.89-1.43c-2-1.89-3.38.94-5.2,1a4.77,4.77,0,0,0,2,.43c1.21,0,1.21,0,1,1.25-4.36-1.23-4.42-1.23-5.41,1.13ZM136.18,25.17c.8,1.25,1.39,3,2.45,3.59s2.62.14,4.3.14c-.33-1.24-.38-2.41-.74-2.58-1.76-.8-3.6-1.32-5.42-1.95ZM561.93,170.24,559.51,172c.51,1.69,1,3.27,1.58,5.17.4-.15,1.33-.18,1.52-.63a20.37,20.37,0,0,0,1.09-4.28c0-.28-.63-.71-1-1.08s-.57-.66-.86-1ZM143.66,43.59c.53.13,1.61-.2,1.66-.5A4.19,4.19,0,0,0,145,40.6a2.33,2.33,0,0,0-3.07-1.16,2.72,2.72,0,0,0-.51.32A14.76,14.76,0,0,0,139.26,42a43.1,43.1,0,0,0,4.4,1.59ZM110.73,31.48a5.51,5.51,0,0,0,3.26-.63c.62-.38.81-1.71,1.37-3l-6.53.86C108.56,31,109.73,31.41,110.73,31.48ZM591.18,41.59a27.74,27.74,0,0,0,3.14,1.31c1.59.36,3.24.51,4.88-1.34l-8.44-1.83C590.29,40.45,590,41.15,591.18,41.59Zm60.33,15.84a6,6,0,0,0-1,1.54l.4.35,6.77-.92c-2.16-2.54-4.07-2.68-6.17-1ZM544.37,195.77a23,23,0,0,0,.77-3.18,5.17,5.17,0,0,0-.13-1.3c-.42.07-.94,0-1.25.25-2.07,1.79-2.29,4.43-.6,7a27.3,27.3,0,0,0,1.21-2.77ZM176,70.14a4.05,4.05,0,0,0-.21,2.18c.86.35,2,.85,2.68.43s1.09-1.84,1.74-3.1c-2-.88-3.35-1.2-4.21.49Zm425.18,189a4.16,4.16,0,0,0,.62-2.2c0-.2-.77-.48-1.34-.81,0,2-1,2.8-2.27,2.95a37.48,37.48,0,0,1-4.24,0c2.83,2.38,5.21,2.32,7.19.05Zm-79.6-55.38c-.75.68-1.48,1.65-.64,2.54a2.25,2.25,0,0,0,2.4.18c.76-.53,1.19-1.75,2.08-3.17-1.61-.42-2.77-.55-3.88.44Zm-187-47c0,1.17.37,1.81,1.31.82a3.23,3.23,0,0,0,1.06-1.67,21.12,21.12,0,0,0-.33-3.55l-2.18.71c0,1.41.06,2.56.1,3.7Zm212.59,67.9-1.07,1.39,1.6,1.62,1.74-4.22-.35-.18-.42.57-3.07-3-.18,3.08ZM585.36,49.78A2.8,2.8,0,0,0,583,46.84c-1.34-.47-2.53-.11-3.37,1.92ZM31.89,106.32c.65,2.41.94,2.38,4.46-.61l-.91-1.23,1.44-.88-1-.84Zm77-79.39h7.25c-1.14-2.64-4.84-2.49-7.29,0ZM548.39,270l6.8-4.38C551.64,265.21,548.76,267,548.39,270Zm16.19-98.28c.1.28.19.58.31.88s.25.61.35.84c.84-.79,1.45-1.84,2-1.77,1.91.25,1.84-1.34,2.1-2.7l-3.68.88ZM431,16.91c1-.36,1.93-.66,2.86-1.1.24-.11.34-.62.51-1-.29-.18-.58-.54-.87-.53a18.37,18.37,0,0,0-3.47.33c-.38.08-.67.77-1,1.18a7.89,7.89,0,0,0,1.18.8c.18.09.45-.07.68-.12Zm4.28-1.48c1.4-.2,2.82-.34,4.2-.65.33-.07.57-.72.85-1.1-.48-.31-1.05-1-1.43-.84a31.54,31.54,0,0,0-3.72,1.75Zm99.48,249.81-.75,1.57,6.41-.45c-2-2.58-3.95-.26-5.63-1.12ZM140,29.82c1.62,1.64,5,1.5,6.07,0ZM541.55,266.73,551,265.5v-.42l-9.52.5ZM412.34,65.43c-.81-.3-1.64-.89-2.42-.81-.49,0-1.27,1.07-1.3,1.69-.05,1.18.82,1.42,1.65,1A19.61,19.61,0,0,0,412.35,66Zm13.54-47.17a14.69,14.69,0,0,0,2.81-1.32c-2.8-1.07-4.92-.62-6,1.37A14.8,14.8,0,0,0,425.88,18.26ZM72,116.25l-.36.5,2.78,4.59.36-.3c-.19-1.44-.38-2.87-.59-4.48ZM550,221.83l.87,3.47.55-.15c-.06-.73-.12-1.46-.17-2.19l1-.15c-.4-3.27-.4-3.27-2.46-2.78l1.29,2.21Zm7.86,22.61-1.59-1.63c-1.06,1.88-.77,5,.62,5.75l-.47-2.22,1.14.1c.08-.95.19-1.68.24-2Zm-1.38,9.41.12,1.11h5.16c-.51-1.33-4.39-2.48-5.34-1.11Zm67.64,37.91a5.7,5.7,0,0,0,5,4.41ZM166.78,88.09a7.89,7.89,0,0,0-2.46.42c-.45.23-.66,1.14-1,1.74.56.13,1.24.57,1.65.33A11.31,11.31,0,0,0,167,88.66ZM0,86.29a8.79,8.79,0,0,0,1.08.5c.6.18,1.21.31,1.82.43.87.18,1.75.33,2.63.49l.1-.82L.28,85.48ZM181.12,374.5a16.14,16.14,0,0,0,1.18,2c.75,1,1.52,2.29,2.74.65l-2.52-2.49Zm23.29-244.26-4.64-2-.28.88,4.59,2.14Zm131.8,21.7c.22-1.44.4-2.61.65-4.27C334.55,149,334.46,149.9,336.21,151.94Zm200.71,76.91,4.39-4.73-.43-.91-4.21,5.31ZM177.44,207.17l-3.64-.8-.14,1.14,3.65.55Zm201.13-39.36c2,1.35,3.06.86,3.73-1.27Zm-177.9-28.95c.9-.31,2.21,1.76,2.74-.42l-3.9-1.18,1.22,1.67ZM449.1,50.43l2.77-.64a2.59,2.59,0,0,1,.07-.73,7,7,0,0,0-2.21-.48c-.38,0-.71.83-1.07,1.28Zm77.16-5.23c1.14.73,2.27,1.34,3.42-1.06l-3.49.32ZM8.29,98l3.09.72c-.58-3.09-1.92-1.34-3-1.32Zm92.22-61-3.3,2.1c2.16,1.5,2.76-.34,3.57-1.62Zm49.4-6.72c0,.37-.12,1,0,1.08.79.54,1.63,1.44,2.57-.65Zm133.79-10,3-.75-.19-1.11-3,.67ZM29.45,202.07l.23,3.53,2.17-1.44Zm338.11-34.74-4.73-.88-.1.79,4.74.81ZM650.77,286.28c-.48-.32-1-.92-1.46-.9s-.95.67-1.42,1.05l.17.64h2.5ZM125.2,31.82l-2.67-2.26-.29.5c.65,1.18,1,2.81,2.67,2.37Zm160.58,9.07a3.46,3.46,0,0,0-1.43-.44c-.13,0-.28.62-.42,1a5.47,5.47,0,0,0,1.27.66,5.12,5.12,0,0,0,1.56-.12,5.72,5.72,0,0,0-1-1.1Zm-150-21.1c-.31-.52-.54-1.33-1-1.5s-1.14.14-1.72.25l.09.63,2.17,1Zm408.6,200.59c0-.71.23-1.61-.06-2.07s-1.08-.52-2.09-.94c.74,1.44,1.17,2.28,1.61,3.12ZM540,268.33l3.1,1.26.26-1-3.22-1.12Zm66-9,1.91,3.07.68-.59-2.06-3ZM171.49,92.65V90.2c-.45.17-1.25.27-1.28.5a7.73,7.73,0,0,0,.26,2.09Zm190.1,9a4.12,4.12,0,0,0-.75-.57c-.41,1-.81,2-1.21,3l.45.2,2.19-1.41a8.49,8.49,0,0,0-.68-1.17Z"/></svg>