<svg xmlns="http://www.w3.org/2000/svg" width="633.34" height="521.56" viewBox="0 0 633.34 521.56"><defs><style>.cls-1{fill:#fff;}</style></defs><g id="Layer_2" data-name="Layer 2"><g id="Calque_1" data-name="Calque 1"><path class="cls-1" d="M316.67,0q-9.93,0-20,.9a239.84,239.84,0,0,0-25,3.56,279.92,279.92,0,0,0-53.38,16.25c-26.15,10.8-52.47,25.8-78.25,44.57C96.43,97,69.42,128.61,68.29,129.94l-11,12.95h53.63c25-25.29,86.35-80.25,160.75-97.55a205.47,205.47,0,0,1,25-4.26V66.64a174.29,174.29,0,0,0-25,5.12c-56,15.68-95.91,54.9-98,57l-14.2,14.16,14.2,14.16c2.07,2.07,42,41.29,98,57V172c-21.8-7.86-40.32-19.79-52.78-29.13l0,0c12.44-9.37,30.95-21.31,52.83-29.16a144.32,144.32,0,0,1,25-6.63,117.14,117.14,0,0,1,40,0V.9Q326.6,0,316.67,0Z"/><path class="cls-1" d="M522.41,142.89A440.26,440.26,0,0,1,469,188.73c-26.82,19.43-64.58,41.64-107.3,51.65a208.8,208.8,0,0,1-25,4.3V219.14a174.29,174.29,0,0,0,25-5.12c56-15.68,95.9-54.9,98-57l14.2-14.16-14.2-14.16c-2.07-2.07-42-41.29-98-57v42c21.79,7.86,40.3,19.79,52.77,29.13-12.47,9.34-31,21.26-52.77,29.13a145.79,145.79,0,0,1-25,6.68,116.47,116.47,0,0,1-40,0V284.88q10.06.9,20,.9t20-.9a239.84,239.84,0,0,0,25-3.56,280,280,0,0,0,53.38-16.26c26.14-10.79,52.46-25.79,78.24-44.56,43.61-31.76,70.62-63.33,71.75-64.66l11-13Z"/><rect class="cls-1" x="452.61" y="21.87" width="43.56" height="43.56"/><rect class="cls-1" x="496.17" width="21.78" height="21.78"/><polygon class="cls-1" points="50.19 329.81 0.4 440.24 15.51 440.24 50.15 363 85.18 440.24 100.4 440.24 50.19 329.81"/><path class="cls-1" d="M130.6,333.9H145V440.24H130.6Z"/><path class="cls-1" d="M271.39,337.57V354q-17.19-8.43-31.63-8.43-18.54,0-31.22,12a40.37,40.37,0,0,0,.29,59q13,11.88,32.51,11.88,14.19,0,30-8.93v16.61a65.61,65.61,0,0,1-31.3,7.68q-24.71,0-42.23-16.72t-17.53-40.33q0-23.19,17.23-39.7t41.53-16.52Q254.71,330.56,271.39,337.57Z"/><path class="cls-1" d="M305.27,334.07h14.52v65.36q0,14.52,7,22.45t19.74,7.93q12.69,0,19.74-7.3t7.05-20.58V334.07h14.53v66.86q0,19.53-11.15,31.22T347,443.83q-18.94,0-30.34-11.85t-11.39-35Z"/><path class="cls-1" d="M426.28,333.9h25.79q30.65,0,45.58,16.2t14.94,37q0,21-15.44,37.06t-44.91,16.11h-26Zm14.52,14.19v77.8h.84q16.19,0,24.37-1.46A40.6,40.6,0,0,0,481.54,418,35.62,35.62,0,0,0,493.22,405a37.41,37.41,0,0,0,4.34-17.91,38,38,0,0,0-6.92-22.2q-6.93-9.93-16.57-13.36t-25.92-3.42Z"/><polygon class="cls-1" points="582.73 329.81 532.94 440.24 548.05 440.24 582.69 363 617.72 440.24 632.94 440.24 582.73 329.81"/><path class="cls-1" d="M0,466.89v-5.78H32.31v5.78H19.16v53.19h-6V466.89Z"/><path class="cls-1" d="M49.05,461.11h33.8v5.78H55v18.47H82.61v5.78H55V514.3H82.61v5.78H49.05Z"/><path class="cls-1" d="M156.15,472.06l-4.65,3.56a25.28,25.28,0,0,0-9.24-7.59,26.92,26.92,0,0,0-11.84-2.59,26.16,26.16,0,0,0-13.07,3.39,24.34,24.34,0,0,0-9.32,9.1,25.23,25.23,0,0,0-3.31,12.85,24.12,24.12,0,0,0,7.4,18q7.39,7.22,18.66,7.22a26.22,26.22,0,0,0,20.72-9.7l4.65,3.53a29.71,29.71,0,0,1-11,8.67,34.46,34.46,0,0,1-14.73,3.07q-15.48,0-24.41-10.3a31.07,31.07,0,0,1-7.5-21,29.21,29.21,0,0,1,9.08-21.79q9.07-8.84,22.75-8.84a33.38,33.38,0,0,1,14.91,3.27A29,29,0,0,1,156.15,472.06Z"/><path class="cls-1" d="M176.11,461.11H182v24.74h30V461.11h5.89v59H212V491.62H182v28.46h-5.89Z"/><path class="cls-1" d="M240.51,520.08v-59h1.29L281,506.31v-45.2h5.81v59h-1.32l-38.92-44.65v44.65Z"/><path class="cls-1" d="M337.49,459.63q13.39,0,22.42,8.94a31,31,0,0,1-21.94,53,30.16,30.16,0,0,1-22.14-9,29.5,29.5,0,0,1-9-21.72,31.44,31.44,0,0,1,4.11-15.76,30.41,30.41,0,0,1,26.58-15.47Zm.26,5.73A25.15,25.15,0,0,0,316.19,478a25.48,25.48,0,0,0-3.29,12.88,24.79,24.79,0,0,0,24.85,25,25.2,25.2,0,0,0,12.7-3.33,23.83,23.83,0,0,0,9.12-9.11,25.59,25.59,0,0,0,3.27-12.83,25,25,0,0,0-3.27-12.7,24.47,24.47,0,0,0-9.22-9.09A25,25,0,0,0,337.75,465.36Z"/><path class="cls-1" d="M389,461.11h5.89v53.28h22.69v5.69H389Z"/><path class="cls-1" d="M463.18,459.63q13.4,0,22.42,8.94a31,31,0,0,1-21.94,53,30.15,30.15,0,0,1-22.14-9,29.5,29.5,0,0,1-9-21.72,31.44,31.44,0,0,1,4.11-15.76,30.38,30.38,0,0,1,26.58-15.47Zm.26,5.73A25.15,25.15,0,0,0,441.88,478a25.49,25.49,0,0,0-3.3,12.88,24.81,24.81,0,0,0,24.86,25,25.2,25.2,0,0,0,12.7-3.33,23.83,23.83,0,0,0,9.12-9.11,25.59,25.59,0,0,0,3.27-12.83,25,25,0,0,0-3.27-12.7,24.54,24.54,0,0,0-9.22-9.09A25,25,0,0,0,463.44,465.36Z"/><path class="cls-1" d="M571.53,471,567,475.34a34.78,34.78,0,0,0-10.8-7.35,29.05,29.05,0,0,0-11.44-2.51,27.29,27.29,0,0,0-13.21,3.41,24.74,24.74,0,0,0-9.72,9.24,23.85,23.85,0,0,0-3.45,12.33,24.31,24.31,0,0,0,3.57,12.64,25.32,25.32,0,0,0,9.86,9.42A28.32,28.32,0,0,0,545.56,516,23.55,23.55,0,0,0,561,510.82a20.26,20.26,0,0,0,7.46-13.31h-18.8v-5.69H575q-.07,13.67-8.12,21.7t-21.5,8q-16.35,0-25.9-11.14a29.66,29.66,0,0,1-7.33-19.84,30.39,30.39,0,0,1,4.21-15.6,29.85,29.85,0,0,1,11.54-11.28,33.68,33.68,0,0,1,16.6-4.07,36.82,36.82,0,0,1,14.11,2.71A41.94,41.94,0,0,1,571.53,471Z"/><path class="cls-1" d="M589.8,461.11h6.78l15.09,24.32,14.85-24.32h6.82L614.66,491.9v28.18h-5.82V491.9Z"/></g></g></svg>