<svg width="411" height="324" viewBox="0 0 411 324" fill="none" xmlns="http://www.w3.org/2000/svg">
<path d="M207.879 185.627L205.885 166.459C203.245 166.809 200.569 167.003 197.863 167.003C181.865 167.004 166.821 160.775 155.509 149.462C132.156 126.108 132.156 88.107 155.51 64.755C166.823 53.442 181.864 47.211 197.864 47.211C213.861 47.211 228.904 53.442 240.217 64.755C253.932 78.471 259.58 97.239 257.185 115.125L276.383 117.125V117.14L283.466 117.863L304.972 107.109L283.445 96.347C281.154 77.976 272.984 60.199 258.879 46.094C244.77 31.986 226.991 23.808 208.62 21.513L197.864 0L187.108 21.513C168.734 23.808 150.956 31.987 136.85 46.094C122.745 60.199 114.568 77.976 112.27 96.349L90.753 107.11L112.27 117.866C114.566 136.241 122.743 154.019 136.848 168.126C150.955 182.232 168.732 190.409 187.106 192.704L197.864 214.22L208.617 192.713L207.893 185.629H207.879V185.627Z" fill="black"/>
<path d="M202.253 111.494L222.008 168.064L230.709 192.977C242.599 188.833 253.764 182.015 263.267 172.511C272.769 163.011 279.589 151.844 283.733 139.953L258.793 131.243L202.253 111.494Z" fill="#D82232"/>
<path d="M1.04999 269.3C1.04999 263.367 1.91665 258.133 3.64999 253.6C5.44999 249.067 7.84999 245.3 10.85 242.3C13.9167 239.233 17.45 236.933 21.45 235.4C25.5167 233.867 29.8167 233.1 34.35 233.1C38.8167 233.1 43.0167 233.867 46.95 235.4C50.95 236.933 54.45 239.233 57.45 242.3C60.45 245.3 62.8167 249.067 64.55 253.6C66.35 258.133 67.25 263.367 67.25 269.3C67.25 274.5 66.5833 279.133 65.25 283.2C63.9167 287.267 62.05 290.8 59.65 293.8C57.3167 296.733 54.55 299.133 51.35 301C48.2167 302.8 44.85 304.033 41.25 304.7C41.3167 306.233 41.9833 307.567 43.25 308.7C44.5833 309.9 46.25 310.9 48.25 311.7C50.25 312.5 52.4833 313.167 54.95 313.7C57.4166 314.233 59.8833 314.633 62.35 314.9L60.05 322.5C56.5833 322.033 53.25 321.4 50.05 320.6C46.9167 319.867 44.05 318.867 41.45 317.6C38.9167 316.333 36.7833 314.7 35.05 312.7C33.3167 310.767 32.15 308.333 31.55 305.4C27.35 305.133 23.3833 304.167 19.65 302.5C15.9167 300.767 12.6833 298.4 9.94999 295.4C7.21665 292.333 5.04999 288.633 3.44999 284.3C1.84999 279.967 1.04999 274.967 1.04999 269.3ZM11.25 269.3C11.25 273.5 11.7833 277.333 12.85 280.8C13.9167 284.2 15.4167 287.1 17.35 289.5C19.35 291.9 21.75 293.767 24.55 295.1C27.4167 296.367 30.6167 297 34.15 297C37.6833 297 40.85 296.367 43.65 295.1C46.45 293.767 48.8167 291.9 50.75 289.5C52.75 287.1 54.2833 284.2 55.35 280.8C56.4167 277.333 56.95 273.5 56.95 269.3C56.95 265.1 56.4167 261.3 55.35 257.9C54.2833 254.433 52.75 251.5 50.75 249.1C48.8167 246.7 46.45 244.867 43.65 243.6C40.85 242.267 37.6833 241.6 34.15 241.6C30.6167 241.6 27.4167 242.267 24.55 243.6C21.75 244.867 19.35 246.7 17.35 249.1C15.4167 251.5 13.9167 254.433 12.85 257.9C11.7833 261.3 11.25 265.1 11.25 269.3Z" fill="black"/>
<path d="M122.482 302.5C120.349 303.033 117.515 303.6 113.982 304.2C110.515 304.8 106.482 305.1 101.882 305.1C97.882 305.1 94.5154 304.533 91.782 303.4C89.0487 302.2 86.8487 300.533 85.182 298.4C83.5154 296.267 82.3153 293.767 81.582 290.9C80.8487 287.967 80.482 284.733 80.482 281.2V252H89.782V279.2C89.782 285.533 90.782 290.067 92.782 292.8C94.782 295.533 98.1487 296.9 102.882 296.9C103.882 296.9 104.915 296.867 105.982 296.8C107.049 296.733 108.049 296.667 108.982 296.6C109.915 296.467 110.749 296.367 111.482 296.3C112.282 296.167 112.849 296.033 113.182 295.9V252H122.482V302.5Z" fill="black"/>
<path d="M156.104 297.3C158.304 297.3 160.237 297.267 161.904 297.2C163.637 297.067 165.071 296.867 166.204 296.6V281.1C165.537 280.767 164.437 280.5 162.904 280.3C161.437 280.033 159.637 279.9 157.504 279.9C156.104 279.9 154.604 280 153.004 280.2C151.471 280.4 150.037 280.833 148.704 281.5C147.437 282.1 146.371 282.967 145.504 284.1C144.637 285.167 144.204 286.6 144.204 288.4C144.204 291.733 145.271 294.067 147.404 295.4C149.537 296.667 152.437 297.3 156.104 297.3ZM155.304 250.7C159.037 250.7 162.171 251.2 164.704 252.2C167.304 253.133 169.371 254.5 170.904 256.3C172.504 258.033 173.637 260.133 174.304 262.6C174.971 265 175.304 267.667 175.304 270.6V303.1C174.504 303.233 173.371 303.433 171.904 303.7C170.504 303.9 168.904 304.1 167.104 304.3C165.304 304.5 163.337 304.667 161.204 304.8C159.137 305 157.071 305.1 155.004 305.1C152.071 305.1 149.371 304.8 146.904 304.2C144.437 303.6 142.304 302.667 140.504 301.4C138.704 300.067 137.304 298.333 136.304 296.2C135.304 294.067 134.804 291.5 134.804 288.5C134.804 285.633 135.371 283.167 136.504 281.1C137.704 279.033 139.304 277.367 141.304 276.1C143.304 274.833 145.637 273.9 148.304 273.3C150.971 272.7 153.771 272.4 156.704 272.4C157.637 272.4 158.604 272.467 159.604 272.6C160.604 272.667 161.537 272.8 162.404 273C163.337 273.133 164.137 273.267 164.804 273.4C165.471 273.533 165.937 273.633 166.204 273.7V271.1C166.204 269.567 166.037 268.067 165.704 266.6C165.371 265.067 164.771 263.733 163.904 262.6C163.037 261.4 161.837 260.467 160.304 259.8C158.837 259.067 156.904 258.7 154.504 258.7C151.437 258.7 148.737 258.933 146.404 259.4C144.137 259.8 142.437 260.233 141.304 260.7L140.204 253C141.404 252.467 143.404 251.967 146.204 251.5C149.004 250.967 152.037 250.7 155.304 250.7Z" fill="black"/>
<path d="M209.95 250.9C210.75 250.9 211.65 250.967 212.65 251.1C213.717 251.167 214.75 251.3 215.75 251.5C216.75 251.633 217.65 251.8 218.45 252C219.317 252.133 219.95 252.267 220.35 252.4L218.75 260.5C218.017 260.233 216.783 259.933 215.05 259.6C213.383 259.2 211.217 259 208.55 259C206.817 259 205.083 259.2 203.35 259.6C201.683 259.933 200.583 260.167 200.05 260.3V304H190.75V254.2C192.95 253.4 195.683 252.667 198.95 252C202.217 251.267 205.883 250.9 209.95 250.9Z" fill="black"/>
<path d="M248.124 275.4C250.124 276.933 252.224 278.833 254.424 281.1C256.691 283.367 258.891 285.833 261.024 288.5C263.224 291.1 265.291 293.767 267.224 296.5C269.158 299.167 270.791 301.667 272.124 304H261.224C259.824 301.667 258.191 299.3 256.324 296.9C254.524 294.433 252.624 292.1 250.624 289.9C248.624 287.633 246.591 285.567 244.524 283.7C242.458 281.833 240.491 280.267 238.624 279V304H229.324V228L238.624 226.4V273.8C240.224 272.2 241.991 270.433 243.924 268.5C245.858 266.567 247.758 264.6 249.624 262.6C251.491 260.6 253.258 258.7 254.924 256.9C256.591 255.033 258.024 253.4 259.224 252H270.124C268.591 253.667 266.924 255.5 265.124 257.5C263.324 259.5 261.458 261.533 259.524 263.6C257.591 265.6 255.624 267.633 253.624 269.7C251.691 271.7 249.858 273.6 248.124 275.4Z" fill="black"/>
<path d="M321.37 304C319.437 300.133 317.304 296.233 314.97 292.3C312.704 288.3 310.07 284.233 307.07 280.1C306.137 281.3 304.937 282.967 303.47 285.1C302.07 287.233 300.637 289.5 299.17 291.9C297.77 294.3 296.437 296.6 295.17 298.8C293.904 301 292.97 302.733 292.37 304H274.57C277.504 298.6 280.904 292.933 284.77 287C288.704 281.067 293.07 274.767 297.87 268.1L275.57 234.7H294.47L307.97 256.3L321.17 234.7H338.97L316.97 268.3C322.57 275.567 327.27 282.3 331.07 288.5C334.87 294.633 337.87 299.8 340.07 304H321.37Z" fill="black"/>
<path d="M369.351 233.9C379.751 233.9 387.717 235.767 393.251 239.5C398.784 243.167 401.551 248.9 401.551 256.7C401.551 261.567 400.417 265.533 398.151 268.6C395.951 271.6 392.751 273.967 388.551 275.7C389.951 277.433 391.417 279.433 392.951 281.7C394.484 283.9 395.984 286.233 397.451 288.7C398.984 291.1 400.451 293.633 401.851 296.3C403.251 298.9 404.551 301.467 405.751 304H388.251C386.984 301.733 385.684 299.433 384.351 297.1C383.084 294.767 381.751 292.5 380.351 290.3C379.017 288.1 377.684 286.033 376.351 284.1C375.017 282.1 373.684 280.3 372.351 278.7H364.651V304H349.051V235.7C352.451 235.033 355.951 234.567 359.551 234.3C363.217 234.033 366.484 233.9 369.351 233.9ZM370.251 247.2C369.117 247.2 368.084 247.233 367.151 247.3C366.284 247.367 365.451 247.433 364.651 247.5V266.3H369.051C374.917 266.3 379.117 265.567 381.651 264.1C384.184 262.633 385.451 260.133 385.451 256.6C385.451 253.2 384.151 250.8 381.551 249.4C379.017 247.933 375.251 247.2 370.251 247.2Z" fill="black"/>
</svg>
