<?xml version="1.0" encoding="utf-8"?>
<!-- Generator: Adobe Illustrator 25.4.1, SVG Export Plug-In . SVG Version: 6.00 Build 0)  -->
<svg version="1.1" id="Layer_1" xmlns="http://www.w3.org/2000/svg" xmlns:xlink="http://www.w3.org/1999/xlink" x="0px" y="0px"
	 viewBox="0 0 411 324" style="enable-background:new 0 0 411 324;" xml:space="preserve">
<style type="text/css">
	.st0{fill:#F98822;}
</style>
<path d="M207.9,185.6l-2-19.2c-2.6,0.4-5.3,0.5-8,0.5c-16,0-31-6.2-42.4-17.5c-23.4-23.4-23.4-61.4,0-84.7
	c11.3-11.3,26.4-17.5,42.4-17.5c16,0,31,6.2,42.4,17.5c13.7,13.7,19.4,32.5,17,50.4l19.2,2v0l7.1,0.7l21.5-10.8l-21.5-10.8
	C281.2,78,273,60.2,258.9,46.1C244.8,32,227,23.8,208.6,21.5L197.9,0l-10.8,21.5C168.7,23.8,151,32,136.9,46.1
	c-14.1,14.1-22.3,31.9-24.6,50.3l-21.5,10.8l21.5,10.8c2.3,18.4,10.5,36.2,24.6,50.3c14.1,14.1,31.9,22.3,50.3,24.6l10.8,21.5
	l10.8-21.5L207.9,185.6L207.9,185.6L207.9,185.6z"/>
<path class="st0" d="M202.3,111.5l19.8,56.6l8.7,24.9c11.9-4.1,23.1-11,32.6-20.5c9.5-9.5,16.3-20.7,20.5-32.6l-24.9-8.7
	L202.3,111.5z"/>
<path d="M3,269.3c0-5.9,0.9-11.2,2.6-15.7c1.8-4.5,4.2-8.3,7.2-11.3c3.1-3.1,6.6-5.4,10.6-6.9c4.1-1.5,8.4-2.3,12.9-2.3
	c4.5,0,8.7,0.8,12.6,2.3c4,1.5,7.5,3.8,10.5,6.9c3,3,5.4,6.8,7.1,11.3c1.8,4.5,2.7,9.8,2.7,15.7c0,5.2-0.7,9.8-2,13.9
	c-1.3,4.1-3.2,7.6-5.6,10.6c-2.3,2.9-5.1,5.3-8.3,7.2c-3.1,1.8-6.5,3-10.1,3.7c0.1,1.5,0.7,2.9,2,4c1.3,1.2,3,2.2,5,3
	c2,0.8,4.2,1.5,6.7,2c2.5,0.5,4.9,0.9,7.4,1.2l-2.3,7.6c-3.5-0.5-6.8-1.1-10-1.9c-3.1-0.7-6-1.7-8.6-3c-2.5-1.3-4.7-2.9-6.4-4.9
	c-1.7-1.9-2.9-4.4-3.5-7.3c-4.2-0.3-8.2-1.2-11.9-2.9c-3.7-1.7-7-4.1-9.7-7.1c-2.7-3.1-4.9-6.8-6.5-11.1C3.8,280,3,275,3,269.3z
	 M13.2,269.3c0,4.2,0.5,8,1.6,11.5c1.1,3.4,2.6,6.3,4.5,8.7c2,2.4,4.4,4.3,7.2,5.6c2.9,1.3,6.1,1.9,9.6,1.9c3.5,0,6.7-0.6,9.5-1.9
	c2.8-1.3,5.2-3.2,7.1-5.6c2-2.4,3.5-5.3,4.6-8.7c1.1-3.5,1.6-7.3,1.6-11.5c0-4.2-0.5-8-1.6-11.4c-1.1-3.5-2.6-6.4-4.6-8.8
	c-1.9-2.4-4.3-4.2-7.1-5.5c-2.8-1.3-6-2-9.5-2c-3.5,0-6.7,0.7-9.6,2c-2.8,1.3-5.2,3.1-7.2,5.5c-1.9,2.4-3.4,5.3-4.5,8.8
	C13.7,261.3,13.2,265.1,13.2,269.3z"/>
<path d="M124.4,302.5c-2.1,0.5-5,1.1-8.5,1.7c-3.5,0.6-7.5,0.9-12.1,0.9c-4,0-7.4-0.6-10.1-1.7c-2.7-1.2-4.9-2.9-6.6-5
	c-1.7-2.1-2.9-4.6-3.6-7.5c-0.7-2.9-1.1-6.2-1.1-9.7V252h9.3v27.2c0,6.3,1,10.9,3,13.6s5.4,4.1,10.1,4.1c1,0,2,0,3.1-0.1
	c1.1-0.1,2.1-0.1,3-0.2c0.9-0.1,1.8-0.2,2.5-0.3c0.8-0.1,1.4-0.3,1.7-0.4V252h9.3V302.5z"/>
<path d="M158.1,297.3c2.2,0,4.1,0,5.8-0.1c1.7-0.1,3.2-0.3,4.3-0.6v-15.5c-0.7-0.3-1.8-0.6-3.3-0.8c-1.5-0.3-3.3-0.4-5.4-0.4
	c-1.4,0-2.9,0.1-4.5,0.3c-1.5,0.2-3,0.6-4.3,1.3c-1.3,0.6-2.3,1.5-3.2,2.6c-0.9,1.1-1.3,2.5-1.3,4.3c0,3.3,1.1,5.7,3.2,7
	C151.5,296.7,154.4,297.3,158.1,297.3z M157.3,250.7c3.7,0,6.9,0.5,9.4,1.5c2.6,0.9,4.7,2.3,6.2,4.1c1.6,1.7,2.7,3.8,3.4,6.3
	c0.7,2.4,1,5.1,1,8v32.5c-0.8,0.1-1.9,0.3-3.4,0.6c-1.4,0.2-3,0.4-4.8,0.6c-1.8,0.2-3.8,0.4-5.9,0.5c-2.1,0.2-4.1,0.3-6.2,0.3
	c-2.9,0-5.6-0.3-8.1-0.9c-2.5-0.6-4.6-1.5-6.4-2.8c-1.8-1.3-3.2-3.1-4.2-5.2c-1-2.1-1.5-4.7-1.5-7.7c0-2.9,0.6-5.3,1.7-7.4
	c1.2-2.1,2.8-3.7,4.8-5s4.3-2.2,7-2.8c2.7-0.6,5.5-0.9,8.4-0.9c0.9,0,1.9,0.1,2.9,0.2c1,0.1,1.9,0.2,2.8,0.4
	c0.9,0.1,1.7,0.3,2.4,0.4c0.7,0.1,1.1,0.2,1.4,0.3v-2.6c0-1.5-0.2-3-0.5-4.5c-0.3-1.5-0.9-2.9-1.8-4c-0.9-1.2-2.1-2.1-3.6-2.8
	c-1.5-0.7-3.4-1.1-5.8-1.1c-3.1,0-5.8,0.2-8.1,0.7c-2.3,0.4-4,0.8-5.1,1.3l-1.1-7.7c1.2-0.5,3.2-1,6-1.5
	C151,251,154,250.7,157.3,250.7z"/>
<path d="M211.9,250.9c0.8,0,1.7,0.1,2.7,0.2c1.1,0.1,2.1,0.2,3.1,0.4c1,0.1,1.9,0.3,2.7,0.5c0.9,0.1,1.5,0.3,1.9,0.4l-1.6,8.1
	c-0.7-0.3-2-0.6-3.7-0.9c-1.7-0.4-3.8-0.6-6.5-0.6c-1.7,0-3.5,0.2-5.2,0.6c-1.7,0.3-2.8,0.6-3.3,0.7V304h-9.3v-49.8
	c2.2-0.8,4.9-1.5,8.2-2.2C204.2,251.3,207.8,250.9,211.9,250.9z"/>
<path d="M250.1,275.4c2,1.5,4.1,3.4,6.3,5.7c2.3,2.3,4.5,4.7,6.6,7.4c2.2,2.6,4.3,5.3,6.2,8c1.9,2.7,3.6,5.2,4.9,7.5h-10.9
	c-1.4-2.3-3-4.7-4.9-7.1c-1.8-2.5-3.7-4.8-5.7-7c-2-2.3-4-4.3-6.1-6.2c-2.1-1.9-4-3.4-5.9-4.7v25h-9.3v-76l9.3-1.6v47.4
	c1.6-1.6,3.4-3.4,5.3-5.3c1.9-1.9,3.8-3.9,5.7-5.9c1.9-2,3.6-3.9,5.3-5.7c1.7-1.9,3.1-3.5,4.3-4.9h10.9c-1.5,1.7-3.2,3.5-5,5.5
	c-1.8,2-3.7,4-5.6,6.1c-1.9,2-3.9,4-5.9,6.1C253.6,271.7,251.8,273.6,250.1,275.4z"/>
<path d="M323.3,304c-1.9-3.9-4.1-7.8-6.4-11.7c-2.3-4-4.9-8.1-7.9-12.2c-0.9,1.2-2.1,2.9-3.6,5c-1.4,2.1-2.8,4.4-4.3,6.8
	c-1.4,2.4-2.7,4.7-4,6.9c-1.3,2.2-2.2,3.9-2.8,5.2h-17.8c2.9-5.4,6.3-11.1,10.2-17c3.9-5.9,8.3-12.2,13.1-18.9l-22.3-33.4h18.9
	l13.5,21.6l13.2-21.6h17.8l-22,33.6c5.6,7.3,10.3,14,14.1,20.2c3.8,6.1,6.8,11.3,9,15.5H323.3z"/>
<path d="M371.3,233.9c10.4,0,18.4,1.9,23.9,5.6c5.5,3.7,8.3,9.4,8.3,17.2c0,4.9-1.1,8.8-3.4,11.9c-2.2,3-5.4,5.4-9.6,7.1
	c1.4,1.7,2.9,3.7,4.4,6c1.5,2.2,3,4.5,4.5,7c1.5,2.4,3,4.9,4.4,7.6c1.4,2.6,2.7,5.2,3.9,7.7h-17.5c-1.3-2.3-2.6-4.6-3.9-6.9
	c-1.3-2.3-2.6-4.6-4-6.8c-1.3-2.2-2.7-4.3-4-6.2c-1.3-2-2.7-3.8-4-5.4h-7.7V304H351v-68.3c3.4-0.7,6.9-1.1,10.5-1.4
	C365.2,234,368.4,233.9,371.3,233.9z M372.2,247.2c-1.1,0-2.2,0-3.1,0.1c-0.9,0.1-1.7,0.1-2.5,0.2v18.8h4.4c5.9,0,10.1-0.7,12.6-2.2
	c2.5-1.5,3.8-4,3.8-7.5c0-3.4-1.3-5.8-3.9-7.2C381,247.9,377.2,247.2,372.2,247.2z"/>
</svg>
