<svg height="244.87" viewBox="0 0 448.82 244.87" width="448.82" xmlns="http://www.w3.org/2000/svg"><g fill="#fff"><path d="m225.88 208.28c-25.58-.66-49.18-7.06-69.66-22.69-14-10.7-20.7-24.94-19.79-43 1.21-24 7.95-46.5 16.21-68.7a295 295 0 0 1 35.36-66.32c6-8.55 6.59-9.3 16.16-5 7.29 3.25 13.82 8.31 20.39 13 3.38 2.41 3.16 5.39.28 8.85-8.73 10.47-17.78 20.79-25.39 32.06-12.92 19.12-20.52 40.58-23.53 63.52-1.84 14.07 4.47 25.45 17 32.87 13.11 7.73 27.2 8.13 41.64 6.28 13.88-1.78 12-3.45 14.83 10.58 1.92 9.73 2 19.82 2.88 29.76.32 3.7-1 6-5.13 6.35-7.08.69-14.13 1.62-21.25 2.44z"/><path d="m268.27 85.2c-1.06 18.3-7.56 30.89-21.86 38.74-17.17 9.44-37.27.32-43.37-19.59-5.55-18.11 5.33-41.4 22.74-48.7 15-6.29 32 .13 38.46 15.06 2.27 5.29 3.12 11.1 4.03 14.49zm-11.59 4.4c-.28-7.74-2.86-13.82-9.34-17.62-5.87-3.43-11.85-2.88-17.56.47-9.37 5.51-13.79 18-10.16 28.29 4.09 11.54 16.82 15.62 26.84 8.53 6.91-4.9 9.84-11.87 10.22-19.67z"/><path d="m9.64 77.91c0 11.78-.11 23.24.07 34.69 0 3.78-1.4 4.92-5 4.88-3.45 0-4.73-1.31-4.7-4.75.12-11.66 0-23.32 0-35v-40.46c0-3.33-.66-6.68 4.72-6.76s4.92 3 4.9 6.5c-.05 10.48 0 21 0 31.9h50.1v-9.38c0-7.83.12-15.67-.05-23.49-.07-3.64.79-5.56 5-5.51 3.94 0 4.71 1.87 4.7 5.27q-.12 38.24 0 76.46c0 3.42-.74 5.2-4.68 5.24-4.13 0-5.05-1.73-5-5.44.16-11.28.05-22.57.05-34.15z"/><path d="m339.63 165.41c7.25 12.13 5 25-5.2 31.17-6.27 3.8-13.09 3.85-19.7 1.21-4.55-1.82-6.29.91-7.47 4-1.35 3.53.34 6.47 4 7.2 3.38.66 6.94.39 10.42.56 5.29.26 10.79-.27 15.83 1 11.36 2.85 15.2 15.06 8.22 24.46-8.33 11.21-29.71 13.36-40.08 4-6.79-6.12-6.52-14.16.75-22.12-10.41-9.08-10.47-15.06 0-26.37-4-6.9-4.86-14.23-1.17-21.7 3.56-7.17 9.29-11.16 17.41-11.3q9.24-.15 18.47 0c2.14 0 5-.9 5.4 2.71s-2.19 3.94-4.71 4.41a17.32 17.32 0 0 0 -2.17.77zm-16 26.55c7.18 0 12.16-5.52 12.11-13.52-.06-7.82-4.83-13.22-11.82-13.36-7.38-.14-12.82 5.64-12.77 13.56.03 7.74 5.22 13.27 12.47 13.36zm.17 45.09.63.79c4.24-2 9-3.36 12.5-6.28 1.95-1.65 2.92-6.27 2.1-8.84-.71-2.23-4.37-4.38-7.06-4.92-4.16-.83-8.62-.4-12.94-.25a9.83 9.83 0 0 0 -9.31 7.62c-.78 4.32 1.56 8.24 6.38 10a62.12 62.12 0 0 0 7.69 1.88z"/><path d="m308 85.6c-1 4.9-2.63 13.16-4.48 21.38a12.88 12.88 0 0 1 -2.49 4.83c-3.67 4.75-9 4.22-10.46-1.53a48.59 48.59 0 0 1 -1.23-16.17c.93-10.29 2.06-20.42-.6-30.68-2.22-8.57-6.48-15.81-11.51-23-3.11-4.44-4.84-10-6.42-15.29-.94-3.16-.31-6.85 3.4-8.53s7.86-1.45 10.62 1.68c3.92 4.44 8 9.05 10.59 14.29 7.75 15.52 11.58 32.14 12.58 53.02z"/><path d="m367.87 161.37c6.34-1.38 12-3.41 17.78-3.68 8.46-.4 15.24 4.83 16.16 13.28 1.21 11 .92 22.25.87 33.39 0 1-3.06 2.88-4.54 2.73s-3.65-2.32-3.74-3.72c-.4-6.64-.19-13.32-.19-20 0-1 0-2 0-3-.12-5.59-.18-11.27-6.5-13.89-5.07-2.1-14.51.33-18.39 4.93a8.52 8.52 0 0 0 -1.39 5q-.19 13 0 26c0 3.17-.65 5-4.38 5-3.54 0-4-1.92-4-4.81q.09-38 0-76c0-3.11.94-4.6 4.26-4.59s4.16 1.71 4.14 4.72c-.14 11.82-.08 23.61-.08 34.64z"/><path d="m134.26 92.57c0 14.49-11 26.05-24.75 26s-24.69-11.78-24.61-26.19c.1-14.1 11.1-25.73 24.54-25.79 13.7-.07 24.83 11.58 24.82 25.98zm-40.65.05c0 9.62 7.25 17.8 15.82 17.95s16.18-8.31 16.17-18.12c0-9.66-7.25-17.53-16.09-17.49s-15.94 8.04-15.9 17.66z"/><path d="m422.36 167c-2.62-2.26-8.12 1.5-8.16-4.63 0-6.32 5.44-2.31 8.42-4.78 0-3.16.14-7 0-10.72-.17-3.59 1.95-4 4.75-4.14 3-.12 3.74 1.44 3.71 4-.06 3.78 0 7.57 0 11.93 4.59 0 8.54.08 12.49 0 2.65-.08 4 .74 4 3.65s-1.39 3.83-4 3.8c-3.95-.05-7.91 0-12.38 0 0 10.42-.07 20.19 0 30 0 2.84 1.79 4.3 4.65 3.79a22.68 22.68 0 0 0 6.68-1.86c3.27-1.76 4.43.07 5.74 2.46 1.56 2.84-.28 3.94-2.35 4.92a35.48 35.48 0 0 1 -4.61 1.9c-13.07 4-18.65-.12-18.67-13.7q0-12.75-.05-25.49a6.07 6.07 0 0 0 -.22-1.13z"/><path d="m278 182.62c0-6.48.08-13 0-19.42-.06-3.4 1.29-4.7 4.75-4.64s4 1.89 4 4.78q-.1 19.66 0 39.33c0 3-.79 4.66-4.15 4.74-3.58.08-4.64-1.65-4.59-4.88.04-6.64-.01-13.28-.01-19.91z"/><path d="m291.62 130.55a8.94 8.94 0 0 1 -8.58 8.64 8.6 8.6 0 0 1 -.13-17.19 9.07 9.07 0 0 1 8.71 8.55z"/></g></svg>