<svg height="35.23" viewBox="0 0 215.71 35.23" width="215.71" xmlns="http://www.w3.org/2000/svg"><g fill="#fff"><path d="m133.32 9.35h4.44l.34 2.18a6.49 6.49 0 0 1 5.33-2.6 4.9 4.9 0 0 1 4.67 2.72c1.26-.83 2.39-2 3.75-2.4 3.76-1.26 7.08 1 7.49 5 .27 2.55.19 5.14.23 7.72v5.61h-5v-4.09c0-2.62 0-5.24 0-7.85a2.52 2.52 0 0 0 -1.57-2.64 3 3 0 0 0 -3.35.66 2.83 2.83 0 0 0 -.75 1.76c-.06 3.71 0 7.41 0 11.12 0 .35-.05.7-.08 1.08h-4.92c0-1.3 0-2.54 0-3.78 0-2.7.06-5.4 0-8.1s-2.19-3.74-4.49-2.51a2 2 0 0 0 -1.23 2c.05 3.66 0 7.33 0 11v1.38h-4.84z"/><path d="m199.72 1.21h4.86v9.9a17.76 17.76 0 0 1 3.42-1.92c3.73-1.12 7 1.18 7.49 5.19a64.17 64.17 0 0 1 .23 6.51v6.72h-5v-3.61c0-2.65 0-5.31 0-8s-1.77-3.76-4.25-3a2.07 2.07 0 0 0 -1.79 2.42v12.18h-4.89z"/><path d="m37.12 2.09c-1 1.17-2 2.39-3.08 3.56a1 1 0 0 1 -.91.19c-7.43-2.61-14.41-1.07-21.13 2.39a3.1 3.1 0 0 0 -1.24 1.34 5.64 5.64 0 0 1 -7.47 2.73 5.53 5.53 0 0 1 -2.76-7.41 5.37 5.37 0 0 1 7.47-2.63c1.7 1 2.94.78 4.61.13a34.8 34.8 0 0 1 24.32-.39c.15.05.28.13.19.09z"/><path d="m96.92 33.71.71-2.14a42.5 42.5 0 0 0 5.9.58c2.32-.1 3.4-1.44 3.57-3.78.05-.76 0-1.52 0-2.05a18.51 18.51 0 0 1 -4.18 1.61c-3.74.5-6.56-1.51-7.62-5.19a14.93 14.93 0 0 1 .06-8.12c1.76-6.51 8.53-7.28 11.93-3.26.26-.68.34-1.64.83-1.95s1.47-.08 2.37-.08v1.37c0 5.36-.12 10.73 0 16.08.21 7.27-4.71 8.84-9.89 8.15a16.8 16.8 0 0 1 -2.57-.68 8.18 8.18 0 0 1 -1.11-.54zm10.21-15.22v-.6c0-1.28.23-2.67-.18-3.83-1-2.72-5.34-3.23-7.19-1s-2.17 8-.47 10.45a4.57 4.57 0 0 0 5.18 1.54 3.71 3.71 0 0 0 2.66-3.81z"/><path d="m178.8 20h-10.8c0 2.58 1.54 4.16 4 4.19a10.56 10.56 0 0 0 2.63-.29 21.58 21.58 0 0 0 2.53-1l1.32 3a11.92 11.92 0 0 1 -1.09.71 11.68 11.68 0 0 1 -7.59 1.28c-3.89-.61-6.46-3.41-7-7.57a11.84 11.84 0 0 1 1.1-7.16c1.78-3.35 5-4.78 9.11-4 3.15.58 5.28 3 5.7 6.61a37.29 37.29 0 0 1 .09 4.23zm-4.86-3.4c.22-2.31-.81-3.74-2.69-3.82s-3.24 1.52-3.18 3.82z"/><path d="m87.2 11.08v-9.87h3.25v26.42h-2.61l-.43-2c-.26.23-.46.4-.65.58a6.73 6.73 0 0 1 -10.08-.92c-1.68-2.45-1.86-5.29-1.62-8.11a11 11 0 0 1 1.78-5.44 6.5 6.5 0 0 1 9.55-1.31zm0 7.39c0-.36 0-.72 0-1.08a11 11 0 0 0 -.2-3.46c-1.08-2.65-5.38-3.06-7.14-.8s-2 7.92-.44 10.38a4.46 4.46 0 0 0 5 1.6 3.65 3.65 0 0 0 2.76-3.86z"/><path d="m196.36 14.83h-4.6c-.91-2.18-2-2.83-3.88-2.35a2 2 0 0 0 -1.64 1.71 1.72 1.72 0 0 0 1.31 1.93c1.14.38 2.33.6 3.48 1a16.25 16.25 0 0 1 2.92 1.1 4.79 4.79 0 0 1 .56 8.21c-2.75 2.06-7.91 2.24-10.76.32a5.45 5.45 0 0 1 -2.75-4.81h4.42c.88 2.29 2.44 3.16 4.64 2.57a2 2 0 0 0 1.67-1.68 1.74 1.74 0 0 0 -1.24-1.83c-1-.39-2-.63-3-.94s-1.86-.55-2.75-.9a4.64 4.64 0 0 1 -3.31-4.44 5 5 0 0 1 3-4.73 9.53 9.53 0 0 1 9.77.57 4.56 4.56 0 0 1 2.16 4.27z"/><path d="m7.58 15.1 4.19-2.64 3.93 4.6c1.84 2.14 3.65 4.3 5.54 6.4a1.94 1.94 0 0 0 1.39.58 5.6 5.6 0 0 1 1.54 11.1 5.57 5.57 0 0 1 -6.28-4.37 4.75 4.75 0 0 1 0-2.25 2.07 2.07 0 0 0 -.61-2.22c-3.28-3.74-6.54-7.54-9.7-11.2z"/><path d="m29.91 25.51a5.29 5.29 0 0 0 -4.06-3.05c1.6-1.81 3-3.47 4.51-5.1 1.7-1.88 3.47-3.7 5.16-5.6a1.59 1.59 0 0 0 .28-1.21 5.64 5.64 0 1 1 11.06-2.15 5.57 5.57 0 0 1 -6.08 6.25 2.19 2.19 0 0 0 -2 .85c-2.61 3-5.26 6-7.9 9-.29.28-.57.57-.97 1.01z"/><path d="m70.26 23.74 1.2 2a8.59 8.59 0 0 1 -.85.72 9.6 9.6 0 0 1 -9.46.71c-3.13-1.45-4.32-4.29-4.54-7.58-.2-2.89.22-5.64 2.21-7.93a7.44 7.44 0 0 1 8.3-2.35c3.06.91 4.36 3.25 4.73 6.22.15 1.18.14 2.39.21 3.72h-11.94c-.4 5.69 3.74 7.48 10.14 4.49zm-10-7.2h8.34c.07-3-1.44-4.9-4-5-2.29-.03-4.29 2.23-4.36 5z"/><path d="m129.89 19.3h-11.89c.08 2.27.61 4.24 2.57 5.48s4.79.72 7.59-1.13l1.27 2.08a5.33 5.33 0 0 1 -.73.65 9.51 9.51 0 0 1 -9.55.8c-3.17-1.46-4.36-4.33-4.56-7.68-.18-3.17.36-6.1 2.77-8.42a7.41 7.41 0 0 1 8.17-1.61c2.83 1 4 3.34 4.31 6.17.16 1.14.05 2.36.05 3.66zm-3.3-2.74c.12-3.09-1.53-5-4.14-5-2.28.06-4.31 2.52-4.12 5z"/></g></svg>