<svg height="156.55" viewBox="0 0 103.11 156.55" width="103.11" xmlns="http://www.w3.org/2000/svg"><g fill="#fff"><path d="m38.4 142.31h2.06c-.34-.89-.66-1.74-1-2.69z"/><path d="m20.94 40.2a39 39 0 0 0 5.81 2.65c.26.09.33.21.32.49a22.46 22.46 0 0 0 .93 7.38c.35 1.16.83 2.28 1.2 3.43.91 2.81 1.78 5.63 2.67 8.44q4.62 14.67 9.25 29.34c.25.79.5 1.59.77 2.43l-1.76-.57c.32 3 .64 5.89 1 8.83 1-.09 2-.17 3-.27.21 0 .31 0 .37.22.11.37.23.74.35 1.1s.23.7.35 1.08a2.23 2.23 0 0 1 -1.78-.52 1.22 1.22 0 0 0 -.86-.35c-.71 0-1.42-.08-2.13-.12-.27 0-.54 0-.83 0a8.09 8.09 0 0 0 1 4.53 2.14 2.14 0 0 0 1.52 1.11 1.46 1.46 0 0 1 1.27 1.11 1.26 1.26 0 0 0 1.57.92 7.43 7.43 0 0 0 .81-.09c2.15-.4 4.3-.79 6.45-1.21 1.33-.26 2.65-.56 4-.86a2.72 2.72 0 0 0 1.78-1.53c.21-.4.39-.82.61-1.21a.71.71 0 0 1 .33-.31c1-.4 2-.76 3-1.17a4.65 4.65 0 0 0 .74-.44l-.07-.16a19.91 19.91 0 0 0 -2 .37 12.51 12.51 0 0 1 -4.88.32l.81-2.4 3.94-.39c-.08-.16-.12-.27-.17-.36-.7-1.17-1.39-2.34-2.09-3.5a.51.51 0 0 1 -.08-.5c.17-.43.31-.87.46-1.31q4.4-13.06 8.82-26.12l1.32-3.88c.3-.87.59-1.75.9-2.66-.54-.26-1-.52-1.58-.79l-10.73 32.4a4.41 4.41 0 0 1 0-1.09c.28-1.67.57-3.34.85-5 .49-3 1-5.94 1.47-8.91.46-2.81.93-5.63 1.39-8.44.38-2.28.76-4.55 1.16-6.82a.55.55 0 0 1 .25-.35c.87-.56 1.77-1.1 2.64-1.67.45-.29.87-.64 1.29-.95l-10.38-6.4-.37.36a12.9 12.9 0 0 1 -10.43 4 10.26 10.26 0 0 1 -5.46-2 1.11 1.11 0 0 1 -.35-.55c-.11-.47-.15-1-.22-1.44-.3-2.14-.62-4.28-.9-6.42s-.51-4.11-.73-6.18c-.11-1.08-.07-1.08-.93-1.75l-1-.78c.24 5.21 1.19 10.25 1.88 15.43a18.72 18.72 0 0 1 -5.8-18.65l-3.76-.18c-.18.85-.36 1.67-.54 2.51a26.71 26.71 0 0 1 -6.19-3.2 9.91 9.91 0 0 1 3.11-.56h6.9a2.1 2.1 0 0 1 1.41.57c5.54 4.74 11.38 9.06 17.38 13.17a195.74 195.74 0 0 0 19.7 12 44 44 0 0 0 7.8 3.34 6.87 6.87 0 0 0 2.74.33 2 2 0 0 0 1.76-2.44 6 6 0 0 0 -1.19-2.39 32 32 0 0 0 -3.63-4.09c-1.22-1.16-2.47-2.3-3.71-3.45a.36.36 0 0 1 -.15-.46c.13-.3.19-.62.32-.92a.37.37 0 0 1 .3-.17l3 .05a20.63 20.63 0 0 0 4.23-.3 7 7 0 0 0 2.5-.83 2.35 2.35 0 0 0 .6-3.68 7.87 7.87 0 0 0 -2.27-1.8 36.71 36.71 0 0 0 -6.44-2.78.73.73 0 0 1 -.56-.74 31.86 31.86 0 0 0 -.51-3.25 23.48 23.48 0 0 0 -10-14.53 23.17 23.17 0 0 0 -15.94-3.9 24.09 24.09 0 0 0 -11.59 4.59c-.63.46-1.23 1-1.85 1.45l-3.31-1.86a36.18 36.18 0 0 0 -7.26-3.2 6.64 6.64 0 0 0 -2.65-.3 2.11 2.11 0 0 0 -2 2.41 5.29 5.29 0 0 0 .46 1.48 13.91 13.91 0 0 0 2.09 2.92 64.68 64.68 0 0 0 5.81 5.78c.11.1.25.19.37.29l-.08.1h-.87a29.2 29.2 0 0 0 -6.4.49 5.17 5.17 0 0 0 -2.25 1 2 2 0 0 0 -.27 3 7.21 7.21 0 0 0 2.19 1.73zm21.49 60.94c-.22-1.75-.43-3.47-.65-5.23a12 12 0 0 1 5.76 4.83zm11.7 4-7.33-.29-.44-2.62 1.07-.1c0 .4.09.78.11 1.16s.09.31.33.29l3.24-.31 3.18-.3a1.42 1.42 0 0 1 .19 0c-.12.71-.23 1.41-.35 2.15zm-6.56-13.46s0 0 .06-.1l3.2 2.07a.47.47 0 0 1 .14.26 9 9 0 0 1 -1.23 6.93l-.24.33a18.59 18.59 0 0 1 -1.06-1.68 3.56 3.56 0 0 1 -.26-1.18q-.32-3.31-.61-6.63zm-6.78-26.07a14.26 14.26 0 0 1 4.66 3.79 7.31 7.31 0 0 1 1.55 3.27 3.39 3.39 0 0 0 .15.52 1.14 1.14 0 0 0 1.18.88h5.65a1.16 1.16 0 0 0 1.08-1.07 8.71 8.71 0 0 1 3.77-5.79c.49-.37 1-.7 1.58-1.1-1.59 9.87-3.16 19.64-4.75 29.5a28.81 28.81 0 0 0 -4.45-3.42 42.66 42.66 0 0 0 -5-2.66c.26 2.77.51 5.48.78 8.29a7.39 7.39 0 0 0 -.74-.64 2.46 2.46 0 0 1 -1.06-1.88c-.47-3.19-1-6.36-1.5-9.53l-1.49-9.6c-.47-2.94-.93-5.89-1.4-8.83-.1-.6-.2-1.2-.3-1.85a2.35 2.35 0 0 1 .29.12zm-7.85-5.87.16.15a26.12 26.12 0 0 0 5.27 4.39.68.68 0 0 1 .34.53c.66 4.07 1.34 8.15 2 12.22.5 3 1 6 1.49 9.07q.61 3.72 1.22 7.44a2.86 2.86 0 0 1 0 .88q-5.25-17.32-10.54-34.65zm46.68 3.95c-3.17-.57-5.87-2.12-8.68-3.49l1.53-4.52c2.59 2.49 5.33 4.8 7.15 8.01zm-2.87-17.57c1.42.58 2.77 1.29 4.14 2a6.64 6.64 0 0 1 1 .71 24.43 24.43 0 0 1 -7.4.7c.11-.61.21-1.22.32-1.83s.14-.68-.52-.93a119.4 119.4 0 0 0 -12.74-3.77h-.27a24.66 24.66 0 0 1 -3 9.77q-11.07-7.25-21.41-15.45v-.1c.44 0 .88.08 1.31.14 3.24.46 6.49.89 9.72 1.4 5.36.86 10.67 2 15.92 3.35a101.73 101.73 0 0 1 12.93 4.01zm-34.91-20.12a2.72 2.72 0 0 1 1.16-.77 17.05 17.05 0 0 1 6.18-1.3 9.85 9.85 0 0 1 6.56 2.5 15.27 15.27 0 0 1 4.92 8.24c.28 1.11.42 2.27.61 3.41a4 4 0 0 1 0 .6 208.35 208.35 0 0 0 -23.51-4c.12-.48.21-.92.32-1.36a17.48 17.48 0 0 1 2.92-6.27c.26-.35.56-.67.84-1.05zm-3.73 2.11-.3.67a24 24 0 0 0 -1.75 5.34c0 .24-.13.29-.35.27-.85-.08-1.69-.13-2.61-.2a18.64 18.64 0 0 1 5.01-6.04zm-15.11-4.34c.38.1.76.17 1.13.28a51 51 0 0 1 6.28 2.55c1 .46 2 1 3 1.43l-2.92 3.84c-2.74-2.52-5.58-4.87-7.49-8.1z"/><path d="m0 0v156.55h103.11v-156.55zm22.29 145.24a.94.94 0 0 1 -1-.3c-1.28-1.36-2.59-2.69-3.89-4l-.33-.31v.39 3.88c0 .33-.1.43-.42.41s-.71 0-1.06 0a.32.32 0 0 1 -.24-.22c0-2.6 0-5.21 0-7.82v-.09a1.23 1.23 0 0 1 1 .44c1.3 1.37 2.62 2.73 3.93 4.1a1.35 1.35 0 0 1 .2.27h.08c0-.11 0-.21 0-.32 0-1.34 0-2.69 0-4 0-.29.07-.41.38-.39s.7 0 1.05 0c.09 0 .25.14.25.22.06 2.5.05 5.14.05 7.74zm7.68 0h-1.67v-8.07h1.7zm11.68 0s-.11-.06-.16-.11a.69.69 0 0 1 -.07-.15c-.12-.31-.16-.73-.39-.88s-.65 0-1-.06h-2.03a.33.33 0 0 0 -.4.26c-.1.31-.17.72-.39.87s-.65.07-1 .08h-.79c.15-.43.29-.81.44-1.18.84-2.19 1.68-4.37 2.51-6.56a.47.47 0 0 1 .57-.37c.4 0 .91-.12 1.19.07s.35.7.5 1.07l2.1 5.47c.18.48.37 1 .58 1.49zm14.18 0a1 1 0 0 1 -1-.3c-1.35-1.44-2.72-2.85-4.09-4.28l-.17-.14v.37 4.05c0 .25-.06.34-.33.33-.45 0-.9 0-1.38 0v-8.1a1 1 0 0 1 1 .3c1.31 1.4 2.65 2.77 4 4.15.09.09.16.19.24.28h.09v-4.7h1.5c.08 0 .19.17.2.27v1.7 5.81c-.05.11-.06.21-.06.31zm12.4-6.42h-2.55v.44 5.65c0 .28-.08.38-.36.36a8.68 8.68 0 0 0 -1 0c-.28 0-.34-.1-.34-.35v-6.09h-2.54v-1.66h6.4c.29 0 .41.07.39.37s0 .87 0 1.33zm7.2 6.42h-1.68v-8.07h1.68zm8.89-1.83a2.73 2.73 0 0 0 2.12-.39c.22-.13.34-.12.5.08s.58.67.89 1a4.18 4.18 0 0 1 -5.65 0 4.32 4.32 0 0 1 -.1-5.8 4.15 4.15 0 0 1 5.75-.07l-1.11 1.27a3.43 3.43 0 0 0 -1.88-.62 2.09 2.09 0 0 0 -2.11 1.87 2.21 2.21 0 0 0 1.59 2.71zm13.28-17.04h-92.06v-120.79h92.06z"/></g></svg>