<svg height="62.07" viewBox="0 0 184.92 62.07" width="184.92" xmlns="http://www.w3.org/2000/svg"><g fill="#fff"><path d="m54 37a21 21 0 0 0 8-1.57 31.18 31.18 0 0 0 -22.82-34.63 21.06 21.06 0 0 0 -5.43 9 21.14 21.14 0 0 1 17.7 27.12 21.09 21.09 0 0 0 2.55.08"/><path d="m53.92 47.22a30.8 30.8 0 0 1 -8.2-1.1 21.14 21.14 0 1 1 -22.58-34.92 31.06 31.06 0 0 1 4.08-11.2 31.16 31.16 0 1 0 30.65 47 32.1 32.1 0 0 1 -3.95.25"/><path d="m36.42 43.44c-9.65-1-16.59-10.47-15.5-21.18 0-.29.07-.58.11-.88a14.1 14.1 0 0 0 16.39 22.13z"/><path d="m82.48 23v-11.8l-3.48 1.8-1.33-2.32 5.49-3.4h2.95v16.72l3.13.15v2.56h-10.52v-2.5l2.89-.21a1 1 0 0 0 .66-.24 1.05 1.05 0 0 0 .21-.75"/><path d="m95.24 22.54a2.7 2.7 0 0 0 2.49 1.55 2.76 2.76 0 0 0 2.51-1.59c.6-1.07.89-2.92.89-5.56s-.28-4.49-.86-5.53a2.76 2.76 0 0 0 -5 .1 13.18 13.18 0 0 0 -.86 5.58q0 3.9.86 5.45m2.61-15.65q6.84 0 6.84 9.91c0 3.52-.59 6.09-1.78 7.73a6.07 6.07 0 0 1 -5.27 2.47 5.94 5.94 0 0 1 -5.21-2.42c-1.15-1.62-1.72-4.13-1.72-7.55s.63-6 1.9-7.62a6.2 6.2 0 0 1 5.24-2.5"/><path d="m111.06 22.54a2.69 2.69 0 0 0 2.49 1.55 2.76 2.76 0 0 0 2.51-1.59q.89-1.61.89-5.56c0-2.64-.29-4.49-.86-5.53a2.76 2.76 0 0 0 -5 .1 13.18 13.18 0 0 0 -.86 5.58q0 3.9.86 5.45m2.61-15.65q6.84 0 6.84 9.91c0 3.52-.6 6.09-1.78 7.73a6.08 6.08 0 0 1 -5.27 2.47 6 6 0 0 1 -5.22-2.42c-1.14-1.62-1.71-4.13-1.71-7.55s.63-6 1.89-7.62a6.23 6.23 0 0 1 5.25-2.5"/><path d="m126.88 22.54a2.69 2.69 0 0 0 2.48 1.55 2.76 2.76 0 0 0 2.52-1.59q.88-1.61.89-5.56c0-2.64-.29-4.49-.86-5.53a2.76 2.76 0 0 0 -5 .1 13.18 13.18 0 0 0 -.86 5.58q0 3.9.86 5.45m2.63-15.65q6.84 0 6.84 9.91c0 3.52-.59 6.09-1.77 7.73a6.1 6.1 0 0 1 -5.31 2.47 6 6 0 0 1 -5.21-2.42c-1.14-1.62-1.72-4.13-1.72-7.55s.64-6 1.9-7.62a6.22 6.22 0 0 1 5.24-2.5"/><path d="m79.17 49.27v-8.35a1 1 0 0 0 -.17-.67.8.8 0 0 0 -.58-.23l-1.27-.09v-2.44h5.09v2.26a4.7 4.7 0 0 1 1.69-1.94 4.55 4.55 0 0 1 2.64-.81 6.4 6.4 0 0 1 2.84.66v4.49l-2.8.21v-1.36q0-.6-.3-.75a2 2 0 0 0 -.81-.15 2.55 2.55 0 0 0 -2 .86 3.16 3.16 0 0 0 -.77 2.18v7l2.63.12v2.38h-8.06v-2.29l1-.09a1.19 1.19 0 0 0 .7-.26 1 1 0 0 0 .21-.74"/><path d="m97.11 43.92a4.88 4.88 0 0 0 2-.87 2 2 0 0 0 .94-1.61 1.61 1.61 0 0 0 -1.81-1.84 3 3 0 0 0 -2.59 1.34 6.15 6.15 0 0 0 -1 3.21 15.92 15.92 0 0 0 2.42-.23m1.41-6.92a5.42 5.42 0 0 1 3.59 1.1 3.79 3.79 0 0 1 1.32 3.09 4.65 4.65 0 0 1 -.57 2.33 4.55 4.55 0 0 1 -1.42 1.58 7.41 7.41 0 0 1 -2 .94 16 16 0 0 1 -4.55.6 4 4 0 0 0 1 2.57 3.57 3.57 0 0 0 2.77 1 6.46 6.46 0 0 0 3.74-1.32l1.14 2.44a7.11 7.11 0 0 1 -2 1.11 8.56 8.56 0 0 1 -3.27.58q-3.68 0-5.39-2a8.36 8.36 0 0 1 -1.84-5.61 9.12 9.12 0 0 1 2-6 6.65 6.65 0 0 1 5.48-2.41"/><path d="m115.23 47.85v-7.8a5.61 5.61 0 0 0 -2.32-.39 3.08 3.08 0 0 0 -2.91 1.63 8.86 8.86 0 0 0 -.9 4.3q0 4.89 3.13 4.89a3 3 0 0 0 2.17-.8 2.47 2.47 0 0 0 .84-1.83m3.5-9.76v11.21a1 1 0 0 0 .16.66.87.87 0 0 0 .59.21l1 .06v2.41h-4.79v-1.74h-.09a4.79 4.79 0 0 1 -4.17 2.1 5.34 5.34 0 0 1 -4.55-2 8.71 8.71 0 0 1 -1.48-5.37 9.38 9.38 0 0 1 2-6.38c1.33-1.53 3.31-2.29 6-2.29a15.3 15.3 0 0 1 5.36 1.05"/><path d="m127.38 31.16v19l1.71.09v2.41h-7.17v-2.31l1-.09a.86.86 0 0 0 .87-1v-14.81c0-.45-.25-.69-.75-.73l-1.04-.06v-2.5z"/><path d="m132.32 34.88a2.09 2.09 0 0 1 -.64-1.58 2.21 2.21 0 0 1 2.32-2.3 2.29 2.29 0 0 1 1.68.65 2.19 2.19 0 0 1 .64 1.61 2.09 2.09 0 0 1 -.64 1.58 2.31 2.31 0 0 1 -1.68.62 2.22 2.22 0 0 1 -1.65-.62m3.79 2.61v12.69l1.72.09v2.41h-7.17v-2.29l1-.09a.87.87 0 0 0 .88-1v-8.34a1 1 0 0 0 -.17-.69.77.77 0 0 0 -.59-.18l-1.09-.05v-2.5z"/><path d="m142.62 34.3h2v3.19h4l-.3 2.53h-3.71v7.92a2.77 2.77 0 0 0 .48 1.86 1.93 1.93 0 0 0 1.49.52 3.88 3.88 0 0 0 2-.63l.9 2.32a6.54 6.54 0 0 1 -3.83 1.06 6.68 6.68 0 0 1 -2.29-.35 4.15 4.15 0 0 1 -1.36-.72 2.79 2.79 0 0 1 -.7-1.23 6.39 6.39 0 0 1 -.27-1.28c0-.32 0-.77 0-1.38v-8.11h-2.14l.31-2.2a2.93 2.93 0 0 0 2.13-1 8.67 8.67 0 0 0 1.33-2.51"/><path d="m152 34.88a2.12 2.12 0 0 1 -.63-1.58 2.19 2.19 0 0 1 2.28-2.3 2.27 2.27 0 0 1 1.67.65 2.19 2.19 0 0 1 .68 1.65 2.1 2.1 0 0 1 -.65 1.58 2.29 2.29 0 0 1 -1.67.62 2.23 2.23 0 0 1 -1.66-.62m3.8 2.61v12.65l1.71.09v2.41h-7.17v-2.29l1-.09a.86.86 0 0 0 .87-1v-8.34a1.06 1.06 0 0 0 -.16-.69.79.79 0 0 0 -.59-.18l-1.09-.05v-2.5z"/><path d="m165.14 43.92a4.92 4.92 0 0 0 2-.87 2 2 0 0 0 .93-1.61 1.61 1.61 0 0 0 -1.81-1.84 3 3 0 0 0 -2.59 1.34 6.15 6.15 0 0 0 -1 3.21 15.92 15.92 0 0 0 2.42-.23m1.42-6.92a5.42 5.42 0 0 1 3.59 1.1 3.79 3.79 0 0 1 1.32 3.09 4.67 4.67 0 0 1 -2 3.91 7.62 7.62 0 0 1 -2.05.94 16 16 0 0 1 -4.55.6 4 4 0 0 0 1 2.57 3.57 3.57 0 0 0 2.77 1 6.46 6.46 0 0 0 3.74-1.32l1.14 2.44a7.11 7.11 0 0 1 -2 1.11 8.56 8.56 0 0 1 -3.27.58q-3.68 0-5.39-2a8.36 8.36 0 0 1 -1.72-5.59 9.12 9.12 0 0 1 2-6 6.66 6.66 0 0 1 5.42-2.43"/><path d="m181.13 39.78a5.07 5.07 0 0 0 -1.75-.27 2.66 2.66 0 0 0 -1.64.46 1.4 1.4 0 0 0 -.62 1.15 2.05 2.05 0 0 0 .22 1.05 1.88 1.88 0 0 0 .71.65 9.16 9.16 0 0 0 1.81.68c.7.19 1.23.34 1.57.45a9.28 9.28 0 0 1 1.28.56 3.82 3.82 0 0 1 1.16.84 4 4 0 0 1 1 2.87 4.27 4.27 0 0 1 -1.64 3.54 6.6 6.6 0 0 1 -4.12 1.24 12.9 12.9 0 0 1 -5.55-.94v-4.15l2.71-.21v1.45c0 .88.85 1.33 2.54 1.33s2.53-.62 2.53-1.84a1.46 1.46 0 0 0 -.44-1.09 2.47 2.47 0 0 0 -.9-.55c-.28-.1-.62-.2-1-.3l-1.14-.3a10.82 10.82 0 0 1 -1.21-.41 9.38 9.38 0 0 1 -1.43-.74 3.67 3.67 0 0 1 -1.54-3.33 4.29 4.29 0 0 1 1.66-3.6 6.71 6.71 0 0 1 4.2-1.32 11.33 11.33 0 0 1 5 1.2v3.62l-2.71.21v-1.23a1 1 0 0 0 -.69-1"/></g></svg>