<?xml version="1.0" encoding="utf-8"?>
<!-- Generator: Adobe Illustrator 26.0.3, SVG Export Plug-In . SVG Version: 6.00 Build 0)  -->
<svg version="1.1" id="Layer_1" xmlns="http://www.w3.org/2000/svg" xmlns:xlink="http://www.w3.org/1999/xlink" x="0px" y="0px"
	 viewBox="0 0 94 89" style="enable-background:new 0 0 94 89;" xml:space="preserve">
<style type="text/css">
	.st0{opacity:0.3;fill-rule:evenodd;clip-rule:evenodd;enable-background:new    ;}
	.st1{fill-rule:evenodd;clip-rule:evenodd;fill:#FFFFFF;}
</style>
<g id="mw_logo_k">
	<path id="_x35_0" class="st0" d="M33.8,47l4.4,3.1L11.5,61.3l1.7,1.2l56.7-13.9l8.2,5.8L39.2,81l1.8,1.2l48-20.1l4.4,3.1l-55.1,23
		l-9.3-6.6l38.9-26.5l-1.8-1.2L9.3,67.8L0,61.2L33.8,47z"/>
	<path id="_x31_00" class="st1" d="M55.1,0L0,23l4.4,3.1l48-20.1l1.8,1.2L15.2,33.8l8.2,5.8l56.7-13.9l1.7,1.2L55.1,38.1L33.8,47
		l4.4,3.1l0,0l55.1-23L84,20.5L27.3,34.4l-1.8-1.2L64.4,6.6L55.1,0z"/>
</g>
</svg>
