<?xml version="1.0" encoding="utf-8"?>
<!-- Generator: Adobe Illustrator 25.4.1, SVG Export Plug-In . SVG Version: 6.00 Build 0)  -->
<svg version="1.1" id="Layer_1" xmlns="http://www.w3.org/2000/svg" xmlns:xlink="http://www.w3.org/1999/xlink" x="0px" y="0px"
	 viewBox="0 0 225.7 33.1" style="enable-background:new 0 0 225.7 33.1;" xml:space="preserve">
<style type="text/css">
	.st0{fill:#009DDD;}
	.st1{fill:#070707;}
</style>
<g id="Group_1" transform="translate(-93.214 309.995)">
	<path id="Path_1" class="st0" d="M105.6-289.7L105.6-289.7l2.8,4.9v-20c0.2-0.3,0.4-0.7,0.4-1.1c0-1-0.8-1.8-1.8-1.8
		c-1,0-1.8,0.8-1.8,1.8c0,0.4,0.1,0.8,0.4,1.1L105.6-289.7z M107-306.9c0.6,0,1,0.5,1,1c0,0.6-0.5,1-1,1c-0.6,0-1-0.5-1-1
		C106-306.5,106.4-306.9,107-306.9"/>
	<path id="Path_2" class="st0" d="M101.6-290.4h2.8v-16.7c0.2-0.3,0.4-0.7,0.4-1.1c0-1-0.8-1.8-1.8-1.8c-1,0-1.8,0.8-1.8,1.8
		c0,0.4,0.1,0.8,0.4,1.1L101.6-290.4z M103-309.3c0.6,0,1,0.5,1,1c0,0.1,0,0.2,0,0.3c-0.1,0.5-0.5,0.8-1,0.8c-0.5,0-0.9-0.3-1-0.8
		c0-0.1,0-0.2,0-0.3C102-308.8,102.4-309.3,103-309.3"/>
	<path id="Path_3" class="st0" d="M97.6-290.4h2.8v-13.7c0.2-0.3,0.4-0.7,0.4-1.1c0-1-0.8-1.8-1.8-1.8c-1,0-1.8,0.8-1.8,1.8
		c0,0.4,0.1,0.8,0.4,1.1V-290.4z M99-306.3c0.6,0,1,0.5,1,1c0,0.6-0.5,1-1,1c-0.6,0-1-0.5-1-1C98-305.8,98.4-306.3,99-306.3"/>
	<path id="Path_4" class="st0" d="M117.6-292.3c-0.1-0.5-0.4-0.8-0.8-1.1c-0.9-0.5-1.9-0.2-2.4,0.7c-0.2,0.3-0.3,0.7-0.2,1.1
		l-4.8,8.4l0,0l-0.2,0.4l-1.6,2.7l-1.9,3.3h3.3l7.7-13.3c0.4-0.1,0.7-0.4,0.9-0.8C117.7-291.4,117.7-291.9,117.6-292.3 M116.8-291.3
		c-0.3,0.5-0.9,0.6-1.4,0.3c-0.5-0.3-0.7-0.9-0.4-1.4c0,0,0,0,0,0c0.2-0.3,0.5-0.5,0.9-0.5c0.2,0,0.4,0,0.5,0.1
		c0.2,0.1,0.4,0.4,0.5,0.6C117-291.9,116.9-291.6,116.8-291.3L116.8-291.3"/>
	<path id="Path_5" class="st0" d="M93.6-284.8l2.8-4.9v-12.4c0.2-0.3,0.4-0.7,0.4-1.1c0-1-0.8-1.8-1.8-1.8c-1,0-1.8,0.8-1.8,1.8
		c0,0.4,0.1,0.8,0.4,1.1V-284.8z M95-304.2c0.6,0,1,0.5,1,1c0,0.6-0.5,1-1,1c-0.6,0-1-0.5-1-1C94-303.7,94.4-304.2,95-304.2"/>
	<path id="Path_6" class="st0" d="M104.7-289.7h-7.4l-3.7,6.4l3.7,6.4h7.4l3.7-6.4L104.7-289.7z"/>
	<path id="Path_7" class="st1" d="M131.6-285.7l1-2.2c1.4,1.1,3.2,1.6,5,1.7c2.4,0,3.3-0.8,3.3-2c0-3.2-9-1.1-9-6.7
		c0-2.4,1.9-4.5,6.1-4.5c1.8,0,3.5,0.4,5,1.3l-0.9,2.2c-1.3-0.8-2.7-1.2-4.2-1.2c-2.3,0-3.3,0.9-3.3,2c0,3.2,9,1.1,9,6.6
		c0,2.4-2,4.5-6.1,4.5C135.4-283.8,133.3-284.5,131.6-285.7"/>
	<path id="Path_8" class="st1" d="M162.1-286.5v2.3h-11.3v-15h11v2.3h-8.2v3.9h7.3v2.3h-7.3v4.1L162.1-286.5z"/>
	<path id="Path_9" class="st1" d="M182.9-299.2v15h-2.3l-8.3-10.2v10.2h-2.8v-15h2.3l8.3,10.2v-10.2H182.9z"/>
	<path id="Path_10" class="st1" d="M190-285.7l1-2.2c1.4,1.1,3.2,1.7,5,1.7c2.4,0,3.3-0.8,3.3-2c0-3.2-9-1.1-9-6.7
		c0-2.4,1.9-4.5,6.1-4.5c1.8,0,3.5,0.4,5,1.3l-0.9,2.2c-1.3-0.8-2.7-1.2-4.2-1.2c-2.3,0-3.3,0.9-3.3,2c0,3.2,9,1.1,9,6.6
		c0,2.4-2,4.5-6.1,4.5C193.9-283.8,191.8-284.5,190-285.7"/>
	<path id="Path_11" class="st1" d="M220.5-286.5v2.3h-11.3v-15h11v2.3H212v3.9h7.3v2.3H212v4.1L220.5-286.5z"/>
	<path id="Path_12" class="st1" d="M238.2-291.8h2.7v6c-1.7,1.3-3.8,1.9-5.9,1.9c-4.7,0-8.1-3.2-8.1-7.7c0-4.5,3.5-7.7,8.2-7.7
		c2.3-0.1,4.5,0.8,6.1,2.4l-1.8,1.7c-1.1-1.1-2.6-1.8-4.2-1.7c-2.8-0.2-5.3,2-5.5,4.8c0,0.2,0,0.3,0,0.5c-0.1,2.9,2.2,5.2,5.1,5.3
		c0.1,0,0.3,0,0.4,0c1.1,0,2.2-0.2,3.1-0.8V-291.8z"/>
	<path id="Path_13" class="st1" d="M248.9-299.2h2.8v12.7h7.9v2.4h-10.7V-299.2z"/>
	<path id="Path_14" class="st1" d="M264.8-291.6c0-4.4,3.5-7.7,8.1-7.7s8.1,3.3,8.1,7.7c0,4.5-3.5,7.7-8.1,7.7
		S264.8-287.2,264.8-291.6 M278.2-291.6c0.1-2.8-2.1-5.2-5-5.3c-0.1,0-0.2,0-0.3,0c-2.8-0.1-5.2,2.1-5.3,5c0,0.1,0,0.2,0,0.3
		c-0.1,2.8,2.1,5.2,5,5.3c0.1,0,0.2,0,0.3,0c2.8,0.1,5.2-2.1,5.3-5C278.2-291.4,278.2-291.5,278.2-291.6"/>
	<path id="Path_15" class="st1" d="M301.7-299.2l-6.6,15h-2.8l-6.6-15h3l5,11.6l5.1-11.6H301.7z"/>
	<path id="Path_16" class="st1" d="M318.9-286.5v2.3h-11.3v-15h11v2.3h-8.2v3.9h7.3v2.3h-7.3v4.1L318.9-286.5z"/>
</g>
</svg>
