<svg width="411" height="324" viewBox="0 0 411 324" fill="none" xmlns="http://www.w3.org/2000/svg">
<path d="M207.879 185.627L205.885 166.459C203.245 166.809 200.569 167.003 197.863 167.003C181.865 167.004 166.821 160.775 155.509 149.462C132.156 126.108 132.156 88.107 155.51 64.755C166.823 53.442 181.864 47.211 197.864 47.211C213.861 47.211 228.904 53.442 240.217 64.755C253.932 78.471 259.58 97.239 257.185 115.125L276.383 117.125V117.14L283.466 117.863L304.972 107.109L283.445 96.347C281.154 77.976 272.984 60.199 258.879 46.094C244.77 31.986 226.991 23.808 208.62 21.513L197.864 0L187.108 21.513C168.734 23.808 150.956 31.987 136.85 46.094C122.745 60.199 114.568 77.976 112.27 96.349L90.753 107.11L112.27 117.866C114.566 136.241 122.743 154.019 136.848 168.126C150.955 182.232 168.732 190.409 187.106 192.704L197.864 214.22L208.617 192.713L207.893 185.629H207.879V185.627Z" fill="white"/>
<path d="M202.253 111.494L222.008 168.064L230.709 192.977C242.599 188.833 253.764 182.015 263.267 172.511C272.769 163.011 279.589 151.844 283.733 139.953L258.793 131.243L202.253 111.494Z" fill="#F98822"/>
<path d="M3 269.3C3 263.367 3.86667 258.133 5.6 253.6C7.4 249.067 9.8 245.3 12.8 242.3C15.8667 239.233 19.4 236.933 23.4 235.4C27.4667 233.867 31.7667 233.1 36.3 233.1C40.7667 233.1 44.9667 233.867 48.9 235.4C52.9 236.933 56.4 239.233 59.4 242.3C62.4 245.3 64.7667 249.067 66.5 253.6C68.3 258.133 69.2 263.367 69.2 269.3C69.2 274.5 68.5333 279.133 67.2 283.2C65.8667 287.267 64 290.8 61.6 293.8C59.2667 296.733 56.5 299.133 53.3 301C50.1667 302.8 46.8 304.033 43.2 304.7C43.2667 306.233 43.9333 307.567 45.2 308.7C46.5333 309.9 48.2 310.9 50.2 311.7C52.2 312.5 54.4333 313.167 56.9 313.7C59.3667 314.233 61.8333 314.633 64.3 314.9L62 322.5C58.5333 322.033 55.2 321.4 52 320.6C48.8667 319.867 46 318.867 43.4 317.6C40.8667 316.333 38.7333 314.7 37 312.7C35.2667 310.767 34.1 308.333 33.5 305.4C29.3 305.133 25.3333 304.167 21.6 302.5C17.8667 300.767 14.6333 298.4 11.9 295.4C9.16667 292.333 7 288.633 5.4 284.3C3.8 279.967 3 274.967 3 269.3ZM13.2 269.3C13.2 273.5 13.7333 277.333 14.8 280.8C15.8667 284.2 17.3667 287.1 19.3 289.5C21.3 291.9 23.7 293.767 26.5 295.1C29.3667 296.367 32.5667 297 36.1 297C39.6333 297 42.8 296.367 45.6 295.1C48.4 293.767 50.7667 291.9 52.7 289.5C54.7 287.1 56.2333 284.2 57.3 280.8C58.3667 277.333 58.9 273.5 58.9 269.3C58.9 265.1 58.3667 261.3 57.3 257.9C56.2333 254.433 54.7 251.5 52.7 249.1C50.7667 246.7 48.4 244.867 45.6 243.6C42.8 242.267 39.6333 241.6 36.1 241.6C32.5667 241.6 29.3667 242.267 26.5 243.6C23.7 244.867 21.3 246.7 19.3 249.1C17.3667 251.5 15.8667 254.433 14.8 257.9C13.7333 261.3 13.2 265.1 13.2 269.3Z" fill="white"/>
<path d="M124.432 302.5C122.299 303.033 119.465 303.6 115.932 304.2C112.465 304.8 108.432 305.1 103.832 305.1C99.832 305.1 96.4654 304.533 93.732 303.4C90.9987 302.2 88.7987 300.533 87.132 298.4C85.4654 296.267 84.2654 293.767 83.532 290.9C82.7987 287.967 82.432 284.733 82.432 281.2V252H91.732V279.2C91.732 285.533 92.732 290.067 94.732 292.8C96.732 295.533 100.099 296.9 104.832 296.9C105.832 296.9 106.865 296.867 107.932 296.8C108.999 296.733 109.999 296.667 110.932 296.6C111.865 296.467 112.699 296.367 113.432 296.3C114.232 296.167 114.799 296.033 115.132 295.9V252H124.432V302.5Z" fill="white"/>
<path d="M158.054 297.3C160.254 297.3 162.187 297.267 163.854 297.2C165.587 297.067 167.021 296.867 168.154 296.6V281.1C167.487 280.767 166.387 280.5 164.854 280.3C163.387 280.033 161.587 279.9 159.454 279.9C158.054 279.9 156.554 280 154.954 280.2C153.421 280.4 151.987 280.833 150.654 281.5C149.387 282.1 148.321 282.967 147.454 284.1C146.587 285.167 146.154 286.6 146.154 288.4C146.154 291.733 147.221 294.067 149.354 295.4C151.487 296.667 154.387 297.3 158.054 297.3ZM157.254 250.7C160.987 250.7 164.121 251.2 166.654 252.2C169.254 253.133 171.321 254.5 172.854 256.3C174.454 258.033 175.587 260.133 176.254 262.6C176.921 265 177.254 267.667 177.254 270.6V303.1C176.454 303.233 175.321 303.433 173.854 303.7C172.454 303.9 170.854 304.1 169.054 304.3C167.254 304.5 165.287 304.667 163.154 304.8C161.087 305 159.021 305.1 156.954 305.1C154.021 305.1 151.321 304.8 148.854 304.2C146.387 303.6 144.254 302.667 142.454 301.4C140.654 300.067 139.254 298.333 138.254 296.2C137.254 294.067 136.754 291.5 136.754 288.5C136.754 285.633 137.321 283.167 138.454 281.1C139.654 279.033 141.254 277.367 143.254 276.1C145.254 274.833 147.587 273.9 150.254 273.3C152.921 272.7 155.721 272.4 158.654 272.4C159.587 272.4 160.554 272.467 161.554 272.6C162.554 272.667 163.487 272.8 164.354 273C165.287 273.133 166.087 273.267 166.754 273.4C167.421 273.533 167.887 273.633 168.154 273.7V271.1C168.154 269.567 167.987 268.067 167.654 266.6C167.321 265.067 166.721 263.733 165.854 262.6C164.987 261.4 163.787 260.467 162.254 259.8C160.787 259.067 158.854 258.7 156.454 258.7C153.387 258.7 150.687 258.933 148.354 259.4C146.087 259.8 144.387 260.233 143.254 260.7L142.154 253C143.354 252.467 145.354 251.967 148.154 251.5C150.954 250.967 153.987 250.7 157.254 250.7Z" fill="white"/>
<path d="M211.9 250.9C212.7 250.9 213.6 250.967 214.6 251.1C215.667 251.167 216.7 251.3 217.7 251.5C218.7 251.633 219.6 251.8 220.4 252C221.267 252.133 221.9 252.267 222.3 252.4L220.7 260.5C219.967 260.233 218.733 259.933 217 259.6C215.333 259.2 213.167 259 210.5 259C208.767 259 207.033 259.2 205.3 259.6C203.633 259.933 202.533 260.167 202 260.3V304H192.7V254.2C194.9 253.4 197.633 252.667 200.9 252C204.167 251.267 207.833 250.9 211.9 250.9Z" fill="white"/>
<path d="M250.074 275.4C252.074 276.933 254.174 278.833 256.374 281.1C258.641 283.367 260.841 285.833 262.974 288.5C265.174 291.1 267.241 293.767 269.174 296.5C271.108 299.167 272.741 301.667 274.074 304H263.174C261.774 301.667 260.141 299.3 258.274 296.9C256.474 294.433 254.574 292.1 252.574 289.9C250.574 287.633 248.541 285.567 246.474 283.7C244.408 281.833 242.441 280.267 240.574 279V304H231.274V228L240.574 226.4V273.8C242.174 272.2 243.941 270.433 245.874 268.5C247.808 266.567 249.708 264.6 251.574 262.6C253.441 260.6 255.208 258.7 256.874 256.9C258.541 255.033 259.974 253.4 261.174 252H272.074C270.541 253.667 268.874 255.5 267.074 257.5C265.274 259.5 263.408 261.533 261.474 263.6C259.541 265.6 257.574 267.633 255.574 269.7C253.641 271.7 251.808 273.6 250.074 275.4Z" fill="white"/>
<path d="M323.32 304C321.387 300.133 319.254 296.233 316.92 292.3C314.654 288.3 312.02 284.233 309.02 280.1C308.087 281.3 306.887 282.967 305.42 285.1C304.02 287.233 302.587 289.5 301.12 291.9C299.72 294.3 298.387 296.6 297.12 298.8C295.854 301 294.92 302.733 294.32 304H276.52C279.454 298.6 282.854 292.933 286.72 287C290.654 281.067 295.02 274.767 299.82 268.1L277.52 234.7H296.42L309.92 256.3L323.12 234.7H340.92L318.92 268.3C324.52 275.567 329.22 282.3 333.02 288.5C336.82 294.633 339.82 299.8 342.02 304H323.32Z" fill="white"/>
<path d="M371.301 233.9C381.701 233.9 389.667 235.767 395.201 239.5C400.734 243.167 403.501 248.9 403.501 256.7C403.501 261.567 402.367 265.533 400.101 268.6C397.901 271.6 394.701 273.967 390.501 275.7C391.901 277.433 393.367 279.433 394.901 281.7C396.434 283.9 397.934 286.233 399.401 288.7C400.934 291.1 402.401 293.633 403.801 296.3C405.201 298.9 406.501 301.467 407.701 304H390.201C388.934 301.733 387.634 299.433 386.301 297.1C385.034 294.767 383.701 292.5 382.301 290.3C380.967 288.1 379.634 286.033 378.301 284.1C376.967 282.1 375.634 280.3 374.301 278.7H366.601V304H351.001V235.7C354.401 235.033 357.901 234.567 361.501 234.3C365.167 234.033 368.434 233.9 371.301 233.9ZM372.201 247.2C371.067 247.2 370.034 247.233 369.101 247.3C368.234 247.367 367.401 247.433 366.601 247.5V266.3H371.001C376.867 266.3 381.067 265.567 383.601 264.1C386.134 262.633 387.401 260.133 387.401 256.6C387.401 253.2 386.101 250.8 383.501 249.4C380.967 247.933 377.201 247.2 372.201 247.2Z" fill="white"/>
</svg>
