<?xml version="1.0" encoding="utf-8"?>
<!-- Generator: Adobe Illustrator 25.2.1, SVG Export Plug-In . SVG Version: 6.00 Build 0)  -->
<svg version="1.1" id="brand__logo" xmlns="http://www.w3.org/2000/svg" xmlns:xlink="http://www.w3.org/1999/xlink" x="0px"
	 y="0px" viewBox="0 0 1200 591.8" style="enable-background:new 0 0 1200 591.8;" xml:space="preserve">
<style type="text/css">
	.st0{fill:#FFFFFF;}
</style>
<g>
	<path class="st0" d="M0,394.5V279.5h115.1v115.1H0z M361.6,394.5V279.5h115.1v115.1H361.6z M723.3,394.5V279.5h115.1v115.1H723.3z
		 M1084.9,394.5V279.5H1200v115.1H1084.9z"/>
	<path class="st0" d="M197.3,28.6c-48.3,1.5-91.4,17.9-118.7,49c-25.8,29.6-41.9,75.6-47.8,136.8L0,208.9L5.9,0h465l5.8,208.9
		l-30.7,5.4c-5.9-61.8-22-107.2-47.8-136.8c-27.3-31.1-70.4-47.5-118.7-49v436.6c0,38,9.4,62.8,20.5,74.1
		c9.2,9.9,23.2,15.8,45.2,17.8c6.9,0.5,17.3,1,32.9,1v33.7H98.6v-33.5c15.6,0,26-0.5,32.9-1c22-2,35.8-7.9,45.2-17.8
		c11.2-11.3,20.5-36,20.5-74.1V28.6z"/>
</g>
</svg>
