<svg height="112.05" viewBox="0 0 196.33 112.05" width="196.33" xmlns="http://www.w3.org/2000/svg" xmlns:xlink="http://www.w3.org/1999/xlink"><linearGradient id="a" gradientTransform="matrix(.99987663 -.01570732 .01570732 .99987663 72.71 43.33)" gradientUnits="userSpaceOnUse" x1="-31.51" x2="101.91" y1="-61.53" y2="71.89"><stop offset=".45" stop-color="#43809e"/><stop offset="1" stop-color="#b4e95e"/></linearGradient><path d="m99.27 33h.38c-.1-.2-.3-.42-.29-.61s.3-.25.46-.38l.4-.34-1.15-2.77c-.49.41-.9.81-1.36 1.13a1 1 0 0 1 -1.34-.35c-.08-.14 0-.4 0-.65h-.31c-.06-.8-.13-1.6-.18-2.4a.56.56 0 0 1 .15-.41c.4-.35.83-.66 1.25-1l.66-.55c.66.22.71-1 1.41-1.09l-.29-.19c.65-.19.79-.56.83-1.25.13-.09.26-.13.32-.22s.2-.43.32-.63.62-.51.64-1.06c0-.14.28-.26.44-.38a1.36 1.36 0 0 0 .37-.35l-1.84.61v-.09l1.26-.56-.52-.16 1-.7-.08.47c.33 0 .72.52.9-.28l-.32.08-.09-.15 1.3-1.11.29.46 3.32-1.68v.12l-.5.94.11.11.74-1v.81c.21-.38.3-.73.48-.84s.5 0 .39.46c.37-.33.88-.2 1.5.39l-.72.33v.17l1.8.12v.14l-.26.12a19.85 19.85 0 0 1 2.4.67 12.76 12.76 0 0 1 2 1.19.78.78 0 0 1 .1 1.37 1.87 1.87 0 0 1 -1.24.51 9.59 9.59 0 0 1 -3.28-.91 8.82 8.82 0 0 0 .86.76c.3.2.52.34.35.83a1.23 1.23 0 0 0 .57 1.13c.23.11.44.31.67.4a1.56 1.56 0 0 0 .57 0l.06-.17-.85-.66c.15-.45.33-.49.66-.31s.89.65 1.41.19c-.44-.72-.43-.89.27-1.18.37-.15.57-.77 1.08-.51.19.1.39.17.63.27.11-.35.47-.72-.07-1.09 0 0 0-.26 0-.38.16-.44.28-.86-.28-1.11 1.39.08 1.39.08 1.76.7l-1 .48c.46.4.76.91 1.3.59.1-.05.24-.14.25-.24a.78.78 0 0 1 .56-.68c.51-.23 1-.54 1.49-.78.16-.08.35 0 .46-.13l1-.64-.2 1.05.79-.36c.11-.05.23-.15.34-.13a2.38 2.38 0 0 0 1.47-.4c.26-.15.43-.07.39.35 0 .07.24.25.26.23a7.12 7.12 0 0 0 .58-.64c-.23-.49-.49-.93-1-1-.09 0-.14-.3-.21-.47.15 0 .35-.08.44 0a2.34 2.34 0 0 0 1.64.62 6.32 6.32 0 0 1 2.81 1.19c.39.25.62.33.74-.22l-.49-.62c-.05-.05-.1-.16-.14-.15-.73 0-.48-.48-.39-.94 0-.18.23-.5-.16-.55.06-.21.06-.55.17-.61a1.64 1.64 0 0 0 .87-1.27c.09-.5.3-.78.79-.66a5.77 5.77 0 0 0 1 .09c.35 0 .44.28.34.63s-.26.7-.4 1.07c.44.28.48.73.35 1.32a3 3 0 0 0 0 1.27c.05.25.3.44.51.73-.38.88-.75 1.88-1.76 2.15.12.16.94.29 1.11.1.37-.42.73-.86 1.11-1.26a.54.54 0 0 0 .09-.74c-.19-.35-.08-.56.24-.68.84-.34 1.19-.07 1.24 1a.37.37 0 0 0 .07.2c0-.39.49-.82.07-1.15a2.37 2.37 0 0 0 -1.15-.4 2.56 2.56 0 0 0 -.82.13 1.6 1.6 0 0 1 .07-1.55c.06-.08-.07-.39-.15-.56a7.91 7.91 0 0 0 -.45-.66 3.36 3.36 0 0 1 .62-.52c.45-.21.62-.49.25-1.1.51 0 .56.39.54.73a7.18 7.18 0 0 1 -.17 1.07l1.62.31v-.1c-.21-.09-.44-.16-.65-.27a7.49 7.49 0 0 1 -.65-.45l.07-.28 1.05.1v-.1l-.63-.39c.22-.37.45-.54.8-.19.08.08.23 0 .34.09a3.45 3.45 0 0 1 1 .46.91.91 0 0 0 1 .23c.52.17.16.34 0 .53s-.14.25-.22.37c.1 0 .22 0 .28.09a.48.48 0 0 1 .13.34 3.36 3.36 0 0 1 -.13.63l.43-.41a3.34 3.34 0 0 1 -.13-1.07c.12-.51 0-.6-.38-.47-.24-.22-.45-.55-.72-.64-.6-.18-.27-.85-.54-1.17.19-.15.38-.39.59-.42.84-.15 1.7-.23 2.55-.33.17 0 .41-.17.37.25l.3-.11-.73-.75.21-.18-.34-.2s0-.06 0-.08a6 6 0 0 1 2.64-1.2c.33-.11.83 0 1-.25.45-.7 1.16-.2 1.64-.62.08-.06.23 0 .43 0l-.21.43 2-.46-.4-.17.08-.12 1-.07c.18-1.36 1.44-1.92 2.82-1.24l-.62.42 1.38.15-.32.47 3.06-.05.17.63c.23-.09.62.23.57.48a1.4 1.4 0 0 1 -.55 1.08c-.82.49-1.6 1.06-2.4 1.57-.31.2-.65.34-1 .52a5.21 5.21 0 0 0 -.52.45l2.58-.8-.39-.31c.34-.33.64-.22 1-.08a3.43 3.43 0 0 0 .85.13l.08-.17.16.54c.92-.52 1.91-.22 2.91-.19-.36.57.09.54.27.58a9.83 9.83 0 0 0 1.32.13 1.13 1.13 0 0 0 .69-.05c.15-.1.18-.43.33-.83.42-.44.93.24 1.48.23.08 0 .17.05.24 0a1 1 0 0 1 1.27 1s0 .07 0 .1c0 .19.09.37.14.55l-.52-.11v.07l.58.43s-.08.2 0 .22a10.21 10.21 0 0 0 1 .87s.27-.12.34-.25a11.26 11.26 0 0 0 .4-1.12c.46.74 1 .64 1.62.46a6.35 6.35 0 0 1 2 0h.36l-.26-.87c-.11-.66.81.07.79-.75a10.12 10.12 0 0 1 2.56.4c.79.34 1.72-.19 2.47.66l-.52.21 1 .4c.13 0 .31.07.38.17.37.66.85.35 1.34.32a10.15 10.15 0 0 1 2.4 0c.71.1.81.41.69 1.24a1.76 1.76 0 0 0 1.47.21 9.74 9.74 0 0 1 1.94.05 1 1 0 0 0 .76-.21c.32-.37.61-.36 1 0l-.67.24a1.73 1.73 0 0 0 1.08.76c.41 0 .55-.32.27-.66a.58.58 0 0 1 -.06-.71 14.23 14.23 0 0 1 2.87.15 17.18 17.18 0 0 1 2.94 1.27c.47.23.91.56 1.38.8a1.37 1.37 0 0 1 .83 1.17.58.58 0 0 0 .3.41v-.69a2.92 2.92 0 0 1 2.41 1.12l-1.2.72-.06-.12-.3 1c-.22.31-.53.27-.85 0a2.73 2.73 0 0 0 -.52-.23c-.13-.08-.31-.18-.34-.31a.51.51 0 0 0 -.73-.44c-.58.21-.87 0-1-.72l-.38.17a.64.64 0 0 0 0 .16.55.55 0 0 1 -.17.94c-.4.21-.82.35-1.17.5l1.1 1.78v.23a1.8 1.8 0 0 1 -.64.09 1.56 1.56 0 0 0 -1.14.12 14.26 14.26 0 0 0 -2.95 1.78l-.44.38a2.77 2.77 0 0 0 -1.06-.35 3.23 3.23 0 0 0 -1.11.56v-.44c-.42.19-.75.64-1.23.44a.15.15 0 0 0 -.14 0c-.3.6-.6 1.2-.92 1.87l.79.07c-.31.45-.4.82 0 1.18 0 0-.13.42-.2.42-.48 0-.72.35-.49.88.16.38 0 .5-.24.55-.79.14-.84.2-.81 1.11-.45 0-.71.3-.84.89-.1.41-.5.73-.85 1.2-.14-.65-.28-1.1-.34-1.57-.14-1-.58-2-.28-3.13.08-.25.28-.45.35-.71.2-.77.86-.86 1.29-1.28s1-1.17 1.57-1.74c.19-.22.45-.35.65-.56a2.38 2.38 0 0 0 .43-.68c.14-.34.22-.72.33-1.08-.56-.14-.77.11-.7.79-.37.27-.69.52-1 .75-.17.12-.47.32-.53.26a.57.57 0 0 1 -.06-.79.71.71 0 0 0 0-.22c-.65.1-1.36-.23-1.9.42s-.91 1.11-1.39 1.7l.58.26v.14l-2.13.37v-.16l.33-.19a1.23 1.23 0 0 0 -1.53-.15.53.53 0 0 1 -.32.1c-.8 0-1.61 0-2.41 0s-1.2.68-1.73 1.16a9.35 9.35 0 0 0 -.64.75c-.73.77-1.48 1.53-2.29 2.38l.85.16v.72l.38-.64.1.79a2.74 2.74 0 0 0 .44-.38.57.57 0 0 1 1 0c0 .06.08.14.13.19.24.23.58.35.46.9-.08.33.1.7-.18 1a1.21 1.21 0 0 0 -.22.8 3.63 3.63 0 0 1 -.82 2.68c-.65.92-1.24 1.88-1.86 2.82a1.37 1.37 0 0 1 -1.78.55.39.39 0 0 0 -.31.1 6.77 6.77 0 0 0 -.61.59c-.13.13-.33.31-.32.45.05.77-.46 1-.88 1.23s-.43.44-.07.83a3.09 3.09 0 0 1 .87 2.23.68.68 0 0 1 -.23.51c-.5.25-1 .44-1.55.67-.07-.69.46-1.26-.08-1.84l.47-.41-1.22-.53.31-.94c-.89-.82-1.52.06-2.29.39.17-.37.35-.73.5-1.11 0-.07-.05-.28-.1-.29s-.37-.07-.48 0c-.35.33-.66.73-1 1.07-.11.1-.28.11-.42.18s-.27.18-.4.27c.11.13.21.36.33.38.38 0 .52.24.45.71h.37c.38-.72.88-.21 1.33-.19.08 0 .14.13.22.2-.08.07-.15.19-.23.22a2.86 2.86 0 0 0 -1.52 1.46 6.34 6.34 0 0 1 1.48 2.75l-.49.37a1 1 0 0 1 .05 1.68 3.28 3.28 0 0 0 -.69 1.69c-1 1-1.83 2.18-3.22 2.18-.24.15-.49.35-.75.48s-.53.1-.73.26a3.32 3.32 0 0 0 -.49.77l-.31-.82c-.87-.44-1.36.42-1.87 1.1a.72.72 0 0 0 0 1c.41.47.82 1 1.2 1.47a3.29 3.29 0 0 1 .56 2.72.84.84 0 0 1 -.34.49 10.07 10.07 0 0 0 -1.81 1.59s-.09 0-.18.08a1.5 1.5 0 0 1 0-.41c.08-.48 0-.74-.47-.8a.86.86 0 0 1 -.49-.5 1.24 1.24 0 0 0 -1.13-.9.94.94 0 0 0 -.06-.18l-.21-.32c-.08.1-.2.18-.23.3-.14.52-.27 1-.38 1.57-.07.33-.23.67.24.89.18.08.21.56.35.82a1.31 1.31 0 0 0 .48.59 2.75 2.75 0 0 1 1.22 2 8.81 8.81 0 0 0 .45 1.51c-.09 0-.25.14-.33.09a3 3 0 0 1 -1.69-2 3.75 3.75 0 0 0 -.87-2c-.08-.09-.22-.11-.46-.23a9.65 9.65 0 0 0 -.64-5.67 6.25 6.25 0 0 1 -1.17.72c-.3.1-.47-.13-.38-.59a3.47 3.47 0 0 0 -.05-1.11c0-.13-.2-.21-.36-.37v-.45a1.9 1.9 0 0 1 -1-1.47c-.06-.48-.26-.35-.51-.25a9.51 9.51 0 0 1 -1.43.46c-.36.07-.73 0-.71.65 0 .15-.16.35-.28.47-.54.53-1.07 1-1.63 1.54s-.84 1.15-1.53 1.32c-.09 0-.16.41-.17.64-.05.89 0 1.79-.13 2.67 0 .34-.37.63-.58.94-.09.14-.22.26-.32.42s-.39.37-.64.09a1.5 1.5 0 0 1 -.23-.33c-.36-1-.7-1.94-1.06-2.9-.14-.39-.31-.76-.45-1.15a8.61 8.61 0 0 1 -.63-3.53 3 3 0 0 0 -.24-1c0 .59-.34 1-.73.9a4.78 4.78 0 0 1 -1.34-1.01l.82-.31a2.28 2.28 0 0 1 -1.66-1.26c-.24-.36-.47-.62-.95-.54a9.82 9.82 0 0 1 -3.82 0c-.38-.09-.68-.16-.77-.71-.06-.38-.21-.56-.53-.13s-1.24.14-1.78-.27a3.72 3.72 0 0 1 -1.31-1.56c-.28-.67-.74-.62-1.39.15.34.51.69 1.05 1 1.59a2.5 2.5 0 0 1 .25.55c.07.19.1.4.18.72l.34-.69h.17a3.17 3.17 0 0 1 .07.8c-.1.54.14.6.47.55 1.11-.17 1.13-.2 2.14-1.57a2.23 2.23 0 0 0 0 .71c.15.34.34.86.56.91a2.39 2.39 0 0 1 1.42 1.06c-.31.43-.4 1.06-.95 1.33-.15.07-.16.53-.21.71a17.76 17.76 0 0 1 -1.35 1.38 3 3 0 0 1 -1 .34c-.29.1-.63.13-.65.64 0 .07-.1.15-.18.19l-2 1c-.54.25-1.09.45-1.6.75s-.91.21-1-.56c-.1-.54-.17-1.09-.26-1.63a.42.42 0 0 0 0-.17c-.6-.76-.8-1.87-1.59-2.49a1.85 1.85 0 0 1 -.45-1.1 2.25 2.25 0 0 0 -.72-1.47 4.93 4.93 0 0 1 -.62-1.09 4.41 4.41 0 0 0 -1.1-1.59l.06-.42-.24.8-.69-.67c.49 1.08.92 2 1.34 2.95.06.13 0 .3.11.43a1.75 1.75 0 0 0 .32.64 1.85 1.85 0 0 1 .61 1.45 1.73 1.73 0 0 0 .61 1.5 1.8 1.8 0 0 1 .47 1 1.66 1.66 0 0 0 .71 1.08 18.77 18.77 0 0 1 1.5 1.46c.1.11 0 .41.06.62h-.13s0 0 .06.07c.64 1.08 1.43.52 2.19.3.21-.06.43-.09.65-.15l1.52-.42a4.66 4.66 0 0 1 -.74 2.84c-.51 1-1.06 1.93-1.63 2.87-.17.28-.49.43-.71.68-.62.69-1.23 1.4-1.84 2.11-.11.13-.17.31-.29.41a5.49 5.49 0 0 0 -1.21 2.32c0 .11-.1.3-.06.34.56.59.12 1.49.47 2.14 0 .06 0 .19.07.22.64.46.34 1.23.45 1.86.06.38.08.76.13 1.14a2 2 0 0 1 -1.1 1.73c-.89.32-1.32 1.32-2 1.89-.07 0 0 .35 0 .49a4.22 4.22 0 0 1 .35 2.16 1.08 1.08 0 0 1 -.38.59 3.23 3.23 0 0 1 -.62.3.66.66 0 0 0 -.4.84 1.93 1.93 0 0 1 -.55 1.8 1.67 1.67 0 0 0 -.38.57 6.54 6.54 0 0 1 -1.86 2.42 3.7 3.7 0 0 1 -2.45.67 6.16 6.16 0 0 0 -1.47.39 1.26 1.26 0 0 1 -1.07-.47c-.09-.23-.17-.47-.27-.76.3-.3.22-.65 0-1a12.78 12.78 0 0 1 -.52-1.2 2.32 2.32 0 0 0 -.37-.72 3.44 3.44 0 0 1 -.88-2.28 9.81 9.81 0 0 0 -1.53-4.42 2.62 2.62 0 0 1 -.19-1.71 3.31 3.31 0 0 1 .42-1.67 2.16 2.16 0 0 0 .22-2.6c.19-.8-.29-1.39-.44-2.07a4.85 4.85 0 0 0 -1.24-2.06 3.31 3.31 0 0 1 -.44-.6 1.07 1.07 0 0 1 -.11-1.06 6.63 6.63 0 0 0 .32-2 1 1 0 0 0 -1-1 2.23 2.23 0 0 0 -.45.08c-.51.16-.88.13-1.08-.61a.9.9 0 0 0 -1-.65 8.46 8.46 0 0 0 -2.69.94 1.05 1.05 0 0 1 -.58 0 2.53 2.53 0 0 0 -2.12.18c-.65.4-1.11.09-1.61-.31s-1.12-.86-1.66-1.33a1 1 0 0 1 -.39-.59c0-.8-.59-1.09-.94-1.57-.22-.31-.56-.49-.79-.78a1.85 1.85 0 0 1 -.29-.72c-.08-.33-.12-.69-.19-1.13.15-.51.36-1.18.51-1.87a2 2 0 0 0 -.1-.83c-.14-.48.06-1.11-.45-1.43 0 0 0-.29 0-.41a5.47 5.47 0 0 1 .62-1.43c.31-.4.37-.92.62-1.27.42-.6.61-1.42 1.38-1.71.44-.18.77-.76 1.14-1.17a.39.39 0 0 0 .08-.28 2.2 2.2 0 0 1 1.15-2.45 2.88 2.88 0 0 0 .71-1.13c.16-.34.24-.66.59-.18a.7.7 0 0 0 .5.22 6.16 6.16 0 0 0 1 0 .81.81 0 0 0 .48-.13 5.27 5.27 0 0 1 2.92-1.16 20.87 20.87 0 0 1 2.24-.06 1.07 1.07 0 0 0 .45-.14c.29-.16.55-.35.81.08 0 .06.23 0 .43 0l-.35.65c.48.42.39.82 0 1.22a.59.59 0 0 0 -.1.36s.17.07.25.12a3 3 0 0 0 .6.42c.55.18 1.11.3 1.67.45.08 0 .22 0 .23.1.12.81.71.69 1.16.86.26.09.49.31.74.41a.52.52 0 0 0 .47 0c.13-.12.29-.41.24-.54a.72.72 0 0 1 .36-1 1 1 0 0 1 1.3 0 .69.69 0 0 0 .27.22c1 .3 1.93.59 2.89.85a.57.57 0 0 0 .42-.13 1.34 1.34 0 0 1 1.44-.13c.7.31 1.14 0 1.32-.75a6.75 6.75 0 0 1 .24-.8 2.61 2.61 0 0 0 .27-1.66 2.68 2.68 0 0 1 .11-.82 11.77 11.77 0 0 1 -1.37.54 1.49 1.49 0 0 1 -.75-.17 5.58 5.58 0 0 1 -.69-.35c-.34.65-.46.67-1 .25-.08-.06-.21-.13-.29-.1-.34.17-.52-.16-.59-.38a.94.94 0 0 0 -1-.76c.32-.22.77 0 .62-.59l-.38.07c-.19-.47.44-1-.18-1.35-.4-.21-.88 0-1.19.62l-.47-.31-.11.09c.22.38.43.76.66 1.13a5.85 5.85 0 0 0 .38.49l-.61.29-.12.9-.25-.08a1 1 0 0 1 -.68-1.1c0-.14-.17-.28-.36-.57v.61h-.13l.12-.67a1.79 1.79 0 0 1 -.7-1.83.44.44 0 0 0 -.13-.33 4.78 4.78 0 0 0 -.82-.62 3.26 3.26 0 0 1 -1.64-1.48c0-.07-.14-.16-.2-.15-.42.06-.47-.24-.44-.69l-.63.27a1.13 1.13 0 0 0 .61 1.42.52.52 0 0 1 .17.3c.2.69.61 1 1.11 1a3 3 0 0 0 .42.5c.23.17.51.27.73.45a2 2 0 0 1 .35.49l-.11.1a3.87 3.87 0 0 0 -.55-.34.26.26 0 0 0 -.28.09.71.71 0 0 0 0 .41c0 .18.23.42.19.48-.19.3-.41.69-.68.79s-.35.22-.31.51-.1.52-.4.35-.52-.31-.77-.48a2.27 2.27 0 0 1 -.32-.3 1.75 1.75 0 0 1 .47-.2 5.9 5.9 0 0 0 .95-.07c.2-.05.49-.3.5-.47a1.29 1.29 0 0 0 -.32-.83c-.71-.62-1.48-1.13-2.19-1.74a2.87 2.87 0 0 1 -.64-.91.72.72 0 0 0 -1.26-.31c-.52.32-1 1.08-1.75.54-.19-.13-.54 0-.81.11a.42.42 0 0 0 -.15.34c.32.93-.35 1-.78 1.22a2.47 2.47 0 0 0 -1 1.25c-.06.12.1.41.17.67-.33.39-.68.84-1.07 1.23a.89.89 0 0 1 -.59.21c-.47 0-.93 0-1.3.45 0 .06-.37 0-.41-.14-.2-.58-.51-.7-1-.5a.61.61 0 0 1 -.34 0c-.17-.44-.33-.81-.44-1.2a.75.75 0 0 1 0-.51 3.76 3.76 0 0 0 0-2.8c.64-.77 1.45-.38 2.2-.38.54 0 1.08.08 1.63.08a.47.47 0 0 0 .35-.32 6.35 6.35 0 0 0 .15-1.44 2.08 2.08 0 0 0 -1.36-1.67 3.59 3.59 0 0 1 -.66-.41v-.26a5.09 5.09 0 0 1 .82-.19 5.92 5.92 0 0 1 .94.17l-.23-1 .38.17c.26.13.52.33.74-.1.07-.13.27-.16.4-.25s.3-.2.3-.29c0-.57.33-.62.64-.77a2.26 2.26 0 0 0 1-1.26 1.23 1.23 0 0 1 .6-.63c.4-.15.84-.14 1.25-.26.16 0 .4-.28.39-.39a3.84 3.84 0 0 0 -.32-1.24 1.16 1.16 0 0 1 .43-1.52 5.23 5.23 0 0 0 .82-.56 3.28 3.28 0 0 0 -.12.82c0 .17.17.32.24.45l-.51.76c-.34.81.48.82.66 1.28h.32c.34-.15.67-.34.87-.44.27.26.46.59.63.57a3.58 3.58 0 0 0 1-.41c.46-.22.89-.83 1.41-.08.05.07.3 0 .42-.08.27-.17.51-.39.8-.61a5.62 5.62 0 0 1 -.05-1.19 1.87 1.87 0 0 1 .49-1c.32-.31.49.15.7.36s.28.16.36.1a.72.72 0 0 0 .2-.42 4.64 4.64 0 0 0 0-.65l-.12.1a2 2 0 0 1 -.38-.7c0-.14.25-.45.41-.48a9.46 9.46 0 0 1 1.41-.11c.19 0 .39.07.55 0a10 10 0 0 0 1-.59c-.4.08-.69-.59-1.23-.35a6.83 6.83 0 0 1 -1.55.42 2 2 0 0 1 -.92 0 3.1 3.1 0 0 1 -.73-.36c-.08-.68-.18-1.28-.22-1.89a1.25 1.25 0 0 1 .18-.76c.52-.59 1.08-1.12 1.63-1.67l.39-.36c.12-.39-.21-.54-.56-.63a3.75 3.75 0 0 0 -.67 0 1.08 1.08 0 0 0 -.89 1.2.58.58 0 0 1 -.08.36 5.54 5.54 0 0 1 -.82.79 2.45 2.45 0 0 0 -1.25 1.84c0 .46-.18.9.38 1.1.22.08.38.37.61.62-.22.31-.38.69-.62.81a1.15 1.15 0 0 0 -.68 1.25c0 .25.1.5.11.74a.57.57 0 0 1 -.16.41c-.23.13-.51.14-.74.26a3.85 3.85 0 0 0 -.58.5c-.21.08-.66.55-.67-.26a2.24 2.24 0 0 0 -.26.35 2.14 2.14 0 0 0 -.06.27c.03.55-.14.62-.53.33zm12 7.59.39-.32c-.34-.11-.75-.09-1-.32s-.42-.19-.55.05-.67.5-.58 1.08c0 0-.11.08-.15.13a5.84 5.84 0 0 0 -.35.57 5 5 0 0 1 -.28.57 1 1 0 0 0 .37 1.53 1.76 1.76 0 0 0 1.72-.18 2.42 2.42 0 0 1 1.07-.35c.48-.08.89.27 1.33.42a5.79 5.79 0 0 0 2.11.23 1 1 0 0 0 .73-.63c.1-.39-.2-.7-.53-.92-.67-.44-1.31-.94-2-1.42a1.2 1.2 0 0 1 -.17-.17l.77-.79-.15-.37.7-.42-.06-.18-2.29.91c.24.55.24.55 1 .66 0 .09-.08.21-.14.24a13.14 13.14 0 0 1 -1.22.52c-.07 0-.22-.09-.29-.19a5.66 5.66 0 0 1 -.47-.69zm9.43.63c.22 0 .43 0 .44-.1.09-.53.42-.57.8-.64.14 0 .26-.42.33-.67a.71.71 0 0 0 -.11-.46c-.36-.05-.79-.18-1.08 0a4.3 4.3 0 0 0 -2.16 1.87c.15.26.37.49.39.73.08 1.2 1 1.68 1.41 2.51a2.25 2.25 0 0 0 -.61 1.46c0 .57.42.51.65.75.67.74 1.35.49 2 .24a9.11 9.11 0 0 0 0-1.18c-.06-.33-.15-.82-.34-.92-.42-.23-.21-.49-.2-.75h1l.06-.2a1.55 1.55 0 0 1 -.36-.31c-.37-.58-.48-.57-.82.08v-1l-.13.11zm-12.42 3.44 1.13-.23c-.59-.43-.86-.43-1.17.19zm-82.16-5a9.35 9.35 0 0 1 -2.32-1.87v-.17l1 .25c-.29-.29-.65-.46-.76-.77-.17-.52-.6-.77-.79-1.25 0-.07-.1-.12-.15-.16l-.75-.69.5-.23-1.18-1.21.08.64c-.74 0-.74 0-1-1.49l-.21.48-.17-.77.51-.28-.14-.67-.62 1.43-.9-1.66a.23.23 0 0 0 -.09-.08c-.49-.33-1-.66-1.46-1a.82.82 0 0 1 -.21-.32l-.91-.17a2.36 2.36 0 0 0 -.81-.15 2.06 2.06 0 0 1 -1.68-.52 1.21 1.21 0 0 0 -1.22-.16c0 .18.15.5.06.63s-.38.11-.56.21-.53.37-.8.53a6 6 0 0 1 -.7.33c.25-.84 0-1.83 1.05-1.87-.28-.28-.28-.29-.71 0a1.61 1.61 0 0 0 -.35.34l-1.12 1.44.54.33-4.09 3.35c-.22-.25-.42-.22-.73 0a7.31 7.31 0 0 1 -1.43.78l-.1-.2c.17-.13.33-.27.51-.39s.57-.31.83-.51.54-.53.88-.29a3.07 3.07 0 0 1 .55-.62 2.08 2.08 0 0 0 1.2-1.75c0-.09.1-.17.15-.27h-.83v.27c-.27-.15-.51-.29-.75-.41a.29.29 0 0 0 -.24 0c-.19.11-.36.25-.58.4l-.27-1.56c-.76.49-1 .44-1.56-.23 0 0-.07-.06-.07-.09a2.07 2.07 0 0 0 -.1-.58c-.11-.18-.31-.27-.48-.42.29-.51.55-1 .81-1.46.06-.09.19-.24.23-.21.47.26.81-.17 1.21-.27.72-.18.78-.27.36-1l.25-.32c-.13 0-.21-.1-.24-.07-.61.54-1.34.25-2 .41a1 1 0 0 1 -.7-.13c-.13-.09-.14-.42-.23-.62s-.13-.12-.2-.15a1.43 1.43 0 0 1 -.6-.34l2.2-1.1c.08.73.71.9 1.31.49l-.65-.7.47.07v-.14h-.4a1 1 0 0 1 -.79-.43 7.5 7.5 0 0 0 -1.37-1l.2-.59.78-.09a1 1 0 0 0 .83-.72 1.7 1.7 0 0 1 .88-.89c.75-.43 1.63-.43 2.29-1a.62.62 0 0 1 .81 0s0 .16 0 .16c.21.06.41.12.61.16s.27 0 .41 0c.32 0 .61-.16.92.28.17.25.73.12 1.12.16s.54.05.8.09a6.55 6.55 0 0 0 2.74.27.74.74 0 0 1 .36 0l1.94.52c.08 0 .15.13.24.17a9.75 9.75 0 0 0 1.2.53c.12 0 .31-.16.46-.27s.56-.38.86-.59c.2.36.39.34.71.13a13.77 13.77 0 0 1 1.75-.79l.08.19-.21.27c.25 0 .52.06.69-.07s.26-.46.43-.79l1.3 1.47.52-1.17.25 1c.1 0 .32 0 .4-.13.45-.67.95-.35 1.47-.15a4.53 4.53 0 0 0 2.62.67 1.11 1.11 0 0 1 1 .66l-.64.39v.26a10.12 10.12 0 0 0 1.91-.06 1.81 1.81 0 0 1 1.58.22c.07.05.16.07.09 0l1.45-1.12-1.4.54-.09-.27a2.2 2.2 0 0 1 .4-.3c.23-.11.47-.14.69-.25s.54-.1.71.32c.09.22.37.5.54.48.7-.06 1.29.64 2 .3.29-.14.68 0 1 0l.09-.61.57-.27-.98-.4a6.64 6.64 0 0 1 .59-.8c.11-.11.35-.2.45-.14a9.61 9.61 0 0 1 .88.82c.09.08.19.15.36.28l-1 .45.58.24c0 .36-.39 1 .43 1a2.53 2.53 0 0 0 -.12-.33c-.14-.32-.08-.47.23-.56a1.12 1.12 0 0 0 .77-.89l-.51.18c.22-.79.22-.76-.43-1.05-.35-.15-.89-.23-.56-1 0 0-.08-.16-.08-.24 0-.23 0-.62.08-.65.36-.14.29-.71.66-.77a7.88 7.88 0 0 0 -.22-.82c-.32-.84-.12-2 .92-1.87a10.55 10.55 0 0 1 1.81.31c-.53.59-.64 1.84-1.62 1.4l-.49 1.09a1.46 1.46 0 0 1 .87 1.11c0 .3.38.53.56.75l-.36.61 1.08.25v1.23h.15l.46-1.15a7.42 7.42 0 0 1 .68.62.63.63 0 0 1 .12.45c-.09.76-.1.76.31 1.24l.21-.14c.07-.06.13-.13.17-.17l-.16-.71.14-.1.29.39c.07-.14.12-.28.19-.41s.22-.33.3-.52a.68.68 0 0 0 0-.4 5.9 5.9 0 0 0 -.27-.71l.74-.13c.49.31 1.17.08 1.5.86.12.35.22.84-.55.69a6.41 6.41 0 0 1 .57.9c.08.19.09.59 0 .66a9.94 9.94 0 0 1 -1.42.89c-.12.06-.32 0-.48-.08s-.52-.17-.78-.25v.17l.32.23c-.33.65-.64 1.28-1 1.89a.61.61 0 0 1 -.25.29c-.48.19-1 .35-1.47.53.3.46.24.78-.17.77s-.42.18-.54.34a4.32 4.32 0 0 0 -1.24 3c0 .42.07.65.5.61.15 0 .38.2.47.39a10 10 0 0 1 .41 1.18 1.92 1.92 0 0 1 2.15.4 4.33 4.33 0 0 0 2.69 1.12c.43 0 .67.12.61.8a3.1 3.1 0 0 0 1.11 2.52c.06.07.27 0 .39-.07.3-.17.62-.39.51-.86-.14-.64-.34-1.26-.51-1.86a9.13 9.13 0 0 0 1.19-.98 1.6 1.6 0 0 0 -.24-2.34c-.47-.3-.58-.55-.17-1a.94.94 0 0 0 .12-1.12.68.68 0 0 1 -.06-.75c.05-.09-.06-.28-.08-.43s-.13-.51 0-.6a.66.66 0 0 1 .54-.19 8.65 8.65 0 0 1 1 .22c.09 0 .19.07.26 0 .84-.45 1.19.3 1.69.86.26.29.75.3 1.14.44a1.78 1.78 0 0 0 .14 1.57c.29.34.72.81 1 .76a1.25 1.25 0 0 0 1-1.21 2.24 2.24 0 0 1 .37-.76c.52.81 1 1.6 1.54 2.4a3.15 3.15 0 0 1 .34.82c0 .11-.1.27-.17.44a7.39 7.39 0 0 0 1 1 7.27 7.27 0 0 0 1.38.6l-.24.33c.3.18.59.34.87.53a1.35 1.35 0 0 1 .17 1.56l-.34.35a2.24 2.24 0 0 0 -1.47.72 2 2 0 0 1 -1.23.44c-.61.05-1.23-.06-1.85-.06-.46 0-.94 0-1.15.66 0 .1-.25.11-.35.21a8.39 8.39 0 0 0 -1 1.1c.57-.34 1.13-.7 1.71-1a1.69 1.69 0 0 1 .86-.12c.16 0 .31.2.47.31a2.28 2.28 0 0 1 -.33.53 2 2 0 0 1 -.68.23l.7.11c-.11.85.06 1.19.64 1.26 0 .09.07.24.13.25.34.07.69.1 1 .13l.59-1.09.43 1c-.54.3-1.12.65-1.72.94-.34.16-.7.22-.94.62s-.45.46-.69.1 0-.59.24-.79.3-.27.45-.41l-.11-.21c-.42.25-.83.51-1.25.74a7.08 7.08 0 0 0 -1.3.7 2.58 2.58 0 0 0 -.57 1.09c0 .11.24.36.36.52l-1.93.92-1.11 2.47-.26-.85-.23.06c.11.38.23.77.33 1.16s.32.79-.21 1c-.06 0-.06.26-.14.29l-1.38 1.19c-.19.17-.36.37-.56.53a1.63 1.63 0 0 0 -.52 1.91 11.9 11.9 0 0 0 .46 1.35 2.51 2.51 0 0 1 0 2 2.21 2.21 0 0 1 -.45-.4 7.7 7.7 0 0 1 -.63-.94c-.11-.22-.27-.52-.22-.71a1 1 0 0 0 -.3-1c-.26-.32-.45-.48-.78-.18a.32.32 0 0 1 -.36 0c-.3-.43-.68-.39-1.09-.33a6.21 6.21 0 0 1 -1 0l-.18.53.29.24c0 .06-.08.11-.1.1l-.67-.11-1.3-.26h-.1c-.63-.18-2.18 1-2.32 1.71v.06c.31.87-.15 1.66-.18 2.5a3.52 3.52 0 0 0 .62 2.19c.26.38.4.8.86 1a1.68 1.68 0 0 0 1.21 0c.25 0 .49-.08.73-.13l.12.14.45-1.52c0-.07.07-.18.11-.19a6.32 6.32 0 0 1 1.74-.31c.36 0 0 .47 0 .71 0 .09-.17.14-.19.23-.15.69-.27 1.39-.42 2.08a6.32 6.32 0 0 1 -.26.67h1.39s1-.17 1.34.34a1.21 1.21 0 0 1 .27.69 14.47 14.47 0 0 1 -.21 1.61c-.17.89.48 1.22.87 1.69s.65.18 1 0c.69-.42 1-.33 1.77.5a3.2 3.2 0 0 0 .86-1.4c.06-.25.56-.37.86-.53s.55-.3.83-.43l.55-.22-.29.68s.21.17.29.12a4.8 4.8 0 0 0 .74-.56c.07 0 .36.09.48.28.44.68 1.07.43 1.61.63.35.13.64.31.94 0a.83.83 0 0 0 .15-.26h1l-.2.4a2.09 2.09 0 0 0 .28.17l.76.33-.27.55h.14a1.4 1.4 0 0 1 1.35.79c.31.54.78 1 1.35.85 1.06-.25 1.81.38 2.56 1.07.1.1.1.34.16.5a4.2 4.2 0 0 0 .41.88c.23.29.33.52-.07.86l1.1.67-.16.61c.32-.67.77-.58 1.23-.28s1 .14 1.15.92h.19a13.51 13.51 0 0 1 2 .16 3.05 3.05 0 0 1 1.16.74c.38.32.71.7 1.24.65.13 0 .35.2.4.36a2.69 2.69 0 0 1 -.57 3.06c-.22.28-.4.6-.6.9s-.37.45-.52.71a1.47 1.47 0 0 0 -.21.62 14.7 14.7 0 0 1 -.1 2.11 6.25 6.25 0 0 1 -.74 2.44 4.81 4.81 0 0 0 -.49 1c-.26.62-.79.39-1.2.55a7.54 7.54 0 0 0 -.75.38 9.91 9.91 0 0 0 -1.05.61 1.76 1.76 0 0 0 -.72 2 1.68 1.68 0 0 1 -.24.89 9 9 0 0 1 -.67 1.04c-.22.34-.49.65-.73 1a5.42 5.42 0 0 0 -.37.56c-.28.46-.52.95-.81 1.39s-.94.37-1.42.3a5.43 5.43 0 0 1 -1.13-.5c.11.2.15.35.22.39.31.2.67.33.48.89a.13.13 0 0 0 0 .11c.18.17.46.34.27.66a2.91 2.91 0 0 1 -.88 1.1 10.45 10.45 0 0 1 -2 .54l-.1 1.26c-.45.52-1 .16-1.59-.06a8.27 8.27 0 0 0 .36 1.12c0 .08.29 0 .53 0v.43l-.59-.13.09.19a10.49 10.49 0 0 1 -.35 1 3.16 3.16 0 0 1 -.48.67c-.07.08-.21.09-.27.17-.17.24-.46.55-.42.75a1.16 1.16 0 0 0 .58.67c.41.22.54.54.2.9s-.9.71-.91 1.45c0 .06-.09.12-.15.16-.67.52-.72.84-.25 1.65a2.24 2.24 0 0 1 .1.21h-.48a12.47 12.47 0 0 0 1.1 1.46 7 7 0 0 0 1.21.79c-.23.05-.42.09-.61.15-.35.11-.76 0-1 .5h-.08c-.21-.38-.72.1-.94-.5-.08-.22-.63-.22-1-.33l.12-.16-.3-.49-.75-.72-.43-.66.31-.1-.24-.71-.54.19a9.87 9.87 0 0 0 .24-1.18c0-.07-.28-.18-.44-.28 0-.53-.33-1.16.2-1.65l.22.24.21-.89-.76-.15.31-.58c.17-.31.5-.56.27-1 0-.07.18-.29.33-.51l.12.47h.15l.4-2.36c-.61.06-.48.55-.49.86s-.06.53-.49.44c.19-1 .4-1.89.54-2.84a3 3 0 0 0 -.11-1.12 1.21 1.21 0 0 1 .13-.83 12.81 12.81 0 0 0 .79-2.62 13.1 13.1 0 0 0 0-1.66c.06-.74.19-1.48.27-2.21.11-1 .2-1.92.3-2.87 0-.29.1-.58.1-.86a12.29 12.29 0 0 0 -.11-2.36c-.16-.71-.79-1-1.33-1.4a13.51 13.51 0 0 1 -1.53-1.11c-.19-.17-.23-.56-.36-.84s-.35-.69-.52-1c-.46-1-.91-1.91-1.37-2.86-.07-.16-.15-.41-.26-.44-.6-.14-.59-.79-.63-1.23s.3-.75.53-1.11c-.08-.27-.5-.45-.36-1s.24-1.35.81-1.74c.08-.05.1-.21.17-.3a3.89 3.89 0 0 1 .52-.66c.45-.38.33-.93.32-1.43a2.13 2.13 0 0 0 -.46-1.68.42.42 0 0 1 -.11-.21c-.23-.8-.38-.86-.89-.34-.06 0-.12.08-.2.15l.24.51c-.22 0-.41.07-.53 0-.35-.22-.61-.68-1.11-.52-.1 0-.26-.18-.39-.29a4.13 4.13 0 0 0 -.74-.61c-.24-.13-.38-.16-.46-.55a4 4 0 0 0 -.7-1.18c-.1-.16-.21-.3-.33-.46-.28-.07-.62-.13-1-.22a3.44 3.44 0 0 1 -2.11-1.27.86.86 0 0 0 -1.31-.25c-.42.31-.84.07-1.23-.11-.73-.34-1.44-.75-2.16-1.14-.49-.26-1-.51-1.47-.8a1 1 0 0 1 -.49-1.14 1.7 1.7 0 0 0 -.25-1.14c-.54-.71-1.17-1.3-1.75-2a.88.88 0 0 1 -.14-.59l-1.73-1.82a1.73 1.73 0 0 0 -1.27-1.75c-.06.85.08 1.1.68 1.49.14.09.16.41.26.61.4.77.81 1.53 1.22 2.29.15.28.15.67.55.78.15 0 .5.5.09.71-.42-.35-.79-.64-1.15-1-.1-.1-.24-.31-.21-.41.17-.74-.32-.89-.69-1.15l-.93-.64c.62-.2.71-.45.3-.81-.81-.73-1-1.86-1.56-2.78a3.41 3.41 0 0 0 -1.32-1c-.24-.14-.42-.17-.58-.53a23.45 23.45 0 0 0 -1.33-2.41 2.83 2.83 0 0 1 -.55-2.07.37.37 0 0 0 0-.18c-.41-1 0-1.91 0-2.86a4.33 4.33 0 0 0 -.33-2.12c-.19-.38-.06-.46.22-.48.1 0 .19.15.28.14a2.81 2.81 0 0 0 .48-.12c-.07-.19-.09-.44-.21-.55a11.34 11.34 0 0 0 -1.06-.81c.06.71 1 .48.91 1.35zm20 .69c.52.92 1.31 0 2 .46-.14-.51 0-1.13-.67-1.14-.06 0-.15-.12-.18-.21-.24-.69-.68-.52-1.08-.33a9.53 9.53 0 0 0 -1.1.73l-.93.7c.25.06.58-.08.61 0 .22.46.46.1.65 0a4.54 4.54 0 0 0 .67-.44.63.63 0 0 1 .23 0zm2.33 2.8c.71-.88.71-.07.87.36h.17l.33-1.63.68.56c.09-.66-.16-1.05-.55-1.13s-.93-.47-1.41 0c-.09.09-.28 0-.48 0 .82.69.82.75.33 1.8zm-1.84 1.46a.89.89 0 0 0 .53-1.23 1.3 1.3 0 0 1 .41-1.44 3 3 0 0 0 .38-.61 1.15 1.15 0 0 0 -1.42.69l.27-.16a3.28 3.28 0 0 0 -.23 2.71zm2.14-.2a1.71 1.71 0 0 0 2.23-.85zm2-1.11h1.36s.51-.27.32-.64c-.56.34-1.3-.2-1.75.6zm5.76 67.7.17-.8h-.34v-.54h-.12l-.32 1.15.14.11.21-.41zm-1.59-44.25h.31l-.09-.8h-.23zm9.44-43.52c.68.34.44 1.23.88 1.72a11.27 11.27 0 0 1 .93 1.64c.32.51.66 1 .85 1.28.65.2 1.13.31 1.58.5.25.1.45.4.7.49a.55.55 0 0 0 .54-.19 12.58 12.58 0 0 0 .41-1.4 8 8 0 0 1 .35-1.27c.2-.45.69-.72.56-1.38 0-.08.14-.2.24-.34l-.4-.49c.18-.09.54-.16.55-.27 0-.41.27-.36.46-.39s.52-.26.8 0c.06 0 .19.07.23 0 .65-.64 1.63-.82 2-1.93 0-.14.18-.23.27-.35s.31-.4.48-.63c.36.41.75 0 1.16 0 1.59-.08 2.73-1.26 4.13-2.13l-2.41-.24.64-.4-.22-.86.18-.14c.24.31.47.63.73.91a.87.87 0 0 0 .47.33 6.06 6.06 0 0 0 1 0 6.61 6.61 0 0 0 -.48-1.32 2.69 2.69 0 0 0 -.87-.7c-.48-.29-.49-.27-.52-.74l1.21.89c.38-.83.37-.91-.21-1.25-.33-.19-.67-.34-1-.5a.39.39 0 0 1 .46 0c.57.56 1.14.16 1.71 0 .08 0 .12-.24.18-.37-.64-.34-1-.55-.93-.62.51.51 1 0 1.64 0a8.51 8.51 0 0 0 -.61-.84s-.23.13-.37.22a2.28 2.28 0 0 1 0-.44 4.59 4.59 0 0 1 .67-.07c.17-.51-.07-1.31-.49-1.32a1.35 1.35 0 0 1 -1.02-.63l.6-.05a5.07 5.07 0 0 1 1.09-.09c.51.06.54.07.46-.52l-1.2-.37v-.23l.73.09c-.51-.46-.92-.57-1.34-.2a2.26 2.26 0 0 1 1.34-2l-.19-.82-.44-.17c.16-.48.38-.63.78-.54a1.56 1.56 0 0 0 1.5-.26l-.2-.2 2.75-1.44a3.31 3.31 0 0 0 -2.18-.53 1.49 1.49 0 0 0 -.74.33c-.26.22-.48.35-.8.21a1.14 1.14 0 0 0 -1.51.31 3 3 0 0 1 -.92.54c.33-.53 1-.75.76-1.7-.27 0-.65-.12-.79 0-.52.62-1 .21-1.51.09a7.17 7.17 0 0 0 -1.85 0c-.16 0-.31 0-.46 0v-.11c.14 0 .27-.07.41-.09 1-.08 1.93-.14 2.89-.26a6.59 6.59 0 0 0 1.17-.37v-.24c-1.33-.38-2.58-.93-3.96-.51v-.16l1.5-.18a13.75 13.75 0 0 0 -7-.15l.49.47c-.08.05-.11.1-.13.09-.56-.29-1.09-.69-1.69-.13 0 0-.11 0-.15 0-.66-.37-1.28 0-1.91.13-.23.06-.46.09-.69.13v.21h1.71v.12l-2.25.3c.32.64.91.55 1.3.86l.28.24-.11.18c-.54-.22-1.1-.43-1.64-.67a2.85 2.85 0 0 0 -1.87-.31l.75.78v.14l-1.66-.7-.16.84c-.23-.73-.44-1-.89-.9s-1.08.24-1.63.32-.9.47-1.43.43c-.25 0-.43.19-.35.59 0 .16-.13.53-.2.53a1.57 1.57 0 0 0 -1.11.17c-.57.38-1.19.64-1.78 1-.08 0-.12.25-.11.36s.16.15.25.15h1a4.65 4.65 0 0 1 -.29.89 1 1 0 0 1 -.46.4c-.76.24-1.52.43-2.28.64a6 6 0 0 0 -.94.28.55.55 0 0 0 -.26.39.46.46 0 0 0 .22.34c.93.36 1.83 1 2.86.47.09 0 .22 0 .33.08a.37.37 0 0 1 0 .15.77.77 0 0 1 -.27.11l-2.12.3c-.05 0-.1.08-.27.23l1.35.51-.44.42a5.13 5.13 0 0 0 1.47.35 14.37 14.37 0 0 1 2.06-.4 11.58 11.58 0 0 1 2.44.74c.07 0 .17.14.16.19-.08.51.29.55.52.75s.67.39.45.84a4.33 4.33 0 0 1 .41.55 6.36 6.36 0 0 1 .2.66h.13l-.14.35.46.27-.16.35-.09-.06.08-.36-.41.12a3.87 3.87 0 0 1 .2 1c0 .55.06.76.53.66.21-.05.4-.3.58-.45a1.6 1.6 0 0 1 .16.27c0 .11.09.23.15.38l.36.06.43.09-.22.1.41.53-1.78-.39v.18l.2.38-.18-.08-.32.76a1.06 1.06 0 0 0 1.74.1l-1-.74c.42.11.92.17 1.17.5a4.14 4.14 0 0 1 .27 1.47 2.89 2.89 0 0 0 -.9-.16c-.54.07-.75 1.78-.26 2-.23.4-.3 1.14.06 1.3zm111.64 61.95-.64-.16a2.58 2.58 0 0 0 -1.2-1.82c-.19-.12-.49-.19-.55-.38a13.46 13.46 0 0 1 -.62-2.17c-.11-.6-.38-.8-.81-.76l-.72-2.32h-.15a7.28 7.28 0 0 0 -.43 2.39 6 6 0 0 1 -.26 1.64c-.17.57-.46.61-.88.25-.16-.14-.34-.24-.5-.37l-1.65-1.19c.25-.5.46-.9.64-1.33 0-.13 0-.45 0-.48a3.07 3.07 0 0 0 -.53-.06c-.49-.1-1-.22-1.46-.34-.17 0-.33-.1-.64-.19l.47.5c-.14.08-.28.22-.43.23a1.65 1.65 0 0 0 -1.2 1.93l-1.05-.66c-.12-.08-.24-.21-.37-.22-.47 0-1.34 1-1.37 1.58l-.42.1v.65l-.42-.61a2.82 2.82 0 0 0 -.35.77 1.76 1.76 0 0 1 -1.14 1.56l-.93.29a3.78 3.78 0 0 0 -2.18 1.36l-.17-.32a8 8 0 0 0 -.25 1.55 6.07 6.07 0 0 0 .41 1.34l-.11.07-.2-.42-.13.12.42 1.34c.27.85.56 1.69.8 2.55.14.53.34 1.11-.19 1.56a.46.46 0 0 0 0 .37c.26.52 1.36.87 1.78.5a2.62 2.62 0 0 1 2.25-.72.86.86 0 0 0 .94-.5c.24-.38.79-.5 1.21-.68s.71-.08 1-.26c1-.61 2-.12 3 .18a.52.52 0 0 1 .22.24c.25.5.49 1 .75 1.52 0 .06.14.07.21.11l-.22-.3 1.27-.86-.39 1.33v.1l.62-.71v.9c.49 0 .71.33.83.85.08.34.32.82.55.87.64.17 1.26.9 2 .23 0 0 .15 0 .23.07.28.12.56.26.81.38.45-.38.78-1 1.44-.89.35 0 .45-.2.55-.61a11.7 11.7 0 0 1 1-2.91 6.27 6.27 0 0 0 .77-3.75c0-.59-.15-1.17-.22-1.7a1.43 1.43 0 0 1 -.18.18c-.38-.79-1.29-.93-1.21-1.92zm-116.22-83.04a7.06 7.06 0 0 1 -1.68-.61c-.37-.24-.93 0-1.41 0a5.06 5.06 0 0 0 -1.69-.38c-.71 0-1.47-.28-2 .21l-1.92-.12v.2l.64.45-.06.19a2.36 2.36 0 0 0 -2.26-.57l.28.35c-.2-.05-.36-.16-.49-.11a6.4 6.4 0 0 0 -1 .49s.06.22.09.34c-.19 0-.42.12-.55 0a1.36 1.36 0 0 0 -1.73.11l.23.11a6.89 6.89 0 0 0 -3 .67c.16.49.69-.32.69.45l.58-.13-.3.51a1.43 1.43 0 0 0 2.3.23l-.6.47.06.24 1.58-.24c.11 0 .24-.08.34 0a1.68 1.68 0 0 0 2-.53.38.38 0 0 1 .38-.11 2 2 0 0 1 .48.34l-2.85.89 1 .79a.36.36 0 0 1 -.34 0 2.42 2.42 0 0 0 -2-.76 2.55 2.55 0 0 0 -.56.21 3.86 3.86 0 0 0 .43.65c.19.19.47.25.64.45a2.36 2.36 0 0 1 .23.68c-1.18 0-1.92.3-1.67 1.12l1.36-.12-.34.35.14.59c-.5-.34-.94-.81-1.68-.1l.69.5c-1.31.37-1.34.39-1.29 1h.2a3.89 3.89 0 0 1 1.56 0c.74.34 1.38-.13 2.07-.13.41 0 .7 0 .94.48.41-.19.83-.37 1.24-.57a.67.67 0 0 0 .22-.31.29.29 0 0 0 -.13-.23c-.39-.13-.79-.24-1.22-.37.53-.22 1.36.25 1.34-.93 1.27 0 1.54-.39 1.31-.82l.56-.22v-.21l-.84-.33v-.14h.81v-.17a3.73 3.73 0 0 1 -.56 0 4.72 4.72 0 0 1 -.55-.22c.72-.09 1.32.06 1.92-.49.46.18.94 0 1.23-.69a.56.56 0 0 1 .2-.25l2.47-1.35c.14-.08.27-.19.41-.29v-.13l-1 .15c.9-.62 2.1-.53 3.1-1.59zm-12.41 16.71a2.87 2.87 0 0 1 2 .27c.47.31.61-.23.88-.41a3.15 3.15 0 0 0 -.13-.7l1.88 1.55-.47.4.07.31c.49-.64.86-.28 1.28 0a2.29 2.29 0 0 1 1 1.43l-1.18 1.3.56.33-.06.21a4.66 4.66 0 0 1 -1.37.16.82.82 0 0 0 -.91.33c-.23.3-.19.65.15.73a2.18 2.18 0 0 0 1 0c.64-.18 1.26-.43 1.76.38.11.19.37.25.69.46l-.23.1a7.47 7.47 0 0 0 .59.77c.05 0 .23-.09.35-.1a.68.68 0 0 1 .34.06l1.9.88a1.28 1.28 0 0 0 -.67-1.09c-.27-.25-.56-.48-.84-.72l.08-.14 1.94 1a3.23 3.23 0 0 0 .27-1.09 3 3 0 0 0 -.54-1 .15.15 0 0 0 -.13-.09c-.67 0-.81-.85-1.3-1.16h.29l.26-.64c.36.26.84.4.9.67.16.72.61.77 1.08 1l.09-.64c.35-.09.64-.25.55-.7l.51-.43v-.28l-.71-.13-.3-.08c.09-.64-.34-.21-.46-.42-.64-.77-1.65-.77-2.27-1.36l.28-.54h.5v-.11l-.72-.36.38-.2c-.27-.66-.39-.7-.87-.36l.21-.54-1.59-.48c0-.18 0-.44-.11-.48-.35-.21-.72-.38-1.08 0a5.31 5.31 0 0 0 -.57-.66 2.8 2.8 0 0 0 -1.17-.73c-.39-.17-.81-.26-1 .37 0 .09-.15.15-.22.22-.37-.62-.66.05-1.05.14a1.4 1.4 0 0 0 0-1.44 1 1 0 0 0 -1.36-.46 2.81 2.81 0 0 0 -.8.38 1.57 1.57 0 0 0 -.45.78c0 .14.21.37.31.52l-.49.38.7.54-.09.43a3.41 3.41 0 0 0 -.37-.5 1.48 1.48 0 0 1 0-2.32l.29-.26c-.07-.07-.11-.12-.15-.13a2 2 0 0 0 -2.49 1.73c-.23.94 0 1.31.81 1.42.16 0 .32.09.47.13v.14l-.95-.07c.13.61.54 1 1 .86.25-.05.48-.16.68.17 0 .09.25.06.38.09l.69.18zm-18-3.32-.75 1.09c-.15.23-.15.41.11.51l1.06.34-.92.36v.17a2.58 2.58 0 0 0 .75.29c.48 0 1-.09 1.44-.07a11.52 11.52 0 0 1 1.31.21v.21a6 6 0 0 0 -2.81.28c.22.73.44.87 1.26.88.32 0 .67-.11.74.49 0 .14.31.34.47.33a6.92 6.92 0 0 0 1.69-.21 13.27 13.27 0 0 0 1.69-.73 2.11 2.11 0 0 0 2.72-.06l-.47-.5c.09-.1.4 0 .61.35.28-.5.1-.78-.33-.94a5.21 5.21 0 0 1 -.94-.4c-.27-.18-.66-.32-.5-.89 0-.11-.09-.29-.14-.44l-.49-1.2h.13c.08-.34.29-.75.21-1s-.87-.22-1.16.15l.38.34-1-.12c-.19.69.22 1.21.36 1.81-.35.36-.42 0-.49-.25a1.33 1.33 0 0 0 -1.09-1.13s-.09 0-.16.06l.18.31-.44.3c-.5-.86-1-.75-1.65-.15.14-.92 0-1.06-.67-.8l-.87.36zm139.63 60.62a1.1 1.1 0 0 1 1.47.4c.23.32 1.2.07 1.33-.23.33-.77 1-1 1.4-.37a2.63 2.63 0 0 0 2.1 1.41c.06 0 .13.12.18.11a.88.88 0 0 0 .23-.12l-2.12-2.24.75-.21a3.92 3.92 0 0 0 -.51-.41c-.23-.14-.62-.17-.69-.36-.33-.95-1.07-1-1.73-1.31s-1.33-.46-2-.76c-.82-.38-1.08-.34-1.68.42-.14.17-.46.43-.5.39-.2-.24-.5-.55-.5-.84 0-.53-.13-.81-.57-.84a3.25 3.25 0 0 0 -.76.06c-.22 0-.43.12-.69.19a6.32 6.32 0 0 0 .91.76 2.35 2.35 0 0 0 .85.12l-.89.29c.14.17.35.3.37.46.1.87.32.15.42.1l1.36.56a2.12 2.12 0 0 1 .76.35 3.43 3.43 0 0 1 .68 1c.18.39-.27.35-.36.57s-.11.29-.18.47a1.34 1.34 0 0 0 .37.03zm-11.44-9.42c-.23-.25-.36-.22-.52.06a2.48 2.48 0 0 1 -1.2 1.27c-.11 0-.17.23-.27.34s-.36.54-.59.62c-.47.15-.85.31-.82 1l-.9-.27a1 1 0 0 0 -.18 1.13 11.23 11.23 0 0 1 .5 1.12c.13.38 0 1 .58.91.37-.06.61.4 1 .18a.72.72 0 0 1 1 .47l.85-.27c0-.59-.11-1.43.61-1.87 0 0 0-.08 0-.11-.12-.69.14-1 .67-1l-.8-1.56.62-.91-.08-.07.46-.17c-.28-.27-.62-.55-.91-.87zm-37.5 13.7a2 2 0 0 1 -1.26 1.32 1.28 1.28 0 0 0 -.74 1.79 2.16 2.16 0 0 1 -.23 1.76 2.39 2.39 0 0 0 -.16 1 7.67 7.67 0 0 0 .15.81c.07.54.49 1.15.91 1s.93-.08 1.1-.71.31-1.15.44-1.74c.24-1 .46-2 .68-3 .08-.37.13-.74.19-1.09l.17.16.15-.06a4.89 4.89 0 0 0 -.66-2.38 4.62 4.62 0 0 0 -.72 1.14zm3.26-64.73a1.07 1.07 0 0 1 .1-1.43c.31-.4.64-.79.92-1.23a5.2 5.2 0 0 1 2.17-2c1-.52 2.16-.8 3.23-1.25.23-.1.39-.46.58-.7a3 3 0 0 0 -.84-.27 1.41 1.41 0 0 0 -.63.26 3.81 3.81 0 0 1 -.72.43c-.76.2-1.54.29-2.29.54a10.67 10.67 0 0 0 -1.56.83l-.93.46a2.18 2.18 0 0 1 -1.14 1.71l.21.53a.9.9 0 0 0 -.79 1 .54.54 0 0 1 -.32.41c-.28 0-.45.2-.34.51a.59.59 0 0 0 .47.26c.6 0 .71.1.74.88l2.18.19a11.68 11.68 0 0 1 -1.02-1.13zm-80.52-8.7-.9.43a2.28 2.28 0 0 0 2.84 1 4.85 4.85 0 0 1 2-1.42v-.21l-1-.38-.5-.69c-.09-.13-.17-.26-.25-.4l-.43.39-.23-.54c-.58.17-.92-.3-1.25-.7a1.22 1.22 0 0 0 -1.5-.36l.51.21-1.1.27v.16l.45.3v.06l-.63-.12-.13.72.4.17v.07h-.58l-.08.17.74.55-.11.2c.13.06.27.18.4.17.45 0 .89-.09 1.34-.15zm50.07 26.31a1.27 1.27 0 0 1 -.3-.4c-.21-.33-.41-.68-.69-1.13l.49-1.2-1.25-.11.58-.78c-.88-.08-1.46.2-1.57 1.13l-.44-.11v.14l.46.36-.26.73.43-.25-.07.94.13.06.25-.53h.09l-.1 1 .77-.06a3 3 0 0 1 .33.94c0 .6-.5.23-.85.35.6.67.21 1-.29 1.35l.86.22-1 1.14a.29.29 0 0 0 .28 0c.5-.14 1-.3 1.49-.42s1.27-.3 1.9-.46c0 0 0-.09.07-.14l-.2-.16.37-1-.76-.32c-.22-.4-.22-.99-.72-1.29zm58.61 39.62.52.07c-.16-.29-.29-.49-.38-.7-.21-.49-.38-.34-.56 0l.31.18-.13.17-1-1.2a1.39 1.39 0 0 0 -.21-.88 2.54 2.54 0 0 0 -1.05-.82 3 3 0 0 1 -1.59-1.36c-.51-.84-1.2-.45-1.77-.8a2.39 2.39 0 0 0 .61 1 14.36 14.36 0 0 1 2.23 3.12 14.7 14.7 0 0 0 1.17 1.89c.5.52.94 1.39 1.87 1zm-120.98-58.13c-.66-.39-1.14-1.24-2-.71 0 0-.14 0-.22-.08a3.59 3.59 0 0 0 -2.89-.07l.39.67-.89 2 1.24 1c.1.08.23.19.31.16.39-.13.77-.29 1.15-.45a.34.34 0 0 0 .16-.22 2.31 2.31 0 0 1 1.62-1.59h.23zm19.25-2.69a3.13 3.13 0 0 0 -2.58-.3c-.47.12-.9.52-1.46.21-.3-.17-.72 0-.9 0l-.9-.7.68-.08a5.75 5.75 0 0 0 -2.09-.64 3.21 3.21 0 0 0 -2.1-.3c.11.18.16.31.23.4a1.51 1.51 0 0 0 1.57.47c.43-.08.78.5.74 1a1.89 1.89 0 0 0 .29 1c.49-.08 1 .55 1.45 0 .06-.06.22 0 .33 0 0 .54.35.31.52.29.77-.07 1.53-.2 2.3-.3a.21.21 0 0 1 .12.05c.45.38.93.14 1.38.05.2 0 .37-.31.59-.5l-.33-.15.4-.25zm54.62-5.11c.07-.25-.26-.66-.49-.71s-.63-.11-.71-.3c-.16-.37-.31-.37-.56-.21.07-.92-.66-.42-.88-.8l-.14.06v1.36l-.74-1.11-.46.67-.39-.29.41-.23v-.1l-1.64.12c0 .77.16 1 .53.84 0 .23 0 .54.09.7a1.91 1.91 0 0 0 .71.59c.38.18.69-.08.79-.56l1.15.29-1.8.64.82.46-.67.23 1.61 1.19c.31-.5.56-.88.79-1.27a.85.85 0 0 0 .13-.25c.28-1 .6-1.3 1.47-1.34zm-21.85 18.14c.55.23 1-.11 1.4-.34a11.7 11.7 0 0 0 1.65-1c.38-.29.32-.66-.08-.94a.73.73 0 0 1 -.28-.32c-.15-.44-.58-.3-.8-.58 0 0-.15 0-.17.08-.17.43-.47.37-.8.36a5.21 5.21 0 0 0 -.94.14v.14l-.24-.18-.68.8c.1-.72-.2-1.09-.57-1.14s-.72.55-1.11 1h1.18c0 .77-.68.32-.91.72.88 0 .88 0 1.12.63l-.43.2a15.21 15.21 0 0 1 1.66.43zm-49.44-14 .49.32-.12.3.42.34v.16c-.4-.06-.86 0-1.18-.21a14.75 14.75 0 0 0 -1.36-.81 1 1 0 0 0 -1.36.2 3.21 3.21 0 0 0 -.43.74h.54l-.84.25v.21c.67.06 1.35.71 2-.21a1.83 1.83 0 0 0 .05.28h1.16v.05l-1.45.53a1.33 1.33 0 0 0 1.84.12 3.32 3.32 0 0 1 1.84-.41c.23 0 .55 0 .68-.15a1.56 1.56 0 0 0 .35-1c-.07-.34-.42-.38-.72-.1a.38.38 0 0 1 -.41 0 13.06 13.06 0 0 1 -.68-1.15zm113.92-5.35a3.83 3.83 0 0 1 .05-.6c.16-.53-.09-1-.55-.88-.13 0-.25.15-.38.24l-.59-.95.43-.29a9.4 9.4 0 0 0 -.8-.58 1 1 0 0 0 -.58-.18 5 5 0 0 0 -1 .37 1.76 1.76 0 0 0 -.4.33c.27.43-.11.36-.26.46l-.47.27 1 .39a1.5 1.5 0 0 1 -.56 0 5.28 5.28 0 0 0 -.58.08c.51.54 1.09.62 1.41.28.16-.18.34-.33.51-.5l.09.15-.82.75a4.75 4.75 0 0 0 3.62.88zm19.73 42.21.25-.08c-.16.41-.1.84.26.76s.41-.54.64-.87a1 1 0 0 0 1.28-.37c.38.35.62.08.72-.31s.11-1 .18-1.43a2.51 2.51 0 0 1 .16-.57c.25-.56.57-.84.12-1.6a1.08 1.08 0 0 1 -.1-.27l-.15-.42c-.14.08-.35.1-.42.23a2 2 0 0 0 -.28.87 2.14 2.14 0 0 1 -1.49 2.33l.07-.42c-.15.09-.19.25-.27.38-.19.35-.34.81-.62 1s-.65.06-1 0c-.71 0-1.07.63-1.52 1.11.38.2.73 0 1.09-.1zm21 50a4.12 4.12 0 0 1 -2 2.46 4 4 0 0 0 -1 1.21c-.06.09 0 .46.08.48a3.52 3.52 0 0 0 1.21.33c.66 0 1-.64 1.09-1.29s.51-.92 1.17-.92c-.41-.28-.27-.44-.05-.67a2.12 2.12 0 0 0 .47-.78 2.69 2.69 0 0 0 0-.76l-.55.12-.32-.53a1.91 1.91 0 0 0 -.06.35zm-149.35-83a1.71 1.71 0 0 1 .21.38 1.18 1.18 0 0 1 -.42.21c-.09 0-.19-.19-.29-.22a2 2 0 0 0 -.49 0c.06.16.08.39.18.46a5.53 5.53 0 0 1 1.74 1.37c0 .07.32 0 .49-.09s.1-.19.14-.19c.78.05.72-.63.8-1.19l-.85-.6.55-.71a.9.9 0 0 0 -1.24-.33c-.41.18-.93 0-1.22.68a2.12 2.12 0 0 1 .4.23zm24.25 21.46c-.38.84-.77 1.67-1.15 2.5h.11l-.46.63 2.37.12-.39.43.08.14 1-.81-.15.69c.73.08.73.08.55-1l-.26.25-.07-.07.37-.6c-.69.2-.32-.33-.31-.66a5.55 5.55 0 0 1 -.7 0c-.17 0-.4 0-.48-.17-.21-.31-.25-.37-.49-.26l.63-1.4-.68.12zm27.37-3.59a1.33 1.33 0 0 0 -1.21.07c-.07.08-.17.22-.15.3.15.56-.22.33-.41.4s-.36.19-.35.25a5.29 5.29 0 0 0 .24.8 1.16 1.16 0 0 1 -.18.64c-.06.15-.18.4-.15.43a.85.85 0 0 0 .47.29.93.93 0 0 0 .49-.15 3.12 3.12 0 0 1 .75-.38c.52-.09.56-.49.53-1a4.14 4.14 0 0 0 -.03-.52c.41-.48.43-.8 0-1.13zm81.2-23.08a5.93 5.93 0 0 1 -1-.24c-.57-.26-.63-.27-.86.38-1.47-.9-1.64-.85-2 .69.48.26.8 1 1.53.36.3-.25.9 0 1.37 0 .15 0 .3-.15.55-.29.43.22.77-.07 1-.68a2.74 2.74 0 0 0 -.56-.22zm-65.61-5.06-.26-.38-.44.53-1-.44c-.09 0-.25-.06-.27 0-.21.44-.47.37-.76.13-.19.71 0 .82 1.28.92l-.46.16a13.17 13.17 0 0 0 2.16.55.65.65 0 0 0 .2 0 3.36 3.36 0 0 0 1.46-.88c.06 0 0-.46 0-.46-.63-.1-1.25-.16-1.88-.23zm54.28 65.44a.71.71 0 0 0 -.88.5 15.66 15.66 0 0 0 -.57 2.09c0 .12.06.4.12.41.45.12.31.47.26.79-.1.6-.05.65.49.47 0-1.66 0-1.66.22-1.72l.49 1.29.69-.4-.74-1.45.95-.79v-.14l-1.42.48a1.46 1.46 0 0 1 -.3-.38c-.14-.32-.08-.65.26-.68a5.88 5.88 0 0 1 1.39 0c.54.09.85-.13 1-.91-.6.89-1.3.6-1.96.44zm-121.07-57.31a3.56 3.56 0 0 0 .92 0 .37.37 0 0 0 .26-.17 2.51 2.51 0 0 0 0-1.58c-.08-.19-.48-.43-.55-.37-.35.32-.64 0-1 0h-.41l.7.79c-.5.07-.66-.79-1.17-.36l.31.65c-.62-.3-.91-1.2-1.68-1 .47 1.45 1.44 1.45 2.46 1.35l-.35.27c.22.16.36.39.51.42zm150.82 81.91-.21.31c-.09-.1-.22-.2-.25-.33-.14-.62-.32-1.18-1.06-1.21.18.33.34.6.49.89a3.56 3.56 0 0 1 .53 1.23 3.69 3.69 0 0 1 -.43 1.29c.15.1.49.21.61.47s-.06.6-.13 1.1c.26-.1.55-.11.65-.28a10.79 10.79 0 0 0 .55-1.3c0-.09.08-.23.13-.23.6 0 .53-.64.76-1.33-.83.51-1.44.55-1.64-.61zm-141.57-69.7c.49.13.93 1 1.66.22l-.71-.29a3.69 3.69 0 0 0 -.65-.66c-.43-.36-1.08-.4-1.17-1.19-.71.24-.87.66-.8 1.9l-.46.48.05.11.71-.09.24.69zm122.63 7.31a2.84 2.84 0 0 1 -.07.63c-.42.05-.25.43-.33.67-.17.53.15.93.19 1.38.08.94 0 1.9 0 2.86 0 .45 0 .89-.05 1.34h.15l.21-.56.67.38c-.23-.42-.37-.72-.54-1-.31-.5 0-.9.15-1.31 0-.14.39-.14.64-.21a5.37 5.37 0 0 1 -.21-.67 7.1 7.1 0 0 1 -.39-2.23 4.17 4.17 0 0 0 -.29-1.39zm-141.04-22.71a3.84 3.84 0 0 0 -.94.25 2.91 2.91 0 0 0 -.66.33c-.48.31-1 .65-1.43 1-.09.06-.2.25-.18.3a.53.53 0 0 0 .28.25c.33.11.72-.34 1 .16a1.81 1.81 0 0 0 .39-.27c.05 0 .06-.14.09-.21.37.22.36-.15.43-.4a4.16 4.16 0 0 1 .16-.5l.13.22.18.53.44-.24c.09 0 .22-.05.28-.12a1.71 1.71 0 0 0 .22-.45c.05-.18.06-.38.11-.7a1.62 1.62 0 0 0 -.5-.15zm122.46 66.13c.49.12 1 .15 1.5.24s.87.23 1.3.3 1.09.15 1.64.2c.06 0 .19-.08.18-.11s-.05-.26-.11-.28c-.36-.1-.73-.17-1.09-.26a2.12 2.12 0 0 1 -.34-.17l.73-.27-1.3-.17c-.25 0-.46-.19-.74.07s-.57.06-.85 0a15.56 15.56 0 0 1 -1.44-.61l-.36.66a4.25 4.25 0 0 0 .88.4zm17.58-33.8 1.55.31c.07-.81.83-.52 1.16-.84l-.19-.73c-.86.41-1.22-.68-1.83-1.08l-.19 1.77c-.71 0-.85.37-.65 1.43l.49-.36-.38-.35zm-121.79 16.61a9.21 9.21 0 0 1 .81-.45 1 1 0 0 1 .56-.07c.19 0 .35.24.54.31.41.15.85.23 1.25.42a4.56 4.56 0 0 1 .76.67l-.18.35 1.84-.15v-.18a6.6 6.6 0 0 0 -1.11-.59c-.61-.2-1-.76-1.7-.94a3.52 3.52 0 0 0 -2.07-.17 3.52 3.52 0 0 0 -.83.55zm-11.89-50.22a1.71 1.71 0 0 0 .59.17 1.83 1.83 0 0 1 1.89.51c.11.14.42.06.64 0a.39.39 0 0 0 .13-.27c-.16-.32-.29-.75-.54-.91a5 5 0 0 0 -1.27-.44s-.11 0-.13 0c-.35-.67-.89-.35-1.36-.35-.11 0-.21.15-.33.24l.56.42.26-.18.24.58h-.68zm111.24-1.15c.55-.12 1.1-.27 1.64-.4.31-.07.62-.09.91-.17s.4-.47.16-.62a8.7 8.7 0 0 0 -1.22-.56s-.11-.28-.14-.27a2 2 0 0 0 -.84.44 12.79 12.79 0 0 0 -1 1.59 2.09 2.09 0 0 0 .49-.01zm12.58 51.88c-.72-.13-.71-.13-.75.75a1.54 1.54 0 0 1 -.06.48 2 2 0 0 1 -.24.38 1.3 1.3 0 0 0 .12.5c.22.34.24.9.76 1a3.74 3.74 0 0 1 1 .29 2.82 2.82 0 0 1 .52.41c-.41-1-.59-1.18-1.34-1 0-.3-.19-.75-.08-.89a1.9 1.9 0 0 0 .33-1.71.62.62 0 0 1 0-.18c-.08-.06-.18-.01-.26-.03zm13.52 40.69a.81.81 0 0 0 .6.46.8.8 0 0 0 .68-.37 10.59 10.59 0 0 0 .24-1.65h-2a13.17 13.17 0 0 0 .48 1.56zm-12.43-33.81c.07 0 .27.16.26.2-.2.85.35.89.86 1.1l-.05-.68c.22-.13.45-.17.52-.32a2 2 0 0 0 -.47-1.54l-.79.82c-.22-.07-.43-.2-.5-.14-.28.27-.79.36-.71.91.29-.11.58-.25.88-.35zm-107.51-5.38v.22l.79.07c.28 0 .56.1.86.16a3.79 3.79 0 0 1 .74-.28 5.59 5.59 0 0 1 1-.08 2.72 2.72 0 0 0 -2.79-.88l.47.86zm50.99-53.62-.46.26.65.81-.31.59.89-.11c.06.41.06.41 1.2-.38a5.12 5.12 0 0 1 -1.23-.69c-.24-.23-.42-.48-.76-.46zm-55.19 7.83.4.32c.13.1.26.3.39.29.57 0 1.14-.1 1.71-.16-.38-.88-1.19-1.2-2.53-1v.54zm71.68-11c-.69-.55-.88-.51-1.43.13-.25-.13-.45-.33-.64-.32a13.12 13.12 0 0 0 -1.46.25c.57.68 1.12-.12 1.67.08l-.87.45c1.13.68 1.85-.61 2.73-.61zm16.32 61.76v1.32s.13.67.53.54.67-.34.54-.85a3 3 0 0 0 -1-1.63c-.02.26-.06.44-.07.62zm-12.38-61.9.06-.29-.63-.4.25-.42c-.58-.55-1 .29-1.51.3a1.66 1.66 0 0 0 .57.12c.36 0 .36 0 .31.35-1.28-.33-1.3-.33-1.57.36zm-85.31 4.23c.24.36.42.86.74 1s.75.08 1.25.08c-.1-.36-.12-.7-.23-.75a16.5 16.5 0 0 0 -1.59-.54zm125.08 40.44-.7.52.48 1.51c.12 0 .39-.06.44-.19a5.93 5.93 0 0 0 .3-1.26c0-.08-.19-.2-.29-.31l-.25-.29zm-122.81-35.1c.16 0 .47-.06.49-.15a1.24 1.24 0 0 0 -.11-.72.68.68 0 0 0 -1.06-.23 4.66 4.66 0 0 0 -.61.66c.51.18.9.35 1.29.44zm-9.67-3.38a1.65 1.65 0 0 0 1-.2c.17-.12.23-.51.38-.89l-1.9.28c-.12.68.22.79.52.81zm140.43.76a7.12 7.12 0 0 0 .93.36 1.28 1.28 0 0 0 1.42-.41l-2.48-.5c-.13.22-.22.42.13.55zm17.71 4.36c-.13.1-.19.3-.29.45l.12.1 2-.3c-.67-.74-1.23-.77-1.83-.25zm-30.68 40.9a5.71 5.71 0 0 0 .21-.93 1.69 1.69 0 0 0 0-.38c-.12 0-.28 0-.37.08a1.45 1.45 0 0 0 -.14 2 8 8 0 0 0 .3-.77zm-108.23-35a1.15 1.15 0 0 0 -.05.64c.26.1.59.24.79.12s.31-.55.49-.92c-.57-.28-.97-.36-1.23.13zm125.11 53.26a1.23 1.23 0 0 0 .17-.65c0-.06-.23-.13-.4-.23 0 .6-.28.82-.65.87a9.29 9.29 0 0 1 -1.23 0c.85.71 1.54.68 2.11.01zm-23.51-15.82c-.22.2-.43.49-.18.74a.64.64 0 0 0 .7 0c.22-.15.34-.51.6-.93a1.05 1.05 0 0 0 -1.12.19zm-54.86-12.88c0 .35.11.53.39.24a1 1 0 0 0 .3-.5 6 6 0 0 0 -.12-1l-.63.22c-.02.38.04.71.06 1.04zm62.43 18.87-.31.42.48.46.49-1.24h-.1l-.12.17-.92-.88v.9zm10.37-51.28a.8.8 0 0 0 -.7-.84c-.39-.13-.74 0-1 .57zm-161.47 19.05c.2.71.29.7 1.3-.2l-.27-.35.42-.26-.3-.24zm22.13-23.54h2.12c-.35-.8-1.42-.74-2.12 0zm129.55 69 2-1.32a1.61 1.61 0 0 0 -2 1.35zm4.28-28.8.09.26.11.24c.24-.23.41-.54.56-.52.56.06.53-.4.6-.8l-1.07.27zm-39.73-44.61c.27-.1.56-.2.83-.33.06 0 .09-.18.14-.28s-.17-.15-.26-.15a4.88 4.88 0 0 0 -1 .11c-.11 0-.19.23-.29.35a3.5 3.5 0 0 0 .35.23h.2zm1.24-.45c.41-.06.82-.11 1.22-.21.1 0 .17-.21.25-.32-.15-.09-.32-.28-.42-.24a7.2 7.2 0 0 0 -1.08.53zm30.21 72.55s-.1.22-.21.46l1.87-.16c-.6-.75-1.17-.06-1.66-.3zm-116.45-66.99a1.32 1.32 0 0 0 1.78 0zm118.43 67.39 2.76-.4v-.13l-2.78.19zm-38.67-58.23a1.89 1.89 0 0 0 -.72-.23.68.68 0 0 0 -.37.5c0 .35.25.41.49.29a5.58 5.58 0 0 0 .6-.39zm3.74-13.85a4 4 0 0 0 .81-.4c-.82-.3-1.44-.15-1.74.43a4.06 4.06 0 0 0 .93-.03zm-103 30.25-.1.15.84 1.33.1-.09-.19-1.31zm140.18 28.67.27 1h.16l-.06-.64h.28c-.13-1-.13-1-.73-.8l.39.64zm2.4 6.57-.48-.47c-.3.56-.2 1.48.21 1.68l-.14-.65h.33zm-.36 2.76v.32h1.51c-.1-.41-1.24-.73-1.51-.32zm19.94 10.77a1.64 1.64 0 0 0 1.48 1.26zm-134.56-57.43a2.09 2.09 0 0 0 -.71.14c-.13.06-.19.33-.28.51.17 0 .37.16.49.09a3.46 3.46 0 0 0 .58-.57zm-48.74.24a2.22 2.22 0 0 0 .32.14c.17.05.35.08.53.12l.77.13v-.24l-1.54-.39zm54.24 83.39a5.87 5.87 0 0 0 .36.59c.22.28.45.66.8.18l-.75-.72zm5.69-71.48-1.36-.56-.08.25 1.35.61zm38.61 5.69.17-1.24c-.66.44-.71.7-.17 1.24zm59 21.56 1.27-1.4-.13-.26-1.21 1.57zm-105.14-4.65-1.06-.22v.34l1.07.14zm58.6-12.42c.58.38.9.24 1.09-.39zm-52.12-7.65c.26-.09.65.51.8-.13l-1.15-.33.37.48zm72.19-27 .8-.2v-.22a2.21 2.21 0 0 0 -.65-.13c-.11 0-.2.25-.3.38zm22.52-1.84c.34.2.67.38 1-.33l-1 .11zm-151.11 17.78.9.19c-.18-.89-.56-.38-.88-.37zm26.66-18.24-.95.63c.64.43.8-.11 1-.49zm14.41-2.19v.32c.23.15.48.41.75-.2zm39.05-3.52.87-.24-.06-.32-.87.21zm-73.46 54.27.08 1 .63-.44zm98.63-11.7-1.38-.24v.24l1.39.21zm83.31 33.46c-.15-.09-.3-.26-.43-.25s-.28.2-.42.31l.06.19h.73zm-154.74-71.95-.79-.65-.09.15c.2.34.32.81.79.68zm47 1.92a1.08 1.08 0 0 0 -.42-.13s-.08.19-.12.29a1.64 1.64 0 0 0 .38.18 1.57 1.57 0 0 0 .45 0 1.68 1.68 0 0 0 -.33-.34zm-43.96-5.48c-.09-.16-.16-.39-.29-.44s-.33 0-.5.08v.19l.64.28zm120.32 56.74c0-.2.05-.47 0-.6s-.32-.15-.62-.27l.49.91zm-1.09 14 .91.36.07-.31-.94-.31zm19.24-2.92.57.89.2-.17-.62-.85zm-127.71-46.7v-.71c-.13 0-.37.08-.37.15a2.69 2.69 0 0 0 .08.61zm55.59 1.78a1.12 1.12 0 0 0 -.22-.16l-.34.88.13.06.64-.43a2.62 2.62 0 0 0 -.21-.35z" fill="url(#a)"/></svg>