<svg height="81.33" viewBox="0 0 81.33 81.33" width="81.33" xmlns="http://www.w3.org/2000/svg"><rect fill="#273c4d" height="57.79" rx="4.28" width="57.79" x="11.77" y="11.77"/><path d="m65.28 11.77h-49.23a4.28 4.28 0 0 0 -4.28 4.28v49.23a4.25 4.25 0 0 0 1.12 2.87l55.26-55.26a4.25 4.25 0 0 0 -2.87-1.12z" fill="#43809e" opacity=".5"/><path d="m0 25.68h9.63v4.32h-9.63zm0 8.56h9.63v4.29h-9.63zm0 25.69h9.63v4.28h-9.63zm0-8.56h9.63v4.28h-9.63zm0-8.56h9.63v4.28h-9.63zm70.88 8.56h10.45v4.28h-10.45zm0-8.56h10.45v4.28h-10.45zm0-25.69h10.45v4.28h-10.45zm0 17.12h10.45v4.29h-10.45zm0-8.56h10.45v4.32h-10.45zm-28.07-25.68h4.28v9.63h-4.28zm17.12 0h4.28v9.63h-4.28zm-8.56 0h4.28v9.63h-4.28zm-34.25 0h4.28v9.63h-4.28zm8.56 0h4.32v9.63h-4.32zm0 71.7h4.32v9.63h-4.32zm8.56 0h4.29v9.63h-4.29zm8.57 0h4.28v9.63h-4.28zm8.56 0h4.28v9.63h-4.28zm8.56 0h4.28v9.63h-4.28zm-59.93-54.58h9.63v4.28h-9.63zm70.88 42.81h10.45v4.28h-10.45zm-36.64-59.93h4.29v9.63h-4.29zm-17.12 71.7h4.28v9.63h-4.28z" fill="#43809e"/><path d="m22.47 22.47h36.39v36.39h-36.39z" fill="#78c400"/><path d="m58.86 58.86h-36.39l36.39-36.39z" fill="#4ca300"/><path d="m26.75 26.75h27.82v27.82h-27.82z" fill="#93e019"/></svg>