<svg height="11.23cm" viewBox="0 0 368.2 318.33" width="12.99cm" xmlns="http://www.w3.org/2000/svg"><g fill="#fff"><path d="m43.49 285.51h13v25c-6.78 5.1-16.11 7.83-24.91 7.83-19.32-.01-31.58-13.34-31.58-31.87s12.26-31.85 31.88-31.85c10.82 0 19.8 3.7 25.78 10.65l-9.15 8.45a20.83 20.83 0 0 0 -15.93-7c-12 0-18.15 8-18.15 19.71 0 11.53 6.19 19.72 18 19.72a22.65 22.65 0 0 0 11.08-2.64z"/><path d="m94 269.67-17.8 47.6h-14.58l25.46-61.59h14.08l25.54 61.59h-15z"/><path d="m185.18 317.27-.09-37-16.09 30.49h-6.43l-16-29.65v36.16h-13.44v-61.59h11.79l21.08 38.32 20.71-38.27h11.7l.18 61.59z"/><path d="m296.2 295.45v21.82h-14.2v-22l-21.9-39.59h15.13l14.46 27.32 14.45-27.36h14z"/><path d="m337.68 305.83v-14.25h29.38v-11.09h-29.38-14.17v36.78h44.69v-11.44z"/><path d="m367.06 267.12v-11.44h-43.55v11.44h14.17z"/><path d="m227.37 305.83v-14.25h29.38v-11.09h-29.38-14.17v36.78h44.7v-11.44z"/><path d="m256.75 267.12v-11.44h-43.55v11.44h14.17z"/><path d="m279 87.64-17-12.5a99.35 99.35 0 0 0 -8.52-34c-5.73-12.49-15.29-25.31-31.24-32.45a87.89 87.89 0 0 0 -76.21 0c-38.06 17-39.76 66.45-39.76 66.45l-17 12.5-1.67 49.3-.6 17.72 18.74 8s4.51 17.77 11.34 28.2 36.81 22.14 67.02 22.14 60.21-11.75 67-22.18 11.34-28.2 11.34-28.2l18.74-8zm-69.61 94.36c-4.39.05-3.68-1.38-3.68-3.4v-24.09h-43.42v24.06c0 1.18.69 3.45-3 3.45-37.69-2.32-36.07-48.53-36.07-48.53v-61.91c0-43.16 34.9-53.93 34.64-53.93 0 0 13.63-5.11 26-4.54 12.61-.57 26.24 4.54 26.24 4.54a53.35 53.35 0 0 1 30.64 30.78 64.57 64.57 0 0 1 4 23.15v61.91s1.63 45.64-35.35 48.51z"/></g></svg>