<svg height="88.43" viewBox="0 0 75.6 88.43" width="75.6" xmlns="http://www.w3.org/2000/svg"><path d="m75.41 13.67-.22-3.62h-3.62c-5.57-.05-20.57-2.77-31.89-9.05l-1.88-1-1.88 1c-11.31 6.28-26.35 9-31.92 9h-3.63l-.18 3.67a88 88 0 0 0 2.29 26.54c4.86 21.41 16.1 37.26 33.4 47.12l1.92 1.1 1.93-1.1c17.27-9.86 28.53-25.71 33.4-47.13a88.18 88.18 0 0 0 2.28-26.53z" fill="#43809e" opacity=".6"/><path d="m37.8 84v-79.56c11.72 6.47 27.47 9.41 33.73 9.46a84.52 84.52 0 0 1 -2.2 25.45c-4.62 20.34-15.24 35.32-31.53 44.65z" fill="#73af00"/><path d="m6.27 39.35a84.52 84.52 0 0 1 -2.2-25.45c6.26-.05 22-3 33.73-9.46v79.56c-16.29-9.33-26.91-24.31-31.53-44.65z" fill="#93e019"/></svg>