<svg enable-background="new 0 0 188 140.1" viewBox="0 0 188 140.1" xmlns="http://www.w3.org/2000/svg" xmlns:xlink="http://www.w3.org/1999/xlink"><clipPath id="a"><path d="m-17.8 0h205.7v147.5h-205.7z"/></clipPath><linearGradient id="b"><stop offset=".01" stop-color="#80b1c9"/><stop offset="1" stop-color="#028bbc"/></linearGradient><linearGradient id="c" gradientTransform="matrix(1 0 0 -1 0 78.66)" gradientUnits="userSpaceOnUse" x1="21.294" x2="113.085" xlink:href="#b" y1="42.651" y2="-49.13"/><linearGradient id="d" gradientTransform="matrix(1 0 0 -1 0 78.66)" gradientUnits="userSpaceOnUse" x1="32.293" x2="102.087" xlink:href="#b" y1="31.662" y2="-38.142"/><linearGradient id="e" gradientTransform="matrix(1 0 0 -1 0 78.66)" gradientUnits="userSpaceOnUse" x1="44.341" x2="90.039" xlink:href="#b" y1="19.609" y2="-26.089"/><linearGradient id="f"><stop offset=".13" stop-color="#b4e95e"/><stop offset=".55" stop-color="#62c87a"/></linearGradient><linearGradient id="g" gradientTransform="matrix(1 0 0 -1 0 78.66)" gradientUnits="userSpaceOnUse" x1="99.315" x2="233.705" xlink:href="#f" y1="-3.24" y2="-3.24"/><linearGradient id="h" gradientTransform="matrix(1 0 0 -1 0 78.66)" gradientUnits="userSpaceOnUse" x1="115.415" x2="217.605" xlink:href="#f" y1="-3.24" y2="-3.24"/><linearGradient id="i" gradientTransform="matrix(1 0 0 -1 0 78.66)" gradientUnits="userSpaceOnUse" x1="133.055" x2="199.965" xlink:href="#f" y1="-3.24" y2="-3.24"/><g clip-path="url(#a)" fill="none" stroke-miterlimit="10" stroke-width="2"><path d="m34.2 139.1h66l33-57.2-33-57.2h-66l-33 57.2z" stroke="url(#c)"/><path d="m42.2 125.2h50l24.9-43.3-24.9-43.2h-50l-25 43.2z" stroke="url(#d)"/><path d="m51 109.9h32.3l16.2-28-16.2-28h-32.3l-16.1 28z" stroke="url(#e)"/><path d="m133.5 139.1h66l33.1-57.2-33.1-57.2h-66l-33 57.2z" stroke="url(#g)"/><path d="m141.5 125.2h50l24.9-43.3-24.9-43.2h-50l-24.9 43.2z" stroke="url(#h)"/><path d="m150.4 109.9h32.3l16.1-28-16.1-28h-32.3l-16.2 28z" stroke="url(#i)"/><g stroke="#fff"><path d="m82 51.7h66l33.1-57.2-33.1-57.2h-66l-33 57.2z" opacity=".6"/><path d="m90 37.8h50l24.9-43.3-24.9-43.2h-50l-24.9 43.2z" opacity=".6"/><path d="m98.9 22.5h32.3l16.1-28-16.1-27.9h-32.3l-16.2 27.9z" opacity=".6"/></g></g></svg>