<svg version="1.1" id="Layer_1" xmlns="http://www.w3.org/2000/svg" xmlns:xlink="http://www.w3.org/1999/xlink" x="0" y="0" viewBox="0 0 70 56" xml:space="preserve" enable-background="new 0 0 70 56"><style type="text/css">.st0{fill:#fff}</style><path class="st0" d="M1.4,11.5c0.8,1,2,1.8,3.4,1.8c1.3,0,2.4-0.8,2.4-2.1c0-2.1-2.9-2.4-4.8-3.6C1.4,6.9,0.6,6,0.6,4.5	c0-2,1.8-3.7,4.2-3.7c1.8,0,3,0.8,3.7,1.4L7.4,3.7c-0.8-0.6-1.6-1-2.5-1c-1.2,0-2.3,0.7-2.3,1.9c0,1.8,3,2.1,4.7,3.3	c0.9,0.6,1.8,1.6,1.8,3.2c0,2.4-1.9,4-4.3,4C3,15.2,1.2,14.4,0,12.9L1.4,11.5z M18.6,12h-1.4l-4.1-6.4V15h-2V1.1h1.4l5.4,8.5	l5.4-8.5h1.4V15h-2V5.6L18.6,12z M35.3,11.4h-5.9L28,15h-2.1l5.8-13.9h1.4L38.9,15h-2.1L35.3,11.4z M30.2,9.5h4.3l-2.1-5.2	C32.4,4.3,30.2,9.5,30.2,9.5z M42.1,8.4V15h-2V1.1H45c1.3,0,2.1,0.3,2.7,0.8C48.5,2.6,49,3.6,49,4.8S48.5,7,47.6,7.7	c-0.4,0.4-0.9,0.6-1.6,0.7l5,6.6h-2.4l-4.9-6.6C43.7,8.4,42.1,8.4,42.1,8.4z M44.9,6.6c0.9,0,1.3-0.2,1.7-0.5	c0.3-0.3,0.5-0.8,0.5-1.3s-0.2-1-0.5-1.3S45.8,3,44.9,3h-2.8v3.6H44.9z M50.5,1.1H60V3h-3.8v12h-2V3h-3.8C50.4,3,50.5,1.1,50.5,1.1z M8.6,32H7.2l-4.1-6.4V35h-2V21.1h1.4l5.4,8.5l5.4-8.5h1.4V35h-2v-9.4L8.6,32z M23.5,20.9c3.9,0,6.9,3.1,6.9,7.1	c0,4.1-3,7.1-6.9,7.1S16.6,32,16.6,28C16.6,23.9,19.6,20.9,23.5,20.9z M23.5,33.3c2.8,0,5-2.2,5-5.3c0-3-2.1-5.3-5-5.3	c-2.8,0-5,2.3-5,5.3C18.6,31,20.7,33.3,23.5,33.3z M32.3,34.9V21.1H37c1.3,0,2.2,0.4,2.9,1c0.7,0.7,1.2,1.6,1.2,2.6	s-0.4,1.9-1.1,2.5c1.3,0.7,2.3,2.1,2.3,3.7c0,1.3-0.6,2.5-1.5,3.2c-0.7,0.6-1.6,0.9-3,0.9h-5.5C32.3,35,32.3,34.9,32.3,34.9z M36.7,26.5c1.1,0,1.6-0.2,1.9-0.6c0.3-0.3,0.5-0.7,0.5-1.2s-0.2-0.9-0.5-1.2c-0.3-0.4-0.8-0.6-1.9-0.6h-2.4v3.6	C34.3,26.5,36.7,26.5,36.7,26.5z M37.3,33.1c1.3,0,1.8-0.3,2.3-0.7c0.4-0.4,0.7-1,0.7-1.6s-0.3-1.2-0.7-1.6s-1-0.7-2.3-0.7h-3v4.7	L37.3,33.1z M44.4,21.1h2V35h-2C44.4,35,44.4,21.1,44.4,21.1z M51.5,33.1h6.2V35h-8.1V21.1h2C51.6,21.1,51.5,33.1,51.5,33.1z M66.4,26.5v1.9h-4.6v4.7H68V35h-8.1V21.1h7.9V23h-6v3.6h4.6C66.4,26.6,66.4,26.5,66.4,26.5z M3.2,53.1h6.2V55H1.2V41.1h2V53.1z M19.6,51.4h-5.9L12.3,55h-2.1L16,41.1h1.4L23.2,55h-2.1C21.1,55,19.6,51.4,19.6,51.4z M14.5,49.5h4.3l-2.1-5.2	C16.7,44.3,14.5,49.5,14.5,49.5z M24.2,55V41.1h4.7c1.3,0,2.2,0.4,2.9,1c0.7,0.7,1.2,1.6,1.2,2.6s-0.4,1.9-1.1,2.5	c1.3,0.7,2.3,2.1,2.3,3.7c0,1.3-0.6,2.5-1.5,3.2c-0.7,0.6-1.6,0.9-3,0.9C29.7,55,24.2,55,24.2,55z M28.6,46.6c1.1,0,1.6-0.2,1.9-0.6	c0.3-0.3,0.5-0.7,0.5-1.2s-0.2-0.9-0.5-1.2c-0.3-0.4-0.8-0.6-1.9-0.6h-2.4v3.6H28.6z M29.2,53.1c1.3,0,1.8-0.3,2.3-0.7	c0.4-0.4,0.7-1,0.7-1.6s-0.3-1.2-0.7-1.6c-0.4-0.4-1-0.7-2.3-0.7h-3v4.7h3C29.2,53.2,29.2,53.1,29.2,53.1z M36.5,51.5	c0.8,1,2,1.8,3.4,1.8c1.3,0,2.4-0.8,2.4-2.1c0-2.1-2.9-2.4-4.8-3.6c-1-0.7-1.8-1.6-1.8-3.1c0-2,1.8-3.7,4.2-3.7c1.8,0,3,0.8,3.7,1.4	l-1.2,1.4c-0.8-0.6-1.6-1-2.5-1c-1.2,0-2.3,0.7-2.3,1.9c0,1.8,3,2.1,4.7,3.3c0.9,0.6,1.8,1.6,1.8,3.2c0,2.4-1.9,4-4.3,4	c-1.9,0-3.6-0.8-4.9-2.3C34.9,52.7,36.5,51.5,36.5,51.5z"/></svg>