<svg height="13.8" viewBox="0 0 13.8 13.8" width="13.8" xmlns="http://www.w3.org/2000/svg"><path d="m0 6.89a6.9 6.9 0 1 1 6.89 6.91 6.91 6.91 0 0 1 -6.89-6.91zm6.86-.13v1.78.3a.28.28 0 0 0 .2.25.62.62 0 0 0 .19 0h3.59a1.74 1.74 0 0 0 .69-.09 1.45 1.45 0 0 0 1-1.24 1.48 1.48 0 0 0 -1.66-1.63c-.07 0-.17 0-.21 0s0-.14-.08-.21a2.46 2.46 0 0 0 -2.19-1.72 2.28 2.28 0 0 0 -1.26.19.42.42 0 0 0 -.27.43zm-.86.54v.1a12.51 12.51 0 0 0 .16 1.6.14.14 0 0 0 .15.12.13.13 0 0 0 .13-.12c0-.28.09-.57.12-.85a5 5 0 0 0 .05-.86c0-.72-.11-1.45-.17-2.17-.01-.12-.05-.12-.14-.12s-.13.06-.14.18c-.05.67-.11 1.39-.16 2.12zm-.94.18c-.06-.68-.13-1.37-.19-2.05a.14.14 0 0 0 0-.09.2.2 0 0 0 -.12-.06.25.25 0 0 0 -.1.08.8.8 0 0 0 0 .15c0 .29 0 .58-.08.87a9.58 9.58 0 0 0 .03 2.62.2.2 0 0 0 .08.12c.07.05.17 0 .19-.11s0-.33.07-.49zm.15 0c.06.47.11 1 .17 1.48 0 .1.07.16.14.16s.13-.06.14-.17c0-.26.08-.52.1-.78a4.38 4.38 0 0 0 .06-.8c0-.6-.11-1.19-.16-1.78 0-.08 0-.15-.14-.15s-.12.06-.14.14 0 .17 0 .26c-.07.55-.12 1.09-.17 1.66zm-1.52-.31a11 11 0 0 0 .14 1.83.15.15 0 0 0 .17.14c.09 0 .12-.08.13-.16s.06-.39.08-.59a5.17 5.17 0 0 0 .08-1.18l-.14-1.14c0-.13 0-.25-.05-.38a.11.11 0 0 0 -.1-.11c-.07 0-.11 0-.13.11a.13.13 0 0 0 0 .06c-.09.52-.14 1.04-.18 1.42zm-1.54.27c.05.5.1 1 .15 1.41 0 .08.05.13.13.13s.11-.06.12-.13c.05-.36.08-.72.14-1.08a4.71 4.71 0 0 0 -.14-1.45.11.11 0 0 0 -.12-.11.12.12 0 0 0 -.13.11v.33c-.09.28-.12.56-.15.79zm.78.21.14 1.35a.14.14 0 0 0 0 .07s.07.07.11.07a.15.15 0 0 0 .1-.08.31.31 0 0 0 0-.13c0-.37.1-.73.13-1.09a3.32 3.32 0 0 0 0-.63 3.38 3.38 0 0 0 -.09-.54.56.56 0 0 0 -.06-.21.19.19 0 0 0 -.12-.07.15.15 0 0 0 -.1.09 5 5 0 0 0 -.11 1.17zm-1.48-.2c0 .27.06.51.09.76 0 .09 0 .19.06.29s.06.09.09.09.08-.06.11-.09a.17.17 0 0 0 0-.07c0-.2.08-.4.1-.6a1.71 1.71 0 0 0 0-.45 4.67 4.67 0 0 0 -.13-.65.17.17 0 0 0 -.12-.11s-.09.06-.1.1c-.02.28-.06.5-.1.73z" fill="#78c400"/></svg>