<svg height="11.22" viewBox="0 0 13.8 11.22" width="13.8" xmlns="http://www.w3.org/2000/svg"><path d="m13.8 1.33a6.31 6.31 0 0 1 -1.64.45 2.66 2.66 0 0 0 1.22-1.58 5.55 5.55 0 0 1 -1.77.7 2.81 2.81 0 0 0 -4.87 1.94 2.88 2.88 0 0 0 .07.65 8.09 8.09 0 0 1 -5.87-2.98 3 3 0 0 0 -.37 1.43 2.79 2.79 0 0 0 1.25 2.35 2.47 2.47 0 0 1 -1.27-.35v.06a2.86 2.86 0 0 0 2.26 2.8 2.55 2.55 0 0 1 -.74.09 3 3 0 0 1 -.53-.05 2.77 2.77 0 0 0 2.64 1.89 5.73 5.73 0 0 1 -3.52 1.27c-.22 0-.46 0-.66 0a8 8 0 0 0 4.33 1.25 8 8 0 0 0 8.06-8v-.45a6 6 0 0 0 1.41-1.47z" fill="#78c400"/></svg>