<svg enable-background="new 0 0 551 146" viewBox="0 0 551 146" xmlns="http://www.w3.org/2000/svg"><g fill="#fff"><path d="m129.5 35.6c-25.3-25.3-66.3-25.3-91.6 0-19.4 19.4-23.9 48-13.5 71.7l6.6-6.6c-7.3-19.9-3-43.1 13-59.1 21.9-21.9 57.6-21.9 79.5 0s21.9 57.6 0 79.5c-16 16-39.2 20.3-59.2 13l47.7-47.7c5.5-5.5 5.6-14.2 0-19.7-5.4-5.4-14.4-5.3-19.9.3l-24.2 24.1c-2.2 2.2-5.6 2.2-7.8.1-2.1-2.1-2-5.4.2-7.6l42.1-42.1-6.1-6.1-42 42.1c-5.6 5.6-5.7 14.3-.2 19.8s14.4 5.4 19.9-.1l24.2-24.2c2.2-2.2 5.7-2.3 7.8-.3 2.2 2.2 2.1 5.4 0 7.6l-56.2 56.2c2.6 1.6 5.2 3 7.9 4.2 23.7 10.4 52.4 5.9 71.8-13.5 25.3-25.3 25.3-66.4 0-91.6z"/><path d="m190.2 91.4c2.3 4.4 6.1 6.7 11.2 6.7 5.2 0 8.7-2.5 8.7-6.5 0-4.7-3.5-6.3-7.9-8.2l-3.4-1.5c-7.3-3.2-12.2-7-12.2-14.7 0-7.6 5.6-12.9 13.8-12.9 6.3 0 11 2.5 14.1 7.8l-5.9 3.9c-1.9-3.2-4.4-4.8-8.1-4.8-4 0-6.3 2.3-6.3 5.8 0 3.9 2.4 5.5 7.8 7.9l3.4 1.5c7.5 3.3 12.4 6.8 12.4 15.1 0 9.1-7 13.7-16.4 13.7-8.4 0-14.5-4.1-17.8-10.4z"/><path d="m246.1 104.4h-7.9l21.7-50.5h.4l21.8 50.5h-8.2l-2.8-6.9h-22.1zm14-33.4-8.2 19.6h16.3s-8.1-19.6-8.1-19.6z"/><path d="m293.2 54.9h8.2l14.1 33.3 13.7-33.3h7.9l-21.4 50.2h-.4z"/><path d="m356 104.4h-7.9l21.7-50.5h.4l21.8 50.5h-8.2l-2.8-6.9s-22 0-22.1 0zm14-33.4-8.2 19.6h16.2c.1 0-8-19.6-8-19.6z"/><path d="m449.6 104.4h-9.2l-8.4-12c-1.1.1-2.3.2-3.6.2h-4.9v11.8h-7.8v-49.5h12.7c13.6 0 21.1 7.5 21.1 18.9 0 7.6-3.4 13.5-9.9 16.5zm-21.6-18.5c9.5 0 13.4-4.5 13.4-12.1 0-7.5-3.9-12-13.4-12h-4.6v24.1z"/><path d="m475.3 54.9h7.8v49.5h-7.8z"/><path d="m504.1 54.9c0-4 3.2-7 7-7 3.9 0 7.1 2.9 7.1 7 0 4-3.2 6.9-7.1 6.9-3.8.1-7-2.9-7-6.9zm12.8 0c0-3.5-2.4-5.8-5.8-5.8-3.3 0-5.7 2.4-5.7 5.8s2.4 5.7 5.7 5.7c3.4 0 5.8-2.3 5.8-5.7zm-2.5 3.9h-1.8l-1.3-1.9c-.1 0-.2 0-.3 0h-.8v1.9h-1.6v-7.9h2.5c2.4 0 3.5 1.4 3.5 3 0 1.2-.6 2.1-1.6 2.6zm-3.5-3.2c1.3 0 1.9-.6 1.9-1.6s-.5-1.7-1.9-1.7h-.8v3.3z"/></g></svg>