<svg version="1.1" id="Layer_1" xmlns="http://www.w3.org/2000/svg" xmlns:xlink="http://www.w3.org/1999/xlink" x="0" y="0" viewBox="0 0 500 123.7" xml:space="preserve" enable-background="new 0 0 500 123.7"><style type="text/css">.st0{fill:#fff}</style><path class="st0" d="M247,70.6c-0.7-8.4,2.6-19.3-4.5-25.6c-5.8-3.6-15.3-4.1-20.4,1c-4.4,5.4,8.4,8.7,3.1,19.1c-2,4-6.7,5.8-11,5.7	c-11-0.5-14.3-12-9.6-20.6c10.2-15.9,35.1-16,51.3-10.6c9.9,2.8,15.6,12.5,15.5,22.5c0.5,15.1,0.2,30.2,0.2,45.4	c-0.4,4.3,4.4,5.7,6.6,2.3c0.9-1.1,1.2,0.5,1.9,1.1c0.5,0.9,2.1,1.9,1.2,3c-7,9-24.8,14.9-32.2,3.5c-3.9-8.6-0.4-6-7.9-1.3	c-7.4,5-16.5,8.5-25.5,7.2c-7.3-1.5-15.1-6.5-16-14.4c-1.4-8.6,1.1-17.7,8.9-22.4C220.4,78.8,233.7,74.5,247,70.6z M246.6,76.8	c-7.6,2.8-16.2,6.4-19.7,14.4c-6.1,14.1,6.1,26.7,17.9,13.8c0.7-1.1,2.1-1.6,1.9-3C246.6,93.6,246.8,85.2,246.6,76.8z M65.9,79.7	C64.6,48.1,96.8,25.6,125.3,41c29,16.4,27.6,65.6-3.1,79.4c-28.8,12-57.1-10.2-56.4-40.6C65.8,79.7,65.9,79.7,65.9,79.7z M119.8,80.1L119.8,80.1c-0.5-11.8,2-41.6-16.8-37.5C90.5,47.4,93.2,66.1,92.1,77c-0.2,5.9,0.6,11.8,0.8,17.8	c0.5,6.3,0.7,13.1,4.5,18.4c4.2,6.1,14.4,5.7,18.2-0.6C120.3,102.7,119.6,90.9,119.8,80.1z M431.8,77c-15.1,0-30.1,0-45.2,0	c-0.2,17.5,9.2,40.6,30.4,30.9c4.2-2.1,7.3-5.6,10.6-8.8c1.2-1.9,2.5,0.5,3.8,1c1.3,0.6,1.5,0.6,0.4,2.1	c-12.5,21.4-39,28.8-58.3,11.5c-14.8-12.1-15.4-40.6-8-56.9c8.5-18.3,33.3-26.8,50.4-15.4C427.9,49.2,431.4,63.7,431.8,77z M397.8,70.2C414,69.9,409.3,73.4,409,56c-1.1-5.5-2.1-13.2-9.1-13.7c-8.8-1.3-12,7.2-12.6,14.4C386,72.7,381.8,70,397.8,70.2z M183.7,0c-10.8,0-21.5,0-32.3,0c-1-0.5-0.9,4.4-0.1,4.5c2.5,1.1,6.1,1.4,7.3,4.2c2.1,31.9,0.1,64.3,0.7,96.4	c0.2,6.5-1.2,9.4-7.8,10.9c-1.4,0.5-0.5,2.4-0.8,3.6c0,1.1,0.3,1.4,1.4,1.4c13.7,0,27.5,0,41.2,0c0.5-8.7-1.5-2.6-7.1-8.2	c-4.1-36.9-0.3-75.3-1.5-112.7C184.4,0,184,0,183.7,0z M310.1,72.1c0.5-8.8,0.8-18.4,6.2-25.8c3.9-5.7,15.7-6.2,16.1,2.4	c0.3,5.1-1.3,11,2.4,15.2c3.5,4.2,10,4.7,14.5,1.8c7.5-4.6,6.8-15.8,0.5-21.2c-10.1-10-26.5-10.1-39.2-5.5	C298,43.9,289.2,56,286,68.9c-7.3,28.3,13,60,44.3,53.9c10.7-1.8,19.8-8.8,26.1-17.4c0.6-0.7,0.9-1.1-0.1-1.8	c-5.3-6.9-4.8,8.5-23,7.3c-17.9-1.4-23.3-23.8-23-38.8C310.2,72.1,310.1,72.1,310.1,72.1z M0,94.9c0,9.3,0,18.7,0,28	c-0.5,1.2,4.6,0.8,4.6,0.1c3.2-8.7,9.2-2.6,15.3-1.5c11.3,3.6,25.9,2.6,33.6-7.5c10.7-11.6,8-31.9-6-39.6	c-8.1-5.1-17.7-7.8-25.2-13.8C6.4,44.3,41.7,29.2,51.4,62.7c1.5,0,3,0,4.7,0c0-8.4,0-16.8,0-25.3c0.1-1.6-2.3-0.6-3.3-0.8	c-0.7,0-1.1,0.2-1.3,0.9c-2.8,6-10.4,0.2-15.1-0.2c-10.1-2-22.6-1.1-29.6,7.4C-0.5,51.8-1.7,64,2.7,73c2.9,6.1,8.9,9.8,14.5,13.2	c7.7,4.7,17.7,6.6,23.6,13.7c9.9,23.8-31.8,23.4-35.7-6.3c-1.6,0-3.3,0-5.1,0C0,94.1,0,94.5,0,94.9z M475.9,122.9	C498,119,507.5,91.4,493,74.4c-14.8-17.9-44.8-11.9-51.3,10.5C434.8,105.2,454.8,128.2,475.9,122.9z"/></svg>