<svg id="Layer_1" data-name="Layer 1" xmlns="http://www.w3.org/2000/svg" width="644" height="123.7" viewBox="0 0 644 123.7"><defs><style>.cls-1{fill:#fff}</style></defs><path class="cls-1" d="M319,70.6c-.7-8.4,2.6-19.3-4.5-25.6-5.8-3.6-15.3-4.1-20.4,1-4.4,5.4,8.4,8.7,3.1,19.1-2,4-6.7,5.8-11,5.7-11-.5-14.3-12-9.6-20.6,10.2-15.9,35.1-16,51.3-10.6,9.9,2.8,15.6,12.5,15.5,22.5.5,15.1.2,30.2.2,45.4-.4,4.3,4.4,5.7,6.6,2.3.9-1.1,1.2.5,1.9,1.1.5.9,2.1,1.9,1.2,3-7,9-24.8,14.9-32.2,3.5-3.9-8.6-.4-6-7.9-1.3-7.4,5-16.5,8.5-25.5,7.2-7.3-1.5-15.1-6.5-16-14.4-1.4-8.6,1.1-17.7,8.9-22.4C292.4,78.8,305.7,74.5,319,70.6Zm-.4,6.2c-7.6,2.8-16.2,6.4-19.7,14.4-6.1,14.1,6.1,26.7,17.9,13.8.7-1.1,2.1-1.6,1.9-3C318.6,93.6,318.8,85.2,318.6,76.8ZM137.9,79.7c-1.3-31.6,30.9-54.1,59.4-38.7,29,16.4,27.6,65.6-3.1,79.4-28.8,12-57.1-10.2-56.4-40.6A.1.1,0,0,1,137.9,79.7Zm53.9.4h0c-.5-11.8,2-41.6-16.8-37.5-12.5,4.8-9.8,23.5-10.9,34.4-.2,5.9.6,11.8.8,17.8.5,6.3.7,13.1,4.5,18.4,4.2,6.1,14.4,5.7,18.2-.6C192.3,102.7,191.6,90.9,191.8,80.1Zm312-3.1H458.6c-.2,17.5,9.2,40.6,30.4,30.9,4.2-2.1,7.3-5.6,10.6-8.8,1.2-1.9,2.5.5,3.8,1s1.5.6.4,2.1c-12.5,21.4-39,28.8-58.3,11.5-14.8-12.1-15.4-40.6-8-56.9C446,38.5,470.8,30,487.9,41.4,499.9,49.2,503.4,63.7,503.8,77Zm-34-6.8C486,69.9,481.3,73.4,481,56c-1.1-5.5-2.1-13.2-9.1-13.7-8.8-1.3-12,7.2-12.6,14.4C458,72.7,453.8,70,469.8,70.2ZM255.7,0H223.4c-1-.5-.9,4.4-.1,4.5,2.5,1.1,6.1,1.4,7.3,4.2,2.1,31.9.1,64.3.7,96.4.2,6.5-1.2,9.4-7.8,10.9-1.4.5-.5,2.4-.8,3.6,0,1.1.3,1.4,1.4,1.4h41.2c.5-8.7-1.5-2.6-7.1-8.2-4.1-36.9-.3-75.3-1.5-112.7A3.4,3.4,0,0,0,255.7,0ZM382.1,72.1c.5-8.8.8-18.4,6.2-25.8,3.9-5.7,15.7-6.2,16.1,2.4.3,5.1-1.3,11,2.4,15.2,3.5,4.2,10,4.7,14.5,1.8,7.5-4.6,6.8-15.8.5-21.2-10.1-10-26.5-10.1-39.2-5.5C370,43.9,361.2,56,358,68.9c-7.3,28.3,13,60,44.3,53.9,10.7-1.8,19.8-8.8,26.1-17.4.6-.7.9-1.1-.1-1.8-5.3-6.9-4.8,8.5-23,7.3-17.9-1.4-23.3-23.8-23-38.8ZM72,94.9v28c-.5,1.2,4.6.8,4.6.1,3.2-8.7,9.2-2.6,15.3-1.5,11.3,3.6,25.9,2.6,33.6-7.5,10.7-11.6,8-31.9-6-39.6-8.1-5.1-17.7-7.8-25.2-13.8-15.9-16.3,19.4-31.4,29.1,2.1h4.7V37.4c.1-1.6-2.3-.6-3.3-.8a1.13,1.13,0,0,0-1.3.9c-2.8,6-10.4.2-15.1-.2-10.1-2-22.6-1.1-29.6,7.4C71.5,51.8,70.3,64,74.7,73c2.9,6.1,8.9,9.8,14.5,13.2,7.7,4.7,17.7,6.6,23.6,13.7,9.9,23.8-31.8,23.4-35.7-6.3H72Zm475.9,28C570,119,579.5,91.4,565,74.4c-14.8-17.9-44.8-11.9-51.3,10.5C506.8,105.2,526.8,128.2,547.9,122.9Z"/></svg>