<svg height="53.83" viewBox="0 0 339.05 53.83" width="339.05" xmlns="http://www.w3.org/2000/svg"><g fill="#fff"><path d="m105.84 39.74a18.84 18.84 0 0 1 13.74-31.68 18.58 18.58 0 0 1 13 5.09l3.67-7.46a26.88 26.88 0 1 0 .11 42.44l-3.85-7.44a18.85 18.85 0 0 1 -26.67-.95z"/><path d="m62 39.73a18.84 18.84 0 0 1 13.66-31.67 18.6 18.6 0 0 1 13 5.09l3.72-7.46a26.88 26.88 0 1 0 .12 42.44l-3.84-7.44a18.84 18.84 0 0 1 -26.66-.96z"/><path d="m225.81 0h7.95v53.75h-7.95z"/><path d="m21.87.05 21.91 53.72h8.08l-21.92-53.72z"/><path d="m0 53.77h8.01l13.77-34.07-4-9.81z"/><path d="m259.78.04 21.92 53.73h8.07l-21.92-53.73z"/><path d="m238.02 53.77h7.99l13.79-34.09-4.01-9.79z"/><path d="m141.06 53.77h35.34v-8.12h-27.28v-14.79h19.67l.02-7.96-19.69.01v-14.87h27.28v-8h-35.34z"/><path d="m331.1.09v33.57l-.98-.87-35.82-32.7v.73 52.95h7.94v-33.84l.97.88 35.84 32.96v-53.68z"/><path d="m212.85 8.28a27.25 27.25 0 0 0 -8.49-5.75 26.06 26.06 0 0 0 -10.36-2.46h-12.7v8.24h12.77a19.31 19.31 0 0 1 7.24 1.4 19.88 19.88 0 0 1 6 4.1 19.4 19.4 0 0 1 4.07 6 18.46 18.46 0 0 1 0 14.51 20.34 20.34 0 0 1 -4 6 18.52 18.52 0 0 1 -6 4.08 19.3 19.3 0 0 1 -7.38 1.38h-12.7v8h12.7a25.53 25.53 0 0 0 10.34-2.13 27.55 27.55 0 0 0 8.56-5.75 29.11 29.11 0 0 0 5.74-8.56 25.08 25.08 0 0 0 2.06-10.25 25 25 0 0 0 -2.06-10.24 28.16 28.16 0 0 0 -5.79-8.57z"/></g></svg>