<svg xmlns="http://www.w3.org/2000/svg" width="420.83" height="42.51" viewBox="0 0 420.83 42.51"><defs><style>.cls-1{fill:#fff}</style></defs><title>solutions-logo-stratacache</title><g id="Layer_2" data-name="Layer 2"><g id="design"><path class="cls-1" d="M108.48,41.08c2.68-3.9,5.18-7.57,7.7-11.21,2.4-3.46,4.84-6.89,7.24-10.34q2.76-4,5.49-7.94c2.33-3.42,4.61-6.87,7-10.25A2.58,2.58,0,0,1,137.73.5c2.89-.08,5.78,0,8.67,0,.95,0,1.33.41,1.46,1.32.79,5.49,1.61,11,2.42,16.46.35,2.35.71,4.69,1.08,7,.71,4.61,1.41,9.21,2.15,13.81a24.27,24.27,0,0,0,.65,2.42h-9.72c-2.66,0-2.82-.14-3.08-2.79-.11-1.06-.25-2.12-.28-3.18,0-.73-.27-1-1-1-4.58,0-9.17,0-13.75,0-1.54,0-1.66,1.39-2.29,2.22-1,1.27-1.71,2.73-2.66,4a2.05,2.05,0,0,1-1.44.72q-11.61.06-23.23,0a1.67,1.67,0,0,1-1.2-.88c-1.57-3.5-2.9-7.13-4.68-10.52-.74-1.42-2.67-.37-4-.56a1.2,1.2,0,0,0-1,.53c-.4,1.15-.66,2.36-1,3.54-.67,2.4-1.32,4.81-2,7.2-.08.29-.48.69-.74.69-3.64.05-7.28,0-11,0,.63-2.42,1.19-4.7,1.81-7,.91-3.29,1.88-6.55,2.81-9.84.39-1.39.75-2.79,1.11-4.19.89-3.48,1.76-7,2.67-10.44.69-2.63,1.43-5.23,2.12-7.86A1.45,1.45,0,0,1,83.08.9c6.32.1,12.64,0,18.94.33,4,.22,7.75,1.62,10.27,5.07A14.26,14.26,0,0,1,114,9.69a13.71,13.71,0,0,1-.08,8.43A11.12,11.12,0,0,1,109,24.8a43.68,43.68,0,0,1-5.77,2.76c-.69.3-.84.35-.42,1.16,1.29,2.53,2.37,5.16,3.54,7.75C107,37.93,107.69,39.38,108.48,41.08ZM88.24,20.32c2.38,0,4.51.05,6.63,0a10.81,10.81,0,0,0,5.71-1.63,4.8,4.8,0,0,0,1.75-5.16c-.33-1.36-1.5-2.28-3.39-2.41-2.39-.15-4.78-.22-7.17-.18a1.87,1.87,0,0,0-1.27,1.12,30.73,30.73,0,0,0-.74,3.08C89.31,16.79,88.79,18.44,88.24,20.32Zm50.3-5.88-6.83,10.61H140C139.49,21.54,139,18.14,138.54,14.44Z"/><path class="cls-1" d="M362.61,41.5c1.39-5.16,2.71-10.08,4.08-15.16-.53,0-1-.06-1.38-.06-3.69,0-7.39,0-11.08,0-.93,0-1.38.2-1.63,1.22-1,4-2.1,8-3.18,12.06-.52,2-.56,2-2.57,2h-9.68l2.4-9c.4-1.52.82-3,1.22-4.57.5-1.9.95-3.83,1.47-5.72,1.26-4.55,2.58-9.09,3.83-13.64.6-2.16,1-4.36,1.65-6.51.13-.45.66-1.11,1-1.12,3.54-.08,7.09,0,10.92,0l-4.14,15.13h3.28c3.11,0,6.23,0,9.34,0,.85,0,1.26-.23,1.47-1.09.66-2.68,1.39-5.35,2.14-8,.49-1.76,1-3.51,1.61-5.24.11-.32.46-.78.71-.78,3.63,0,7.27,0,11,0-.33,1.44-.61,2.71-.94,4C383.09,9,382,13,380.92,17.07q-1.05,3.91-2.12,7.84-1.6,5.9-3.2,11.79c-.35,1.27-.65,2.55-1.09,3.79-.14.4-.64,1-1,1C370,41.53,366.42,41.5,362.61,41.5Z"/><path class="cls-1" d="M377.32,41.51c1-4,2-7.89,3-11.74s2.14-7.86,3.2-11.8c.8-2.95,1.58-5.91,2.38-8.87.66-2.45,1.38-4.88,2-7.34.21-.84.76-.85,1.4-.85h29.76c.52,0,1,.06,1.78.11l-2,7.39c0,.12-.17.21-.21.33-.22.65-.25,1.63-.69,1.88a5.12,5.12,0,0,1-2.34.2c-5.7,0-11.39,0-17.09,0-1.35,0-1.9.44-2.09,1.72s-.57,2.46-.93,3.91h19.18c-.47,1.93-.86,3.62-1.28,5.3a23.66,23.66,0,0,0-.72,2.51c-.16,1.17-.64,1.59-1.89,1.58-5.47-.08-10.94,0-16.41-.06a1.7,1.7,0,0,0-2,1.56c-.25,1.19-.67,2.35-.94,3.54a.85.85,0,0,0,.46.72,3.6,3.6,0,0,0,1.19.06h17.75c.57,0,1.14.05,1.89.08a20.42,20.42,0,0,1-.32,2.13c-.6,2.32-1.23,4.65-1.92,6.95-.1.3-.58.54-.93.69a2.62,2.62,0,0,1-.93,0H377.32Z"/><path class="cls-1" d="M301.13,41.51h-8.65c-3.19,0-3.2,0-3.64-3.06-.17-1.23-.27-2.47-.41-3.85-.56,0-1.08-.06-1.59-.06-4,0-7.93.12-11.88-.07a3.34,3.34,0,0,0-3.34,1.89c-.87,1.42-1.75,2.83-2.71,4.19a2.07,2.07,0,0,1-1.32.92c-3.82.07-7.64,0-11.84,0,.64-1,1.12-1.86,1.66-2.64,3.1-4.46,6.24-8.89,9.33-13.35,2-2.87,3.88-5.8,5.86-8.67,2.41-3.49,4.89-7,7.32-10.44,1.12-1.6,2.13-3.28,3.33-4.81A3,3,0,0,1,285.18.52c2.8-.12,5.61-.06,8.41-.05,1,0,1.59.3,1.74,1.48.43,3.55,1,7.07,1.52,10.6.71,4.75,1.44,9.48,2.16,14.22s1.45,9.48,2.17,14.22A2.45,2.45,0,0,1,301.13,41.51ZM287.34,25.08c-.42-3.49-.83-6.79-1.23-10.1l-.39-.06-6.67,10.16Z"/><path class="cls-1" d="M209.44,41.4c-.29-1.83-.62-3.6-.83-5.38-.12-1-.39-1.54-1.61-1.52-4.27.08-8.54,0-12.81,0a2,2,0,0,0-2,1.15c-1.05,1.8-2.23,3.52-3.42,5.23a1.56,1.56,0,0,1-1.11.58c-3.86,0-7.73,0-11.92,0,.91-1.37,1.68-2.54,2.46-3.7,1.4-2.05,2.79-4.1,4.21-6.13,2.05-2.95,4.14-5.88,6.19-8.83,1.59-2.29,3.15-4.6,4.73-6.9,1.94-2.83,3.87-5.66,5.82-8.48,1.31-1.9,2.68-3.76,3.95-5.68A2.5,2.5,0,0,1,205.35.46c2.76,0,5.51,0,8.27,0,1.13,0,1.58.46,1.72,1.53.35,2.7.75,5.4,1.16,8.1q1.06,7,2.15,13.94c.36,2.3.71,4.6,1.09,6.9.55,3.33,1.13,6.66,1.7,10a2,2,0,0,1-.05.49ZM206,14.54,199.16,25h8.29C207,21.59,206.54,18.29,206,14.54Z"/><path class="cls-1" d="M0,34.72C2.27,32.3,4.44,30,6.66,27.65c.64-.66,1.21-.25,1.8.29a17.54,17.54,0,0,0,9.15,4.49c1.75.27,3.57.53,5.26-.6a2.34,2.34,0,0,0,0-4.16,24.74,24.74,0,0,0-3.24-1.44,35.14,35.14,0,0,1-8.8-4.33,9.2,9.2,0,0,1-3.71-8.13C7.21,9,9.51,5.51,13.56,3A21.4,21.4,0,0,1,26.36.24a24,24,0,0,1,8.78,2.12,56.74,56.74,0,0,1,6.13,3.85C38.8,9,36.61,11.46,34.38,13.89c-.13.13-.76,0-1-.2C30,11.18,26.33,9.47,22,10a5,5,0,0,0-2.34,1.1,2,2,0,0,0,.49,3c2.41,1.12,4.86,2.17,7.29,3.26,3.17,1.42,6.36,2.94,7.9,6.27.9,1.94,1.73,4.06.8,6.37-.57,1.4-.75,3-1.39,4.33-1.29,2.74-3.6,4.47-6.26,5.83-4.72,2.4-9.75,2.54-14.77,1.72A22.3,22.3,0,0,1,0,34.72Z"/><path class="cls-1" d="M264.83,10.47l-8.45,4.65c-1,.55-1.73.74-2.5-.67a7,7,0,0,0-5.72-3.67c-5.11-.51-9.22,1.87-11.62,6.46a12.62,12.62,0,0,0-1.64,8,7.32,7.32,0,0,0,6.62,6.55,10.13,10.13,0,0,0,8.63-3c.51-.51,1.22-1.18,2-.3.11.12.32.16.44.28l6.54,6a22.11,22.11,0,0,1-10.55,6.84,24.56,24.56,0,0,1-11.82.41,16.84,16.84,0,0,1-11.35-7.58,18.35,18.35,0,0,1-2.59-12.78A24.51,24.51,0,0,1,229,8.52,25,25,0,0,1,238.43,2,24.53,24.53,0,0,1,252.31.41a15.27,15.27,0,0,1,10.74,7C263.65,8.39,264.21,9.41,264.83,10.47Z"/><path class="cls-1" d="M337.48,34.7A22.65,22.65,0,0,1,330,40.43a23.26,23.26,0,0,1-14.91,1.5,16.57,16.57,0,0,1-11.38-7.72,17.81,17.81,0,0,1-2.61-11.85,24.9,24.9,0,0,1,5.66-13.15,25.55,25.55,0,0,1,10-7.26A24.06,24.06,0,0,1,330.63.42c4.39.85,8.26,2.85,10.67,6.92.53.89,1.1,1.76,1.57,2.68a.88.88,0,0,1-.28.8c-2.68,1.49-5.38,2.93-8.07,4.38-1,.55-1.63.46-2.3-.7a7.24,7.24,0,0,0-5.85-3.72c-5.24-.53-9.19,2.09-11.54,6.44a13.27,13.27,0,0,0-1.71,7.32,7.53,7.53,0,0,0,7.21,7.26,10.39,10.39,0,0,0,8.12-3.07c.51-.51,1.21-1.18,2-.3.12.12.32.16.45.27C333.11,30.68,335.27,32.67,337.48,34.7Z"/><path class="cls-1" d="M192.38.91c-.18,1-.26,1.86-.47,2.66-.6,2.28-1.2,4.56-1.92,6.81-.11.34-.86.67-1.32.67-3.11.06-6.23.11-9.34,0-1.36,0-1.84.57-2.12,1.72q-1.29,5.25-2.66,10.46-1.58,6-3.23,12.05-.75,2.7-1.62,5.37c-.12.33-.53.82-.8.82-3.55.06-7.1,0-10.87,0,.68-2.7,1.28-5.21,1.94-7.69.42-1.56.95-3.09,1.38-4.64.52-1.94,1-3.91,1.48-5.85,1-3.77,2-7.53,3-11.29a4.2,4.2,0,0,0,0-1H154.21a7.89,7.89,0,0,1,.11-1.17c.72-2.75,1.44-5.5,2.23-8.23a1.48,1.48,0,0,1,.88-.73,3.62,3.62,0,0,1,1.19,0h33.76Z"/><path class="cls-1" d="M45,41.51c.76-2.79,1.44-5.32,2.13-7.84.44-1.65.89-3.29,1.32-5,.54-2.12,1-4.26,1.6-6.38.89-3.24,1.84-6.46,2.75-9.7a14.69,14.69,0,0,0,.22-1.58H41.14c.45-1.8.85-3.4,1.26-5s.7-2.89,1.19-4.29A1.65,1.65,0,0,1,44.79,1c1.41-.1,2.84,0,4.27,0H79.38a13.61,13.61,0,0,1-.19,1.67c-.68,2.62-1.36,5.25-2.14,7.85-.1.31-.81.62-1.24.63-3.16,0-6.32.1-9.47,0-1.33-.05-1.78.6-2,1.65-.5,2-1,3.92-1.49,5.87q-1.65,6.3-3.32,12.58c-.71,2.65-1.42,5.31-2.15,8A10.19,10.19,0,0,1,56.67,41a1.08,1.08,0,0,1-.78.52C52.39,41.52,48.88,41.51,45,41.51Z"/></g></g></svg>