<svg height="72.66" viewBox="0 0 259.37 72.66" width="259.37" xmlns="http://www.w3.org/2000/svg"><g fill="#fff"><path d="m252 7.86a3.53 3.53 0 0 1 .29-1.42 3.73 3.73 0 0 1 .79-1.16 3.63 3.63 0 0 1 1.17-.78 3.67 3.67 0 0 1 2.86 0 3.75 3.75 0 0 1 1.17.78 3.91 3.91 0 0 1 .79 1.16 3.62 3.62 0 0 1 0 2.84 3.91 3.91 0 0 1 -.79 1.16 3.75 3.75 0 0 1 -1.17.78 3.67 3.67 0 0 1 -2.86 0 3.63 3.63 0 0 1 -1.17-.78 3.73 3.73 0 0 1 -.79-1.16 3.57 3.57 0 0 1 -.29-1.42m.69 0a3.06 3.06 0 0 0 .24 1.2 2.9 2.9 0 0 0 .63 1 3 3 0 0 0 2.12.89 2.92 2.92 0 0 0 1.17-.24 2.78 2.78 0 0 0 .94-.65 3.09 3.09 0 0 0 .64-1 3.05 3.05 0 0 0 .23-1.2 3 3 0 0 0 -.23-1.2 3.26 3.26 0 0 0 -.64-1 3.1 3.1 0 0 0 -.94-.65 2.92 2.92 0 0 0 -1.17-.24 2.85 2.85 0 0 0 -1.17.24 3.15 3.15 0 0 0 -1 .65 3.05 3.05 0 0 0 -.63 1 3 3 0 0 0 -.24 1.2m4.66-.86a1.45 1.45 0 0 1 -.07.44 1.25 1.25 0 0 1 -.19.34 1.27 1.27 0 0 1 -.27.25 1.17 1.17 0 0 1 -.31.17 9.34 9.34 0 0 1 .58.9q.29.48.48.87h-.67c-.05-.09-.11-.21-.2-.36s-.17-.31-.27-.47-.19-.31-.28-.46l-.24-.34h-.25-.69a1.42 1.42 0 0 1 -.31 0v1.58h-.56v-3.92a.32.32 0 0 1 .3-.34h.34.67a4.71 4.71 0 0 1 .78.07 2.09 2.09 0 0 1 .61.23 1.15 1.15 0 0 1 .41.41 1.32 1.32 0 0 1 .14.62m-.6 0a.71.71 0 0 0 -.3-.59 1.89 1.89 0 0 0 -1.08-.22h-.46-.25v1.57h.3.49a1.69 1.69 0 0 0 1-.23.71.71 0 0 0 .3-.62"/><path d="m32 7.75a3.88 3.88 0 1 0 -3.87-3.88 3.88 3.88 0 0 0 3.87 3.88"/><path d="m19.18 11.48a3.83 3.83 0 0 0 2-.56l7.34 7.21a3.82 3.82 0 0 0 -.38 1.66 3.88 3.88 0 0 0 7.75 0 4 4 0 0 0 -.4-1.72l7.38-7.14a3.87 3.87 0 1 0 -1.87-3.32 3.93 3.93 0 0 0 .43 1.78l-7.35 7.12a3.83 3.83 0 0 0 -4.16 0l-7.31-7.12a3.87 3.87 0 1 0 -3.43 2.09"/><path d="m32.06 56.27a3.88 3.88 0 1 0 3.88 3.88 3.88 3.88 0 0 0 -3.88-3.88"/><path d="m44.85 52.55a3.84 3.84 0 0 0 -2 .55l-7.34-7.21a3.81 3.81 0 0 0 .38-1.65 3.88 3.88 0 1 0 -7.75 0 3.94 3.94 0 0 0 .4 1.71l-7.37 7.14a3.87 3.87 0 1 0 -2 7.19 3.87 3.87 0 0 0 3.87-3.87 4 4 0 0 0 -.43-1.78l7.39-7.11a3.9 3.9 0 0 0 2.06.59 3.86 3.86 0 0 0 2.1-.62l7.28 7.14a3.88 3.88 0 1 0 3.44-2.08"/><path d="m56.41 41a3.89 3.89 0 0 0 -1.77.43l-7.12-7.35a3.88 3.88 0 0 0 0-4.16l7.14-7.28a3.88 3.88 0 1 0 -2.08-3.43 3.83 3.83 0 0 0 .55 2l-7.24 7.29a3.81 3.81 0 0 0 -1.65-.38 3.88 3.88 0 1 0 0 7.75 3.81 3.81 0 0 0 1.71-.4l7.14 7.38a3.87 3.87 0 1 0 3.32-1.85"/><path d="m60.15 28.09a3.87 3.87 0 1 0 3.85 3.91 3.87 3.87 0 0 0 -3.87-3.87"/><path d="m18.13 35.53a4 4 0 0 0 1.66.37 3.88 3.88 0 0 0 0-7.75 4 4 0 0 0 -1.72.4l-7.14-7.37a3.87 3.87 0 1 0 -1.54 1.44l7.12 7.38a3.84 3.84 0 0 0 0 4.17l-7.12 7.24a3.82 3.82 0 0 0 -1.79-.41 3.91 3.91 0 1 0 3.32 1.89z"/><path d="m7.75 32.06a3.88 3.88 0 1 0 -3.88 3.88 3.88 3.88 0 0 0 3.88-3.88"/><path d="m159.11 12.63a17.66 17.66 0 0 0 8.93 0v-8.41a17.55 17.55 0 0 0 -8.93 0z"/><path d="m159.11 59.45a17.66 17.66 0 0 0 8.93 0v-41.2a17.66 17.66 0 0 0 -8.93 0z"/><path d="m106.59 39v33.09a17.66 17.66 0 0 0 8.93 0v-33.09a17.55 17.55 0 0 0 -8.93 0"/><path d="m249.56 31.84a74.67 74.67 0 0 0 -.92-11.06c-1.6-10-6-14.12-16-15.78-9.89-1.85-23.81-1.26-25.48-1.14-4.16.34-8.52 1.14-9.1 1.2-9 1.5-13.59 5.78-15.26 14.75a67.65 67.65 0 0 0 -1.15 12 67.65 67.65 0 0 0 1.15 12c1.67 9 6.22 13.26 15.26 14.75.58.1 4.91.86 9.05 1.22.32.05 15.59.71 25.48-1.13 10-1.65 14.43-5.74 16-15.78a74.67 74.67 0 0 0 .92-11.06m-20.16 19.59c-1.69.29-3.35.51-5 .68-.94.09-1.89.16-2.86.24a94.8 94.8 0 0 1 -11.62 0c-2.44-.13-5.11-.48-7.69-.87-6.35-1-9.78-4.47-10.93-10.77a50.39 50.39 0 0 1 -.81-8.81 50.39 50.39 0 0 1 .81-8.81c1.15-6.31 4.58-9.82 10.93-10.78 2.58-.39 5.25-.73 7.69-.87a95 95 0 0 1 11.62 0c1 .07 1.92.15 2.86.24 1.63.16 3.29.38 5 .67 7 1.4 10.05 4.76 10.85 12.5a66.54 66.54 0 0 1 .32 7.07 66.35 66.35 0 0 1 -.32 7.06c-.8 7.74-3.84 11.11-10.85 12.5"/><path d="m145.48 31.82a74.8 74.8 0 0 0 -.93-11.06c-1.59-10-6-14.12-16-15.78-9.93-1.85-23.85-1.26-25.55-1.14-4.12.36-8.45 1.16-9 1.22-9 1.5-13.58 5.78-15.26 14.75a68.58 68.58 0 0 0 -1.14 12 68.58 68.58 0 0 0 1.14 12c1.68 9 6.23 13.26 15.26 14.75.58.1 4.91.86 9.06 1.22h.75v-7.64c-1.86-.17-3.78-.43-5.66-.72-6.35-1-9.79-4.47-10.94-10.77a51.36 51.36 0 0 1 -.8-8.81 51.36 51.36 0 0 1 .8-8.81c1.15-6.31 4.59-9.82 10.94-10.78 2.58-.39 5.25-.73 7.69-.87a95 95 0 0 1 11.62 0c1 .07 1.92.15 2.86.24 1.62.16 3.29.38 5 .67 7 1.4 10.06 4.76 10.85 12.5a69.29 69.29 0 0 1 .33 7.07 69.1 69.1 0 0 1 -.33 7.06c-.79 7.74-3.84 11.11-10.85 12.5-1.68.29-3.35.51-5 .68l-2 .17v7.54a82.66 82.66 0 0 0 10.18-1.11c10-1.66 14.43-5.74 16-15.78a74.68 74.68 0 0 0 .93-11.06"/></g></svg>