<svg height="81.79" viewBox="0 0 261.48 81.79" width="261.48" xmlns="http://www.w3.org/2000/svg"><g fill="#fff"><path d="m256.42 71.85a5 5 0 1 0 5.06 4.94 5 5 0 0 0 -5.06-4.94zm0 8.89a4 4 0 1 1 3.77-3.92 3.79 3.79 0 0 1 -3.74 3.92z"/><path d="m257.57 76.94v-.06a1.26 1.26 0 0 0 1-1.14 1.37 1.37 0 0 0 -.48-1.09 3.11 3.11 0 0 0 -1.72-.36 10.08 10.08 0 0 0 -1.9.15v4.94h1.15v-2h.54c.63 0 .93.24 1 .79a4.14 4.14 0 0 0 .4 1.2h1.23a3.76 3.76 0 0 1 -.36-1.23 1.45 1.45 0 0 0 -.86-1.2zm-1.36-.36h-.54v-1.42a2.73 2.73 0 0 1 .63-.06c.72 0 1.06.31 1.06.76s-.52.72-1.15.72z"/><path d="m238.89 66.15a21.82 21.82 0 0 1 -.59-4.69c-.07-5 0-9.94-.05-14.91-.06-3.47-.24-6.94-.52-10.4a12 12 0 0 0 -5.36-9.49 22.31 22.31 0 0 0 -5.47-2.66c-5.21-1.62-10.33-1.78-16-1.41a54.87 54.87 0 0 0 -9.55 1.23c-.49.12-.61.22-.66.55v7.44c0 .19.13.27.38.15a69.45 69.45 0 0 1 14.17-1.26 15.15 15.15 0 0 1 9.26 2.4 5.77 5.77 0 0 1 1.5 8.09 7.69 7.69 0 0 1 -4.23 3c-2.64.8-5.31 1.47-8 2.07-4.26 1-8.53 1.87-12.48 3.81-6.05 3-9.28 7.79-9.13 14.64.1 4.74 1.49 8.93 5.4 12a18.62 18.62 0 0 0 7.56 3.29 47.25 47.25 0 0 0 14.14.66 1.6 1.6 0 0 0 1-.73c1.36-2.26 2.67-4.56 4-6.84a3.55 3.55 0 0 0 .21-.44c-2.68.09-5.37.26-8.06.26a19 19 0 0 1 -7.72-1.49 7.64 7.64 0 0 1 -3.86-3.42 9.19 9.19 0 0 1 3.17-12.24 19.59 19.59 0 0 1 4.66-1.93c3.29-.92 6.64-1.6 9.94-2.48 1.56-.41 3.07-1.05 4.64-1.6v.88 14.74a23.48 23.48 0 0 0 .37 4 12.18 12.18 0 0 0 8.12 10 23.33 23.33 0 0 0 7.27 1.26c.24 0 .58-.31.72-.56 1.41-2.4 2.77-4.83 4.15-7.25.1-.19.17-.4.3-.72-.74 0-1.37 0-2 0a7.46 7.46 0 0 1 -7.28-5.95z"/><path d="m137.54 66.15a21.82 21.82 0 0 1 -.59-4.69c-.07-5 0-9.94 0-14.91-.06-3.47-.24-6.94-.52-10.4a12 12 0 0 0 -5.43-9.49 21.58 21.58 0 0 0 -5.45-2.66c-5.21-1.63-10.33-1.79-16-1.42a56.54 56.54 0 0 0 -9.55 1.63c-.49.12-.61.22-.66.56v7.44c0 .19.13.26.38.14a68 68 0 0 1 14.17-1.64 15.08 15.08 0 0 1 9.26 2.4 5.77 5.77 0 0 1 1.47 8.08 7.69 7.69 0 0 1 -4.23 3c-2.63.8-5.31 1.47-8 2.07-4.26 1-8.53 1.87-12.48 3.81-6.05 3-9.28 7.79-9.13 14.64.11 4.74 1.5 8.93 5.4 12a18.68 18.68 0 0 0 7.59 3.29 47.3 47.3 0 0 0 14.15.66 1.6 1.6 0 0 0 1-.73c1.36-2.26 2.67-4.55 4-6.84a3.55 3.55 0 0 0 .21-.44c-2.68.09-5.37.26-8.06.27a19.14 19.14 0 0 1 -7.72-1.5 7.58 7.58 0 0 1 -3.86-3.42 9.18 9.18 0 0 1 3.17-12.25 19.59 19.59 0 0 1 4.66-1.93c3.29-.92 6.64-1.61 9.94-2.48 1.56-.42 3.07-1.05 4.64-1.6v.88 14.74a23.57 23.57 0 0 0 .37 4 12.18 12.18 0 0 0 8.12 10 23.33 23.33 0 0 0 7.25 1.28c.24 0 .58-.31.72-.56 1.41-2.4 2.77-4.83 4.15-7.25a6.34 6.34 0 0 0 .3-.72c-.74 0-1.37 0-2 0a7.46 7.46 0 0 1 -7.27-5.96z"/><path d="m34.13 49.61c-2.23-1.16-4.61-2-7-3-3.47-1.18-6.62-1.84-9.89-3.23a10.9 10.9 0 0 1 -4.36-3.15c-1.73-2.17-1.7-6.14.52-7.88a8.18 8.18 0 0 1 3.17-1.67c4.83-1.21 9.7-.57 14.5.5 2.41.54 4.74 1.48 7.15 2.25v-6.55c0-2.2 0-2.19-2.07-2.91-4.09-1.4-8.31-1.56-12.62-1.56-4.94 0-9.82.39-14.45 2.31a13 13 0 0 0 -8 8.35c-1.77 5.93-.72 12 4.92 16.11a25.7 25.7 0 0 0 4.66 2.75c3.06 1.37 6.24 2.48 9.32 3.81 2.81 1.21 5.65 2.41 8.33 3.89a6.29 6.29 0 0 1 2.76 7.2c-.69 2.66-2.62 4-5.08 4.77-5.32 1.54-10.7 1.22-16 .09a38.11 38.11 0 0 1 -9.99-3.69v8.06c0 1.68 0 1.7 1.62 2.23a52.23 52.23 0 0 0 18 2.54 39.69 39.69 0 0 0 12.35-2c10.2-3.61 12.23-13.48 10.09-20.55-1.25-4.1-4.27-6.75-7.93-8.67z"/><path d="m174 29.13c-3.22 1.89-6.26 4.77-7 6.82v-11.76h-10.87v55.33h10.92v-17.66c0-7.51.39-17.33 7.13-22.39 3.95-3 6.44-5.39 16-6.65v-8.3c0-.07 0-.1-.12-.1a39.42 39.42 0 0 0 -16.06 4.71z"/><path d="m91.31 1.75a38.57 38.57 0 0 0 -5.69-1.26 35.28 35.28 0 0 0 -16 .94 21.86 21.86 0 0 0 -5.46 2.64c-3.31 2.19-5.31 6.65-5.36 13.24v7.69h-3.5a1 1 0 0 0 -1 .47l-4.51 7.4c-.11.26-.06.32.2.32h8.9v46.33h10.85v-46.38h15.75a.82.82 0 0 0 .77-.76v-7.38h-16.52v-6.4c0-.05 0-.19 0-.4v-.69c0-1.87.29-5.55 2.31-7a15 15 0 0 1 9.26-2.4 26.37 26.37 0 0 1 6.23.81c.11 0 .15 0 .22-.07l3.78-6.85c.03-.13-.13-.2-.23-.25z"/></g></svg>