<svg id="Layer_1" data-name="Layer 1" xmlns="http://www.w3.org/2000/svg" xmlns:xlink="http://www.w3.org/1999/xlink" width="105.48" height="75.38" viewBox="0 0 105.48 75.38"><defs><style>.cls-1{fill:#273c4d}.cls-2{fill:url(#linear-gradient)}.cls-3{opacity:.3}.cls-4{fill:#fff}</style><linearGradient id="linear-gradient" x1="39.64" y1="23.41" x2="86.9" y2="70.67" gradientUnits="userSpaceOnUse"><stop offset="0" stop-color="#b4e95e"/><stop offset=".13" stop-color="#b4e95e"/><stop offset=".55" stop-color="#62c87a"/><stop offset="1" stop-color="#62c87a"/></linearGradient></defs><title>reasons</title><path class="cls-1" d="M92.81,42c-.47-16-13.66-27.71-29.74-27.71A29.49,29.49,0,0,0,37.58,28.9a19.23,19.23,0,0,0-9.72-2.6A18.32,18.32,0,0,0,10.92,37.65v0c-5,0-7.67,3.64-7.67,8.62a9,9,0,0,0,9,9h4.12l9.88-.06A14.49,14.49,0,0,0,37.91,61.1h6.64l42.78-.22h5.44a9.45,9.45,0,0,0,0-18.89Z"/><path class="cls-1" d="M63.07,14.28C79.15,14.28,92.34,26,92.81,42a9.45,9.45,0,0,1,0,18.89H87.33l-42.78.22H37.91a14.49,14.49,0,0,1-11.64-5.85l-9.88.06H12.27a9,9,0,0,1-9-9c0-5,2.69-8.62,7.67-8.62v0A18.32,18.32,0,0,1,27.86,26.3a19.23,19.23,0,0,1,9.72,2.6A29.49,29.49,0,0,1,63.07,14.28m0-3.26A33,33,0,0,0,36.43,24.71,22.67,22.67,0,0,0,27.86,23,21.54,21.54,0,0,0,8.76,34.59C3.44,35.54,0,40,0,46.29A12.28,12.28,0,0,0,12.27,58.56h4.12l8.35,0a17.65,17.65,0,0,0,13.17,5.84h6.64l42.8-.22h5.42a12.71,12.71,0,0,0,3.1-25A31,31,0,0,0,86,19.75,33.72,33.72,0,0,0,63.07,11Z"/><path class="cls-2" d="M35.75,32.62c-8,0-12.39,5.89-12.39,13.93A14.54,14.54,0,0,0,37.91,61.1h6.64l42.78-.22h5.44a9.45,9.45,0,1,0,0-18.89h0c-.47-16-13.66-27.72-29.74-27.72A29.57,29.57,0,0,0,35.73,32.61Z"/><g class="cls-3"><path class="cls-1" d="M15,40.08c-5,0-7.67,3.64-7.67,8.62a9,9,0,0,0,9,9h4.12l26.49-.14h3.37a5.85,5.85,0,1,0,0-11.7h0C50,36,41.83,28.71,31.88,28.71A18.32,18.32,0,0,0,14.94,40.07Z"/></g><path class="cls-4" d="M10.93,37.67c-5,0-7.67,3.64-7.67,8.62a9,9,0,0,0,9,9h4.12l26.49-.14h3.37a5.85,5.85,0,1,0,0-11.7h0C46,33.58,37.82,26.3,27.86,26.3A18.32,18.32,0,0,0,10.92,37.65Z"/></svg>