<svg id="Layer_1" data-name="Layer 1" xmlns="http://www.w3.org/2000/svg" width="105.48" height="75.38" viewBox="0 0 105.48 75.38"><defs><style>.cls-1{fill:#273c4d}.cls-2{fill:#93e019}</style></defs><title>reasons</title><path class="cls-1" d="M61.4,32.63V8.51a4.6,4.6,0,1,0-9.17,0V40.72c0,4.43-2.32,6-3.94,6C42.59,46.76,36,30.27,28,36.91L49.3,75.38H81.61A148.25,148.25,0,0,0,86,41.18C80.45,35.23,68.81,33.09,61.4,32.63Z"/><polygon class="cls-2" points="31.07 21.75 41.82 11.11 44.86 14.12 48.68 0 34.42 3.78 37.46 6.79 26.71 17.43 23.45 14.21 19.47 28.91 34.33 24.97 31.07 21.75"/></svg>