<svg id="Layer_1" data-name="Layer 1" xmlns="http://www.w3.org/2000/svg" width="105.48" height="75.38" viewBox="0 0 105.48 75.38"><defs><style>.cls-1{fill:#43809e}.cls-2{fill:#273c4d}.cls-3{fill:#fff;opacity:.2}</style></defs><title>reasons</title><path class="cls-1" d="M73.25,34.74c-1.59-.3-3.18-.56-4.79-.79V23.47A15.45,15.45,0,0,0,53,8h-.59A15.45,15.45,0,0,0,37,23.46V34c-1.57.23-3.15.49-4.72.78l-.32,0a3.45,3.45,0,0,0-2.81,3.39V61.8a3.45,3.45,0,0,0,2.81,3.39l2.12.4a100.28,100.28,0,0,0,18.7,1.75,100.49,100.49,0,0,0,18.72-1.75l2.1-.4a3.45,3.45,0,0,0,2.81-3.39V38.53A3.84,3.84,0,0,0,73.25,34.74ZM43.59,33.21V23.47a8.83,8.83,0,0,1,8.84-8.83H53a8.83,8.83,0,0,1,8.83,8.83V33.2A110,110,0,0,0,43.59,33.21Z"/><path class="cls-2" d="M73.25,34.74c-1.59-.3-3.18-.56-4.79-.79,0,0-11.62-2.54-31.5,0-4.72.78-3.15.49-4.72.78l-.32,0a3.45,3.45,0,0,0-2.81,3.39V61.8a3.45,3.45,0,0,0,2.81,3.39l2.12.4a100.28,100.28,0,0,0,18.7,1.75,100.49,100.49,0,0,0,18.72-1.75l2.1-.4a3.45,3.45,0,0,0,2.81-3.39V38.53A3.84,3.84,0,0,0,73.25,34.74Z"/><path class="cls-3" d="M56,32.84A132.65,132.65,0,0,0,37,34c-4.72.78-3.15.49-4.72.78l-.32,0a3.45,3.45,0,0,0-2.81,3.39V59.72Z"/></svg>