<svg id="Layer_1" data-name="Layer 1" xmlns="http://www.w3.org/2000/svg" xmlns:xlink="http://www.w3.org/1999/xlink" width="105.48" height="75.38" viewBox="0 0 105.48 75.38"><defs><style>.cls-1{fill:#273c4d}.cls-2{fill:url(#linear-gradient)}.cls-3{fill:url(#linear-gradient-2)}.cls-4{fill:url(#linear-gradient-3)}.cls-5{fill:url(#linear-gradient-4)}.cls-6{fill:url(#linear-gradient-5)}</style><linearGradient id="linear-gradient" x1="25.58" y1="11.48" x2="80.07" y2="65.97" gradientUnits="userSpaceOnUse"><stop offset=".13" stop-color="#b4e95e"/><stop offset=".55" stop-color="#62c87a"/></linearGradient><linearGradient id="linear-gradient-2" x1="67.26" y1="16.97" x2="68.2" y2="17.92" gradientUnits="userSpaceOnUse"><stop offset=".14" stop-color="#fff" stop-opacity=".35"/><stop offset=".91" stop-color="#fff" stop-opacity="0"/></linearGradient><linearGradient id="linear-gradient-3" x1="42.46" y1="23.18" x2="76.24" y2="56.95" xlink:href="#linear-gradient-2"/><linearGradient id="linear-gradient-4" x1="66.37" y1="20.44" x2="95.98" y2="50.06" xlink:href="#linear-gradient-2"/><linearGradient id="linear-gradient-5" x1="53.41" y1="22.57" x2="87.09" y2="56.26" xlink:href="#linear-gradient-2"/></defs><title>reasons</title><path class="cls-1" d="M76.05,64.73a225.6,225.6,0,0,1-46.62,0c-10.3-1.34-18.65-6.84-18.65-23v-7c0-9.38,0-18.16,16.1-20,17.19-2,34.56-2.38,51.72,0,16.1,2.23,16.1,10.6,16.1,20v7C94.7,59.35,86.35,63.39,76.05,64.73Z"/><path class="cls-2" d="M78.6,18.42c-17.16-2-34.53-1.67-51.72,0-16.1,1.56-16.1,9.1-16.1,17.16v6c0,13.91,8.35,18.63,18.65,19.78,4.83.43,9.67.71,14.51.87l2.84-5.11a2,2,0,0,1,1.85-1.63h8.22a2,2,0,0,1,1.85,1.63l2.84,5.11c4.84-.16,9.68-.44,14.51-.87C86.35,60.23,94.7,56.76,94.7,41.6v-6C94.7,27.52,94.7,20.34,78.6,18.42Z"/><path class="cls-1" d="M64.53,15H41l2.66-4.32a2.53,2.53,0,0,1,2.17-1.22H59.7a2.53,2.53,0,0,1,2.17,1.22Z"/><path class="cls-3" d="M66.84,17.39l1.78.11Z"/><path class="cls-4" d="M56.47,17l1.3,0c-2.75,0-5.49,0-8.23,0-4.62,2.92-8,6.74-9.32,11.31-2.7,9.31,3.8,19.48,13.85,27.13h2.78a2,2,0,0,1,1.85,1.63L60,59.49c1.6.95,3.26,1.82,4.95,2.63q3.24-.15,6.5-.38Z"/><path class="cls-5" d="M78.6,18.42c-3.11-.37-6.22-.65-9.34-.87l14.2,42.33c6.61-2.19,11.24-7,11.24-18.28v-6C94.7,27.52,94.7,20.34,78.6,18.42Z"/><path class="cls-6" d="M81.25,60.51,66.79,17.39c-1.52-.09-3-.16-4.55-.21l1.82.07L78.74,61c-.76.13-1.53.23-2.31.32L61.61,17.15l-2.71-.07L73.82,61.55c.74-.06,1.48-.1,2.23-.17a35.88,35.88,0,0,0,7.41-1.5C82.75,60.12,82,60.33,81.25,60.51Z"/></svg>