<svg id="Layer_1" data-name="Layer 1" xmlns="http://www.w3.org/2000/svg" width="105.48" height="75.38" viewBox="0 0 105.48 75.38"><defs><style>.cls-1{fill:#43809e}.cls-2{fill:#273c4d}.cls-3{fill:#fff;opacity:.3}</style></defs><title>reasons</title><circle class="cls-1" cx="52.74" cy="37.69" r="32.62"/><path class="cls-2" d="M52.74,72.63A34.94,34.94,0,0,1,24,57.47a2.5,2.5,0,0,1-.6-.9,34.88,34.88,0,0,1,.06-37.85,2.53,2.53,0,0,1,.42-.64,34.92,34.92,0,0,1,57.81,0,2.32,2.32,0,0,1,.43.64,34.88,34.88,0,0,1,.06,37.85,2.5,2.5,0,0,1-.6.9A34.94,34.94,0,0,1,52.74,72.63Zm2.32-14.54V67.6c3.3-1.12,6.27-4.59,8.49-9.51Zm-13.13,0c2.22,4.92,5.19,8.39,8.49,9.51V58.09Zm-11.58,0A30.32,30.32,0,0,0,40.94,65.6a33.33,33.33,0,0,1-4-7.51Zm38.24,0a33.34,33.34,0,0,1-4,7.51,30.32,30.32,0,0,0,10.59-7.51Zm1.53-4.64h8.49A30.19,30.19,0,0,0,83,40H72.1A59.24,59.24,0,0,1,70.12,53.45Zm-15.06,0H65.27A53.22,53.22,0,0,0,67.45,40H55.06Zm-14.85,0H50.42V40H38A53.67,53.67,0,0,0,40.21,53.45Zm-13.34,0h8.49a58.7,58.7,0,0,1-2-13.44H22.52A30.19,30.19,0,0,0,26.87,53.45ZM72.1,35.37H83A30.11,30.11,0,0,0,78.65,22H70.13A58.89,58.89,0,0,1,72.1,35.37Zm-17,0H67.45A53.74,53.74,0,0,0,65.29,22H55.06Zm-17,0H50.42V22H40.2A53.73,53.73,0,0,0,38,35.37Zm-15.51,0H33.39a58.35,58.35,0,0,1,2-13.39H26.83A30.11,30.11,0,0,0,22.52,35.37Zm46.09-18h6.57A30.32,30.32,0,0,0,64.54,9.78,33.42,33.42,0,0,1,68.61,17.35Zm-13.55,0h8.51c-2.21-5-5.2-8.45-8.51-9.57Zm-13.15,0h8.51V7.78C47.11,8.91,44.12,12.4,41.91,17.35Zm-11.61,0h6.58a33,33,0,0,1,4.06-7.57A30.32,30.32,0,0,0,30.3,17.35Z"/><path class="cls-3" d="M77.48,12.89A35,35,0,0,0,27.94,62.43Z"/></svg>