<svg height="53.84" viewBox="0 0 107.19 53.84" width="107.19" xmlns="http://www.w3.org/2000/svg" xmlns:xlink="http://www.w3.org/1999/xlink"><linearGradient id="a" gradientUnits="userSpaceOnUse" x1="9.85" x2="52.32" y1="5.69" y2="48.16"><stop offset=".01" stop-color="#80b1c9"/><stop offset="1" stop-color="#028bbc"/></linearGradient><linearGradient id="b" x1="14.84" x2="47.34" xlink:href="#a" y1="10.67" y2="43.17"/><linearGradient id="c" x1="20.3" x2="41.88" xlink:href="#a" y1="16.13" y2="37.71"/><linearGradient id="d" gradientUnits="userSpaceOnUse" x1="45.02" x2="107.19" y1="26.92" y2="26.92"><stop offset=".13" stop-color="#b4e95e"/><stop offset=".55" stop-color="#62c87a"/></linearGradient><linearGradient id="e" x1="52.31" x2="99.89" xlink:href="#d" y1="26.92" y2="26.92"/><linearGradient id="f" x1="60.31" x2="91.9" xlink:href="#d" y1="26.92" y2="26.92"/><g fill="none" stroke-miterlimit="10" stroke-width="2"><path d="m16.12 52.84h29.93l14.97-25.92-14.97-25.92h-29.93l-14.96 25.92z" stroke="url(#a)"/><path d="m19.77 46.52h22.64l11.31-19.6-11.31-19.6h-22.64l-11.32 19.6z" stroke="url(#b)"/><path d="m23.77 39.6h14.64l7.32-12.68-7.32-12.68h-14.64l-7.32 12.68z" stroke="url(#c)"/><path d="m61.14 52.84h29.93l14.97-25.92-14.97-25.92h-29.93l-14.97 25.92z" stroke="url(#d)"/><path d="m64.79 46.52h22.63l11.32-19.6-11.32-19.6h-22.63l-11.32 19.6z" stroke="url(#e)"/><path d="m68.78 39.6h14.64l7.32-12.68-7.32-12.68h-14.64l-7.32 12.68z" stroke="url(#f)"/></g></svg>