<svg height="101.8" viewBox="0 0 222.08 101.8" width="222.08" xmlns="http://www.w3.org/2000/svg"><g fill="#273c4c"><path d="m7.02 60.75v-13.19h-7.02v19.74h21.06v-6.55z"/><path d="m35.06 34.36h-35.06v9.9h7.02v-3.25h21.02v19.74h-3.49v6.55h10.51z"/><path d="m44.34 34.36h10.66v24.51h15.4v8.43h-26.06z"/><path d="m74.92 34.36h26.81v8.48h-16.11v4.1h13.8v7.83h-13.85v12.53h-10.65z"/><path d="m110.12 34.36h21.88v2.69h-18.86v11.95h17.71v2.69h-17.71v13h19.13v2.69h-22.15v-33z"/><path d="m136.51 34.36h11c9.61.24 14.61 5.56 14.61 16.45s-5 16.25-14.61 16.44h-11zm3 30.3h6.49c9.09 0 13.05-3.91 13.05-13.81s-4-13.8-13.05-13.8h-6.46z"/><path d="m194.09 66.78h-2.17l-.37-5.78h-.1c-2.12 4.52-6.41 6.45-11 6.45-10 0-15-7.82-15-16.54s5-16.54 15-16.54c6.69 0 12.07 3.58 13.24 10.56h-3c-.38-3.63-4.24-8-10.23-8-8.39 0-12 7-12 13.95s3.54 13.95 12 13.95c7 0 11.12-4.9 11-11.64h-10.8v-2.57h13.48v16.16z"/><path d="m199.93 34.36h21.91v2.69h-18.84v11.95h17.72v2.69h-17.72v13h19.13v2.69h-22.2z"/></g></svg>