<svg height="101.8" viewBox="0 0 222.08 101.8" width="222.08" xmlns="http://www.w3.org/2000/svg"><g fill="#273c4c"><path d="m60.33.19h101.43v101.43h-101.43zm61.6 20.21v35.33h29.42v-35.33zm-4.11 35.4v-23.5h-19.77v23.5zm-36.71-15.69v15.62h13.09v-15.62zm27.47 22.51v12.59h2.51v-9.44a80.21 80.21 0 0 1 5.4 8c1.46 2.34 4.12 2.32 5.6 0 1.66-2.64 3.3-5.28 5-7.92l.53.16v9.23h2.51v-12.61c-2.91-.92-4.57.12-5.83 2.65-1.36 2.72-3.16 5.22-4.92 8-1.8-2.94-3.62-5.47-5-8.23-1.28-2.47-3-3.21-5.8-2.43zm-22.21 2.76c.11-.84.31-2.3-1.51-2.4a71.63 71.63 0 0 0 -11.8-.17c-3.32.37-4.8 2.83-4.79 6.13s1.7 5.69 4.92 6.11a37 37 0 0 0 9.91 0c3.48-.5 4.76-3.18 3.87-6.74h-10.33l.24 2.31h7.24l.33.63c-.83.56-1.61 1.48-2.49 1.59a30.22 30.22 0 0 1 -6.85.17c-2.9-.31-3.88-1.6-3.86-4.17s1.15-3.92 4-4c3.62-.12 7.22.32 11.12.54zm18.76-.16c.29-.9.35-2.18-1.34-2.29a108.78 108.78 0 0 0 -11.13-.31c-2 .08-3.24 1.48-3.17 3.74s1.58 3 3.45 3.19c2.6.3 5.24.38 7.83.75a8.55 8.55 0 0 1 2.49 1.28 23.58 23.58 0 0 1 -2.55 1.6 3.26 3.26 0 0 1 -1.65.12c-3.22-.34-6.44-.71-10.36-1.15.63.95 1 2.17 1.64 2.36a25 25 0 0 0 13.18.44 3.33 3.33 0 0 0 2.65-3.75 3 3 0 0 0 -3-3.1c-2.84-.33-5.71-.5-8.54-.9a7 7 0 0 1 -2.22-1.2c.74-.46 1.47-1.31 2.2-1.3 3.46 0 6.91.3 10.52.52zm26.8 9.71.27.59c1-.31 2.67-.33 3-1 1.11-2.34 2.93-2.28 5-2.2 1.83.08 3.67-.11 5.49.07a3.12 3.12 0 0 1 2.23 1.21c1 1.87 2.34 1.95 4.24 1.4-2.59-4-5.07-7.88-7.61-11.72-.86-1.3-3.92-1.54-4.76-.3-2.72 3.95-5.27 8.02-7.86 11.95zm-54.45-19.1v-10.58c-2.58 0-5 0-7.48 0-.44 0-1.2.64-1.22 1-.09 3.14 0 6.29 0 9.52zm72.44 7.11.7-.18.52 1.86h2.48v-1.83l-5-.5 1 3.05z"/><path d="m138.41 69.78 3.5-5.62 3.6 5.62z"/></g></svg>