<svg height="101.8" viewBox="0 0 222.08 101.8" width="222.08" xmlns="http://www.w3.org/2000/svg"><path d="m111 44 1 1 15.2-15.2h-2zm14.28-17.5h2l-15.28-15.22-1 .92zm-24.54-24.5 9.32 9.32.92-1-10.24-10.32-26.37 26.48h2zm0 52.27-24.41-24.45h-2l26.41 26.48 10.26-10.36-.92-.92zm20.49 0-9.23-9.27-1-1-14.18-14.18h-2l15.24 15.18.92.92 10.25 10.38 26.48-26.48h-2zm-10.23-42.07 1-.92 9.23-9.28 24.52 24.52h2l-26.52-26.52-10.23 10.25-.92 1-15.2 15.2h2zm-76.82 66.9v-11.51h-4.18v-2.07h10.63v2.07h-4.14v11.51zm9.1 0v-13.58h9.33v2.07h-6.91v3.41h6.79v2.08h-6.79v3.79h6.91v2.13h-9.33zm12.21 0v-13.58h2.41v11.48h6v2.1zm11.05 0v-13.58h9.33v2.07h-6.87v3.41h6.79v2.08h-6.79v3.79h6.91v2.13h-9.37zm11.86-6.79a6.86 6.86 0 0 1 7.14-7 6.07 6.07 0 0 1 5.41 3l-2 1a4 4 0 0 0 -3.45-2 4.72 4.72 0 0 0 -4.72 5 4.65 4.65 0 0 0 4.72 5 4 4 0 0 0 3.45-2l2.07 1a6.28 6.28 0 0 1 -5.41 3.11c-4.1-.09-7.21-2.97-7.21-7.11zm14.51 0a6.91 6.91 0 1 1 6.9 7 6.74 6.74 0 0 1 -6.9-7zm11.39 0c0-2.76-1.72-5-4.49-5s-4.49 2.07-4.49 5 1.73 5 4.49 5 4.49-2.24 4.49-5zm17 6.79v-10.48l-4.1 10.48h-1l-4.2-10.48v10.48h-2.3v-13.58h3.33l3.69 9.32 3.68-9.32h3.34v13.58zm11.86 0v-13.58h2.42v13.58zm15.32 0-7-9.67v9.67h-2.41v-13.58h2.41l6.92 9.48v-9.48h2.42v13.58zm5.87 0v-13.58h9.33v2.07h-6.91v3.41h6.79v2.08h-6.79v5.92h-2.42zm19.8 0-3-5.06h-2.42v5.06h-2.42v-13.58h6a4.17 4.17 0 0 1 4.49 4.26 3.94 3.94 0 0 1 -3.22 4l3.42 5.32zm.23-9.32a2.15 2.15 0 0 0 -2.3-2.19h-3.18v4.26h3.22a2 2 0 0 0 2.3-2.07zm15 9.32-1-2.65h-6.22l-1 2.65h-2.65l5.3-13.58h3l5.19 13.58zm-4.14-11.17-2.42 6.45h4.83zm-117.38 33.64v-13.57h5.07a3.92 3.92 0 1 1 0 7.83h-3.93v5.64h-1.14zm8-9.55a2.75 2.75 0 0 0 -3-2.88h-3.86v5.76h3.8a2.82 2.82 0 0 0 3.01-2.9zm12.32 9.55-3.8-5.64h-3v5.64h-1.2v-13.57h5.07a3.86 3.86 0 0 1 4.14 3.91 3.79 3.79 0 0 1 -3.8 3.92l3.92 5.64h-1.38zm0-9.55a2.75 2.75 0 0 0 -3-2.88h-3.8v5.86h3.8a2.9 2.9 0 0 0 2.95-3zm4.26 2.76c0-3.91 2.65-7 6.56-7s6.56 3 6.56 7-2.64 7-6.56 7-6.61-2.97-6.61-7zm12 0c0-3.45-2.07-6-5.41-6s-5.41 2.54-5.41 6 2.07 6 5.41 6 5.33-2.55 5.33-6zm2.88 5.41.69-.92a3.32 3.32 0 0 0 2.65 1.5 2.87 2.87 0 0 0 3-3.11v-9.66h1.15v9.67a3.8 3.8 0 0 1 -4.14 4.14 3.94 3.94 0 0 1 -3.43-1.62zm11.63 1.38v-13.57h8.63v1h-7.58v5.07h7.25v1h-7.25v5.41h7.48v1zm11.51-6.79a6.75 6.75 0 0 1 6.91-7 6 6 0 0 1 5 2.41l-.92.58a4.84 4.84 0 0 0 -3.91-2c-3.23 0-5.64 2.42-5.64 6a5.74 5.74 0 0 0 5.64 6 4.84 4.84 0 0 0 3.91-2l1 .58a6.14 6.14 0 0 1 -5 2.41 6.83 6.83 0 0 1 -7.07-6.98zm18.31 6.79v-12.57h-4.57v-1h10v1h-4.38v12.55z" fill="#273c4c"/></svg>