<svg height="26.11" viewBox="0 0 26.11 26.11" width="26.11" xmlns="http://www.w3.org/2000/svg"><circle cx="13.06" cy="13.06" fill="#4b6ea8" r="13.06"/><path d="m16.76 12c-.08 0-.18 0-.17-.11 0-.79 0-1.58 0-2.36a.81.81 0 0 1 .67-.81 4.58 4.58 0 0 1 .62-.08h1.82c.15 0 .2 0 .2-.2 0-1.11 0-2.23 0-3.34a1.48 1.48 0 0 1 0-.21h-3.6-.18c-.44.1-.89.15-1.32.29a2.84 2.84 0 0 0 -1.71 1.46 4.83 4.83 0 0 0 -.52 2.11v3c0 .16 0 .21-.2.21h-2.37c-.15 0-.2 0-.2.2v3.36.19h2.71v10.39h.53a13.31 13.31 0 0 0 3.53-.48v-9.93h3c.13-1.24.26-2.47.39-3.73h-3.2z" fill="#fdfdfd"/></svg>