<svg height="13.71" viewBox="0 0 14 13.71" width="14" xmlns="http://www.w3.org/2000/svg"><path d="m12.57 5.16v.38a8.11 8.11 0 0 1 -8.16 8.17 8.09 8.09 0 0 1 -4.41-1.17 5.17 5.17 0 0 0 .68 0 5.84 5.84 0 0 0 3.57-1.36 2.87 2.87 0 0 1 -2.68-2 3.29 3.29 0 0 0 .54 0 2.78 2.78 0 0 0 .76-.1 2.87 2.87 0 0 1 -2.3-2.72 3 3 0 0 0 1.3.36 2.87 2.87 0 0 1 -1.29-2.41 2.75 2.75 0 0 1 .42-1.4 8.15 8.15 0 0 0 5.91 3 3.6 3.6 0 0 1 -.06-.66 2.86 2.86 0 0 1 2.84-2.92 3 3 0 0 1 2.11.9 6 6 0 0 0 1.81-.69 2.85 2.85 0 0 1 -1.26 1.59 5.78 5.78 0 0 0 1.65-.46 5.8 5.8 0 0 1 -1.43 1.49z" fill="#43809e"/></svg>