<svg height="32.29" viewBox="0 0 52.25 32.29" width="52.25" xmlns="http://www.w3.org/2000/svg" xmlns:xlink="http://www.w3.org/1999/xlink"><linearGradient id="a" gradientUnits="userSpaceOnUse" x1="44.19" x2="52.25" y1="27.95" y2="27.95"><stop offset=".32" stop-color="#1b2a36"/><stop offset=".84" stop-color="#1b2a36"/></linearGradient><path d="m52.25 24.03v-24.03h-25.1v32.29h16.84z" fill="#fff"/><path d="m52.25 24.03v-.22h-8.06v8.28z" fill="url(#a)" opacity=".2"/><rect fill="#93e019" height="16.85" rx="1" width="36.64" y="6.62"/><g fill="#273c4d"><path d="m11.31 11.8v7h-1.31l-3.5-4.25v4.24h-1.6v-7h1.34l3.47 4.21v-4.2z"/><path d="m19.48 17.49v1.3h-5.41v-7h5.28v1.3h-3.67v1.52h3.25v1.26h-3.25v1.61z"/><path d="m32.41 11.8-2.29 7h-1.73l-1.54-4.73-1.59 4.73h-1.73l-2.3-7h1.68l1.58 4.91 1.65-4.91h1.5l1.6 4.95 1.62-4.95z"/></g></svg>