<svg id="Layer_1" data-name="Layer 1" xmlns="http://www.w3.org/2000/svg" width="275" height="222.27" viewBox="0 0 275 222.27"><defs><style>.cls-1{fill:#78c400;opacity:0.8;}.cls-2,.cls-6{fill:#1a546b;}.cls-3,.cls-4{fill:#43809e;}.cls-4{opacity:0.7;}.cls-5{fill:#86abba;}.cls-5,.cls-6{opacity:0.6;}.cls-7{fill:#fff;}</style></defs><title>solutions-header</title><path class="cls-1" d="M1071.68,31.76H1035l-18.33,31.76L1035,95.28h36.68L1090,63.52Zm-55,95.23H980l-18.34,31.76L980,190.51h36.67L1035,158.75Zm110,0H1090l-18.34,31.76L1090,190.51h36.67L1145,158.75Z" transform="translate(-925)"/><polygon class="cls-2" points="55 63.52 36.66 95.28 55 127.04 55.01 127.04 73.35 95.28 55.01 63.52 55 63.52"/><polygon class="cls-2" points="165 63.52 146.67 95.28 165 127.04 165.02 127.04 183.35 95.28 165.01 63.52 165 63.52"/><polygon class="cls-2" points="110.02 158.75 91.68 190.5 110.02 222.26 110.03 222.26 128.36 190.51 110.03 158.75 110.02 158.75"/><polygon class="cls-3" points="220 158.75 201.66 190.5 220 222.26 220.01 222.26 238.35 190.51 220.01 158.75 220 158.75"/><path class="cls-4" d="M1016.67,63.52H980L961.66,95.28,980,127h36.67L1035,95.28Zm110,0H1090l-18.34,31.76L1090,127h36.67L1145,95.28Zm-55,95.22H1035l-18.34,31.76L1035,222.27h36.67L1090,190.5Z" transform="translate(-925)"/><path class="cls-5" d="M980,0h0l18.33,31.76H1035L1016.69,0Zm110,0h0l18.34,31.76H1145L1126.68,0ZM925,95.28h0L943.34,127H980L961.68,95.28Zm110,0h0L1053.34,127H1090l-18.34-31.76Zm110,0h0L1163.32,127H1200l-18.34-31.76Zm-55,95.23h0l18.34,31.76H1145l-18.33-31.75Z" transform="translate(-925)"/><path class="cls-6" d="M1035,95.28h36.67L1090,63.52h-36.67Zm55,95.23h36.67L1145,158.75h-36.67Zm-110,0h36.67L1035,158.75H998.28Z" transform="translate(-925)"/><polygon class="cls-7" points="123.27 58.01 125.65 59.38 125.65 62.13 123.27 63.5 120.89 62.13 120.89 59.38 123.27 58.01"/><polygon class="cls-7" points="149.31 59.38 149.31 62.13 151.69 63.5 154.06 62.13 154.06 59.38 151.69 58.01 149.31 59.38"/><polygon class="cls-7" points="134.99 67.61 134.99 70.36 137.37 71.73 139.74 70.36 139.74 67.61 137.37 66.24 134.99 67.61"/><polygon class="cls-7" points="163.4 67.61 163.4 70.36 165.78 71.73 168.16 70.36 168.16 67.61 165.78 66.24 163.4 67.61"/><polygon class="cls-7" points="120.6 75.84 120.6 78.59 122.98 79.96 125.36 78.59 125.36 75.84 122.98 74.47 120.6 75.84"/><polygon class="cls-7" points="149.02 75.84 149.02 78.59 151.39 79.96 153.77 78.59 153.77 75.84 151.39 74.47 149.02 75.84"/><polygon class="cls-7" points="177.43 75.84 177.43 78.59 179.81 79.96 182.19 78.59 182.19 75.84 179.81 74.47 177.43 75.84"/><polygon class="cls-7" points="134.99 84.09 134.99 86.83 137.37 88.2 139.74 86.83 139.74 84.09 137.37 82.72 134.99 84.09"/><polygon class="cls-7" points="163.4 84.09 163.4 86.83 165.78 88.2 168.16 86.83 168.16 84.09 165.78 82.72 163.4 84.09"/><polygon class="cls-7" points="120.6 92.32 120.6 95.06 122.98 96.44 125.36 95.06 125.36 92.32 122.98 90.95 120.6 92.32"/><polygon class="cls-7" points="149.02 92.32 149.02 95.06 151.39 96.44 153.77 95.06 153.77 92.32 151.39 90.95 149.02 92.32"/><polygon class="cls-7" points="177.43 92.32 177.43 95.06 179.81 96.44 182.19 95.06 182.19 92.32 179.81 90.95 177.43 92.32"/><polygon class="cls-7" points="92.5 59.38 92.5 62.13 94.88 63.5 97.25 62.13 97.25 59.38 94.88 58.01 92.5 59.38"/><polygon class="cls-7" points="106.59 67.61 106.59 70.36 108.97 71.73 111.35 70.36 111.35 67.61 108.97 66.24 106.59 67.61"/><polygon class="cls-7" points="92.2 75.84 92.2 78.59 94.58 79.96 96.96 78.59 96.96 75.84 94.58 74.47 92.2 75.84"/><polygon class="cls-7" points="78.18 84.09 78.18 86.83 80.55 88.2 82.93 86.83 82.93 84.09 80.55 82.72 78.18 84.09"/><polygon class="cls-7" points="106.59 84.09 106.59 86.83 108.97 88.2 111.35 86.83 111.35 84.09 108.97 82.72 106.59 84.09"/><polygon class="cls-7" points="92.2 92.32 92.2 95.06 94.58 96.44 96.96 95.06 96.96 92.32 94.58 90.95 92.2 92.32"/><polygon class="cls-7" points="123.27 123.61 125.65 124.98 125.65 127.72 123.27 129.09 120.89 127.72 120.89 124.98 123.27 123.61"/><polygon class="cls-7" points="149.31 124.98 149.31 127.72 151.69 129.09 154.06 127.72 154.06 124.98 151.69 123.61 149.31 124.98"/><polygon class="cls-7" points="177.73 124.98 177.73 127.72 180.1 129.09 182.48 127.72 182.48 124.98 180.1 123.61 177.73 124.98"/><polygon class="cls-7" points="134.99 133.21 134.99 135.95 137.37 137.32 139.74 135.95 139.74 133.21 137.37 131.84 134.99 133.21"/><polygon class="cls-7" points="163.4 133.21 163.4 135.95 165.78 137.32 168.16 135.95 168.16 133.21 165.78 131.84 163.4 133.21"/><polygon class="cls-7" points="191.82 133.21 191.82 135.95 194.2 137.32 196.57 135.95 196.57 133.21 194.2 131.84 191.82 133.21"/><polygon class="cls-7" points="120.6 141.44 120.6 144.18 122.98 145.55 125.36 144.18 125.36 141.44 122.98 140.06 120.6 141.44"/><polygon class="cls-7" points="149.02 141.44 149.02 144.18 151.39 145.55 153.77 144.18 153.77 141.44 151.39 140.06 149.02 141.44"/><polygon class="cls-7" points="177.43 141.44 177.43 144.18 179.81 145.55 182.19 144.18 182.19 141.44 179.81 140.06 177.43 141.44"/><polygon class="cls-7" points="205.85 141.44 205.85 144.18 208.22 145.55 210.6 144.18 210.6 141.44 208.22 140.06 205.85 141.44"/><polygon class="cls-7" points="134.99 149.68 134.99 152.43 137.37 153.8 139.74 152.43 139.74 149.68 137.37 148.31 134.99 149.68"/><polygon class="cls-7" points="163.4 149.68 163.4 152.43 165.78 153.8 168.16 152.43 168.16 149.68 165.78 148.31 163.4 149.68"/><polygon class="cls-7" points="191.82 149.68 191.82 152.43 194.2 153.8 196.57 152.43 196.57 149.68 194.2 148.31 191.82 149.68"/><polygon class="cls-7" points="120.6 157.91 120.6 160.66 122.98 162.03 125.36 160.66 125.36 157.91 122.98 156.54 120.6 157.91"/><polygon class="cls-7" points="149.02 157.91 149.02 160.66 151.39 162.03 153.77 160.66 153.77 157.91 151.39 156.54 149.02 157.91"/><polygon class="cls-7" points="177.43 157.91 177.43 160.66 179.81 162.03 182.19 160.66 182.19 157.91 179.81 156.54 177.43 157.91"/><polygon class="cls-7" points="205.85 157.91 205.85 160.66 208.22 162.03 210.6 160.66 210.6 157.91 208.22 156.54 205.85 157.91"/><polygon class="cls-7" points="64.08 124.98 64.08 127.72 66.46 129.09 68.84 127.72 68.84 124.98 66.46 123.61 64.08 124.98"/><polygon class="cls-7" points="92.5 124.98 92.5 127.72 94.88 129.09 97.25 127.72 97.25 124.98 94.88 123.61 92.5 124.98"/><polygon class="cls-7" points="49.76 133.21 49.76 135.95 52.14 137.32 54.52 135.95 54.52 133.21 52.14 131.84 49.76 133.21"/><polygon class="cls-7" points="78.18 133.21 78.18 135.95 80.55 137.32 82.93 135.95 82.93 133.21 80.55 131.84 78.18 133.21"/><polygon class="cls-7" points="106.59 133.21 106.59 135.95 108.97 137.32 111.35 135.95 111.35 133.21 108.97 131.84 106.59 133.21"/><polygon class="cls-7" points="63.79 141.44 63.79 144.18 66.17 145.55 68.54 144.18 68.54 141.44 66.17 140.06 63.79 141.44"/><polygon class="cls-7" points="92.2 141.44 92.2 144.18 94.58 145.55 96.96 144.18 96.96 141.44 94.58 140.06 92.2 141.44"/><polygon class="cls-7" points="49.76 149.68 49.76 152.43 52.14 153.8 54.52 152.43 54.52 149.68 52.14 148.31 49.76 149.68"/><polygon class="cls-7" points="78.18 149.68 78.18 152.43 80.55 153.8 82.93 152.43 82.93 149.68 80.55 148.31 78.18 149.68"/><polygon class="cls-7" points="106.59 149.68 106.59 152.43 108.97 153.8 111.35 152.43 111.35 149.68 108.97 148.31 106.59 149.68"/><polygon class="cls-7" points="63.79 157.91 63.79 160.66 66.17 162.03 68.54 160.66 68.54 157.91 66.17 156.54 63.79 157.91"/><polygon class="cls-7" points="92.2 157.91 92.2 160.66 94.58 162.03 96.96 160.66 96.96 157.91 94.58 156.54 92.2 157.91"/><polygon class="cls-7" points="134.99 100.4 134.99 103.15 137.37 104.52 139.74 103.15 139.74 100.4 137.37 99.03 134.99 100.4"/><polygon class="cls-7" points="163.4 100.4 163.4 103.15 165.78 104.52 168.16 103.15 168.16 100.4 165.78 99.03 163.4 100.4"/><polygon class="cls-7" points="120.6 108.63 120.6 111.38 122.98 112.75 125.36 111.38 125.36 108.63 122.98 107.26 120.6 108.63"/><polygon class="cls-7" points="149.02 108.63 149.02 111.38 151.39 112.75 153.77 111.38 153.77 108.63 151.39 107.26 149.02 108.63"/><polygon class="cls-7" points="177.43 108.63 177.43 111.38 179.81 112.75 182.19 111.38 182.19 108.63 179.81 107.26 177.43 108.63"/><polygon class="cls-7" points="134.99 116.88 134.99 119.62 137.37 120.99 139.74 119.62 139.74 116.88 137.37 115.5 134.99 116.88"/><polygon class="cls-7" points="163.4 116.88 163.4 119.62 165.78 120.99 168.16 119.62 168.16 116.88 165.78 115.5 163.4 116.88"/><polygon class="cls-7" points="191.82 116.88 191.82 119.62 194.2 120.99 196.57 119.62 196.57 116.88 194.2 115.5 191.82 116.88"/><polygon class="cls-7" points="78.18 100.4 78.18 103.15 80.55 104.52 82.93 103.15 82.93 100.4 80.55 99.03 78.18 100.4"/><polygon class="cls-7" points="106.59 100.4 106.59 103.15 108.97 104.52 111.35 103.15 111.35 100.4 108.97 99.03 106.59 100.4"/><polygon class="cls-7" points="63.79 108.63 63.79 111.38 66.17 112.75 68.54 111.38 68.54 108.63 66.17 107.26 63.79 108.63"/><polygon class="cls-7" points="92.2 108.63 92.2 111.38 94.58 112.75 96.96 111.38 96.96 108.63 94.58 107.26 92.2 108.63"/><polygon class="cls-7" points="78.18 116.88 78.18 119.62 80.55 120.99 82.93 119.62 82.93 116.88 80.55 115.5 78.18 116.88"/><polygon class="cls-7" points="106.59 116.88 106.59 119.62 108.97 120.99 111.35 119.62 111.35 116.88 108.97 115.5 106.59 116.88"/></svg>