<svg height="38.53" viewBox="0 0 78.46 38.53" width="78.46" xmlns="http://www.w3.org/2000/svg"><path d="m70.63 17.73h7.83v7.83h-7.83zm-23.48 0h7.85v7.83h-7.85zm-23.49 0h7.83v7.83h-7.83zm-5 12.56c0 2.48.36 4.1 1.09 4.84a5 5 0 0 0 3.15 1.17c.44 0 1.19.05 2.24.05v2.18h-18.86v-2.18a18.05 18.05 0 0 0 3.35-.22 3.34 3.34 0 0 0 2.76-2.55 13.35 13.35 0 0 0 .3-3.29v-28.44a9.94 9.94 0 0 0 -7.51 3.15q-2.56 2.94-3.18 9l-2-.4.38-13.6h30.62l.38 13.6-2 .35q-.57-5.95-3.16-8.95a10 10 0 0 0 -7.54-3.18v28.47zm-18.66-12.56h7.87v7.83h-7.87z" fill="#fff" opacity=".8"/></svg>