<svg height="26.11" viewBox="0 0 26.11 26.11" width="26.11" xmlns="http://www.w3.org/2000/svg"><circle cx="13.06" cy="13.06" fill="#5797ce" r="13.06"/><path d="m22.85 8.27a8.07 8.07 0 0 1 -2.14.59 3.58 3.58 0 0 0 1.59-2.06 7.62 7.62 0 0 1 -2.3.9 3.69 3.69 0 0 0 -6.38 2.55 4 4 0 0 0 .09.84 10.51 10.51 0 0 1 -7.71-3.9 3.93 3.93 0 0 0 -.49 1.88 3.65 3.65 0 0 0 1.64 3.08 3.31 3.31 0 0 1 -1.67-.46 3.74 3.74 0 0 0 3 3.66 3.48 3.48 0 0 1 -1 .11 3.8 3.8 0 0 1 -.7-.06 3.61 3.61 0 0 0 3.47 2.6 7.44 7.44 0 0 1 -4.6 1.7 7.86 7.86 0 0 1 -.87-.07 10.39 10.39 0 0 0 5.67 1.64 10.47 10.47 0 0 0 10.55-10.6v-.48a7.68 7.68 0 0 0 1.85-1.92z" fill="#fdfdfd"/></svg>