<svg height="17.79" viewBox="0 0 27.12 17.79" width="27.12" xmlns="http://www.w3.org/2000/svg"><path d="m24.5 2.12a10.87 10.87 0 0 1 -2.59.71 4.36 4.36 0 0 0 1.93-2.51 9 9 0 0 1 -2.84 1.1 4.46 4.46 0 0 0 -7.72 3.09 5.11 5.11 0 0 0 .1 1 12.77 12.77 0 0 1 -9.26-4.71 4.86 4.86 0 0 0 -.59 2.27 4.43 4.43 0 0 0 2 3.74 4 4 0 0 1 -2-.56 4.54 4.54 0 0 0 3.59 4.43 4.12 4.12 0 0 1 -1.17.14 4.63 4.63 0 0 1 -.85-.08 4.41 4.41 0 0 0 4.19 3 9.08 9.08 0 0 1 -5.58 2.06c-.35 0-.72-.05-1-.08a12.63 12.63 0 0 0 6.87 2 12.67 12.67 0 0 0 12.68-12.72v-.57a9.46 9.46 0 0 0 2.24-2.31z" fill="#fdfdfd"/></svg>