<svg height="17.79" viewBox="0 0 27.12 17.79" width="27.12" xmlns="http://www.w3.org/2000/svg"><path d="m.2 13.15-.2-1.47.2-1.52a.1.1 0 0 1 .1-.11.11.11 0 0 1 .11.11l.23 1.52-.23 1.47a.11.11 0 0 1 -.11.11.1.1 0 0 1 -.1-.11zm1 .91-.27-2.38.27-2.46a.1.1 0 0 1 .1-.1.11.11 0 0 1 .12.1l.3 2.46-.3 2.38a.11.11 0 0 1 -.12.11.1.1 0 0 1 -.1-.11zm1.6-2.38-.29 2.78a.13.13 0 0 1 -.14.13.15.15 0 0 1 -.14-.13l-.23-2.78.25-2.9c0-.08.07-.14.14-.14a.14.14 0 0 1 .14.14zm.49 2.87-.24-2.87.24-3a.16.16 0 0 1 .15-.16.15.15 0 0 1 .16.16l.28 3-.28 2.87a.15.15 0 0 1 -.16.16.17.17 0 0 1 -.15-.16zm1.06 0-.22-2.9.22-2.77a.18.18 0 0 1 .19-.19.18.18 0 0 1 .17.19l.29 2.8-.26 2.9a.17.17 0 0 1 -.17.18.18.18 0 0 1 -.22-.18zm1.47 0a.19.19 0 0 1 -.19.2.2.2 0 0 1 -.21-.2l-.21-2.9.21-4.5a.21.21 0 0 1 .21-.15.2.2 0 0 1 .19.21l.24 4.5zm.67 0-.19-2.87.19-5.53a.23.23 0 0 1 .46 0l.23 5.53-.18 2.89a.23.23 0 0 1 -.46 0zm1.59-8.86.22 6-.22 2.86a.25.25 0 0 1 -.25.25.24.24 0 0 1 -.24-.24l-.19-2.88.19-6a.23.23 0 0 1 .24-.25.25.25 0 0 1 .25.26zm.6 8.82-.17-2.83.17-6.19a.27.27 0 0 1 .32-.28.29.29 0 0 1 .28.28l.18 6.19-.18 2.83a.29.29 0 0 1 -.28.28.27.27 0 0 1 -.32-.28zm1.1 0-.16-2.81.16-6a.3.3 0 1 1 .59 0l.19 6-.19 2.81a.3.3 0 1 1 -.59 0zm1.75 0a.32.32 0 0 1 -.32.32.33.33 0 0 1 -.32-.32l-.15-2.79.15-5.81a.33.33 0 0 1 .32-.33.32.32 0 0 1 .32.32l.16 5.82zm.49 0-.14-2.78.12-6.97a.34.34 0 0 1 .34-.34.34.34 0 0 1 .34.34l.14 6.92-.14 2.78a.34.34 0 0 1 -.34.34.34.34 0 0 1 -.34-.34zm1.84-10.38.14 7.55-.17 2.74a.37.37 0 0 1 -.73 0l-.1-2.74.15-7.55a.37.37 0 1 1 .73 0zm.31 10.28v-10.63c0-.2.08-.3.33-.4a5.88 5.88 0 0 1 8 5 3.09 3.09 0 0 1 1.29-.25 3.34 3.34 0 1 1 0 6.68h-9.25a.43.43 0 0 1 -.37-.4z" fill="#fff"/></svg>