<svg version="1.1" id="Layer_1" xmlns="http://www.w3.org/2000/svg" xmlns:xlink="http://www.w3.org/1999/xlink" x="0" y="0" viewBox="0 0 641.6 438" xml:space="preserve" enable-background="new 0 0 641.6 438"><style type="text/css">.st0{fill:#273c4d}.st1,.st2{fill:none;stroke-miterlimit:10}.st1{opacity:.5;stroke:#43809e;stroke-width:2}.st2{stroke:#78c400;stroke-width:3}.st3{fill:#43809e}.st4{fill:#33b1da}.st5{fill:#93e019}.st6{opacity:.3;fill:#fff}.st7{opacity:.1;fill:#43809e}.st8,.st9{fill:none;stroke:#273c4d;stroke-width:3;stroke-linecap:round;stroke-linejoin:round;stroke-miterlimit:10}.st9{stroke-linecap:square}</style><g><path class="st0" d="M10.4,62.1c0.1,1,1.2,1.7,2.7,1.7c1.4,0,2.4-0.7,2.4-1.6c0-0.8-0.6-1.3-2.2-1.6l-1.7-0.4 c-2.3-0.5-3.4-1.7-3.4-3.6c0-2.4,1.9-4,4.9-4c2.8,0,4.8,1.6,4.9,3.8h-2.5c-0.1-1-1.1-1.7-2.3-1.7c-1.3,0-2.2,0.6-2.2,1.6 c0,0.8,0.6,1.2,2.1,1.5l1.5,0.3c2.5,0.5,3.6,1.6,3.6,3.6c0,2.6-2,4.1-5.1,4.1c-3,0-5-1.5-5.1-3.8H10.4z"/><path class="st0" d="M29.1,62.9c-0.4,1.8-2.1,3-4.4,3c-3,0-4.7-1.9-4.7-5c0-3.2,1.8-5.1,4.7-5.1c2.9,0,4.5,1.8,4.5,4.9v0.8h-6.7 v0.1c0,1.4,0.9,2.3,2.2,2.3c1,0,1.7-0.4,2-1H29.1z M22.5,59.8h4.1c-0.1-1.3-0.8-2.1-2-2.1C23.4,57.7,22.6,58.5,22.5,59.8z"/><path class="st0" d="M30.8,62.9c0-1.8,1.3-2.8,3.8-2.9l2.3-0.1V59c0-0.8-0.6-1.3-1.6-1.3c-0.9,0-1.5,0.3-1.7,0.9h-2.4 c0.2-1.8,1.8-2.9,4.2-2.9c2.6,0,4,1.2,4,3.3v6.6H37v-1.3h-0.2c-0.5,0.9-1.6,1.4-2.8,1.4C32.2,65.8,30.8,64.6,30.8,62.9z M36.9,62.1 v-0.7l-2,0.1c-1.1,0.1-1.6,0.5-1.6,1.2c0,0.7,0.6,1.2,1.5,1.2C36,63.9,36.9,63.1,36.9,62.1z"/><path class="st0" d="M42.1,55.9h2.5v1.6h0.2c0.4-1.1,1.4-1.8,2.7-1.8c1.4,0,2.3,0.7,2.7,1.8h0.2c0.4-1.1,1.6-1.8,2.9-1.8 c1.9,0,3.1,1.3,3.1,3.3v6.7h-2.6v-6c0-1.2-0.5-1.7-1.6-1.7c-1,0-1.7,0.7-1.7,1.8v5.9H48v-6.1c0-1-0.6-1.6-1.6-1.6s-1.7,0.8-1.7,1.9 v5.8h-2.6V55.9z"/><path class="st0" d="M59,52.2h2.6v13.4H59V52.2z"/><path class="st0" d="M73,62.9c-0.4,1.8-2.1,3-4.4,3c-3,0-4.7-1.9-4.7-5c0-3.2,1.8-5.1,4.7-5.1c2.9,0,4.5,1.8,4.5,4.9v0.8h-6.7v0.1 c0,1.4,0.9,2.3,2.2,2.3c1,0,1.7-0.4,2-1H73z M66.4,59.8h4.1c-0.1-1.3-0.8-2.1-2-2.1C67.4,57.7,66.5,58.5,66.4,59.8z"/><path class="st0" d="M79.1,55.7c2.5,0,3.9,1,4.1,2.9h-2.4c-0.1-0.6-0.7-1-1.7-1c-0.9,0-1.6,0.4-1.6,1c0,0.5,0.4,0.8,1.3,1l1.8,0.4 c1.9,0.4,2.7,1.2,2.7,2.7c0,1.9-1.7,3.2-4.3,3.2c-2.6,0-4.1-1-4.3-2.9h2.5c0.2,0.7,0.8,1,1.8,1c1,0,1.7-0.4,1.7-1 c0-0.5-0.4-0.8-1.2-0.9l-1.8-0.4C76,61.2,75,60.3,75,58.8C75,56.9,76.7,55.7,79.1,55.7z"/><path class="st0" d="M89.4,55.7c2.5,0,3.9,1,4.1,2.9h-2.4c-0.1-0.6-0.7-1-1.7-1c-0.9,0-1.6,0.4-1.6,1c0,0.5,0.4,0.8,1.3,1L91,60 c1.9,0.4,2.7,1.2,2.7,2.7c0,1.9-1.7,3.2-4.3,3.2c-2.6,0-4.1-1-4.3-2.9h2.5c0.2,0.7,0.8,1,1.8,1c1,0,1.7-0.4,1.7-1 c0-0.5-0.4-0.8-1.2-0.9l-1.8-0.4c-1.9-0.4-2.8-1.3-2.8-2.8C85.4,56.9,87,55.7,89.4,55.7z"/><path class="st0" d="M14.5,86.4H10l-1.1,3.2H7.4l4.2-11.3h1.4l4.2,11.3h-1.5L14.5,86.4z M10.4,85.2H14l-1.8-5h-0.1L10.4,85.2z"/><path class="st0" d="M20.5,88.3h-0.1v1.3h-1.3V77.9h1.3v4.7h0.1c0.5-0.9,1.5-1.5,2.6-1.5c2.1,0,3.5,1.7,3.5,4.4 c0,2.6-1.4,4.4-3.5,4.4C22,89.8,21,89.2,20.5,88.3z M20.4,85.4c0,1.9,1,3.1,2.5,3.1c1.5,0,2.5-1.2,2.5-3.1s-0.9-3.1-2.5-3.1 C21.3,82.3,20.4,83.5,20.4,85.4z"/><path class="st0" d="M31.8,81.1c1.8,0,3,0.9,3.2,2.3h-1.3c-0.2-0.7-0.8-1.1-1.9-1.1c-1,0-1.8,0.5-1.8,1.3c0,0.6,0.5,0.9,1.5,1.2 l1.3,0.3c1.6,0.4,2.4,1.1,2.4,2.3c0,1.5-1.5,2.5-3.4,2.5c-1.9,0-3.2-0.9-3.3-2.3h1.4c0.2,0.7,0.9,1.2,2,1.2c1.1,0,1.9-0.5,1.9-1.3 c0-0.6-0.4-1-1.3-1.2l-1.4-0.4c-1.6-0.4-2.3-1.1-2.3-2.3C28.6,82.1,30,81.1,31.8,81.1z"/><path class="st0" d="M39.3,79v2.2h1.9v1.1h-1.9v4.8c0,1,0.4,1.4,1.2,1.4c0.2,0,0.4,0,0.6,0v1.1c-0.3,0-0.5,0.1-0.8,0.1 c-1.7,0-2.4-0.6-2.4-2.2v-5.1h-1.4v-1.1h1.4V79H39.3z"/><path class="st0" d="M43.1,81.2h1.3v1.2h0.1c0.2-0.8,1.2-1.4,2.3-1.4c0.2,0,0.5,0,0.7,0v1.3c-0.1,0-0.6-0.1-0.9-0.1 c-1.3,0-2.2,0.9-2.2,2v5.2h-1.3V81.2z"/><path class="st0" d="M48.9,87.3c0-1.5,1.1-2.4,3.1-2.5l2.4-0.1v-0.8c0-1-0.6-1.6-1.9-1.6c-1,0-1.7,0.4-1.9,1h-1.4 c0.2-1.4,1.5-2.2,3.3-2.2c2.1,0,3.2,1.1,3.2,2.8v5.8h-1.3v-1.2h-0.1c-0.5,0.9-1.5,1.4-2.6,1.4C50.1,89.8,48.9,88.8,48.9,87.3z M54.4,86.5v-0.8l-2.3,0.1c-1.3,0.1-1.8,0.5-1.8,1.4c0,0.9,0.7,1.4,1.7,1.4C53.3,88.6,54.4,87.7,54.4,86.5z"/><path class="st0" d="M63.9,83.8c-0.2-0.8-1-1.5-2.2-1.5c-1.5,0-2.5,1.2-2.5,3.1c0,1.9,1,3.2,2.5,3.2c1.1,0,1.9-0.5,2.2-1.5h1.4 c-0.2,1.5-1.5,2.7-3.5,2.7c-2.4,0-3.9-1.7-3.9-4.4c0-2.6,1.5-4.3,3.9-4.3c2,0,3.3,1.2,3.5,2.7H63.9z"/><path class="st0" d="M69.3,79v2.2h1.9v1.1h-1.9v4.8c0,1,0.4,1.4,1.2,1.4c0.2,0,0.4,0,0.6,0v1.1c-0.3,0-0.5,0.1-0.8,0.1 c-1.7,0-2.4-0.6-2.4-2.2v-5.1h-1.4v-1.1h1.4V79H69.3z"/><path class="st0" d="M76.2,81.1c1.8,0,3,0.9,3.2,2.3h-1.3c-0.2-0.7-0.8-1.1-1.9-1.1c-1,0-1.8,0.5-1.8,1.3c0,0.6,0.5,0.9,1.5,1.2 l1.3,0.3c1.6,0.4,2.4,1.1,2.4,2.3c0,1.5-1.5,2.5-3.4,2.5c-1.9,0-3.2-0.9-3.3-2.3h1.4c0.2,0.7,0.9,1.2,2,1.2c1.1,0,1.9-0.5,1.9-1.3 c0-0.6-0.4-1-1.3-1.2l-1.4-0.4c-1.6-0.4-2.3-1.1-2.3-2.3C73.1,82.1,74.4,81.1,76.2,81.1z"/><path class="st0" d="M86.1,85.4c0-2.6,1.4-4.4,3.5-4.4c1.2,0,2.2,0.6,2.6,1.5h0.1v-4.7h1.3v11.8h-1.3v-1.3h-0.1 c-0.5,0.9-1.5,1.5-2.7,1.5C87.4,89.8,86.1,88.1,86.1,85.4z M87.5,85.4c0,2,0.9,3.1,2.5,3.1c1.5,0,2.5-1.2,2.5-3.1 c0-1.9-1-3.1-2.5-3.1C88.4,82.3,87.5,83.5,87.5,85.4z"/><path class="st0" d="M103.3,87.4c-0.4,1.4-1.7,2.3-3.5,2.3c-2.3,0-3.8-1.7-3.8-4.4c0-2.6,1.5-4.4,3.8-4.4c2.3,0,3.7,1.6,3.7,4.2 v0.5h-6.1v0.1c0.1,1.7,1,2.7,2.4,2.7c1.1,0,1.8-0.4,2.2-1.1H103.3z M97.4,84.7h4.6c0-1.5-0.9-2.5-2.3-2.5 C98.4,82.2,97.5,83.2,97.4,84.7z"/><path class="st0" d="M109.1,89.6h-1.4l-3.1-8.4h1.4l2.3,6.9h0.1l2.3-6.9h1.4L109.1,89.6z"/><path class="st0" d="M120.7,87.4c-0.4,1.4-1.7,2.3-3.5,2.3c-2.3,0-3.8-1.7-3.8-4.4c0-2.6,1.5-4.4,3.8-4.4c2.3,0,3.7,1.6,3.7,4.2 v0.5h-6.1v0.1c0.1,1.7,1,2.7,2.4,2.7c1.1,0,1.8-0.4,2.2-1.1H120.7z M114.7,84.7h4.6c0-1.5-0.9-2.5-2.3-2.5 C115.8,82.2,114.8,83.2,114.7,84.7z"/><path class="st0" d="M123.1,77.9h1.3v11.8h-1.3V77.9z"/><path class="st0" d="M126.7,85.4c0-2.7,1.5-4.4,3.9-4.4s3.9,1.6,3.9,4.4c0,2.7-1.5,4.4-3.9,4.4S126.7,88.1,126.7,85.4z M133.1,85.4 c0-2-0.9-3.1-2.5-3.1s-2.5,1.1-2.5,3.1c0,2,0.9,3.1,2.5,3.1S133.1,87.4,133.1,85.4z"/><path class="st0" d="M144.3,85.4c0,2.6-1.4,4.4-3.5,4.4c-1.2,0-2.2-0.5-2.6-1.4H138v4.1h-1.3V81.2h1.3v1.4h0.1 c0.5-1,1.5-1.6,2.7-1.6C142.9,81.1,144.3,82.8,144.3,85.4z M142.9,85.4c0-2-0.9-3.1-2.5-3.1c-1.5,0-2.5,1.2-2.5,3.1 c0,1.9,1,3.1,2.5,3.1C142,88.6,142.9,87.4,142.9,85.4z"/><path class="st0" d="M153.5,87.4c-0.4,1.4-1.7,2.3-3.5,2.3c-2.3,0-3.8-1.7-3.8-4.4c0-2.6,1.5-4.4,3.8-4.4c2.3,0,3.7,1.6,3.7,4.2 v0.5h-6.1v0.1c0.1,1.7,1,2.7,2.4,2.7c1.1,0,1.8-0.4,2.2-1.1H153.5z M147.5,84.7h4.6c0-1.5-0.9-2.5-2.3-2.5 C148.6,82.2,147.6,83.2,147.5,84.7z"/><path class="st0" d="M155.8,81.2h1.3v1.2h0.1c0.2-0.8,1.2-1.4,2.3-1.4c0.2,0,0.5,0,0.7,0v1.3c-0.1,0-0.6-0.1-0.9-0.1 c-1.3,0-2.2,0.9-2.2,2v5.2h-1.3V81.2z"/><path class="st0" d="M173.7,87.4c-0.4,1.4-1.7,2.3-3.5,2.3c-2.3,0-3.8-1.7-3.8-4.4c0-2.6,1.5-4.4,3.8-4.4c2.3,0,3.7,1.6,3.7,4.2 v0.5h-6.1v0.1c0.1,1.7,1,2.7,2.4,2.7c1.1,0,1.8-0.4,2.2-1.1H173.7z M167.7,84.7h4.6c0-1.5-0.9-2.5-2.3-2.5 C168.8,82.2,167.8,83.2,167.7,84.7z"/><path class="st0" d="M178.5,86.5l-2,3.2h-1.5l2.9-4.2l-2.9-4.2h1.6l2,3.1h0.1l2-3.1h1.5l-2.9,4.2l2.9,4.3h-1.6l-2-3.2H178.5z"/><path class="st0" d="M191.7,85.4c0,2.6-1.4,4.4-3.5,4.4c-1.2,0-2.2-0.5-2.6-1.4h-0.1v4.1h-1.3V81.2h1.3v1.4h0.1 c0.5-1,1.5-1.6,2.7-1.6C190.3,81.1,191.7,82.8,191.7,85.4z M190.3,85.4c0-2-0.9-3.1-2.5-3.1c-1.5,0-2.5,1.2-2.5,3.1 c0,1.9,1,3.1,2.5,3.1C189.4,88.6,190.3,87.4,190.3,85.4z"/><path class="st0" d="M200.9,87.4c-0.4,1.4-1.7,2.3-3.5,2.3c-2.3,0-3.8-1.7-3.8-4.4c0-2.6,1.5-4.4,3.8-4.4c2.3,0,3.7,1.6,3.7,4.2 v0.5h-6.1v0.1c0.1,1.7,1,2.7,2.4,2.7c1.1,0,1.8-0.4,2.2-1.1H200.9z M194.9,84.7h4.6c0-1.5-0.9-2.5-2.3-2.5 C196,82.2,195,83.2,194.9,84.7z"/><path class="st0" d="M203.2,81.2h1.3v1.2h0.1c0.2-0.8,1.2-1.4,2.3-1.4c0.2,0,0.5,0,0.7,0v1.3c-0.1,0-0.6-0.1-0.9-0.1 c-1.3,0-2.2,0.9-2.2,2v5.2h-1.3V81.2z"/><path class="st0" d="M209.2,78.6c0-0.5,0.4-0.9,0.9-0.9s0.9,0.4,0.9,0.9s-0.4,0.9-0.9,0.9S209.2,79.2,209.2,78.6z M209.4,81.2h1.3 v8.4h-1.3V81.2z"/><path class="st0" d="M220.3,87.4c-0.4,1.4-1.7,2.3-3.5,2.3c-2.3,0-3.8-1.7-3.8-4.4c0-2.6,1.5-4.4,3.8-4.4c2.3,0,3.7,1.6,3.7,4.2 v0.5h-6.1v0.1c0.1,1.7,1,2.7,2.4,2.7c1.1,0,1.8-0.4,2.2-1.1H220.3z M214.4,84.7h4.6c0-1.5-0.9-2.5-2.3-2.5 C215.4,82.2,214.5,83.2,214.4,84.7z"/><path class="st0" d="M222.7,81.2h1.3v1.3h0.1c0.4-0.9,1.2-1.5,2.5-1.5c1.9,0,2.9,1.1,2.9,3.1v5.5h-1.3v-5.1c0-1.5-0.6-2.2-2-2.2 s-2.2,0.9-2.2,2.4v5h-1.3V81.2z"/><path class="st0" d="M237.7,83.8c-0.2-0.8-1-1.5-2.2-1.5c-1.5,0-2.5,1.2-2.5,3.1c0,1.9,1,3.2,2.5,3.2c1.1,0,1.9-0.5,2.2-1.5h1.4 c-0.2,1.5-1.5,2.7-3.5,2.7c-2.4,0-3.9-1.7-3.9-4.4c0-2.6,1.5-4.3,3.9-4.3c2,0,3.3,1.2,3.5,2.7H237.7z"/><path class="st0" d="M248.1,87.4c-0.4,1.4-1.7,2.3-3.5,2.3c-2.3,0-3.8-1.7-3.8-4.4c0-2.6,1.5-4.4,3.8-4.4c2.3,0,3.7,1.6,3.7,4.2 v0.5h-6.1v0.1c0.1,1.7,1,2.7,2.4,2.7c1.1,0,1.8-0.4,2.2-1.1H248.1z M242.2,84.7h4.6c0-1.5-0.9-2.5-2.3-2.5 C243.2,82.2,242.3,83.2,242.2,84.7z"/><path class="st0" d="M255.7,82.3h-1.4v-1.1h1.4v-0.9c0-1.7,0.8-2.5,2.4-2.5c0.3,0,0.6,0,0.9,0.1V79c-0.2,0-0.4,0-0.6,0 c-1,0-1.4,0.5-1.4,1.4v0.9h1.9v1.1h-1.9v7.3h-1.3V82.3z"/><path class="st0" d="M261,81.2h1.3v1.2h0.1c0.2-0.8,1.2-1.4,2.3-1.4c0.2,0,0.5,0,0.7,0v1.3c-0.1,0-0.6-0.1-0.9-0.1 c-1.3,0-2.2,0.9-2.2,2v5.2H261V81.2z"/><path class="st0" d="M266.6,85.4c0-2.7,1.5-4.4,3.9-4.4s3.9,1.6,3.9,4.4c0,2.7-1.5,4.4-3.9,4.4S266.6,88.1,266.6,85.4z M273,85.4 c0-2-0.9-3.1-2.5-3.1s-2.5,1.1-2.5,3.1c0,2,0.9,3.1,2.5,3.1S273,87.4,273,85.4z"/><path class="st0" d="M276.6,81.2h1.3v1.3h0.1c0.4-0.9,1.2-1.5,2.4-1.5c1.1,0,1.9,0.6,2.3,1.5h0.1c0.5-0.9,1.4-1.5,2.6-1.5 c1.7,0,2.7,1,2.7,2.8v5.8h-1.3v-5.5c0-1.2-0.6-1.9-1.8-1.9c-1.2,0-2,0.9-2,1.9v5.4h-1.3v-5.7c0-1-0.7-1.6-1.8-1.6c-1.1,0-2,1-2,2.1 v5.2h-1.3V81.2z"/><path class="st0" d="M7.7,109.4c0-2.7,1.5-4.4,3.9-4.4s3.9,1.6,3.9,4.4c0,2.7-1.5,4.4-3.9,4.4S7.7,112.1,7.7,109.4z M14,109.4 c0-2-0.9-3.1-2.5-3.1s-2.5,1.1-2.5,3.1c0,2,0.9,3.1,2.5,3.1S14,111.4,14,109.4z"/><path class="st0" d="M25.3,109.4c0,2.6-1.4,4.4-3.5,4.4c-1.2,0-2.2-0.5-2.6-1.4H19v4.1h-1.3v-11.2h1.3v1.4H19 c0.5-1,1.5-1.6,2.7-1.6C23.9,105.1,25.3,106.8,25.3,109.4z M23.9,109.4c0-2-0.9-3.1-2.5-3.1c-1.5,0-2.5,1.2-2.5,3.1 c0,1.9,1,3.1,2.5,3.1C23,112.6,23.9,111.4,23.9,109.4z"/><path class="st0" d="M34.4,111.4c-0.4,1.4-1.7,2.3-3.5,2.3c-2.3,0-3.8-1.7-3.8-4.4c0-2.6,1.5-4.4,3.8-4.4c2.3,0,3.7,1.6,3.7,4.2 v0.5h-6.1v0.1c0.1,1.7,1,2.7,2.4,2.7c1.1,0,1.8-0.4,2.2-1.1H34.4z M28.5,108.7h4.6c0-1.5-0.9-2.5-2.3-2.5 C29.5,106.2,28.6,107.2,28.5,108.7z"/><path class="st0" d="M36.8,105.2h1.3v1.2h0.1c0.2-0.8,1.2-1.4,2.3-1.4c0.2,0,0.5,0,0.7,0v1.3c-0.1,0-0.6-0.1-0.9-0.1 c-1.3,0-2.2,0.9-2.2,2v5.2h-1.3V105.2z"/><path class="st0" d="M42.5,111.3c0-1.5,1.1-2.4,3.1-2.5l2.4-0.1v-0.8c0-1-0.6-1.6-1.9-1.6c-1,0-1.7,0.4-1.9,1h-1.4 c0.2-1.4,1.5-2.2,3.3-2.2c2.1,0,3.2,1.1,3.2,2.8v5.8h-1.3v-1.2H48c-0.5,0.9-1.5,1.4-2.6,1.4C43.7,113.8,42.5,112.8,42.5,111.3z M48,110.5v-0.8l-2.3,0.1c-1.3,0.1-1.8,0.5-1.8,1.4c0,0.9,0.7,1.4,1.7,1.4C47,112.6,48,111.7,48,110.5z"/><path class="st0" d="M53.8,103v2.2h1.9v1.1h-1.9v4.8c0,1,0.4,1.4,1.2,1.4c0.2,0,0.4,0,0.6,0v1.1c-0.3,0-0.5,0.1-0.8,0.1 c-1.7,0-2.4-0.6-2.4-2.2v-5.1h-1.4v-1.1h1.4V103H53.8z"/><path class="st0" d="M57.1,109.4c0-2.7,1.5-4.4,3.9-4.4s3.9,1.6,3.9,4.4c0,2.7-1.5,4.4-3.9,4.4S57.1,112.1,57.1,109.4z M63.4,109.4 c0-2-0.9-3.1-2.5-3.1s-2.5,1.1-2.5,3.1c0,2,0.9,3.1,2.5,3.1S63.4,111.4,63.4,109.4z"/><path class="st0" d="M67,105.2h1.3v1.2h0.1c0.2-0.8,1.2-1.4,2.3-1.4c0.2,0,0.5,0,0.7,0v1.3c-0.1,0-0.6-0.1-0.9-0.1 c-1.3,0-2.2,0.9-2.2,2v5.2H67V105.2z"/><path class="st0" d="M76.2,105.1c1.8,0,3,0.9,3.2,2.3h-1.3c-0.2-0.7-0.8-1.1-1.9-1.1c-1,0-1.8,0.5-1.8,1.3c0,0.6,0.5,0.9,1.5,1.2 l1.3,0.3c1.6,0.4,2.4,1.1,2.4,2.3c0,1.5-1.5,2.5-3.4,2.5c-1.9,0-3.2-0.9-3.3-2.3h1.4c0.2,0.7,0.9,1.2,2,1.2c1.1,0,1.9-0.5,1.9-1.3 c0-0.6-0.4-1-1.3-1.2l-1.4-0.4c-1.6-0.4-2.3-1.1-2.3-2.3C73.1,106.1,74.4,105.1,76.2,105.1z"/><path class="st0" d="M81.4,116.5l0.7-4.4h1.5l-1.2,4.4H81.4z"/><path class="st0" d="M90.7,109.4c0-2.6,1.4-4.4,3.5-4.4c1.2,0,2.2,0.6,2.6,1.5H97v-4.7h1.3v11.8h-1.3v-1.3H97 c-0.5,0.9-1.5,1.5-2.7,1.5C92.1,113.8,90.7,112.1,90.7,109.4z M92.1,109.4c0,2,0.9,3.1,2.5,3.1c1.5,0,2.5-1.2,2.5-3.1 c0-1.9-1-3.1-2.5-3.1C93.1,106.3,92.1,107.5,92.1,109.4z"/><path class="st0" d="M108,111.4c-0.4,1.4-1.7,2.3-3.5,2.3c-2.3,0-3.8-1.7-3.8-4.4c0-2.6,1.5-4.4,3.8-4.4c2.3,0,3.7,1.6,3.7,4.2v0.5 H102v0.1c0.1,1.7,1,2.7,2.4,2.7c1.1,0,1.8-0.4,2.2-1.1H108z M102,108.7h4.6c0-1.5-0.9-2.5-2.3-2.5 C103.1,106.2,102.1,107.2,102,108.7z"/><path class="st0" d="M113.8,113.6h-1.4l-3.1-8.4h1.4l2.3,6.9h0.1l2.3-6.9h1.4L113.8,113.6z"/><path class="st0" d="M118.5,102.6c0-0.5,0.4-0.9,0.9-0.9s0.9,0.4,0.9,0.9s-0.4,0.9-0.9,0.9S118.5,103.2,118.5,102.6z M118.8,105.2 h1.3v8.4h-1.3V105.2z"/><path class="st0" d="M128.3,107.8c-0.2-0.8-1-1.5-2.2-1.5c-1.5,0-2.5,1.2-2.5,3.1c0,1.9,1,3.2,2.5,3.2c1.1,0,1.9-0.5,2.2-1.5h1.4 c-0.2,1.5-1.5,2.7-3.5,2.7c-2.4,0-3.9-1.7-3.9-4.4c0-2.6,1.5-4.3,3.9-4.3c2,0,3.3,1.2,3.5,2.7H128.3z"/><path class="st0" d="M138.7,111.4c-0.4,1.4-1.7,2.3-3.5,2.3c-2.3,0-3.8-1.7-3.8-4.4c0-2.6,1.5-4.4,3.8-4.4c2.3,0,3.7,1.6,3.7,4.2 v0.5h-6.1v0.1c0.1,1.7,1,2.7,2.4,2.7c1.1,0,1.8-0.4,2.2-1.1H138.7z M132.8,108.7h4.6c0-1.5-0.9-2.5-2.3-2.5 C133.8,106.2,132.9,107.2,132.8,108.7z"/><path class="st0" d="M144,105.1c1.8,0,3,0.9,3.2,2.3h-1.3c-0.2-0.7-0.8-1.1-1.9-1.1c-1,0-1.8,0.5-1.8,1.3c0,0.6,0.5,0.9,1.5,1.2 l1.3,0.3c1.6,0.4,2.4,1.1,2.4,2.3c0,1.5-1.5,2.5-3.4,2.5c-1.9,0-3.2-0.9-3.3-2.3h1.4c0.2,0.7,0.9,1.2,2,1.2c1.1,0,1.9-0.5,1.9-1.3 c0-0.6-0.4-1-1.3-1.2l-1.4-0.4c-1.6-0.4-2.3-1.1-2.3-2.3C140.8,106.1,142.2,105.1,144,105.1z"/><path class="st0" d="M154.1,116.5l0.7-4.4h1.5l-1.2,4.4H154.1z"/><path class="st0" d="M163.4,109.4c0-2.7,1.5-4.4,3.9-4.4s3.9,1.6,3.9,4.4c0,2.7-1.5,4.4-3.9,4.4S163.4,112.1,163.4,109.4z M169.8,109.4c0-2-0.9-3.1-2.5-3.1s-2.5,1.1-2.5,3.1c0,2,0.9,3.1,2.5,3.1S169.8,111.4,169.8,109.4z"/><path class="st0" d="M181,109.4c0,2.6-1.4,4.4-3.5,4.4c-1.2,0-2.2-0.5-2.6-1.4h-0.1v4.1h-1.3v-11.2h1.3v1.4h0.1 c0.5-1,1.5-1.6,2.7-1.6C179.6,105.1,181,106.8,181,109.4z M179.6,109.4c0-2-0.9-3.1-2.5-3.1c-1.5,0-2.5,1.2-2.5,3.1 c0,1.9,1,3.1,2.5,3.1C178.7,112.6,179.6,111.4,179.6,109.4z"/><path class="st0" d="M190.2,111.4c-0.4,1.4-1.7,2.3-3.5,2.3c-2.3,0-3.8-1.7-3.8-4.4c0-2.6,1.5-4.4,3.8-4.4c2.3,0,3.7,1.6,3.7,4.2 v0.5h-6.1v0.1c0.1,1.7,1,2.7,2.4,2.7c1.1,0,1.8-0.4,2.2-1.1H190.2z M184.2,108.7h4.6c0-1.5-0.9-2.5-2.3-2.5 C185.3,106.2,184.3,107.2,184.2,108.7z"/><path class="st0" d="M192.5,105.2h1.3v1.2h0.1c0.2-0.8,1.2-1.4,2.3-1.4c0.2,0,0.5,0,0.7,0v1.3c-0.1,0-0.6-0.1-0.9-0.1 c-1.3,0-2.2,0.9-2.2,2v5.2h-1.3V105.2z"/><path class="st0" d="M198.2,111.3c0-1.5,1.1-2.4,3.1-2.5l2.4-0.1v-0.8c0-1-0.6-1.6-1.9-1.6c-1,0-1.7,0.4-1.9,1h-1.4 c0.2-1.4,1.5-2.2,3.3-2.2c2.1,0,3.2,1.1,3.2,2.8v5.8h-1.3v-1.2h-0.1c-0.5,0.9-1.5,1.4-2.6,1.4C199.5,113.8,198.2,112.8,198.2,111.3 z M203.7,110.5v-0.8l-2.3,0.1c-1.3,0.1-1.8,0.5-1.8,1.4c0,0.9,0.7,1.4,1.7,1.4C202.7,112.6,203.7,111.7,203.7,110.5z"/><path class="st0" d="M209.5,103v2.2h1.9v1.1h-1.9v4.8c0,1,0.4,1.4,1.2,1.4c0.2,0,0.4,0,0.6,0v1.1c-0.3,0-0.5,0.1-0.8,0.1 c-1.7,0-2.4-0.6-2.4-2.2v-5.1h-1.4v-1.1h1.4V103H209.5z"/><path class="st0" d="M213.1,102.6c0-0.5,0.4-0.9,0.9-0.9s0.9,0.4,0.9,0.9s-0.4,0.9-0.9,0.9S213.1,103.2,213.1,102.6z M213.4,105.2 h1.3v8.4h-1.3V105.2z"/><path class="st0" d="M217.4,105.2h1.3v1.3h0.1c0.4-0.9,1.2-1.5,2.5-1.5c1.9,0,2.9,1.1,2.9,3.1v5.5h-1.3v-5.1c0-1.5-0.6-2.2-2-2.2 s-2.2,0.9-2.2,2.4v5h-1.3V105.2z"/><path class="st0" d="M226.7,114.6h1.4c0.1,0.7,0.9,1.1,2.1,1.1c1.5,0,2.4-0.7,2.4-2V112h-0.1c-0.5,0.9-1.5,1.5-2.6,1.5 c-2.2,0-3.5-1.7-3.5-4.2s1.4-4.2,3.5-4.2c1.2,0,2.2,0.6,2.7,1.5h0.1v-1.3h1.3v8.6c0,1.9-1.5,3.1-3.8,3.1 C228.2,116.9,226.9,115.9,226.7,114.6z M232.7,109.3c0-1.8-0.9-3-2.5-3c-1.6,0-2.4,1.2-2.4,3s0.9,3,2.4,3S232.7,111.1,232.7,109.3z"/><path class="st0" d="M244.3,105.1c1.8,0,3,0.9,3.2,2.3h-1.3c-0.2-0.7-0.8-1.1-1.9-1.1c-1,0-1.8,0.5-1.8,1.3c0,0.6,0.5,0.9,1.5,1.2 l1.3,0.3c1.6,0.4,2.4,1.1,2.4,2.3c0,1.5-1.5,2.5-3.4,2.5c-1.9,0-3.2-0.9-3.3-2.3h1.4c0.2,0.7,0.9,1.2,2,1.2c1.1,0,1.9-0.5,1.9-1.3 c0-0.6-0.4-1-1.3-1.2l-1.4-0.4c-1.6-0.4-2.3-1.1-2.3-2.3C241.2,106.1,242.5,105.1,244.3,105.1z"/><path class="st0" d="M249.8,116.6v-1.1c0.2,0,0.4,0,0.6,0c0.8,0,1.2-0.4,1.5-1.4l0.2-0.5l-3.1-8.4h1.5l2.3,6.9h0.1l2.3-6.9h1.4 l-3.3,8.9c-0.7,2-1.4,2.5-2.9,2.5C250.2,116.7,250,116.7,249.8,116.6z"/><path class="st0" d="M261.2,105.1c1.8,0,3,0.9,3.2,2.3H263c-0.2-0.7-0.8-1.1-1.9-1.1c-1,0-1.8,0.5-1.8,1.3c0,0.6,0.5,0.9,1.5,1.2 l1.3,0.3c1.6,0.4,2.4,1.1,2.4,2.3c0,1.5-1.5,2.5-3.4,2.5c-1.9,0-3.2-0.9-3.3-2.3h1.4c0.2,0.7,0.9,1.2,2,1.2c1.1,0,1.9-0.5,1.9-1.3 c0-0.6-0.4-1-1.3-1.2l-1.4-0.4c-1.6-0.4-2.3-1.1-2.3-2.3C258,106.1,259.4,105.1,261.2,105.1z"/><path class="st0" d="M268.7,103v2.2h1.9v1.1h-1.9v4.8c0,1,0.4,1.4,1.2,1.4c0.2,0,0.4,0,0.6,0v1.1c-0.3,0-0.5,0.1-0.8,0.1 c-1.7,0-2.4-0.6-2.4-2.2v-5.1H266v-1.1h1.4V103H268.7z"/><path class="st0" d="M279.3,111.4c-0.4,1.4-1.7,2.3-3.5,2.3c-2.3,0-3.8-1.7-3.8-4.4c0-2.6,1.5-4.4,3.8-4.4c2.3,0,3.7,1.6,3.7,4.2 v0.5h-6.1v0.1c0.1,1.7,1,2.7,2.4,2.7c1.1,0,1.8-0.4,2.2-1.1H279.3z M273.4,108.7h4.6c0-1.5-0.9-2.5-2.3-2.5 C274.4,106.2,273.5,107.2,273.4,108.7z"/><path class="st0" d="M281.6,105.2h1.3v1.3h0.1c0.4-0.9,1.2-1.5,2.4-1.5c1.1,0,1.9,0.6,2.3,1.5h0.1c0.5-0.9,1.4-1.5,2.6-1.5 c1.7,0,2.7,1,2.7,2.8v5.8h-1.3v-5.5c0-1.2-0.6-1.9-1.8-1.9c-1.2,0-2,0.9-2,1.9v5.4h-1.3v-5.7c0-1-0.7-1.6-1.8-1.6c-1.1,0-2,1-2,2.1 v5.2h-1.3V105.2z"/><path class="st0" d="M298.6,105.1c1.8,0,3,0.9,3.2,2.3h-1.3c-0.2-0.7-0.8-1.1-1.9-1.1c-1,0-1.8,0.5-1.8,1.3c0,0.6,0.5,0.9,1.5,1.2 l1.3,0.3c1.6,0.4,2.4,1.1,2.4,2.3c0,1.5-1.5,2.5-3.4,2.5c-1.9,0-3.2-0.9-3.3-2.3h1.4c0.2,0.7,0.9,1.2,2,1.2c1.1,0,1.9-0.5,1.9-1.3 c0-0.6-0.4-1-1.3-1.2l-1.4-0.4c-1.6-0.4-2.3-1.1-2.3-2.3C295.4,106.1,296.8,105.1,298.6,105.1z"/><path class="st0" d="M7.8,146.3c0-4.1,2.3-6.7,6-6.7c3,0,5.3,2,5.5,4.8h-2.6c-0.3-1.5-1.4-2.4-2.9-2.4c-2,0-3.2,1.7-3.2,4.3 s1.2,4.3,3.2,4.3c1.5,0,2.7-0.9,2.9-2.3h2.6c-0.2,2.7-2.5,4.6-5.5,4.6C10.1,153,7.8,150.4,7.8,146.3z"/><path class="st0" d="M21.7,139.2h2.5v5.3h0.2c0.4-1.1,1.5-1.8,2.9-1.8c2.1,0,3.3,1.3,3.3,3.6v6.2H28V147c0-1.3-0.6-2-1.8-2 c-1.3,0-2,0.9-2,2.1v5.6h-2.6V139.2z"/><path class="st0" d="M32.7,147.8c0-3.1,1.8-5.1,4.8-5.1s4.8,1.9,4.8,5.1c0,3.2-1.8,5.1-4.8,5.1S32.7,150.9,32.7,147.8z M39.6,147.8 c0-1.9-0.8-3-2.1-3c-1.4,0-2.1,1.1-2.1,3c0,1.9,0.8,3,2.1,3C38.9,150.7,39.6,149.7,39.6,147.8z"/><path class="st0" d="M44.3,140c0-0.8,0.7-1.5,1.5-1.5c0.8,0,1.5,0.6,1.5,1.5s-0.7,1.5-1.5,1.5C45,141.5,44.3,140.8,44.3,140z M44.5,142.9H47v9.7h-2.6V142.9z"/><path class="st0" d="M55.9,146.4c-0.2-0.9-0.8-1.5-1.9-1.5c-1.4,0-2.2,1-2.2,2.9c0,1.9,0.8,3,2.2,3c1,0,1.7-0.5,1.9-1.5h2.4 c-0.2,2.2-1.8,3.6-4.3,3.6c-3,0-4.7-1.8-4.7-5.1c0-3.2,1.7-5,4.7-5c2.6,0,4.1,1.4,4.3,3.6H55.9z"/><path class="st0" d="M69.1,149.9c-0.4,1.8-2.1,3-4.4,3c-3,0-4.7-1.9-4.7-5c0-3.2,1.8-5.1,4.7-5.1c2.9,0,4.5,1.8,4.5,4.9v0.8h-6.7 v0.1c0,1.4,0.9,2.3,2.2,2.3c1,0,1.7-0.4,2-1H69.1z M62.5,146.8h4.1c-0.1-1.3-0.8-2.1-2-2.1C63.4,144.7,62.6,145.5,62.5,146.8z"/><path class="st0" d="M11.9,176.6h-1.3l-3.1-11.3H9l2.2,9.2h0.1l2.5-9.2h1.4l2.5,9.2h0.1l2.2-9.2h1.5l-3.1,11.3h-1.3l-2.6-8.9h-0.1 L11.9,176.6z"/><path class="st0" d="M22.7,172.4c0-2.7,1.5-4.4,3.9-4.4s3.9,1.6,3.9,4.4c0,2.7-1.5,4.4-3.9,4.4S22.7,175.1,22.7,172.4z M29.1,172.4 c0-2-0.9-3.1-2.5-3.1s-2.5,1.1-2.5,3.1c0,2,0.9,3.1,2.5,3.1S29.1,174.4,29.1,172.4z"/><path class="st0" d="M32.7,168.2H34v1.2h0.1c0.2-0.8,1.2-1.4,2.3-1.4c0.2,0,0.5,0,0.7,0v1.3c-0.1,0-0.6-0.1-0.9-0.1 c-1.3,0-2.2,0.9-2.2,2v5.2h-1.3V168.2z"/><path class="st0" d="M44.1,168.2h1.6l-3.6,3.6l3.9,4.8h-1.7l-3.2-3.9l-0.8,0.8v3.2H39v-11.8h1.3v7h0.1L44.1,168.2z"/><path class="st0" d="M50.4,168.1c1.8,0,3,0.9,3.2,2.3h-1.3c-0.2-0.7-0.8-1.1-1.9-1.1c-1,0-1.8,0.5-1.8,1.3c0,0.6,0.5,0.9,1.5,1.2 l1.3,0.3c1.6,0.4,2.4,1.1,2.4,2.3c0,1.5-1.5,2.5-3.4,2.5c-1.9,0-3.2-0.9-3.3-2.3h1.4c0.2,0.7,0.9,1.2,2,1.2c1.1,0,1.9-0.5,1.9-1.3 c0-0.6-0.4-1-1.3-1.2l-1.4-0.4c-1.6-0.4-2.3-1.1-2.3-2.3C47.3,169.1,48.6,168.1,50.4,168.1z"/><path class="st0" d="M68.9,176.6h-1.4l-1.9-6.5h-0.1l-1.9,6.5h-1.4l-2.4-8.4h1.4l1.7,6.7h0.1l1.9-6.7h1.3l1.9,6.7h0.1l1.7-6.7h1.4 L68.9,176.6z"/><path class="st0" d="M72.9,165.6c0-0.5,0.4-0.9,0.9-0.9s0.9,0.4,0.9,0.9s-0.4,0.9-0.9,0.9S72.9,166.2,72.9,165.6z M73.1,168.2h1.3 v8.4h-1.3V168.2z"/><path class="st0" d="M79,166v2.2h1.9v1.1H79v4.8c0,1,0.4,1.4,1.2,1.4c0.2,0,0.4,0,0.6,0v1.1c-0.3,0-0.5,0.1-0.8,0.1 c-1.7,0-2.4-0.6-2.4-2.2v-5.1h-1.4v-1.1h1.4V166H79z"/><path class="st0" d="M83,164.9h1.3v4.7h0.1c0.4-0.9,1.3-1.5,2.6-1.5c1.8,0,2.9,1.1,2.9,3.1v5.5h-1.3v-5.1c0-1.5-0.7-2.2-1.9-2.2 c-1.5,0-2.3,1-2.3,2.4v5H83V164.9z"/><path class="st0" d="M96.8,172.4c0-2.7,1.5-4.4,3.9-4.4s3.9,1.6,3.9,4.4c0,2.7-1.5,4.4-3.9,4.4S96.8,175.1,96.8,172.4z M103.2,172.4c0-2-0.9-3.1-2.5-3.1s-2.5,1.1-2.5,3.1c0,2,0.9,3.1,2.5,3.1S103.2,174.4,103.2,172.4z"/><path class="st0" d="M114.4,172.4c0,2.6-1.4,4.4-3.5,4.4c-1.2,0-2.2-0.5-2.6-1.4h-0.1v4.1h-1.3v-11.2h1.3v1.4h0.1 c0.5-1,1.5-1.6,2.7-1.6C113,168.1,114.4,169.8,114.4,172.4z M113,172.4c0-2-0.9-3.1-2.5-3.1c-1.5,0-2.5,1.2-2.5,3.1 c0,1.9,1,3.1,2.5,3.1C112.1,175.6,113,174.4,113,172.4z"/><path class="st0" d="M123.6,174.4c-0.4,1.4-1.7,2.3-3.5,2.3c-2.3,0-3.8-1.7-3.8-4.4c0-2.6,1.5-4.4,3.8-4.4c2.3,0,3.7,1.6,3.7,4.2 v0.5h-6.1v0.1c0.1,1.7,1,2.7,2.4,2.7c1.1,0,1.8-0.4,2.2-1.1H123.6z M117.6,171.7h4.6c0-1.5-0.9-2.5-2.3-2.5 C118.7,169.2,117.7,170.2,117.6,171.7z"/><path class="st0" d="M125.9,168.2h1.3v1.2h0.1c0.2-0.8,1.2-1.4,2.3-1.4c0.2,0,0.5,0,0.7,0v1.3c-0.1,0-0.6-0.1-0.9-0.1 c-1.3,0-2.2,0.9-2.2,2v5.2h-1.3V168.2z"/><path class="st0" d="M131.6,174.3c0-1.5,1.1-2.4,3.1-2.5l2.4-0.1v-0.8c0-1-0.6-1.6-1.9-1.6c-1,0-1.7,0.4-1.9,1H132 c0.2-1.4,1.5-2.2,3.3-2.2c2.1,0,3.2,1.1,3.2,2.8v5.8h-1.3v-1.2h-0.1c-0.5,0.9-1.5,1.4-2.6,1.4C132.9,176.8,131.6,175.8,131.6,174.3 z M137.1,173.5v-0.8l-2.3,0.1c-1.3,0.1-1.8,0.5-1.8,1.4c0,0.9,0.7,1.4,1.7,1.4C136.1,175.6,137.1,174.7,137.1,173.5z"/><path class="st0" d="M142.9,166v2.2h1.9v1.1h-1.9v4.8c0,1,0.4,1.4,1.2,1.4c0.2,0,0.4,0,0.6,0v1.1c-0.3,0-0.5,0.1-0.8,0.1 c-1.7,0-2.4-0.6-2.4-2.2v-5.1h-1.4v-1.1h1.4V166H142.9z"/><path class="st0" d="M146.2,172.4c0-2.7,1.5-4.4,3.9-4.4s3.9,1.6,3.9,4.4c0,2.7-1.5,4.4-3.9,4.4S146.2,175.1,146.2,172.4z M152.6,172.4c0-2-0.9-3.1-2.5-3.1s-2.5,1.1-2.5,3.1c0,2,0.9,3.1,2.5,3.1S152.6,174.4,152.6,172.4z"/><path class="st0" d="M156.2,168.2h1.3v1.2h0.1c0.2-0.8,1.2-1.4,2.3-1.4c0.2,0,0.5,0,0.7,0v1.3c-0.1,0-0.6-0.1-0.9-0.1 c-1.3,0-2.2,0.9-2.2,2v5.2h-1.3V168.2z"/><path class="st0" d="M165.4,168.1c1.8,0,3,0.9,3.2,2.3h-1.3c-0.2-0.7-0.8-1.1-1.9-1.1c-1,0-1.8,0.5-1.8,1.3c0,0.6,0.5,0.9,1.5,1.2 l1.3,0.3c1.6,0.4,2.4,1.1,2.4,2.3c0,1.5-1.5,2.5-3.4,2.5c-1.9,0-3.2-0.9-3.3-2.3h1.4c0.2,0.7,0.9,1.2,2,1.2c1.1,0,1.9-0.5,1.9-1.3 c0-0.6-0.4-1-1.3-1.2l-1.4-0.4c-1.6-0.4-2.3-1.1-2.3-2.3C162.2,169.1,163.6,168.1,165.4,168.1z"/><path class="st0" d="M182.7,175.5c-1,0.8-2.3,1.3-3.6,1.3c-2.2,0-3.8-1.3-3.8-3.2c0-1.3,0.7-2.4,2.2-3.1c0.1,0,0.3-0.2,0.4-0.2 c-1-1.1-1.4-1.8-1.4-2.6c0-1.4,1.2-2.5,2.9-2.5c1.7,0,2.9,1.1,2.9,2.5c0,1.2-0.7,2-2.4,2.9l2.8,3c0.4-0.7,0.5-1.6,0.5-3v-0.2h1.3 v0.2c0,1.8-0.3,3-0.9,4l2,2.1h-1.8L182.7,175.5z M176.7,173.5c0,1.3,1,2.1,2.5,2.1c1,0,2.1-0.4,2.7-1.1l-3.2-3.5 c-0.1,0-0.3,0.1-0.4,0.2C177.2,171.9,176.7,172.6,176.7,173.5z M180.9,167.7c0-0.9-0.6-1.5-1.5-1.5c-0.9,0-1.5,0.6-1.5,1.5 c0,0.6,0.3,1.2,1.2,2.1C180.4,169,180.9,168.5,180.9,167.7z"/><path class="st0" d="M198.8,174.4c-0.4,1.4-1.7,2.3-3.5,2.3c-2.3,0-3.8-1.7-3.8-4.4c0-2.6,1.5-4.4,3.8-4.4c2.3,0,3.7,1.6,3.7,4.2 v0.5h-6.1v0.1c0.1,1.7,1,2.7,2.4,2.7c1.1,0,1.8-0.4,2.2-1.1H198.8z M192.8,171.7h4.6c0-1.5-0.9-2.5-2.3-2.5 C193.9,169.2,192.9,170.2,192.8,171.7z"/><path class="st0" d="M201.1,168.2h1.3v1.3h0.1c0.4-0.9,1.2-1.5,2.5-1.5c1.9,0,2.9,1.1,2.9,3.1v5.5h-1.3v-5.1c0-1.5-0.6-2.2-2-2.2 s-2.2,0.9-2.2,2.4v5h-1.3V168.2z"/><path class="st0" d="M210.1,172.4c0-2.6,1.4-4.4,3.5-4.4c1.2,0,2.2,0.6,2.6,1.5h0.1v-4.7h1.3v11.8h-1.3v-1.3h-0.1 c-0.5,0.9-1.5,1.5-2.7,1.5C211.5,176.8,210.1,175.1,210.1,172.4z M211.5,172.4c0,2,0.9,3.1,2.5,3.1c1.5,0,2.5-1.2,2.5-3.1 c0-1.9-1-3.1-2.5-3.1C212.5,169.3,211.5,170.5,211.5,172.4z"/><path class="st0" d="M232.9,172.4c0,2.6-1.4,4.4-3.5,4.4c-1.2,0-2.2-0.5-2.6-1.4h-0.1v4.1h-1.3v-11.2h1.3v1.4h0.1 c0.5-1,1.5-1.6,2.7-1.6C231.5,168.1,232.9,169.8,232.9,172.4z M231.5,172.4c0-2-0.9-3.1-2.5-3.1c-1.5,0-2.5,1.2-2.5,3.1 c0,1.9,1,3.1,2.5,3.1C230.6,175.6,231.5,174.4,231.5,172.4z"/><path class="st0" d="M234.7,172.4c0-2.7,1.5-4.4,3.9-4.4s3.9,1.6,3.9,4.4c0,2.7-1.5,4.4-3.9,4.4S234.7,175.1,234.7,172.4z M241.1,172.4c0-2-0.9-3.1-2.5-3.1s-2.5,1.1-2.5,3.1c0,2,0.9,3.1,2.5,3.1S241.1,174.4,241.1,172.4z"/><path class="st0" d="M244.4,165.6c0-0.5,0.4-0.9,0.9-0.9s0.9,0.4,0.9,0.9s-0.4,0.9-0.9,0.9S244.4,166.2,244.4,165.6z M244.6,168.2 h1.3v8.4h-1.3V168.2z"/><path class="st0" d="M248.6,168.2h1.3v1.3h0.1c0.4-0.9,1.2-1.5,2.5-1.5c1.9,0,2.9,1.1,2.9,3.1v5.5h-1.3v-5.1c0-1.5-0.6-2.2-2-2.2 s-2.2,0.9-2.2,2.4v5h-1.3V168.2z"/><path class="st0" d="M259.9,166v2.2h1.9v1.1h-1.9v4.8c0,1,0.4,1.4,1.2,1.4c0.2,0,0.4,0,0.6,0v1.1c-0.3,0-0.5,0.1-0.8,0.1 c-1.7,0-2.4-0.6-2.4-2.2v-5.1h-1.4v-1.1h1.4V166H259.9z"/><path class="st0" d="M266.8,168.1c1.8,0,3,0.9,3.2,2.3h-1.3c-0.2-0.7-0.8-1.1-1.9-1.1c-1,0-1.8,0.5-1.8,1.3c0,0.6,0.5,0.9,1.5,1.2 l1.3,0.3c1.6,0.4,2.4,1.1,2.4,2.3c0,1.5-1.5,2.5-3.4,2.5c-1.9,0-3.2-0.9-3.3-2.3h1.4c0.2,0.7,0.9,1.2,2,1.2c1.1,0,1.9-0.5,1.9-1.3 c0-0.6-0.4-1-1.3-1.2l-1.4-0.4c-1.6-0.4-2.3-1.1-2.3-2.3C263.7,169.1,265,168.1,266.8,168.1z"/><path class="st0" d="M7.6,198.3c0-1.5,1.1-2.4,3.1-2.5l2.4-0.1v-0.8c0-1-0.6-1.6-1.9-1.6c-1,0-1.7,0.4-1.9,1H7.9 c0.2-1.4,1.5-2.2,3.3-2.2c2.1,0,3.2,1.1,3.2,2.8v5.8h-1.3v-1.2H13c-0.5,0.9-1.5,1.4-2.6,1.4C8.8,200.8,7.6,199.8,7.6,198.3z M13.1,197.5v-0.8l-2.3,0.1c-1.3,0.1-1.8,0.5-1.8,1.4c0,0.9,0.7,1.4,1.7,1.4C12.1,199.6,13.1,198.7,13.1,197.5z"/><path class="st0" d="M17,192.2h1.3v1.2h0.1c0.2-0.8,1.2-1.4,2.3-1.4c0.2,0,0.5,0,0.7,0v1.3c-0.1,0-0.6-0.1-0.9-0.1 c-1.3,0-2.2,0.9-2.2,2v5.2H17V192.2z"/><path class="st0" d="M22.7,196.4c0-2.7,1.5-4.4,3.9-4.4s3.9,1.6,3.9,4.4c0,2.7-1.5,4.4-3.9,4.4S22.7,199.1,22.7,196.4z M29.1,196.4 c0-2-0.9-3.1-2.5-3.1s-2.5,1.1-2.5,3.1c0,2,0.9,3.1,2.5,3.1S29.1,198.4,29.1,196.4z"/><path class="st0" d="M39.5,200.6h-1.3v-1.3h-0.1c-0.4,0.9-1.3,1.5-2.6,1.5c-1.9,0-2.9-1.1-2.9-3.1v-5.5H34v5.1 c0,1.5,0.6,2.2,1.9,2.2c1.5,0,2.3-0.9,2.3-2.4v-5h1.3V200.6z"/><path class="st0" d="M42.1,192.2h1.3v1.3h0.1c0.4-0.9,1.2-1.5,2.5-1.5c1.9,0,2.9,1.1,2.9,3.1v5.5h-1.3v-5.1c0-1.5-0.6-2.2-2-2.2 s-2.2,0.9-2.2,2.4v5h-1.3V192.2z"/><path class="st0" d="M51.2,196.4c0-2.6,1.4-4.4,3.5-4.4c1.2,0,2.2,0.6,2.6,1.5h0.1v-4.7h1.3v11.8h-1.3v-1.3h-0.1 c-0.5,0.9-1.5,1.5-2.7,1.5C52.5,200.8,51.2,199.1,51.2,196.4z M52.5,196.4c0,2,0.9,3.1,2.5,3.1c1.5,0,2.5-1.2,2.5-3.1 c0-1.9-1-3.1-2.5-3.1C53.5,193.3,52.5,194.5,52.5,196.4z"/><path class="st0" d="M68.2,190v2.2H70v1.1h-1.9v4.8c0,1,0.4,1.4,1.2,1.4c0.2,0,0.4,0,0.6,0v1.1c-0.3,0-0.5,0.1-0.8,0.1 c-1.7,0-2.4-0.6-2.4-2.2v-5.1h-1.4v-1.1h1.4V190H68.2z"/><path class="st0" d="M72.1,188.9h1.3v4.7h0.1c0.4-0.9,1.3-1.5,2.6-1.5c1.8,0,2.9,1.1,2.9,3.1v5.5h-1.3v-5.1c0-1.5-0.7-2.2-1.9-2.2 c-1.5,0-2.3,1-2.3,2.4v5h-1.3V188.9z"/><path class="st0" d="M88.5,198.4c-0.4,1.4-1.7,2.3-3.5,2.3c-2.3,0-3.8-1.7-3.8-4.4c0-2.6,1.5-4.4,3.8-4.4c2.3,0,3.7,1.6,3.7,4.2 v0.5h-6.1v0.1c0.1,1.7,1,2.7,2.4,2.7c1.1,0,1.8-0.4,2.2-1.1H88.5z M82.6,195.7h4.6c0-1.5-0.9-2.5-2.3-2.5 C83.6,193.2,82.7,194.2,82.6,195.7z"/><path class="st0" d="M95.5,201.6h1.4c0.1,0.7,0.9,1.1,2.1,1.1c1.5,0,2.4-0.7,2.4-2V199h-0.1c-0.5,0.9-1.5,1.5-2.6,1.5 c-2.2,0-3.5-1.7-3.5-4.2s1.4-4.2,3.5-4.2c1.2,0,2.2,0.6,2.7,1.5h0.1v-1.3h1.3v8.6c0,1.9-1.5,3.1-3.8,3.1 C97,203.9,95.7,202.9,95.5,201.6z M101.5,196.3c0-1.8-0.9-3-2.5-3c-1.6,0-2.4,1.2-2.4,3s0.9,3,2.4,3S101.5,198.1,101.5,196.3z"/><path class="st0" d="M105.5,188.9h1.3v11.8h-1.3V188.9z"/><path class="st0" d="M109.1,196.4c0-2.7,1.5-4.4,3.9-4.4s3.9,1.6,3.9,4.4c0,2.7-1.5,4.4-3.9,4.4S109.1,199.1,109.1,196.4z M115.4,196.4c0-2-0.9-3.1-2.5-3.1s-2.5,1.1-2.5,3.1c0,2,0.9,3.1,2.5,3.1S115.4,198.4,115.4,196.4z"/><path class="st0" d="M120.5,199.3h-0.1v1.3h-1.3v-11.8h1.3v4.7h0.1c0.5-0.9,1.5-1.5,2.6-1.5c2.1,0,3.5,1.7,3.5,4.4 c0,2.6-1.4,4.4-3.5,4.4C122,200.8,121,200.2,120.5,199.3z M120.4,196.4c0,1.9,1,3.1,2.5,3.1c1.5,0,2.5-1.2,2.5-3.1 s-0.9-3.1-2.5-3.1C121.4,193.3,120.4,194.5,120.4,196.4z"/><path class="st0" d="M135.9,198.4c-0.4,1.4-1.7,2.3-3.5,2.3c-2.3,0-3.8-1.7-3.8-4.4c0-2.6,1.5-4.4,3.8-4.4c2.3,0,3.7,1.6,3.7,4.2 v0.5H130v0.1c0.1,1.7,1,2.7,2.4,2.7c1.1,0,1.8-0.4,2.2-1.1H135.9z M130,195.7h4.6c0-1.5-0.9-2.5-2.3-2.5 C131,193.2,130.1,194.2,130,195.7z"/><path class="st0" d="M11.4,239.6v-10.4H7.6v-2.3h10.3v2.3h-3.8v10.4H11.4z"/><path class="st0" d="M18.6,229.9h2.5v1.5h0.2c0.3-1,1.3-1.7,2.5-1.7c0.4,0,0.8,0,1,0.1v2.3c-0.2-0.1-0.8-0.2-1.2-0.2 c-1.4,0-2.4,0.8-2.4,2.2v5.4h-2.6V229.9z"/><path class="st0" d="M35.3,239.6h-2.5v-1.6h-0.2c-0.5,1.1-1.4,1.8-2.8,1.8c-2.1,0-3.4-1.3-3.4-3.6v-6.3H29v5.7c0,1.3,0.6,2,1.8,2 c1.3,0,2-0.8,2-2.1v-5.6h2.6V239.6z"/><path class="st0" d="M41.8,229.7c2.5,0,3.9,1,4.1,2.9h-2.4c-0.1-0.6-0.7-1-1.7-1c-0.9,0-1.6,0.4-1.6,1c0,0.5,0.4,0.8,1.3,1l1.8,0.4 c1.9,0.4,2.7,1.2,2.7,2.7c0,1.9-1.7,3.2-4.3,3.2c-2.6,0-4.1-1-4.3-2.9H40c0.2,0.7,0.8,1,1.8,1c1,0,1.7-0.4,1.7-1 c0-0.5-0.4-0.8-1.2-0.9l-1.8-0.4c-1.9-0.4-2.8-1.3-2.8-2.8C37.8,230.9,39.4,229.7,41.8,229.7z"/><path class="st0" d="M51.6,227.6v2.4h2v2h-2v4.4c0,0.8,0.4,1.2,1.3,1.2c0.3,0,0.5,0,0.8,0v2c-0.3,0.1-0.8,0.1-1.3,0.1 c-2.4,0-3.3-0.8-3.3-2.7v-5h-1.5v-2H49v-2.4H51.6z"/><path class="st0" d="M11.9,263.6h-1.3l-3.1-11.3H9l2.2,9.2h0.1l2.5-9.2h1.4l2.5,9.2h0.1l2.2-9.2h1.5l-3.1,11.3h-1.3l-2.6-8.9h-0.1 L11.9,263.6z"/><path class="st0" d="M30,261.4c-0.4,1.4-1.7,2.3-3.5,2.3c-2.3,0-3.8-1.7-3.8-4.4c0-2.6,1.5-4.4,3.8-4.4c2.3,0,3.7,1.6,3.7,4.2v0.5 H24v0.1c0.1,1.7,1,2.7,2.4,2.7c1.1,0,1.8-0.4,2.2-1.1H30z M24,258.7h4.6c0-1.5-0.9-2.5-2.3-2.5C25.1,256.2,24.2,257.2,24,258.7z"/><path class="st0" d="M44.7,259.4c0,2.6-1.4,4.4-3.5,4.4c-1.2,0-2.2-0.5-2.6-1.4h-0.1v4.1H37v-11.2h1.3v1.4h0.1 c0.5-1,1.5-1.6,2.7-1.6C43.3,255.1,44.7,256.8,44.7,259.4z M43.3,259.4c0-2-0.9-3.1-2.5-3.1c-1.5,0-2.5,1.2-2.5,3.1 c0,1.9,1,3.1,2.5,3.1C42.4,262.6,43.3,261.4,43.3,259.4z"/><path class="st0" d="M46.4,261.3c0-1.5,1.1-2.4,3.1-2.5l2.4-0.1v-0.8c0-1-0.6-1.6-1.9-1.6c-1,0-1.7,0.4-1.9,1h-1.4 c0.2-1.4,1.5-2.2,3.3-2.2c2.1,0,3.2,1.1,3.2,2.8v5.8H52v-1.2h-0.1c-0.5,0.9-1.5,1.4-2.6,1.4C47.6,263.8,46.4,262.8,46.4,261.3z M51.9,260.5v-0.8l-2.3,0.1c-1.3,0.1-1.8,0.5-1.8,1.4c0,0.9,0.7,1.4,1.7,1.4C50.9,262.6,51.9,261.7,51.9,260.5z"/><path class="st0" d="M58.7,255.1c1.8,0,3,0.9,3.2,2.3h-1.3c-0.2-0.7-0.8-1.1-1.9-1.1c-1,0-1.8,0.5-1.8,1.3c0,0.6,0.5,0.9,1.5,1.2 l1.3,0.3c1.6,0.4,2.4,1.1,2.4,2.3c0,1.5-1.5,2.5-3.4,2.5c-1.9,0-3.2-0.9-3.3-2.3h1.4c0.2,0.7,0.9,1.2,2,1.2c1.1,0,1.9-0.5,1.9-1.3 c0-0.6-0.4-1-1.3-1.2l-1.4-0.4c-1.6-0.4-2.3-1.1-2.3-2.3C55.6,256.1,56.9,255.1,58.7,255.1z"/><path class="st0" d="M67.2,255.1c1.8,0,3,0.9,3.2,2.3h-1.3c-0.2-0.7-0.8-1.1-1.9-1.1c-1,0-1.8,0.5-1.8,1.3c0,0.6,0.5,0.9,1.5,1.2 l1.3,0.3c1.6,0.4,2.4,1.1,2.4,2.3c0,1.5-1.5,2.5-3.4,2.5c-1.9,0-3.2-0.9-3.3-2.3h1.4c0.2,0.7,0.9,1.2,2,1.2c1.1,0,1.9-0.5,1.9-1.3 c0-0.6-0.4-1-1.3-1.2l-1.4-0.4c-1.6-0.4-2.3-1.1-2.3-2.3C64.1,256.1,65.4,255.1,67.2,255.1z"/><path class="st0" d="M84.3,263.6H83v-1.3h-0.1c-0.4,0.9-1.3,1.5-2.6,1.5c-1.9,0-2.9-1.1-2.9-3.1v-5.5h1.3v5.1 c0,1.5,0.6,2.2,1.9,2.2c1.5,0,2.3-0.9,2.3-2.4v-5h1.3V263.6z"/><path class="st0" d="M89.8,255.1c1.8,0,3,0.9,3.2,2.3h-1.3c-0.2-0.7-0.8-1.1-1.9-1.1c-1,0-1.8,0.5-1.8,1.3c0,0.6,0.5,0.9,1.5,1.2 l1.3,0.3c1.6,0.4,2.4,1.1,2.4,2.3c0,1.5-1.5,2.5-3.4,2.5c-1.9,0-3.2-0.9-3.3-2.3h1.4c0.2,0.7,0.9,1.2,2,1.2c1.1,0,1.9-0.5,1.9-1.3 c0-0.6-0.4-1-1.3-1.2l-1.4-0.4c-1.6-0.4-2.3-1.1-2.3-2.3C86.7,256.1,88,255.1,89.8,255.1z"/><path class="st0" d="M102.2,261.4c-0.4,1.4-1.7,2.3-3.5,2.3c-2.3,0-3.8-1.7-3.8-4.4c0-2.6,1.5-4.4,3.8-4.4c2.3,0,3.7,1.6,3.7,4.2 v0.5h-6.1v0.1c0.1,1.7,1,2.7,2.4,2.7c1.1,0,1.8-0.4,2.2-1.1H102.2z M96.3,258.7h4.6c0-1.5-0.9-2.5-2.3-2.5 C97.3,256.2,96.4,257.2,96.3,258.7z"/><path class="st0" d="M104.6,255.2h1.3v1.2h0.1c0.2-0.8,1.2-1.4,2.3-1.4c0.2,0,0.5,0,0.7,0v1.3c-0.1,0-0.6-0.1-0.9-0.1 c-1.3,0-2.2,0.9-2.2,2v5.2h-1.3V255.2z"/><path class="st0" d="M115.7,263.6v-11.3h1.4v11.3H115.7z"/><path class="st0" d="M124,252.4c3.3,0,5.3,2.1,5.3,5.6c0,3.6-2,5.6-5.3,5.6h-3.9v-11.3H124z M121.6,262.4h2.4c2.5,0,4-1.6,4-4.4 c0-2.8-1.5-4.4-4-4.4h-2.4V262.4z"/><path class="st0" d="M137.9,262.3h-0.1v1.3h-1.3v-11.8h1.3v4.7h0.1c0.5-0.9,1.5-1.5,2.6-1.5c2.1,0,3.5,1.7,3.5,4.4 c0,2.6-1.4,4.4-3.5,4.4C139.5,263.8,138.5,263.2,137.9,262.3z M137.9,259.4c0,1.9,1,3.1,2.5,3.1c1.5,0,2.5-1.2,2.5-3.1 s-0.9-3.1-2.5-3.1C138.8,256.3,137.9,257.5,137.9,259.4z"/><path class="st0" d="M153.3,261.4c-0.4,1.4-1.7,2.3-3.5,2.3c-2.3,0-3.8-1.7-3.8-4.4c0-2.6,1.5-4.4,3.8-4.4c2.3,0,3.7,1.6,3.7,4.2 v0.5h-6.1v0.1c0.1,1.7,1,2.7,2.4,2.7c1.1,0,1.8-0.4,2.2-1.1H153.3z M147.4,258.7h4.6c0-1.5-0.9-2.5-2.3-2.5 C148.4,256.2,147.5,257.2,147.4,258.7z"/><path class="st0" d="M157.4,253v2.2h1.9v1.1h-1.9v4.8c0,1,0.4,1.4,1.2,1.4c0.2,0,0.4,0,0.6,0v1.1c-0.3,0-0.5,0.1-0.8,0.1 c-1.7,0-2.4-0.6-2.4-2.2v-5.1h-1.4v-1.1h1.4V253H157.4z"/><path class="st0" d="M169.9,263.6h-1.4l-1.9-6.5h-0.1l-1.9,6.5h-1.4l-2.4-8.4h1.4l1.7,6.7h0.1l1.9-6.7h1.3l1.9,6.7h0.1l1.7-6.7h1.4 L169.9,263.6z"/><path class="st0" d="M180.8,261.4c-0.4,1.4-1.7,2.3-3.5,2.3c-2.3,0-3.8-1.7-3.8-4.4c0-2.6,1.5-4.4,3.8-4.4c2.3,0,3.7,1.6,3.7,4.2 v0.5h-6.1v0.1c0.1,1.7,1,2.7,2.4,2.7c1.1,0,1.8-0.4,2.2-1.1H180.8z M174.9,258.7h4.6c0-1.5-0.9-2.5-2.3-2.5 C175.9,256.2,175,257.2,174.9,258.7z"/><path class="st0" d="M190.1,261.4c-0.4,1.4-1.7,2.3-3.5,2.3c-2.3,0-3.8-1.7-3.8-4.4c0-2.6,1.5-4.4,3.8-4.4c2.3,0,3.7,1.6,3.7,4.2 v0.5h-6.1v0.1c0.1,1.7,1,2.7,2.4,2.7c1.1,0,1.8-0.4,2.2-1.1H190.1z M184.2,258.7h4.6c0-1.5-0.9-2.5-2.3-2.5 C185.2,256.2,184.3,257.2,184.2,258.7z"/><path class="st0" d="M192.5,255.2h1.3v1.3h0.1c0.4-0.9,1.2-1.5,2.5-1.5c1.9,0,2.9,1.1,2.9,3.1v5.5H198v-5.1c0-1.5-0.6-2.2-2-2.2 s-2.2,0.9-2.2,2.4v5h-1.3V255.2z"/><path class="st0" d="M206.1,261.3c0-1.5,1.1-2.4,3.1-2.5l2.4-0.1v-0.8c0-1-0.6-1.6-1.9-1.6c-1,0-1.7,0.4-1.9,1h-1.4 c0.2-1.4,1.5-2.2,3.3-2.2c2.1,0,3.2,1.1,3.2,2.8v5.8h-1.3v-1.2h-0.1c-0.5,0.9-1.5,1.4-2.6,1.4C207.3,263.8,206.1,262.8,206.1,261.3 z M211.6,260.5v-0.8l-2.3,0.1c-1.3,0.1-1.8,0.5-1.8,1.4c0,0.9,0.7,1.4,1.7,1.4C210.6,262.6,211.6,261.7,211.6,260.5z"/><path class="st0" d="M223.2,259.4c0,2.6-1.4,4.4-3.5,4.4c-1.2,0-2.2-0.5-2.6-1.4h-0.1v4.1h-1.3v-11.2h1.3v1.4h0.1 c0.5-1,1.5-1.6,2.7-1.6C221.8,255.1,223.2,256.8,223.2,259.4z M221.8,259.4c0-2-0.9-3.1-2.5-3.1c-1.5,0-2.5,1.2-2.5,3.1 c0,1.9,1,3.1,2.5,3.1C220.9,262.6,221.8,261.4,221.8,259.4z"/><path class="st0" d="M233.1,259.4c0,2.6-1.4,4.4-3.5,4.4c-1.2,0-2.2-0.5-2.6-1.4h-0.1v4.1h-1.3v-11.2h1.3v1.4h0.1 c0.5-1,1.5-1.6,2.7-1.6C231.7,255.1,233.1,256.8,233.1,259.4z M231.7,259.4c0-2-0.9-3.1-2.5-3.1c-1.5,0-2.5,1.2-2.5,3.1 c0,1.9,1,3.1,2.5,3.1C230.8,262.6,231.7,261.4,231.7,259.4z"/><path class="st0" d="M239.5,261.3c0-1.5,1.1-2.4,3.1-2.5l2.4-0.1v-0.8c0-1-0.6-1.6-1.9-1.6c-1,0-1.7,0.4-1.9,1h-1.4 c0.2-1.4,1.5-2.2,3.3-2.2c2.1,0,3.2,1.1,3.2,2.8v5.8h-1.3v-1.2H245c-0.5,0.9-1.5,1.4-2.6,1.4C240.7,263.8,239.5,262.8,239.5,261.3z M245,260.5v-0.8l-2.3,0.1c-1.3,0.1-1.8,0.5-1.8,1.4c0,0.9,0.7,1.4,1.7,1.4C244,262.6,245,261.7,245,260.5z"/><path class="st0" d="M249,255.2h1.3v1.3h0.1c0.4-0.9,1.2-1.5,2.5-1.5c1.9,0,2.9,1.1,2.9,3.1v5.5h-1.3v-5.1c0-1.5-0.6-2.2-2-2.2 s-2.2,0.9-2.2,2.4v5H249V255.2z"/><path class="st0" d="M258,259.4c0-2.6,1.4-4.4,3.5-4.4c1.2,0,2.2,0.6,2.6,1.5h0.1v-4.7h1.3v11.8h-1.3v-1.3h-0.1 c-0.5,0.9-1.5,1.5-2.7,1.5C259.4,263.8,258,262.1,258,259.4z M259.4,259.4c0,2,0.9,3.1,2.5,3.1c1.5,0,2.5-1.2,2.5-3.1 c0-1.9-1-3.1-2.5-3.1C260.3,256.3,259.4,257.5,259.4,259.4z"/><path class="st0" d="M283.1,258c0,3.6-2,5.9-5.2,5.9c-3.2,0-5.2-2.3-5.2-5.9c0-3.6,2-5.9,5.2-5.9 C281.2,252.1,283.1,254.4,283.1,258z M274.2,258c0,2.8,1.4,4.6,3.7,4.6c2.3,0,3.7-1.8,3.7-4.6c0-2.8-1.4-4.6-3.7-4.6 C275.7,253.4,274.2,255.2,274.2,258z"/><path class="st0" d="M286.5,260.7c0.2,1.2,1.3,1.9,2.9,1.9c1.5,0,2.6-0.8,2.6-1.9c0-1-0.7-1.6-2.3-2l-1.4-0.4c-2-0.5-2.9-1.4-2.9-3 c0-1.9,1.6-3.2,4-3.2c2.2,0,3.8,1.3,3.9,3.1h-1.4c-0.2-1.2-1.1-1.8-2.6-1.8c-1.5,0-2.5,0.8-2.5,1.9c0,0.9,0.6,1.4,2.2,1.8l1.2,0.3 c2.3,0.6,3.3,1.5,3.3,3.1c0,2.1-1.6,3.4-4.2,3.4c-2.4,0-4-1.3-4.2-3.2H286.5z"/><path class="st0" d="M296.9,260.7c0.2,1.2,1.3,1.9,2.9,1.9c1.5,0,2.6-0.8,2.6-1.9c0-1-0.7-1.6-2.3-2l-1.4-0.4c-2-0.5-2.9-1.4-2.9-3 c0-1.9,1.6-3.2,4-3.2c2.2,0,3.8,1.3,3.9,3.1h-1.4c-0.2-1.2-1.1-1.8-2.6-1.8c-1.5,0-2.5,0.8-2.5,1.9c0,0.9,0.6,1.4,2.2,1.8l1.2,0.3 c2.3,0.6,3.3,1.5,3.3,3.1c0,2.1-1.6,3.4-4.2,3.4c-2.4,0-4-1.3-4.2-3.2H296.9z"/><path class="st0" d="M305.9,266.5l0.7-4.4h1.5l-1.2,4.4H305.9z"/><path class="st0" d="M9.6,286.3H9.4v1.3H8.2v-11.8h1.3v4.7h0.1c0.5-0.9,1.5-1.5,2.6-1.5c2.1,0,3.5,1.7,3.5,4.4 c0,2.6-1.4,4.4-3.5,4.4C11.1,287.8,10.1,287.2,9.6,286.3z M9.5,283.4c0,1.9,1,3.1,2.5,3.1c1.5,0,2.5-1.2,2.5-3.1s-0.9-3.1-2.5-3.1 C10.4,280.3,9.5,281.5,9.5,283.4z"/><path class="st0" d="M24.8,287.6h-1.3v-1.3h-0.1c-0.4,0.9-1.3,1.5-2.6,1.5c-1.9,0-2.9-1.1-2.9-3.1v-5.5h1.3v5.1 c0,1.5,0.6,2.2,1.9,2.2c1.5,0,2.3-0.9,2.3-2.4v-5h1.3V287.6z"/><path class="st0" d="M29.4,277v2.2h1.9v1.1h-1.9v4.8c0,1,0.4,1.4,1.2,1.4c0.2,0,0.4,0,0.6,0v1.1c-0.3,0-0.5,0.1-0.8,0.1 c-1.7,0-2.4-0.6-2.4-2.2v-5.1h-1.4v-1.1H28V277H29.4z"/><path class="st0" d="M37.7,283.4c0-2.6,1.4-4.4,3.5-4.4c1.2,0,2.2,0.6,2.6,1.5H44v-4.7h1.3v11.8h-1.3v-1.3h-0.1 c-0.5,0.9-1.5,1.5-2.7,1.5C39.1,287.8,37.7,286.1,37.7,283.4z M39.1,283.4c0,2,0.9,3.1,2.5,3.1c1.5,0,2.5-1.2,2.5-3.1 c0-1.9-1-3.1-2.5-3.1C40,280.3,39.1,281.5,39.1,283.4z"/><path class="st0" d="M47.6,283.4c0-2.7,1.5-4.4,3.9-4.4s3.9,1.6,3.9,4.4c0,2.7-1.5,4.4-3.9,4.4S47.6,286.1,47.6,283.4z M54,283.4 c0-2-0.9-3.1-2.5-3.1s-2.5,1.1-2.5,3.1c0,2,0.9,3.1,2.5,3.1S54,285.4,54,283.4z"/><path class="st0" d="M57.6,279.2h1.3v1.3H59c0.4-0.9,1.2-1.5,2.5-1.5c1.9,0,2.9,1.1,2.9,3.1v5.5h-1.3v-5.1c0-1.5-0.6-2.2-2-2.2 s-2.2,0.9-2.2,2.4v5h-1.3V279.2z"/><path class="st0" d="M66.7,280.6l0.9-4.2h1.5l-1.4,4.2H66.7z"/><path class="st0" d="M73.4,277v2.2h1.9v1.1h-1.9v4.8c0,1,0.4,1.4,1.2,1.4c0.2,0,0.4,0,0.6,0v1.1c-0.3,0-0.5,0.1-0.8,0.1 c-1.7,0-2.4-0.6-2.4-2.2v-5.1h-1.4v-1.1H72V277H73.4z"/><path class="st0" d="M82.2,275.9h1.3v4.7h0.1c0.4-0.9,1.3-1.5,2.6-1.5c1.8,0,2.9,1.1,2.9,3.1v5.5h-1.3v-5.1c0-1.5-0.7-2.2-1.9-2.2 c-1.5,0-2.3,1-2.3,2.4v5h-1.3V275.9z"/><path class="st0" d="M91.2,285.3c0-1.5,1.1-2.4,3.1-2.5l2.4-0.1v-0.8c0-1-0.6-1.6-1.9-1.6c-1,0-1.7,0.4-1.9,1h-1.4 c0.2-1.4,1.5-2.2,3.3-2.2c2.1,0,3.2,1.1,3.2,2.8v5.8h-1.3v-1.2h-0.1c-0.5,0.9-1.5,1.4-2.6,1.4C92.4,287.8,91.2,286.8,91.2,285.3z M96.7,284.5v-0.8l-2.3,0.1c-1.3,0.1-1.8,0.5-1.8,1.4c0,0.9,0.7,1.4,1.7,1.4C95.7,286.6,96.7,285.7,96.7,284.5z"/><path class="st0" d="M104.1,287.6h-1.4l-3.1-8.4h1.4l2.3,6.9h0.1l2.3-6.9h1.4L104.1,287.6z"/><path class="st0" d="M115.7,285.4c-0.4,1.4-1.7,2.3-3.5,2.3c-2.3,0-3.8-1.7-3.8-4.4c0-2.6,1.5-4.4,3.8-4.4c2.3,0,3.7,1.6,3.7,4.2 v0.5h-6.1v0.1c0.1,1.7,1,2.7,2.4,2.7c1.1,0,1.8-0.4,2.2-1.1H115.7z M109.7,282.7h4.6c0-1.5-0.9-2.5-2.3-2.5 C110.8,280.2,109.8,281.2,109.7,282.7z"/><path class="st0" d="M122.2,285.3c0-1.5,1.1-2.4,3.1-2.5l2.4-0.1v-0.8c0-1-0.6-1.6-1.9-1.6c-1,0-1.7,0.4-1.9,1h-1.4 c0.2-1.4,1.5-2.2,3.3-2.2c2.1,0,3.2,1.1,3.2,2.8v5.8h-1.3v-1.2h-0.1c-0.5,0.9-1.5,1.4-2.6,1.4C123.4,287.8,122.2,286.8,122.2,285.3 z M127.7,284.5v-0.8l-2.3,0.1c-1.3,0.1-1.8,0.5-1.8,1.4c0,0.9,0.7,1.4,1.7,1.4C126.7,286.6,127.7,285.7,127.7,284.5z"/><path class="st0" d="M137.2,281.8c-0.2-0.8-1-1.5-2.2-1.5c-1.5,0-2.5,1.2-2.5,3.1c0,1.9,1,3.2,2.5,3.2c1.1,0,1.9-0.5,2.2-1.5h1.4 c-0.2,1.5-1.5,2.7-3.5,2.7c-2.4,0-3.9-1.7-3.9-4.4c0-2.6,1.5-4.3,3.9-4.3c2,0,3.3,1.2,3.5,2.7H137.2z"/><path class="st0" d="M146.3,281.8c-0.2-0.8-1-1.5-2.2-1.5c-1.5,0-2.5,1.2-2.5,3.1c0,1.9,1,3.2,2.5,3.2c1.1,0,1.9-0.5,2.2-1.5h1.4 c-0.2,1.5-1.5,2.7-3.5,2.7c-2.4,0-3.9-1.7-3.9-4.4c0-2.6,1.5-4.3,3.9-4.3c2,0,3.3,1.2,3.5,2.7H146.3z"/><path class="st0" d="M156.7,285.4c-0.4,1.4-1.7,2.3-3.5,2.3c-2.3,0-3.8-1.7-3.8-4.4c0-2.6,1.5-4.4,3.8-4.4c2.3,0,3.7,1.6,3.7,4.2 v0.5h-6.1v0.1c0.1,1.7,1,2.7,2.4,2.7c1.1,0,1.8-0.4,2.2-1.1H156.7z M150.7,282.7h4.6c0-1.5-0.9-2.5-2.3-2.5 C151.8,280.2,150.9,281.2,150.7,282.7z"/><path class="st0" d="M161.9,279.1c1.8,0,3,0.9,3.2,2.3h-1.3c-0.2-0.7-0.8-1.1-1.9-1.1c-1,0-1.8,0.5-1.8,1.3c0,0.6,0.5,0.9,1.5,1.2 l1.3,0.3c1.6,0.4,2.4,1.1,2.4,2.3c0,1.5-1.5,2.5-3.4,2.5c-1.9,0-3.2-0.9-3.3-2.3h1.4c0.2,0.7,0.9,1.2,2,1.2c1.1,0,1.9-0.5,1.9-1.3 c0-0.6-0.4-1-1.3-1.2l-1.4-0.4c-1.6-0.4-2.3-1.1-2.3-2.3C158.8,280.1,160.1,279.1,161.9,279.1z"/><path class="st0" d="M170.4,279.1c1.8,0,3,0.9,3.2,2.3h-1.3c-0.2-0.7-0.8-1.1-1.9-1.1c-1,0-1.8,0.5-1.8,1.3c0,0.6,0.5,0.9,1.5,1.2 l1.3,0.3c1.6,0.4,2.4,1.1,2.4,2.3c0,1.5-1.5,2.5-3.4,2.5c-1.9,0-3.2-0.9-3.3-2.3h1.4c0.2,0.7,0.9,1.2,2,1.2c1.1,0,1.9-0.5,1.9-1.3 c0-0.6-0.4-1-1.3-1.2l-1.4-0.4c-1.6-0.4-2.3-1.1-2.3-2.3C167.3,280.1,168.7,279.1,170.4,279.1z"/><path class="st0" d="M182.6,277v2.2h1.9v1.1h-1.9v4.8c0,1,0.4,1.4,1.2,1.4c0.2,0,0.4,0,0.6,0v1.1c-0.3,0-0.5,0.1-0.8,0.1 c-1.7,0-2.4-0.6-2.4-2.2v-5.1h-1.4v-1.1h1.4V277H182.6z"/><path class="st0" d="M185.9,283.4c0-2.7,1.5-4.4,3.9-4.4s3.9,1.6,3.9,4.4c0,2.7-1.5,4.4-3.9,4.4S185.9,286.1,185.9,283.4z M192.3,283.4c0-2-0.9-3.1-2.5-3.1s-2.5,1.1-2.5,3.1c0,2,0.9,3.1,2.5,3.1S192.3,285.4,192.3,283.4z"/><path class="st0" d="M200.4,276.6c0-0.5,0.4-0.9,0.9-0.9s0.9,0.4,0.9,0.9s-0.4,0.9-0.9,0.9S200.4,277.2,200.4,276.6z M200.6,279.2 h1.3v8.4h-1.3V279.2z"/><path class="st0" d="M206.6,277v2.2h1.9v1.1h-1.9v4.8c0,1,0.4,1.4,1.2,1.4c0.2,0,0.4,0,0.6,0v1.1c-0.3,0-0.5,0.1-0.8,0.1 c-1.7,0-2.4-0.6-2.4-2.2v-5.1h-1.4v-1.1h1.4V277H206.6z"/><path class="st0" d="M218.1,275.9h1.1c-1.1,1.4-2,4.4-2,7.1c0,2.7,0.9,5.7,2,7.1h-1.1c-1.5-2-2.2-4.3-2.2-7.1 C215.9,280.1,216.6,277.8,218.1,275.9z"/><path class="st0" d="M223.8,279.1c1.8,0,3,0.9,3.2,2.3h-1.3c-0.2-0.7-0.8-1.1-1.9-1.1c-1,0-1.8,0.5-1.8,1.3c0,0.6,0.5,0.9,1.5,1.2 l1.3,0.3c1.6,0.4,2.4,1.1,2.4,2.3c0,1.5-1.5,2.5-3.4,2.5c-1.9,0-3.2-0.9-3.3-2.3h1.4c0.2,0.7,0.9,1.2,2,1.2c1.1,0,1.9-0.5,1.9-1.3 c0-0.6-0.4-1-1.3-1.2l-1.4-0.4c-1.6-0.4-2.3-1.1-2.3-2.3C220.6,280.1,222,279.1,223.8,279.1z"/><path class="st0" d="M231.3,277v2.2h1.9v1.1h-1.9v4.8c0,1,0.4,1.4,1.2,1.4c0.2,0,0.4,0,0.6,0v1.1c-0.3,0-0.5,0.1-0.8,0.1 c-1.7,0-2.4-0.6-2.4-2.2v-5.1h-1.4v-1.1h1.4V277H231.3z"/><path class="st0" d="M234.8,285.3c0-1.5,1.1-2.4,3.1-2.5l2.4-0.1v-0.8c0-1-0.6-1.6-1.9-1.6c-1,0-1.7,0.4-1.9,1h-1.4 c0.2-1.4,1.5-2.2,3.3-2.2c2.1,0,3.2,1.1,3.2,2.8v5.8h-1.3v-1.2h-0.1c-0.5,0.9-1.5,1.4-2.6,1.4C236,287.8,234.8,286.8,234.8,285.3z M240.3,284.5v-0.8l-2.3,0.1c-1.3,0.1-1.8,0.5-1.8,1.4c0,0.9,0.7,1.4,1.7,1.4C239.3,286.6,240.3,285.7,240.3,284.5z"/><path class="st0" d="M244,290.6v-1.1c0.2,0,0.4,0,0.6,0c0.8,0,1.2-0.4,1.5-1.4l0.2-0.5l-3.1-8.4h1.5l2.3,6.9h0.1l2.3-6.9h1.4 l-3.3,8.9c-0.7,2-1.4,2.5-2.9,2.5C244.4,290.7,244.2,290.7,244,290.6z"/><path class="st0" d="M255.4,279.1c1.8,0,3,0.9,3.2,2.3h-1.3c-0.2-0.7-0.8-1.1-1.9-1.1c-1,0-1.8,0.5-1.8,1.3c0,0.6,0.5,0.9,1.5,1.2 l1.3,0.3c1.6,0.4,2.4,1.1,2.4,2.3c0,1.5-1.5,2.5-3.4,2.5c-1.9,0-3.2-0.9-3.3-2.3h1.4c0.2,0.7,0.9,1.2,2,1.2c1.1,0,1.9-0.5,1.9-1.3 c0-0.6-0.4-1-1.3-1.2l-1.4-0.4c-1.6-0.4-2.3-1.1-2.3-2.3C252.3,280.1,253.6,279.1,255.4,279.1z"/><path class="st0" d="M265.4,276.6c0-0.5,0.4-0.9,0.9-0.9s0.9,0.4,0.9,0.9s-0.4,0.9-0.9,0.9S265.4,277.2,265.4,276.6z M265.7,279.2 h1.3v8.4h-1.3V279.2z"/><path class="st0" d="M269.7,279.2h1.3v1.3h0.1c0.4-0.9,1.2-1.5,2.5-1.5c1.9,0,2.9,1.1,2.9,3.1v5.5h-1.3v-5.1c0-1.5-0.6-2.2-2-2.2 s-2.2,0.9-2.2,2.4v5h-1.3V279.2z"/><path class="st0" d="M13.7,305.8c-0.2-0.8-1-1.5-2.2-1.5c-1.5,0-2.5,1.2-2.5,3.1c0,1.9,1,3.2,2.5,3.2c1.1,0,1.9-0.5,2.2-1.5h1.4 c-0.2,1.5-1.5,2.7-3.5,2.7c-2.4,0-3.9-1.7-3.9-4.4c0-2.6,1.5-4.3,3.9-4.3c2,0,3.3,1.2,3.5,2.7H13.7z"/><path class="st0" d="M16.7,307.4c0-2.7,1.5-4.4,3.9-4.4s3.9,1.6,3.9,4.4c0,2.7-1.5,4.4-3.9,4.4S16.7,310.1,16.7,307.4z M23.1,307.4 c0-2-0.9-3.1-2.5-3.1s-2.5,1.1-2.5,3.1c0,2,0.9,3.1,2.5,3.1S23.1,309.4,23.1,307.4z"/><path class="st0" d="M33.5,311.6h-1.3v-1.3h-0.1c-0.4,0.9-1.3,1.5-2.6,1.5c-1.9,0-2.9-1.1-2.9-3.1v-5.5H28v5.1 c0,1.5,0.6,2.2,1.9,2.2c1.5,0,2.3-0.9,2.3-2.4v-5h1.3V311.6z"/><path class="st0" d="M36.2,303.2h1.3v1.3h0.1c0.4-0.9,1.2-1.5,2.5-1.5c1.9,0,2.9,1.1,2.9,3.1v5.5h-1.3v-5.1c0-1.5-0.6-2.2-2-2.2 s-2.2,0.9-2.2,2.4v5h-1.3V303.2z"/><path class="st0" d="M47.4,301v2.2h1.9v1.1h-1.9v4.8c0,1,0.4,1.4,1.2,1.4c0.2,0,0.4,0,0.6,0v1.1c-0.3,0-0.5,0.1-0.8,0.1 c-1.7,0-2.4-0.6-2.4-2.2v-5.1h-1.4v-1.1h1.4V301H47.4z"/><path class="st0" d="M51.3,303.2h1.3v1.2h0.1c0.2-0.8,1.2-1.4,2.3-1.4c0.2,0,0.5,0,0.7,0v1.3c-0.1,0-0.6-0.1-0.9-0.1 c-1.3,0-2.2,0.9-2.2,2v5.2h-1.3V303.2z"/><path class="st0" d="M58,314.6v-1.1c0.2,0,0.4,0,0.6,0c0.8,0,1.2-0.4,1.5-1.4l0.2-0.5l-3.1-8.4h1.5l2.3,6.9H61l2.3-6.9h1.4 l-3.3,8.9c-0.7,2-1.4,2.5-2.9,2.5C58.4,314.7,58.2,314.7,58,314.6z"/><path class="st0" d="M71,307.4c0-2.7,1.5-4.4,3.9-4.4s3.9,1.6,3.9,4.4c0,2.7-1.5,4.4-3.9,4.4S71,310.1,71,307.4z M77.3,307.4 c0-2-0.9-3.1-2.5-3.1s-2.5,1.1-2.5,3.1c0,2,0.9,3.1,2.5,3.1S77.3,309.4,77.3,307.4z"/><path class="st0" d="M81.3,304.3h-1.4v-1.1h1.4v-0.9c0-1.7,0.8-2.5,2.4-2.5c0.3,0,0.6,0,0.9,0.1v1.1c-0.2,0-0.4,0-0.6,0 c-1,0-1.4,0.5-1.4,1.4v0.9h1.9v1.1h-1.9v7.3h-1.3V304.3z"/><path class="st0" d="M91,307.4c0-2.7,1.5-4.4,3.9-4.4s3.9,1.6,3.9,4.4c0,2.7-1.5,4.4-3.9,4.4S91,310.1,91,307.4z M97.4,307.4 c0-2-0.9-3.1-2.5-3.1s-2.5,1.1-2.5,3.1c0,2,0.9,3.1,2.5,3.1S97.4,309.4,97.4,307.4z"/><path class="st0" d="M101,303.2h1.3v1.2h0.1c0.2-0.8,1.2-1.4,2.3-1.4c0.2,0,0.5,0,0.7,0v1.3c-0.1,0-0.6-0.1-0.9-0.1 c-1.3,0-2.2,0.9-2.2,2v5.2H101V303.2z"/><path class="st0" d="M106.9,300.6c0-0.5,0.4-0.9,0.9-0.9s0.9,0.4,0.9,0.9s-0.4,0.9-0.9,0.9S106.9,301.2,106.9,300.6z M107.2,303.2 h1.3v8.4h-1.3V303.2z"/><path class="st0" d="M111.1,312.6h1.4c0.1,0.7,0.9,1.1,2.1,1.1c1.5,0,2.4-0.7,2.4-2V310h-0.1c-0.5,0.9-1.5,1.5-2.6,1.5 c-2.2,0-3.5-1.7-3.5-4.2s1.4-4.2,3.5-4.2c1.2,0,2.2,0.6,2.7,1.5h0.1v-1.3h1.3v8.6c0,1.9-1.5,3.1-3.8,3.1 C112.6,314.9,111.3,313.9,111.1,312.6z M117.1,307.3c0-1.8-0.9-3-2.5-3c-1.6,0-2.4,1.2-2.4,3s0.9,3,2.4,3S117.1,309.1,117.1,307.3z"/><path class="st0" d="M120.8,300.6c0-0.5,0.4-0.9,0.9-0.9s0.9,0.4,0.9,0.9s-0.4,0.9-0.9,0.9S120.8,301.2,120.8,300.6z M121,303.2 h1.3v8.4H121V303.2z"/><path class="st0" d="M125,303.2h1.3v1.3h0.1c0.4-0.9,1.2-1.5,2.5-1.5c1.9,0,2.9,1.1,2.9,3.1v5.5h-1.3v-5.1c0-1.5-0.6-2.2-2-2.2 s-2.2,0.9-2.2,2.4v5H125V303.2z"/><path class="st0" d="M134.6,314h-1.1c1.1-1.4,2-4.4,2-7.1c0-2.7-0.9-5.7-2-7.1h1.1c1.5,2,2.2,4.3,2.2,7.1 C136.8,309.8,136.1,312,134.6,314z"/><path class="st0" d="M7.8,344.3c0-4.1,2.3-6.7,6-6.7c3,0,5.3,2,5.5,4.8h-2.6c-0.3-1.5-1.4-2.4-2.9-2.4c-2,0-3.2,1.7-3.2,4.3 s1.2,4.3,3.2,4.3c1.5,0,2.7-0.9,2.9-2.3h2.6c-0.2,2.7-2.5,4.6-5.5,4.6C10.1,351,7.8,348.4,7.8,344.3z"/><path class="st0" d="M21.1,345.8c0-3.1,1.8-5.1,4.8-5.1s4.8,1.9,4.8,5.1c0,3.2-1.8,5.1-4.8,5.1S21.1,348.9,21.1,345.8z M28.1,345.8 c0-1.9-0.8-3-2.1-3c-1.4,0-2.1,1.1-2.1,3c0,1.9,0.8,3,2.1,3C27.3,348.7,28.1,347.7,28.1,345.8z"/><path class="st0" d="M32.9,340.9h2.5v1.6h0.2c0.4-1.1,1.4-1.8,2.9-1.8c2.2,0,3.3,1.3,3.3,3.6v6.3h-2.6V345c0-1.3-0.6-2-1.8-2 c-1.2,0-1.9,0.8-1.9,2.1v5.6h-2.6V340.9z"/><path class="st0" d="M47.5,338.6v2.4h2v2h-2v4.4c0,0.8,0.4,1.2,1.3,1.2c0.3,0,0.5,0,0.8,0v2c-0.3,0.1-0.8,0.1-1.3,0.1 c-2.4,0-3.3-0.8-3.3-2.7v-5h-1.5v-2H45v-2.4H47.5z"/><path class="st0" d="M51.8,340.9h2.5v1.5h0.2c0.3-1,1.3-1.7,2.5-1.7c0.4,0,0.8,0,1,0.1v2.3c-0.2-0.1-0.8-0.2-1.2-0.2 c-1.4,0-2.4,0.8-2.4,2.2v5.4h-2.6V340.9z"/><path class="st0" d="M59.3,345.8c0-3.1,1.8-5.1,4.8-5.1s4.8,1.9,4.8,5.1c0,3.2-1.8,5.1-4.8,5.1S59.3,348.9,59.3,345.8z M66.2,345.8 c0-1.9-0.8-3-2.1-3c-1.4,0-2.1,1.1-2.1,3c0,1.9,0.8,3,2.1,3C65.4,348.7,66.2,347.7,66.2,345.8z"/><path class="st0" d="M71.1,337.2h2.6v13.4h-2.6V337.2z"/><path class="st0" d="M18.2,369c0,3.6-2,5.9-5.2,5.9c-3.2,0-5.2-2.3-5.2-5.9c0-3.6,2-5.9,5.2-5.9C16.2,363.1,18.2,365.4,18.2,369z M9.3,369c0,2.8,1.4,4.6,3.7,4.6c2.3,0,3.7-1.8,3.7-4.6c0-2.8-1.4-4.6-3.7-4.6C10.7,364.4,9.3,366.2,9.3,369z"/><path class="st0" d="M28.3,370.4c0,2.6-1.4,4.4-3.5,4.4c-1.2,0-2.2-0.5-2.6-1.4H22v4.1h-1.3v-11.2h1.3v1.4H22 c0.5-1,1.5-1.6,2.7-1.6C26.9,366.1,28.3,367.8,28.3,370.4z M26.9,370.4c0-2-0.9-3.1-2.5-3.1c-1.5,0-2.5,1.2-2.5,3.1 c0,1.9,1,3.1,2.5,3.1C26,373.6,26.9,372.4,26.9,370.4z"/><path class="st0" d="M37.4,372.4c-0.4,1.4-1.7,2.3-3.5,2.3c-2.3,0-3.8-1.7-3.8-4.4c0-2.6,1.5-4.4,3.8-4.4c2.3,0,3.7,1.6,3.7,4.2 v0.5h-6.1v0.1c0.1,1.7,1,2.7,2.4,2.7c1.1,0,1.8-0.4,2.2-1.1H37.4z M31.5,369.7h4.6c0-1.5-0.9-2.5-2.3-2.5 C32.5,367.2,31.6,368.2,31.5,369.7z"/><path class="st0" d="M39.8,366.2h1.3v1.2h0.1c0.2-0.8,1.2-1.4,2.3-1.4c0.2,0,0.5,0,0.7,0v1.3c-0.1,0-0.6-0.1-0.9-0.1 c-1.3,0-2.2,0.9-2.2,2v5.2h-1.3V366.2z"/><path class="st0" d="M45.5,372.3c0-1.5,1.1-2.4,3.1-2.5l2.4-0.1v-0.8c0-1-0.6-1.6-1.9-1.6c-1,0-1.7,0.4-1.9,1h-1.4 c0.2-1.4,1.5-2.2,3.3-2.2c2.1,0,3.2,1.1,3.2,2.8v5.8h-1.3v-1.2H51c-0.5,0.9-1.5,1.4-2.6,1.4C46.7,374.8,45.5,373.8,45.5,372.3z M51,371.5v-0.8l-2.3,0.1c-1.3,0.1-1.8,0.5-1.8,1.4c0,0.9,0.7,1.4,1.7,1.4C50,373.6,51,372.7,51,371.5z"/><path class="st0" d="M56.7,364v2.2h1.9v1.1h-1.9v4.8c0,1,0.4,1.4,1.2,1.4c0.2,0,0.4,0,0.6,0v1.1c-0.3,0-0.5,0.1-0.8,0.1 c-1.7,0-2.4-0.6-2.4-2.2v-5.1H54v-1.1h1.4V364H56.7z"/><path class="st0" d="M60,370.4c0-2.7,1.5-4.4,3.9-4.4s3.9,1.6,3.9,4.4c0,2.7-1.5,4.4-3.9,4.4S60,373.1,60,370.4z M66.4,370.4 c0-2-0.9-3.1-2.5-3.1s-2.5,1.1-2.5,3.1c0,2,0.9,3.1,2.5,3.1S66.4,372.4,66.4,370.4z"/><path class="st0" d="M70,366.2h1.3v1.2h0.1c0.2-0.8,1.2-1.4,2.3-1.4c0.2,0,0.5,0,0.7,0v1.3c-0.1,0-0.6-0.1-0.9-0.1 c-1.3,0-2.2,0.9-2.2,2v5.2H70V366.2z"/><path class="st0" d="M75.1,370.7v-1.3h5.1v1.3H75.1z"/><path class="st0" d="M85.7,366.1c1.8,0,3,0.9,3.2,2.3h-1.3c-0.2-0.7-0.8-1.1-1.9-1.1c-1,0-1.8,0.5-1.8,1.3c0,0.6,0.5,0.9,1.5,1.2 l1.3,0.3c1.6,0.4,2.4,1.1,2.4,2.3c0,1.5-1.5,2.5-3.4,2.5c-1.9,0-3.2-0.9-3.3-2.3h1.4c0.2,0.7,0.9,1.2,2,1.2c1.1,0,1.9-0.5,1.9-1.3 c0-0.6-0.4-1-1.3-1.2l-1.4-0.4c-1.6-0.4-2.3-1.1-2.3-2.3C82.5,367.1,83.9,366.1,85.7,366.1z"/><path class="st0" d="M98.9,370.4c0,2.6-1.4,4.4-3.5,4.4c-1.2,0-2.2-0.5-2.6-1.4h-0.1v4.1h-1.3v-11.2h1.3v1.4h0.1 c0.5-1,1.5-1.6,2.7-1.6C97.5,366.1,98.9,367.8,98.9,370.4z M97.5,370.4c0-2-0.9-3.1-2.5-3.1c-1.5,0-2.5,1.2-2.5,3.1 c0,1.9,1,3.1,2.5,3.1C96.5,373.6,97.5,372.4,97.5,370.4z"/><path class="st0" d="M108,372.4c-0.4,1.4-1.7,2.3-3.5,2.3c-2.3,0-3.8-1.7-3.8-4.4c0-2.6,1.5-4.4,3.8-4.4c2.3,0,3.7,1.6,3.7,4.2v0.5 h-6.1v0.1c0.1,1.7,1,2.7,2.4,2.7c1.1,0,1.8-0.4,2.2-1.1H108z M102.1,369.7h4.6c0-1.5-0.9-2.5-2.3-2.5 C103.1,367.2,102.2,368.2,102.1,369.7z"/><path class="st0" d="M116,368.8c-0.2-0.8-1-1.5-2.2-1.5c-1.5,0-2.5,1.2-2.5,3.1c0,1.9,1,3.2,2.5,3.2c1.1,0,1.9-0.5,2.2-1.5h1.4 c-0.2,1.5-1.5,2.7-3.5,2.7c-2.4,0-3.9-1.7-3.9-4.4c0-2.6,1.5-4.3,3.9-4.3c2,0,3.3,1.2,3.5,2.7H116z"/><path class="st0" d="M119.1,363.6c0-0.5,0.4-0.9,0.9-0.9s0.9,0.4,0.9,0.9s-0.4,0.9-0.9,0.9S119.1,364.2,119.1,363.6z M119.4,366.2 h1.3v8.4h-1.3V366.2z"/><path class="st0" d="M124,367.3h-1.4v-1.1h1.4v-0.9c0-1.7,0.8-2.5,2.4-2.5c0.3,0,0.6,0,0.9,0.1v1.1c-0.2,0-0.4,0-0.6,0 c-1,0-1.4,0.5-1.4,1.4v0.9h1.9v1.1h-1.9v7.3H124V367.3z"/><path class="st0" d="M129.1,363.6c0-0.5,0.4-0.9,0.9-0.9s0.9,0.4,0.9,0.9s-0.4,0.9-0.9,0.9S129.1,364.2,129.1,363.6z M129.4,366.2 h1.3v8.4h-1.3V366.2z"/><path class="st0" d="M139,368.8c-0.2-0.8-1-1.5-2.2-1.5c-1.5,0-2.5,1.2-2.5,3.1c0,1.9,1,3.2,2.5,3.2c1.1,0,1.9-0.5,2.2-1.5h1.4 c-0.2,1.5-1.5,2.7-3.5,2.7c-2.4,0-3.9-1.7-3.9-4.4c0-2.6,1.5-4.3,3.9-4.3c2,0,3.3,1.2,3.5,2.7H139z"/><path class="st0" d="M146.8,370.4c0-2.6,1.4-4.4,3.5-4.4c1.2,0,2.2,0.6,2.6,1.5h0.1v-4.7h1.3v11.8h-1.3v-1.3H153 c-0.5,0.9-1.5,1.5-2.7,1.5C148.1,374.8,146.8,373.1,146.8,370.4z M148.1,370.4c0,2,0.9,3.1,2.5,3.1c1.5,0,2.5-1.2,2.5-3.1 c0-1.9-1-3.1-2.5-3.1C149.1,367.3,148.1,368.5,148.1,370.4z"/><path class="st0" d="M156.8,363.6c0-0.5,0.4-0.9,0.9-0.9s0.9,0.4,0.9,0.9s-0.4,0.9-0.9,0.9S156.8,364.2,156.8,363.6z M157.1,366.2 h1.3v8.4h-1.3V366.2z"/><path class="st0" d="M161.7,367.3h-1.4v-1.1h1.4v-0.9c0-1.7,0.8-2.5,2.4-2.5c0.3,0,0.6,0,0.9,0.1v1.1c-0.2,0-0.4,0-0.6,0 c-1,0-1.4,0.5-1.4,1.4v0.9h1.9v1.1H163v7.3h-1.3V367.3z"/><path class="st0" d="M167.9,367.3h-1.4v-1.1h1.4v-0.9c0-1.7,0.8-2.5,2.4-2.5c0.3,0,0.6,0,0.9,0.1v1.1c-0.2,0-0.4,0-0.6,0 c-1,0-1.4,0.5-1.4,1.4v0.9h1.9v1.1h-1.9v7.3h-1.3V367.3z"/><path class="st0" d="M179.8,372.4c-0.4,1.4-1.7,2.3-3.5,2.3c-2.3,0-3.8-1.7-3.8-4.4c0-2.6,1.5-4.4,3.8-4.4c2.3,0,3.7,1.6,3.7,4.2 v0.5h-6.1v0.1c0.1,1.7,1,2.7,2.4,2.7c1.1,0,1.8-0.4,2.2-1.1H179.8z M173.9,369.7h4.6c0-1.5-0.9-2.5-2.3-2.5 C174.9,367.2,174,368.2,173.9,369.7z"/><path class="st0" d="M182.2,366.2h1.3v1.2h0.1c0.2-0.8,1.2-1.4,2.3-1.4c0.2,0,0.5,0,0.7,0v1.3c-0.1,0-0.6-0.1-0.9-0.1 c-1.3,0-2.2,0.9-2.2,2v5.2h-1.3V366.2z"/><path class="st0" d="M195.2,372.4c-0.4,1.4-1.7,2.3-3.5,2.3c-2.3,0-3.8-1.7-3.8-4.4c0-2.6,1.5-4.4,3.8-4.4c2.3,0,3.7,1.6,3.7,4.2 v0.5h-6.1v0.1c0.1,1.7,1,2.7,2.4,2.7c1.1,0,1.8-0.4,2.2-1.1H195.2z M189.3,369.7h4.6c0-1.5-0.9-2.5-2.3-2.5 C190.3,367.2,189.4,368.2,189.3,369.7z"/><path class="st0" d="M197.5,366.2h1.3v1.3h0.1c0.4-0.9,1.2-1.5,2.5-1.5c1.9,0,2.9,1.1,2.9,3.1v5.5h-1.3v-5.1c0-1.5-0.6-2.2-2-2.2 s-2.2,0.9-2.2,2.4v5h-1.3V366.2z"/><path class="st0" d="M212.6,368.8c-0.2-0.8-1-1.5-2.2-1.5c-1.5,0-2.5,1.2-2.5,3.1c0,1.9,1,3.2,2.5,3.2c1.1,0,1.9-0.5,2.2-1.5h1.4 c-0.2,1.5-1.5,2.7-3.5,2.7c-2.4,0-3.9-1.7-3.9-4.4c0-2.6,1.5-4.3,3.9-4.3c2,0,3.3,1.2,3.5,2.7H212.6z"/><path class="st0" d="M223,372.4c-0.4,1.4-1.7,2.3-3.5,2.3c-2.3,0-3.8-1.7-3.8-4.4c0-2.6,1.5-4.4,3.8-4.4c2.3,0,3.7,1.6,3.7,4.2v0.5 H217v0.1c0.1,1.7,1,2.7,2.4,2.7c1.1,0,1.8-0.4,2.2-1.1H223z M217,369.7h4.6c0-1.5-0.9-2.5-2.3-2.5 C218.1,367.2,217.1,368.2,217,369.7z"/><path class="st0" d="M228.2,366.1c1.8,0,3,0.9,3.2,2.3h-1.3c-0.2-0.7-0.8-1.1-1.9-1.1c-1,0-1.8,0.5-1.8,1.3c0,0.6,0.5,0.9,1.5,1.2 l1.3,0.3c1.6,0.4,2.4,1.1,2.4,2.3c0,1.5-1.5,2.5-3.4,2.5c-1.9,0-3.2-0.9-3.3-2.3h1.4c0.2,0.7,0.9,1.2,2,1.2c1.1,0,1.9-0.5,1.9-1.3 c0-0.6-0.4-1-1.3-1.2l-1.4-0.4c-1.6-0.4-2.3-1.1-2.3-2.3C225.1,367.1,226.4,366.1,228.2,366.1z"/><path class="st0" d="M238.1,370.4c0-2.7,1.5-4.4,3.9-4.4s3.9,1.6,3.9,4.4c0,2.7-1.5,4.4-3.9,4.4S238.1,373.1,238.1,370.4z M244.4,370.4c0-2-0.9-3.1-2.5-3.1s-2.5,1.1-2.5,3.1c0,2,0.9,3.1,2.5,3.1S244.4,372.4,244.4,370.4z"/><path class="st0" d="M248.1,366.2h1.3v1.3h0.1c0.4-0.9,1.2-1.5,2.5-1.5c1.9,0,2.9,1.1,2.9,3.1v5.5h-1.3v-5.1c0-1.5-0.6-2.2-2-2.2 s-2.2,0.9-2.2,2.4v5h-1.3V366.2z"/><path class="st0" d="M264.1,364v2.2h1.9v1.1h-1.9v4.8c0,1,0.4,1.4,1.2,1.4c0.2,0,0.4,0,0.6,0v1.1c-0.3,0-0.5,0.1-0.8,0.1 c-1.7,0-2.4-0.6-2.4-2.2v-5.1h-1.4v-1.1h1.4V364H264.1z"/><path class="st0" d="M268,362.9h1.3v4.7h0.1c0.4-0.9,1.3-1.5,2.6-1.5c1.8,0,2.9,1.1,2.9,3.1v5.5h-1.3v-5.1c0-1.5-0.7-2.2-1.9-2.2 c-1.5,0-2.3,1-2.3,2.4v5H268V362.9z"/><path class="st0" d="M284.5,372.4c-0.4,1.4-1.7,2.3-3.5,2.3c-2.3,0-3.8-1.7-3.8-4.4c0-2.6,1.5-4.4,3.8-4.4c2.3,0,3.7,1.6,3.7,4.2 v0.5h-6.1v0.1c0.1,1.7,1,2.7,2.4,2.7c1.1,0,1.8-0.4,2.2-1.1H284.5z M278.6,369.7h4.6c0-1.5-0.9-2.5-2.3-2.5 C279.6,367.2,278.7,368.2,278.6,369.7z"/><path class="st0" d="M9.6,397.3H9.4v1.3H8.2v-11.8h1.3v4.7h0.1c0.5-0.9,1.5-1.5,2.6-1.5c2.1,0,3.5,1.7,3.5,4.4 c0,2.6-1.4,4.4-3.5,4.4C11.1,398.8,10.1,398.2,9.6,397.3z M9.5,394.4c0,1.9,1,3.1,2.5,3.1c1.5,0,2.5-1.2,2.5-3.1s-0.9-3.1-2.5-3.1 C10.4,391.3,9.5,392.5,9.5,394.4z"/><path class="st0" d="M17.5,396.3c0-1.5,1.1-2.4,3.1-2.5l2.4-0.1v-0.8c0-1-0.6-1.6-1.9-1.6c-1,0-1.7,0.4-1.9,1h-1.4 c0.2-1.4,1.5-2.2,3.3-2.2c2.1,0,3.2,1.1,3.2,2.8v5.8h-1.3v-1.2H23c-0.5,0.9-1.5,1.4-2.6,1.4C18.7,398.8,17.5,397.8,17.5,396.3z M23,395.5v-0.8l-2.3,0.1c-1.3,0.1-1.8,0.5-1.8,1.4c0,0.9,0.7,1.4,1.7,1.4C22,397.6,23,396.7,23,395.5z"/><path class="st0" d="M32.6,392.8c-0.2-0.8-1-1.5-2.2-1.5c-1.5,0-2.5,1.2-2.5,3.1c0,1.9,1,3.2,2.5,3.2c1.1,0,1.9-0.5,2.2-1.5h1.4 c-0.2,1.5-1.5,2.7-3.5,2.7c-2.4,0-3.9-1.7-3.9-4.4c0-2.6,1.5-4.3,3.9-4.3c2,0,3.3,1.2,3.5,2.7H32.6z"/><path class="st0" d="M41.2,390.2h1.6l-3.6,3.6l3.9,4.8h-1.7l-3.2-3.9l-0.8,0.8v3.2h-1.3v-11.8h1.3v7h0.1L41.2,390.2z"/><path class="st0" d="M51.2,396.4c-0.4,1.4-1.7,2.3-3.5,2.3c-2.3,0-3.8-1.7-3.8-4.4c0-2.6,1.5-4.4,3.8-4.4c2.3,0,3.7,1.6,3.7,4.2 v0.5h-6.1v0.1c0.1,1.7,1,2.7,2.4,2.7c1.1,0,1.8-0.4,2.2-1.1H51.2z M45.3,393.7h4.6c0-1.5-0.9-2.5-2.3-2.5 C46.3,391.2,45.4,392.2,45.3,393.7z"/><path class="st0" d="M53.5,390.2h1.3v1.3H55c0.4-0.9,1.2-1.5,2.5-1.5c1.9,0,2.9,1.1,2.9,3.1v5.5h-1.3v-5.1c0-1.5-0.6-2.2-2-2.2 s-2.2,0.9-2.2,2.4v5h-1.3V390.2z"/><path class="st0" d="M62.6,394.4c0-2.6,1.4-4.4,3.5-4.4c1.2,0,2.2,0.6,2.6,1.5h0.1v-4.7h1.3v11.8h-1.3v-1.3h-0.1 c-0.5,0.9-1.5,1.5-2.7,1.5C64,398.8,62.6,397.1,62.6,394.4z M64,394.4c0,2,0.9,3.1,2.5,3.1c1.5,0,2.5-1.2,2.5-3.1 c0-1.9-1-3.1-2.5-3.1C64.9,391.3,64,392.5,64,394.4z"/><path class="st0" d="M77.7,390.2H79v1.3h0.1c0.4-0.9,1.2-1.5,2.4-1.5c1.1,0,1.9,0.6,2.3,1.5h0.1c0.5-0.9,1.4-1.5,2.6-1.5 c1.7,0,2.7,1,2.7,2.8v5.8h-1.3v-5.5c0-1.2-0.6-1.9-1.8-1.9c-1.2,0-2,0.9-2,1.9v5.4h-1.3v-5.7c0-1-0.7-1.6-1.8-1.6c-1.1,0-2,1-2,2.1 v5.2h-1.3V390.2z"/><path class="st0" d="M91.2,396.3c0-1.5,1.1-2.4,3.1-2.5l2.4-0.1v-0.8c0-1-0.6-1.6-1.9-1.6c-1,0-1.7,0.4-1.9,1h-1.4 c0.2-1.4,1.5-2.2,3.3-2.2c2.1,0,3.2,1.1,3.2,2.8v5.8h-1.3v-1.2h-0.1c-0.5,0.9-1.5,1.4-2.6,1.4C92.4,398.8,91.2,397.8,91.2,396.3z M96.7,395.5v-0.8l-2.3,0.1c-1.3,0.1-1.8,0.5-1.8,1.4c0,0.9,0.7,1.4,1.7,1.4C95.7,397.6,96.7,396.7,96.7,395.5z"/><path class="st0" d="M100.6,390.2h1.3v1.3h0.1c0.4-0.9,1.2-1.5,2.5-1.5c1.9,0,2.9,1.1,2.9,3.1v5.5h-1.3v-5.1c0-1.5-0.6-2.2-2-2.2 s-2.2,0.9-2.2,2.4v5h-1.3V390.2z"/><path class="st0" d="M109.6,396.3c0-1.5,1.1-2.4,3.1-2.5l2.4-0.1v-0.8c0-1-0.6-1.6-1.9-1.6c-1,0-1.7,0.4-1.9,1h-1.4 c0.2-1.4,1.5-2.2,3.3-2.2c2.1,0,3.2,1.1,3.2,2.8v5.8h-1.3v-1.2H115c-0.5,0.9-1.5,1.4-2.6,1.4C110.8,398.8,109.6,397.8,109.6,396.3z M115.1,395.5v-0.8l-2.3,0.1c-1.3,0.1-1.8,0.5-1.8,1.4c0,0.9,0.7,1.4,1.7,1.4C114.1,397.6,115.1,396.7,115.1,395.5z"/><path class="st0" d="M119,399.6h1.4c0.1,0.7,0.9,1.1,2.1,1.1c1.5,0,2.4-0.7,2.4-2V397h-0.1c-0.5,0.9-1.5,1.5-2.6,1.5 c-2.2,0-3.5-1.7-3.5-4.2s1.4-4.2,3.5-4.2c1.2,0,2.2,0.6,2.7,1.5h0.1v-1.3h1.3v8.6c0,1.9-1.5,3.1-3.8,3.1 C120.5,401.9,119.2,400.9,119,399.6z M124.9,394.3c0-1.8-0.9-3-2.5-3c-1.6,0-2.4,1.2-2.4,3s0.9,3,2.4,3S124.9,396.1,124.9,394.3z"/><path class="st0" d="M135.8,396.4c-0.4,1.4-1.7,2.3-3.5,2.3c-2.3,0-3.8-1.7-3.8-4.4c0-2.6,1.5-4.4,3.8-4.4c2.3,0,3.7,1.6,3.7,4.2 v0.5h-6.1v0.1c0.1,1.7,1,2.7,2.4,2.7c1.1,0,1.8-0.4,2.2-1.1H135.8z M129.8,393.7h4.6c0-1.5-0.9-2.5-2.3-2.5 C130.9,391.2,129.9,392.2,129.8,393.7z"/><path class="st0" d="M137.7,394.4c0-2.6,1.4-4.4,3.5-4.4c1.2,0,2.2,0.6,2.6,1.5h0.1v-4.7h1.3v11.8h-1.3v-1.3H144 c-0.5,0.9-1.5,1.5-2.7,1.5C139.1,398.8,137.7,397.1,137.7,394.4z M139.1,394.4c0,2,0.9,3.1,2.5,3.1c1.5,0,2.5-1.2,2.5-3.1 c0-1.9-1-3.1-2.5-3.1C140,391.3,139.1,392.5,139.1,394.4z"/><path class="st0" d="M154.3,397.3h-0.1v1.3h-1.3v-11.8h1.3v4.7h0.1c0.5-0.9,1.5-1.5,2.6-1.5c2.1,0,3.5,1.7,3.5,4.4 c0,2.6-1.4,4.4-3.5,4.4C155.8,398.8,154.8,398.2,154.3,397.3z M154.2,394.4c0,1.9,1,3.1,2.5,3.1c1.5,0,2.5-1.2,2.5-3.1 s-0.9-3.1-2.5-3.1C155.1,391.3,154.2,392.5,154.2,394.4z"/><path class="st0" d="M162.5,401.6v-1.1c0.2,0,0.4,0,0.6,0c0.8,0,1.2-0.4,1.5-1.4l0.2-0.5l-3.1-8.4h1.5l2.3,6.9h0.1l2.3-6.9h1.4 l-3.3,8.9c-0.7,2-1.4,2.5-2.9,2.5C163,401.7,162.7,401.7,162.5,401.6z"/><path class="st0" d="M185.9,398.6V390h-0.1l-3.6,8.6h-1.2l-3.6-8.6h-0.1v8.6h-1.3v-11.3h1.6l3.9,9.4h0.1l3.9-9.4h1.6v11.3H185.9z"/><path class="st0" d="M189.7,394.4c0-2.7,1.5-4.4,3.9-4.4s3.9,1.6,3.9,4.4c0,2.7-1.5,4.4-3.9,4.4S189.7,397.1,189.7,394.4z M196,394.4c0-2-0.9-3.1-2.5-3.1s-2.5,1.1-2.5,3.1c0,2,0.9,3.1,2.5,3.1S196,396.4,196,394.4z"/><path class="st0" d="M201.1,397.3H201v1.3h-1.3v-11.8h1.3v4.7h0.1c0.5-0.9,1.5-1.5,2.6-1.5c2.1,0,3.5,1.7,3.5,4.4 c0,2.6-1.4,4.4-3.5,4.4C202.6,398.8,201.6,398.2,201.1,397.3z M201,394.4c0,1.9,1,3.1,2.5,3.1c1.5,0,2.5-1.2,2.5-3.1 s-0.9-3.1-2.5-3.1C201.9,391.3,201,392.5,201,394.4z"/><path class="st0" d="M209.3,387.6c0-0.5,0.4-0.9,0.9-0.9s0.9,0.4,0.9,0.9s-0.4,0.9-0.9,0.9S209.3,388.2,209.3,387.6z M209.5,390.2 h1.3v8.4h-1.3V390.2z"/><path class="st0" d="M213.6,386.9h1.3v11.8h-1.3V386.9z"/><path class="st0" d="M224.5,396.4c-0.4,1.4-1.7,2.3-3.5,2.3c-2.3,0-3.8-1.7-3.8-4.4c0-2.6,1.5-4.4,3.8-4.4c2.3,0,3.7,1.6,3.7,4.2 v0.5h-6.1v0.1c0.1,1.7,1,2.7,2.4,2.7c1.1,0,1.8-0.4,2.2-1.1H224.5z M218.6,393.7h4.6c0-1.5-0.9-2.5-2.3-2.5 C219.6,391.2,218.7,392.2,218.6,393.7z"/><path class="st0" d="M226.5,394.4c0-2.6,1.4-4.4,3.5-4.4c1.2,0,2.2,0.6,2.6,1.5h0.1v-4.7h1.3v11.8h-1.3v-1.3h-0.1 c-0.5,0.9-1.5,1.5-2.7,1.5C227.8,398.8,226.5,397.1,226.5,394.4z M227.8,394.4c0,2,0.9,3.1,2.5,3.1c1.5,0,2.5-1.2,2.5-3.1 c0-1.9-1-3.1-2.5-3.1C228.8,391.3,227.8,392.5,227.8,394.4z"/><path class="st0" d="M236.7,399.6h1.4c0.1,0.7,0.9,1.1,2.1,1.1c1.5,0,2.4-0.7,2.4-2V397h-0.1c-0.5,0.9-1.5,1.5-2.6,1.5 c-2.2,0-3.5-1.7-3.5-4.2s1.4-4.2,3.5-4.2c1.2,0,2.2,0.6,2.7,1.5h0.1v-1.3h1.3v8.6c0,1.9-1.5,3.1-3.8,3.1 C238.2,401.9,236.9,400.9,236.7,399.6z M242.7,394.3c0-1.8-0.9-3-2.5-3c-1.6,0-2.4,1.2-2.4,3s0.9,3,2.4,3S242.7,396.1,242.7,394.3z"/><path class="st0" d="M253.5,396.4c-0.4,1.4-1.7,2.3-3.5,2.3c-2.3,0-3.8-1.7-3.8-4.4c0-2.6,1.5-4.4,3.8-4.4c2.3,0,3.7,1.6,3.7,4.2 v0.5h-6.1v0.1c0.1,1.7,1,2.7,2.4,2.7c1.1,0,1.8-0.4,2.2-1.1H253.5z M247.6,393.7h4.6c0-1.5-0.9-2.5-2.3-2.5 C248.6,391.2,247.7,392.2,247.6,393.7z"/><path class="st0" d="M258.8,393l-3.8-5.6h1.7l3,4.5h0.1l3-4.5h1.6l-3.9,5.7l3.8,5.6h-1.7l-3-4.4h-0.1l-3,4.4h-1.6L258.8,393z"/></g><line class="st1" x1="79.3" y1="146.6" x2="477.4" y2="146.6"/><line class="st1" x1="83.6" y1="344.2" x2="337" y2="344.2"/><line class="st1" x1="96.3" y1="61.3" x2="504.4" y2="61.3"/><line class="st1" x1="73.5" y1="233.3" x2="483.2" y2="233.3"/><line class="st2" x1="484.3" y1="105.8" x2="484.3" y2="151.5"/><line class="st2" x1="484.3" y1="190.3" x2="484.3" y2="207.7"/><line class="st2" x1="484.5" y1="239.2" x2="484.5" y2="315.1"/><g><path class="st0" d="M343.2,417.2c0-2.7,2.1-4.7,4.9-4.7s4.9,2,4.9,4.7c0,2.7-2.1,4.7-4.9,4.7S343.2,419.9,343.2,417.2z M351.4,417.2c0-1.9-1.4-3.2-3.2-3.2s-3.2,1.3-3.2,3.2s1.4,3.2,3.2,3.2S351.4,419.1,351.4,417.2z"/><path class="st0" d="M362.3,418.3c0,2.2-1.5,3.6-3.5,3.6c-0.9,0-1.7-0.3-2.2-0.9v3.4h-1.6v-9.5h1.6v0.9c0.5-0.7,1.4-1,2.3-1 C360.8,414.7,362.3,416.1,362.3,418.3z M360.6,418.3c0-1.3-0.9-2.2-2.1-2.2c-1.2,0-2.1,0.9-2.1,2.2c0,1.3,0.9,2.2,2.1,2.2 C359.7,420.5,360.6,419.6,360.6,418.3z"/><path class="st0" d="M370.5,418.8H365c0.2,1,1,1.7,2.3,1.7c0.8,0,1.4-0.2,1.9-0.8l0.9,1c-0.6,0.7-1.6,1.1-2.8,1.1 c-2.3,0-3.9-1.5-3.9-3.6c0-2.1,1.5-3.6,3.6-3.6c2,0,3.5,1.4,3.5,3.6C370.5,418.5,370.5,418.7,370.5,418.8z M365,417.7h4 c-0.1-1-0.9-1.7-2-1.7C365.9,416,365.2,416.7,365,417.7z"/><path class="st0" d="M376.2,414.7v1.6c-0.1,0-0.3,0-0.4,0c-1.2,0-2,0.7-2,2.2v3.4h-1.6v-7h1.6v1C374.2,415.1,375,414.7,376.2,414.7 z"/><path class="st0" d="M383.5,417.7v4.1H382v-0.9c-0.4,0.6-1.2,0.9-2.2,0.9c-1.6,0-2.6-0.9-2.6-2.1c0-1.2,0.8-2.1,2.9-2.1h1.8v-0.1 c0-1-0.6-1.5-1.7-1.5c-0.8,0-1.6,0.3-2.1,0.7l-0.6-1.2c0.7-0.6,1.8-0.9,3-0.9C382.4,414.7,383.5,415.7,383.5,417.7z M381.9,419.6 v-0.8h-1.7c-1.1,0-1.4,0.4-1.4,0.9c0,0.6,0.5,1,1.3,1C380.9,420.7,381.6,420.3,381.9,419.6z"/><path class="st0" d="M389.7,421.4c-0.4,0.3-1,0.5-1.6,0.5c-1.5,0-2.4-0.8-2.4-2.4v-3.4h-1.2v-1.3h1.2v-1.6h1.6v1.6h1.9v1.3h-1.9 v3.3c0,0.7,0.3,1,1,1c0.3,0,0.7-0.1,0.9-0.3L389.7,421.4z"/><path class="st0" d="M390.3,418.3c0-2.1,1.6-3.6,3.7-3.6c2.2,0,3.7,1.5,3.7,3.6s-1.6,3.6-3.7,3.6 C391.9,421.9,390.3,420.4,390.3,418.3z M396.1,418.3c0-1.3-0.9-2.2-2.1-2.2c-1.2,0-2.1,0.9-2.1,2.2c0,1.3,0.9,2.2,2.1,2.2 C395.2,420.5,396.1,419.6,396.1,418.3z"/><path class="st0" d="M403.4,414.7v1.6c-0.1,0-0.3,0-0.4,0c-1.2,0-2,0.7-2,2.2v3.4h-1.6v-7h1.6v1 C401.4,415.1,402.2,414.7,403.4,414.7z"/><path class="st0" d="M414.8,419.7h-4.6l-0.9,2.1h-1.8l4.1-9.2h1.7l4.1,9.2h-1.8L414.8,419.7z M414.2,418.3l-1.7-4l-1.7,4H414.2z"/></g><g><path class="st0" d="M448.3,417.2c0-2.7,2.1-4.7,4.9-4.7s4.9,2,4.9,4.7c0,2.7-2.1,4.7-4.9,4.7S448.3,419.9,448.3,417.2z M456.5,417.2c0-1.9-1.4-3.2-3.2-3.2s-3.2,1.3-3.2,3.2s1.4,3.2,3.2,3.2S456.5,419.1,456.5,417.2z"/><path class="st0" d="M467.4,418.3c0,2.2-1.5,3.6-3.5,3.6c-0.9,0-1.7-0.3-2.2-0.9v3.4H460v-9.5h1.6v0.9c0.5-0.7,1.4-1,2.3-1 C465.9,414.7,467.4,416.1,467.4,418.3z M465.7,418.3c0-1.3-0.9-2.2-2.1-2.2c-1.2,0-2.1,0.9-2.1,2.2c0,1.3,0.9,2.2,2.1,2.2 C464.9,420.5,465.7,419.6,465.7,418.3z"/><path class="st0" d="M475.6,418.8h-5.5c0.2,1,1,1.7,2.3,1.7c0.8,0,1.4-0.2,1.9-0.8l0.9,1c-0.6,0.7-1.6,1.1-2.8,1.1 c-2.3,0-3.9-1.5-3.9-3.6c0-2.1,1.5-3.6,3.6-3.6c2,0,3.5,1.4,3.5,3.6C475.7,418.5,475.7,418.7,475.6,418.8z M470.1,417.7h4 c-0.1-1-0.9-1.7-2-1.7C471.1,416,470.3,416.7,470.1,417.7z"/><path class="st0" d="M481.3,414.7v1.6c-0.1,0-0.3,0-0.4,0c-1.2,0-2,0.7-2,2.2v3.4h-1.6v-7h1.6v1 C479.3,415.1,480.1,414.7,481.3,414.7z"/><path class="st0" d="M488.6,417.7v4.1h-1.5v-0.9c-0.4,0.6-1.2,0.9-2.2,0.9c-1.6,0-2.6-0.9-2.6-2.1c0-1.2,0.8-2.1,2.9-2.1h1.8v-0.1 c0-1-0.6-1.5-1.7-1.5c-0.8,0-1.6,0.3-2.1,0.7l-0.6-1.2c0.7-0.6,1.8-0.9,3-0.9C487.5,414.7,488.6,415.7,488.6,417.7z M487,419.6 v-0.8h-1.7c-1.1,0-1.4,0.4-1.4,0.9c0,0.6,0.5,1,1.3,1C486,420.7,486.7,420.3,487,419.6z"/><path class="st0" d="M494.9,421.4c-0.4,0.3-1,0.5-1.6,0.5c-1.5,0-2.4-0.8-2.4-2.4v-3.4h-1.2v-1.3h1.2v-1.6h1.6v1.6h1.9v1.3h-1.9 v3.3c0,0.7,0.3,1,1,1c0.3,0,0.7-0.1,0.9-0.3L494.9,421.4z"/><path class="st0" d="M495.4,418.3c0-2.1,1.6-3.6,3.7-3.6c2.2,0,3.7,1.5,3.7,3.6s-1.6,3.6-3.7,3.6 C497,421.9,495.4,420.4,495.4,418.3z M501.2,418.3c0-1.3-0.9-2.2-2.1-2.2c-1.2,0-2.1,0.9-2.1,2.2c0,1.3,0.9,2.2,2.1,2.2 C500.3,420.5,501.2,419.6,501.2,418.3z"/><path class="st0" d="M508.5,414.7v1.6c-0.1,0-0.3,0-0.4,0c-1.2,0-2,0.7-2,2.2v3.4h-1.6v-7h1.6v1 C506.5,415.1,507.3,414.7,508.5,414.7z"/><path class="st0" d="M522.1,419.3c0,1.6-1.2,2.5-3.6,2.5H514v-9.2h4.3c2.2,0,3.4,0.9,3.4,2.4c0,0.9-0.5,1.6-1.2,2 C521.5,417.3,522.1,418.1,522.1,419.3z M515.7,414v2.5h2.4c1.2,0,1.8-0.4,1.8-1.3c0-0.9-0.7-1.3-1.8-1.3H515.7z M520.4,419.1 c0-0.9-0.7-1.3-2-1.3h-2.7v2.6h2.7C519.7,420.5,520.4,420.1,520.4,419.1z"/></g><g><path class="st0" d="M553.7,417.2c0-2.7,2.1-4.7,4.9-4.7s4.9,2,4.9,4.7c0,2.7-2.1,4.7-4.9,4.7S553.7,419.9,553.7,417.2z M561.9,417.2c0-1.9-1.4-3.2-3.2-3.2s-3.2,1.3-3.2,3.2s1.4,3.2,3.2,3.2S561.9,419.1,561.9,417.2z"/><path class="st0" d="M572.8,418.3c0,2.2-1.5,3.6-3.5,3.6c-0.9,0-1.7-0.3-2.2-0.9v3.4h-1.6v-9.5h1.6v0.9c0.5-0.7,1.4-1,2.3-1 C571.3,414.7,572.8,416.1,572.8,418.3z M571.2,418.3c0-1.3-0.9-2.2-2.1-2.2c-1.2,0-2.1,0.9-2.1,2.2c0,1.3,0.9,2.2,2.1,2.2 C570.3,420.5,571.2,419.6,571.2,418.3z"/><path class="st0" d="M581.1,418.8h-5.5c0.2,1,1,1.7,2.3,1.7c0.8,0,1.4-0.2,1.9-0.8l0.9,1c-0.6,0.7-1.6,1.1-2.8,1.1 c-2.3,0-3.9-1.5-3.9-3.6c0-2.1,1.5-3.6,3.6-3.6c2,0,3.5,1.4,3.5,3.6C581.1,418.5,581.1,418.7,581.1,418.8z M575.6,417.7h4 c-0.1-1-0.9-1.7-2-1.7C576.5,416,575.7,416.7,575.6,417.7z"/><path class="st0" d="M586.7,414.7v1.6c-0.1,0-0.3,0-0.4,0c-1.2,0-2,0.7-2,2.2v3.4h-1.6v-7h1.6v1 C584.7,415.1,585.6,414.7,586.7,414.7z"/><path class="st0" d="M594.1,417.7v4.1h-1.5v-0.9c-0.4,0.6-1.2,0.9-2.2,0.9c-1.6,0-2.6-0.9-2.6-2.1c0-1.2,0.8-2.1,2.9-2.1h1.8v-0.1 c0-1-0.6-1.5-1.7-1.5c-0.8,0-1.6,0.3-2.1,0.7l-0.6-1.2c0.7-0.6,1.8-0.9,3-0.9C592.9,414.7,594.1,415.7,594.1,417.7z M592.4,419.6 v-0.8h-1.7c-1.1,0-1.4,0.4-1.4,0.9c0,0.6,0.5,1,1.3,1C591.5,420.7,592.2,420.3,592.4,419.6z"/><path class="st0" d="M600.3,421.4c-0.4,0.3-1,0.5-1.6,0.5c-1.5,0-2.4-0.8-2.4-2.4v-3.4h-1.2v-1.3h1.2v-1.6h1.6v1.6h1.9v1.3h-1.9 v3.3c0,0.7,0.3,1,1,1c0.3,0,0.7-0.1,0.9-0.3L600.3,421.4z"/><path class="st0" d="M600.8,418.3c0-2.1,1.6-3.6,3.7-3.6c2.2,0,3.7,1.5,3.7,3.6s-1.6,3.6-3.7,3.6 C602.4,421.9,600.8,420.4,600.8,418.3z M606.6,418.3c0-1.3-0.9-2.2-2.1-2.2c-1.2,0-2.1,0.9-2.1,2.2c0,1.3,0.9,2.2,2.1,2.2 C605.7,420.5,606.6,419.6,606.6,418.3z"/><path class="st0" d="M613.9,414.7v1.6c-0.1,0-0.3,0-0.4,0c-1.2,0-2,0.7-2,2.2v3.4h-1.6v-7h1.6v1 C611.9,415.1,612.8,414.7,613.9,414.7z"/><path class="st0" d="M618.8,417.2c0-2.7,2.1-4.7,4.9-4.7c1.5,0,2.8,0.5,3.6,1.5l-1.1,1c-0.7-0.7-1.5-1.1-2.4-1.1 c-1.9,0-3.3,1.3-3.3,3.2c0,1.9,1.4,3.2,3.3,3.2c1,0,1.8-0.4,2.4-1.1l1.1,1c-0.9,1-2.1,1.5-3.6,1.5 C620.9,421.9,618.8,420,618.8,417.2z"/></g><g><path class="st0" d="M453.2,11.3c0-3.2,2.6-5.8,5.8-5.8h47.5c3.2,0,5.8,2.6,5.8,5.8v102.2c0,3.2-2.6,5.8-5.8,5.8H459 c-3.2,0-5.8-2.6-5.8-5.8V11.3z"/><path class="st3" d="M503,111.8h-41c-3.2,0-5.8-2.6-5.8-5.8V16.6c0-3.2,2.6-5.8,5.8-5.8h41c3.2,0,5.8,2.6,5.8,5.8V106 C508.9,109.2,506.3,111.8,503,111.8z"/><g><path class="st4" d="M496.6,20h4.4c1.4,0,2.5,1.1,2.5,2.5v4.4c0,1.4-1.1,2.5-2.5,2.5h-4.4c-1.4,0-2.5-1.1-2.5-2.5v-4.4 C494,21.1,495.2,20,496.6,20z"/><path class="st5" d="M479,22.5v4.4c0,1.4,1.1,2.5,2.5,2.5h4.4c1.4,0,2.5-1.1,2.5-2.5v-4.4c0-1.4-1.1-2.5-2.5-2.5h-4.4 C480.2,20,479,21.1,479,22.5z"/><path class="st4" d="M464,22.5v4.4c0,1.4,1.1,2.5,2.5,2.5h4.4c1.4,0,2.5-1.1,2.5-2.5v-4.4c0-1.4-1.1-2.5-2.5-2.5h-4.4 C465.1,20,464,21.1,464,22.5z"/><path class="st5" d="M496.6,66.3h4.4c1.4,0,2.5,1.1,2.5,2.5v4.4c0,1.4-1.1,2.5-2.5,2.5h-4.4c-1.4,0-2.5-1.1-2.5-2.5v-4.4 C494,67.4,495.2,66.3,496.6,66.3z"/><path class="st0" d="M479,68.8v4.4c0,1.4,1.1,2.5,2.5,2.5h4.4c1.4,0,2.5-1.1,2.5-2.5v-4.4c0-1.4-1.1-2.5-2.5-2.5h-4.4 C480.2,66.3,479,67.4,479,68.8z"/><path class="st0" d="M464,68.8v4.4c0,1.4,1.1,2.5,2.5,2.5h4.4c1.4,0,2.5-1.1,2.5-2.5v-4.4c0-1.4-1.1-2.5-2.5-2.5h-4.4 C465.1,66.3,464,67.4,464,68.8z"/><path class="st4" d="M496.6,50.8h4.4c1.4,0,2.5,1.1,2.5,2.5v4.4c0,1.4-1.1,2.5-2.5,2.5h-4.4c-1.4,0-2.5-1.1-2.5-2.5v-4.4 C494,51.9,495.2,50.8,496.6,50.8z"/><path class="st5" d="M479,53.3v4.4c0,1.4,1.1,2.5,2.5,2.5h4.4c1.4,0,2.5-1.1,2.5-2.5v-4.4c0-1.4-1.1-2.5-2.5-2.5h-4.4 C480.2,50.8,479,51.9,479,53.3z"/><path class="st4" d="M464,53.3v4.4c0,1.4,1.1,2.5,2.5,2.5h4.4c1.4,0,2.5-1.1,2.5-2.5v-4.4c0-1.4-1.1-2.5-2.5-2.5h-4.4 C465.1,50.8,464,51.9,464,53.3z"/><path class="st5" d="M470.9,45.1h-4.4c-1.4,0-2.5-1.1-2.5-2.5v-4.4c0-1.4,1.1-2.5,2.5-2.5h4.4c1.4,0,2.5,1.1,2.5,2.5v4.4 C473.4,44,472.3,45.1,470.9,45.1z"/><path class="st4" d="M488.5,42.6v-4.4c0-1.4-1.1-2.5-2.5-2.5h-4.4c-1.4,0-2.5,1.1-2.5,2.5v4.4c0,1.4,1.1,2.5,2.5,2.5h4.4 C487.3,45.1,488.5,44,488.5,42.6z"/><path class="st0" d="M503.5,42.6v-4.4c0-1.4-1.1-2.5-2.5-2.5h-4.4c-1.4,0-2.5,1.1-2.5,2.5v4.4c0,1.4,1.1,2.5,2.5,2.5h4.4 C502.4,45.1,503.5,44,503.5,42.6z"/></g><path class="st6" d="M508.9,19.7v-4.9c0-2.2-1.8-4-4-4h-44.6c-2.2,0-4,1.8-4,4v57.5L508.9,19.7z"/></g><polygon class="st5" points="615.4,161.8 593,139.4 593,139.4 386.9,139.4 386.9,139.6 386.6,139.4 363.7,162.4 363.7,167.6 386.6,190.6 386.9,190.4 386.9,190.6 593,190.6 593,190.6 593,190.6 593,190.6 593,190.6 615.4,168.2"/><g><path class="st0" d="M557.7,169.1H550l-1.5,3.6h-3.9L552,156h3.8l7.4,16.6h-4L557.7,169.1z M556.5,166.2l-2.6-6.4l-2.6,6.4H556.5z"/><path class="st0" d="M579.3,162.1c0,3.7-2.8,6-7.2,6h-3.3v4.6h-3.8V156h7.2C576.6,156,579.3,158.3,579.3,162.1z M575.4,162.1 c0-1.8-1.2-2.9-3.5-2.9h-3.1v5.8h3.1C574.3,164.9,575.4,163.9,575.4,162.1z"/><path class="st0" d="M581.9,156h3.8v16.6h-3.8V156z"/></g><path class="st0" d="M498.7,223.6c-1-0.2-2.1-0.4-3.1-0.5v-6.8c0-5.5-4.5-10-10-10h-0.4c0,0,0,0,0,0c-5.5,0-10,4.5-10,10v6.8	c-1,0.1-2,0.3-3.1,0.5l-0.2,0c-1.1,0.2-1.8,1.1-1.8,2.2v15.3c0,1.1,0.8,2,1.8,2.2l1.4,0.3c4,0.8,8,1.1,12.1,1.1	c4.1,0,8.1-0.4,12.1-1.1l1.4-0.3c1.1-0.2,1.8-1.1,1.8-2.2v-15C500.8,224.8,499.9,223.8,498.7,223.6z M479.6,222.6v-6.3	c0-3.2,2.6-5.7,5.7-5.7h0.4c3.2,0,5.7,2.6,5.7,5.7v6.3C487.4,222.3,483.5,222.3,479.6,222.6z"/><path class="st2" d="M379.5,320v-54.3c0-2.6,2.1-4.7,4.7-4.7h200.2c2.6,0,4.7,2.1,4.7,4.7V320"/><circle class="st7" cx="379.4" cy="341.1" r="42.3"/><circle class="st7" cx="486" cy="341.1" r="42.3"/><circle class="st7" cx="591.7" cy="341.1" r="42.3"/><g><path class="st8" d="M361.5,354.1c-7.2-10.2-4.7-24.2,5.5-31.4c10.2-7.2,24.2-4.7,31.4,5.5c7.2,10.2,4.7,24.2-5.5,31.4"/><path class="st8" d="M366.7,359.4c-10.1-7.3-12.4-21.4-5.1-31.5c7.3-10.1,21.4-12.4,31.5-5.1c10.1,7.3,12.4,21.4,5.1,31.5"/><path class="st8" d="M370,351c-5.5-5.5-5.5-14.3,0-19.7c5.5-5.5,14.3-5.5,19.7,0c5.5,5.5,5.5,14.3,0,19.7"/><circle class="st8" cx="379.8" cy="341.2" r="3.5"/><polyline class="st8" points="397.7,397.8 379.8,347.4 362,397.8"/><line class="st8" x1="379.8" y1="344.7" x2="379.8" y2="348.3"/><g><line class="st8" x1="395.8" y1="393" x2="368.4" y2="379.9"/><line class="st8" x1="363.8" y1="393" x2="391.3" y2="379.9"/></g><g><line class="st8" x1="389.3" y1="374" x2="373.1" y2="366.4"/><line class="st8" x1="370.4" y1="374" x2="386.5" y2="366.4"/></g></g><g><path class="st8" d="M467.3,354.1c-7.2-10.2-4.7-24.2,5.5-31.4c10.2-7.2,24.2-4.7,31.4,5.5c7.2,10.2,4.7,24.2-5.5,31.4"/><path class="st8" d="M472.6,359.4c-10.1-7.3-12.4-21.4-5.1-31.5c7.3-10.1,21.4-12.4,31.5-5.1c10.1,7.3,12.4,21.4,5.1,31.5"/><path class="st8" d="M475.9,351c-5.5-5.5-5.5-14.3,0-19.7c5.5-5.5,14.3-5.5,19.7,0c5.5,5.5,5.5,14.3,0,19.7"/><circle class="st8" cx="485.7" cy="341.2" r="3.5"/><polyline class="st8" points="503.5,397.8 485.7,347.4 467.9,397.8"/><line class="st8" x1="485.7" y1="344.7" x2="485.7" y2="348.3"/><g><line class="st8" x1="501.7" y1="393" x2="474.3" y2="379.9"/><line class="st8" x1="469.6" y1="393" x2="497.1" y2="379.9"/></g><g><line class="st8" x1="495.1" y1="374" x2="479" y2="366.4"/><line class="st8" x1="476.3" y1="374" x2="492.4" y2="366.4"/></g></g><g><path class="st9" d="M573.2,354.1c-7.2-10.2-4.7-24.2,5.5-31.4c10.2-7.2,24.2-4.7,31.4,5.5c7.2,10.2,4.7,24.2-5.5,31.4"/><path class="st9" d="M578.4,359.4c-10.1-7.3-12.4-21.4-5.1-31.5c7.3-10.1,21.4-12.4,31.5-5.1c10.1,7.3,12.4,21.4,5.1,31.5"/><path class="st9" d="M581.7,351c-5.5-5.5-5.5-14.3,0-19.7c5.5-5.5,14.3-5.5,19.7,0c5.5,5.5,5.5,14.3,0,19.7"/><circle class="st8" cx="591.5" cy="341.2" r="3.5"/><polyline class="st8" points="609.4,397.8 591.5,347.4 573.7,397.8"/><line class="st8" x1="591.5" y1="344.7" x2="591.5" y2="348.3"/><g><line class="st8" x1="607.5" y1="393" x2="580.1" y2="379.9"/><line class="st8" x1="575.5" y1="393" x2="603" y2="379.9"/></g><g><line class="st8" x1="601" y1="374" x2="584.8" y2="366.4"/><line class="st8" x1="582.1" y1="374" x2="598.2" y2="366.4"/></g></g><g><path class="st0" d="M432.2,166.7c0,3.6-2.6,6.2-6.1,6.2c-3.5,0-6.1-2.6-6.1-6.2c0-3.6,2.6-6.2,6.1-6.2 C429.6,160.5,432.2,163.1,432.2,166.7z M429.3,166.7c0-2.4-1.5-3.7-3.3-3.7c-1.7,0-3.3,1.3-3.3,3.7c0,2.4,1.6,3.7,3.3,3.7 C427.8,170.4,429.3,169.2,429.3,166.7z M433.8,172.7V156l2.8,0l0,6.4c0.5-0.9,1.9-1.8,3.7-1.8c3.5,0,5.4,2.7,5.4,6.1 c0,3.6-2.1,6.3-5.5,6.3c-1.7,0-2.9-0.8-3.6-1.9l-1.6,1.6L433.8,172.7z M439.7,163.1c-1.8,0-3.2,1.3-3.2,3.7c0,2.3,1.4,3.7,3.2,3.7 c1.8,0,3.2-1.4,3.2-3.7C442.9,164.4,441.6,163.1,439.7,163.1z M447.7,160.9v11.8h2.8v-11.8H447.7z M452.7,172.7V156h2.8v16.7H452.7 z M479.4,155.9v6.4c-0.4-0.7-1.4-1.7-3.5-1.7c-3.3,0-5.6,2.8-5.6,6.2c0,3.6,2.3,6.2,5.6,6.2c1.7,0,2.9-0.8,3.5-1.8v0l0,0l1.5,1.5 l1.2,0v-2.2v0v-14.6L479.4,155.9z M476.4,170.5c-1.9,0-3.2-1.5-3.2-3.7c0-2.2,1.4-3.7,3.2-3.7s3.1,1.4,3.1,3.7 C479.5,169,478.2,170.5,476.4,170.5z M400.8,156h3.7l5.1,9.2l5-9.2h3.7v16.7h-3v-12l-5.2,9.6H409l-5.2-9.6v12h-2.9V156z M450.4,156 h-2.8v2.8h2.8V156z M494.1,160.9l-1.4,1.4c-0.4-0.7-1.4-1.7-3.5-1.7c-1,0-1.9,0.3-2.7,0.7c-1.7,0.9-2.8,2.8-2.9,5 c0,0.2,0,0.3,0,0.5c0,3.6,2.3,6.2,5.7,6.2c1.5,0,2.6-0.6,3.2-1.5v0.1c0,2.4-1.1,3.5-3.3,3.5c0,0,0,0,0,0c-1.7,0-2.7-0.7-3.3-1.1 c-0.2-0.2-0.3-0.3-0.3-0.3l-1.8,1.7c0.1,0.1,0.2,0.2,0.3,0.3c1.1,1,2.7,1.8,5.1,1.8c0,0,0,0,0,0c4.4,0,6-2.9,6-6.1v-10.7H494.1z M489.7,170.5c-1.9,0-3.2-1.5-3.2-3.7c0-2,1-3.3,2.5-3.6c0.2,0,0.4,0,0.6,0c0.6,0,1.3,0.2,1.8,0.5c0.8,0.6,1.3,1.7,1.3,3.1 C492.7,168.9,491.5,170.5,489.7,170.5z M465.2,170.2c-0.5,0.2-1.1,0.4-1.7,0.4c-0.9,0-1.6-0.2-2.2-0.7c-0.6-0.5-1-1.2-1.2-2h8.6 c0-0.2,0.1-0.5,0.1-0.9c0-2-0.5-3.5-1.4-4.6c-0.9-1.1-2.4-1.8-4.2-1.8c-1.1,0-2.2,0.3-3.1,0.8c-0.9,0.5-1.6,1.3-2.1,2.2 c-0.5,0.9-0.7,2-0.7,3.2c0,1.2,0.2,2.3,0.7,3.2c0.5,0.9,1.2,1.7,2.1,2.2c0.9,0.5,1.9,0.8,3.1,0.8c1,0,1.9-0.2,2.8-0.5 c0.8-0.4,1.6-0.9,2.2-1.6l-1.6-1.6C466.2,169.6,465.7,170,465.2,170.2z M461.1,163.6c0.6-0.5,1.2-0.8,2.1-0.8 c0.9,0,1.5,0.3,2.1,0.8c0.5,0.5,0.8,1.2,0.8,2.1h-5.9C460.2,164.9,460.6,164.1,461.1,163.6z M504.8,170.2c-0.5,0.2-1.1,0.4-1.7,0.4 c-0.9,0-1.6-0.2-2.2-0.7c-0.6-0.5-1-1.2-1.2-2h8.6c0-0.2,0.1-0.5,0.1-0.9c0-2-0.5-3.5-1.4-4.6c-0.9-1.1-2.4-1.8-4.2-1.8 c-1.1,0-2.2,0.3-3.1,0.8c-0.9,0.5-1.6,1.3-2.1,2.2c-0.5,0.9-0.7,2-0.7,3.2c0,1.2,0.2,2.3,0.7,3.2c0.5,0.9,1.2,1.7,2.1,2.2 c0.9,0.5,1.9,0.8,3.1,0.8c1,0,1.9-0.2,2.8-0.5c0.8-0.4,1.6-0.9,2.2-1.6l-1.6-1.6C505.7,169.6,505.3,170,504.8,170.2z M500.7,163.6 c0.6-0.5,1.2-0.8,2.1-0.8c0.9,0,1.5,0.3,2.1,0.8c0.5,0.5,0.8,1.2,0.8,2.1h-5.9C499.8,164.9,500.1,164.1,500.7,163.6z"/><g><path class="st0" d="M527,170.7v2l0,0l0,0h-2l-5-5l2-2L527,170.7z M398.9,157.9v-2h-2l-7.4,7.4v2l7.4,7.4h2v-2l-6.4-6.4 L398.9,157.9z M535.3,164.3l-6.4,6.4v2h2l7.4-7.4v-2l-7.4-7.4h-2v2L535.3,164.3z M512.3,156h-2v2l5,5l2-2L512.3,156z M527,157.9 v-2h-2l-14.8,14.7v2h2L527,157.9z"/><g><path class="st0" d="M534.7,156.3H534V156h1.6v0.4H535v1.7h-0.4V156.3z M536.1,156h0.4l0.6,1l0.6-1h0.4v2h-0.4v-1.4l-0.6,1h0 l-0.6-1v1.4h-0.4V156z"/></g></g></g></svg>