<svg xmlns="http://www.w3.org/2000/svg" xmlns:xlink="http://www.w3.org/1999/xlink" width="160.26" height="152.65" viewBox="0 0 160.26 152.65"><defs><style>.cls-1,.cls-3,.cls-6,.cls-9{fill:none}.cls-2{clip-path:url(#clip-path)}.cls-3,.cls-9{stroke:#93e019}.cls-3,.cls-6,.cls-9{stroke-miterlimit:10;stroke-width:1.32px}.cls-4,.cls-9{opacity:.6}.cls-5{clip-path:url(#clip-path-2)}.cls-6{stroke:#028bbc}.cls-7{opacity:.8}.cls-8{clip-path:url(#clip-path-3)}.cls-10{fill:#273c4d}.cls-11,.cls-12{fill:#43809e}.cls-11{opacity:.5}.cls-13{fill:#78c400}.cls-14{fill:#4ca300}.cls-15{fill:#93e019}</style><clipPath id="clip-path" transform="translate(27.3 30.4)"><polygon class="cls-1" points="105.6 54.76 95 73.12 73.79 73.12 63.19 54.76 73.79 36.39 95 36.39 105.6 54.76"/></clipPath><clipPath id="clip-path-2" transform="translate(27.3 30.4)"><polygon class="cls-1" points="105.66 18.36 95.05 36.73 73.85 36.73 63.24 18.36 73.85 0 95.05 0 105.66 18.36"/></clipPath><clipPath id="clip-path-3" transform="translate(27.3 30.4)"><polygon class="cls-1" points="42.41 73.49 31.81 91.85 10.6 91.85 0 73.49 10.6 55.12 31.81 55.12 42.41 73.49"/></clipPath></defs><title>deployment</title><g id="Layer_2" data-name="Layer 2"><g id="design"><g class="cls-2"><path class="cls-3" d="M64.47,71.38,47.85,54.76,64.47,38.13,81.09,54.76Zm11.1-16.62L59,38.13,42.33,54.76,59,71.38Zm-5.51,0L53.43,38.13,36.81,54.76,53.43,71.38Zm61.91,0L115.35,38.13,98.73,54.76l16.62,16.62Zm-5.51,0L109.83,38.13,93.21,54.76l16.62,16.62Zm-5.52,0L104.32,38.13,87.69,54.76l16.63,16.62ZM84.65,51.2l16.62-16.62L84.65,18,68,34.58Zm0-5.52,16.62-16.62L84.65,12.44,68,29.06Zm0-5.51,16.62-16.63L84.65,6.92,68,23.54Zm0,62.42L101.27,86,84.65,69.35,68,86Zm0-5.52,16.62-16.62L84.65,63.83,68,80.45Zm0-5.52,16.62-16.62L84.65,58.31,68,74.93Z" transform="translate(27.3 30.4)"/></g><g class="cls-4"><g class="cls-5"><path class="cls-6" d="M64.53,35,47.9,18.37,64.53,1.74,81.15,18.37Zm11.1-16.62L59,1.74,42.39,18.37,59,35Zm-5.52,0L53.49,1.74,36.87,18.37,53.49,35Zm61.92,0L115.41,1.74,98.79,18.37,115.41,35Zm-5.52,0L109.89,1.74,93.27,18.37,109.89,35Zm-5.52,0L104.37,1.74,87.75,18.37,104.37,35ZM84.7,14.81,101.33-1.81,84.7-18.43,68.08-1.81Zm0-5.52L101.33-7.33,84.7-23.95,68.08-7.33Zm0-5.51,16.63-16.63L84.7-29.47,68.08-12.85Zm0,62.42,16.63-16.62L84.7,33,68.08,49.58Zm0-5.52,16.63-16.62L84.7,27.44,68.08,44.06Zm0-5.52,16.63-16.62L84.7,21.92,68.08,38.54Z" transform="translate(27.3 30.4)"/></g></g><g class="cls-7"><g class="cls-8"><path class="cls-9" d="M1.28,90.11-15.34,73.49,1.28,56.86,17.91,73.49ZM12.39,73.49-4.23,56.86-20.86,73.49-4.23,90.11Zm-5.52,0L-9.75,56.86-26.37,73.49-9.75,90.11Zm61.92,0L52.16,56.86,35.54,73.49,52.16,90.11Zm-5.52,0L46.65,56.86,30,73.49,46.65,90.11Zm-5.52,0L41.13,56.86,24.51,73.49,41.13,90.11ZM21.46,69.93,38.08,53.31,21.46,36.69,4.84,53.31Zm0-5.52L38.08,47.79,21.46,31.17,4.84,47.79Zm0-5.51L38.08,42.27,21.46,25.65,4.84,42.27Zm0,62.42L38.08,104.7,21.46,88.08,4.84,104.7Zm0-5.52L38.08,99.18,21.46,82.56,4.84,99.18Zm0-5.51L38.08,93.66,21.46,77,4.84,93.66Z" transform="translate(27.3 30.4)"/></g></g><rect class="cls-10" x="53.41" y="52.38" width="40.67" height="40.67" rx="3.01"/><path class="cls-11" d="M63.76,22H29.11a3,3,0,0,0-3,3V59.64a3,3,0,0,0,.79,2L65.78,22.77A3,3,0,0,0,63.76,22Z" transform="translate(27.3 30.4)"/><path class="cls-12" d="M17.82,31.77H24.6v3H17.82Zm0,6H24.6v3H17.82Zm0,18.07H24.6v3H17.82Zm0-6H24.6v3H17.82Zm0-6H24.6v3H17.82Zm49.88,6h7.36v3H67.7Zm0-6h7.36v3H67.7Zm0-18.07h7.36v3H67.7Zm0,12h7.36v3H67.7Zm0-6h7.36v3H67.7ZM47.94,13.7h3v6.78h-3ZM60,13.7h3v6.78H60Zm-6,0h3v6.78H54Zm-24.1,0h3v6.78h-3Zm6,0h3v6.78h-3Zm0,50.46h3v6.78h-3Zm6,0h3v6.78h-3Zm6,0h3v6.78h-3Zm6,0h3v6.78H54Zm6,0h3v6.78H60ZM17.82,25.75H24.6v3H17.82ZM67.7,55.87h7.36v3H67.7ZM41.92,13.7h3v6.78h-3Zm-12,50.46h3v6.78h-3Z" transform="translate(27.3 30.4)"/><rect class="cls-13" x="60.94" y="59.91" width="25.61" height="25.61"/><polygon class="cls-14" points="86.54 85.52 60.94 85.52 86.54 59.91 86.54 85.52"/><rect class="cls-15" x="63.95" y="62.93" width="19.58" height="19.58"/></g></g></svg>