<svg xmlns="http://www.w3.org/2000/svg" xmlns:xlink="http://www.w3.org/1999/xlink" width="130.92" height="74.72" viewBox="0 0 130.92 74.72"><defs><style>.cls-1{fill:url(#linear-gradient)}.cls-2,.cls-3{fill:none;stroke-miterlimit:10}.cls-2{stroke:#93e019}.cls-3{stroke:#273c4d}</style><linearGradient id="linear-gradient" x1="-24.18" y1="-46.48" x2="64.78" y2="42.49" gradientTransform="translate(51.74 34.3) rotate(-0.9)" gradientUnits="userSpaceOnUse"><stop offset=".45" stop-color="#43809e"/><stop offset="1" stop-color="#b4e95e"/></linearGradient></defs><title>orchestration</title><g id="Layer_2" data-name="Layer 2"><g id="design"><path class="cls-1" d="M66.19,22l.26,0c-.07-.13-.2-.28-.19-.4s.2-.17.3-.26l.27-.22-.76-1.8c-.33.27-.61.54-.91.76a.66.66,0,0,1-.9-.24c-.05-.09,0-.27,0-.43l-.21,0c0-.53-.09-1.06-.12-1.6a.41.41,0,0,1,.1-.27c.27-.23.56-.44.83-.66s.26-.2.44-.36c.44.14.48-.65,1-.73l-.2-.13c.43-.12.53-.37.56-.83.09-.06.17-.08.21-.15s.13-.29.21-.42.42-.34.43-.71c0-.09.19-.17.29-.25a1.09,1.09,0,0,0,.25-.23l-1.23.41,0-.06.84-.38-.35-.1.63-.47-.05.32c.22,0,.48.34.6-.19l-.22.05,0-.1.86-.74.2.3L71.45,11l0,.08-.34.62.08.08.49-.7v.54c.14-.25.2-.48.33-.56s.33,0,.25.31c.25-.22.59-.14,1,.26l-.48.22v.11L74,12v.09l-.17.08a15.24,15.24,0,0,1,1.6.45,8.53,8.53,0,0,1,1.32.79.53.53,0,0,1,.07.92,1.22,1.22,0,0,1-.78.33A6.47,6.47,0,0,1,73.86,14a5.47,5.47,0,0,0,.57.51c.2.13.35.23.23.56s.19.66.38.75.3.21.46.27a1.15,1.15,0,0,0,.37,0l0-.11-.57-.44c.11-.3.23-.33.44-.21s.6.43.94.12c-.29-.47-.28-.59.18-.78.25-.1.39-.51.72-.34.13.07.27.11.43.18.07-.23.31-.48,0-.72a.38.38,0,0,1,0-.26c.1-.29.19-.57-.19-.74.93.05.93.05,1.18.46l-.67.33c.31.26.51.6.87.39.06,0,.16-.1.17-.16a.5.5,0,0,1,.37-.45c.34-.16.66-.36,1-.52.1-.05.23,0,.31-.09l.64-.42-.13.69.52-.24a.68.68,0,0,1,.22-.09,1.54,1.54,0,0,0,1-.26c.17-.1.28-.05.26.23,0,.05.16.17.17.16s.26-.29.39-.43c-.15-.33-.33-.62-.68-.69-.06,0-.1-.2-.14-.31s.23-.06.29,0a1.6,1.6,0,0,0,1.1.42,4.18,4.18,0,0,1,1.88.83c.26.16.42.22.49-.15l-.32-.41s-.07-.11-.09-.11c-.49,0-.33-.31-.26-.62,0-.12.15-.34-.11-.36,0-.15,0-.37.11-.41a1.09,1.09,0,0,0,.58-.85c.06-.33.2-.52.53-.44a3.82,3.82,0,0,0,.68.06c.23,0,.29.19.22.42s-.17.46-.26.71c.29.19.32.49.23.88a2,2,0,0,0,0,.85c0,.16.2.29.34.49-.25.58-.5,1.25-1.17,1.43.08.11.63.2.74.07.25-.28.48-.58.74-.84a.37.37,0,0,0,.06-.5.27.27,0,0,1,.16-.45c.56-.23.79,0,.83.64a.23.23,0,0,0,0,.14c0-.26.33-.55.05-.77a1.73,1.73,0,0,0-.77-.27,2,2,0,0,0-.54.09,1.07,1.07,0,0,1,0-1c0-.05,0-.26-.1-.37a3.47,3.47,0,0,0-.3-.44,2.18,2.18,0,0,1,.41-.35c.31-.14.42-.33.17-.74.34,0,.37.26.36.49a5.05,5.05,0,0,1-.11.72l1.08.2,0-.06a3.3,3.3,0,0,1-.43-.19,3.41,3.41,0,0,1-.44-.3l0-.18.7.07V10l-.41-.26c.14-.25.29-.36.53-.13,0,.06.15,0,.22.06a2.5,2.5,0,0,1,.66.31.61.61,0,0,0,.68.15c.34.11.11.23,0,.36a1.94,1.94,0,0,0-.15.24c.06,0,.14,0,.18.06a.41.41,0,0,1,.09.23,2.15,2.15,0,0,1-.08.42l.28-.27a2.52,2.52,0,0,1-.09-.72c.08-.34,0-.4-.25-.31-.16-.15-.3-.37-.48-.43-.4-.12-.18-.56-.36-.78.13-.1.25-.26.39-.28.56-.1,1.14-.15,1.7-.22.12,0,.28-.11.25.17l.2-.07-.49-.51.14-.12L93.1,7.8s0,0,0,0A4,4,0,0,1,94.88,7c.22-.07.55,0,.66-.17.3-.47.77-.13,1.09-.41.05,0,.15,0,.29,0l-.21.31L98,6.36l-.26-.11.05-.08.69,0c.12-.91,1-1.28,1.88-.83l-.41.28.92.11-.22.31,2,0,.12.42c.15-.06.41.16.38.33a.9.9,0,0,1-.37.71c-.54.33-1.06.71-1.6,1.05-.21.14-.43.23-.64.35a3.38,3.38,0,0,0-.35.3l1.72-.54-.26-.2a.53.53,0,0,1,.66-.06,1.84,1.84,0,0,0,.57.09l0-.11.11.36A3.36,3.36,0,0,1,105,8.53c-.24.37.06.35.18.38a8.75,8.75,0,0,0,.88.09.78.78,0,0,0,.46,0c.1-.06.13-.29.22-.55.28-.29.63.16,1,.15.05,0,.11,0,.16,0a.64.64,0,0,1,.84.64s0,0,0,.07l.09.37-.35-.08,0,.05.39.29s-.06.13,0,.14a7.12,7.12,0,0,0,.67.58s.18-.08.23-.16.2-.46.31-.74c.31.49.65.42,1.08.3a4.58,4.58,0,0,1,1.33,0h.24l-.18-.58c-.07-.44.54,0,.53-.51a7.09,7.09,0,0,1,1.71.27c.53.23,1.15-.13,1.64.44l-.34.14.69.27c.08,0,.21,0,.25.12.24.43.57.23.89.2a7.22,7.22,0,0,1,1.61,0c.47.06.53.27.45.82a1.13,1.13,0,0,0,1,.14,6.33,6.33,0,0,1,1.3,0,.69.69,0,0,0,.5-.14c.22-.25.41-.24.67,0l-.44.15a1.16,1.16,0,0,0,.72.51c.27,0,.37-.21.18-.43a.4.4,0,0,1,0-.48,9.19,9.19,0,0,1,1.91.1,10.57,10.57,0,0,1,2,.85c.32.15.61.37.92.53a.91.91,0,0,1,.56.78.35.35,0,0,0,.2.27v-.46a2,2,0,0,1,1.61.75l-.8.48,0-.08-.2.66c-.15.21-.35.18-.57,0s-.23-.09-.34-.16-.21-.12-.23-.21a.33.33,0,0,0-.49-.28c-.38.13-.58,0-.66-.48l-.25.11c0,.05,0,.09,0,.1a.37.37,0,0,1-.12.63,7.84,7.84,0,0,1-.78.33l.73,1.19,0,.15a.92.92,0,0,1-.43.06,1.11,1.11,0,0,0-.76.08,10,10,0,0,0-1.89,1.22l-.29.25a2,2,0,0,0-.71-.23,2.14,2.14,0,0,0-.74.37v-.29c-.29.13-.51.43-.83.29a.09.09,0,0,0-.09,0l-.62,1.24.53.05c-.2.3-.26.54,0,.79,0,0-.09.28-.13.28-.33,0-.48.23-.33.58s0,.34-.16.37c-.53.09-.56.13-.54.74-.3,0-.47.2-.56.59s-.33.49-.56.8c-.1-.43-.19-.73-.23-1a4.88,4.88,0,0,1-.19-2.08c.05-.17.18-.3.23-.47.14-.52.58-.58.86-.86s.7-.78,1-1.16c.13-.14.3-.23.43-.38a1.46,1.46,0,0,0,.29-.44c.09-.23.15-.49.22-.73-.37-.09-.51.08-.47.53-.24.18-.46.35-.68.5s-.32.22-.35.17a.36.36,0,0,1-.05-.52.75.75,0,0,0,0-.15c-.44.07-.91-.15-1.27.28s-.61.74-.93,1.13l.39.18v.09l-1.42.25,0-.11.22-.13a.83.83,0,0,0-1-.1.33.33,0,0,1-.21.07c-.54,0-1.07,0-1.61,0s-.8.45-1.15.77c-.16.14-.28.34-.43.5-.49.52-1,1-1.53,1.59l.57.1v.48l.25-.42.07.52a1.74,1.74,0,0,0,.29-.25.38.38,0,0,1,.64,0s.06.09.09.12.38.24.3.6.07.47-.12.69a.8.8,0,0,0-.14.53,2.46,2.46,0,0,1-.55,1.8c-.43.61-.83,1.25-1.24,1.87a.91.91,0,0,1-1.19.37.26.26,0,0,0-.2.06c-.14.13-.28.26-.41.4s-.22.2-.21.3c0,.52-.31.64-.59.82s-.29.29,0,.55a2,2,0,0,1,.58,1.49.45.45,0,0,1-.15.34c-.33.17-.68.3-1,.45,0-.46.31-.85-.06-1.23l.32-.27-.82-.36.21-.62c-.6-.55-1,0-1.52.26.11-.25.23-.49.33-.75a.29.29,0,0,0-.07-.19c-.11,0-.25,0-.32,0-.24.22-.44.48-.67.71-.08.07-.19.07-.28.12a2.53,2.53,0,0,0-.27.18c.07.09.14.24.22.25.25,0,.35.16.3.48.1,0,.22,0,.25,0,.25-.48.59-.14.88-.13.05,0,.1.09.15.14s-.1.13-.16.14a2,2,0,0,0-1,1,4.19,4.19,0,0,1,1,1.83l-.33.25a.65.65,0,0,1,0,1.12,2.23,2.23,0,0,0-.47,1.13c-.64.65-1.21,1.45-2.14,1.45-.16.1-.32.23-.5.32a2.58,2.58,0,0,0-.49.17c-.12.09-.18.29-.32.52l-.21-.55c-.58-.29-.91.28-1.25.73a.49.49,0,0,0,0,.66c.28.31.55.64.8,1a2.2,2.2,0,0,1,.37,1.82.56.56,0,0,1-.22.33,6.39,6.39,0,0,0-1.21,1.06.35.35,0,0,1-.12,0,1.37,1.37,0,0,1,0-.28c.05-.31,0-.49-.31-.53-.12,0-.27-.19-.33-.33a.83.83,0,0,0-.75-.6.84.84,0,0,0,0-.12l-.14-.22a1.06,1.06,0,0,0-.16.21c-.09.34-.18.69-.25,1s-.15.45.16.59c.12.06.14.38.23.56a1,1,0,0,0,.32.39,1.79,1.79,0,0,1,.82,1.31,5.44,5.44,0,0,0,.3,1c-.06,0-.17.09-.22.06A2,2,0,0,1,99,45.47a2.51,2.51,0,0,0-.58-1.34c0-.06-.14-.07-.31-.15a6.43,6.43,0,0,0-.42-3.78,4.26,4.26,0,0,1-.78.47c-.2.08-.32-.08-.25-.39a2.32,2.32,0,0,0,0-.74c0-.08-.14-.14-.24-.24V39a1.27,1.27,0,0,1-.65-1c0-.33-.17-.23-.34-.17a5.5,5.5,0,0,1-1,.3c-.24.05-.49,0-.47.44a.54.54,0,0,1-.2.31c-.35.35-.71.7-1.08,1s-.56.76-1,.88c-.06,0-.1.28-.11.43,0,.59,0,1.19-.09,1.78,0,.22-.25.42-.38.62s-.16.18-.22.28-.26.25-.43.06a.71.71,0,0,1-.15-.22c-.24-.64-.47-1.29-.71-1.93-.09-.26-.21-.51-.3-.77a5.64,5.64,0,0,1-.42-2.35,1.72,1.72,0,0,0-.16-.67c0,.4-.22.67-.49.6s-.52-.36-.85-.6l.55-.21A1.53,1.53,0,0,1,86.78,37c-.16-.24-.31-.42-.63-.36a6.44,6.44,0,0,1-2.55,0c-.26-.06-.45-.1-.51-.47s-.15-.37-.36-.09-.83.1-1.18-.18a2.35,2.35,0,0,1-.85-1c-.2-.44-.5-.41-.93.1.22.35.46.7.68,1.06a1.56,1.56,0,0,1,.17.37c0,.13.07.27.12.48l.23-.46h.11a2,2,0,0,1,0,.54c-.06.36.1.4.32.37.74-.12.76-.14,1.43-1.05a1.4,1.4,0,0,0,0,.47c.1.23.23.58.38.61a1.59,1.59,0,0,1,.9.73c-.21.29-.27.7-.63.88-.1,0-.11.35-.14.48-.31.32-.59.65-.9.91a1.82,1.82,0,0,1-.64.23c-.19.07-.42.09-.43.43,0,0-.08.1-.12.13L80,41.74c-.35.17-.72.31-1.07.5s-.6.14-.7-.37c-.06-.36-.11-.72-.17-1.09a.2.2,0,0,0,0-.11c-.4-.51-.53-1.25-1.06-1.66a1.19,1.19,0,0,1-.3-.73,1.53,1.53,0,0,0-.48-1,3.67,3.67,0,0,1-.42-.73A2.8,2.8,0,0,0,75,35.51l0-.28h0l-.15.54-.47-.45c.33.72.62,1.34.9,2,0,.09,0,.2.07.29a1.23,1.23,0,0,0,.21.43A1.21,1.21,0,0,1,76,39a1.17,1.17,0,0,0,.41,1,1.24,1.24,0,0,1,.32.69,1.06,1.06,0,0,0,.47.72,13,13,0,0,1,1,1c.06.07,0,.27,0,.41l-.08,0s0,0,0,0c.43.72,1,.35,1.46.2l.43-.1,1-.28a3.11,3.11,0,0,1-.5,1.89q-.51,1-1.08,1.92a4.12,4.12,0,0,1-.48.45c-.41.46-.82.94-1.22,1.41-.07.08-.12.21-.2.27a3.7,3.7,0,0,0-.8,1.55c0,.07-.07.2,0,.23.37.39.08,1,.31,1.42,0,0,0,.13,0,.15.42.31.22.82.29,1.24,0,.25.06.51.09.76a1.28,1.28,0,0,1-.73,1.15c-.6.22-.88.88-1.36,1.26,0,0,0,.24,0,.33a2.75,2.75,0,0,1,.24,1.44.7.7,0,0,1-.26.39,1.74,1.74,0,0,1-.41.2c-.2.11-.32.2-.27.57a1.27,1.27,0,0,1-.37,1.19,1.38,1.38,0,0,0-.25.39,4.43,4.43,0,0,1-1.24,1.61,2.52,2.52,0,0,1-1.63.45,3.47,3.47,0,0,0-1,.26.83.83,0,0,1-.71-.32l-.19-.5c.21-.2.15-.44,0-.7s-.23-.53-.35-.8a1.66,1.66,0,0,0-.24-.48,2.31,2.31,0,0,1-.59-1.52,6.46,6.46,0,0,0-1-3A1.74,1.74,0,0,1,67,54.75a2.31,2.31,0,0,1,.28-1.11,1.43,1.43,0,0,0,.15-1.73c.13-.54-.19-.93-.29-1.39a3.32,3.32,0,0,0-.83-1.37,2.19,2.19,0,0,1-.29-.39A.74.74,0,0,1,66,48a4.48,4.48,0,0,0,.22-1.34.67.67,0,0,0-.65-.67,1,1,0,0,0-.3,0c-.34.1-.59.09-.72-.41a.59.59,0,0,0-.64-.43,5.92,5.92,0,0,0-1.8.62.63.63,0,0,1-.38,0,1.68,1.68,0,0,0-1.42.12c-.43.26-.74.06-1.07-.21s-.74-.58-1.1-.88c-.12-.1-.27-.26-.27-.4,0-.53-.39-.73-.63-1.05s-.37-.32-.52-.52a1.21,1.21,0,0,1-.19-.48c-.05-.22-.08-.45-.13-.75s.24-.79.34-1.24a1.37,1.37,0,0,0-.07-.56c-.09-.32,0-.74-.3-1a.58.58,0,0,1,0-.27,3.91,3.91,0,0,1,.42-1c.2-.27.25-.61.42-.85.27-.4.4-.94.91-1.14.3-.11.52-.5.77-.78a.29.29,0,0,0,0-.18,1.48,1.48,0,0,1,.76-1.64,1.83,1.83,0,0,0,.48-.75c.11-.23.16-.44.39-.12a.46.46,0,0,0,.34.14,4.43,4.43,0,0,0,.63,0,.57.57,0,0,0,.32-.09,3.6,3.6,0,0,1,1.95-.78c.5-.06,1,0,1.5,0a.62.62,0,0,0,.29-.09c.2-.11.37-.23.55.06,0,0,.15,0,.28,0l-.23.43c.32.28.26.55,0,.81a.32.32,0,0,0-.06.24s.11.05.16.08a2.07,2.07,0,0,0,.4.28c.37.12.74.2,1.11.3.06,0,.15,0,.16.07.08.54.47.46.77.57s.32.21.5.28a.37.37,0,0,0,.31,0c.08-.08.19-.27.16-.36a.47.47,0,0,1,.24-.65.63.63,0,0,1,.86,0,.53.53,0,0,0,.19.15l1.92.57a.43.43,0,0,0,.28-.09.9.9,0,0,1,1-.09c.47.21.76,0,.88-.5a4.64,4.64,0,0,1,.16-.53A1.76,1.76,0,0,0,75.35,32a1.77,1.77,0,0,1,.08-.55,6.24,6.24,0,0,1-.92.36.93.93,0,0,1-.5-.11,4,4,0,0,1-.46-.23c-.22.43-.3.45-.67.16-.06,0-.14-.08-.19-.06-.23.11-.35-.11-.4-.25a.62.62,0,0,0-.65-.51c.22-.15.52,0,.42-.39l-.25,0c-.13-.32.29-.68-.13-.9-.26-.14-.58,0-.79.41l-.31-.21-.08.07c.15.25.29.5.45.75a2.6,2.6,0,0,0,.25.33l-.41.19-.08.6-.16-.05a.7.7,0,0,1-.46-.74c0-.09-.11-.18-.24-.37v.4h-.09l.08-.45a1.2,1.2,0,0,1-.47-1.22A.29.29,0,0,0,69.3,29a4.13,4.13,0,0,0-.55-.41,2.13,2.13,0,0,1-1.09-1,.2.2,0,0,0-.14-.1c-.28,0-.31-.16-.29-.46l-.42.18a.75.75,0,0,0,.41,1s.09.12.11.19c.13.47.4.68.74.65a2.75,2.75,0,0,0,.28.33c.16.11.34.18.49.3a1.65,1.65,0,0,1,.23.32L69,30a2.06,2.06,0,0,0-.37-.23.19.19,0,0,0-.19.05.54.54,0,0,0,0,.28c0,.12.16.28.13.32-.13.2-.27.46-.45.53s-.24.15-.21.34-.07.34-.27.23l-.51-.32a1.37,1.37,0,0,1-.22-.2,1.44,1.44,0,0,1,.32-.13,4.34,4.34,0,0,0,.63-.05c.14,0,.33-.2.33-.32A.77.77,0,0,0,68,30c-.47-.41-1-.75-1.46-1.16a1.85,1.85,0,0,1-.42-.6.49.49,0,0,0-.8-.25c-.35.22-.65.73-1.16.37-.13-.09-.37,0-.54.07a.28.28,0,0,0-.11.23c.22.62-.23.68-.52.81a1.68,1.68,0,0,0-.65.83c0,.08.06.28.11.45-.22.26-.45.56-.71.82a.63.63,0,0,1-.4.14c-.31,0-.62,0-.86.3,0,0-.25,0-.28-.09-.13-.39-.34-.47-.66-.33-.08,0-.2,0-.23,0-.11-.3-.22-.54-.29-.8a.56.56,0,0,1,0-.34,2.52,2.52,0,0,0,0-1.87c.42-.51,1-.25,1.46-.25s.73.05,1.09.05a.34.34,0,0,0,.24-.21,3.91,3.91,0,0,0,.09-1,1.41,1.41,0,0,0-.9-1.12,2.61,2.61,0,0,1-.44-.27l0-.17a2.91,2.91,0,0,1,.55-.13,3.4,3.4,0,0,1,.62.11L61.6,25l.25.11c.18.08.35.22.5-.07,0-.09.18-.11.26-.17s.21-.13.2-.19c0-.38.23-.41.43-.51a1.5,1.5,0,0,0,.7-.85.78.78,0,0,1,.41-.41,7.17,7.17,0,0,1,.83-.18c.1,0,.26-.18.25-.26a2.6,2.6,0,0,0-.21-.83.78.78,0,0,1,.29-1,3.52,3.52,0,0,0,.55-.37,2.93,2.93,0,0,0-.09.55c0,.11.12.21.17.29l-.34.51c-.23.54.32.55.44.85,0,0,.15,0,.21,0,.23-.1.44-.22.58-.29.18.17.31.39.42.38a2.28,2.28,0,0,0,.67-.28c.31-.14.6-.55.95,0,0,0,.19,0,.28-.06s.33-.26.53-.41a3.33,3.33,0,0,1,0-.79,1.15,1.15,0,0,1,.32-.65c.21-.21.32.09.47.23s.18.11.23.07a.47.47,0,0,0,.14-.28,2,2,0,0,0,0-.43L71,20a1.54,1.54,0,0,1-.25-.47.43.43,0,0,1,.27-.32,7.45,7.45,0,0,1,.94-.08c.12,0,.26.05.37,0a5.93,5.93,0,0,0,.65-.4c-.27.06-.47-.39-.83-.23a4,4,0,0,1-1,.28,1.44,1.44,0,0,1-.62,0,2,2,0,0,1-.48-.25c-.06-.45-.12-.85-.15-1.25a.78.78,0,0,1,.13-.51c.34-.39.72-.75,1.08-1.11l.26-.24c.08-.26-.14-.37-.37-.42a2.26,2.26,0,0,0-.45,0,.72.72,0,0,0-.6.79.31.31,0,0,1-.05.24,3.38,3.38,0,0,1-.54.53,1.67,1.67,0,0,0-.84,1.22c0,.32-.11.61.26.74.14.05.25.25.41.41-.16.21-.26.46-.42.55a.75.75,0,0,0-.45.83c0,.17.07.33.07.49a.38.38,0,0,1-.11.28c-.15.08-.34.09-.49.17a3,3,0,0,0-.39.33c-.14.05-.44.37-.45-.17a1.5,1.5,0,0,0-.17.23,1,1,0,0,0,0,.18C66.57,22.15,66.46,22.2,66.19,22Zm8,5.06.26-.21c-.23-.07-.5-.06-.63-.22s-.28-.12-.37,0S73,27,73,27.37c0,0-.07.05-.1.09a3.48,3.48,0,0,0-.23.38,2.69,2.69,0,0,1-.19.38.68.68,0,0,0,.25,1,1.19,1.19,0,0,0,1.15-.11,1.47,1.47,0,0,1,.71-.24c.32-.05.6.18.89.28a4.19,4.19,0,0,0,1.41.16.69.69,0,0,0,.48-.43c.07-.26-.13-.46-.35-.61-.45-.29-.87-.63-1.3-1a.51.51,0,0,1-.11-.11l.51-.52L76,26.47l.46-.27,0-.12-1.53.6c.16.37.16.37.65.44,0,.06,0,.14-.09.16-.27.12-.54.25-.81.35-.05,0-.15-.06-.2-.13A4.24,4.24,0,0,1,74.17,27Zm6.29.42c.15,0,.28,0,.29-.06.07-.36.28-.38.54-.44.09,0,.17-.27.22-.44s0-.3-.08-.31c-.24,0-.52-.12-.72,0a3,3,0,0,0-1.44,1.25c.1.18.25.33.26.49.06.8.65,1.12.94,1.68a1.46,1.46,0,0,0-.4,1c0,.38.28.34.43.5.45.49.9.33,1.36.16a5.11,5.11,0,0,0,0-.79c0-.22-.1-.54-.23-.61-.28-.15-.14-.33-.13-.5h.64l0-.13a1.21,1.21,0,0,1-.24-.21c-.24-.39-.32-.38-.54.05v-.63l-.09.08Zm-8.28,2.29.75-.15C72.56,29.33,72.38,29.37,72.18,29.75ZM17.39,26.42a6.55,6.55,0,0,1-1.55-1.25l0-.11.64.16c-.19-.18-.43-.3-.5-.5s-.41-.52-.53-.84a.27.27,0,0,0-.1-.11l-.48-.43.33-.14-.79-.82.06.43c-.5,0-.5,0-.65-1l-.14.32-.11-.51.34-.19L13.86,21l-.41,1-.6-1.11a.2.2,0,0,0-.07-.06c-.32-.22-.65-.43-1-.66a.63.63,0,0,1-.14-.21l-.61-.12a1.77,1.77,0,0,0-.54-.1,1.38,1.38,0,0,1-1.15-.36.78.78,0,0,0-.8-.1c0,.12.09.33,0,.41s-.25.08-.37.15-.35.24-.54.35-.26.12-.46.22c.17-.56,0-1.22.7-1.25-.19-.19-.19-.19-.48,0a1.25,1.25,0,0,0-.23.23l-.75.94.37.22L4.11,22.76c-.15-.17-.28-.15-.49,0a4.86,4.86,0,0,1-1,.5l-.07-.13.34-.26a4.3,4.3,0,0,0,.55-.35c.2-.16.37-.35.59-.19a2.14,2.14,0,0,1,.37-.41,1.39,1.39,0,0,0,.8-1.17.66.66,0,0,1,.1-.18H4.79l0,.19c-.18-.1-.33-.2-.5-.28a.18.18,0,0,0-.16,0,3.44,3.44,0,0,0-.38.27l-.18-1c-.51.32-.69.29-1-.16,0,0-.05,0-.05-.06a1.07,1.07,0,0,0-.07-.38,1.19,1.19,0,0,0-.31-.28c.19-.35.36-.67.54-1,0-.06.12-.16.14-.14.32.17.55-.11.81-.18.48-.12.53-.18.24-.68l.19-.2c-.08,0-.14-.07-.16-.05-.4.36-.89.17-1.33.28A.65.65,0,0,1,2,16.83c-.09-.06-.09-.28-.15-.42s-.09-.07-.14-.09a1,1,0,0,1-.39-.23l1.48-.76c.06.49.47.6.87.33l-.43-.47.31,0v-.08l-.27,0a.62.62,0,0,1-.52-.29,4.61,4.61,0,0,0-.92-.67L2,13.8l.52-.06a.66.66,0,0,0,.55-.48,1.17,1.17,0,0,1,.57-.57c.5-.29,1.09-.29,1.53-.66a.4.4,0,0,1,.54,0s0,.1,0,.1a4,4,0,0,0,.41.1,1.22,1.22,0,0,0,.27,0c.22,0,.41-.1.62.19s.49.08.74.11.36,0,.54.06a4.54,4.54,0,0,0,1.83.18.5.5,0,0,1,.24,0l1.29.35c.06,0,.1.08.16.11a4.73,4.73,0,0,0,.8.35c.08,0,.2-.1.31-.17l.57-.39c.14.23.26.22.47.08a8.75,8.75,0,0,1,1.17-.53l.05.13-.13.18c.16,0,.34,0,.45,0a1.58,1.58,0,0,0,.29-.53l.83,1,.35-.78.17.7c.06,0,.21,0,.26-.09.31-.45.64-.23,1-.1a3,3,0,0,0,1.75.45.72.72,0,0,1,.68.44l-.43.26,0,.17a6.69,6.69,0,0,0,1.27,0,1.24,1.24,0,0,1,1.06.15s.1,0,.06,0l1-.74-1,.32-.06-.18a1.71,1.71,0,0,1,.27-.2c.15-.07.31-.09.46-.16s.35-.07.47.21.24.33.36.32c.46,0,.86.43,1.36.2.19-.09.44,0,.69,0l.07-.41.37-.18-.7-.28a3.63,3.63,0,0,1,.39-.53c.07-.07.24-.14.3-.09a7.39,7.39,0,0,1,.59.54c.06.06.12.1.23.19l-.67.3.39.16c0,.24-.26.68.29.64,0-.08,0-.15-.08-.22s-.05-.31.15-.37a.75.75,0,0,0,.51-.59l-.33.11c.14-.52.14-.5-.29-.7-.24-.1-.6-.15-.37-.65,0,0-.06-.11-.06-.16s0-.41.05-.43c.25-.1.2-.48.44-.52a4.65,4.65,0,0,0-.14-.54c-.22-.56-.09-1.31.61-1.25a7.45,7.45,0,0,1,1.21.2c-.36.4-.43,1.23-1.08.94l-.33.73a1,1,0,0,1,.58.74c0,.19.26.35.37.49l-.23.42.71.16,0,.82.1,0L29.8,13a4.8,4.8,0,0,1,.45.41.43.43,0,0,1,.08.3c-.06.5-.07.5.21.83l.13-.1.12-.11-.14-.5.09-.07.2.27a2.36,2.36,0,0,1,.12-.28,4,4,0,0,0,.2-.35.46.46,0,0,0,0-.26,5,5,0,0,0-.18-.48l.49-.08h0c.33.21.78,0,1,.57.07.23.14.56-.37.47a4.06,4.06,0,0,1,.38.59c0,.13.06.4,0,.44a7.23,7.23,0,0,1-.95.6c-.08,0-.21,0-.32-.06L30.82,15l0,.11.22.15c-.22.44-.43.86-.64,1.26a.42.42,0,0,1-.17.2l-1,.35c.2.31.16.52-.11.51s-.28.12-.37.23a2.89,2.89,0,0,0-.82,2c0,.28,0,.43.33.41.1,0,.26.13.32.25a8,8,0,0,1,.27.79,1.29,1.29,0,0,1,1.43.27,2.94,2.94,0,0,0,1.8.75c.28,0,.45.08.4.53a2.09,2.09,0,0,0,.74,1.68s.18,0,.26-.05.42-.26.35-.57-.23-.84-.35-1.24a5.81,5.81,0,0,0,.81-.62,1.06,1.06,0,0,0-.16-1.55c-.32-.21-.39-.37-.12-.69a.61.61,0,0,0,.08-.74.47.47,0,0,1,0-.5c0-.06,0-.19,0-.29s-.09-.34,0-.4a.45.45,0,0,1,.37-.13,5.37,5.37,0,0,1,.67.15c.06,0,.12.05.17,0,.56-.3.8.2,1.13.57.17.2.5.2.76.3a1.15,1.15,0,0,0,.1,1c.19.22.47.54.68.5a.82.82,0,0,0,.69-.8,1.43,1.43,0,0,1,.25-.51c.35.54.69,1.06,1,1.6a1.69,1.69,0,0,1,.23.55c0,.07-.07.18-.11.29a4.75,4.75,0,0,0,.66.69,5.54,5.54,0,0,0,.92.4l-.16.21c.2.12.4.23.58.36a.87.87,0,0,1,.07,1l-.23.24v0a1.6,1.6,0,0,0-1,.48,1.33,1.33,0,0,1-.82.3c-.4,0-.82,0-1.23-.05s-.63,0-.77.44c0,.07-.16.08-.23.14a6.13,6.13,0,0,0-.7.74c.38-.22.75-.47,1.14-.66a1.22,1.22,0,0,1,.57-.08c.11,0,.21.13.31.2a1.37,1.37,0,0,1-.21.36,1.54,1.54,0,0,1-.45.15l.46.08c-.07.57,0,.79.42.84h0c0,.05.05.16.09.16l.64.09.4-.73.28.65c-.36.2-.75.43-1.15.62-.23.11-.46.15-.63.41s-.29.31-.45.07,0-.39.16-.52l.3-.28-.08-.13-.83.49a5.14,5.14,0,0,0-.87.46,1.81,1.81,0,0,0-.38.73c0,.07.17.24.24.35l-1.28.61L35,31.86l-.09-.54-.15,0c.07.26.16.51.22.77s.21.53-.14.67c0,0,0,.18-.09.19l-.92.8c-.13.11-.24.24-.37.35a1.08,1.08,0,0,0-.35,1.28,7.36,7.36,0,0,0,.31.9,1.63,1.63,0,0,1,0,1.3,1.93,1.93,0,0,1-.3-.26,5.23,5.23,0,0,1-.41-.63.84.84,0,0,1-.15-.48.68.68,0,0,0-.2-.66c-.17-.21-.3-.32-.52-.12a.23.23,0,0,1-.24,0c-.2-.29-.46-.26-.73-.22a4.53,4.53,0,0,1-.64,0l-.13.36.2.16s-.06.07-.07.07l-.44-.08-.87-.17-.07,0c-.42-.12-1.45.64-1.54,1.14,0,0,0,0,0,0,.2.58-.11,1.11-.12,1.67a2.31,2.31,0,0,0,.41,1.46c.17.25.26.53.57.69a1.08,1.08,0,0,0,.81,0l.49-.08.08.09.3-1c0-.05,0-.13.07-.13A4.37,4.37,0,0,1,31,39.22c.24,0,0,.31,0,.48s-.12.09-.13.15c-.1.46-.18.92-.28,1.38a3.3,3.3,0,0,1-.17.45h.93c.32,0,.65-.12.89.22a.83.83,0,0,1,.18.46,9.48,9.48,0,0,1-.14,1.07c-.11.6.32.82.58,1.13s.44.12.66,0c.46-.28.66-.22,1.18.33a2.14,2.14,0,0,0,.58-.93c0-.17.37-.24.57-.35l.55-.29c.12-.06.25-.1.37-.15l-.19.45s.13.12.19.09a4.5,4.5,0,0,0,.49-.37s.24,0,.32.18c.29.45.72.29,1.08.42s.42.21.63,0c0-.06.08-.15.1-.17h.67L40,44a1.22,1.22,0,0,0,.19.12l.5.22-.17.36h.09a.93.93,0,0,1,.89.52c.21.37.53.66.91.57a1.87,1.87,0,0,1,1.7.72c.07.06.07.23.11.33a2.48,2.48,0,0,0,.28.59c.14.19.21.34-.05.57l.73.45-.11.41c.22-.45.52-.39.83-.19s.69.09.76.62l.13,0a8.54,8.54,0,0,1,1.34.1,2.14,2.14,0,0,1,.77.49c.26.22.47.47.83.44.08,0,.23.13.27.24a1.81,1.81,0,0,1-.41,2.08c-.15.19-.26.4-.4.6s-.25.3-.35.47a1,1,0,0,0-.14.42,9.18,9.18,0,0,1-.07,1.4,4.13,4.13,0,0,1-.49,1.63,3.85,3.85,0,0,0-.33.64c-.17.41-.52.26-.79.37s-.34.16-.51.25a7.1,7.1,0,0,0-.7.41,1.18,1.18,0,0,0-.48,1.32,1,1,0,0,1-.16.59,5.19,5.19,0,0,1-.44.76c-.15.23-.32.43-.48.65s-.17.24-.25.37c-.18.31-.35.63-.54.93s-.63.24-.95.2a3.38,3.38,0,0,1-.76-.31c.08.13.1.23.15.27.21.12.45.21.32.58a.24.24,0,0,0,0,.08c.12.11.31.23.18.44s-.34.62-.58.73a6.79,6.79,0,0,1-1.34.36l-.07.85c-.3.34-.63.1-1.05,0a6.69,6.69,0,0,0,.23.74s.2,0,.36,0v.28l-.39-.08,0,.12a4.42,4.42,0,0,1-.23.7,1.76,1.76,0,0,1-.32.45s-.14,0-.18.11-.31.36-.28.5a.78.78,0,0,0,.39.45c.28.14.36.36.13.6s-.59.47-.6,1c0,0-.06.08-.1.11-.45.35-.48.56-.17,1.1l.07.14H38a8.15,8.15,0,0,0,.71.93,5.14,5.14,0,0,0,.81.52l-.41.1c-.23.08-.51,0-.66.34a.06.06,0,0,1-.06,0c-.14-.25-.48.07-.62-.33,0-.15-.42-.15-.67-.22l.08-.11-.2-.33-.5-.48-.29-.44.21-.06-.16-.48-.36.13a5.69,5.69,0,0,0,.16-.78s-.18-.13-.29-.19c0-.36-.22-.77.13-1.1l.15.16.14-.59-.5-.1a3.66,3.66,0,0,1,.2-.39c.11-.21.33-.38.18-.7,0,0,.12-.19.22-.34l.08.31.1,0,.27-1.57c-.41,0-.33.36-.33.57s0,.35-.33.3c.13-.64.27-1.27.36-1.9a2.15,2.15,0,0,0-.07-.71.79.79,0,0,1,.09-.56,8.34,8.34,0,0,0,.52-1.74,10.25,10.25,0,0,0,0-1.11c0-.5.13-1,.18-1.48s.13-1.27.2-1.91a5.54,5.54,0,0,0,.07-.57,8.1,8.1,0,0,0-.08-1.57c-.11-.48-.52-.7-.88-.94a8.29,8.29,0,0,1-1-.74c-.13-.11-.16-.37-.25-.56s-.23-.46-.34-.7c-.31-.63-.61-1.27-.91-1.9,0-.11-.11-.28-.18-.29-.4-.1-.39-.53-.42-.82a1.46,1.46,0,0,1,.36-.74c-.06-.19-.34-.31-.24-.64s.16-.9.53-1.16c.06,0,.07-.14.12-.21a2.48,2.48,0,0,1,.34-.43c.31-.26.22-.62.22-1a1.4,1.4,0,0,0-.31-1.12.31.31,0,0,1-.07-.14c-.15-.53-.25-.57-.6-.23a.49.49,0,0,1-.13.1l.16.34c-.15,0-.27.05-.35,0-.24-.15-.41-.45-.74-.34-.07,0-.18-.12-.26-.2a4.72,4.72,0,0,0-.5-.41c-.15-.08-.25-.1-.3-.36a2.43,2.43,0,0,0-.47-.78,3.05,3.05,0,0,0-.22-.32c-.18,0-.41-.08-.63-.14a2.32,2.32,0,0,1-1.41-.85.57.57,0,0,0-.87-.16c-.29.2-.57,0-.82-.08-.49-.22-1-.5-1.44-.76s-.66-.34-1-.53a.63.63,0,0,1-.33-.76,1.09,1.09,0,0,0-.17-.76c-.36-.47-.78-.87-1.17-1.31a.57.57,0,0,1-.09-.39l-1.15-1.21a1.15,1.15,0,0,0-.85-1.17c0,.57.06.73.45,1,.1.06.11.28.18.41l.81,1.53c.1.19.1.44.37.52.1,0,.33.33.06.47-.28-.23-.53-.43-.77-.64-.07-.06-.16-.21-.14-.28.12-.49-.21-.59-.46-.76l-.62-.43c.42-.13.48-.29.2-.54a6.59,6.59,0,0,1-1-1.85,2.29,2.29,0,0,0-.88-.68c-.16-.09-.28-.11-.38-.35a17.89,17.89,0,0,0-.89-1.61,1.87,1.87,0,0,1-.37-1.37.17.17,0,0,0,0-.12,4.29,4.29,0,0,1,0-1.92,2.82,2.82,0,0,0-.22-1.41c-.12-.25,0-.3.15-.32s.12.1.18.1a2,2,0,0,0,.33-.08c-.05-.13-.07-.3-.14-.37a7.79,7.79,0,0,0-.71-.54c0,.48.67.32.6.9Zm13.32.46c.35.62.88,0,1.31.31-.09-.35,0-.76-.45-.76,0,0-.1-.09-.12-.14-.15-.46-.45-.35-.71-.22a5.84,5.84,0,0,0-.74.48l-.62.47c.17,0,.39-.06.41,0,.15.31.3.07.43,0a3,3,0,0,0,.44-.29s.09,0,.16,0Zm1.56,1.87c.47-.59.47-.05.58.24H33l.22-1.09.45.37c.07-.44-.1-.7-.36-.76s-.62-.31-.94,0c-.06.05-.19,0-.32,0C32.59,28,32.6,28.05,32.27,28.75Zm-1.23,1a.6.6,0,0,0,.36-.82.85.85,0,0,1,.27-1,2.22,2.22,0,0,0,.25-.41A.77.77,0,0,0,31,28l.17-.1A2.18,2.18,0,0,0,31,29.72Zm1.43-.13A1.15,1.15,0,0,0,34,29Zm1.32-.74c.33,0,.62,0,.91,0s.34-.18.22-.43C34.59,28.66,34.1,28.32,33.79,28.85ZM37.68,74l.12-.53-.23,0v-.36l-.07,0-.22.76.09.08.14-.27ZM36.62,44.51h.21L36.77,44h-.16Zm6.3-29c.45.23.29.82.58,1.15a8.18,8.18,0,0,1,.63,1.09c.2.34.44.66.56.85.44.14.75.21,1.05.34s.3.26.47.32a.36.36,0,0,0,.36-.12,7.11,7.11,0,0,0,.27-.93,5.84,5.84,0,0,1,.24-.87c.13-.3.46-.48.37-.92,0-.06.09-.14.16-.23l-.24-.31c.12,0,.36-.1.37-.18,0-.27.18-.24.31-.26s.34-.17.53,0,.12,0,.15,0c.44-.43,1.09-.55,1.32-1.29,0-.09.12-.16.18-.23l.32-.42c.23.27.5,0,.77,0,1.06-.05,1.82-.85,2.75-1.42l-1.6-.16.42-.27-.14-.58.11-.08c.17.2.32.41.49.6a.64.64,0,0,0,.31.22,4.16,4.16,0,0,0,.71,0,4.18,4.18,0,0,0-.33-.88,1.84,1.84,0,0,0-.57-.47c-.32-.19-.33-.18-.35-.49l.8.59c.26-.55.25-.61-.13-.83l-.67-.34c.11-.06.24-.08.3,0,.39.37.77.1,1.15,0,0,0,.08-.16.12-.25-.43-.22-.64-.36-.62-.41.34.34.66,0,1.09,0-.17-.24-.28-.42-.41-.57s-.15.09-.25.15a1.33,1.33,0,0,1,0-.29,2.14,2.14,0,0,1,.45,0c.11-.34-.05-.87-.33-.88a.88.88,0,0,1-.71-.42l.4,0A3.56,3.56,0,0,1,55,6.55c.34,0,.36,0,.31-.35L54.54,6l0-.15.49.06c-.34-.31-.61-.38-.89-.13a1.48,1.48,0,0,1,.89-1.32l-.13-.55-.29-.11c.11-.32.25-.42.52-.36a1.05,1.05,0,0,0,1-.18L56,3.08l1.83-1a2.18,2.18,0,0,0-1.45-.35,1,1,0,0,0-.53.22c-.17.14-.32.23-.53.14a.76.76,0,0,0-1,.21,1.84,1.84,0,0,1-.61.35c.22-.35.68-.49.5-1.13-.17,0-.43-.08-.52,0-.35.41-.65.14-1,.06a5.15,5.15,0,0,0-1.24,0l-.3,0V1.56a2.3,2.3,0,0,1,.28-.06c.64-.06,1.28-.09,1.92-.17a4.42,4.42,0,0,0,.78-.25l0-.16A4.55,4.55,0,0,0,51.5.58V.47l1-.12A9.12,9.12,0,0,0,47.83.26l.32.31s-.07.06-.09.06C47.7.44,47.34.17,46.94.54c0,0-.07,0-.1,0-.44-.25-.85,0-1.27.09a3.69,3.69,0,0,1-.46.08V.85l1.14,0V.91l-1.5.2c.21.42.6.37.86.57l.19.16L45.74,2c-.37-.15-.73-.29-1.09-.45a2,2,0,0,0-1.26-.18l.5.52,0,.1-1.11-.47L42.67,2c-.16-.49-.3-.65-.6-.6s-.72.16-1.08.21-.61.32-1,.29c-.17,0-.28.13-.23.39,0,.11-.09.36-.14.36a1.05,1.05,0,0,0-.73.11c-.39.25-.8.43-1.2.65,0,0-.07.16-.07.24a.23.23,0,0,0,.17.1c.22,0,.45,0,.7,0a3.38,3.38,0,0,1-.2.59.78.78,0,0,1-.34.31c-.5.16-1,.28-1.52.42a4.44,4.44,0,0,0-.62.19.35.35,0,0,0-.17.26.33.33,0,0,0,.14.23c.62.24,1.22.67,1.91.31.06,0,.15,0,.22,0a.17.17,0,0,1,0,.1.28.28,0,0,1-.17.07l-1.42.2a1.18,1.18,0,0,0-.18.16l.9.34-.29.28a3.25,3.25,0,0,0,1,.23,10,10,0,0,1,1.37-.26,7.6,7.6,0,0,1,1.63.49.18.18,0,0,1,.11.13c-.06.33.19.36.34.49s.45.27.3.57a2.4,2.4,0,0,1,.27.36,2.25,2.25,0,0,1,.14.44l.09,0-.1.23.31.18-.11.23,0,0,0-.25-.27.08a2.52,2.52,0,0,1,.14.66c0,.37,0,.51.35.44.14,0,.27-.2.39-.3a1.45,1.45,0,0,1,.1.18c0,.08.06.16.1.25l.25,0,.28.06-.14.06.27.35-1.19-.25,0,.11.13.26-.08,0-.21.5a.7.7,0,0,0,1.16.07l-.66-.49c.27.07.61.11.78.33s.11.59.18,1a2.33,2.33,0,0,0-.6-.11c-.36.05-.5,1.19-.17,1.34C42.72,14.89,42.7,15.38,42.92,15.49ZM117.33,56.8l-.43-.11a1.7,1.7,0,0,0-.8-1.21c-.13-.08-.32-.13-.37-.25a10.41,10.41,0,0,1-.41-1.45c-.07-.4-.25-.54-.54-.51l-.48-1.54-.1,0a4.66,4.66,0,0,0-.28,1.59,4.08,4.08,0,0,1-.18,1.1c-.11.38-.31.4-.58.16-.11-.09-.23-.16-.34-.24l-1.1-.8c.16-.33.31-.6.43-.89,0-.08,0-.29,0-.31s-.24,0-.36,0l-1-.23-.42-.13.31.33c-.1.06-.19.15-.29.16a1.09,1.09,0,0,0-.8,1.28l-.7-.44c-.08,0-.16-.14-.24-.14-.32,0-.9.65-.92,1.05l-.28.07v.44l-.28-.41a1.82,1.82,0,0,0-.24.52,1.18,1.18,0,0,1-.76,1c-.21,0-.41.13-.62.19a2.51,2.51,0,0,0-1.45.9l-.11-.21a4.77,4.77,0,0,0-.17,1,4.32,4.32,0,0,0,.27.89l-.07,0-.14-.28-.08.09c.09.29.19.59.28.89.18.56.38,1.12.53,1.7.09.35.23.74-.12,1a.28.28,0,0,0,0,.24,1,1,0,0,0,1.19.34,1.73,1.73,0,0,1,1.49-.48.58.58,0,0,0,.63-.34c.16-.25.53-.33.81-.45s.47-.05.67-.17c.68-.41,1.32-.08,2,.12.06,0,.11.1.15.16.17.33.32.68.5,1,0,0,.09.05.14.07l-.15-.2.85-.57-.27.89,0,.06.41-.47V63c.33,0,.48.22.56.57s.21.54.36.58c.43.11.85.6,1.32.15,0,0,.11,0,.16,0l.54.25c.3-.25.52-.64,1-.59.23,0,.3-.14.37-.41a7,7,0,0,1,.64-1.93,4.29,4.29,0,0,0,.51-2.51c0-.39-.1-.78-.15-1.13l-.12.12C117.92,57.55,117.31,57.46,117.33,56.8ZM39.86,1.43A5.1,5.1,0,0,1,38.74,1c-.24-.16-.62,0-.94,0A3.17,3.17,0,0,0,36.67.77c-.47,0-1-.19-1.32.13L34.07.83V1l.42.3,0,.13A1.55,1.55,0,0,0,32.93,1l.19.23c-.13,0-.24-.1-.33-.07a4.88,4.88,0,0,0-.65.32,1.57,1.57,0,0,0,.06.23c-.12,0-.28.08-.36,0a.9.9,0,0,0-1.2.06l.15.07a4.62,4.62,0,0,0-2,.44c.11.33.46-.21.47.31l.38-.09-.2.34A1,1,0,0,0,31,3l-.35.31,0,.16,1.05-.17c.08,0,.16,0,.23,0a1.09,1.09,0,0,0,1.3-.35.29.29,0,0,1,.26-.07,1.54,1.54,0,0,1,.32.23l-1.9.58.67.53a.23.23,0,0,1-.23,0A1.65,1.65,0,0,0,31,3.69a1.4,1.4,0,0,0-.37.14,2.65,2.65,0,0,0,.28.43c.13.13.32.17.43.3a1.46,1.46,0,0,1,.15.46c-.78,0-1.27.2-1.11.74l.91-.08-.23.23.09.4c-.33-.23-.62-.54-1.12-.07l.46.33c-.87.25-.89.27-.85.67l.13,0a2.42,2.42,0,0,1,1,0c.49.23.92-.09,1.38-.09.27,0,.46,0,.62.32.28-.13.56-.24.83-.38a.42.42,0,0,0,.15-.21s0-.13-.09-.15c-.26-.09-.52-.16-.81-.24.35-.15.91.16.89-.62.85,0,1-.26.88-.55L35,5.2V5.1l-.56-.22v-.1H35v-.1l-.32,0a3.19,3.19,0,0,1-.36-.15c.48-.06.88,0,1.28-.32.3.12.63,0,.82-.46a.39.39,0,0,1,.13-.17l1.63-.91a2.22,2.22,0,0,0,.27-.19l0-.09-.69.1C38.39,2.07,39.2,2.13,39.86,1.43ZM31.59,12.57a1.87,1.87,0,0,1,1.35.18c.31.2.41-.15.59-.27a2,2,0,0,0-.09-.47l1.25,1-.31.27,0,.21c.33-.43.58-.19.86,0a1.53,1.53,0,0,1,.67,1l-.81.85.38.22-.05.14a3.15,3.15,0,0,1-.91.11A.55.55,0,0,0,34,16c-.15.2-.12.43.1.48a1.26,1.26,0,0,0,.64,0c.43-.11.84-.28,1.17.26.08.12.25.17.46.31l-.15.07c.13.17.25.35.39.51s.15-.06.23-.07a.45.45,0,0,1,.23,0c.41.18.81.37,1.27.59a.87.87,0,0,0-.44-.73L37.28,17l.06-.09,1.29.69a2,2,0,0,0,.18-.72,2,2,0,0,0-.36-.68.13.13,0,0,0-.09-.06c-.45,0-.54-.56-.86-.77l.19,0,.17-.43c.25.17.56.27.6.45.11.48.41.51.72.63l.06-.43c.24-.05.43-.16.37-.46l.34-.29v-.14l-.47-.08a.68.68,0,0,1-.2-.06c.06-.42-.23-.13-.31-.27-.42-.52-1.1-.51-1.51-.91l.19-.36H38l0-.08-.46-.24.25-.14c-.18-.43-.26-.46-.58-.23l.15-.39-1.06-.31c0-.12,0-.3-.08-.33-.23-.13-.48-.25-.71,0a4.21,4.21,0,0,0-.39-.44,1.92,1.92,0,0,0-.78-.49c-.25-.11-.54-.17-.68.25,0,.06-.1.1-.15.15-.24-.42-.44,0-.7.09a.94.94,0,0,0,0-1h0a.64.64,0,0,0-.91-.3,2,2,0,0,0-.53.25,1.08,1.08,0,0,0-.3.52c0,.09.14.25.21.35L31,11l.47.36-.06.29a2.14,2.14,0,0,0-.25-.34,1,1,0,0,1,0-1.54l.19-.18s-.07-.08-.1-.09a1.37,1.37,0,0,0-1.66,1.16c-.16.63,0,.87.54.95.1,0,.21.06.31.08v.1l-.63,0c.09.4.36.63.67.57s.33-.1.46.12c0,.06.17,0,.25,0l.46.13Zm-12-2.21-.49.72c-.1.15-.1.28.07.34l.71.23-.62.24V12a1.69,1.69,0,0,0,.49.2c.32,0,.65-.06,1-.05a6.45,6.45,0,0,1,.88.14v.14a4,4,0,0,0-1.88.19c.15.48.29.58.84.59.21,0,.45-.08.49.32,0,.09.21.22.32.22a4.25,4.25,0,0,0,1.12-.14,7.73,7.73,0,0,0,1.13-.49,1.42,1.42,0,0,0,1.82,0l-.32-.33c.07-.07.27,0,.41.23.19-.33.06-.52-.22-.62a3.42,3.42,0,0,1-.62-.27c-.19-.12-.45-.21-.34-.59,0-.08-.06-.2-.1-.3-.1-.26-.21-.53-.32-.79H24c0-.23.2-.5.14-.68s-.57-.14-.77.1l.25.23L23,10c-.13.46.14.81.23,1.21-.23.24-.28,0-.32-.17a.88.88,0,0,0-.73-.75s-.06,0-.11,0l.12.21-.29.2c-.33-.58-.7-.51-1.1-.1.09-.62,0-.71-.45-.54l-.58.24Zm93.14,40.42a.73.73,0,0,1,1,.27c.15.21.8,0,.88-.16.22-.51.66-.67.94-.24a1.74,1.74,0,0,0,1.4.93s.08.09.12.08a.84.84,0,0,0,.15-.08l-1.41-1.49.5-.15c-.16-.12-.24-.21-.34-.27s-.42-.11-.46-.24c-.22-.63-.72-.7-1.16-.87s-.88-.31-1.31-.51-.72-.22-1.12.28c-.09.12-.31.29-.33.26s-.34-.37-.34-.56c0-.35-.08-.54-.37-.56a2.92,2.92,0,0,0-.51,0c-.15,0-.29.08-.46.13a5.6,5.6,0,0,0,.6.51,1.62,1.62,0,0,0,.57.07l-.59.2c.09.11.23.2.24.3.07.59.22.1.29.07l.9.38a1.48,1.48,0,0,1,.51.23,2.3,2.3,0,0,1,.45.68c.12.26-.18.24-.24.38s-.07.19-.12.31S112.65,50.8,112.71,50.78Zm-7.63-6.28c-.15-.17-.24-.15-.35,0a1.64,1.64,0,0,1-.8.84c-.07,0-.11.16-.18.23s-.24.36-.39.42c-.31.1-.57.2-.55.68l-.59-.18a.67.67,0,0,0-.13.75c.11.25.25.49.34.75s0,.68.38.61.41.27.69.12a.48.48,0,0,1,.68.31l.56-.18c0-.39-.07-1,.41-1.24a.19.19,0,0,0,0-.08c-.08-.46.09-.67.45-.64l-.54-1,.41-.61,0,0,.31-.11C105.5,44.89,105.27,44.71,105.08,44.5Zm-25,9.13a1.3,1.3,0,0,1-.84.88.85.85,0,0,0-.49,1.19,1.46,1.46,0,0,1-.15,1.18,1.5,1.5,0,0,0-.11.67,5.12,5.12,0,0,0,.1.54c0,.36.32.77.61.7s.61,0,.73-.47l.3-1.17.45-2c0-.25.08-.49.12-.72l.12.1.1,0a3.25,3.25,0,0,0-.45-1.59A3.17,3.17,0,0,0,80.07,53.63Zm2.17-43.16a.73.73,0,0,1,.07-1,8.44,8.44,0,0,0,.61-.83,3.58,3.58,0,0,1,1.45-1.3c.7-.35,1.44-.54,2.16-.84.15-.06.26-.3.39-.46a2.09,2.09,0,0,0-.57-.18.9.9,0,0,0-.41.17,2.74,2.74,0,0,1-.49.29c-.5.13-1,.19-1.52.36a8,8,0,0,0-1,.55l-.62.31a1.47,1.47,0,0,1-.76,1.14l.14.35a.61.61,0,0,0-.53.68.39.39,0,0,1-.21.28c-.19,0-.3.13-.23.33a.39.39,0,0,0,.32.18c.39,0,.47.07.49.59l1.45.12A8.49,8.49,0,0,1,82.24,10.47ZM28.54,4.68l-.6.29a1.54,1.54,0,0,0,1.9.66,3.24,3.24,0,0,1,1.36-1l0-.14-.65-.25c-.14-.19-.24-.32-.33-.46s-.12-.18-.17-.27l-.29.26-.15-.36c-.39.11-.61-.2-.83-.46a.83.83,0,0,0-1-.25l.35.14-.74.19v.1l.29.2v0l-.48-.12-.08.48.26.11v0H27l0,.11.49.36-.07.14c.09,0,.18.12.27.12.3,0,.59-.07.89-.1ZM61.93,22.21a.9.9,0,0,1-.2-.26c-.14-.23-.28-.45-.46-.76l.32-.8-.83-.07.39-.52c-.59-.05-1,.13-1,.75l-.29-.07,0,.09.3.24-.17.49.29-.17-.05.63.09,0,.17-.36h.06l-.07.7.51,0a1.9,1.9,0,0,1,.22.63c0,.4-.33.15-.57.23.4.45.15.68-.19.91L61,24l-.69.76a.27.27,0,0,0,.19,0c.33-.1.66-.21,1-.29s.85-.2,1.27-.3c0,0,0-.06.05-.1l-.13-.1.24-.71-.5-.21C62.26,22.81,62.26,22.41,61.93,22.21ZM101,48.63l.31,0c-.1-.19-.19-.32-.25-.46-.14-.33-.25-.23-.37,0l.2.12-.08.11-.69-.79a.94.94,0,0,0-.14-.59,1.87,1.87,0,0,0-.7-.55,2,2,0,0,1-1.07-.91c-.33-.56-.8-.29-1.18-.53a1.66,1.66,0,0,0,.41.66,10.08,10.08,0,0,1,1.49,2.08,9.24,9.24,0,0,0,.78,1.26c.33.35.62.93,1.24.7ZM20.34,9.87C19.9,9.61,19.58,9,19,9.4c0,0-.1,0-.15-.06a2.44,2.44,0,0,0-1.93-.05l.27.45-.6,1.33.83.69c.06.05.15.12.2.1a7.21,7.21,0,0,0,.77-.3.26.26,0,0,0,.11-.14,1.54,1.54,0,0,1,1.07-1.06l.16,0Zm12.83-1.8a2.12,2.12,0,0,0-1.72-.2c-.31.09-.59.35-1,.14-.2-.11-.48,0-.6,0l-.6-.46.45-.06a4,4,0,0,0-1.39-.43,2.23,2.23,0,0,0-1.4-.2,1.87,1.87,0,0,0,.15.27,1,1,0,0,0,1.05.32c.29-.06.52.33.5.66a1.17,1.17,0,0,0,.19.64c.32-.05.64.37,1,0,.05,0,.15,0,.22,0,0,.36.24.2.35.19.51,0,1-.13,1.53-.2a.11.11,0,0,1,.08,0c.3.25.62.1.92,0,.14,0,.25-.21.4-.34l-.22-.1.26-.16ZM69.6,4.67a.52.52,0,0,0-.33-.48c-.17,0-.42-.07-.47-.2s-.21-.24-.38-.14c0-.61-.43-.28-.59-.53l-.09,0,0,.91-.5-.74L67,4l-.27-.19L67,3.63l0-.07-1.1.08c0,.51.11.65.35.56,0,.16,0,.36.06.47a1.2,1.2,0,0,0,.48.39c.25.12.45,0,.52-.37l.77.19-1.2.43.55.3-.45.16L68,6.56l.53-.85a.48.48,0,0,0,.08-.16c.19-.67.4-.87,1-.89ZM55,16.77c.36.15.64-.08.93-.23a8.28,8.28,0,0,0,1.1-.67c.26-.19.21-.44-.06-.62a.49.49,0,0,1-.18-.22c-.1-.29-.38-.2-.53-.39a.15.15,0,0,0-.12.06c-.11.28-.31.24-.53.24A3.2,3.2,0,0,0,55,15v.09L54.86,15l-.45.53c.06-.48-.14-.73-.38-.76s-.49.36-.74.65h.78c0,.51-.45.21-.61.48.59,0,.59,0,.75.42l-.28.13A9.36,9.36,0,0,1,55,16.77Zm-33-9.31.33.21-.09.2.29.22,0,.11c-.27,0-.58,0-.79-.14s-.6-.36-.9-.54a.66.66,0,0,0-.91.13,2.35,2.35,0,0,0-.29.5l.36,0-.56.17,0,.14c.45,0,.9.48,1.32-.14a1.34,1.34,0,0,0,0,.18h.77v0l-1,.3a.88.88,0,0,0,1.22.08,2.2,2.2,0,0,1,1.24-.28c.16,0,.38,0,.46-.11a1,1,0,0,0,.23-.67c0-.23-.28-.26-.48-.07a.25.25,0,0,1-.27,0c-.15-.2-.26-.44-.46-.77Zm76-3.6a1.75,1.75,0,0,1,0-.4c.1-.35-.06-.64-.37-.59a1,1,0,0,0-.26.17L97,2.4l.29-.19c-.19-.14-.36-.28-.54-.39a.61.61,0,0,0-.38-.12,3.48,3.48,0,0,0-.68.25,1.09,1.09,0,0,0-.27.22c.18.29-.07.24-.17.3L95,2.65l.66.27a1.58,1.58,0,0,1-.38,0,3.79,3.79,0,0,0-.39,0c.34.36.73.42.94.19s.23-.22.34-.33l.06.1-.54.49A3.1,3.1,0,0,0,98.07,4ZM111.18,32l.16-.06c-.1.28-.06.56.18.51s.28-.36.43-.58a.67.67,0,0,0,.85-.25c.25.24.41.06.48-.2s.08-.64.12-1a1.66,1.66,0,0,1,.11-.38c.17-.37.38-.56.08-1.06a.56.56,0,0,1-.07-.18c0-.09-.06-.19-.1-.28s-.23.06-.28.15a1.23,1.23,0,0,0-.18.58,1.43,1.43,0,0,1-1,1.55l.05-.28a.64.64,0,0,0-.18.26c-.13.23-.23.54-.42.66s-.43.05-.65,0c-.48,0-.71.42-1,.74h0c.25.13.49,0,.73-.07Zm14,33.36a2.76,2.76,0,0,1-1.3,1.65,2.64,2.64,0,0,0-.65.8.41.41,0,0,0,.06.33,2.32,2.32,0,0,0,.8.21c.45,0,.65-.42.73-.86s.34-.61.78-.61c-.27-.19-.18-.29,0-.44a1.55,1.55,0,0,0,.31-.53,2,2,0,0,0,0-.5l-.37.08-.22-.36A2.38,2.38,0,0,0,125.21,65.35ZM25.59,10a1,1,0,0,1,.14.25.82.82,0,0,1-.28.14c-.06,0-.12-.13-.19-.14a.92.92,0,0,0-.33,0c0,.1.06.26.12.31a3.47,3.47,0,0,1,1.16.91c0,.05.22,0,.33-.06s.07-.13.1-.13c.51,0,.48-.42.53-.79l-.57-.4L27,9.65a.61.61,0,0,0-.83-.21c-.27.12-.62,0-.82.45A1,1,0,0,1,25.59,10ZM41.76,24.31c-.25.56-.51,1.12-.76,1.67l.07,0-.31.42,1.59.07-.27.29.06.09.68-.53c0,.21-.08.33-.1.45.48.06.48.06.36-.63l-.17.17,0-.05.24-.4c-.46.13-.21-.22-.21-.44a3.64,3.64,0,0,1-.46,0c-.12,0-.27,0-.33-.12s-.16-.24-.32-.17l.42-.93-.46.08ZM60,21.92a.89.89,0,0,0-.81,0c0,.06-.11.15-.1.21.1.37-.15.22-.27.27s-.25.12-.24.16a3.24,3.24,0,0,0,.16.53.72.72,0,0,1-.12.43c0,.1-.12.27-.1.29a.56.56,0,0,0,.32.19.57.57,0,0,0,.32-.1,2.39,2.39,0,0,1,.5-.26c.35-.05.37-.32.36-.64,0-.13,0-.26-.06-.39C60.29,22.36,60.3,22.14,60,21.92ZM114.18,6.53a4.06,4.06,0,0,1-.69-.16c-.37-.18-.42-.18-.57.25-1-.6-1.09-.56-1.34.46.32.17.54.66,1,.24.2-.16.6,0,.91,0,.11,0,.21-.1.37-.19.29.14.51,0,.65-.46A2.17,2.17,0,0,0,114.18,6.53ZM70.41,3.15l-.17-.25-.3.35L69.26,3c-.05,0-.16,0-.18,0-.13.29-.31.24-.5.08-.13.48,0,.55.85.62l-.31.1a8.82,8.82,0,0,0,1.45.37s.08,0,.13,0a2.21,2.21,0,0,0,1-.58s0-.31,0-.31q-.63-.09-1.26-.15Zm36.2,43.64a.48.48,0,0,0-.59.33,11.12,11.12,0,0,0-.38,1.4c0,.08,0,.26.08.27.3.08.21.32.17.53-.06.4,0,.43.33.31,0-1.11,0-1.11.14-1.14l.33.87.46-.26-.5-1,.64-.52,0-.09-1,.32a1.85,1.85,0,0,1-.2-.26c-.09-.21,0-.43.18-.45a3.55,3.55,0,0,1,.92,0c.36.05.57-.09.67-.61C107.51,47.09,107,46.9,106.61,46.79ZM25.87,8.57a1.86,1.86,0,0,0,.62,0,.26.26,0,0,0,.17-.11,1.67,1.67,0,0,0,0-1.06c0-.12-.32-.28-.36-.24-.24.21-.43,0-.64,0l-.27,0,.46.53c-.32,0-.43-.53-.77-.24l.2.44c-.41-.2-.6-.81-1.12-.65.31,1,1,1,1.64.9l-.23.18C25.68,8.4,25.77,8.56,25.87,8.57ZM126.45,63.19l-.15.22c0-.08-.14-.14-.16-.22-.1-.42-.22-.8-.71-.81.12.21.23.4.32.59a2.19,2.19,0,0,1,.36.82,2.42,2.42,0,0,1-.29.86c.1.07.33.14.41.31s0,.41-.08.74c.17-.07.36-.08.43-.19a7.58,7.58,0,0,0,.37-.87c0-.06,0-.15.08-.15.4,0,.36-.43.51-.89C127,63.94,126.58,64,126.45,63.19ZM32,16.72c.33.08.62.68,1.11.15l-.49-.22a2.56,2.56,0,0,0-.43-.44c-.29-.24-.72-.27-.78-.8-.47.17-.58.44-.54,1.27l-.3.33,0,.07.48-.06.16.46Zm81.78,4.87a3.13,3.13,0,0,1,0,.42c-.28,0-.17.29-.22.45-.12.35.1.62.12.92a17.38,17.38,0,0,1,0,1.91l0,.89h.09l.15-.36.44.24c-.15-.27-.25-.47-.36-.66s0-.6.1-.87c0-.09.26-.09.43-.14a3.27,3.27,0,0,1-.14-.44,4.62,4.62,0,0,1-.26-1.49,2.91,2.91,0,0,0-.19-.93ZM19.76,6.45a2.29,2.29,0,0,0-.62.17,1.78,1.78,0,0,0-.44.21c-.32.21-.64.44-1,.67,0,0-.13.16-.11.2a.35.35,0,0,0,.18.16c.22.08.48-.22.69.11a2.11,2.11,0,0,0,.26-.18.45.45,0,0,0,.06-.14c.25.15.24-.1.28-.27s.07-.22.11-.33l.09.14.12.36.29-.16c.06,0,.15,0,.19-.08A1,1,0,0,0,20,7a2.78,2.78,0,0,0,.08-.47A1,1,0,0,0,19.76,6.45Zm81.66,44.09c.33.09.67.1,1,.17s.58.15.88.2.72.09,1.09.13c0,0,.12-.06.12-.07s0-.18-.08-.19c-.24-.07-.48-.12-.73-.18a1.1,1.1,0,0,1-.22-.11l.49-.18-.87-.11c-.17,0-.31-.13-.5,0s-.38,0-.56,0a10.25,10.25,0,0,1-1-.41l-.24.44A2.61,2.61,0,0,0,101.42,50.54ZM113.15,28l1,.21c0-.54.56-.35.77-.56l-.12-.48c-.57.27-.82-.46-1.22-.72l-.13,1.17c-.47,0-.57.25-.43.95l.32-.24-.25-.23ZM31.93,39.08c.18-.1.36-.22.54-.3a.63.63,0,0,1,.38,0c.13,0,.23.15.36.2a8.15,8.15,0,0,1,.83.29,2.5,2.5,0,0,1,.51.44l-.12.24,1.23-.11v-.12a4.36,4.36,0,0,0-.74-.39c-.4-.13-.69-.51-1.13-.63a2.35,2.35,0,0,0-1.38-.11,2.13,2.13,0,0,0-.55.37ZM24,5.6a1.15,1.15,0,0,0,.39.11,1.22,1.22,0,0,1,1.26.34c.07.09.28,0,.42,0s.11-.14.09-.18c-.1-.21-.19-.5-.36-.6A3.1,3.1,0,0,0,25,5s-.08,0-.09,0c-.23-.44-.6-.23-.91-.23-.07,0-.14.1-.21.16l.36.28.18-.12.16.39H24Zm74.2-.77,1.09-.27c.2,0,.41-.06.61-.12A.23.23,0,0,0,100,4a7.76,7.76,0,0,0-.81-.37s-.08-.19-.1-.18a1.27,1.27,0,0,0-.56.3,8,8,0,0,0-.63,1.06A1.4,1.4,0,0,0,98.19,4.83Zm8.39,34.6c-.48-.09-.48-.1-.5.49a3.11,3.11,0,0,1,0,.32,1.4,1.4,0,0,1-.16.25.82.82,0,0,0,.07.34c.15.22.16.6.51.64a2.69,2.69,0,0,1,.67.19,1.46,1.46,0,0,1,.35.28c-.27-.7-.39-.79-.89-.7,0-.2-.13-.51-.06-.6a1.24,1.24,0,0,0,.22-1.13s0-.06,0-.12S106.63,39.44,106.58,39.43Zm9,27.13a.58.58,0,0,0,.4.31c.15,0,.41-.12.45-.25a6.06,6.06,0,0,0,.16-1.11l-1.36,0A10.32,10.32,0,0,0,115.59,66.56ZM107.3,44s.18.11.17.13c-.13.57.24.59.57.73l0-.45c.14-.08.29-.11.34-.21a1.34,1.34,0,0,0-.31-1l-.53.54c-.15,0-.29-.13-.33-.09s-.53.24-.47.61A5.83,5.83,0,0,1,107.3,44Zm-71.69-3.6v.15l.53,0,.58.1a3.87,3.87,0,0,1,.49-.19,5.56,5.56,0,0,1,.64-.05A1.8,1.8,0,0,0,36,39.9l.31.57Zm34-35.76-.31.17.44.54-.21.39.59-.07c0,.27,0,.27.81-.26A3.17,3.17,0,0,1,70.1,5c-.16-.16-.28-.32-.5-.31ZM32.81,9.89l.26.21c.09.07.18.2.27.2.38,0,.76-.07,1.14-.11-.26-.59-.8-.8-1.69-.64l0,.35Zm47.8-7.35c-.46-.37-.59-.34-1,.09-.17-.09-.3-.23-.43-.22a9.17,9.17,0,0,0-1,.17c.38.45.75-.08,1.11,0l-.57.31C79.54,3.4,80,2.54,80.61,2.54Zm10.88,41.2a8.61,8.61,0,0,0,0,.88c0,.22.08.45.34.36s.46-.23.36-.57a2,2,0,0,0-.64-1.09A2.8,2.8,0,0,0,91.49,43.74ZM83.24,2.46l0-.19L82.85,2,83,1.73c-.39-.36-.65.2-1,.2A.91.91,0,0,0,82.4,2c.23,0,.23,0,.2.24-.85-.23-.86-.22-1,.24ZM26.35,5.28c.16.24.28.58.49.69s.51,0,.84,0c-.07-.24-.08-.46-.16-.5-.34-.15-.7-.24-1.06-.36Zm83.4,27-.47.35.33,1c.08,0,.26,0,.29-.13a3.82,3.82,0,0,0,.2-.84c0-.05-.12-.13-.19-.2l-.17-.19ZM27.86,8.84c.11,0,.32,0,.33-.1a.78.78,0,0,0-.08-.48.45.45,0,0,0-.7-.15,2.61,2.61,0,0,0-.41.44A8.73,8.73,0,0,0,27.86,8.84ZM21.41,6.59A1.07,1.07,0,0,0,22,6.45c.12-.07.16-.33.26-.59L21,6.05C21,6.5,21.21,6.57,21.41,6.59Zm93.65.5a4.73,4.73,0,0,0,.62.25.85.85,0,0,0,.94-.28L115,6.73C114.88,6.87,114.82,7,115.06,7.09Zm11.8,2.9a1.5,1.5,0,0,0-.19.31l.08.07,1.32-.2C127.64,9.68,127.27,9.66,126.86,10ZM106.41,37.28a6.21,6.21,0,0,0,.14-.62,1.22,1.22,0,0,0,0-.26c-.08,0-.19,0-.24.06a1,1,0,0,0-.1,1.35C106.26,37.63,106.35,37.46,106.41,37.28ZM34.24,13.92a.83.83,0,0,0,0,.42c.17.07.4.16.53.08s.2-.36.33-.61C34.67,13.65,34.41,13.59,34.24,13.92Zm83.42,35.53a.75.75,0,0,0,.11-.43s-.15-.09-.26-.15c0,.39-.18.54-.43.58s-.48,0-.83,0C116.82,49.92,117.28,49.9,117.66,49.45ZM102,38.9c-.14.14-.28.33-.12.5a.44.44,0,0,0,.47,0,2.46,2.46,0,0,0,.4-.63C102.42,38.73,102.2,38.7,102,38.9ZM65.4,30.32c0,.22.08.35.26.15s.2-.21.2-.33a5.56,5.56,0,0,0-.07-.69l-.43.15C65.38,29.87,65.39,30.09,65.4,30.32ZM107,42.9l-.2.27.31.31.33-.82-.07,0-.08.12-.61-.59,0,.6ZM114,8.71a.55.55,0,0,0-.47-.57c-.26-.09-.49,0-.65.38ZM6.27,21.41c.14.47.2.46.87-.13L7,21l.28-.18L7,20.7ZM21,5.7l1.41,0C22.21,5.17,21.5,5.21,21,5.7Zm86.39,46,1.31-.88A1.08,1.08,0,0,0,107.42,51.74Zm2.85-19.2.06.17.08.16c.16-.16.27-.36.37-.35.38,0,.36-.27.4-.53l-.71.18ZM83.78,2.77c.18-.07.37-.13.55-.22s.07-.12.1-.19-.12-.1-.17-.1a3.82,3.82,0,0,0-.68.07c-.07,0-.13.16-.19.24s.15.11.23.15.09,0,.14,0Zm.83-.3c.27,0,.54-.08.81-.14.07,0,.11-.14.16-.22s-.2-.18-.28-.16a6.67,6.67,0,0,0-.71.35Zm20.14,48.37a3,3,0,0,0-.14.31l1.25-.11C105.46,50.55,105.08,51,104.75,50.84ZM27.1,6.17a.87.87,0,0,0,1.19,0Zm79,44.94,1.84-.27v-.08l-1.86.13ZM80.28,12.28c-.16-.06-.32-.17-.47-.15s-.24.21-.25.34.16.27.32.19a3.54,3.54,0,0,0,.41-.26Zm2.5-9.23a2.72,2.72,0,0,0,.54-.27c-.55-.2-1-.1-1.16.29A3.14,3.14,0,0,0,82.78,3.05ZM14.11,23.22l-.07.1.56.89.07-.06-.13-.88Zm93.46,19.12.18.67.11,0c0-.14,0-.28,0-.43l.19,0c-.09-.63-.09-.63-.49-.53l.26.43Zm1.6,4.38-.31-.31c-.2.37-.14,1,.14,1.12l-.1-.44.22,0Zm-.24,1.84,0,.21h1C109.87,48.5,109.11,48.29,108.93,48.56Zm13.3,7.18a1.09,1.09,0,0,0,1,.84ZM32.5,17.44a1.94,1.94,0,0,0-.48.09c-.08,0-.12.23-.18.35.11,0,.25.1.32.06a2.38,2.38,0,0,0,.4-.38ZM0,17.6a2,2,0,0,0,.21.1l.36.07.51.09,0-.16-1-.26ZM36.17,73.21a2.42,2.42,0,0,0,.24.39c.14.19.3.45.53.12l-.5-.48ZM40,25.54l-.91-.37,0,.17.9.4Zm25.75,3.83.12-.83C65.38,28.81,65.36,29,65.71,29.37Zm39.35,14.38.84-.94-.09-.18-.8,1ZM34.94,40.62l-.71-.15,0,.22.71.1ZM74,32.33c.39.26.6.16.73-.25ZM39.26,27.24c.18-.07.44.33.53-.1L39,26.93l.24.32Zm48.14-18,.54-.14V9a1.74,1.74,0,0,0-.43-.09c-.08,0-.14.17-.21.26Zm15-1.26c.22.14.45.26.66-.21l-.68.07ZM1.65,19.86l.6.13c-.12-.6-.37-.26-.58-.25ZM19.43,7.7l-.63.42c.42.28.53-.08.69-.33ZM29,6.24c0,.07,0,.19,0,.21s.32.27.5-.14Zm26-2.35.58-.16,0-.21L55,3.65Zm-49,36.18.06.69.42-.29Zm65.78-7.8-.93-.15v.15l.92.14Zm55.55,22.32c-.1-.06-.2-.18-.29-.17s-.18.13-.28.21l0,.12h.49ZM24.23,6.61l-.53-.44-.05.1c.13.23.21.55.53.46ZM55.55,7.89a.6.6,0,0,0-.28-.08s-.06.12-.08.18a.85.85,0,0,0,.25.13,2,2,0,0,0,.3,0C55.65,8,55.61,7.92,55.55,7.89ZM26.26,4.23c-.06-.1-.11-.26-.19-.29s-.22,0-.34.05l0,.13.43.19Zm80.23,37.84c0-.14,0-.31,0-.4s-.21-.1-.41-.18l.32.61Zm-.72,9.36.6.24,0-.21-.63-.21Zm12.83-2,.38.6.13-.12-.41-.57ZM33.43,18.32v-.48c-.09,0-.25.06-.25.1a1.51,1.51,0,0,0,.06.41ZM70.5,19.5l-.14-.11-.23.59.09,0,.42-.28A1.53,1.53,0,0,0,70.5,19.5Z"/><path class="cls-2" d="M32.66,27.51l-2.38,4.28-4.9.08-2.51-4.2,2.38-4.28,4.9-.08Zm6.91-.11L33.83,37.72,22,37.9,16,27.77,21.7,17.46l11.81-.19Z"/><path class="cls-3" d="M95.79,15.52l-2.62,4.72-5.4.09L85,15.69,87.62,11l5.4-.08Zm7.62-.12L97.08,26.78l-13,.2L77.37,15.81,83.71,4.43l13-.2Z"/></g></g></svg>