<svg height="518.04" viewBox="0 0 690.75 518.04" width="690.75" xmlns="http://www.w3.org/2000/svg" xmlns:xlink="http://www.w3.org/1999/xlink"><clipPath id="a" transform="translate(.07 .02)"><path d="m0 0h690.65v518h-690.65z"/></clipPath><g clip-path="url(#a)"><path d="m690.68 463.45c-12.66-2-24.25-4-36.91-6a56.72 56.72 0 0 0 -5.93-.82c-14.11-.71-18.2 4.39-12.52 17.43 6.27 14.38 6.89 29.29 11.55 44h43.81z" fill="#f32501" fill-rule="evenodd" transform="translate(.07 .02)"/><path d="m0 358.13c4.09.23 9.31 1 12.33 3.74 16.81 15.4 36.38 28.42 44.15 51.63 2.38 7.1 8 11 15.19 12.75 3.34.82 6.7 1.65 10 2.79 14.8 5.17 17.42 11.81 9.55 25.18-4 6.89-4.73 13 .28 19.92a53.07 53.07 0 0 1 7.17 15.57c2.84 9.45 9.16 14.86 17.94 18.34 11.85 4.7 23.42 4.74 35.08-.73 6.55-3.07 13.48-5.22 20.86-3.6a54.46 54.46 0 0 0 38.42-5.44c14.05-7.55 28.45-13.61 44.5-15.17a74.7 74.7 0 0 0 12.68-2.34c12.58-3.48 16.55-15 8.72-25.46-2.46-3.26-5.5-6.62-5.71-10.47-1.25-22.47-10.23-42.12-21.19-61.15a12.56 12.56 0 0 1 -1.08-3.27c-3.75-15.32-3.14-14.46-18.6-13.44-21.61 1.44-39.23-4.25-53.24-21.65-8.61-10.7-10.17-16-5.06-28.83 4.08-10.27 9.16-20.53 5.42-32.38-2-6.36-6.65-10.65-10.46-15.59-10.49-13.63-21.47-26.47-35.3-37.34-25.72-20.22-56.32-20.88-86.24-25-15.16-2.07-30.6 3.45-45.36 5.15v-8.63c12.48-1.73 26-3.79 38.54-5.1 18.47-1.95 36.63 2.16 54.88 3.85 8.65.8 17.18 2.44 24.91 8.28 22.75 17.17 43.28 36.69 63.26 56.88a22.3 22.3 0 0 1 4.93 7.95c5.28 13.56 3.89 26.66-.72 40.24-7 20.68 9 41.36 28.87 37.21 20.36-4.25 41.75-4.89 60.23-16.56 4.58-2.89 11-3.5 14.8 2 3.51 5.17.76 10.21-3.21 13.87-8.08 7.43-12.61 17-17.34 26.55-2.72 5.47-3.26 11.21-.94 16.71 3.91 9.26 8 18.46 12.78 27.32 4.16 7.79 8.83 8.58 16.26 4 13.1-8.08 23.75-19 34.48-29.8 6.2-6.25 13.36-6.77 21.1-2.82s10.72 11.71 15.27 18.21c5.87 8.4 12.15 11.46 20.6 7.89 9.22-3.9 18.74-7.1 27.55-12.15 22.07-12.67 45-23.6 71.24-23.07 12.07.25 20.29-4.78 26.3-14.67 2.23-3.67 4.63-7.25 7.11-10.76 7.46-10.54 18.08-18.5 24.18-30.19 6.92-13.24 18.54-19.64 32.93-22.37 10.6-2 21.2-1.16 31.79-1.64 25.58-1.16 37.79-22.34 25.49-44-6.51-11.47-2.77-29.58 7.73-37.37 6.6-4.91 13.78-4.09 20.24 2 5.55 5.23 5.62 10.2.14 15.49-1.59 1.53-3.77 3.71-1.27 5.81 2.32 1.94 4.4-.29 5.83-2 5.72-6.77 11.93-7.08 18.92-2a11.55 11.55 0 0 0 3.75 1.7v46.62c-15.38 0-21.17 4.94-26.46 19.47a57.52 57.52 0 0 1 -4 8.59c-1.52 2.64-4.45 5-7.11 3.83-14-6-29-2.72-43.36-5.41-31.53-5.91-43.58-.33-59.13 27.67-2.36 4.26-4.61 8.83-8.74 11.62a52 52 0 0 0 -18.54 22.11c-5 10.93-13.35 16.29-26 15.91-13.09-.39-26.65-2.43-39.06 3.74-13.28 6.68-27.47 11.56-39.76 20.37-9.32 6.68-19.09 12.79-28.92 18.73-11.42 6.89-20.65 5-28.47-5.57a55.86 55.86 0 0 0 -9.26-10.14c-2.48-2-5.64-4.06-8.7-2.64-8.81 4.09-18.55 6.39-26.22 12.71-3.3 2.72-7 6-6.11 10.74 1 5.11 5.67 6.81 10.21 8.13 8.55 2.47 17 5.38 25.67 7.34 12.84 2.89 20.1 10.54 23.91 23.07 4.74 15.56 13.72 19.74 29.22 14.78 4.06-1.31 7.79-3.65 11.74-5.37 10.7-4.66 22-7.07 33.54-6a382.8 382.8 0 0 1 47.5 7.64c9.8 2.21 18.76.81 25.6-7.84 3.19-4 7.35-7.18 11.54-10.29 17.21-12.75 17.4-12.85 34.83.16 12.43 9.27 13.34 20 3 31.49-4 4.45-9.5 6.71-12.24 12.3h-57c-1.42-10.4-9.44-14.41-17.73-17.29-24-8.33-48.29-13.36-72.52-.1a39.91 39.91 0 0 1 -10.6 3.57c-17.2 3.72-29.83.36-38.63-15.7-3-5.57-7.43-9.2-14-10.32-9.35-1.59-18.85-.64-28.24-2.31-5.83-1-7.81 4.08-8.05 9-.22 4.5-1.17 8.18-4.51 11.59-10.77 11-23.7 13.44-40.38 6.79-6.7-2.63-13.58-5.4-20.7-4.16-16.53 2.86-30.14 14.34-46.07 19-.35 0-.46-.53-.68 0h-105.36c-3.4-11.14-3.15-23-11.27-32.29-9.14-10.52-17.2-21.31-18.45-35.87-.2-2.36-2-4.8-3.57-6.76-8.93-11-14.89-23.78-21-36.44-2.87-6-5.74-12.16-10.47-16.64-7.68-7.33-15.2-16.47-26.13-19.79z" fill="#508093" transform="translate(.07 .02)"/><g fill-rule="evenodd"><path d="m676.23 0a43.56 43.56 0 0 1 -6.45 15.61c-8.53 12.2-18.09 16-32 12.18-10.78-2.95-20.94-16.16-21.99-27.79h10.36c4.85 11.3 13.07 17.59 23.59 16.09 8.7-1.23 13.59-7.24 14.4-16.11z" fill="#ffb94a" transform="translate(.07 .02)"/><path d="m0 492.81h7.07c15.56.28 20.33 6.36 17 21.67a34.48 34.48 0 0 0 -.57 3.5h-23.5z" fill="#355466" transform="translate(.07 .02)"/><path d="m622.67 229.13c-6.76 11.32-12.19 22.78-9.06 37.38 2.79 13-5.66 23.12-18.82 26.92-12.66 3.66-26.06 4-38.44 9.24-8.6 3.63-15.32 8.66-19.81 16.93-9.21 17-22.91 30.8-33.91 46.57-7.33 10.51-21 9.73-32.54 10.72a83.47 83.47 0 0 0 -35.77 11.05c-12.64 7.34-25.87 13.93-41.27 13.4-3.85-.14-7.9-.3-10.48-3.13-10.53-11.56-25.07-19.42-31.71-34.58a28.29 28.29 0 0 0 -16.2-15.79 43.73 43.73 0 0 1 -20-15.65c-11.56-15.89-27.88-19.75-45.66-11.33a6.32 6.32 0 0 0 -1.53.79c-16.31 14.19-36 13-55.6 12.31-11.11-.37-14.52-5-13.1-15.95a149.91 149.91 0 0 0 -3-53c-1-4.44-2.9-9.11-7.18-11.43-13.3-7.22-22.68-19.36-35.3-27.46-11-7-19.09-17.4-28.26-26.49-6.06-6-12.7-9.37-21.45-9.08-12.63.42-25.26.52-37.68-2.92-3.76-1-8.06-.82-12-.35-17.62 2.11-36.29 4.52-53.88 6.82v8.64c12.48-1.73 26-3.79 38.54-5.1 18.47-1.95 36.63 2.16 54.88 3.85 8.65.8 17.18 2.44 24.91 8.28 22.75 17.17 43.28 36.69 63.26 56.88a22.3 22.3 0 0 1 4.93 7.95c5.28 13.56 3.89 26.66-.73 40.24-7 20.68 9 41.36 28.88 37.21 20.36-4.25 41.75-4.89 60.23-16.56 4.58-2.89 11-3.5 14.8 2 3.51 5.17.76 10.21-3.21 13.87-8.08 7.43-12.61 17-17.34 26.55-2.72 5.47-3.26 11.21-.94 16.71 3.91 9.26 8 18.46 12.78 27.32 4.16 7.79 8.83 8.58 16.26 4 13.1-8.08 23.75-19 34.48-29.8 6.2-6.25 13.36-6.77 21.1-2.82s10.75 11.68 15.3 18.18c5.87 8.4 12.15 11.46 20.6 7.89 9.22-3.9 18.74-7.1 27.55-12.15 22.07-12.67 45-23.6 71.24-23.07 12.07.25 20.29-4.78 26.3-14.67 2.23-3.67 4.63-7.25 7.11-10.76 7.46-10.54 18.08-18.5 24.18-30.19 6.92-13.24 18.54-19.64 32.93-22.37 10.6-2 21.2-1.16 31.79-1.64 25.58-1.16 37.79-22.34 25.49-44-6.51-11.47-2.77-29.58 7.73-37.37 6.6-4.91 13.78-4.09 20.24 2 5.55 5.23 5.62 10.2.14 15.49-1.59 1.53-3.77 3.71-1.27 5.81 2.32 1.94 4.4-.29 5.83-2 5.72-6.77 11.92-7.08 18.92-2a11.55 11.55 0 0 0 3.75 1.7v-38c-11.29-4.64-22.14-4.14-33.81-3.22-16.64 1.31-26.39 13.09-34.2 26.17z" fill="#446b7f" transform="translate(.07 .02)"/><path d="m408.13 500.59a39.91 39.91 0 0 1 -10.6 3.57c-17.2 3.72-29.83.36-38.63-15.7-3-5.57-7.43-9.2-14-10.32-9.35-1.59-18.85-.64-28.24-2.31-5.83-1-7.81 4.08-8.05 9-.22 4.5-1.17 8.18-4.51 11.59-10.77 11-23.7 13.44-40.38 6.79-6.72-2.68-13.6-5.45-20.72-4.21-16.53 2.86-30.14 14.34-46.07 19-.35.1 109.83 0 165.08 0 .89-3.22 3.46-2.73 6.14-2.71 17.73.16 34.47-4.22 51.12-10 19.89-6.93 38.88-3.82 56.37 8.06 2 1.37 3.52 2.17 3.79 4.68h19c-1.42-10.4-9.44-14.41-17.73-17.29-24-8.33-48.29-13.36-72.52-.1z" fill="#446b7f" transform="translate(.07 .02)"/><path d="m57.6 443.06c-8.93-11-14.89-23.78-21-36.44-2.87-6-5.74-12.16-10.47-16.64-7.68-7.31-15.2-16.45-26.13-19.77v13.79c3.47-.25 7 1.6 9.32 3.88 16.49 16 23.87 36.87 29.48 58.18 4.28 16.25-5.29 24.27-18.36 27.58-6.35 1.61-14 2.42-20.44 3.6v15.54h7.07c15.56.28 20.33 6.36 17 21.67a34.48 34.48 0 0 0 -.57 3.5h20.77c-.31-6.55 3-11.31 5.6-16.89 1.36-2.92 3.54-6.43 7.64-5.56 3.94.83 7.49 2.89 8.69 7.27 1.43 5.2 2.73 9.7 2.24 15.18h22.45c-3.4-11.14-3.15-23-11.27-32.29-9.14-10.52-17.2-21.31-18.45-35.87-.2-2.36-2-4.8-3.57-6.76z" fill="#446b7f" transform="translate(.07 .02)"/><path d="m690.68 0h-14.45a43.56 43.56 0 0 1 -6.45 15.61c-8.53 12.2-18.09 16-32 12.18-10.78-2.95-20.94-16.16-21.99-27.79h-13.79c.21 14.2 5.65 25.88 18.11 33.76 10.2 6.46 21 6.7 32.3 6.8 10.81.1 18-4.9 22.93-13.91 2.21-4 4-8.3 6.3-12.29s3.74-8 9.06-8.45z" fill="#508093" transform="translate(.07 .02)"/><path d="m690.68 183.73v-19c-4.39 1-7.32 2.34-7.48 7.89-.17 6 1.76 9.61 7.48 11.1z" fill="#508093" transform="translate(.07 .02)"/><path d="m690.68 206.18c-11.29-4.64-22.14-4.14-33.81-3.22-16.65 1.31-26.39 13.09-34.2 26.17-6.76 11.32-12.19 22.78-9.06 37.38 2.79 13-5.66 23.12-18.82 26.92-12.66 3.66-26.06 4-38.44 9.24-8.6 3.63-15.32 8.66-19.81 16.93-9.21 17-22.91 30.8-33.91 46.57-7.33 10.51-21 9.73-32.54 10.72a83.47 83.47 0 0 0 -35.77 11.05c-12.64 7.34-25.87 13.93-41.27 13.4-3.85-.14-7.9-.3-10.48-3.13-10.53-11.56-25.07-19.42-31.71-34.58a28.29 28.29 0 0 0 -16.2-15.79 43.73 43.73 0 0 1 -20-15.65c-11.56-15.89-27.88-19.75-45.66-11.33a6.32 6.32 0 0 0 -1.53.79c-16.31 14.19-36 13-55.6 12.31-11.11-.37-14.52-5-13.1-15.95a149.91 149.91 0 0 0 -3-53c-1-4.44-2.9-9.11-7.18-11.43-13.3-7.22-22.68-19.36-35.3-27.46-11-7-19.09-17.4-28.26-26.49-6.06-6-12.7-9.37-21.45-9.08-12.63.42-25.26.52-37.68-2.92-3.76-1-8.06-.82-12-.35-17.62 2.11-36.29 4.52-53.88 6.82v-12.1c17.27 2.35 35.18 1.75 51.89-4.56 6.11-2.31 13.72-1.57 20.45.44 10.33 3.08 20.31 2 30.41-1.2 13.44-4.25 21.92-2.29 28.78 9.78 13.68 24.1 35.84 38.32 58 52.52 11.16 7.14 17.35 15.76 17.21 29.49a114.66 114.66 0 0 0 4.34 31.43c5.07 18.29 18.6 24.55 35.8 16.35a185.68 185.68 0 0 1 33.25-11.84c16.18-4.24 30.13.75 42.08 11.57 7.68 7 15.19 13.63 25 17.88 8.12 3.53 12.69 10.76 14.73 19.95 3.6 16.25 27.85 36.21 42.28 35.29 10.92-.7 20.65-5.17 29.06-12 7.57-6.13 16.1-8.59 25.56-8.62a116 116 0 0 0 18.87-1.48c10.46-1.76 18.27-6.94 23.12-16.12 7.95-15 19.42-27.67 28.15-42.27 9.1-15.22 26.08-18.65 42.55-21.22 1.7-.26 3.45-.28 5.12-.66 15.13-3.5 21.23-11.83 17.78-26.9-2.31-10.06.52-16.93 7.63-23.77 13.81-13.29 24.55-29.51 39.76-41.61 4.82-3.84 7.58-10 9-16.35.8-3.64 2.17-7.18 2.76-10.85 3.49-21.83 17.31-31.19 37.1-35.34v32.81c-4.39 1-7.32 2.34-7.48 7.89-.17 6 1.76 9.61 7.48 11.1z" fill="#355466" transform="translate(.07 .02)"/><path d="m690.68 30.06c-4.27 1.2-2.11 4.82-2.43 7.8-.74 7-4.65 12-11.16 13.85-26.32 7.29-52.23 6.94-76.19-7.71-16-9.82-22.51-25.21-17.91-44h19c.21 14.2 5.65 25.88 18.11 33.76 10.2 6.46 21 6.7 32.3 6.8 10.81.1 18-4.9 22.93-13.91 2.21-4 4-8.3 6.3-12.29s3.74-8 9.06-8.45z" fill="#355466" transform="translate(.07 .02)"/></g></g><g fill-rule="evenodd"><path d="m0 384c3.47-.25 7 1.6 9.32 3.88 16.49 16 23.87 36.87 29.48 58.18 4.28 16.25-5.29 24.27-18.36 27.58-6.35 1.61-14 2.42-20.44 3.6v-13.79c7.91-1.93 15.31-6.11 19-13.54 5.81-11.91-6.71-42.79-19-48.62z" fill="#355466" transform="translate(.07 .02)"/><path d="m362 518c.89-3.22 3.45-2.73 6.14-2.71 17.73.16 34.47-4.22 51.13-10 19.88-6.93 38.87-3.82 56.36 8.06 2 1.37 3.52 2.17 3.79 4.68z" fill="#355466" transform="translate(.07 .02)"/><g clip-path="url(#a)"><path d="m44.27 518c-.32-6.55 3-11.31 5.6-16.89 1.36-2.92 3.54-6.43 7.64-5.56 3.94.83 7.49 2.89 8.69 7.27 1.43 5.2 2.73 9.7 2.24 15.18z" fill="#355466" transform="translate(.07 .02)"/><path d="m690.68 123.3q-8-6 0-12.09z" fill="#355466" transform="translate(.07 .02)"/><path d="m0 173.37c17.13 1.3 35.27 3 51.75-4.65a24.88 24.88 0 0 1 15.15-1.81c15.62 3.79 29.18 1.34 42-8.7 7.24-5.68 14.7-4 20.46 3.1 3.44 4.22 7.34 8.44 9.37 13.35 11.26 27.23 33.66 42.79 57.79 56.81a34.7 34.7 0 0 1 15.59 17.7c4 10.13 4.15 20.73 4.7 31.22 1.09 20.66 11.5 28.53 30.73 22.34 13.65-4.39 27-11.19 41-12.86 20.1-2.42 32.37-12.87 41.24-29.57a94.25 94.25 0 0 1 19.47-25c5.19-4.82 11.16-6.43 17.45-3.94a127.63 127.63 0 0 1 20.77 10.42c8.2 5.13 9.24 12.13 2.73 19.4-4.73 5.28-10.7 9.45-16.11 14.12-3.15 1.33-6.59 2.22-9.38 4.09-4.23 2.84-7.52 6.75-4.69 12.28s7.45 5.4 12.35 2.62h3.45 5.18c8.94 4.28 13.59 13.74 11.63 24.24-1.43 7.62-3.07 15.2-4.82 22.75-3.11 13.15 1.47 26.72 11.19 32.72 8.91 5.48 18.9 3.57 30.42-6.63a29 29 0 0 1 20.46-7.52c4.89.05 9.81.32 14.67-.07 9.61-.79 19.08-2.53 25.06-11.2 8-11.58 17.48-22.62 22.88-35.36 6.59-15.54 14.92-27.41 30.6-34.85 9-4.28 15.93-12.14 14.16-24.25-.89-6 2.51-11 6.31-15.53 7.35-8.77 17.65-12.37 27.77-16.62 20.45-8.58 38.75-20 43-44.09a281.91 281.91 0 0 1 6.18-27.69c2.68-9.54 1.75-17.93-6.29-25.08-8.5-7.57-12.8-17.45-13.24-29-.56-14.63-5.14-26.65-19.71-33.44-7.27-3.34-13.27-8.84-18.43-15.3-11.06-13.75-15.1-30.82-18.84-47.37h19c-4.6 18.8 1.86 34.19 17.91 44 24 14.66 49.87 15 76.19 7.72 6.51-1.8 10.42-6.83 11.16-13.85.32-3-1.84-6.6 2.43-7.8v46.61c-3.13-.22-3.83-2.73-6.2-4.27-13.71-8.92-27.46-3.18-30.19 12.84a52.21 52.21 0 0 0 .18 19.66c.94 4.35 1.69 9.88 7.3 10.54 5.22.62 7.86-3.64 10.25-7.79 4.87-8.47 9.27-16.44 18.66-20.62v24.17q-8 6 0 12.09v8.63c-19.79 4.15-33.61 13.51-37.1 35.34-.59 3.67-2 7.21-2.76 10.85-1.4 6.36-4.16 12.51-9 16.35-15.21 12.1-26 28.32-39.76 41.61-7.11 6.84-9.94 13.71-7.63 23.77 3.45 15.07-2.65 23.4-17.78 26.9-1.67.38-3.42.4-5.12.66-16.47 2.57-33.45 6-42.55 21.22-8.73 14.6-20.2 27.22-28.15 42.27-4.85 9.18-12.66 14.36-23.12 16.12a116 116 0 0 1 -18.84 1.49c-9.46 0-18 2.49-25.56 8.62-8.41 6.81-18.14 11.28-29.06 12-14.43.92-38.68-19-42.28-35.29-2-9.19-6.61-16.42-14.73-19.95-9.8-4.25-17.31-10.92-25-17.88-11.95-10.82-25.9-15.81-42.08-11.57a185.68 185.68 0 0 0 -33.25 11.84c-17.2 8.2-30.73 1.94-35.8-16.35a114.66 114.66 0 0 1 -4.34-31.43c.14-13.73-6.05-22.35-17.21-29.49-22.2-14.2-44.36-28.42-58-52.52-6.86-12.07-15.34-14-28.78-9.78-10.1 3.2-20.08 4.28-30.41 1.2-6.73-2-14.34-2.75-20.45-.44-16.73 6.29-34.64 6.89-51.93 4.53z" fill="#273b4d" transform="translate(.07 .02)"/><path d="m0 401.29c12.27 5.83 24.79 36.68 19 48.62-3.64 7.43-11 11.61-18.95 13.54z" fill="#273b4d" transform="translate(.07 .02)"/><path d="m690.68 87c-9.39 4.18-13.79 12.15-18.66 20.62-2.39 4.15-5 8.41-10.25 7.79-5.61-.66-6.36-6.19-7.3-10.54a52.21 52.21 0 0 1 -.18-19.66c2.73-16 16.48-21.76 30.19-12.84 2.37 1.54 3.07 4 6.2 4.27z" fill="#43809e" transform="translate(.07 .02)"/><path d="m620.93 96.13c-.56-14.63-5.14-26.65-19.71-33.44-7.22-3.36-13.22-8.86-18.38-15.32-11.06-13.75-15.1-30.82-18.84-47.37h-13.82c5.08 20 11.18 40.4 25.39 56.22a159 159 0 0 0 16.52 16.42 48.87 48.87 0 0 1 17.81 32.36 51.51 51.51 0 0 0 5.51 17.14c9 17.11 8.89 34.61 4 52.74-3.94 14.45-7.35 17.92-22.5 19a26.35 26.35 0 0 0 -16.9 7.47c-10.36 9.84-20.78 19.63-31.15 29.46-4.18 4-8.67 7.83-11.09 13.1-5.73 12.49-15.49 16.65-28.67 15.91-5.62-.31-12.94-2.88-16.44 4-3.19 6.29 2.85 10.7 5.7 15.26 7.5 12 6.49 23.44-.51 34.91-4.2 6.86-9.85 12.72-14.53 19.17-7.44 10.24-17.55 14-28.95 14.26a89.55 89.55 0 0 0 -26.88 5.17c-14.73 5-21.79.46-23.83-15a36 36 0 0 1 .71-11.12c1.72-9.57 3.6-19 1.17-29-2.09-8.57-2.23-17.07 3.25-25.49 14.06-21.63 11.08-30.85-12.18-42.6-3.07-1.55-5.93-3.51-9-5.11-5.09-2.68-8.26-7.1-10.92-11.91-6.5-11.75-11.44-14.5-24.24-13.12-9.65 1-17.35 8.24-20.12 18.6a98.77 98.77 0 0 1 -4.26 13.16c-12.37 29.4-39.07 42.57-65.17 54.46-26.29 12-33.54 6.47-37.35-22.25-2.72-20.46-11-35.59-30.68-45.31-19.46-9.61-34.42-24.78-45-44.74-8.56-16.11-18.34-32-31.29-45.25-7.21-7.38-13.26-5.68-16.94 3.83-1.45 3.75-2.35 7.73-3.91 11.43-3.54 8.38-9.3 13.59-19.14 13-8.93-.56-18-.62-26.46 2.45-16.63 6.05-34.79 6.73-52.13 6.12v8.63c17.13 1.3 35.27 3 51.75-4.65a24.88 24.88 0 0 1 15.15-1.81c15.62 3.79 29.18 1.34 42-8.7 7.24-5.68 14.7-4 20.46 3.1 3.44 4.22 7.34 8.44 9.37 13.35 11.26 27.23 33.66 42.79 57.79 56.81a34.7 34.7 0 0 1 15.59 17.7c4 10.13 4.15 20.73 4.7 31.22 1.09 20.66 11.5 28.53 30.73 22.34 13.65-4.39 27-11.19 41-12.86 20.1-2.42 32.37-12.87 41.24-29.57a94.25 94.25 0 0 1 19.47-25c5.19-4.82 11.16-6.43 17.45-3.94a127.63 127.63 0 0 1 20.77 10.42c8.2 5.13 9.24 12.13 2.73 19.4-4.73 5.28-10.7 9.45-16.11 14.12-3.15 1.33-6.59 2.22-9.38 4.09-4.23 2.84-7.52 6.75-4.69 12.28s7.45 5.4 12.35 2.62h3.45 5.18c9 4.28 13.6 13.74 11.64 24.24-1.43 7.62-3.07 15.2-4.82 22.75-3.12 13.15 1.45 26.72 11.18 32.72 8.91 5.48 18.9 3.57 30.42-6.63a29 29 0 0 1 20.46-7.52c4.89.05 9.81.32 14.67-.07 9.61-.79 19.08-2.53 25.06-11.2 8-11.58 17.48-22.62 22.88-35.36 6.59-15.54 14.92-27.41 30.6-34.85 9-4.28 15.93-12.14 14.16-24.25-.89-6 2.51-11 6.31-15.53 7.36-8.77 17.65-12.37 27.77-16.62 20.45-8.58 38.75-20 43-44.09 1.65-9.37 3.62-18.57 6.18-27.69 2.68-9.54 1.75-17.92-6.29-25.08-8.5-7.57-12.8-17.45-13.24-29z" fill="#355466" transform="translate(.07 .02)"/><path d="m550.18 0c5.08 20 11.18 40.4 25.39 56.22a159 159 0 0 0 16.52 16.42 48.87 48.87 0 0 1 17.81 32.36 51.41 51.41 0 0 0 5.51 17.15c9 17.1 8.89 34.6 4 52.73-3.94 14.45-7.35 17.92-22.5 19a26.35 26.35 0 0 0 -16.9 7.47c-10.36 9.84-20.78 19.63-31.15 29.46-4.18 4-8.67 7.83-11.09 13.1-5.73 12.49-15.49 16.65-28.67 15.91-5.62-.31-12.94-2.88-16.44 4-3.19 6.29 2.85 10.7 5.7 15.26 7.5 12 6.49 23.44-.51 34.91-4.2 6.86-9.85 12.72-14.53 19.17-7.44 10.24-17.55 14-28.95 14.26a89.55 89.55 0 0 0 -26.88 5.17c-14.73 5-21.79.46-23.83-15a36 36 0 0 1 .71-11.12c1.72-9.57 3.6-19 1.17-29-2.09-8.57-2.23-17.07 3.25-25.49 14.06-21.63 11.08-30.85-12.18-42.6-3.07-1.55-5.93-3.51-9-5.11-5.09-2.68-8.26-7.1-10.92-11.91-6.5-11.75-11.44-14.5-24.24-13.12-9.65 1-17.35 8.24-20.12 18.6a98.77 98.77 0 0 1 -4.26 13.16c-12.37 29.4-39.07 42.57-65.17 54.46-26.29 12-33.54 6.47-37.35-22.25-2.72-20.46-11-35.59-30.68-45.31-19.46-9.61-34.42-24.78-45-44.74-8.56-16.11-18.34-32-31.29-45.25-7.21-7.38-13.26-5.68-16.94 3.83-1.45 3.75-2.35 7.73-3.91 11.43-3.54 8.39-9.3 13.59-19.14 13-8.93-.56-18-.62-26.46 2.45-16.63 6.05-34.79 6.73-52.13 6.12v-8.63c21.25-1.7 42.76-7.91 63.64-11.48 13-2.22 20.54-7.62 23.62-20.85 3-12.84 14.56-18.87 26.56-15.42 9.62 2.77 15.29 10.08 19.32 18.55 5.34 11.24 12.41 21.35 19.25 31.64 11.29 17 22.44 34 39.59 46 7.82 5.5 17.08 8.38 24.54 14.29 13.19 10.45 16 25.93 19.51 41.11 4.09 17.44 15.85 21.29 29.87 10.05a35.67 35.67 0 0 0 5.85-6.29c5.11-6.67 10.54-13 18.37-16.54 11.2-5.08 17.63-14.23 22.37-25.06 11.27-25.71 38.63-41.51 66.49-38.2 5.13.61 10.38 2.64 15.35 1.34 14.36-3.75 26.41 1.12 38.17 8.55a44.32 44.32 0 0 0 11.09 4.66c9.18 2.73 15.29 9 19.66 17 12 22 44.07 28.7 64.5 14.23 13.29-9.42 23.84-21.53 35.67-32.38 9.08-8.31 17.58-17.69 28.7-23.15 15.22-7.48 17.82-16.47 16.06-31.91-2.55-22.39-7.15-45-23.71-62.51-6.3-6.64-12.54-13.4-19.15-19.74-16.79-16.25-21.5-38.69-27.23-60z" fill="#508093" transform="translate(.07 .02)"/><path d="m370.61 0c-.42 1.42-12.05 35.13-41.85 19.5-28.52-14.99-56.14-4.5-82.31-13.5-3-1-6.22-2.21-7.07-6z" fill="#508093" transform="translate(.07 .02)"/><path d="m187.58 0c-1.2 5.38-4.77 9.18-10 9.56-10.92.77-22 .85-29.67-9.56z" fill="#508093" transform="translate(.07 .02)"/><path d="m538.09 0c5.73 21.28 10.44 43.72 27.23 60 6.61 6.39 12.85 13.15 19.17 19.83 16.56 17.51 21.16 40.12 23.71 62.51 1.76 15.44-.84 24.43-16.06 31.91-11.12 5.46-19.62 14.84-28.7 23.15-11.83 10.85-22.38 23-35.67 32.38-20.43 14.47-52.53 7.77-64.5-14.23-4.37-8-10.48-14.26-19.66-17a44.32 44.32 0 0 1 -11.09-4.66c-11.76-7.43-23.81-12.3-38.17-8.55-5 1.3-10.22-.73-15.35-1.34-27.86-3.31-55.22 12.49-66.49 38.2-4.74 10.83-11.17 20-22.37 25.06-7.83 3.55-13.26 9.87-18.37 16.54a35.67 35.67 0 0 1 -5.85 6.29c-14 11.24-25.78 7.39-29.87-10.05-3.56-15.18-6.32-30.66-19.51-41.11-7.46-5.93-16.72-8.83-24.54-14.33-17.15-12.06-28.3-29.06-39.59-46-6.84-10.29-13.91-20.4-19.25-31.64-4-8.47-9.7-15.78-19.32-18.55-12-3.45-23.57 2.58-26.56 15.42-3.08 13.17-10.61 18.58-23.62 20.8-20.88 3.57-42.39 9.78-63.66 11.48v-13.82c17.42-1.76 35.63-5.31 52.74-8.88 11-2.3 19.7-8.19 24.62-18.43 11-22.81 54.18-22.84 63.62 4.39 3.72 10.77 9.39 21 17.67 29.36a149.26 149.26 0 0 1 18.42 22.7c11 16.55 23.67 30.68 44.1 36.38 10.88 3 18.23 11.52 22.05 22.64 1.57 4.58 4.21 8.78 6.16 13.24 3.23 7.43 8.15 6.43 13 2.22a68 68 0 0 1 17.93-11.78c8.75-3.76 15-10 20.81-17.5 7.5-9.66 12.44-21.78 24-27.77 22.1-11.43 45.06-20 70.55-18.94 6 .26 12.23-1.13 17.93 1.46 14.84 6.73 29.63 13.62 44.4 20.62 10.86 5.1 16.09 16.17 24.72 23.68 9.41 8.18 19.72 12.15 31.64 7a69 69 0 0 0 16.7-10.53c18.17-15.4 35.94-31.15 53.94-46.84 12-10.46 16.64-23.19 11.41-38.66-4.15-12.26-8.2-24.72-15.16-35.63-5.8-9.08-12-18-21-24.81-6.3-4.78-15-7.65-18.31-15.31-7-16-14.2-32.85-14.16-50.92z" fill="#ffb94a" transform="translate(.07 .02)"/><path d="m239.38 0c.85 3.79 4 5 7.07 6 26.17 9 57-3.46 80.59 10 27.37 15.71 43.15-14.6 43.57-16h27.62c-1.33 12.29-7.49 23-16.23 31.13a55.24 55.24 0 0 0 -11.23 13.76c-7.7 13.86-20.63 20.21-36.2 17.79-13-2-18.19-11.84-21.13-23.27-1.95-7.57-6.65-11.92-14.37-12.77-16.21-1.8-32.7-6.21-48.57-4.57-23.5 2.43-48.37 4.93-64.16 27.18a18.13 18.13 0 0 1 -6.66 5.29c-7.64 3.77-16.56-.19-15.88-8 1.34-15.33-7.67-22.75-18.65-30.09-6.22-4.17-13.9-8.11-16.28-16.48h19c7.65 10.41 18.75 10.33 29.67 9.56 5.27-.38 8.84-4.18 10-9.56z" fill="#ffb94a" transform="translate(.07 .02)"/><path d="m418.07 323.86a118.59 118.59 0 0 1 2.93-13.44c3.66-13 9.44-15.72 22.15-11.1 7.58 2.75 15.56 3.6 23.63 3.6 4.14 0 8.47.63 10.21 4.9s-.86 7.91-3.84 10.7c-12.32 11.48-28.33 14.48-42.67 18.66-7.9-.15-13.48-6.56-12.41-13.32z" fill="#355466" transform="translate(.07 .02)"/><path d="m527.73 0c0 18.07 7.15 34.91 14.16 50.92 3.35 7.66 12 10.53 18.31 15.31 9 6.84 15.22 15.73 21 24.81 7 10.91 11 23.37 15.16 35.63 5.23 15.47.6 28.2-11.41 38.66-17.95 15.67-35.72 31.42-53.89 46.79a69 69 0 0 1 -16.7 10.53c-11.92 5.17-22.23 1.2-31.64-7-8.63-7.51-13.86-18.58-24.72-23.68-14.77-7-29.56-13.88-44.43-20.61-5.7-2.59-11.93-1.2-17.93-1.46-25.49-1.06-48.45 7.51-70.55 18.94-11.56 6-16.5 18.11-24 27.77-5.77 7.45-12.06 13.74-20.81 17.5a68 68 0 0 0 -17.93 11.78c-4.8 4.21-9.72 5.21-13-2.22-2-4.46-4.59-8.66-6.16-13.24-3.82-11.12-11.17-19.6-22.05-22.64-20.43-5.7-33.07-19.83-44.1-36.38a149.26 149.26 0 0 0 -18.42-22.7c-8.28-8.32-13.95-18.59-17.67-29.36-9.44-27.23-52.66-27.2-63.62-4.39-4.92 10.24-13.58 16.13-24.62 18.43-17.06 3.61-35.27 7.14-52.71 8.9v-20.72c8.11-.72 17.19.59 25 2.2 17.76 3.65 31.77-2.24 42.3-16.35a36.55 36.55 0 0 1 16.8-12.8c16.49-6.32 33.25-5.16 50-1.91 4.42.86 7.69 3.93 9.91 7.8a56.5 56.5 0 0 1 4.9 10.08c4.65 14.07 12.3 25.92 24.77 34.22 8.19 5.44 13.56 13.28 18 21.63 9.3 17.63 22.76 29.15 42.84 32.68a70.24 70.24 0 0 1 26.38 10c18.08 11.71 30 1.3 37.51-10.7 2.13-3.41 4.15-6.89 6.11-10.4a20.85 20.85 0 0 1 16.59-11 67.06 67.06 0 0 0 24.51-7.74c11.3-6.06 23.53-9.19 35.62-12.87 16.5-5 30.78 1.31 43.77 10.05a100 100 0 0 0 29.61 13.38 48.16 48.16 0 0 1 26.4 18.08c14.34 18.83 26.43 19.86 45.38 5.28 16.83-13 34-25.49 49.08-40.54 14.52-14.5 16.61-25.41 7-43.33-6.64-12.38-9.2-26.7-18.62-37.75a53.3 53.3 0 0 0 -16.84-13.08c-3.84-1.93-7.83-3.58-11.79-5.28-9.91-4.25-15-11.68-16.12-22.44-1.34-13.41-3.41-27.45-5.19-40.78z" fill="#ff9d27" transform="translate(.07 .02)"/><path d="m128.87 0c2.38 8.37 10.06 12.31 16.28 16.48 11 7.34 20 14.76 18.65 30.09-.68 7.8 8.24 11.76 15.88 8a18.13 18.13 0 0 0 6.66-5.29c15.79-22.28 40.66-24.78 64.18-27.21 15.87-1.64 32.36 2.77 48.57 4.57 7.72.85 12.42 5.2 14.37 12.77 2.94 11.43 8.08 21.25 21.13 23.27 15.57 2.42 28.5-3.93 36.2-17.79a55.24 55.24 0 0 1 11.21-13.76c8.74-8.13 14.9-18.84 16.23-31.13h12.09c-2.14 13.83-5.08 28.16-.81 42.37 1.7 5.65-2.66 11-8.31 13.76-15.2 7.38-30.2 15.6-45.94 21.62-17.2 6.57-31.74-1.34-45-12.14-8.26-6.74-13.26-16.61-22.21-22.61a34.19 34.19 0 0 0 -26.22-5c-11.82 2.26-23.44 5.54-35.2 8.15-13.81 3.07-24 11.88-33.86 21.11-11.89 11.11-33.61 11.11-43.41-.39-4.84-5.67-6.67-12.69-6.6-20 .12-13.48-5.63-23.42-16.43-31.35-5.21-3.83-13-6.86-13-15.5z" fill="#ff9d27" transform="translate(.07 .02)"/><path d="m420.68 0c-1.17 13.55 2.05 25 16.61 30 6.24 2.14 6.93 6.36 2 11.9-13.9 15.59-30 27.22-50.36 33.23-12 3.55-23 9.83-28.44 22.07a326.58 326.58 0 0 1 -25.41 45.8c-1.57 2.41-3.06 5-1.16 8 2.21 3.51 5.25 2.52 8.43 1.85 11.25-2.36 22.45-5 33-9.59 9.37-4.09 18.28-3.63 27.27 1.23 10.6 5.74 21.63 10.56 31.32 18 12.9 10 28.44 7.32 43.29 7.44 12.6.09 14 1.14 17.18 13.27 3.62 14 12.78 18.37 25 11.11 17.52-10.43 35-21 49-36.33 10.46-11.47 12.12-18.53 5.26-32.61-4.27-8.76-10.21-16.66-12.88-26.25-3.87-13.91-13.92-20.57-27.63-22.38a176.17 176.17 0 0 1 -29.34-6.62c-15.32-4.77-19.34-12-16.76-27.84 2.23-13.72 7.32-28.08 2.73-42.28h24.17c1.78 13.35 3.85 27.39 5.26 40.78 1.09 10.74 6.17 18.22 16.08 22.42 4 1.7 8 3.35 11.79 5.28a53.3 53.3 0 0 1 16.84 13.08c9.42 11 12 25.37 18.62 37.75 9.61 17.92 7.52 28.83-7 43.33-15.08 15.05-32.25 27.59-49.08 40.54-19 14.58-31 13.55-45.38-5.28a48.16 48.16 0 0 0 -26.4-18.08 100 100 0 0 1 -29.61-13.38c-13-8.74-27.27-15.07-43.77-10.05-12.09 3.68-24.32 6.81-35.62 12.87a67.06 67.06 0 0 1 -24.51 7.74 20.85 20.85 0 0 0 -16.59 11c-2 3.51-4 7-6.11 10.4-7.52 12-19.43 22.41-37.51 10.7a70.24 70.24 0 0 0 -26.38-10c-20.08-3.53-33.54-15.05-42.84-32.68-4.41-8.35-9.78-16.19-18-21.63-12.47-8.3-20.12-20.15-24.77-34.22a56.5 56.5 0 0 0 -4.9-10.08c-2.22-3.87-5.49-6.94-9.91-7.8-16.79-3.25-33.55-4.41-50 1.91a36.55 36.55 0 0 0 -16.8 12.8c-10.53 14.11-24.54 20-42.3 16.35-7.85-1.61-16.93-2.92-25-2.2v-20.7c7.76-.23 15.18 3.82 21.86 6.9 12.91 5.94 22.08 4.82 29.3-3.44 1.13-2.78 8.57-12.82 13.77-15.53 13.12-5.38 27.15-6.5 40.94-8.69 15-2.39 19.38-6.67 21.14-21.24.44-3.68 1.12-7.33 1.6-11 1.44-11-5.36-23.43-15.33-28.15a52.27 52.27 0 0 0 -12.09-12.09l-1.73-3.46c0-1.15 0-3 0-4.17h13.81c0 8.64 7.79 11.67 13 15.5 10.8 7.93 16.55 17.87 16.43 31.35-.07 7.31 1.76 14.33 6.6 20 9.8 11.5 31.52 11.5 43.41.39 9.88-9.23 20-18 33.86-21.11 11.75-2.61 23.36-5.89 35.19-8.11a34.19 34.19 0 0 1 26.22 5c8.94 6 14 15.86 22.23 22.6 13.24 10.8 27.78 18.71 45 12.14 15.72-6.01 30.72-14.23 45.92-21.63 5.65-2.74 10-8.11 8.31-13.76-4.27-14.21-1.33-28.54.81-42.37z" fill="#ff8d12" transform="translate(.07 .02)"/><g fill="#fb6a0c"><path d="m489.75 0c4.59 14.2-.5 28.56-2.73 42.28-2.58 15.8 1.44 23.07 16.76 27.84a176.17 176.17 0 0 0 29.34 6.62c13.71 1.81 23.76 8.47 27.63 22.38 2.67 9.59 8.61 17.49 12.88 26.25 6.86 14.08 5.2 21.14-5.26 32.61-14 15.35-31.45 25.9-49 36.33-12.19 7.26-21.35 2.86-25-11.11-3.15-12.13-4.58-13.18-17.18-13.27-14.85-.12-30.39 2.53-43.29-7.44-9.69-7.48-20.72-12.3-31.32-18-9-4.86-17.9-5.32-27.27-1.23-10.57 4.62-21.77 7.23-33 9.59-3.18.67-6.22 1.66-8.43-1.85-1.9-3-.41-5.57 1.16-8a326.58 326.58 0 0 0 25.4-45.79c5.43-12.24 16.43-18.52 28.44-22.07 20.33-6 36.46-17.64 50.36-33.23 4.94-5.54 4.25-9.76-2-11.9-14.56-5-17.78-16.44-16.61-30h20.77c2.69 7.49 9 9.38 15.65 9.09 4.83-.21 8.68-3.26 8.52-9.09z" transform="translate(.07 .02)"/><path d="m28.73 0c-1.27 14.4-10.5 21.24-28.73 21.43v-21.43z" transform="translate(.07 .02)"/><path d="m299.44 141.61c-6.27 3.48-12.61 6.84-18.88 10.33a32.18 32.18 0 0 0 -13 13.38c-14 26.34-42.27 27.64-59.36 2.54-8.06-11.82-14.18-25-25.31-34.57-4.12-3.55-8.54-6.82-12.3-10.72-7.54-7.8-7.23-21.24.25-27 9.82-7.52 22.08-6.11 28.44 4.1 6.09 9.78 13.84 14.8 25.65 13.3 7.67-1 11.46-4.62 10.88-12.41a133.4 133.4 0 0 0 -2-13.59c-2.49-13.89 2.89-21.22 16.19-25.7 22.35-7.53 40.31-1.48 55.82 15.2 3.69 4 8.36 7 12 11 4.03 4.53 7.76 9.53 6.33 16.53-2.27 16.33-9.83 29.37-24.71 37.64z" transform="translate(.07 .02)"/><path d="m99.52 0h-13.81c1 8.59 6.21 15 12.68 20.22 8.47 6.82 17.41 13.59 14.66 26.85-2.83 13.61-13.17 23-27.13 24.52-14.81 1.65-29.49 3.17-40.24 16-5.57 6.62-13.62 7.41-22.07 4.41-7.23-2.63-15.61-5.29-23.61-5v13.81c7.76-.23 15.18 3.82 21.86 6.9 12.91 5.94 22.49 4.9 29.3-3.44 2-2.5 8.22-11 15.54-15.53s25.42-6.5 39.21-8.69c15-2.39 19.38-6.67 21.14-21.24.44-3.68 1.12-7.33 1.6-11 1.6-12.14-2.5-17.64-13.18-28.11-10.87-10.65-13.71-10-16-19.75z" transform="translate(.07 .02)"/></g><path d="m47.72 0c.08 2-.23 4.86.3 6.74 3.41 12.11 4.61 24 .58 36.45-1.64 5.06 1.84 10 6.57 12.95a33.57 33.57 0 0 0 16.38 4.86c10.22.5 22-6.27 24-13.75 2.85-10.34-4.17-15.71-11.55-19.8-11-6.12-13.77-16-12.14-27.47h13.85c1 8.59 6.21 15 12.68 20.22 8.47 6.82 17.41 13.59 14.66 26.85-2.83 13.61-13.17 23-27.13 24.52-14.81 1.65-29.49 3.17-40.24 16-5.57 6.64-13.62 7.43-22.07 4.43-7.23-2.63-15.61-5.29-23.61-5v-13.77c9.26-.64 19.91 2.77 28.83-2.6 5.82-3.49 8.23-8.69 8.38-15 .15-6.08-3.14-10.41-8.69-12.66-8.76-3.54-18.75-6.76-28.52-5.97v-15.57c18.21-.19 27.44-7 28.71-21.45z" fill="#f74807" transform="translate(.07 .02)"/><path d="m465.57 0c.16 5.83-3.69 8.88-8.52 9.09-6.61.29-13-1.6-15.65-9.09z" fill="#f74807" transform="translate(.07 .02)"/></g><path d="m494.8 130.92a39.43 39.43 0 0 1 -61.06 20.66c-9.13-6.49-18.43-12.76-27.71-19-7.14-4.82-15.51-6-23.69-7.4-6.81-1.19-9.86-4.93-10-11.75-.33-12.48 4.53-22 15.71-26.23 18.49-7.07 37.26-13.43 56.06-19.63 9.26-3.06 16.28-.59 23.3 7.55 12.8 14.88 29.37 24.46 49.99 23.88 9.39-.25 16.91.83 20.15 11.63 1.36 4.55 6.5 7 10.94 9.27 19.68 10.26 21 28.24 3.26 41.53-5.58 4.2-11.27 8-18.13 9.58-7.7 1.77-12.15-1.71-12.77-9.65-.56-7.23 2.36-13.45 5.42-19.69 7.81-15.94 3.11-23.61-14.38-23.58-11.43 0-13.82 1.8-17.09 12.8z" fill="#f74807" transform="translate(.07 .02)"/><g clip-path="url(#a)"><path d="m299 89.42c3.85 4.82 5.89 10.72 3.24 17-6.22 14.7-15.51 26.37-32.32 29-9.84 1.56-15.59 6.22-17 16.33a28.33 28.33 0 0 1 -3.44 9.69c-5 9-13.54 10.74-21.71 4.63a35.23 35.23 0 0 1 -6-6c-11.56-14.21-8.23-23.23 9.55-26.06.85-.13 1.71-.2 2.57-.27 17.07-1.32 20.55-5.31 19.25-22.55-.32-4.27-1.18-8.51-1.87-12.75-2.89-17.84 1.93-23.46 21-23.46 11.73-1.67 19.73 5.73 26.73 14.44z" fill="#f74807" transform="translate(.07 .02)"/><path d="m71.89 0c-1.63 11.47 1.17 21.33 12.11 27.45 7.35 4.09 14.37 9.46 11.54 19.78-2 7.48-13.8 14.25-24 13.75a33.57 33.57 0 0 1 -16.38-4.86c-4.73-3-8.21-7.89-6.57-12.95 4-12.43 2.83-24.34-.58-36.45-.52-1.88-.21-4.72-.29-6.72z" fill="#f32501" transform="translate(.07 .02)"/></g><path d="m0 37c9.75-.76 19.74 2.46 28.52 6 5.55 2.25 8.84 6.58 8.69 12.66-.15 6.3-2.56 11.5-8.38 15-8.9 5.34-19.55 1.93-28.83 2.57z" fill="#f32501" transform="translate(.07 .02)"/><path d="m450.11 148.14a58.72 58.72 0 0 1 -29.11-20.26c-6.06-7.75-11.55-15.74-22.27-17.54-2.46-.42-5.11-1.93-5.14-5 0-3.57 3-5.26 5.7-5.43 11.81-.79 21.9-6.27 32.3-11a16.77 16.77 0 0 1 14.16-.11c13.76 5.93 30.89 22.48 30.17 39.48 0 12.93-13.36 23.75-25.82 19.89z" fill="#f32501" transform="translate(.07 .02)"/><g clip-path="url(#a)"><path d="m269.6 102.42a5.64 5.64 0 0 1 6.09-5.89c4 .09 6.24 3 6.36 6.79s-2.33 6.23-6.06 7.27a8.13 8.13 0 0 1 -6.39-8.17z" fill="#f32501" transform="translate(.07 .02)"/><path d="m690.68 290.79c-15.38 0-21.17 4.94-26.46 19.47a57.52 57.52 0 0 1 -4 8.59c-1.52 2.64-4.45 5-7.11 3.83-14-6-29-2.72-43.36-5.41-31.53-5.91-43.58-.33-59.13 27.67-2.36 4.26-4.61 8.83-8.74 11.62a52 52 0 0 0 -18.54 22.11c-5 10.93-13.35 16.29-26 15.91-13.09-.39-26.65-2.43-39.06 3.74-13.28 6.68-27.47 11.56-39.76 20.37-9.32 6.68-19.09 12.79-28.92 18.73-11.42 6.89-20.65 5-28.47-5.57a55.86 55.86 0 0 0 -9.26-10.14c-2.48-2-5.64-4.06-8.7-2.64-8.81 4.09-18.55 6.39-26.22 12.71-3.3 2.72-7 6-6.11 10.74 1 5.11 5.67 6.81 10.21 8.13 8.55 2.47 17 5.38 25.67 7.34 12.84 2.89 20.1 10.54 23.91 23.07 4.74 15.56 13.72 19.74 29.22 14.78 4.06-1.31 7.79-3.65 11.74-5.37 10.7-4.66 22-7.07 33.54-6a382.8 382.8 0 0 1 47.5 7.64c9.8 2.21 18.76.81 25.6-7.84 3.19-4 7.35-7.18 11.54-10.29 17.21-12.75 17.4-12.85 34.83.16 12.43 9.27 13.34 20 3 31.49-4 4.45-9.5 6.71-12.24 12.3h34.53c.27-2.45 1.66-3.43 3.44-5 9.36-8.46 10.32-14.29 3.31-24.55-6.63-9.71-13.17-19.59-20.81-28.48-13.56-15.76-17.44-34.48-18.74-54.28a34.08 34.08 0 0 0 -.9-7.66c-3.86-12.54-3.36-24.21 5.24-35 3.63-4.55 4.18-10.63 6-16.05 5.57-16.12 17.47-23.48 33.57-18.04 21.6 7.31 45.06 9.26 64.63 22.81 7.5 5.2 15.89 6.85 25.06 8.17v-8.63c-7.85-2.49-4.71-9.67-5.15-15-.29-3.41-1.28-9.15 5.15-9.2z" fill="#ffb94a" transform="translate(.07 .02)"/><g fill="#ff9d27"><path d="m249.94 383.69a12.56 12.56 0 0 1 -1.08-3.27c-3.75-15.32-3.14-14.46-18.6-13.44-21.61 1.44-39.23-4.25-53.24-21.65-8.61-10.7-10.17-16-5.06-28.83 4.08-10.27 9.16-20.53 5.42-32.38-2-6.36-6.65-10.65-10.46-15.59-10.49-13.63-21.47-26.47-35.3-37.34-25.72-20.22-56.31-20.88-86.24-25-15.16-2.07-30.6 3.45-45.36 5.15v8.66a43 43 0 0 0 16.36-2.09c13.08-4.39 25.83-3.66 38.85.66 8.67 2.88 17.7 5.66 26.72 6.35 32.49 2.49 57.18 16.3 73.23 45.44 11.76 21.36 11.7 27.52-4.63 44.52-8.49 8.84-8.18 19.06 2.11 25.49 11.89 7.44 21.62 17.08 31.12 27.05 5.68 6 12.23 9.28 20.38 9.79 21.78 1.39 36 14.58 47.91 31.12a33.51 33.51 0 0 1 6.06 25.39 155 155 0 0 0 -1.6 18c-.5 12-5.49 20.48-18 24.05-9.08 2.59-17.53 7.07-25.85 11.7-9.67 5.38-20.12 9.23-31.34 6.28a85.89 85.89 0 0 0 -39.8-1.39c-17.86 3.59-28.53-7.71-25-25.58 5.62-28.52-5.93-41.92-19.74-47.06-18.53-6.89-30.08-18.85-36.83-36.85-3.09-8.26-8.63-14.72-17.46-17.92-7.79-2.82-12.81-9-18.43-15-7.12-7.49-13.15-17.69-24-21.19v29.36c4.09.23 9.31 1 12.33 3.74 16.81 15.4 36.38 28.42 44.15 51.63 2.38 7.1 8 11 15.19 12.75 3.34.82 6.7 1.65 10 2.79 14.8 5.17 17.42 11.81 9.55 25.18-4 6.89-4.73 13 .28 19.92a53.07 53.07 0 0 1 7.17 15.57c2.84 9.45 9.16 14.86 17.94 18.34 11.85 4.7 23.42 4.74 35.08-.73 6.55-3.07 13.48-5.22 20.86-3.6a54.46 54.46 0 0 0 38.42-5.44c14.05-7.55 28.45-13.61 44.5-15.17a74.7 74.7 0 0 0 12.68-2.34c12.58-3.48 16.55-15 8.72-25.46-2.46-3.26-5.5-6.62-5.71-10.47-1.25-22.47-10.23-42.12-21.19-61.15z" transform="translate(.07 .02)"/><path d="m0 263.16c-.29 0 .28 0 0 0v46.62c9.27-.85 19.42-3.64 23.1-12.58 7.93-19.27 5.18-36.47-23.1-34z" transform="translate(.07 .02)"/><path d="m664.14 0h-38c4.86 11.3 13.08 17.59 23.6 16.09 8.7-1.23 13.59-7.24 14.4-16.11z" transform="translate(.07 .02)"/></g><path d="m0 309.78c9.27-.85 19.42-3.64 23.1-12.58 7.93-19.27 5.18-36.47-23.1-34-.29 0 .28 0 0 0v-43.2a43 43 0 0 0 16.36-2.09c13.08-4.39 25.83-3.66 38.85.66 8.67 2.88 17.7 5.66 26.73 6.35 32.48 2.49 57.17 16.3 73.22 45.44 11.76 21.36 11.7 27.52-4.63 44.52-8.49 8.84-8.18 19.06 2.11 25.49 11.89 7.44 21.62 17.08 31.12 27.05 5.68 6 12.23 9.28 20.38 9.79 21.78 1.39 36 14.58 47.91 31.12a33.51 33.51 0 0 1 6.06 25.39 155 155 0 0 0 -1.6 18c-.5 12-5.49 20.48-18 24.05-9.08 2.59-17.53 7.07-25.85 11.7-9.67 5.38-20.12 9.23-31.34 6.28a85.89 85.89 0 0 0 -39.8-1.39c-17.86 3.59-28.53-7.71-25-25.58 5.62-28.52-5.93-41.92-19.74-47.06-18.53-6.89-30.08-18.85-36.83-36.85-3.09-8.26-8.63-14.72-17.46-17.92-7.79-2.82-12.81-9-18.43-15-7.12-7.49-13.15-17.69-24-21.19z" fill="#ff8d12" transform="translate(.07 .02)"/><path d="m589.89 518c.27-2.45 1.66-3.43 3.44-5 9.36-8.46 10.32-14.29 3.31-24.55-6.63-9.71-13.17-19.59-20.81-28.48-13.56-15.76-17.44-34.48-18.74-54.28a34.08 34.08 0 0 0 -.9-7.66c-3.86-12.54-3.36-24.21 5.24-35 3.63-4.55 4.18-10.63 6-16.05 5.57-16.19 17.47-23.55 33.57-18.11 21.6 7.31 45.06 9.26 64.63 22.81 7.5 5.2 15.89 6.85 25.06 8.17v25.9a6.28 6.28 0 0 1 -5.26-2.15c-7.8-7.48-17.43-10.6-27.83-12.48-12.78-2.37-15.4-1.24-20.73 10.38-4.56 10-9.79 12.69-20.64 10.38q-10.08-2.16-20-4.9c-10.14-2.78-15.45.57-18.82 10.5-3 8.79 1.63 17.07.41 25.57-2.87 20.05 7.52 35.09 19.78 48.53 12.5 13.7 20.72 27.27 16.51 46.4z" fill="#ff9d27" transform="translate(.07 .02)"/><path d="m690.68 351.22c-7.85-2.49-4.71-9.67-5.15-15-.29-3.41-1.28-9.15 5.15-9.2z" fill="#ff8d12" transform="translate(.07 .02)"/><path d="m404.82 482.82c-6.45 3-13 5.89-18.57-1.47-3.89-5.16-2.33-17.68 2.8-23.31 8.93-9.81 20-17.1 30-25.69 12.34-10.61 27-17.36 41.59-24.18 11.26-5.27 22.91-5.13 34.18.1 7.71 3.59 15.14 6.42 24 3.74 3.91-1.18 8.59-1.22 12.22 2.18s5 7.22 1 11.14c-4.87 4.82-9 10.47-15.48 13.54-8 3.81-12.87 10.25-15.34 18.69-5.5 18.8-7.4 23.12-33.59 21-8.59-.68-17.14-1.13-29.89-1.44-8.58-.56-21.09.25-32.92 5.67z" fill="#ff8d12" transform="translate(.07 .02)"/><path d="m614.07 518c4.21-19.13-4-32.7-16.51-46.4-12.26-13.44-22.65-28.48-19.78-48.53 1.22-8.5-3.4-16.78-.41-25.57 3.37-9.93 8.68-13.28 18.82-10.5q9.94 2.73 20 4.9c10.85 2.31 16.08-.41 20.64-10.38 5.33-11.62 8-12.75 20.73-10.38 10.35 1.92 20 5 27.82 12.48a6.28 6.28 0 0 0 5.26 2.15v36.23c-10.4-.91-19.37-2.65-27.47-10.21-3.84-3.59-8.91-5-13.63-2.81-10.56 4.91-21.44 4.93-32.74 4.55-20.24-.69-29.21 10.61-25.1 30.72 1.91 9.32 7.83 16.6 13.83 23.48 12.82 14.69 20.19 30.43 18.86 50.24z" fill="#ff8d12" transform="translate(.07 .02)"/></g><path d="m72 357.93c5.06-14.93-2.12-23.93-14.49-30.57a33.39 33.39 0 0 1 -4.93-3.46c-9.58-7.74-14.85-17.48-9.58-29.47 8.13-18.37 4.47-34.43-6.38-50.31-6.08-8.89-4.88-10.5 5.91-10.26a75.67 75.67 0 0 1 29.92 7.3c7.33 3.37 14.41 4.51 22.43 2.93 31-6.1 46.07 15.18 47.68 40a12.47 12.47 0 0 1 -4.24 10 129 129 0 0 1 -11.76 10c-23.18 17-11.37 32.82 3.93 42.65a38.71 38.71 0 0 0 6.31 2.75c14.12 5.74 28 11.4 37.23 24.95 7.11 10.39 18.83 13.78 30.92 14.6 18.33 1.25 29.36 12.93 38.89 26.64 3.89 5.6 3.24 12.07 2.74 18.94-1.8 24.94-16.94 37-38.6 45-14.11 5.2-26.59.67-39.45-2.89-6.72-1.87-13.32-3.48-20.3-2.93-8.68.69-13.17-4.14-14-11.9-2.64-26.24-15.73-45.21-39.26-56.56-17.65-8.54-23.69-22.93-23.07-41.34 0-2-.52-4.21.09-6z" fill="#fb6a0c" transform="translate(.07 .02)"/><g clip-path="url(#a)" fill="#fb6a0c"><path d="m431.79 465.22c-11.29-2.45-14.85-10.4-7.64-19.51 11.75-14.83 28.62-21.56 46.15-26.41 6.26-1.73 12.23 5.24 10.35 12.22-2 7.57-2.64 15.14-3.45 22.83-.86 8.27-5.95 12.72-14.59 12.56-3.44-.07-6.88 0-11.62 0a72.49 72.49 0 0 1 -19.2-1.67z" transform="translate(.07 .02)"/><path d="m624.43 518c1.33-19.81-6-35.55-18.86-50.24-6-6.88-11.92-14.16-13.83-23.48-4.11-20.11 4.86-31.41 25.1-30.72 11.3.38 22.18.36 32.74-4.55 4.72-2.2 9.79-.78 13.63 2.81 8.1 7.56 17.07 9.3 27.47 10.21v17.27c-22.54-4.58-44.17-7.4-67.22-6.91-11.75.25-15.5 4.39-14.54 16 .5 6 3.76 10.79 6.7 15.7 10.1 16.93 18.21 33.82 19.17 54z" transform="translate(.07 .02)"/></g><path d="m135.93 369.16c7.81.74 14.46 5.44 20.44 10.49 13.83 11.68 29.42 18 47.8 18.38 20.71.47 33.7 21.6 26.9 41-4.7 13.37-10.54 24.92-25.63 28.51-2.48.59-5.29 1.49-7.58.87-25.55-6.93-51.37-13.14-63.87-41-6.63-14.74-17.69-25.63-32.91-32.53-7.07-3.21-13.86-8.35-13.7-18.08.15-8.79 3.1-11.9 13.42-11.64 10.55 2.76 22.89 2.9 35.13 4.05z" fill="#f74807" transform="translate(.07 .02)"/><g clip-path="url(#a)" fill="#f74807"><path d="m74.64 290.79c-3.21-8.51 1.28-14.39 7.26-19.4a92.84 92.84 0 0 1 21.75-13.69c5.82-2.6 11.31-1.86 16 2.45s6.57 9.69 4.58 16.28c-4 13.34-18.29 26.3-29.53 26.43-9.43.11-17.15-4.47-20-12.07z" transform="translate(.07 .02)"/><path d="m634.79 518c-1-20.13-9.07-37-19.17-54-2.94-4.91-6.2-9.72-6.7-15.7-1-11.57 2.79-15.71 14.54-16 23-.49 44.68 2.33 67.22 6.91v24.17c-12.66-2-24.25-4-36.91-6a56.72 56.72 0 0 0 -5.93-.82c-14.11-.71-18.2 4.39-12.52 17.43 6.27 14.38 6.89 29.29 11.55 44z" transform="translate(.07 .02)"/></g><path d="m185.07 436.68c-10.47-4.84-11.49-11.77-3.56-19.89 6-6.19 13.16-9.32 21.67-7.57 7.95 1.64 12.68 7.92 11.9 14.56-1 8.23-10.06 15.57-20.64 15.41-2.2-.56-6-1-9.37-2.51z" fill="#f32501" transform="translate(.07 .02)"/></g></svg>