<svg height="292.27" viewBox="0 0 538.32 292.27" width="538.32" xmlns="http://www.w3.org/2000/svg"><g fill="none" stroke-miterlimit="10" stroke-width="2"><path d="m181.08 169.69-29.82-51.69 29.82-51.6h59.63l29.81 51.6-29.81 51.65zm50.92-15.08 21.11-36.61-21.11-36.52h-42.22l-21.11 36.52 21.11 36.57zm-8.71-58.05h-24.8l-12.4 21.44 12.4 21.49h24.8l12.41-21.49z" stroke="#93e019"/><path d="m283.16 108.89-29.81-51.65 29.81-51.64h59.63l29.82 51.64-29.82 51.65zm50.93-15.08 21.11-36.57-21.11-36.56h-42.22l-21.11 36.56 21.11 36.57zm-8.71-58h-24.8l-12.41 21.43 12.41 21.49h24.8l12.4-21.49z" stroke="#93e019"/><path d="m428.43 155.65-29.82-51.65 29.82-51.64h59.63l29.82 51.64-29.82 51.65zm50.93-15.08 21.1-36.57-21.1-36.56h-42.22l-21.14 36.56 21.11 36.57zm-8.71-58h-24.81l-12.4 21.43 12.4 21.48h24.81l12.4-21.48z" stroke="#93e019"/><path d="m106.56 153-29.81-51.62 29.81-51.64h59.64l29.8 51.64-29.8 51.62zm50.93-15.08 21.11-36.56-21.11-36.54h-42.22l-21.11 36.56 21.11 36.56zm-8.71-58h-24.78l-12.41 21.48 12.41 21.46h24.8l12.4-21.48z" stroke="#33b1da"/><path d="m159.59 66.86-19-32.93 19-32.93h38l19 32.93-19 32.93zm32.47-9.62 13.46-23.31-13.46-23.31h-26.92l-13.46 23.31 13.46 23.31zm-5.55-37h-15.82l-7.91 13.7 7.91 13.7h15.82l7.9-13.7z" stroke="#33b1da"/><path d="m427.11 291.27-29.82-51.64 29.82-51.63h59.63l29.82 51.64-29.82 51.64zm50.89-15.08 21.1-36.56-21.1-36.56h-42.18l-21.11 36.56 21.11 36.56zm-8.71-58h-24.77l-12.4 21.48 12.4 21.48h24.81l12.4-21.48z" stroke="#33b1da"/><path d="m480.13 205.11-19-32.93 19-32.93h38l19 32.93-19 32.93zm32.47-9.62 13.46-23.31-13.46-23.32h-26.92l-13.46 23.32 13.46 23.31zm-5.55-37h-15.81l-7.91 13.7 7.91 13.69h15.81l7.95-13.7z" stroke="#33b1da"/><path d="m371.09 234-9.18-15.89 9.18-15.9h18.35l9.17 15.9-9.17 15.89zm15.67-4.64 6.49-11.25-6.49-11.26h-13l-6.5 11.26 6.5 11.25zm-2.68-17.86h-7.64l-3.81 6.61 3.81 6.61h7.64l3.82-6.61z" stroke="#33b1da"/><path d="m371.09 197.5-9.18-15.9 9.18-15.89h18.35l9.17 15.89-9.17 15.9zm15.67-4.64 6.49-11.26-6.49-11.25h-13l-6.5 11.25 6.5 11.26zm-2.68-17.86h-7.64l-3.81 6.61 3.81 6.61h7.64l3.82-6.61z" stroke="#33b1da"/><path d="m340.46 252.67-9.17-15.89 9.17-15.89h18.35l9.19 15.89-9.18 15.89zm15.67-4.67 6.5-11.25-6.5-11.25h-13l-6.5 11.25 6.5 11.25zm-2.68-17.86h-7.63l-3.82 6.64 3.82 6.61h7.63l3.82-6.61z" stroke="#33b1da"/><g stroke="#93e019"><path d="m233.23 79.24-9.9-17.15 9.9-17.09h19.77l9.9 17.14-9.9 17.1zm16.9-5 7-12.14-7-12.14h-14l-7 12.14 7 12.14zm-2.89-19.24h-8.24l-4.12 7.13 4.12 7.09h8.23l4.12-7.13z"/><path d="m208.74 124.8-9.9-17.14 9.9-17.15h19.79l9.9 17.15-9.9 17.14zm16.9-5 7-12.13-7-12.14h-14l-7 12.14 7 12.13zm-2.89-19.26h-8.23l-4.12 7.13 4.12 7.13h8.23l4.12-7.13z"/><path d="m122 170.17-9.91-17.17 9.9-17.14h19.8l9.89 17.14-9.89 17.15zm16.9-5 7-12.14-7-12.13h-14l-7 12.13 7 12.14zm-2.9-19.28h-8.23l-4.12 7.11 4.12 7.14h8.23l4.12-7.14z"/><path d="m11.05 153-9.9-17.14 9.9-17.14h19.8l9.9 17.14-9.9 17.14zm16.95-5 7-12.14-7-12.14h-14l-7 12.14 7 12.14zm-2.89-19.27h-8.28l-4.11 7.13 4.11 7.14h8.24l4.12-7.13z"/><path d="m257.26 192-9.9-17.14 9.9-17.14h19.79l9.9 17.14-9.9 17.14zm16.9-5 7-12.14-7-12.14h-14l-7 12.14 7 12.14zm-2.89-19.27h-8.27l-4.12 7.13 4.12 7.14h8.23l4.12-7.13z"/><path d="m291.07 211.92-9.9-17.14 9.9-17.15h19.79l9.9 17.15-9.9 17.14zm16.9-5 7-12.14-7-12.14h-13.97l-7 12.14 7 12.14zm-2.89-19.27h-8.23l-4.12 7.13 4.12 7.13h8.23l4.12-7.13z"/><path d="m291.07 250-9.9-17.15 9.9-17.14h19.79l9.9 17.14-9.9 17.15zm16.9-5 7-12.14-7-12.13h-13.97l-7 12.13 7 12.14zm-2.89-19.27h-8.23l-4.12 7.13 4.12 7.14h8.23l4.12-7.14z"/><path d="m324.88 192-9.88-17.11 9.9-17.14h19.8l9.89 17.14-9.91 17.11zm16.91-5 7-12.14-7-12.14h-14l-7 12.14 7 12.14zm-2.9-19.27h-8.23l-4.12 7.13 4.12 7.13h8.23l4.12-7.13z"/><path d="m346.09 154.08-9.9-17.14 9.9-17.15h19.8l9.89 17.15-9.89 17.14zm16.91-5 7-12.14-7-12.14h-14l-7 12.14 7 12.14zm-2.89-19.27h-8.24l-4.12 7.13 4.12 7.13h8.24l4.11-7.13z"/><path d="m494.91 100.24-9.91-17.15 9.91-17.09h19.8l9.9 17.14-9.9 17.15zm16.91-5 7-12.14-7-12.13h-14l-7 12.13 7 12.14zm-2.89-19.24h-8.24l-4.11 7.13 4.11 7.14h8.24l4.07-7.18z"/></g></g></svg>