<svg height="1101.96" viewBox="0 0 805.15 1101.96" width="805.15" xmlns="http://www.w3.org/2000/svg"><path d="m32.8 241.72c22.4 12.77 46 23 70.1 32 3.13 1.15 4 2.53 3.9 5.86-.94 30.32 2.56 60.16 11.43 89.18 4.26 14 10.06 27.47 14.54 41.39 10.93 33.85 21.49 67.91 32.23 101.9q55.88 177.14 111.76 354.27c3 9.58 6 19.17 9.23 29.39l-21.28-6.9c4 36 7.83 71.07 11.74 106.54 12.45-1.09 24.31-2 36.13-3.23 2.52-.25 3.74.33 4.44 2.73 1.31 4.46 2.84 8.86 4.27 13.28l4.22 13c-8.3.07-15.67-.17-21.55-6.25a14.43 14.43 0 0 0 -10.31-4.29c-8.6-.24-17.19-.94-25.79-1.35-3.21-.16-6.44 0-9.94 0-.21 19.49 2 38 12.55 54.65 4.41 6.93 10.26 12.55 18.27 13.46 8.9 1 12.42 5.88 15.35 13.4 3.75 9.62 8.78 12 19 11.09 3.27-.3 6.56-.54 9.78-1.13 25.95-4.77 51.93-9.44 77.82-14.51 16.08-3.14 32.05-6.88 48-10.47 10.42-2.35 17-9.38 21.78-18.46 2.54-4.84 4.77-9.85 7.41-14.64a8.68 8.68 0 0 1 3.92-3.69c11.89-4.79 23.92-9.24 35.79-14.09 3.18-1.29 6-3.56 8.94-5.39l-.81-1.86c-8.16 1.44-16.53 2.18-24.46 4.46-19.27 5.51-38.74 6-58.93 3.86l9.8-29 47.55-4.71c-.92-2-1.38-3.26-2.06-4.4-8.37-14.1-16.71-28.22-25.24-42.22-1.26-2.07-1.75-3.7-.89-6 2-5.24 3.73-10.57 5.53-15.87q53.52-157.72 106.98-315.43c5.29-15.61 10.66-31.2 16-46.81 3.58-10.57 7.1-21.17 10.78-32.15l-19-9.56q-65.04 196.23-129.64 391.23a53.49 53.49 0 0 1 .54-13.12c3.34-20.22 6.86-40.39 10.21-60.6q8.94-53.79 17.76-107.6 8.42-51 16.86-102 6.87-41.21 13.94-82.39a7.2 7.2 0 0 1 3-4.18c10.59-6.8 21.39-13.28 31.92-20.15 5.42-3.54 10.45-7.68 15.57-11.49l-126.27-76.74a1.09 1.09 0 0 0 -.42.25c-1.47 1.44-2.92 2.9-4.38 4.34-35.06 34.24-76.33 52.4-126 48.46-24.08-1.91-46.32-9.26-65.86-23.77a12.09 12.09 0 0 1 -4.24-6.56c-1.3-5.71-1.84-11.6-2.66-17.42-3.65-25.84-7.51-51.65-10.87-77.53q-4.84-37.23-8.78-74.57c-1.35-13.1-.86-13.15-11.22-21.22l-12.08-9.44c2.9 62.94 14.34 123.88 22.62 186.39-24.64-22.33-43.55-47.21-56.6-76.35-21.43-47.86-25.36-97.42-13.42-148.82l-45.41-2.17-6.43 30.28c-26.2-11.15-52.39-21.16-74.92-38.6a120 120 0 0 1 37.64-6.78c27.77-.27 55.55.43 83.33.42 6.79 0 11.85 2.58 16.95 6.78 67.78 55.76 138.2 108.01 210.61 157.58 76.73 52.57 155.47 101.8 237.86 145 30.3 15.89 61.28 30.38 94.17 40.3 10.82 3.26 21.82 5.28 33.18 4 15.33-1.78 24.25-14.35 21.33-29.58-2.11-11-7.92-20.05-14.37-28.75a378.79 378.79 0 0 0 -43.79-49.45c-14.8-14-29.85-27.8-44.85-41.61-1.76-1.62-2.81-2.94-1.76-5.53 1.48-3.64 2.27-7.55 3.79-11.16a4.7 4.7 0 0 1 3.65-2.07c12 .09 24.09.5 36.13.63 17.13.17 34.24-.4 51.11-3.66 10.46-2 21-3.93 30.22-9.88 16.82-10.86 19.74-28.72 7.28-44.39-7.58-9.54-17.62-15.93-28-21.86-24.66-14.15-51.06-24.4-77.85-33.63-4.68-1.6-6.07-4.08-6.67-8.58-1.76-13.12-3.14-26.38-6.19-39.23-17.59-74.08-57.81-133-121-175.39-58.23-39.04-122.72-55.16-192.43-47.16-51.43 5.86-98.1 25-140 55.49-7.6 5.51-14.81 11.62-22.26 17.51-13.34-7.5-26.66-15.07-40.08-22.5-28-15.56-56.74-29.5-87.6-38.72-10.17-3.02-20.56-4.78-31.19-3.78-15.46 1.51-25.81 13.86-23.82 29.16a60.6 60.6 0 0 0 5.47 17.84c6.29 13.2 15.86 24.23 25.22 35.33 21.33 25.3 45.9 47.36 70.18 69.71 1.41 1.3 3 2.38 4.55 3.57l-1 1.15h-10.58c-25.89.06-51.77.32-77.22 6-9.8 2.19-19.35 5.13-27.19 11.83-11.82 10.15-13.02 24.17-3.3 36.41 7.13 9 16.48 15.16 26.28 20.72zm259.44 735.77c-2.62-21.15-5.2-41.89-7.83-63.11 30.13 11.45 52 31.92 69.59 58.37zm141.34 48.1-88.58-3.47c-1.74-10.49-3.46-20.83-5.27-31.69l12.93-1.17c.47 4.82 1.11 9.37 1.27 13.93.1 2.92 1.1 3.79 4 3.51 13.06-1.29 26.14-2.43 39.21-3.66 12.79-1.2 25.59-2.45 38.38-3.66a16.06 16.06 0 0 1 2.28.16c-1.43 8.69-2.8 17.15-4.22 26.05zm-79.24-162.24c0-.11.13-.23.72-1.29 13 8.44 25.88 16.7 38.63 25.09a4.9 4.9 0 0 1 1.7 3.07c5.33 29.69 2.67 58-14.81 83.66-.83 1.22-1.77 2.37-3 4-4.48-7-9.25-13.36-12.72-20.34-2.11-4.23-2.66-9.41-3.13-14.25-2.6-26.62-4.96-53.29-7.39-79.94zm-81.87-314.89c21.51 11.86 41.24 26 56.26 45.76 8.95 11.79 15.73 24.64 18.09 39.5a45.51 45.51 0 0 0 1.82 6.29c2.18 7 7 10.64 14.27 10.67 22.72.11 45.45.23 68.17.06 7.13 0 12.64-5.07 13.75-13.46 4.09-30.63 22.16-52 45.52-69.88 5.83-4.48 12-8.47 19.08-13.39-19.21 119.25-38.23 237.24-57.43 356.21a352.88 352.88 0 0 0 -53.74-41.22 511.43 511.43 0 0 0 -59.85-32.14l9.38 100.14c-3.5-3.08-6-5.8-8.91-7.77-8.18-5.46-11.45-13-12.86-22.7-5.58-38.42-12-76.71-18.09-115q-9.21-57.82-18.44-115.53-8.49-53.29-16.94-106.56c-1.15-7.26-2.35-14.51-3.64-22.43 1.66.67 2.67.99 3.56 1.45zm-94.84-70.79a24.87 24.87 0 0 1 2 1.81 312.21 312.21 0 0 0 63.55 52.94 8.33 8.33 0 0 1 4.19 6.41c8 49.2 16.18 98.38 24.29 147.56q9 54.78 18 109.57 7.38 44.88 14.75 89.76a37.33 37.33 0 0 1 .24 10.63l-127.65-418.35zm563.67 47.65c-38.26-6.86-70.83-25.64-104.75-42.12l18.51-54.61c31.27 30.09 64.28 57.92 86.24 96.73zm-34.57-212.11c17 7 33.43 15.59 49.93 23.82 4.14 2.06 7.59 5.51 11.75 8.62-11.1 5.78-74.25 11.5-89.39 8.4 1.29-7.33 2.53-14.69 3.91-22 1.56-8.3 1.6-8.26-6.38-11.23-50.07-18.61-101.62-32.2-153.35-45.21-.92-.23-1.87-.31-3.36-.55-4.35 41.52-14.78 81.13-35.73 117.94q-134.11-87.12-258.94-186.14l.48-1.18c5.28.55 10.58.94 15.83 1.69 39.13 5.58 78.33 10.74 117.35 17 64.72 10.35 128.8 24 192.23 40.43 52.64 13.64 105.2 27.79 155.67 48.41zm-421.55-242.52a33.81 33.81 0 0 1 13.93-9.69c24-9.55 48.85-15.42 74.67-15.68 30.15-.32 56.45 10.86 79.22 30.06 31.19 26.26 49.44 60.57 59.33 99.51 3.42 13.47 5.07 27.4 7.39 41.14.37 2.23 0 4.58 0 7.32-93.58-21.35-187.82-38.13-283.81-48.68 1.37-5.82 2.48-11.13 3.86-16.37 7.18-27.22 17.89-52.82 35.1-75.37 3.23-4.24 6.9-8.14 10.31-12.24zm-45 25.52c-1.24 2.68-2.49 5.36-3.71 8.05-9.42 20.73-16.79 42.14-21 64.54-.54 2.85-1.6 3.45-4.3 3.21-10.2-.92-20.43-1.61-31.52-2.45 15.5-29.02 34.99-53.56 60.51-73.35zm-183.13-52.86c4.56 1.1 9.18 2 13.66 3.32 26.21 7.94 51 19.45 75.8 30.84 12.02 5.49 23.82 11.49 35.59 17.23l-35.16 46.41c-31.94-30.48-66.18-58.93-89.89-97.8z" fill="#1a546b" opacity=".1"/></svg>