<svg xmlns="http://www.w3.org/2000/svg" width="474" height="330.35" viewBox="0 0 474 330.35"><defs><style>.cls-1{fill:#193340}</style></defs><title>consultation</title><g id="Layer_2" data-name="Layer 2"><g id="Layer_1-2" data-name="Layer 1"><path class="cls-1" d="M474,208.51c0-35.29-25.78-66.24-64.54-83.74a103.47,103.47,0,0,1,5.13,31.94c0,66.09-63.42,121.53-149,136.77,20.63,8.83,44.75,13.92,70.52,13.92a184.51,184.51,0,0,0,56.45-8.67l70.31,31.62-25.17-55C460.25,257.74,474,234.28,474,208.51Z"/><path class="cls-1" d="M196.44,0C88,0,0,63.1,0,140.93c0,36.73,19.6,70.16,51.68,95.25L15.81,314.57,116,269.5a262.61,262.61,0,0,0,80.44,12.36c108.49,0,196.44-63.09,196.44-140.93S304.93,0,196.44,0ZM116.85,157.74a18.56,18.56,0,1,1,18.56-18.55A18.54,18.54,0,0,1,116.85,157.74Zm79.59,0A18.56,18.56,0,1,1,215,139.19,18.55,18.55,0,0,1,196.44,157.74Zm79.59,0a18.56,18.56,0,1,1,18.55-18.55A18.55,18.55,0,0,1,276,157.74Z"/></g></g></svg>