<svg xmlns="http://www.w3.org/2000/svg" width="258.52" height="488" viewBox="0 0 258.52 488"><defs><style>.cls-1{fill:#193340}</style></defs><title>free</title><g id="Layer_2" data-name="Layer 2"><g id="Layer_1-2" data-name="Layer 1"><path class="cls-1" d="M153.82,135V166.8a65.24,65.24,0,1,0-79-.55L76,135.19l.06-1.48c0-.72,0-2,.16-3.66a41,41,0,0,1-3-15.35,41.43,41.43,0,1,1,80.48,13.69C153.92,131.33,153.88,133.67,153.82,135Z"/><path class="cls-1" d="M72.73,221.34l.16-4.27.82-21.37a90.9,90.9,0,1,1,80.11.9v8.64h1.06a47.67,47.67,0,0,1,21.62,5.58c.68-.35,1.4-.62,2.11-.92A114.74,114.74,0,1,0,72.73,221.34Z"/><path class="cls-1" d="M257.22,282.67a233.46,233.46,0,0,0-10.3-50c-.18-.56-.32-1.12-.51-1.68,0,0-9.26-7.27-20-7.27a21.58,21.58,0,0,0-15.62,6.59s-9.52-6.69-19.2-6.69a16.09,16.09,0,0,0-14,7.44s-9.73-8.92-21.66-9.43c-.35,0-.68-.1-1-.1a23.32,23.32,0,0,0-13.81,4.7,26.68,26.68,0,0,0-2.67,2s-.31-.28-.88-.74V134.59s1.95-33.07-21.64-33.07h-.06c-23.66,0-23.43,32.53-23.43,32.53l-.07,1.77-.51,13.38-.93,24.06-.08,2.1-.73,19L89.78,202l-.6,15.67-.34,8.66-.24,6.31-1.92,50-.88,22.9c-5.44-7.95-10.77-15.82-16-22.9-11.74-15.87-23-27.78-34-27.79-4,0-8.06,1.62-12,5.26C17.54,265.82,17,273.58,20,282.67c6.37,19.59,28.93,45.35,45.83,69.76,2.3,3.33,4.65,7.16,7,11.38,1.67,3,3.17,5.83,4.53,8.56,0,.09.09.18.14.27,9.67,19.47,11.7,32.57,12.06,48.57.4,18.29-1.48,59.45-1.48,59.45s31.3,7.34,75.21,7.34a360.87,360.87,0,0,0,61.17-5.07l-1.4-18.56,25.74-77.11S262.76,339.59,257.22,282.67Z"/></g></g></svg>