<svg xmlns="http://www.w3.org/2000/svg" width="247.94" height="488" viewBox="0 0 247.94 488"><defs><style>.cls-1{fill:#193340}</style></defs><title>win</title><g id="Layer_2" data-name="Layer 2"><g id="Layer_1-2" data-name="Layer 1"><circle class="cls-1" cx="124.51" cy="29" r="29" transform="translate(8.57 82.87) rotate(-38.03)"/><polygon class="cls-1" points="128.05 76.28 124.51 76.28 120.97 76.28 115.34 116.89 124.51 125.01 133.67 116.89 128.05 76.28"/><polygon class="cls-1" points="124.51 74.2 127.63 74.2 129.84 67.79 124.51 67.79 119.18 67.79 121.38 74.2 124.51 74.2"/><path class="cls-1" d="M155,97.9c.26-.32,22.52-22.26,22.81-22.55l54.28-54.28A10.41,10.41,0,0,0,217.41,6.35L163.14,60.63c-.3.29-22.56,22.23-22.84,22.53Z"/><path class="cls-1" d="M94,97.9c-.26-.32-22.51-22.26-22.81-22.55L16.89,21.07A10.41,10.41,0,0,1,31.6,6.35L85.88,60.63c.29.29,22.55,22.23,22.83,22.53Z"/><path class="cls-1" d="M166.09,297.59a11.71,11.71,0,1,0,22.06-7.85l-29.86-83.9L155,195.78l-26.53-3.64Z"/><path class="cls-1" d="M81.71,297.59a11.71,11.71,0,1,1-22.06-7.85l29.86-83.9,3.25-10.06,26.53-3.64Z"/><path class="cls-1" d="M150.12,67.71v-.09h-3.43l-11.3,22.17,5.71,4-16.59,29.69-16.6-29.69,5.72-4-11.3-22.17h-1.62a33.53,33.53,0,0,0-7.81.95V195.78H155V68.38A33.28,33.28,0,0,0,150.12,67.71Z"/><rect class="cls-1" x="55.06" y="314.68" width="137.83" height="36.44"/><rect class="cls-1" x="30.99" y="361.6" width="185.97" height="49.17"/><rect class="cls-1" y="422.44" width="247.94" height="65.56"/></g></g></svg>