<svg height="53.1" viewBox="0 0 165.75 53.1" width="165.75" xmlns="http://www.w3.org/2000/svg" xmlns:xlink="http://www.w3.org/1999/xlink"><linearGradient id="a" gradientUnits="userSpaceOnUse" x1="18.23" x2="26.73" y1="25.24" y2="16.74"><stop offset=".13" stop-color="#b4e95e"/><stop offset=".55" stop-color="#62c87a"/></linearGradient><linearGradient id="b" x1=".8" x2="24.56" xlink:href="#a" y1="6.36" y2="6.36"/><linearGradient id="c" x1="11.02" x2="14.22" xlink:href="#a" y1="9.26" y2="12.46"/><linearGradient id="d" x1="28.71" x2="35.97" xlink:href="#a" y1="6.5" y2="13.76"/><linearGradient id="e" gradientUnits="userSpaceOnUse" x1="34.26" x2="34.39" y1="7.23" y2="7.36"><stop offset=".14" stop-color="#fff" stop-opacity=".35"/><stop offset=".91" stop-color="#fff" stop-opacity="0"/></linearGradient><linearGradient id="f" x1="30.96" x2="35.46" xlink:href="#e" y1="8.06" y2="12.56"/><linearGradient id="g" x1="34.14" x2="38.08" xlink:href="#e" y1="7.7" y2="11.64"/><linearGradient id="h" x1="32.41" x2="36.9" xlink:href="#e" y1="7.98" y2="12.47"/><linearGradient id="i" gradientUnits="userSpaceOnUse" x1="38.33" x2="35.51" y1="36.06" y2="31.18"><stop offset=".45" stop-color="#62c87a"/><stop offset=".87" stop-color="#b4e95e"/></linearGradient><linearGradient id="j" x1="37.33" x2="35.64" xlink:href="#e" y1="34.33" y2="31.4"/><linearGradient id="k" x1="22.23" x2="30.32" xlink:href="#a" y1="38.81" y2="46.9"/><rect fill="#43809e" height="53.1" opacity=".2" rx=".92" width="50.62" x="57.56"/><rect fill="#43809e" height="53.1" opacity=".2" rx=".92" width="50.62" x="115.13"/><rect fill="#43809e" height="53.1" opacity=".2" rx=".92" width="50.62"/><g fill="none" stroke="#273c4d" stroke-linecap="square" stroke-miterlimit="10" stroke-width=".36"><path d="m61.53 20.6v.05"/><path d="m61.53 21.38v10.59" stroke-dasharray=".11 .73"/><path d="m61.53 32.33v.06"/><path d="m85.39 17.4v.05"/><path d="m85.39 18.2v12.58" stroke-dasharray=".11 .75"/><path d="m85.39 31.15v.06"/><path d="m73.47 44.04v-.05"/><path d="m73.47 43.23v-12.57" stroke-dasharray=".11 .75"/><path d="m73.47 30.28v-.05"/></g><path d="m95.36 28.06h-50.25v.03l-.03-.03-2.77 2.77v.63l2.77 2.77.03-.03v.03h50.24.01l2.69-2.69v-.78z" fill="#43809e"/><path d="m30.86 27.91a2.19 2.19 0 1 1 2.14-2.19 2.18 2.18 0 0 1 -2.14 2.19zm-20.57 0a2.19 2.19 0 1 0 -2.18-2.19 2.18 2.18 0 0 0 2.18 2.18zm24.53-2.91c-.09.18-.15.38-.25.56a.91.91 0 0 1 -.25.3 5.14 5.14 0 0 1 -.51.29.64.64 0 0 1 -.2 0c0-.06 0-.12 0-.19a2.62 2.62 0 0 0 -1.23-2.64 2.79 2.79 0 0 0 -4.28 2.18 3.66 3.66 0 0 0 .05.93c.06.4 0 .45-.36.45h-7.3l-7.29.12c-.25 0-.28 0-.23-.27a4.53 4.53 0 0 0 .03-1.47 2.76 2.76 0 0 0 -5.44.74c0 .3.08.6.12.9s0 .28-.24.22c-.44-.12-.96-.25-1.44-.4a2.4 2.4 0 0 1 -.46-.21.35.35 0 0 1 -.11-.51c.17-.28.18-.28 0-.53a.61.61 0 0 1 -.15-.47 5.54 5.54 0 0 0 -.07-1c0-.33 0-.36.23-.56a7.65 7.65 0 0 1 3.56-1.44l3.43-.56a4.49 4.49 0 0 0 1.26-.44 41.55 41.55 0 0 1 3.87-1.69 14.42 14.42 0 0 1 4.55-.84 24.71 24.71 0 0 1 4.86.3 19.86 19.86 0 0 1 4 1.14l2.69 1.09c.2.08.41.13.61.19s.25.13.16.31a.17.17 0 0 0 .12.24.27.27 0 0 1 .17.35 4.21 4.21 0 0 0 .17 2.05 1.23 1.23 0 0 1 -.07.86z" fill="#273c4d"/><path d="m30.3 20.34c-3.95-1.64-11.08-2.12-15.76 1.21 0 0 13.08.16 15.79-1.06.1-.05.08-.1-.03-.15z" fill="url(#a)"/><path d="m.8 5.86v.31l2.84.68.9-.49v-.5zm4.43 0v.5l.9.49 2.87-.68v-.31zm11.16 0v.31l2.84.68.9-.49v-.5zm4.43 0v.5l.9.49 2.84-.68v-.31z" fill="url(#b)"/><path d="m20.9 7.46h-.07v-2h-.7v2h-.07a.33.33 0 0 0 -.33.33v1.07h-3.2a3.2 3.2 0 0 1 -1.47-.7c-.73-.51-.64-.79-1.53-.79h-1.7c-.89 0-.8.28-1.52.79a3.28 3.28 0 0 1 -1.48.7h-3.2v-1.07a.32.32 0 0 0 -.33-.33h-.07v-2h-.7v2h-.07a.32.32 0 0 0 -.33.33v3.21a.32.32 0 0 0 .33.33h.82a.32.32 0 0 0 .32-.33v-.82h3.21a1.79 1.79 0 0 1 1 .66 6.2 6.2 0 0 0 -2.73 2.9.57.57 0 0 0 1 .47 4.9 4.9 0 0 1 2.43-2.48c.19.25.35.49.47.65a.81.81 0 0 0 .65.35h2a.8.8 0 0 0 .65-.35c.12-.16.28-.4.47-.65a4.9 4.9 0 0 1 2.43 2.48.57.57 0 1 0 1-.47 6.2 6.2 0 0 0 -2.73-2.9 1.79 1.79 0 0 1 1-.66h3.21v.82a.32.32 0 0 0 .33.33h.81a.32.32 0 0 0 .33-.33v-3.21a.32.32 0 0 0 -.23-.33z" fill="#273c4d"/><path d="m12.62 13.12a2.26 2.26 0 1 1 2.26-2.26 2.27 2.27 0 0 1 -2.26 2.26z" fill="url(#c)"/><path d="m12.62 8.88a2 2 0 1 1 -2 2 2 2 0 0 1 2-2m0-.57a2.55 2.55 0 1 0 2.55 2.55 2.55 2.55 0 0 0 -2.55-2.55z" fill="#273c4d"/><path d="m35.43 13.6a30.69 30.69 0 0 1 -6.21 0c-1.37-.18-2.48-.92-2.48-3.07v-.94c0-1.25 0-2.42 2.14-2.66a27.87 27.87 0 0 1 6.89 0c2.14.3 2.14 1.41 2.14 2.66v.94c0 2.35-1.11 2.89-2.48 3.07z" fill="#273c4d"/><path d="m35.77 7.43a31.12 31.12 0 0 0 -6.89 0c-2.14.2-2.14 1.21-2.14 2.28v.8a2.42 2.42 0 0 0 2.48 2.64c.64.06 1.29.09 1.93.12l.38-.69a.27.27 0 0 1 .25-.21h1.09a.27.27 0 0 1 .25.21l.38.69c.64 0 1.29-.06 1.93-.12 1.37-.15 2.48-.62 2.48-2.64v-.8c0-1.07 0-2.03-2.14-2.28z" fill="url(#d)"/><path d="m33.9 7h-3.15l.36-.58a.34.34 0 0 1 .29-.16h1.85a.34.34 0 0 1 .29.16z" fill="#273c4d"/><path d="m32.82 7.24h-.92a2.68 2.68 0 0 0 -1.24 1.5c-.36 1.24.5 2.6 1.84 3.62h.37a.27.27 0 0 1 .25.21l.17.32.66.35.87-.05z" fill="url(#f)"/><path d="m35.77 7.43c-.41 0-.83-.09-1.24-.12l1.89 5.69c.88-.29 1.49-.93 1.49-2.44v-.8c0-1.12 0-2.08-2.14-2.33z" fill="url(#g)"/><path d="m36.12 13-1.92-5.71h-.61.24l2 5.83h-.31l-2-5.88h-.36l2 5.92h.3a5 5 0 0 0 1-.2z" fill="url(#h)"/><path d="m39.11 32.83h.13a.18.18 0 0 1 .18.18v.41a.18.18 0 0 1 -.18.18h-.13a0 0 0 0 1 0 0v-.78a0 0 0 0 1 0 .01z" fill="#273c4d"/><path d="m37.93 28.88h-2a15.12 15.12 0 0 1 -.25 2.41h2.54a15.72 15.72 0 0 1 -.29-2.41z" fill="#273c4d"/><path d="m37.93 38.37h-2a15.15 15.15 0 0 0 -.3-2.37h2.54a15.75 15.75 0 0 0 -.24 2.37z" fill="#273c4d"/><rect fill="url(#i)" height="4.69" rx=".62" width="4.05" x="34.89" y="31.28"/><path d="m38.32 31.56a.34.34 0 0 1 .34.34v3.44a.34.34 0 0 1 -.34.34h-2.8a.35.35 0 0 1 -.35-.34v-3.44a.35.35 0 0 1 .35-.34zm0-.57h-2.8a.91.91 0 0 0 -.91.91v3.44a.91.91 0 0 0 .91.91h2.8a.9.9 0 0 0 .9-.91v-3.44a.9.9 0 0 0 -.9-.91z" fill="#273c4d"/><path d="m38.66 31.91v-.09a.27.27 0 0 0 -.27-.26h-3a.27.27 0 0 0 -.27.26v3.6a.28.28 0 0 0 0 .13z" fill="url(#j)"/><g fill="#fff" opacity=".3"><path d="m13.37 9a2.42 2.42 0 0 0 -.53-.13l1.16 3.41a1.58 1.58 0 0 0 .34-.43z"/><path d="m13.25 12.73a1.59 1.59 0 0 0 .42-.19l-1.25-3.65a1.73 1.73 0 0 0 -.42.11z"/></g><rect fill="#43809e" height="1.54" rx=".36" transform="matrix(-1 0 0 -1 5.13 66.69)" width="1.54" x="1.8" y="32.58"/><rect fill="#93e019" height="1.54" rx=".36" transform="matrix(-1 0 0 -1 5.13 81.74)" width="1.54" x="1.8" y="40.1"/><rect fill="#33b1da" height="1.54" rx=".36" transform="matrix(-1 0 0 -1 5.13 76.7)" width="1.54" x="1.8" y="37.58"/><rect fill="#93e019" height="1.54" rx=".36" transform="matrix(0 -1 1 0 -25.81 40.88)" width="1.54" x="6.76" y="32.58"/><rect fill="#43809e" height="1.54" rx=".36" transform="matrix(0 -1 1 0 -33.33 48.4)" width="1.54" x="6.76" y="40.1"/><rect fill="#93e019" height="1.54" rx=".36" transform="matrix(0 -1 1 0 -30.82 45.88)" width="1.54" x="6.76" y="37.58"/><rect fill="#33b1da" height="1.54" rx=".36" transform="matrix(0 -1 1 0 -33.26 43.44)" width="1.54" x="4.32" y="37.58"/><rect fill="#93e019" height="1.54" rx=".36" width="1.54" x="4.32" y="35.13"/><rect fill="#33b1da" height="1.54" rx=".36" transform="matrix(0 1 -1 0 43.43 28.36)" width="1.54" x="6.76" y="35.13"/><path d="m7.64 31.55a.83.83 0 0 1 .86-.79h7.09a.84.84 0 0 1 .87.79v14.09a.84.84 0 0 1 -.87.8h-7.09a.84.84 0 0 1 -.86-.8z" fill="#273c4d"/><path d="m15.07 31.74h-1.62a.16.16 0 0 0 -.15.11l-.05.17a.31.31 0 0 1 -.3.22h-1.55a.33.33 0 0 1 -.31-.22v-.17a.18.18 0 0 0 -.16-.11h-1.93a.54.54 0 0 0 -.54.54v12.59a.54.54 0 0 0 .54.54h6.05a.54.54 0 0 0 .54-.54v-12.59a.54.54 0 0 0 -.52-.54z" fill="#43809e"/><rect fill="#33b1da" height="1.54" rx=".36" transform="matrix(-1 0 0 -1 28.98 66.69)" width="1.54" x="13.72" y="32.58"/><rect fill="#93e019" height="1.54" rx=".36" transform="matrix(0 -1 1 0 -21.3 45.39)" width="1.54" x="11.28" y="32.58"/><rect fill="#33b1da" height="1.54" rx=".36" transform="matrix(0 -1 1 0 -23.74 42.95)" width="1.54" x="8.84" y="32.58"/><rect fill="#93e019" height="1.54" rx=".36" transform="matrix(-1 0 0 -1 28.98 81.74)" width="1.54" x="13.72" y="40.1"/><rect fill="#273c4d" height="1.54" rx=".36" transform="matrix(0 -1 1 0 -28.82 52.91)" width="1.54" x="11.28" y="40.1"/><rect fill="#273c4d" height="1.54" rx=".36" transform="matrix(0 -1 1 0 -31.26 50.47)" width="1.54" x="8.84" y="40.1"/><rect fill="#33b1da" height="1.54" rx=".36" transform="matrix(-1 0 0 -1 28.98 76.7)" width="1.54" x="13.72" y="37.58"/><rect fill="#93e019" height="1.54" rx=".36" transform="matrix(0 -1 1 0 -26.3 50.4)" width="1.54" x="11.28" y="37.58"/><rect fill="#33b1da" height="1.54" rx=".36" transform="matrix(0 -1 1 0 -28.75 47.95)" width="1.54" x="8.84" y="37.58"/><rect fill="#93e019" height="1.54" rx=".36" width="1.54" x="8.84" y="35.13"/><rect fill="#33b1da" height="1.54" rx=".36" transform="matrix(0 1 -1 0 47.94 23.85)" width="1.54" x="11.28" y="35.13"/><rect fill="#273c4d" height="1.54" rx=".36" transform="matrix(0 1 -1 0 50.39 21.41)" width="1.54" x="13.72" y="35.13"/><path d="m15.07 31.74h-1.62a.16.16 0 0 0 -.15.11l-.05.17a.31.31 0 0 1 -.3.22h-1.55a.33.33 0 0 1 -.31-.22v-.17a.18.18 0 0 0 -.16-.11h-1.93a.54.54 0 0 0 -.54.54v7.8l7.15-7.08v-.67a.54.54 0 0 0 -.54-.59z" fill="#fff" opacity=".3"/><path d="m21.61 43.66a1.59 1.59 0 1 1 -1.61-1.59 1.59 1.59 0 0 1 1.61 1.59zm3.39-6.92a1.59 1.59 0 1 0 1.59 1.59 1.59 1.59 0 0 0 -1.59-1.59zm7 3.18a1.6 1.6 0 0 0 -1.6-1.59h-.16a1.6 1.6 0 1 0 -1.6 1.59h.17a1.6 1.6 0 0 0 3.19 0zm0 1.46a1.6 1.6 0 1 0 1.58 1.62 1.6 1.6 0 0 0 -1.58-1.62z" fill="url(#k)" fill-rule="evenodd"/><path d="m22.22 48.09a11.72 11.72 0 0 0 1.88 3.29s0 .79 0 1.72h4a8.81 8.81 0 0 1 .08-2.39c1.13-1.22 1.7-3.71 1.82-4.19 0-.17 1.78-2.87 2.16-3.43.1-.27.18-.63 0-.79s-.28 0-.54.09c-.43.39-2.16 2.64-2.33 2.6s-.24-.18-.21-.38c.07-.42 1.08-2.79 1.54-4.32.14-.46.22-.8-.1-.92s-.63.23-.75.57c-.62 1.22-1.39 3-1.74 3.78-.15.19-.46.23-.4 0 .27-1.27 1.14-3.82 1.42-5a1 1 0 0 0 -.18-1 .67.67 0 0 0 -.94.42 44 44 0 0 1 -1.83 5.21c-.27.13-.49-.37-.49-.37v-4.52s-.06-.65-.63-.65-.64.65-.64.65l-.24 6.64-.22.52c-.37.16-.32.15-.53.16-.67 0-.63-.52-1.23-1.17a8.43 8.43 0 0 0 -.94-1.11 1 1 0 0 0 -1.21 0c-.21.18.06.32.36.83a9 9 0 0 1 1.76 3.44z" fill="#273c4d" fill-rule="evenodd"/><g fill="none" stroke="#273c4d" stroke-linecap="square" stroke-miterlimit="10" stroke-width=".36"><path d="m111.7 17.4v.05"/><path d="m111.7 18.2v12.58" stroke-dasharray=".11 .75"/><path d="m111.7 31.15v.06"/><path d="m111.7 30.55v13.81" stroke-dasharray=".11 .73"/></g><path d="m159.89 39.26-.06.06v-.06h-115.02v.02l-.03-.02-2.77 2.76v.64l2.77 2.76.03-.02v.02h115.02v-.06l.06.06 2.7-2.69v-.78z" fill="#6fb0d1"/><path d="m159.89 11.86h-27.88v.03l-.03-.03-2.77 2.77v.63l2.77 2.77.03-.03v.03h27.88l2.7-2.7v-.77z" fill="#6fb0d1"/><path d="m159.89 28.06h-56.45v.03l-.03-.03-2.77 2.77v.63l2.77 2.77.03-.03v.03h56.45l2.7-2.69v-.78z" fill="#43809e"/><path d="m78 6.72h-32.85v.03l-.03-.03-2.77 2.77v.63l2.77 2.77.03-.03v.03h32.85l2.7-2.69v-.78z" fill="#78c400"/><path d="m78 16.8h-32.85v.03l-.03-.03-2.77 2.77v.63l2.77 2.77.03-.03v.03h32.85l2.7-2.7v-.77z" fill="#78c400"/><path d="m124.84 12.06h-42.73v.03l-.03-.03-2.77 2.77v.63l2.77 2.77.03-.03v.03h42.72.01l2.7-2.7v-.77z" fill="#78c400"/></svg>