<svg height="101.8" viewBox="0 0 222.08 101.8" width="222.08" xmlns="http://www.w3.org/2000/svg"><g fill="#273c4c"><path d="m80.49 43.66h4.65c.29 0 .66.55.78.91 1.24 3.94 2.43 7.89 3.64 11.84.08.27.18.54.36 1.08 1.44-4.52 2.8-8.79 4.18-13.1h2.84c.74 0 1 .21 1.25.92 1.1 3.61 2.25 7.2 3.39 10.8.12.37.25.73.48 1.38l2.28-7.43c.57-1.84 1.17-3.67 1.67-5.53a1.05 1.05 0 0 1 1.27-.91h4.2c-.26.87-.47 1.6-.7 2.34-2 6.52-4.11 13-6.13 19.57-.23.74-.55 1-1.33 1-1-.09-2.24.28-2.91-.2s-.75-1.76-1-2.7q-1.5-4.78-3-9.59c-.1-.3-.22-.59-.42-1.14-.38 1.18-.69 2.13-1 3.08-1 3.23-2 6.46-3 9.7a1 1 0 0 1 -1.1.85c-3.22 0-3.23.06-4.2-3q-2.94-9.33-5.86-18.65c-.12-.36-.2-.7-.34-1.22z"/><path d="m146.51 58.12c1 4.13 2.81 5.12 6.09 3.4l1.71 3.28c-2.16 2.65-6.83 2.85-9.39.39a10.08 10.08 0 0 1 -2.83-5.64c-.16-.9-.5-1.21-1.37-1.1a17.6 17.6 0 0 1 -1.79 0v8h-5v-22.62s.11-.12.16-.12c3.67 0 7.34-.12 11 .08a6.59 6.59 0 0 1 6.1 5.79 7.28 7.28 0 0 1 -3.65 8.07zm-7.51-3.84c1.7 0 3.33.08 4.95 0 1.33-.09 2.2-1.32 2.27-2.91s-.71-3.11-2.11-3.25a51.07 51.07 0 0 0 -5.11 0z"/><path d="m155.88 66.44v-22.79h2.81c2.39 0 4.78 0 7.16.12a11.37 11.37 0 0 1 -.44 22.72c-2.95.1-5.91 0-8.87 0a6.18 6.18 0 0 1 -.66-.05zm5-4c1.47 0 2.85.09 4.23 0a6.7 6.7 0 0 0 6.16-6c.53-3.78-1.15-7-4.25-8.25-2-.77-4.05-.43-6.14-.43z"/><path d="m82.31 66.52c-1.59 0-3.12 0-4.64 0a1.18 1.18 0 0 1 -.78-.66c-.43-.94-.72-1.93-1.16-2.87a1.16 1.16 0 0 0 -.82-.58q-3.85-.06-7.7 0a1.23 1.23 0 0 0 -.89.64c-.41.9-.68 1.87-1.07 2.79-.12.27-.43.66-.66.67-1.56.05-3.12 0-4.85 0l1.74-4.51c2.24-5.81 4.5-11.62 6.71-17.44.25-.67.55-1 1.3-.93 1.1.07 2.21 0 3.31 0a1.28 1.28 0 0 1 .94.6q4.32 10.92 8.57 21.88a1.89 1.89 0 0 1 0 .41zm-8.31-8.41-3-9-3.07 9z"/><path d="m109.58 66.45c.55-1.41 1-2.73 1.56-4.05 2.29-5.95 4.6-11.89 6.86-17.84.26-.67.55-1 1.3-.93 1.1.07 2.21 0 3.31 0a1.26 1.26 0 0 1 .93.59q4.33 10.92 8.57 21.88v.36c-1.62 0-3.24 0-4.86 0-.16 0-.34-.2-.46-.35a2.18 2.18 0 0 1 -.2-.49c-.45-1.08-.62-2.54-1.43-3.12s-2.2-.16-3.34-.17c-1.53 0-3.06 0-4.59 0a1.07 1.07 0 0 0 -1.22.87c-.37 1.1-.86 2.16-1.3 3.24zm8.22-8.39h6l-3-8.92z"/><path d="m177.5 60.15 4.43-.85c1.53 2.78 3.3 3.64 5.84 2.88a2.16 2.16 0 0 0 1.76-1.78 2 2 0 0 0 -1.34-2.2c-1.13-.5-2.33-.86-3.49-1.33a18.67 18.67 0 0 1 -2.62-1.17 6.5 6.5 0 0 1 1.85-12.12c4.38-1 8.25.66 9.95 4.4a3.78 3.78 0 0 1 .1.38l-4 2c-.26-.4-.47-.77-.72-1.1a3.62 3.62 0 0 0 -4.3-1.22 1.92 1.92 0 0 0 -.58 3.36 7.37 7.37 0 0 0 1.78.94c1.64.68 3.37 1.18 4.94 2 2.82 1.46 3.76 4 3.3 7a6 6 0 0 1 -4.3 4.87 10.21 10.21 0 0 1 -9.79-1.21 6.71 6.71 0 0 1 -2.81-4.85z"/><path d="m43.56 18.51c.83 2.46 1.6 4.67 2.3 6.91a1.44 1.44 0 0 0 1.14 1.09c2.26.62 4.51 1.3 6.95 2-.39.3-.67.54-1 .76-1.63 1.21-3.29 2.38-4.88 3.64a1.91 1.91 0 0 0 -.62 1.29c-.06 2.35 0 4.7 0 7.08a7 7 0 0 1 -.63-.38c-1.66-1.17-3.32-2.33-4.94-3.55a1.59 1.59 0 0 0 -1.74-.26c-2.16.83-4.35 1.58-6.7 2.42.15-.55.25-1 .38-1.39.56-1.8 1.11-3.61 1.72-5.39a1.61 1.61 0 0 0 -.29-1.73c-1.45-1.78-2.84-3.62-4.45-5.69h2.14c1.75 0 3.49 0 5.23-.08a1.92 1.92 0 0 0 1.27-.69c1.37-1.91 2.66-3.87 4.12-6.03z"/><path d="m44.08 59.5c-2-.61-3.65-1.17-5.36-1.63a1.75 1.75 0 0 0 -1.32.24c-1.44 1-2.82 2.17-4.51 3.5 0-1.81-.08-3.34 0-4.87a2.3 2.3 0 0 0 -1.34-2.47c-1.32-.76-2.54-1.68-4-2.65 1.85-.62 3.45-1.25 5.11-1.73a1.65 1.65 0 0 0 1.27-1.36c.42-1.64.91-3.26 1.44-5.13 1.16 1.56 2.23 2.93 3.22 4.34a1.65 1.65 0 0 0 1.59.78c1.71-.07 3.42 0 5.25 0a38.47 38.47 0 0 1 -2.43 3.34 2.88 2.88 0 0 0 -.46 3.56 43.56 43.56 0 0 1 1.54 4.08z"/><path d="m118.78 28.88c.38-1.68 1.66-.46 2.48-1 0 .46.12.72.12 1q0 3.42 0 6.84c0 1.89-.49 3.61-2.44 4.36a6.51 6.51 0 0 1 -6.15-.71l.92-1.86c3.37 1.57 5.31.86 5.13-1.95a3.3 3.3 0 0 1 -3.42 1 5.48 5.48 0 0 1 -2.3-1.4 4.86 4.86 0 0 1 .2-6.11c1.36-1.45 3.48-1.52 5.46-.17zm.17 3.57a2.26 2.26 0 0 0 -2.13-2.56 2.14 2.14 0 0 0 -2.2 2.25 2.22 2.22 0 0 0 2.09 2.48 2.06 2.06 0 0 0 2.29-2.17z"/><path d="m47.85 63.93c-.19 1.34-.28 2.45-.53 3.51a1.59 1.59 0 0 0 .62 1.76c.86.72 1.66 1.52 2.63 2.43-1.39.24-2.59.39-3.76.67a1.91 1.91 0 0 0 -1.07.82c-.58 1.06-1 2.18-1.65 3.48-.64-1.21-1.16-2.32-1.8-3.34a2 2 0 0 0 -1.19-.81c-1.15-.23-2.33-.32-3.72-.49.78-.81 1.4-1.56 2.14-2.19a2.16 2.16 0 0 0 .78-2.6 29.14 29.14 0 0 1 -.61-3c1.2.58 2.26 1 3.25 1.6a1.55 1.55 0 0 0 1.77-.06c.96-.62 1.97-1.13 3.14-1.78z"/><path d="m108.52 24.66h2.4v11.76h-2.22l-.27-.78c-2 1.4-4.06 1.3-5.48-.22a5 5 0 0 1 -.13-6.22c1.32-1.57 3.45-1.72 5.7-.29zm.09 7.71a2.25 2.25 0 0 0 -2.22-2.49 2.13 2.13 0 0 0 -2.09 2.35 2.14 2.14 0 0 0 2.15 2.39 2.06 2.06 0 0 0 2.16-2.25z"/><path d="m101 27h-5v2.78h4.26v2h-4.18v2.6h4.92v2h-7.48v-11.38h7.48z"/><path d="m72.42 28.82a10.14 10.14 0 0 1 1.76-.82c2-.46 3.46.44 3.67 2.49s0 3.89 0 5.93h-2.31v-2.66c0-.75 0-1.5 0-2.24-.07-1-.64-1.63-1.5-1.6a1.48 1.48 0 0 0 -1.52 1.59c-.07 1.6 0 3.2 0 4.88h-2.52v-11.71h2.4z"/><path d="m88.08 32.83h-6.56c.48 2 2.31 2.29 4.89.87l1.27 1.21a5.38 5.38 0 0 1 -6.63 1.09 4.31 4.31 0 0 1 -1.73-5.4 4.68 4.68 0 0 1 5.5-2.6 4.35 4.35 0 0 1 3.26 4.83zm-2.44-1.54a2 2 0 0 0 -2.19-1.38 1.8 1.8 0 0 0 -1.84 1.38z"/><path d="m131.63 32.83h-6.56c.18 1.94 2.38 2.32 4.75.86.21.19.46.38.68.6s.43.45.64.66a5.43 5.43 0 0 1 -6.66 1 4.3 4.3 0 0 1 -1.75-5.22 4.65 4.65 0 0 1 5.41-2.73c2.13.38 3.51 2.23 3.49 4.83zm-6.63-1.56h4.08a1.86 1.86 0 0 0 -1.78-1.36 2.07 2.07 0 0 0 -2.3 1.36z"/><path d="m63.37 27.16h-3.19v-2.16h8.88v2.13h-3.16v9.3h-2.53z"/><path d="m53.9 82.55c1-1.87.92-3.44-.79-4.9a3.61 3.61 0 0 0 4.44-2.29c.25 2.12 1.29 3.29 3.48 3.49-1.72 1-2.92 2.16-2.17 4.44-1.53-1.54-3.09-1.88-4.96-.74z"/></g></svg>